<?xml version="1.0" encoding="UTF-8" standalone="no"?>
<!DOCTYPE svg PUBLIC "-//W3C//DTD SVG 1.1//EN"
 "http://www.w3.org/Graphics/SVG/1.1/DTD/svg11.dtd">
<!-- Generated by graphviz version 2.36.0 (20140111.2315)
 -->
<!-- Title: view.TriangleGrid.isOdd Pages: 1 -->
<svg width="502pt" height="28pt"
 viewBox="0.00 0.00 502.00 28.00" xmlns="http://www.w3.org/2000/svg" xmlns:xlink="http://www.w3.org/1999/xlink">
<g id="graph0" class="graph" transform="scale(1 1) rotate(0) translate(4 24)">
<title>view.TriangleGrid.isOdd</title>
<polygon fill="white" stroke="none" points="-4,4 -4,-24 498,-24 498,4 -4,4"/>
<!-- Node1 -->
<g id="node1" class="node"><title>Node1</title>
<polygon fill="#bfbfbf" stroke="black" points="0.5,-0.5 0.5,-19.5 125.5,-19.5 125.5,-0.5 0.5,-0.5"/>
<text text-anchor="middle" x="63" y="-7.5" font-family="Helvetica,sans-Serif" font-size="10.00">view.TriangleGrid.isOdd</text>
</g>
<!-- Node2 -->
<g id="node2" class="node"><title>Node2</title>
<g id="a_node2"><a xlink:href="../../d2/dd5/classview_1_1_triangle_grid.html#acd6510d37fff74ea3ac196ead9721492" target="_top" xlink:title="view.TriangleGrid.translateTri">
<polygon fill="white" stroke="black" points="162,-0.5 162,-19.5 312,-19.5 312,-0.5 162,-0.5"/>
<text text-anchor="middle" x="237" y="-7.5" font-family="Helvetica,sans-Serif" font-size="10.00">view.TriangleGrid.translateTri</text>
</a>
</g>
</g>
<!-- Node1&#45;&gt;Node2 -->
<g id="edge1" class="edge"><title>Node1&#45;&gt;Node2</title>
<path fill="none" stroke="midnightblue" d="M135.668,-10C144.333,-10 153.197,-10 161.896,-10"/>
<polygon fill="midnightblue" stroke="midnightblue" points="135.61,-6.5001 125.61,-10 135.61,-13.5001 135.61,-6.5001"/>
</g>
<!-- Node3 -->
<g id="node3" class="node"><title>Node3</title>
<g id="a_node3"><a xlink:href="../../d2/dd5/classview_1_1_triangle_grid.html#aa3c172afa24f5e75f2df49c88305517e" target="_top" xlink:title="view.TriangleGrid.addShape">
<polygon fill="white" stroke="black" points="348,-0.5 348,-19.5 494,-19.5 494,-0.5 348,-0.5"/>
<text text-anchor="middle" x="421" y="-7.5" font-family="Helvetica,sans-Serif" font-size="10.00">view.TriangleGrid.addShape</text>
</a>
</g>
</g>
<!-- Node2&#45;&gt;Node3 -->
<g id="edge2" class="edge"><title>Node2&#45;&gt;Node3</title>
<path fill="none" stroke="midnightblue" d="M322.066,-10C330.667,-10 339.35,-10 347.807,-10"/>
<polygon fill="midnightblue" stroke="midnightblue" points="322.026,-6.5001 312.026,-10 322.026,-13.5001 322.026,-6.5001"/>
</g>
</g>
</svg>
