<?xml version="1.0" encoding="UTF-8" standalone="no"?>
<!DOCTYPE svg PUBLIC "-//W3C//DTD SVG 1.1//EN"
 "http://www.w3.org/Graphics/SVG/1.1/DTD/svg11.dtd">
<!-- Generated by graphviz version 2.36.0 (20140111.2315)
 -->
<!-- Title: view.TriangleGrid.addShape Pages: 1 -->
<svg width="502pt" height="165pt"
 viewBox="0.00 0.00 502.00 165.00" xmlns="http://www.w3.org/2000/svg" xmlns:xlink="http://www.w3.org/1999/xlink">
<g id="graph0" class="graph" transform="scale(1 1) rotate(0) translate(4 161)">
<title>view.TriangleGrid.addShape</title>
<polygon fill="white" stroke="none" points="-4,4 -4,-161 498,-161 498,4 -4,4"/>
<!-- Node1 -->
<g id="node1" class="node"><title>Node1</title>
<polygon fill="#bfbfbf" stroke="black" points="0,-68.5 0,-87.5 146,-87.5 146,-68.5 0,-68.5"/>
<text text-anchor="middle" x="73" y="-75.5" font-family="Helvetica,sans-Serif" font-size="10.00">view.TriangleGrid.addShape</text>
</g>
<!-- Node2 -->
<g id="node2" class="node"><title>Node2</title>
<g id="a_node2"><a xlink:href="../../d2/dd5/classview_1_1_triangle_grid.html#ad3b4bd26ce3e3b81e261fa9b593b7da2" target="_top" xlink:title="view.TriangleGrid.format">
<polygon fill="white" stroke="black" points="192,-137.5 192,-156.5 322,-156.5 322,-137.5 192,-137.5"/>
<text text-anchor="middle" x="257" y="-144.5" font-family="Helvetica,sans-Serif" font-size="10.00">view.TriangleGrid.format</text>
</a>
</g>
</g>
<!-- Node1&#45;&gt;Node2 -->
<g id="edge1" class="edge"><title>Node1&#45;&gt;Node2</title>
<path fill="none" stroke="midnightblue" d="M92.733,-87.625C113.973,-98.2706 149.835,-115.443 182,-127 189.746,-129.783 198.069,-132.389 206.238,-134.741"/>
<polygon fill="midnightblue" stroke="midnightblue" points="205.504,-138.17 216.076,-137.478 207.381,-131.426 205.504,-138.17"/>
</g>
<!-- Node3 -->
<g id="node3" class="node"><title>Node3</title>
<g id="a_node3"><a xlink:href="../../d2/dd5/classview_1_1_triangle_grid.html#ac0c37376e040804166ced95f312c168e" target="_top" xlink:title="view.TriangleGrid.makeNew\lStrokeTriangle">
<polygon fill="white" stroke="black" points="184.5,-88 184.5,-118 329.5,-118 329.5,-88 184.5,-88"/>
<text text-anchor="start" x="192.5" y="-106" font-family="Helvetica,sans-Serif" font-size="10.00">view.TriangleGrid.makeNew</text>
<text text-anchor="middle" x="257" y="-95" font-family="Helvetica,sans-Serif" font-size="10.00">StrokeTriangle</text>
</a>
</g>
</g>
<!-- Node1&#45;&gt;Node3 -->
<g id="edge2" class="edge"><title>Node1&#45;&gt;Node3</title>
<path fill="none" stroke="midnightblue" d="M143.326,-87.5227C153.527,-88.924 164.113,-90.3782 174.531,-91.8093"/>
<polygon fill="midnightblue" stroke="midnightblue" points="174.067,-95.2783 184.45,-93.1718 175.02,-88.3434 174.067,-95.2783"/>
</g>
<!-- Node4 -->
<g id="node4" class="node"><title>Node4</title>
<g id="a_node4"><a xlink:href="../../d2/dd5/classview_1_1_triangle_grid.html#a253880c6d998322dd7eaa9b8915c5c51" target="_top" xlink:title="view.TriangleGrid.makeNew\lTriangle">
<polygon fill="white" stroke="black" points="184.5,-39 184.5,-69 329.5,-69 329.5,-39 184.5,-39"/>
<text text-anchor="start" x="192.5" y="-57" font-family="Helvetica,sans-Serif" font-size="10.00">view.TriangleGrid.makeNew</text>
<text text-anchor="middle" x="257" y="-46" font-family="Helvetica,sans-Serif" font-size="10.00">Triangle</text>
</a>
</g>
</g>
<!-- Node1&#45;&gt;Node4 -->
<g id="edge3" class="edge"><title>Node1&#45;&gt;Node4</title>
<path fill="none" stroke="midnightblue" d="M146.193,-68.4801C155.449,-67.2595 164.976,-66.0031 174.369,-64.7645"/>
<polygon fill="midnightblue" stroke="midnightblue" points="175.033,-68.2073 184.49,-63.4299 174.118,-61.2674 175.033,-68.2073"/>
</g>
<!-- Node5 -->
<g id="node5" class="node"><title>Node5</title>
<g id="a_node5"><a xlink:href="../../d2/dd5/classview_1_1_triangle_grid.html#acd6510d37fff74ea3ac196ead9721492" target="_top" xlink:title="view.TriangleGrid.translateTri">
<polygon fill="white" stroke="black" points="182,-0.5 182,-19.5 332,-19.5 332,-0.5 182,-0.5"/>
<text text-anchor="middle" x="257" y="-7.5" font-family="Helvetica,sans-Serif" font-size="10.00">view.TriangleGrid.translateTri</text>
</a>
</g>
</g>
<!-- Node1&#45;&gt;Node5 -->
<g id="edge4" class="edge"><title>Node1&#45;&gt;Node5</title>
<path fill="none" stroke="midnightblue" d="M93.1437,-68.4095C114.452,-57.9917 150.095,-41.3253 182,-30 189.757,-27.2465 198.086,-24.656 206.256,-22.3105"/>
<polygon fill="midnightblue" stroke="midnightblue" points="207.398,-25.626 216.096,-19.5766 205.524,-18.8815 207.398,-25.626"/>
</g>
<!-- Node6 -->
<g id="node6" class="node"><title>Node6</title>
<g id="a_node6"><a xlink:href="../../d2/dd5/classview_1_1_triangle_grid.html#a91470f41afce4c73803ef15cdfeec159" target="_top" xlink:title="view.TriangleGrid.isOdd">
<polygon fill="white" stroke="black" points="368.5,-0.5 368.5,-19.5 493.5,-19.5 493.5,-0.5 368.5,-0.5"/>
<text text-anchor="middle" x="431" y="-7.5" font-family="Helvetica,sans-Serif" font-size="10.00">view.TriangleGrid.isOdd</text>
</a>
</g>
</g>
<!-- Node5&#45;&gt;Node6 -->
<g id="edge5" class="edge"><title>Node5&#45;&gt;Node6</title>
<path fill="none" stroke="midnightblue" d="M332.191,-10C340.883,-10 349.738,-10 358.394,-10"/>
<polygon fill="midnightblue" stroke="midnightblue" points="358.441,-13.5001 368.441,-10 358.441,-6.5001 358.441,-13.5001"/>
</g>
</g>
</svg>
