<?xml version="1.0" encoding="UTF-8" standalone="no"?>
<!DOCTYPE svg PUBLIC "-//W3C//DTD SVG 1.1//EN"
 "http://www.w3.org/Graphics/SVG/1.1/DTD/svg11.dtd">
<!-- Generated by graphviz version 2.36.0 (20140111.2315)
 -->
<!-- Title: model.simulations.SimulationFire Pages: 1 -->
<!--zoomable 627 -->
<svg id="main" version="1.1" xmlns="http://www.w3.org/2000/svg" xmlns:xlink="http://www.w3.org/1999/xlink" xml:space="preserve" onload="init(evt)">
<style type="text/css"><![CDATA[
.edge:hover path { stroke: red; }
.edge:hover polygon { stroke: red; fill: red; }
]]></style>
<script type="text/javascript"><![CDATA[
var edges = document.getElementsByTagName('g');
if (edges && edges.length) {
  for (var i=0;i<edges.length;i++) {
    if (edges[i].id.substr(0,4)=='edge') {
      edges[i].setAttribute('class','edge');
    }
  }
}
]]></script>
        <defs>
                <circle id="rim" cx="0" cy="0" r="7"/>
                <circle id="rim2" cx="0" cy="0" r="3.5"/>
                <g id="zoomPlus">
                        <use xlink:href="#rim" fill="#404040">
                                <set attributeName="fill" to="#808080" begin="zoomplus.mouseover" end="zoomplus.mouseout"/>
                        </use>
                        <path d="M-4,0h8M0,-4v8" fill="none" stroke="white" stroke-width="1.5" pointer-events="none"/>
                </g>
                <g id="zoomMin">
                        <use xlink:href="#rim" fill="#404040">
                                <set attributeName="fill" to="#808080" begin="zoomminus.mouseover" end="zoomminus.mouseout"/>
                        </use>
                        <path d="M-4,0h8" fill="none" stroke="white" stroke-width="1.5" pointer-events="none"/>
                </g>
                <g id="dirArrow">
                        <path fill="none" stroke="white" stroke-width="1.5" d="M0,-3.0v7 M-2.5,-0.5L0,-3.0L2.5,-0.5"/>
                </g>
               <g id="resetDef">
                       <use xlink:href="#rim2" fill="#404040">
                               <set attributeName="fill" to="#808080" begin="reset.mouseover" end="reset.mouseout"/>
                       </use>
               </g>
        </defs>

<script type="text/javascript">
var viewWidth = 1338;
var viewHeight = 627;
var sectionId = 'dynsection-1';
</script>
<script xlink:href="../../svgpan.js"/>
<svg id="graph" class="graph">
<g id="viewport">
<title>model.simulations.SimulationFire</title>
<polygon fill="white" stroke="none" points="-4,4 -4,-623 1334,-623 1334,4 -4,4"/>
<!-- Node1 -->
<g id="node1" class="node"><title>Node1</title>
<polygon fill="#bfbfbf" stroke="black" points="854.5,-206.5 854.5,-225.5 1029.5,-225.5 1029.5,-206.5 854.5,-206.5"/>
<text text-anchor="middle" x="942" y="-213.5" font-family="Helvetica,sans-Serif" font-size="10.00">model.simulations.SimulationFire</text>
</g>
<!-- Node2 -->
<g id="node2" class="node"><title>Node2</title>
<g id="a_node2"><a xlink:href="../../d0/d56/classmodel_1_1simulations_1_1_simulation.html" target="_top" xlink:title="model.simulations.Simulation">
<polygon fill="white" stroke="black" points="554,-199.5 554,-218.5 712,-218.5 712,-199.5 554,-199.5"/>
<text text-anchor="middle" x="633" y="-206.5" font-family="Helvetica,sans-Serif" font-size="10.00">model.simulations.Simulation</text>
</a>
</g>
</g>
<!-- Node2&#45;&gt;Node1 -->
<g id="edge1" class="edge"><title>Node2&#45;&gt;Node1</title>
<path fill="none" stroke="midnightblue" d="M722.366,-211.015C763.888,-211.962 813.216,-213.086 854.499,-214.028"/>
<polygon fill="midnightblue" stroke="midnightblue" points="722.341,-207.513 712.263,-210.785 722.181,-214.512 722.341,-207.513"/>
</g>
<!-- Node13 -->
<g id="node13" class="node"><title>Node13</title>
<g id="a_node13"><a xlink:href="../../d6/d7b/classcontroller_1_1_cell_society_controller.html" target="_top" xlink:title="controller.CellSocietyController">
<polygon fill="white" stroke="black" points="860.5,-391.5 860.5,-410.5 1023.5,-410.5 1023.5,-391.5 860.5,-391.5"/>
<text text-anchor="middle" x="942" y="-398.5" font-family="Helvetica,sans-Serif" font-size="10.00">controller.CellSocietyController</text>
</a>
</g>
</g>
<!-- Node2&#45;&gt;Node13 -->
<g id="edge18" class="edge"><title>Node2&#45;&gt;Node13</title>
<path fill="none" stroke="#9a32cd" stroke-dasharray="5,2" d="M707.686,-220.109C761.66,-228.942 827.01,-241.373 836,-251 876.11,-293.954 814.106,-338.846 854,-382 857.463,-385.746 861.479,-388.842 865.848,-391.394"/>
<polygon fill="#9a32cd" stroke="#9a32cd" points="708.187,-216.644 697.757,-218.503 707.07,-223.555 708.187,-216.644"/>
<text text-anchor="middle" x="783" y="-254" font-family="Helvetica,sans-Serif" font-size="10.00"> myCurrentSimulation</text>
</g>
<!-- Node3 -->
<g id="node3" class="node"><title>Node3</title>
<g id="a_node3"><a xlink:href="../../dc/d86/classmodel_1_1simulations_1_1_abstract_cell_factory.html" target="_top" xlink:title="model.simulations.Abstract\lCellFactory">
<polygon fill="white" stroke="black" points="299,-256 299,-286 447,-286 447,-256 299,-256"/>
<text text-anchor="start" x="307" y="-274" font-family="Helvetica,sans-Serif" font-size="10.00">model.simulations.Abstract</text>
<text text-anchor="middle" x="373" y="-263" font-family="Helvetica,sans-Serif" font-size="10.00">CellFactory</text>
</a>
</g>
</g>
<!-- Node3&#45;&gt;Node2 -->
<g id="edge2" class="edge"><title>Node3&#45;&gt;Node2</title>
<path fill="none" stroke="#9a32cd" stroke-dasharray="5,2" d="M457.164,-254.057C482.545,-248.611 510.484,-242.338 536,-236 557.339,-230.699 581.133,-224.013 599.693,-218.62"/>
<polygon fill="#9a32cd" stroke="#9a32cd" points="456.253,-250.672 447.202,-256.18 457.712,-257.518 456.253,-250.672"/>
<text text-anchor="middle" x="501" y="-255" font-family="Helvetica,sans-Serif" font-size="10.00"> myCellFactory</text>
</g>
<!-- Node4 -->
<g id="node4" class="node"><title>Node4</title>
<g id="a_node4"><a xlink:href="../../da/d6d/classmodel_1_1gridrules_1_1_grid_rules.html" target="_top" xlink:title="model.gridrules.GridRules">
<polygon fill="white" stroke="black" points="304,-217.5 304,-236.5 442,-236.5 442,-217.5 304,-217.5"/>
<text text-anchor="middle" x="373" y="-224.5" font-family="Helvetica,sans-Serif" font-size="10.00">model.gridrules.GridRules</text>
</a>
</g>
</g>
<!-- Node4&#45;&gt;Node2 -->
<g id="edge3" class="edge"><title>Node4&#45;&gt;Node2</title>
<path fill="none" stroke="#9a32cd" stroke-dasharray="5,2" d="M452.385,-221.531C484.567,-219.286 521.745,-216.692 553.898,-214.449"/>
<polygon fill="#9a32cd" stroke="#9a32cd" points="451.856,-218.06 442.124,-222.247 452.343,-225.043 451.856,-218.06"/>
<text text-anchor="middle" x="501" y="-224" font-family="Helvetica,sans-Serif" font-size="10.00"> myGridRules</text>
</g>
<!-- Node5 -->
<g id="node5" class="node"><title>Node5</title>
<g id="a_node5"><a xlink:href="../../db/d90/classmodel_1_1patches_1_1_patch.html" target="_top" xlink:title="model.patches.Patch">
<polygon fill="white" stroke="black" points="314.5,-113.5 314.5,-132.5 431.5,-132.5 431.5,-113.5 314.5,-113.5"/>
<text text-anchor="middle" x="373" y="-120.5" font-family="Helvetica,sans-Serif" font-size="10.00">model.patches.Patch</text>
</a>
</g>
</g>
<!-- Node5&#45;&gt;Node2 -->
<g id="edge4" class="edge"><title>Node5&#45;&gt;Node2</title>
<path fill="none" stroke="#9a32cd" stroke-dasharray="5,2" d="M412.151,-135.717C464.279,-153.093 556.602,-183.867 603.276,-199.425"/>
<polygon fill="#9a32cd" stroke="#9a32cd" points="413.19,-132.374 402.596,-132.532 410.976,-139.015 413.19,-132.374"/>
<text text-anchor="middle" x="501" y="-180" font-family="Helvetica,sans-Serif" font-size="10.00"> myPatchGrid</text>
</g>
<!-- Node7 -->
<g id="node7" class="node"><title>Node7</title>
<g id="a_node7"><a xlink:href="../../dc/d41/classmodel_1_1cells_1_1_cell.html" target="_top" xlink:title="model.cells.Cell">
<polygon fill="white" stroke="black" points="587.5,-62.5 587.5,-81.5 678.5,-81.5 678.5,-62.5 587.5,-62.5"/>
<text text-anchor="middle" x="633" y="-69.5" font-family="Helvetica,sans-Serif" font-size="10.00">model.cells.Cell</text>
</a>
</g>
</g>
<!-- Node5&#45;&gt;Node7 -->
<g id="edge8" class="edge"><title>Node5&#45;&gt;Node7</title>
<path fill="none" stroke="#9a32cd" stroke-dasharray="5,2" d="M403.574,-109.429C421.308,-101.882 444.519,-93.0252 466,-88 506.455,-78.5359 553.716,-74.6545 587.441,-73.0709"/>
<polygon fill="#9a32cd" stroke="#9a32cd" points="402.102,-106.253 394.331,-113.454 404.897,-112.67 402.102,-106.253"/>
<text text-anchor="middle" x="501" y="-91" font-family="Helvetica,sans-Serif" font-size="10.00"> myPatch</text>
</g>
<!-- Node6 -->
<g id="node6" class="node"><title>Node6</title>
<polygon fill="white" stroke="#bfbfbf" points="14,-61.5 14,-80.5 142,-80.5 142,-61.5 14,-61.5"/>
<text text-anchor="middle" x="78" y="-68.5" font-family="Helvetica,sans-Serif" font-size="10.00">Map&lt; String, Double &gt;</text>
</g>
<!-- Node6&#45;&gt;Node5 -->
<g id="edge5" class="edge"><title>Node6&#45;&gt;Node5</title>
<path fill="none" stroke="#9a32cd" stroke-dasharray="5,2" d="M142.601,-82.2875C195.019,-91.5904 268.544,-104.639 318.105,-113.435"/>
<polygon fill="#9a32cd" stroke="#9a32cd" points="143.198,-78.839 132.741,-80.5376 141.975,-85.7313 143.198,-78.839"/>
<text text-anchor="middle" x="227" y="-110" font-family="Helvetica,sans-Serif" font-size="10.00"> myPatchPropertyMap</text>
</g>
<!-- Node6&#45;&gt;Node7 -->
<g id="edge9" class="edge"><title>Node6&#45;&gt;Node7</title>
<path fill="none" stroke="#9a32cd" stroke-dasharray="5,2" d="M152.411,-71.1327C268.854,-71.3433 492.425,-71.7476 587.476,-71.9195"/>
<polygon fill="#9a32cd" stroke="#9a32cd" points="152.173,-67.6324 142.167,-71.1142 152.16,-74.6324 152.173,-67.6324"/>
<text text-anchor="middle" x="373" y="-75" font-family="Helvetica,sans-Serif" font-size="10.00"> myPropertyMap</text>
</g>
<!-- Node7&#45;&gt;Node5 -->
<g id="edge6" class="edge"><title>Node7&#45;&gt;Node5</title>
<path fill="none" stroke="#9a32cd" stroke-dasharray="5,2" d="M594.683,-84.7758C577.058,-90.4209 555.626,-96.7312 536,-101 501.748,-108.45 462.841,-113.832 431.742,-117.408"/>
<polygon fill="#9a32cd" stroke="#9a32cd" points="596.156,-87.977 604.578,-81.5494 593.986,-81.3219 596.156,-87.977"/>
<text text-anchor="middle" x="501" y="-116" font-family="Helvetica,sans-Serif" font-size="10.00"> myCell</text>
</g>
<!-- Node8 -->
<g id="node8" class="node"><title>Node8</title>
<polygon fill="white" stroke="#bfbfbf" points="308,-0.5 308,-19.5 438,-19.5 438,-0.5 308,-0.5"/>
<text text-anchor="middle" x="373" y="-7.5" font-family="Helvetica,sans-Serif" font-size="10.00">List&lt; model.cells.Cell &gt;</text>
</g>
<!-- Node8&#45;&gt;Node7 -->
<g id="edge7" class="edge"><title>Node8&#45;&gt;Node7</title>
<path fill="none" stroke="#9a32cd" stroke-dasharray="5,2" d="M448.338,-15.3124C476.171,-18.4253 507.855,-23.3234 536,-31 564.15,-38.6778 594.863,-52.9148 613.781,-62.424"/>
<polygon fill="#9a32cd" stroke="#9a32cd" points="448.584,-11.819 438.271,-14.2444 447.846,-18.7799 448.584,-11.819"/>
<text text-anchor="middle" x="501" y="-34" font-family="Helvetica,sans-Serif" font-size="10.00"> myNeighbors</text>
</g>
<!-- Node9 -->
<g id="node9" class="node"><title>Node9</title>
<polygon fill="white" stroke="#bfbfbf" points="0,-113.5 0,-132.5 156,-132.5 156,-113.5 0,-113.5"/>
<text text-anchor="middle" x="78" y="-120.5" font-family="Helvetica,sans-Serif" font-size="10.00">List&lt; model.patches.Patch &gt;</text>
</g>
<!-- Node9&#45;&gt;Node5 -->
<g id="edge10" class="edge"><title>Node9&#45;&gt;Node5</title>
<path fill="none" stroke="#9a32cd" stroke-dasharray="5,2" d="M166.4,-123C214.184,-123 272.046,-123 314.197,-123"/>
<polygon fill="#9a32cd" stroke="#9a32cd" points="166.366,-119.5 156.366,-123 166.366,-126.5 166.366,-119.5"/>
<text text-anchor="middle" x="227" y="-126" font-family="Helvetica,sans-Serif" font-size="10.00"> myNeighbors</text>
</g>
<!-- Node10 -->
<g id="node10" class="node"><title>Node10</title>
<g id="a_node10"><a xlink:href="../../d1/d3e/classview_1_1_simulation_screen.html" target="_top" xlink:title="view.SimulationScreen">
<polygon fill="white" stroke="black" points="1206,-387.5 1206,-406.5 1330,-406.5 1330,-387.5 1206,-387.5"/>
<text text-anchor="middle" x="1268" y="-394.5" font-family="Helvetica,sans-Serif" font-size="10.00">view.SimulationScreen</text>
</a>
</g>
</g>
<!-- Node10&#45;&gt;Node2 -->
<g id="edge11" class="edge"><title>Node10&#45;&gt;Node2</title>
<path fill="none" stroke="#9a32cd" stroke-dasharray="5,2" d="M1257.82,-378.448C1244.88,-353.702 1219.32,-309.58 1188,-280 1128.59,-223.898 1108.79,-207.664 1030,-186 901.016,-150.532 739.774,-182.132 669.492,-199.44"/>
<polygon fill="#9a32cd" stroke="#9a32cd" points="1254.77,-380.169 1262.43,-387.485 1261,-376.987 1254.77,-380.169"/>
<text text-anchor="middle" x="942" y="-189" font-family="Helvetica,sans-Serif" font-size="10.00"> myView</text>
</g>
<!-- Node10&#45;&gt;Node13 -->
<g id="edge21" class="edge"><title>Node10&#45;&gt;Node13</title>
<path fill="none" stroke="#9a32cd" stroke-dasharray="5,2" d="M1201.47,-407.726C1196.92,-408.233 1192.4,-408.668 1188,-409 1133.26,-413.134 1071.47,-411.07 1023.65,-408.005"/>
<polygon fill="#9a32cd" stroke="#9a32cd" points="1201.94,-411.196 1211.44,-406.514 1201.09,-404.247 1201.94,-411.196"/>
<text text-anchor="middle" x="1118" y="-414" font-family="Helvetica,sans-Serif" font-size="10.00"> myCurrentSimulationScreen</text>
</g>
<!-- Node11 -->
<g id="node11" class="node"><title>Node11</title>
<polygon fill="white" stroke="#bfbfbf" points="881.5,-580 881.5,-610 1002.5,-610 1002.5,-580 881.5,-580"/>
<text text-anchor="start" x="889.5" y="-598" font-family="Helvetica,sans-Serif" font-size="10.00">Map&lt; Color, ArrayList</text>
<text text-anchor="middle" x="942" y="-587" font-family="Helvetica,sans-Serif" font-size="10.00">&lt; Integer &gt; &gt;</text>
</g>
<!-- Node11&#45;&gt;Node10 -->
<g id="edge12" class="edge"><title>Node11&#45;&gt;Node10</title>
<path fill="none" stroke="#9a32cd" stroke-dasharray="5,2" d="M1012.64,-606.435C1065.53,-611.23 1137.52,-608.977 1188,-573 1246.09,-531.595 1262.21,-437.25 1265.98,-406.724"/>
<polygon fill="#9a32cd" stroke="#9a32cd" points="1012.96,-602.95 1002.66,-605.427 1012.26,-609.915 1012.96,-602.95"/>
<text text-anchor="middle" x="1118" y="-611" font-family="Helvetica,sans-Serif" font-size="10.00"> myData</text>
</g>
<!-- Node12 -->
<g id="node12" class="node"><title>Node12</title>
<polygon fill="white" stroke="#bfbfbf" points="918.5,-541.5 918.5,-560.5 965.5,-560.5 965.5,-541.5 918.5,-541.5"/>
<text text-anchor="middle" x="942" y="-548.5" font-family="Helvetica,sans-Serif" font-size="10.00">Shape</text>
</g>
<!-- Node12&#45;&gt;Node10 -->
<g id="edge13" class="edge"><title>Node12&#45;&gt;Node10</title>
<path fill="none" stroke="#9a32cd" stroke-dasharray="5,2" d="M975.643,-556.273C1025.54,-562.561 1121.95,-567.551 1188,-526 1233.79,-497.195 1257.04,-431.218 1264.38,-406.544"/>
<polygon fill="#9a32cd" stroke="#9a32cd" points="976.108,-552.805 965.728,-554.928 975.167,-559.741 976.108,-552.805"/>
<text text-anchor="middle" x="1118" y="-563" font-family="Helvetica,sans-Serif" font-size="10.00"> myColorGrid</text>
</g>
<!-- Node13&#45;&gt;Node10 -->
<g id="edge14" class="edge"><title>Node13&#45;&gt;Node10</title>
<path fill="none" stroke="#9a32cd" stroke-dasharray="5,2" d="M1033.59,-398.275C1038.46,-398.171 1043.29,-398.078 1048,-398 1101.22,-397.118 1161.73,-396.902 1205.64,-396.887"/>
<polygon fill="#9a32cd" stroke="#9a32cd" points="1033.46,-394.777 1023.54,-398.502 1033.62,-401.775 1033.46,-394.777"/>
<text text-anchor="middle" x="1118" y="-401" font-family="Helvetica,sans-Serif" font-size="10.00"> myController</text>
</g>
<!-- Node14 -->
<g id="node14" class="node"><title>Node14</title>
<polygon fill="white" stroke="#bfbfbf" points="605,-374.5 605,-393.5 661,-393.5 661,-374.5 605,-374.5"/>
<text text-anchor="middle" x="633" y="-381.5" font-family="Helvetica,sans-Serif" font-size="10.00">Timeline</text>
</g>
<!-- Node14&#45;&gt;Node13 -->
<g id="edge15" class="edge"><title>Node14&#45;&gt;Node13</title>
<path fill="none" stroke="#9a32cd" stroke-dasharray="5,2" d="M671.404,-382.553C712.003,-381.364 778.711,-380.517 836,-385 853.188,-386.345 871.828,-388.842 888.566,-391.47"/>
<polygon fill="#9a32cd" stroke="#9a32cd" points="671.055,-379.062 661.171,-382.877 671.276,-386.059 671.055,-379.062"/>
<text text-anchor="middle" x="783" y="-388" font-family="Helvetica,sans-Serif" font-size="10.00"> myTimeline</text>
</g>
<!-- Node15 -->
<g id="node15" class="node"><title>Node15</title>
<polygon fill="white" stroke="#bfbfbf" points="559.5,-336.5 559.5,-355.5 706.5,-355.5 706.5,-336.5 559.5,-336.5"/>
<text text-anchor="middle" x="633" y="-343.5" font-family="Helvetica,sans-Serif" font-size="10.00">HashMap&lt; String, String &gt;</text>
</g>
<!-- Node15&#45;&gt;Node13 -->
<g id="edge16" class="edge"><title>Node15&#45;&gt;Node13</title>
<path fill="none" stroke="#9a32cd" stroke-dasharray="5,2" d="M717.28,-342.753C754.916,-344.134 799.115,-349.851 836,-366 845.805,-370.293 844.461,-377.145 854,-382 861.578,-385.857 869.915,-388.934 878.336,-391.388"/>
<polygon fill="#9a32cd" stroke="#9a32cd" points="716.94,-339.242 706.85,-342.473 716.752,-346.24 716.94,-339.242"/>
<text text-anchor="middle" x="783" y="-369" font-family="Helvetica,sans-Serif" font-size="10.00"> myParameters</text>
</g>
<!-- Node16 -->
<g id="node16" class="node"><title>Node16</title>
<polygon fill="white" stroke="#bfbfbf" points="610.5,-298.5 610.5,-317.5 655.5,-317.5 655.5,-298.5 610.5,-298.5"/>
<text text-anchor="middle" x="633" y="-305.5" font-family="Helvetica,sans-Serif" font-size="10.00">Stage</text>
</g>
<!-- Node16&#45;&gt;Node13 -->
<g id="edge17" class="edge"><title>Node16&#45;&gt;Node13</title>
<path fill="none" stroke="#9a32cd" stroke-dasharray="5,2" d="M665.625,-301.687C708.998,-294.958 787.116,-289.993 836,-329 855.445,-344.516 835.449,-365.425 854,-382 858.266,-385.811 863.116,-388.918 868.292,-391.444"/>
<polygon fill="#9a32cd" stroke="#9a32cd" points="664.923,-298.256 655.641,-303.364 666.083,-305.16 664.923,-298.256"/>
<text text-anchor="middle" x="783" y="-332" font-family="Helvetica,sans-Serif" font-size="10.00"> myStage</text>
</g>
<!-- Node17 -->
<g id="node17" class="node"><title>Node17</title>
<polygon fill="white" stroke="#bfbfbf" points="586.5,-260.5 586.5,-279.5 679.5,-279.5 679.5,-260.5 586.5,-260.5"/>
<text text-anchor="middle" x="633" y="-267.5" font-family="Helvetica,sans-Serif" font-size="10.00">ResourceBundle</text>
</g>
<!-- Node17&#45;&gt;Node13 -->
<g id="edge19" class="edge"><title>Node17&#45;&gt;Node13</title>
<path fill="none" stroke="#9a32cd" stroke-dasharray="5,2" d="M689.671,-266.198C741.923,-263.902 815.088,-264.375 836,-283 869.397,-312.743 822.938,-349.826 854,-382 857.651,-385.782 861.867,-388.894 866.433,-391.448"/>
<polygon fill="#9a32cd" stroke="#9a32cd" points="689.34,-262.71 679.521,-266.69 689.679,-269.702 689.34,-262.71"/>
<text text-anchor="middle" x="783" y="-286" font-family="Helvetica,sans-Serif" font-size="10.00"> myProperties</text>
</g>
<!-- Node18 -->
<g id="node18" class="node"><title>Node18</title>
<polygon fill="white" stroke="#bfbfbf" points="609.5,-450.5 609.5,-469.5 656.5,-469.5 656.5,-450.5 609.5,-450.5"/>
<text text-anchor="middle" x="633" y="-457.5" font-family="Helvetica,sans-Serif" font-size="10.00">Scene</text>
</g>
<!-- Node18&#45;&gt;Node13 -->
<g id="edge20" class="edge"><title>Node18&#45;&gt;Node13</title>
<path fill="none" stroke="#9a32cd" stroke-dasharray="5,2" d="M666.584,-456.403C706.695,-451.69 776.775,-442.528 836,-430 861.163,-424.677 889.224,-416.825 910.002,-410.634"/>
<polygon fill="#9a32cd" stroke="#9a32cd" points="666.111,-452.934 656.578,-457.559 666.914,-459.888 666.111,-452.934"/>
<text text-anchor="middle" x="783" y="-450" font-family="Helvetica,sans-Serif" font-size="10.00"> myScene</text>
</g>
<!-- Node19 -->
<g id="node19" class="node"><title>Node19</title>
<polygon fill="white" stroke="#bfbfbf" points="572,-495.5 572,-514.5 694,-514.5 694,-495.5 572,-495.5"/>
<text text-anchor="middle" x="633" y="-502.5" font-family="Helvetica,sans-Serif" font-size="10.00">Map&lt; String, String &gt;</text>
</g>
<!-- Node19&#45;&gt;Node10 -->
<g id="edge25" class="edge"><title>Node19&#45;&gt;Node10</title>
<path fill="none" stroke="#9a32cd" stroke-dasharray="5,2" d="M704.479,-505.439C743.384,-504.958 792.497,-503.166 836,-498 994.569,-479.169 1034.39,-469.637 1188,-426 1207.11,-420.57 1228.21,-412.725 1243.8,-406.563"/>
<polygon fill="#9a32cd" stroke="#9a32cd" points="704.271,-501.94 694.305,-505.537 704.339,-508.94 704.271,-501.94"/>
<text text-anchor="middle" x="942" y="-498" font-family="Helvetica,sans-Serif" font-size="10.00"> myStyles</text>
</g>
<!-- Node19&#45;&gt;Node13 -->
<g id="edge22" class="edge"><title>Node19&#45;&gt;Node13</title>
<path fill="none" stroke="#9a32cd" stroke-dasharray="5,2" d="M692.713,-493.483C747.465,-482.583 822.654,-467.146 836,-462 871.21,-448.423 908.516,-424.01 927.773,-410.551"/>
<polygon fill="#9a32cd" stroke="#9a32cd" points="691.873,-490.081 682.746,-495.462 693.237,-496.947 691.873,-490.081"/>
<text text-anchor="middle" x="783" y="-488" font-family="Helvetica,sans-Serif" font-size="10.00"> myStyles</text>
</g>
<!-- Node20 -->
<g id="node20" class="node"><title>Node20</title>
<polygon fill="white" stroke="#bfbfbf" points="610,-412.5 610,-431.5 656,-431.5 656,-412.5 610,-412.5"/>
<text text-anchor="middle" x="633" y="-419.5" font-family="Helvetica,sans-Serif" font-size="10.00">Group</text>
</g>
<!-- Node20&#45;&gt;Node13 -->
<g id="edge23" class="edge"><title>Node20&#45;&gt;Node13</title>
<path fill="none" stroke="#9a32cd" stroke-dasharray="5,2" d="M666.265,-419.793C711.898,-416.671 796.786,-410.865 860.176,-406.529"/>
<polygon fill="#9a32cd" stroke="#9a32cd" points="665.816,-416.315 656.079,-420.49 666.294,-423.299 665.816,-416.315"/>
<text text-anchor="middle" x="783" y="-418" font-family="Helvetica,sans-Serif" font-size="10.00"> myGroup</text>
</g>
<!-- Node21 -->
<g id="node21" class="node"><title>Node21</title>
<polygon fill="white" stroke="#bfbfbf" points="885.5,-353.5 885.5,-372.5 998.5,-372.5 998.5,-353.5 885.5,-353.5"/>
<text text-anchor="middle" x="942" y="-360.5" font-family="Helvetica,sans-Serif" font-size="10.00">ArrayList&lt; Button &gt;</text>
</g>
<!-- Node21&#45;&gt;Node10 -->
<g id="edge24" class="edge"><title>Node21&#45;&gt;Node10</title>
<path fill="none" stroke="#9a32cd" stroke-dasharray="5,2" d="M1008.91,-365.58C1058.37,-368.063 1127.65,-372.705 1188,-381 1200.06,-382.658 1213.05,-385.037 1224.94,-387.455"/>
<polygon fill="#9a32cd" stroke="#9a32cd" points="1008.83,-362.072 998.673,-365.082 1008.49,-369.063 1008.83,-362.072"/>
<text text-anchor="middle" x="1118" y="-384" font-family="Helvetica,sans-Serif" font-size="10.00"> myButtons</text>
</g>
<!-- Node22 -->
<g id="node22" class="node"><title>Node22</title>
<polygon fill="white" stroke="#bfbfbf" points="921,-315.5 921,-334.5 963,-334.5 963,-315.5 921,-315.5"/>
<text text-anchor="middle" x="942" y="-322.5" font-family="Helvetica,sans-Serif" font-size="10.00">HBox</text>
</g>
<!-- Node22&#45;&gt;Node10 -->
<g id="edge26" class="edge"><title>Node22&#45;&gt;Node10</title>
<path fill="none" stroke="#9a32cd" stroke-dasharray="5,2" d="M973.392,-324.685C1020.51,-325.03 1113.51,-329.058 1188,-353 1212.81,-360.974 1238.66,-377.108 1253.77,-387.466"/>
<polygon fill="#9a32cd" stroke="#9a32cd" points="973.255,-321.185 963.247,-324.664 973.24,-328.185 973.255,-321.185"/>
<text text-anchor="middle" x="1118" y="-356" font-family="Helvetica,sans-Serif" font-size="10.00"> myTop</text>
</g>
<!-- Node23 -->
<g id="node23" class="node"><title>Node23</title>
<polygon fill="white" stroke="#bfbfbf" points="906,-277.5 906,-296.5 978,-296.5 978,-277.5 906,-277.5"/>
<text text-anchor="middle" x="942" y="-284.5" font-family="Helvetica,sans-Serif" font-size="10.00">BorderPane</text>
</g>
<!-- Node23&#45;&gt;Node10 -->
<g id="edge27" class="edge"><title>Node23&#45;&gt;Node10</title>
<path fill="none" stroke="#9a32cd" stroke-dasharray="5,2" d="M988.462,-282.997C1039.69,-280.465 1124.14,-282.369 1188,-314 1222.4,-331.042 1249.84,-369.563 1261.25,-387.49"/>
<polygon fill="#9a32cd" stroke="#9a32cd" points="988.148,-279.51 978.364,-283.576 988.548,-286.498 988.148,-279.51"/>
<text text-anchor="middle" x="1118" y="-317" font-family="Helvetica,sans-Serif" font-size="10.00"> root</text>
</g>
<!-- Node24 -->
<g id="node24" class="node"><title>Node24</title>
<g id="a_node24"><a xlink:href="../../dc/de1/classmodel_1_1neighbors_1_1_neighbors.html" target="_top" xlink:title="model.neighbors.Neighbors">
<polygon fill="white" stroke="black" points="298.5,-179.5 298.5,-198.5 447.5,-198.5 447.5,-179.5 298.5,-179.5"/>
<text text-anchor="middle" x="373" y="-186.5" font-family="Helvetica,sans-Serif" font-size="10.00">model.neighbors.Neighbors</text>
</a>
</g>
</g>
<!-- Node24&#45;&gt;Node2 -->
<g id="edge28" class="edge"><title>Node24&#45;&gt;Node2</title>
<path fill="none" stroke="#9a32cd" stroke-dasharray="5,2" d="M458.019,-195.076C483.108,-196.93 510.672,-199.007 536,-201 541.836,-201.459 547.87,-201.942 553.939,-202.435"/>
<polygon fill="#9a32cd" stroke="#9a32cd" points="458.032,-191.567 447.802,-194.323 457.518,-198.549 458.032,-191.567"/>
<text text-anchor="middle" x="501" y="-204" font-family="Helvetica,sans-Serif" font-size="10.00"> myNeighbors</text>
</g>
</g>
</svg>
        <g id="navigator" transform="translate(0 0)" fill="#404254">
                <rect fill="#f2f5e9" fill-opacity="0.5" stroke="#606060" stroke-width=".5" x="0" y="0" width="60" height="60"/>
                <use id="zoomplus" xlink:href="#zoomPlus" x="17" y="9" onmousedown="handleZoom(evt,'in')"/>
                <use id="zoomminus" xlink:href="#zoomMin" x="42" y="9" onmousedown="handleZoom(evt,'out')"/>
                <use id="reset" xlink:href="#resetDef" x="30" y="36" onmousedown="handleReset()"/>
                <g id="arrowUp" xlink:href="#dirArrow" transform="translate(30 24)" onmousedown="handlePan(0,-1)">
                  <use xlink:href="#rim" fill="#404040">
                        <set attributeName="fill" to="#808080" begin="arrowUp.mouseover" end="arrowUp.mouseout"/>
                  </use>
                  <path fill="none" stroke="white" stroke-width="1.5" d="M0,-3.0v7 M-2.5,-0.5L0,-3.0L2.5,-0.5"/>
                </g>
                <g id="arrowRight" xlink:href="#dirArrow" transform="rotate(90) translate(36 -43)" onmousedown="handlePan(1,0)">
                  <use xlink:href="#rim" fill="#404040">
                        <set attributeName="fill" to="#808080" begin="arrowRight.mouseover" end="arrowRight.mouseout"/>
                  </use>
                  <path fill="none" stroke="white" stroke-width="1.5" d="M0,-3.0v7 M-2.5,-0.5L0,-3.0L2.5,-0.5"/>
                </g>
                <g id="arrowDown" xlink:href="#dirArrow" transform="rotate(180) translate(-30 -48)" onmousedown="handlePan(0,1)">
                  <use xlink:href="#rim" fill="#404040">
                        <set attributeName="fill" to="#808080" begin="arrowDown.mouseover" end="arrowDown.mouseout"/>
                  </use>
                  <path fill="none" stroke="white" stroke-width="1.5" d="M0,-3.0v7 M-2.5,-0.5L0,-3.0L2.5,-0.5"/>
                </g>
                <g id="arrowLeft" xlink:href="#dirArrow" transform="rotate(270) translate(-36 17)" onmousedown="handlePan(-1,0)">
                  <use xlink:href="#rim" fill="#404040">
                        <set attributeName="fill" to="#808080" begin="arrowLeft.mouseover" end="arrowLeft.mouseout"/>
                  </use>
                  <path fill="none" stroke="white" stroke-width="1.5" d="M0,-3.0v7 M-2.5,-0.5L0,-3.0L2.5,-0.5"/>
                </g>
        </g>
        <svg viewBox="0 0 15 15" width="100%" height="30px" preserveAspectRatio="xMaxYMin meet">
         <g id="arrow_out" transform="scale(0.3 0.3)">
          <a xlink:href="classmodel_1_1simulations_1_1_simulation_fire__coll__graph_org.svg" target="_base">
           <rect id="button" ry="5" rx="5" y="6" x="6" height="38" width="38"
                fill="#f2f5e9" fill-opacity="0.5" stroke="#606060" stroke-width="1.0"/>
           <path id="arrow"
             d="M 11.500037,31.436501 C 11.940474,20.09759 22.043105,11.32322 32.158766,21.979434 L 37.068811,17.246167 C 37.068811,17.246167 37.088388,32 37.088388,32 L 22.160133,31.978069 C 22.160133,31.978069 26.997745,27.140456 26.997745,27.140456 C 18.528582,18.264221 13.291696,25.230495 11.500037,31.436501 z"
             style="fill:#404040;"/>
          </a>
         </g>
        </svg>
</svg>
