<?xml version="1.0" encoding="UTF-8" standalone="no"?>
<!DOCTYPE svg PUBLIC "-//W3C//DTD SVG 1.1//EN"
 "http://www.w3.org/Graphics/SVG/1.1/DTD/svg11.dtd">
<!-- Generated by graphviz version 2.36.0 (20140111.2315)
 -->
<!-- Title: model.patches.Patch.setCell Pages: 1 -->
<svg width="602pt" height="276pt"
 viewBox="0.00 0.00 602.00 276.00" xmlns="http://www.w3.org/2000/svg" xmlns:xlink="http://www.w3.org/1999/xlink">
<g id="graph0" class="graph" transform="scale(1 1) rotate(0) translate(4 272)">
<title>model.patches.Patch.setCell</title>
<polygon fill="white" stroke="none" points="-4,4 -4,-272 598,-272 598,4 -4,4"/>
<!-- Node1 -->
<g id="node1" class="node"><title>Node1</title>
<polygon fill="#bfbfbf" stroke="black" points="0,-127.5 0,-146.5 152,-146.5 152,-127.5 0,-127.5"/>
<text text-anchor="middle" x="76" y="-134.5" font-family="Helvetica,sans-Serif" font-size="10.00">model.patches.Patch.setCell</text>
</g>
<!-- Node2 -->
<g id="node2" class="node"><title>Node2</title>
<g id="a_node2"><a xlink:href="../../da/d76/classmodel_1_1simulations_1_1_simulation_segregation.html#a4fcb2d48be4d851031592698dd78c1e6" target="_top" xlink:title="model.simulations.Simulation\lSegregation.moveAgent">
<polygon fill="white" stroke="black" points="213,-236 213,-266 371,-266 371,-236 213,-236"/>
<text text-anchor="start" x="221" y="-254" font-family="Helvetica,sans-Serif" font-size="10.00">model.simulations.Simulation</text>
<text text-anchor="middle" x="292" y="-243" font-family="Helvetica,sans-Serif" font-size="10.00">Segregation.moveAgent</text>
</a>
</g>
</g>
<!-- Node1&#45;&gt;Node2 -->
<g id="edge1" class="edge"><title>Node1&#45;&gt;Node2</title>
<path fill="none" stroke="midnightblue" d="M93.336,-153.718C113.702,-173.607 150.432,-206.443 188,-225 196.681,-229.288 206.134,-232.911 215.676,-235.961"/>
<polygon fill="midnightblue" stroke="midnightblue" points="95.6847,-151.118 86.1269,-146.546 90.7477,-156.08 95.6847,-151.118"/>
</g>
<!-- Node4 -->
<g id="node4" class="node"><title>Node4</title>
<g id="a_node4"><a xlink:href="../../d0/d56/classmodel_1_1simulations_1_1_simulation.html#ad6b0af21d9f0a4d2bd0fc2ce13d40ab5" target="_top" xlink:title="model.simulations.Simulation.setupGrid">
<polygon fill="white" stroke="black" points="188,-196.5 188,-215.5 396,-215.5 396,-196.5 188,-196.5"/>
<text text-anchor="middle" x="292" y="-203.5" font-family="Helvetica,sans-Serif" font-size="10.00">model.simulations.Simulation.setupGrid</text>
</a>
</g>
</g>
<!-- Node1&#45;&gt;Node4 -->
<g id="edge3" class="edge"><title>Node1&#45;&gt;Node4</title>
<path fill="none" stroke="midnightblue" d="M104.459,-151.194C126.526,-162.088 158.584,-176.78 188,-186 201.384,-190.195 216.035,-193.676 229.98,-196.493"/>
<polygon fill="midnightblue" stroke="midnightblue" points="105.869,-147.986 95.3604,-146.637 102.734,-154.245 105.869,-147.986"/>
</g>
<!-- Node6 -->
<g id="node6" class="node"><title>Node6</title>
<g id="a_node6"><a xlink:href="../../d7/d85/classmodel_1_1simulations_1_1_simulation_life.html#a835e84a7f9fc272a5cb373abb36bf628" target="_top" xlink:title="model.simulations.Simulation\lLife.updateGrid">
<polygon fill="white" stroke="black" points="213,-147 213,-177 371,-177 371,-147 213,-147"/>
<text text-anchor="start" x="221" y="-165" font-family="Helvetica,sans-Serif" font-size="10.00">model.simulations.Simulation</text>
<text text-anchor="middle" x="292" y="-154" font-family="Helvetica,sans-Serif" font-size="10.00">Life.updateGrid</text>
</a>
</g>
</g>
<!-- Node1&#45;&gt;Node6 -->
<g id="edge5" class="edge"><title>Node1&#45;&gt;Node6</title>
<path fill="none" stroke="midnightblue" d="M162.394,-146.976C179.025,-148.919 196.384,-150.947 212.769,-152.861"/>
<polygon fill="midnightblue" stroke="midnightblue" points="162.486,-143.463 152.147,-145.779 161.674,-150.416 162.486,-143.463"/>
</g>
<!-- Node7 -->
<g id="node7" class="node"><title>Node7</title>
<g id="a_node7"><a xlink:href="../../d7/dc8/classmodel_1_1simulations_1_1_simulation_sugarscape.html#a6f5b4a3d8842dbe0fd7c4ac94e349fe3" target="_top" xlink:title="model.simulations.Simulation\lSugarscape.updateGrid">
<polygon fill="white" stroke="black" points="213,-98 213,-128 371,-128 371,-98 213,-98"/>
<text text-anchor="start" x="221" y="-116" font-family="Helvetica,sans-Serif" font-size="10.00">model.simulations.Simulation</text>
<text text-anchor="middle" x="292" y="-105" font-family="Helvetica,sans-Serif" font-size="10.00">Sugarscape.updateGrid</text>
</a>
</g>
</g>
<!-- Node1&#45;&gt;Node7 -->
<g id="edge6" class="edge"><title>Node1&#45;&gt;Node7</title>
<path fill="none" stroke="midnightblue" d="M162.394,-127.423C179.025,-125.558 196.384,-123.611 212.769,-121.774"/>
<polygon fill="midnightblue" stroke="midnightblue" points="161.695,-123.979 152.147,-128.572 162.475,-130.936 161.695,-123.979"/>
</g>
<!-- Node8 -->
<g id="node8" class="node"><title>Node8</title>
<g id="a_node8"><a xlink:href="../../d9/d70/classmodel_1_1simulations_1_1_simulation_predator.html#a1d05d28746dd1f641960ef401b28472e" target="_top" xlink:title="model.simulations.Simulation\lPredator.updateGrid">
<polygon fill="white" stroke="black" points="213,-49 213,-79 371,-79 371,-49 213,-49"/>
<text text-anchor="start" x="221" y="-67" font-family="Helvetica,sans-Serif" font-size="10.00">model.simulations.Simulation</text>
<text text-anchor="middle" x="292" y="-56" font-family="Helvetica,sans-Serif" font-size="10.00">Predator.updateGrid</text>
</a>
</g>
</g>
<!-- Node1&#45;&gt;Node8 -->
<g id="edge7" class="edge"><title>Node1&#45;&gt;Node8</title>
<path fill="none" stroke="midnightblue" d="M105.409,-123.119C127.53,-112.705 159.211,-98.6404 188,-89 198.818,-85.3773 210.438,-82.043 221.836,-79.0698"/>
<polygon fill="midnightblue" stroke="midnightblue" points="103.781,-120.018 96.2572,-127.477 106.791,-126.338 103.781,-120.018"/>
</g>
<!-- Node9 -->
<g id="node9" class="node"><title>Node9</title>
<g id="a_node9"><a xlink:href="../../dd/d46/classmodel_1_1simulations_1_1_simulation_fire.html#afb98c9dd0a67eb041f8c635b0c18c709" target="_top" xlink:title="model.simulations.Simulation\lFire.updateGrid">
<polygon fill="white" stroke="black" points="213,-0 213,-30 371,-30 371,-0 213,-0"/>
<text text-anchor="start" x="221" y="-18" font-family="Helvetica,sans-Serif" font-size="10.00">model.simulations.Simulation</text>
<text text-anchor="middle" x="292" y="-7" font-family="Helvetica,sans-Serif" font-size="10.00">Fire.updateGrid</text>
</a>
</g>
</g>
<!-- Node1&#45;&gt;Node9 -->
<g id="edge8" class="edge"><title>Node1&#45;&gt;Node9</title>
<path fill="none" stroke="midnightblue" d="M91.7698,-119.749C111.479,-97.8507 148.51,-60.4663 188,-40 195.76,-35.9781 204.187,-32.5881 212.765,-29.7338"/>
<polygon fill="midnightblue" stroke="midnightblue" points="89.0854,-117.502 85.0949,-127.316 94.3349,-122.132 89.0854,-117.502"/>
</g>
<!-- Node3 -->
<g id="node3" class="node"><title>Node3</title>
<g id="a_node3"><a xlink:href="../../da/d76/classmodel_1_1simulations_1_1_simulation_segregation.html#a3aeb5a7dfb3094553814a23e70cd5676" target="_top" xlink:title="model.simulations.Simulation\lSegregation.updateGrid">
<polygon fill="white" stroke="black" points="434,-238 434,-268 592,-268 592,-238 434,-238"/>
<text text-anchor="start" x="442" y="-256" font-family="Helvetica,sans-Serif" font-size="10.00">model.simulations.Simulation</text>
<text text-anchor="middle" x="513" y="-245" font-family="Helvetica,sans-Serif" font-size="10.00">Segregation.updateGrid</text>
</a>
</g>
</g>
<!-- Node2&#45;&gt;Node3 -->
<g id="edge2" class="edge"><title>Node2&#45;&gt;Node3</title>
<path fill="none" stroke="midnightblue" d="M381.287,-251.806C398.696,-251.965 416.849,-252.131 433.894,-252.287"/>
<polygon fill="midnightblue" stroke="midnightblue" points="381.168,-248.305 371.137,-251.714 381.104,-255.305 381.168,-248.305"/>
</g>
<!-- Node5 -->
<g id="node5" class="node"><title>Node5</title>
<g id="a_node5"><a xlink:href="../../d0/d56/classmodel_1_1simulations_1_1_simulation.html#a49dab3d977f4447d538534885be2b64f" target="_top" xlink:title="model.simulations.Simulation.\lSimulation">
<polygon fill="white" stroke="black" points="432.5,-189 432.5,-219 593.5,-219 593.5,-189 432.5,-189"/>
<text text-anchor="start" x="440.5" y="-207" font-family="Helvetica,sans-Serif" font-size="10.00">model.simulations.Simulation.</text>
<text text-anchor="middle" x="513" y="-196" font-family="Helvetica,sans-Serif" font-size="10.00">Simulation</text>
</a>
</g>
</g>
<!-- Node4&#45;&gt;Node5 -->
<g id="edge4" class="edge"><title>Node4&#45;&gt;Node5</title>
<path fill="none" stroke="midnightblue" d="M406.109,-204.967C414.985,-204.886 423.83,-204.805 432.408,-204.727"/>
<polygon fill="midnightblue" stroke="midnightblue" points="406.055,-201.467 396.087,-205.059 406.119,-208.467 406.055,-201.467"/>
</g>
</g>
</svg>
