<?xml version="1.0" encoding="UTF-8" standalone="no"?>
<!DOCTYPE svg PUBLIC "-//W3C//DTD SVG 1.1//EN"
 "http://www.w3.org/Graphics/SVG/1.1/DTD/svg11.dtd">
<!-- Generated by graphviz version 2.36.0 (20140111.2315)
 -->
<!-- Title: model.patches.Patch.getCell Pages: 1 -->
<svg width="1068pt" height="455pt"
 viewBox="0.00 0.00 1068.00 455.00" xmlns="http://www.w3.org/2000/svg" xmlns:xlink="http://www.w3.org/1999/xlink">
<g id="graph0" class="graph" transform="scale(1 1) rotate(0) translate(4 451)">
<title>model.patches.Patch.getCell</title>
<polygon fill="white" stroke="none" points="-4,4 -4,-451 1064,-451 1064,4 -4,4"/>
<!-- Node1 -->
<g id="node1" class="node"><title>Node1</title>
<polygon fill="#bfbfbf" stroke="black" points="0.5,-231.5 0.5,-250.5 153.5,-250.5 153.5,-231.5 0.5,-231.5"/>
<text text-anchor="middle" x="77" y="-238.5" font-family="Helvetica,sans-Serif" font-size="10.00">model.patches.Patch.getCell</text>
</g>
<!-- Node2 -->
<g id="node2" class="node"><title>Node2</title>
<g id="a_node2"><a xlink:href="../../dd/d46/classmodel_1_1simulations_1_1_simulation_fire.html#ae5a99a4e85747e0f41ad6a8dbbd0dad0" target="_top" xlink:title="model.simulations.Simulation\lFire.setParameter">
<polygon fill="white" stroke="black" points="209,-417 209,-447 367,-447 367,-417 209,-417"/>
<text text-anchor="start" x="217" y="-435" font-family="Helvetica,sans-Serif" font-size="10.00">model.simulations.Simulation</text>
<text text-anchor="middle" x="288" y="-424" font-family="Helvetica,sans-Serif" font-size="10.00">Fire.setParameter</text>
</a>
</g>
</g>
<!-- Node1&#45;&gt;Node2 -->
<g id="edge1" class="edge"><title>Node1&#45;&gt;Node2</title>
<path fill="none" stroke="midnightblue" d="M85.4533,-260.144C100.026,-294.979 135.693,-368.658 190,-407 195.825,-411.112 202.272,-414.549 208.992,-417.42"/>
<polygon fill="midnightblue" stroke="midnightblue" points="88.6105,-258.616 81.6105,-250.663 82.1231,-261.245 88.6105,-258.616"/>
</g>
<!-- Node3 -->
<g id="node3" class="node"><title>Node3</title>
<g id="a_node3"><a xlink:href="../../da/d76/classmodel_1_1simulations_1_1_simulation_segregation.html#a1b773126f6338ac30821282df0439541" target="_top" xlink:title="model.simulations.Simulation\lSegregation.setParameter">
<polygon fill="white" stroke="black" points="209,-368 209,-398 367,-398 367,-368 209,-368"/>
<text text-anchor="start" x="217" y="-386" font-family="Helvetica,sans-Serif" font-size="10.00">model.simulations.Simulation</text>
<text text-anchor="middle" x="288" y="-375" font-family="Helvetica,sans-Serif" font-size="10.00">Segregation.setParameter</text>
</a>
</g>
</g>
<!-- Node1&#45;&gt;Node3 -->
<g id="edge2" class="edge"><title>Node1&#45;&gt;Node3</title>
<path fill="none" stroke="midnightblue" d="M90.2328,-259.091C108.735,-285.021 146.346,-332.438 190,-358 196.603,-361.867 203.802,-365.142 211.196,-367.917"/>
<polygon fill="midnightblue" stroke="midnightblue" points="92.8959,-256.791 84.305,-250.59 87.154,-260.795 92.8959,-256.791"/>
</g>
<!-- Node4 -->
<g id="node4" class="node"><title>Node4</title>
<g id="a_node4"><a xlink:href="../../d9/d70/classmodel_1_1simulations_1_1_simulation_predator.html#ac136add930b9740137df234c190a3b55" target="_top" xlink:title="model.simulations.Simulation\lPredator.setParameter">
<polygon fill="white" stroke="black" points="209,-319 209,-349 367,-349 367,-319 209,-319"/>
<text text-anchor="start" x="217" y="-337" font-family="Helvetica,sans-Serif" font-size="10.00">model.simulations.Simulation</text>
<text text-anchor="middle" x="288" y="-326" font-family="Helvetica,sans-Serif" font-size="10.00">Predator.setParameter</text>
</a>
</g>
</g>
<!-- Node1&#45;&gt;Node4 -->
<g id="edge3" class="edge"><title>Node1&#45;&gt;Node4</title>
<path fill="none" stroke="midnightblue" d="M99.3046,-256.562C121.114,-271.845 156.47,-294.865 190,-309 198.974,-312.783 208.663,-316.107 218.326,-318.992"/>
<polygon fill="midnightblue" stroke="midnightblue" points="101.28,-253.672 91.1019,-250.729 97.2233,-259.377 101.28,-253.672"/>
</g>
<!-- Node5 -->
<g id="node5" class="node"><title>Node5</title>
<g id="a_node5"><a xlink:href="../../d9/d70/classmodel_1_1simulations_1_1_simulation_predator.html#a4dc34009f8fb8dd12979397f9b775430" target="_top" xlink:title="model.simulations.Simulation\lPredator.SimulationPredator">
<polygon fill="white" stroke="black" points="209,-270 209,-300 367,-300 367,-270 209,-270"/>
<text text-anchor="start" x="217" y="-288" font-family="Helvetica,sans-Serif" font-size="10.00">model.simulations.Simulation</text>
<text text-anchor="middle" x="288" y="-277" font-family="Helvetica,sans-Serif" font-size="10.00">Predator.SimulationPredator</text>
</a>
</g>
</g>
<!-- Node1&#45;&gt;Node5 -->
<g id="edge4" class="edge"><title>Node1&#45;&gt;Node5</title>
<path fill="none" stroke="midnightblue" d="M133.441,-252.672C158.582,-257.965 188.622,-264.289 215.44,-269.935"/>
<polygon fill="midnightblue" stroke="midnightblue" points="133.856,-249.183 123.35,-250.547 132.414,-256.032 133.856,-249.183"/>
</g>
<!-- Node6 -->
<g id="node6" class="node"><title>Node6</title>
<g id="a_node6"><a xlink:href="../../d0/d56/classmodel_1_1simulations_1_1_simulation.html#a6efb6657ce3c803a99ccd41d8b8a2057" target="_top" xlink:title="model.simulations.Simulation.update\lColorGrid">
<polygon fill="white" stroke="black" points="422.5,-106 422.5,-136 617.5,-136 617.5,-106 422.5,-106"/>
<text text-anchor="start" x="430.5" y="-124" font-family="Helvetica,sans-Serif" font-size="10.00">model.simulations.Simulation.update</text>
<text text-anchor="middle" x="520" y="-113" font-family="Helvetica,sans-Serif" font-size="10.00">ColorGrid</text>
</a>
</g>
</g>
<!-- Node1&#45;&gt;Node6 -->
<g id="edge5" class="edge"><title>Node1&#45;&gt;Node6</title>
<path fill="none" stroke="midnightblue" d="M104.467,-226.585C126.725,-214.987 159.68,-199.022 190,-189 234.58,-174.264 353.213,-151.168 435.123,-136.055"/>
<polygon fill="midnightblue" stroke="midnightblue" points="102.536,-223.646 95.331,-231.414 105.808,-229.835 102.536,-223.646"/>
</g>
<!-- Node11 -->
<g id="node11" class="node"><title>Node11</title>
<g id="a_node11"><a xlink:href="../../d9/d70/classmodel_1_1simulations_1_1_simulation_predator.html#a1d05d28746dd1f641960ef401b28472e" target="_top" xlink:title="model.simulations.Simulation\lPredator.updateGrid">
<polygon fill="white" stroke="black" points="679,-235 679,-265 837,-265 837,-235 679,-235"/>
<text text-anchor="start" x="687" y="-253" font-family="Helvetica,sans-Serif" font-size="10.00">model.simulations.Simulation</text>
<text text-anchor="middle" x="758" y="-242" font-family="Helvetica,sans-Serif" font-size="10.00">Predator.updateGrid</text>
</a>
</g>
</g>
<!-- Node1&#45;&gt;Node11 -->
<g id="edge14" class="edge"><title>Node1&#45;&gt;Node11</title>
<path fill="none" stroke="midnightblue" d="M163.728,-242.136C296.706,-243.899 550.696,-247.265 678.88,-248.965"/>
<polygon fill="midnightblue" stroke="midnightblue" points="163.632,-238.635 153.586,-242.002 163.539,-245.634 163.632,-238.635"/>
</g>
<!-- Node12 -->
<g id="node12" class="node"><title>Node12</title>
<g id="a_node12"><a xlink:href="../../da/d76/classmodel_1_1simulations_1_1_simulation_segregation.html#a3aeb5a7dfb3094553814a23e70cd5676" target="_top" xlink:title="model.simulations.Simulation\lSegregation.updateGrid">
<polygon fill="white" stroke="black" points="679,-147 679,-177 837,-177 837,-147 679,-147"/>
<text text-anchor="start" x="687" y="-165" font-family="Helvetica,sans-Serif" font-size="10.00">model.simulations.Simulation</text>
<text text-anchor="middle" x="758" y="-154" font-family="Helvetica,sans-Serif" font-size="10.00">Segregation.updateGrid</text>
</a>
</g>
</g>
<!-- Node1&#45;&gt;Node12 -->
<g id="edge15" class="edge"><title>Node1&#45;&gt;Node12</title>
<path fill="none" stroke="midnightblue" d="M163.728,-231.026C296.706,-215.554 550.696,-186.003 678.88,-171.089"/>
<polygon fill="midnightblue" stroke="midnightblue" points="163.115,-227.573 153.586,-232.206 163.924,-234.527 163.115,-227.573"/>
</g>
<!-- Node13 -->
<g id="node13" class="node"><title>Node13</title>
<g id="a_node13"><a xlink:href="../../d7/dc8/classmodel_1_1simulations_1_1_simulation_sugarscape.html#a6f5b4a3d8842dbe0fd7c4ac94e349fe3" target="_top" xlink:title="model.simulations.Simulation\lSugarscape.updateGrid">
<polygon fill="white" stroke="black" points="679,-0 679,-30 837,-30 837,-0 679,-0"/>
<text text-anchor="start" x="687" y="-18" font-family="Helvetica,sans-Serif" font-size="10.00">model.simulations.Simulation</text>
<text text-anchor="middle" x="758" y="-7" font-family="Helvetica,sans-Serif" font-size="10.00">Sugarscape.updateGrid</text>
</a>
</g>
</g>
<!-- Node1&#45;&gt;Node13 -->
<g id="edge13" class="edge"><title>Node1&#45;&gt;Node13</title>
<path fill="none" stroke="midnightblue" d="M86.8681,-222.317C102.814,-190.881 139.438,-127.744 190,-96 342.43,-0.301268 562.754,0.564824 678.767,-7.14159"/>
<polygon fill="midnightblue" stroke="midnightblue" points="83.7077,-220.812 82.4261,-231.329 89.9865,-223.907 83.7077,-220.812"/>
</g>
<!-- Node14 -->
<g id="node14" class="node"><title>Node14</title>
<g id="a_node14"><a xlink:href="../../d0/d56/classmodel_1_1simulations_1_1_simulation.html#ac71a6bcbcb42c8759d1e6a6aacafc802" target="_top" xlink:title="model.simulations.Simulation.update\lNeighborSquare">
<polygon fill="white" stroke="black" points="190.5,-106 190.5,-136 385.5,-136 385.5,-106 190.5,-106"/>
<text text-anchor="start" x="198.5" y="-124" font-family="Helvetica,sans-Serif" font-size="10.00">model.simulations.Simulation.update</text>
<text text-anchor="middle" x="288" y="-113" font-family="Helvetica,sans-Serif" font-size="10.00">NeighborSquare</text>
</a>
</g>
</g>
<!-- Node1&#45;&gt;Node14 -->
<g id="edge16" class="edge"><title>Node1&#45;&gt;Node14</title>
<path fill="none" stroke="midnightblue" d="M94.6089,-224.226C115.283,-204.207 152.469,-170.943 190,-151 201.13,-145.086 213.609,-140.135 225.816,-136.071"/>
<polygon fill="midnightblue" stroke="midnightblue" points="91.9565,-221.925 87.2863,-231.435 96.8676,-226.913 91.9565,-221.925"/>
</g>
<!-- Node7 -->
<g id="node7" class="node"><title>Node7</title>
<g id="a_node7"><a xlink:href="../../d0/d56/classmodel_1_1simulations_1_1_simulation.html#ad6b0af21d9f0a4d2bd0fc2ce13d40ab5" target="_top" xlink:title="model.simulations.Simulation.setupGrid">
<polygon fill="white" stroke="black" points="654,-196.5 654,-215.5 862,-215.5 862,-196.5 654,-196.5"/>
<text text-anchor="middle" x="758" y="-203.5" font-family="Helvetica,sans-Serif" font-size="10.00">model.simulations.Simulation.setupGrid</text>
</a>
</g>
</g>
<!-- Node6&#45;&gt;Node7 -->
<g id="edge6" class="edge"><title>Node6&#45;&gt;Node7</title>
<path fill="none" stroke="midnightblue" d="M594.559,-139.647C602.714,-142.903 610.7,-146.668 618,-151 637.19,-162.389 634.222,-175.665 654,-186 662.395,-190.387 671.629,-193.817 681.016,-196.498"/>
<polygon fill="midnightblue" stroke="midnightblue" points="595.531,-136.274 584.938,-136.054 593.082,-142.832 595.531,-136.274"/>
</g>
<!-- Node9 -->
<g id="node9" class="node"><title>Node9</title>
<g id="a_node9"><a xlink:href="../../dd/d46/classmodel_1_1simulations_1_1_simulation_fire.html#afb98c9dd0a67eb041f8c635b0c18c709" target="_top" xlink:title="model.simulations.Simulation\lFire.updateGrid">
<polygon fill="white" stroke="black" points="679,-49 679,-79 837,-79 837,-49 679,-49"/>
<text text-anchor="start" x="687" y="-67" font-family="Helvetica,sans-Serif" font-size="10.00">model.simulations.Simulation</text>
<text text-anchor="middle" x="758" y="-56" font-family="Helvetica,sans-Serif" font-size="10.00">Fire.updateGrid</text>
</a>
</g>
</g>
<!-- Node6&#45;&gt;Node9 -->
<g id="edge8" class="edge"><title>Node6&#45;&gt;Node9</title>
<path fill="none" stroke="midnightblue" d="M590.708,-103.505C611.094,-98.4427 633.426,-92.949 654,-88 666.228,-85.0584 679.287,-81.9727 691.857,-79.0306"/>
<polygon fill="midnightblue" stroke="midnightblue" points="589.733,-100.141 580.873,-105.951 591.422,-106.934 589.733,-100.141"/>
</g>
<!-- Node10 -->
<g id="node10" class="node"><title>Node10</title>
<g id="a_node10"><a xlink:href="../../d7/d85/classmodel_1_1simulations_1_1_simulation_life.html#a835e84a7f9fc272a5cb373abb36bf628" target="_top" xlink:title="model.simulations.Simulation\lLife.updateGrid">
<polygon fill="white" stroke="black" points="679,-98 679,-128 837,-128 837,-98 679,-98"/>
<text text-anchor="start" x="687" y="-116" font-family="Helvetica,sans-Serif" font-size="10.00">model.simulations.Simulation</text>
<text text-anchor="middle" x="758" y="-105" font-family="Helvetica,sans-Serif" font-size="10.00">Life.updateGrid</text>
</a>
</g>
</g>
<!-- Node6&#45;&gt;Node10 -->
<g id="edge9" class="edge"><title>Node6&#45;&gt;Node10</title>
<path fill="none" stroke="midnightblue" d="M627.755,-117.381C644.964,-116.798 662.495,-116.204 678.866,-115.649"/>
<polygon fill="midnightblue" stroke="midnightblue" points="627.547,-113.886 617.671,-117.723 627.784,-120.882 627.547,-113.886"/>
</g>
<!-- Node6&#45;&gt;Node11 -->
<g id="edge10" class="edge"><title>Node6&#45;&gt;Node11</title>
<path fill="none" stroke="midnightblue" d="M603.081,-140.762C608.413,-143.713 613.457,-147.103 618,-151 645.761,-174.812 625.516,-202.057 654,-225 661.38,-230.945 669.96,-235.509 678.957,-239.008"/>
<polygon fill="midnightblue" stroke="midnightblue" points="604.386,-137.503 593.872,-136.201 601.279,-143.776 604.386,-137.503"/>
</g>
<!-- Node6&#45;&gt;Node12 -->
<g id="edge11" class="edge"><title>Node6&#45;&gt;Node12</title>
<path fill="none" stroke="midnightblue" d="M617.454,-137.757C637.823,-141.295 659.078,-144.988 678.679,-148.393"/>
<polygon fill="midnightblue" stroke="midnightblue" points="617.989,-134.297 607.538,-136.034 616.791,-141.194 617.989,-134.297"/>
</g>
<!-- Node6&#45;&gt;Node13 -->
<g id="edge12" class="edge"><title>Node6&#45;&gt;Node13</title>
<path fill="none" stroke="midnightblue" d="M609.611,-101.397C612.522,-99.7414 615.33,-97.9463 618,-96 642.213,-78.3509 629.583,-56.3657 654,-39 661.481,-33.6793 669.969,-29.5214 678.786,-26.2751"/>
<polygon fill="midnightblue" stroke="midnightblue" points="607.945,-98.3172 600.605,-105.957 611.108,-104.562 607.945,-98.3172"/>
</g>
<!-- Node8 -->
<g id="node8" class="node"><title>Node8</title>
<g id="a_node8"><a xlink:href="../../d0/d56/classmodel_1_1simulations_1_1_simulation.html#a49dab3d977f4447d538534885be2b64f" target="_top" xlink:title="model.simulations.Simulation.\lSimulation">
<polygon fill="white" stroke="black" points="898.5,-191 898.5,-221 1059.5,-221 1059.5,-191 898.5,-191"/>
<text text-anchor="start" x="906.5" y="-209" font-family="Helvetica,sans-Serif" font-size="10.00">model.simulations.Simulation.</text>
<text text-anchor="middle" x="979" y="-198" font-family="Helvetica,sans-Serif" font-size="10.00">Simulation</text>
</a>
</g>
</g>
<!-- Node7&#45;&gt;Node8 -->
<g id="edge7" class="edge"><title>Node7&#45;&gt;Node8</title>
<path fill="none" stroke="midnightblue" d="M872.109,-206C880.985,-206 889.83,-206 898.408,-206"/>
<polygon fill="midnightblue" stroke="midnightblue" points="872.087,-202.5 862.087,-206 872.087,-209.5 872.087,-202.5"/>
</g>
<!-- Node14&#45;&gt;Node11 -->
<g id="edge22" class="edge"><title>Node14&#45;&gt;Node11</title>
<path fill="none" stroke="midnightblue" d="M349.138,-138.923C421.323,-160.253 546.144,-196.557 654,-225 666.722,-228.355 680.372,-231.786 693.44,-234.989"/>
<polygon fill="midnightblue" stroke="midnightblue" points="349.891,-135.496 339.309,-136.015 347.905,-142.208 349.891,-135.496"/>
</g>
<!-- Node15 -->
<g id="node15" class="node"><title>Node15</title>
<g id="a_node15"><a xlink:href="../../d0/d56/classmodel_1_1simulations_1_1_simulation.html#a79b103e987f93ecbd35ef416d4e01b13" target="_top" xlink:title="model.simulations.Simulation.update\lNeighbors">
<polygon fill="white" stroke="black" points="422.5,-57 422.5,-87 617.5,-87 617.5,-57 422.5,-57"/>
<text text-anchor="start" x="430.5" y="-75" font-family="Helvetica,sans-Serif" font-size="10.00">model.simulations.Simulation.update</text>
<text text-anchor="middle" x="520" y="-64" font-family="Helvetica,sans-Serif" font-size="10.00">Neighbors</text>
</a>
</g>
</g>
<!-- Node14&#45;&gt;Node15 -->
<g id="edge17" class="edge"><title>Node14&#45;&gt;Node15</title>
<path fill="none" stroke="midnightblue" d="M369.666,-103.815C395.385,-98.3353 423.627,-92.3185 448.563,-87.0062"/>
<polygon fill="midnightblue" stroke="midnightblue" points="368.622,-100.458 359.571,-105.965 370.08,-107.305 368.622,-100.458"/>
</g>
<!-- Node15&#45;&gt;Node9 -->
<g id="edge18" class="edge"><title>Node15&#45;&gt;Node9</title>
<path fill="none" stroke="midnightblue" d="M627.755,-68.3812C644.964,-67.7978 662.495,-67.2036 678.866,-66.6486"/>
<polygon fill="midnightblue" stroke="midnightblue" points="627.547,-64.8861 617.671,-68.723 627.784,-71.8821 627.547,-64.8861"/>
</g>
<!-- Node15&#45;&gt;Node10 -->
<g id="edge19" class="edge"><title>Node15&#45;&gt;Node10</title>
<path fill="none" stroke="midnightblue" d="M617.454,-88.7569C637.823,-92.2955 659.078,-95.9881 678.679,-99.3934"/>
<polygon fill="midnightblue" stroke="midnightblue" points="617.989,-85.2975 607.538,-87.0341 616.791,-92.1942 617.989,-85.2975"/>
</g>
<!-- Node15&#45;&gt;Node12 -->
<g id="edge20" class="edge"><title>Node15&#45;&gt;Node12</title>
<path fill="none" stroke="midnightblue" d="M609.235,-91.2193C612.251,-92.6966 615.184,-94.2873 618,-96 638.719,-108.6 633.253,-124.446 654,-137 661.635,-141.62 670.075,-145.387 678.739,-148.459"/>
<polygon fill="midnightblue" stroke="midnightblue" points="610.53,-87.9651 599.969,-87.1186 607.698,-94.3662 610.53,-87.9651"/>
</g>
<!-- Node15&#45;&gt;Node13 -->
<g id="edge21" class="edge"><title>Node15&#45;&gt;Node13</title>
<path fill="none" stroke="midnightblue" d="M590.708,-54.5051C611.094,-49.4427 633.426,-43.949 654,-39 666.228,-36.0584 679.287,-32.9727 691.857,-30.0306"/>
<polygon fill="midnightblue" stroke="midnightblue" points="589.733,-51.141 580.873,-56.9514 591.422,-57.934 589.733,-51.141"/>
</g>
</g>
</svg>
