<?xml version="1.0" encoding="UTF-8" standalone="no"?>
<!DOCTYPE svg PUBLIC "-//W3C//DTD SVG 1.1//EN"
 "http://www.w3.org/Graphics/SVG/1.1/DTD/svg11.dtd">
<!-- Generated by graphviz version 2.36.0 (20140111.2315)
 -->
<!-- Title: controller.CellSocietyController.initializeSimulation Pages: 1 -->
<svg width="2250pt" height="170pt"
 viewBox="0.00 0.00 2250.00 170.00" xmlns="http://www.w3.org/2000/svg" xmlns:xlink="http://www.w3.org/1999/xlink">
<g id="graph0" class="graph" transform="scale(1 1) rotate(0) translate(4 166)">
<title>controller.CellSocietyController.initializeSimulation</title>
<polygon fill="white" stroke="none" points="-4,4 -4,-166 2246,-166 2246,4 -4,4"/>
<!-- Node1 -->
<g id="node1" class="node"><title>Node1</title>
<polygon fill="#bfbfbf" stroke="black" points="0.5,-59 0.5,-89 203.5,-89 203.5,-59 0.5,-59"/>
<text text-anchor="start" x="8.5" y="-77" font-family="Helvetica,sans-Serif" font-size="10.00">controller.CellSocietyController.initialize</text>
<text text-anchor="middle" x="102" y="-66" font-family="Helvetica,sans-Serif" font-size="10.00">Simulation</text>
</g>
<!-- Node2 -->
<g id="node2" class="node"><title>Node2</title>
<g id="a_node2"><a xlink:href="../../d6/d7b/classcontroller_1_1_cell_society_controller.html#a3d913ad3344ac48e887110e2fabb5746" target="_top" xlink:title="controller.CellSocietyController.transition\lToSimulation">
<polygon fill="white" stroke="black" points="240,-59 240,-89 450,-89 450,-59 240,-59"/>
<text text-anchor="start" x="248" y="-77" font-family="Helvetica,sans-Serif" font-size="10.00">controller.CellSocietyController.transition</text>
<text text-anchor="middle" x="345" y="-66" font-family="Helvetica,sans-Serif" font-size="10.00">ToSimulation</text>
</a>
</g>
</g>
<!-- Node1&#45;&gt;Node2 -->
<g id="edge1" class="edge"><title>Node1&#45;&gt;Node2</title>
<path fill="none" stroke="midnightblue" d="M213.873,-74C222.481,-74 231.155,-74 239.717,-74"/>
<polygon fill="midnightblue" stroke="midnightblue" points="213.809,-70.5001 203.809,-74 213.809,-77.5001 213.809,-70.5001"/>
</g>
<!-- Node3 -->
<g id="node3" class="node"><title>Node3</title>
<g id="a_node3"><a xlink:href="../../d6/d7b/classcontroller_1_1_cell_society_controller.html#a41b6379d34f94114f5ada21e3bb8b52e" target="_top" xlink:title="controller.CellSocietyController.generateGrid">
<polygon fill="white" stroke="black" points="486,-86.5 486,-105.5 714,-105.5 714,-86.5 486,-86.5"/>
<text text-anchor="middle" x="600" y="-93.5" font-family="Helvetica,sans-Serif" font-size="10.00">controller.CellSocietyController.generateGrid</text>
</a>
</g>
</g>
<!-- Node2&#45;&gt;Node3 -->
<g id="edge2" class="edge"><title>Node2&#45;&gt;Node3</title>
<path fill="none" stroke="midnightblue" d="M460.176,-83.9283C469.985,-84.7813 479.893,-85.6429 489.663,-86.4924"/>
<polygon fill="midnightblue" stroke="midnightblue" points="460.266,-80.423 450,-83.0435 459.659,-87.3967 460.266,-80.423"/>
</g>
<!-- Node13 -->
<g id="node13" class="node"><title>Node13</title>
<g id="a_node13"><a xlink:href="../../d6/d7b/classcontroller_1_1_cell_society_controller.html#a643c7ac22f2822fa7e492dbf4267ed21" target="_top" xlink:title="controller.CellSocietyController.readXML">
<polygon fill="white" stroke="black" points="497,-42.5 497,-61.5 703,-61.5 703,-42.5 497,-42.5"/>
<text text-anchor="middle" x="600" y="-49.5" font-family="Helvetica,sans-Serif" font-size="10.00">controller.CellSocietyController.readXML</text>
</a>
</g>
</g>
<!-- Node2&#45;&gt;Node13 -->
<g id="edge14" class="edge"><title>Node2&#45;&gt;Node13</title>
<path fill="none" stroke="midnightblue" d="M460.163,-64.0728C472.316,-63.016 484.623,-61.9458 496.629,-60.9019"/>
<polygon fill="midnightblue" stroke="midnightblue" points="459.659,-60.6033 450,-64.9565 460.266,-67.577 459.659,-60.6033"/>
</g>
<!-- Node4 -->
<g id="node4" class="node"><title>Node4</title>
<g id="a_node4"><a xlink:href="../../d6/d7b/classcontroller_1_1_cell_society_controller.html#ada30fdc135cdf08b93065edf15ed3fcc" target="_top" xlink:title="controller.CellSocietyController.generate\lProbabilityRandomGrid">
<polygon fill="white" stroke="black" points="750.5,-125 750.5,-155 959.5,-155 959.5,-125 750.5,-125"/>
<text text-anchor="start" x="758.5" y="-143" font-family="Helvetica,sans-Serif" font-size="10.00">controller.CellSocietyController.generate</text>
<text text-anchor="middle" x="855" y="-132" font-family="Helvetica,sans-Serif" font-size="10.00">ProbabilityRandomGrid</text>
</a>
</g>
</g>
<!-- Node3&#45;&gt;Node4 -->
<g id="edge3" class="edge"><title>Node3&#45;&gt;Node4</title>
<path fill="none" stroke="midnightblue" d="M666.093,-107.32C696.928,-112.683 734.19,-119.163 767.374,-124.935"/>
<polygon fill="midnightblue" stroke="midnightblue" points="666.349,-103.813 655.897,-105.547 665.15,-110.709 666.349,-103.813"/>
</g>
<!-- Node12 -->
<g id="node12" class="node"><title>Node12</title>
<g id="a_node12"><a xlink:href="../../d6/d7b/classcontroller_1_1_cell_society_controller.html#ab65a8810efbc2b92e17ca77cdc591df9" target="_top" xlink:title="controller.CellSocietyController.generate\lRandomGrid">
<polygon fill="white" stroke="black" points="996.5,-81 996.5,-111 1205.5,-111 1205.5,-81 996.5,-81"/>
<text text-anchor="start" x="1004.5" y="-99" font-family="Helvetica,sans-Serif" font-size="10.00">controller.CellSocietyController.generate</text>
<text text-anchor="middle" x="1101" y="-88" font-family="Helvetica,sans-Serif" font-size="10.00">RandomGrid</text>
</a>
</g>
</g>
<!-- Node3&#45;&gt;Node12 -->
<g id="edge12" class="edge"><title>Node3&#45;&gt;Node12</title>
<path fill="none" stroke="midnightblue" d="M724.289,-96C807.841,-96 917.027,-96 996.145,-96"/>
<polygon fill="midnightblue" stroke="midnightblue" points="724.231,-92.5001 714.231,-96 724.231,-99.5001 724.231,-92.5001"/>
</g>
<!-- Node5 -->
<g id="node5" class="node"><title>Node5</title>
<g id="a_node5"><a xlink:href="../../dd/d02/classview_1_1_splash_screen.html#a05478a56856d70fd9508d79ca484fbca" target="_top" xlink:title="view.SplashScreen.addProbabilityText">
<polygon fill="white" stroke="black" points="1004,-130.5 1004,-149.5 1198,-149.5 1198,-130.5 1004,-130.5"/>
<text text-anchor="middle" x="1101" y="-137.5" font-family="Helvetica,sans-Serif" font-size="10.00">view.SplashScreen.addProbabilityText</text>
</a>
</g>
</g>
<!-- Node4&#45;&gt;Node5 -->
<g id="edge4" class="edge"><title>Node4&#45;&gt;Node5</title>
<path fill="none" stroke="midnightblue" d="M970.093,-140C981.306,-140 992.609,-140 1003.62,-140"/>
<polygon fill="midnightblue" stroke="midnightblue" points="969.832,-136.5 959.832,-140 969.832,-143.5 969.832,-136.5"/>
</g>
<!-- Node6 -->
<g id="node6" class="node"><title>Node6</title>
<g id="a_node6"><a xlink:href="../../dd/d02/classview_1_1_splash_screen.html#a2f8c52e9a2a790459e51d5d42f16f7da" target="_top" xlink:title="view.SplashScreen.display\lAskInformatio">
<polygon fill="white" stroke="black" points="1255.5,-106 1255.5,-136 1396.5,-136 1396.5,-106 1255.5,-106"/>
<text text-anchor="start" x="1263.5" y="-124" font-family="Helvetica,sans-Serif" font-size="10.00">view.SplashScreen.display</text>
<text text-anchor="middle" x="1326" y="-113" font-family="Helvetica,sans-Serif" font-size="10.00">AskInformatio</text>
</a>
</g>
</g>
<!-- Node5&#45;&gt;Node6 -->
<g id="edge5" class="edge"><title>Node5&#45;&gt;Node6</title>
<path fill="none" stroke="midnightblue" d="M1208.59,-130.918C1224.48,-129.565 1240.49,-128.2 1255.35,-126.935"/>
<polygon fill="midnightblue" stroke="midnightblue" points="1207.86,-127.468 1198.19,-131.804 1208.45,-134.443 1207.86,-127.468"/>
</g>
<!-- Node7 -->
<g id="node7" class="node"><title>Node7</title>
<g id="a_node7"><a xlink:href="../../dd/d02/classview_1_1_splash_screen.html#ad94d9edd23f270a5f480fd54a06d72f3" target="_top" xlink:title="view.SplashScreen.addProbablity\lButton">
<polygon fill="white" stroke="black" points="1446.5,-132 1446.5,-162 1619.5,-162 1619.5,-132 1446.5,-132"/>
<text text-anchor="start" x="1454.5" y="-150" font-family="Helvetica,sans-Serif" font-size="10.00">view.SplashScreen.addProbablity</text>
<text text-anchor="middle" x="1533" y="-139" font-family="Helvetica,sans-Serif" font-size="10.00">Button</text>
</a>
</g>
</g>
<!-- Node6&#45;&gt;Node7 -->
<g id="edge6" class="edge"><title>Node6&#45;&gt;Node7</title>
<path fill="none" stroke="midnightblue" d="M1406.89,-131.133C1419.77,-132.766 1433.15,-134.463 1446.16,-136.113"/>
<polygon fill="midnightblue" stroke="midnightblue" points="1407.05,-127.625 1396.69,-129.839 1406.17,-134.569 1407.05,-127.625"/>
</g>
<!-- Node11 -->
<g id="node11" class="node"><title>Node11</title>
<g id="a_node11"><a xlink:href="../../dd/d02/classview_1_1_splash_screen.html#a17ba24f5ed477a37ea527710e54d65c8" target="_top" xlink:title="view.SplashScreen.addRandom\lButton">
<polygon fill="white" stroke="black" points="1450,-83 1450,-113 1616,-113 1616,-83 1450,-83"/>
<text text-anchor="start" x="1458" y="-101" font-family="Helvetica,sans-Serif" font-size="10.00">view.SplashScreen.addRandom</text>
<text text-anchor="middle" x="1533" y="-90" font-family="Helvetica,sans-Serif" font-size="10.00">Button</text>
</a>
</g>
</g>
<!-- Node6&#45;&gt;Node11 -->
<g id="edge10" class="edge"><title>Node6&#45;&gt;Node11</title>
<path fill="none" stroke="midnightblue" d="M1406.83,-112.044C1420.92,-110.463 1435.61,-108.815 1449.76,-107.227"/>
<polygon fill="midnightblue" stroke="midnightblue" points="1406.24,-108.588 1396.69,-113.181 1407.02,-115.544 1406.24,-108.588"/>
</g>
<!-- Node8 -->
<g id="node8" class="node"><title>Node8</title>
<g id="a_node8"><a xlink:href="../../dd/d02/classview_1_1_splash_screen.html#a6ff42b7dad4e546981a3266f9d694f5a" target="_top" xlink:title="view.SplashScreen.getNode">
<polygon fill="white" stroke="black" points="1656.5,-88.5 1656.5,-107.5 1805.5,-107.5 1805.5,-88.5 1656.5,-88.5"/>
<text text-anchor="middle" x="1731" y="-95.5" font-family="Helvetica,sans-Serif" font-size="10.00">view.SplashScreen.getNode</text>
</a>
</g>
</g>
<!-- Node7&#45;&gt;Node8 -->
<g id="edge7" class="edge"><title>Node7&#45;&gt;Node8</title>
<path fill="none" stroke="midnightblue" d="M1604.02,-129.495C1633.63,-122.093 1666.95,-113.762 1691.89,-107.528"/>
<polygon fill="midnightblue" stroke="midnightblue" points="1602.99,-126.144 1594.14,-131.965 1604.69,-132.935 1602.99,-126.144"/>
</g>
<!-- Node9 -->
<g id="node9" class="node"><title>Node9</title>
<g id="a_node9"><a xlink:href="../../d6/d7b/classcontroller_1_1_cell_society_controller.html#a3f78125e5b809d88d3cf7ed20b3756c2" target="_top" xlink:title="controller.CellSocietyController.display\lSplashScreen">
<polygon fill="white" stroke="black" points="1842,-83 1842,-113 2040,-113 2040,-83 1842,-83"/>
<text text-anchor="start" x="1850" y="-101" font-family="Helvetica,sans-Serif" font-size="10.00">controller.CellSocietyController.display</text>
<text text-anchor="middle" x="1941" y="-90" font-family="Helvetica,sans-Serif" font-size="10.00">SplashScreen</text>
</a>
</g>
</g>
<!-- Node8&#45;&gt;Node9 -->
<g id="edge8" class="edge"><title>Node8&#45;&gt;Node9</title>
<path fill="none" stroke="midnightblue" d="M1815.88,-98C1824.38,-98 1833.07,-98 1841.7,-98"/>
<polygon fill="midnightblue" stroke="midnightblue" points="1815.63,-94.5001 1805.63,-98 1815.63,-101.5 1815.63,-94.5001"/>
</g>
<!-- Node10 -->
<g id="node10" class="node"><title>Node10</title>
<g id="a_node10"><a xlink:href="../../d6/d7b/classcontroller_1_1_cell_society_controller.html#a6a2310de67e415512149c94c9f36e356" target="_top" xlink:title="controller.CellSocietyController.\lCellSocietyController">
<polygon fill="white" stroke="black" points="2076.5,-83 2076.5,-113 2241.5,-113 2241.5,-83 2076.5,-83"/>
<text text-anchor="start" x="2084.5" y="-101" font-family="Helvetica,sans-Serif" font-size="10.00">controller.CellSocietyController.</text>
<text text-anchor="middle" x="2159" y="-90" font-family="Helvetica,sans-Serif" font-size="10.00">CellSocietyController</text>
</a>
</g>
</g>
<!-- Node9&#45;&gt;Node10 -->
<g id="edge9" class="edge"><title>Node9&#45;&gt;Node10</title>
<path fill="none" stroke="midnightblue" d="M2050.38,-98C2059.07,-98 2067.75,-98 2076.2,-98"/>
<polygon fill="midnightblue" stroke="midnightblue" points="2050.2,-94.5001 2040.2,-98 2050.2,-101.5 2050.2,-94.5001"/>
</g>
<!-- Node11&#45;&gt;Node8 -->
<g id="edge11" class="edge"><title>Node11&#45;&gt;Node8</title>
<path fill="none" stroke="midnightblue" d="M1626.31,-98C1636.39,-98 1646.55,-98 1656.36,-98"/>
<polygon fill="midnightblue" stroke="midnightblue" points="1626.27,-94.5001 1616.27,-98 1626.27,-101.5 1626.27,-94.5001"/>
</g>
<!-- Node12&#45;&gt;Node6 -->
<g id="edge13" class="edge"><title>Node12&#45;&gt;Node6</title>
<path fill="none" stroke="midnightblue" d="M1215.94,-108.774C1229.38,-110.28 1242.78,-111.782 1255.34,-113.191"/>
<polygon fill="midnightblue" stroke="midnightblue" points="1215.99,-105.258 1205.67,-107.622 1215.21,-112.214 1215.99,-105.258"/>
</g>
<!-- Node14 -->
<g id="node14" class="node"><title>Node14</title>
<g id="a_node14"><a xlink:href="../../d6/d7b/classcontroller_1_1_cell_society_controller.html#afbdf9a63e15a2bfa878dcfe5ed3ef6dc" target="_top" xlink:title="controller.CellSocietyController.transition\lToFileLoaderScreen">
<polygon fill="white" stroke="black" points="750,-37 750,-67 960,-67 960,-37 750,-37"/>
<text text-anchor="start" x="758" y="-55" font-family="Helvetica,sans-Serif" font-size="10.00">controller.CellSocietyController.transition</text>
<text text-anchor="middle" x="855" y="-44" font-family="Helvetica,sans-Serif" font-size="10.00">ToFileLoaderScreen</text>
</a>
</g>
</g>
<!-- Node13&#45;&gt;Node14 -->
<g id="edge15" class="edge"><title>Node13&#45;&gt;Node14</title>
<path fill="none" stroke="midnightblue" d="M713.317,-45.2879C725.451,-45.2228 737.762,-45.2416 749.794,-45.3441"/>
<polygon fill="midnightblue" stroke="midnightblue" points="713.15,-41.7889 703.176,-45.3622 713.201,-48.7887 713.15,-41.7889"/>
</g>
<!-- Node14&#45;&gt;Node13 -->
<g id="edge16" class="edge"><title>Node14&#45;&gt;Node13</title>
<path fill="none" stroke="midnightblue" d="M739.632,-58.7223C727.479,-58.7779 715.175,-58.7497 703.176,-58.6378"/>
<polygon fill="midnightblue" stroke="midnightblue" points="739.818,-62.2213 749.794,-58.6559 739.772,-55.2214 739.818,-62.2213"/>
</g>
<!-- Node15 -->
<g id="node15" class="node"><title>Node15</title>
<g id="a_node15"><a xlink:href="../../dd/d02/classview_1_1_splash_screen.html#a652092fc5c5862cee4ff84bf231646ab" target="_top" xlink:title="view.SplashScreen.addLoad\lButton">
<polygon fill="white" stroke="black" points="1251.5,-39 1251.5,-69 1400.5,-69 1400.5,-39 1251.5,-39"/>
<text text-anchor="start" x="1259.5" y="-57" font-family="Helvetica,sans-Serif" font-size="10.00">view.SplashScreen.addLoad</text>
<text text-anchor="middle" x="1326" y="-46" font-family="Helvetica,sans-Serif" font-size="10.00">Button</text>
</a>
</g>
</g>
<!-- Node14&#45;&gt;Node15 -->
<g id="edge17" class="edge"><title>Node14&#45;&gt;Node15</title>
<path fill="none" stroke="midnightblue" d="M970.338,-52.4876C1057.89,-52.8609 1176.07,-53.3649 1251.42,-53.6862"/>
<polygon fill="midnightblue" stroke="midnightblue" points="970.101,-48.9866 960.086,-52.4439 970.071,-55.9866 970.101,-48.9866"/>
</g>
<!-- Node16 -->
<g id="node16" class="node"><title>Node16</title>
<g id="a_node16"><a xlink:href="../../d3/d48/classview_1_1_top_menu.html#af56bae78812baf114a9ed49ad52694df" target="_top" xlink:title="view.TopMenu.addLoadButton">
<polygon fill="white" stroke="black" points="1022,-1.5 1022,-20.5 1180,-20.5 1180,-1.5 1022,-1.5"/>
<text text-anchor="middle" x="1101" y="-8.5" font-family="Helvetica,sans-Serif" font-size="10.00">view.TopMenu.addLoadButton</text>
</a>
</g>
</g>
<!-- Node14&#45;&gt;Node16 -->
<g id="edge19" class="edge"><title>Node14&#45;&gt;Node16</title>
<path fill="none" stroke="midnightblue" d="M955.51,-35.2791C985.353,-30.2644 1017.06,-24.9372 1043.14,-20.5545"/>
<polygon fill="midnightblue" stroke="midnightblue" points="954.753,-31.8571 945.471,-36.9659 955.913,-38.7604 954.753,-31.8571"/>
</g>
<!-- Node15&#45;&gt;Node8 -->
<g id="edge18" class="edge"><title>Node15&#45;&gt;Node8</title>
<path fill="none" stroke="midnightblue" d="M1411.14,-55.9173C1469.9,-58.1192 1550.04,-62.8478 1620,-73 1645.2,-76.6564 1673.17,-83.0461 1694.6,-88.4502"/>
<polygon fill="midnightblue" stroke="midnightblue" points="1410.91,-52.4069 1400.79,-55.5473 1410.66,-59.4025 1410.91,-52.4069"/>
</g>
<!-- Node17 -->
<g id="node17" class="node"><title>Node17</title>
<g id="a_node17"><a xlink:href="../../d3/d48/classview_1_1_top_menu.html#a4442589b1733d6ad662c92700f27018e" target="_top" xlink:title="view.TopMenu.createTopButtons">
<polygon fill="white" stroke="black" points="1242,-0.5 1242,-19.5 1410,-19.5 1410,-0.5 1242,-0.5"/>
<text text-anchor="middle" x="1326" y="-7.5" font-family="Helvetica,sans-Serif" font-size="10.00">view.TopMenu.createTopButtons</text>
</a>
</g>
</g>
<!-- Node16&#45;&gt;Node17 -->
<g id="edge20" class="edge"><title>Node16&#45;&gt;Node17</title>
<path fill="none" stroke="midnightblue" d="M1190.72,-10.6022C1207.62,-10.5264 1225.25,-10.4473 1241.96,-10.3724"/>
<polygon fill="midnightblue" stroke="midnightblue" points="1190.29,-7.10394 1180.31,-10.6488 1190.32,-14.1039 1190.29,-7.10394"/>
</g>
</g>
</svg>
