<?xml version="1.0" encoding="UTF-8" standalone="no"?>
<!DOCTYPE svg PUBLIC "-//W3C//DTD SVG 1.1//EN"
 "http://www.w3.org/Graphics/SVG/1.1/DTD/svg11.dtd">
<!-- Generated by graphviz version 2.36.0 (20140111.2315)
 -->
<!-- Title: controller.CellSocietyController.transitionToFileLoaderScreen Pages: 1 -->
<svg width="1362pt" height="246pt"
 viewBox="0.00 0.00 1362.00 246.00" xmlns="http://www.w3.org/2000/svg" xmlns:xlink="http://www.w3.org/1999/xlink">
<g id="graph0" class="graph" transform="scale(1 1) rotate(0) translate(4 242)">
<title>controller.CellSocietyController.transitionToFileLoaderScreen</title>
<polygon fill="white" stroke="none" points="-4,4 -4,-242 1358,-242 1358,4 -4,4"/>
<!-- Node1 -->
<g id="node1" class="node"><title>Node1</title>
<polygon fill="#bfbfbf" stroke="black" points="0,-142 0,-172 210,-172 210,-142 0,-142"/>
<text text-anchor="start" x="8" y="-160" font-family="Helvetica,sans-Serif" font-size="10.00">controller.CellSocietyController.transition</text>
<text text-anchor="middle" x="105" y="-149" font-family="Helvetica,sans-Serif" font-size="10.00">ToFileLoaderScreen</text>
</g>
<!-- Node2 -->
<g id="node2" class="node"><title>Node2</title>
<g id="a_node2"><a xlink:href="../../d3/d0a/classview_1_1_file_loader_screen.html#a196dd45848fbdf09ac100c343b6515cd" target="_top" xlink:title="view.FileLoaderScreen.getFile">
<polygon fill="white" stroke="black" points="271.5,-210.5 271.5,-229.5 426.5,-229.5 426.5,-210.5 271.5,-210.5"/>
<text text-anchor="middle" x="349" y="-217.5" font-family="Helvetica,sans-Serif" font-size="10.00">view.FileLoaderScreen.getFile</text>
</a>
</g>
</g>
<!-- Node1&#45;&gt;Node2 -->
<g id="edge1" class="edge"><title>Node1&#45;&gt;Node2</title>
<path fill="none" stroke="midnightblue" d="M160.101,-172.019C186.046,-179.136 217.591,-187.664 246,-195 262.958,-199.379 281.552,-203.992 298.166,-208.046"/>
<polygon fill="midnightblue" stroke="midnightblue" points="297.678,-211.53 308.222,-210.492 299.332,-204.728 297.678,-211.53"/>
</g>
<!-- Node4 -->
<g id="node4" class="node"><title>Node4</title>
<g id="a_node4"><a xlink:href="../../d3/d0a/classview_1_1_file_loader_screen.html#a32abcb410ad28199e0bfcdce0255715b" target="_top" xlink:title="view.FileLoaderScreen.getNode">
<polygon fill="white" stroke="black" points="266.5,-166.5 266.5,-185.5 431.5,-185.5 431.5,-166.5 266.5,-166.5"/>
<text text-anchor="middle" x="349" y="-173.5" font-family="Helvetica,sans-Serif" font-size="10.00">view.FileLoaderScreen.getNode</text>
</a>
</g>
</g>
<!-- Node1&#45;&gt;Node4 -->
<g id="edge3" class="edge"><title>Node1&#45;&gt;Node4</title>
<path fill="none" stroke="midnightblue" d="M210.034,-165.168C225.335,-166.369 241.005,-167.6 256.039,-168.78"/>
<polygon fill="midnightblue" stroke="midnightblue" points="256.09,-172.295 266.333,-169.588 256.638,-165.316 256.09,-172.295"/>
</g>
<!-- Node5 -->
<g id="node5" class="node"><title>Node5</title>
<g id="a_node5"><a xlink:href="../../d6/d7b/classcontroller_1_1_cell_society_controller.html#a643c7ac22f2822fa7e492dbf4267ed21" target="_top" xlink:title="controller.CellSocietyController.readXML">
<polygon fill="white" stroke="black" points="246,-128.5 246,-147.5 452,-147.5 452,-128.5 246,-128.5"/>
<text text-anchor="middle" x="349" y="-135.5" font-family="Helvetica,sans-Serif" font-size="10.00">controller.CellSocietyController.readXML</text>
</a>
</g>
</g>
<!-- Node1&#45;&gt;Node5 -->
<g id="edge4" class="edge"><title>Node1&#45;&gt;Node5</title>
<path fill="none" stroke="midnightblue" d="M210.034,-142.141C218.597,-141.409 227.276,-140.713 235.894,-140.068"/>
<polygon fill="midnightblue" stroke="midnightblue" points="236.253,-143.551 245.973,-139.335 235.745,-136.57 236.253,-143.551"/>
</g>
<!-- Node3 -->
<g id="node3" class="node"><title>Node3</title>
<g id="a_node3"><a xlink:href="../../d3/d0a/classview_1_1_file_loader_screen.html#a97d7c0b9dc021069c17e7f778398f41e" target="_top" xlink:title="view.FileLoaderScreen.configure\lFileChooser">
<polygon fill="white" stroke="black" points="509,-208 509,-238 677,-238 677,-208 509,-208"/>
<text text-anchor="start" x="517" y="-226" font-family="Helvetica,sans-Serif" font-size="10.00">view.FileLoaderScreen.configure</text>
<text text-anchor="middle" x="593" y="-215" font-family="Helvetica,sans-Serif" font-size="10.00">FileChooser</text>
</a>
</g>
</g>
<!-- Node2&#45;&gt;Node3 -->
<g id="edge2" class="edge"><title>Node2&#45;&gt;Node3</title>
<path fill="none" stroke="midnightblue" d="M426.57,-220.949C449.47,-221.233 474.836,-221.548 498.685,-221.843"/>
<polygon fill="midnightblue" stroke="midnightblue" points="498.759,-225.344 508.802,-221.969 498.846,-218.345 498.759,-225.344"/>
</g>
<!-- Node5&#45;&gt;Node1 -->
<g id="edge7" class="edge"><title>Node5&#45;&gt;Node1</title>
<path fill="none" stroke="midnightblue" d="M297.949,-147.519C275.265,-150.145 247.436,-152.713 220.081,-154.783"/>
<polygon fill="midnightblue" stroke="midnightblue" points="219.75,-151.298 210.034,-155.523 220.264,-158.279 219.75,-151.298"/>
</g>
<!-- Node6 -->
<g id="node6" class="node"><title>Node6</title>
<g id="a_node6"><a xlink:href="../../dc/d47/classcontroller_1_1_x_m_l_parser.html#a841cf5fa54e30325a444ba24fa26c50e" target="_top" xlink:title="controller.XMLParser.getGrid">
<polygon fill="white" stroke="black" points="517.5,-169.5 517.5,-188.5 668.5,-188.5 668.5,-169.5 517.5,-169.5"/>
<text text-anchor="middle" x="593" y="-176.5" font-family="Helvetica,sans-Serif" font-size="10.00">controller.XMLParser.getGrid</text>
</a>
</g>
</g>
<!-- Node5&#45;&gt;Node6 -->
<g id="edge5" class="edge"><title>Node5&#45;&gt;Node6</title>
<path fill="none" stroke="midnightblue" d="M406.128,-147.509C441.736,-153.542 487.986,-161.378 525.443,-167.724"/>
<polygon fill="midnightblue" stroke="midnightblue" points="525.314,-171.252 535.758,-169.471 526.483,-164.35 525.314,-171.252"/>
</g>
<!-- Node7 -->
<g id="node7" class="node"><title>Node7</title>
<g id="a_node7"><a xlink:href="../../dc/d47/classcontroller_1_1_x_m_l_parser.html#a0ebd2f6df311d0e2f9f0cd7969ecbe73" target="_top" xlink:title="controller.XMLParser.get\lParameters">
<polygon fill="white" stroke="black" points="527.5,-120 527.5,-150 658.5,-150 658.5,-120 527.5,-120"/>
<text text-anchor="start" x="535.5" y="-138" font-family="Helvetica,sans-Serif" font-size="10.00">controller.XMLParser.get</text>
<text text-anchor="middle" x="593" y="-127" font-family="Helvetica,sans-Serif" font-size="10.00">Parameters</text>
</a>
</g>
</g>
<!-- Node5&#45;&gt;Node7 -->
<g id="edge6" class="edge"><title>Node5&#45;&gt;Node7</title>
<path fill="none" stroke="midnightblue" d="M452.279,-136.732C474.019,-136.463 496.585,-136.183 517.078,-135.929"/>
<polygon fill="midnightblue" stroke="midnightblue" points="517.317,-139.426 527.273,-135.802 517.231,-132.427 517.317,-139.426"/>
</g>
<!-- Node8 -->
<g id="node8" class="node"><title>Node8</title>
<g id="a_node8"><a xlink:href="../../d6/d7b/classcontroller_1_1_cell_society_controller.html#a3d913ad3344ac48e887110e2fabb5746" target="_top" xlink:title="controller.CellSocietyController.transition\lToSimulation">
<polygon fill="white" stroke="black" points="488,-71 488,-101 698,-101 698,-71 488,-71"/>
<text text-anchor="start" x="496" y="-89" font-family="Helvetica,sans-Serif" font-size="10.00">controller.CellSocietyController.transition</text>
<text text-anchor="middle" x="593" y="-78" font-family="Helvetica,sans-Serif" font-size="10.00">ToSimulation</text>
</a>
</g>
</g>
<!-- Node5&#45;&gt;Node8 -->
<g id="edge8" class="edge"><title>Node5&#45;&gt;Node8</title>
<path fill="none" stroke="midnightblue" d="M394.387,-128.462C427.218,-121.408 472.834,-111.606 511.967,-103.197"/>
<polygon fill="midnightblue" stroke="midnightblue" points="512.723,-106.615 521.765,-101.092 511.253,-99.7708 512.723,-106.615"/>
</g>
<!-- Node9 -->
<g id="node9" class="node"><title>Node9</title>
<g id="a_node9"><a xlink:href="../../d6/d7b/classcontroller_1_1_cell_society_controller.html#af6b4eb647c4e76fef6f27cc61ced4d9a" target="_top" xlink:title="controller.CellSocietyController.initialize\lSimulationScreen">
<polygon fill="white" stroke="black" points="734.5,-120 734.5,-150 937.5,-150 937.5,-120 734.5,-120"/>
<text text-anchor="start" x="742.5" y="-138" font-family="Helvetica,sans-Serif" font-size="10.00">controller.CellSocietyController.initialize</text>
<text text-anchor="middle" x="836" y="-127" font-family="Helvetica,sans-Serif" font-size="10.00">SimulationScreen</text>
</a>
</g>
</g>
<!-- Node8&#45;&gt;Node9 -->
<g id="edge9" class="edge"><title>Node8&#45;&gt;Node9</title>
<path fill="none" stroke="midnightblue" d="M667.946,-101.035C694.317,-106.396 724.204,-112.473 751.335,-117.989"/>
<polygon fill="midnightblue" stroke="midnightblue" points="750.697,-121.431 761.194,-119.994 752.092,-114.571 750.697,-121.431"/>
</g>
<!-- Node13 -->
<g id="node13" class="node"><title>Node13</title>
<g id="a_node13"><a xlink:href="../../d6/d7b/classcontroller_1_1_cell_society_controller.html#a8af25de87ececa5ca913e7b5af486b3f" target="_top" xlink:title="controller.CellSocietyController.initialize\lSimulation">
<polygon fill="white" stroke="black" points="734.5,-71 734.5,-101 937.5,-101 937.5,-71 734.5,-71"/>
<text text-anchor="start" x="742.5" y="-89" font-family="Helvetica,sans-Serif" font-size="10.00">controller.CellSocietyController.initialize</text>
<text text-anchor="middle" x="836" y="-78" font-family="Helvetica,sans-Serif" font-size="10.00">Simulation</text>
</a>
</g>
</g>
<!-- Node8&#45;&gt;Node13 -->
<g id="edge13" class="edge"><title>Node8&#45;&gt;Node13</title>
<path fill="none" stroke="midnightblue" d="M698.304,-86C706.899,-86 715.606,-86 724.246,-86"/>
<polygon fill="midnightblue" stroke="midnightblue" points="724.346,-89.5001 734.346,-86 724.346,-82.5001 724.346,-89.5001"/>
</g>
<!-- Node14 -->
<g id="node14" class="node"><title>Node14</title>
<g id="a_node14"><a xlink:href="../../d6/d7b/classcontroller_1_1_cell_society_controller.html#a7609d9a174ff7d2d00fc27e3574cdb21" target="_top" xlink:title="controller.CellSocietyController.stop\lOrStart">
<polygon fill="white" stroke="black" points="743,-22 743,-52 929,-52 929,-22 743,-22"/>
<text text-anchor="start" x="751" y="-40" font-family="Helvetica,sans-Serif" font-size="10.00">controller.CellSocietyController.stop</text>
<text text-anchor="middle" x="836" y="-29" font-family="Helvetica,sans-Serif" font-size="10.00">OrStart</text>
</a>
</g>
</g>
<!-- Node8&#45;&gt;Node14 -->
<g id="edge14" class="edge"><title>Node8&#45;&gt;Node14</title>
<path fill="none" stroke="midnightblue" d="M667.946,-70.9654C694.317,-65.6035 724.204,-59.5269 751.335,-54.0108"/>
<polygon fill="midnightblue" stroke="midnightblue" points="752.092,-57.4285 761.194,-52.0062 750.697,-50.5689 752.092,-57.4285"/>
</g>
<!-- Node10 -->
<g id="node10" class="node"><title>Node10</title>
<g id="a_node10"><a xlink:href="../../d1/d3e/classview_1_1_simulation_screen.html#a482a021910f4b997fb7b798bdc363df4" target="_top" xlink:title="view.SimulationScreen.getNode">
<polygon fill="white" stroke="black" points="989,-158.5 989,-177.5 1157,-177.5 1157,-158.5 989,-158.5"/>
<text text-anchor="middle" x="1073" y="-165.5" font-family="Helvetica,sans-Serif" font-size="10.00">view.SimulationScreen.getNode</text>
</a>
</g>
</g>
<!-- Node9&#45;&gt;Node10 -->
<g id="edge10" class="edge"><title>Node9&#45;&gt;Node10</title>
<path fill="none" stroke="midnightblue" d="M937.684,-149.139C956.516,-151.783 975.937,-154.51 993.957,-157.041"/>
<polygon fill="midnightblue" stroke="midnightblue" points="993.71,-160.54 1004.1,-158.465 994.684,-153.608 993.71,-160.54"/>
</g>
<!-- Node11 -->
<g id="node11" class="node"><title>Node11</title>
<g id="a_node11"><a xlink:href="../../d1/d3e/classview_1_1_simulation_screen.html#a6c9f5c7e36be620d06e55709bc256d18" target="_top" xlink:title="view.SimulationScreen.init\lSimScreen">
<polygon fill="white" stroke="black" points="1002.5,-109 1002.5,-139 1143.5,-139 1143.5,-109 1002.5,-109"/>
<text text-anchor="start" x="1010.5" y="-127" font-family="Helvetica,sans-Serif" font-size="10.00">view.SimulationScreen.init</text>
<text text-anchor="middle" x="1073" y="-116" font-family="Helvetica,sans-Serif" font-size="10.00">SimScreen</text>
</a>
</g>
</g>
<!-- Node9&#45;&gt;Node11 -->
<g id="edge11" class="edge"><title>Node9&#45;&gt;Node11</title>
<path fill="none" stroke="midnightblue" d="M937.684,-130.287C955.908,-129.434 974.683,-128.555 992.207,-127.735"/>
<polygon fill="midnightblue" stroke="midnightblue" points="992.541,-131.223 1002.37,-127.259 992.213,-124.231 992.541,-131.223"/>
</g>
<!-- Node12 -->
<g id="node12" class="node"><title>Node12</title>
<g id="a_node12"><a xlink:href="../../d1/d3e/classview_1_1_simulation_screen.html#a7144a80861195f360ade7612b479ff3e" target="_top" xlink:title="view.SimulationScreen.add\lButtons">
<polygon fill="white" stroke="black" points="1208.5,-109 1208.5,-139 1353.5,-139 1353.5,-109 1208.5,-109"/>
<text text-anchor="start" x="1216.5" y="-127" font-family="Helvetica,sans-Serif" font-size="10.00">view.SimulationScreen.add</text>
<text text-anchor="middle" x="1281" y="-116" font-family="Helvetica,sans-Serif" font-size="10.00">Buttons</text>
</a>
</g>
</g>
<!-- Node11&#45;&gt;Node12 -->
<g id="edge12" class="edge"><title>Node11&#45;&gt;Node12</title>
<path fill="none" stroke="midnightblue" d="M1143.74,-124C1161.19,-124 1180.07,-124 1198.05,-124"/>
<polygon fill="midnightblue" stroke="midnightblue" points="1198.22,-127.5 1208.22,-124 1198.22,-120.5 1198.22,-127.5"/>
</g>
<!-- Node15 -->
<g id="node15" class="node"><title>Node15</title>
<g id="a_node15"><a xlink:href="../../d6/d7b/classcontroller_1_1_cell_society_controller.html#a33e7a77467ceeb880526a1b405b3ee79" target="_top" xlink:title="controller.CellSocietyController.pause\lSimulation">
<polygon fill="white" stroke="black" points="976,-49 976,-79 1170,-79 1170,-49 976,-49"/>
<text text-anchor="start" x="984" y="-67" font-family="Helvetica,sans-Serif" font-size="10.00">controller.CellSocietyController.pause</text>
<text text-anchor="middle" x="1073" y="-56" font-family="Helvetica,sans-Serif" font-size="10.00">Simulation</text>
</a>
</g>
</g>
<!-- Node14&#45;&gt;Node15 -->
<g id="edge15" class="edge"><title>Node14&#45;&gt;Node15</title>
<path fill="none" stroke="midnightblue" d="M929.204,-47.5936C941.158,-48.9671 953.48,-50.3828 965.64,-51.78"/>
<polygon fill="midnightblue" stroke="midnightblue" points="965.472,-55.2835 975.806,-52.9479 966.271,-48.3293 965.472,-55.2835"/>
</g>
<!-- Node16 -->
<g id="node16" class="node"><title>Node16</title>
<g id="a_node16"><a xlink:href="../../d6/d7b/classcontroller_1_1_cell_society_controller.html#aec38c45810ee2665fe01832114fbc68d" target="_top" xlink:title="controller.CellSocietyController.restart\lSimulation">
<polygon fill="white" stroke="black" points="974.5,-0 974.5,-30 1171.5,-30 1171.5,-0 974.5,-0"/>
<text text-anchor="start" x="982.5" y="-18" font-family="Helvetica,sans-Serif" font-size="10.00">controller.CellSocietyController.restart</text>
<text text-anchor="middle" x="1073" y="-7" font-family="Helvetica,sans-Serif" font-size="10.00">Simulation</text>
</a>
</g>
</g>
<!-- Node14&#45;&gt;Node16 -->
<g id="edge16" class="edge"><title>Node14&#45;&gt;Node16</title>
<path fill="none" stroke="midnightblue" d="M929.204,-28.3682C940.641,-27.2974 952.414,-26.1953 964.061,-25.105"/>
<polygon fill="midnightblue" stroke="midnightblue" points="964.621,-28.5679 974.252,-24.1509 963.969,-21.5983 964.621,-28.5679"/>
</g>
</g>
</svg>
