<?xml version="1.0" encoding="UTF-8" standalone="no"?>
<!DOCTYPE svg PUBLIC "-//W3C//DTD SVG 1.1//EN"
 "http://www.w3.org/Graphics/SVG/1.1/DTD/svg11.dtd">
<!-- Generated by graphviz version 2.36.0 (20140111.2315)
 -->
<!-- Title: controller.CellSocietyController.displaySplashScreen Pages: 1 -->
<svg width="2242pt" height="412pt"
 viewBox="0.00 0.00 2242.00 412.00" xmlns="http://www.w3.org/2000/svg" xmlns:xlink="http://www.w3.org/1999/xlink">
<g id="graph0" class="graph" transform="scale(1 1) rotate(0) translate(4 408)">
<title>controller.CellSocietyController.displaySplashScreen</title>
<polygon fill="white" stroke="none" points="-4,4 -4,-408 2238,-408 2238,4 -4,4"/>
<!-- Node1 -->
<g id="node1" class="node"><title>Node1</title>
<polygon fill="#bfbfbf" stroke="black" points="0,-208 0,-238 198,-238 198,-208 0,-208"/>
<text text-anchor="start" x="8" y="-226" font-family="Helvetica,sans-Serif" font-size="10.00">controller.CellSocietyController.display</text>
<text text-anchor="middle" x="99" y="-215" font-family="Helvetica,sans-Serif" font-size="10.00">SplashScreen</text>
</g>
<!-- Node2 -->
<g id="node2" class="node"><title>Node2</title>
<g id="a_node2"><a xlink:href="../../dd/d02/classview_1_1_splash_screen.html#a6ff42b7dad4e546981a3266f9d694f5a" target="_top" xlink:title="view.SplashScreen.getNode">
<polygon fill="white" stroke="black" points="234.5,-213.5 234.5,-232.5 383.5,-232.5 383.5,-213.5 234.5,-213.5"/>
<text text-anchor="middle" x="309" y="-220.5" font-family="Helvetica,sans-Serif" font-size="10.00">view.SplashScreen.getNode</text>
</a>
</g>
</g>
<!-- Node1&#45;&gt;Node2 -->
<g id="edge1" class="edge"><title>Node1&#45;&gt;Node2</title>
<path fill="none" stroke="midnightblue" d="M198.214,-223C206.984,-223 215.808,-223 224.438,-223"/>
<polygon fill="midnightblue" stroke="midnightblue" points="224.464,-226.5 234.463,-223 224.463,-219.5 224.464,-226.5"/>
</g>
<!-- Node3 -->
<g id="node3" class="node"><title>Node3</title>
<g id="a_node3"><a xlink:href="../../dd/d02/classview_1_1_splash_screen.html#a0a9ccd223a5668611f7fbbae36ea0796" target="_top" xlink:title="view.SplashScreen.addTitle">
<polygon fill="white" stroke="black" points="434,-235.5 434,-254.5 580,-254.5 580,-235.5 434,-235.5"/>
<text text-anchor="middle" x="507" y="-242.5" font-family="Helvetica,sans-Serif" font-size="10.00">view.SplashScreen.addTitle</text>
</a>
</g>
</g>
<!-- Node2&#45;&gt;Node3 -->
<g id="edge2" class="edge"><title>Node2&#45;&gt;Node3</title>
<path fill="none" stroke="midnightblue" d="M383.541,-231.255C396.698,-232.731 410.483,-234.279 423.864,-235.781"/>
<polygon fill="midnightblue" stroke="midnightblue" points="423.671,-239.281 434,-236.918 424.452,-232.325 423.671,-239.281"/>
</g>
<!-- Node5 -->
<g id="node5" class="node"><title>Node5</title>
<g id="a_node5"><a xlink:href="../../dd/d02/classview_1_1_splash_screen.html#a652092fc5c5862cee4ff84bf231646ab" target="_top" xlink:title="view.SplashScreen.addLoad\lButton">
<polygon fill="white" stroke="black" points="432.5,-274 432.5,-304 581.5,-304 581.5,-274 432.5,-274"/>
<text text-anchor="start" x="440.5" y="-292" font-family="Helvetica,sans-Serif" font-size="10.00">view.SplashScreen.addLoad</text>
<text text-anchor="middle" x="507" y="-281" font-family="Helvetica,sans-Serif" font-size="10.00">Button</text>
</a>
</g>
</g>
<!-- Node2&#45;&gt;Node5 -->
<g id="edge4" class="edge"><title>Node2&#45;&gt;Node5</title>
<path fill="none" stroke="midnightblue" d="M334.283,-232.64C356.451,-241.299 390.206,-254.132 420,-264 427.081,-266.345 434.529,-268.69 441.957,-270.951"/>
<polygon fill="midnightblue" stroke="midnightblue" points="441.094,-274.346 451.678,-273.869 443.106,-267.642 441.094,-274.346"/>
</g>
<!-- Node22 -->
<g id="node22" class="node"><title>Node22</title>
<g id="a_node22"><a xlink:href="../../dd/d02/classview_1_1_splash_screen.html#a17ba24f5ed477a37ea527710e54d65c8" target="_top" xlink:title="view.SplashScreen.addRandom\lButton">
<polygon fill="white" stroke="black" points="424,-137 424,-167 590,-167 590,-137 424,-137"/>
<text text-anchor="start" x="432" y="-155" font-family="Helvetica,sans-Serif" font-size="10.00">view.SplashScreen.addRandom</text>
<text text-anchor="middle" x="507" y="-144" font-family="Helvetica,sans-Serif" font-size="10.00">Button</text>
</a>
</g>
</g>
<!-- Node2&#45;&gt;Node22 -->
<g id="edge23" class="edge"><title>Node2&#45;&gt;Node22</title>
<path fill="none" stroke="midnightblue" d="M330.36,-213.342C352.201,-203.209 388.064,-187.224 420,-176 425.854,-173.943 431.98,-171.942 438.151,-170.03"/>
<polygon fill="midnightblue" stroke="midnightblue" points="439.287,-173.343 447.85,-167.104 437.265,-166.641 439.287,-173.343"/>
</g>
<!-- Node35 -->
<g id="node35" class="node"><title>Node35</title>
<g id="a_node35"><a xlink:href="../../dd/d02/classview_1_1_splash_screen.html#ad94d9edd23f270a5f480fd54a06d72f3" target="_top" xlink:title="view.SplashScreen.addProbablity\lButton">
<polygon fill="white" stroke="black" points="420.5,-186 420.5,-216 593.5,-216 593.5,-186 420.5,-186"/>
<text text-anchor="start" x="428.5" y="-204" font-family="Helvetica,sans-Serif" font-size="10.00">view.SplashScreen.addProbablity</text>
<text text-anchor="middle" x="507" y="-193" font-family="Helvetica,sans-Serif" font-size="10.00">Button</text>
</a>
</g>
</g>
<!-- Node2&#45;&gt;Node35 -->
<g id="edge39" class="edge"><title>Node2&#45;&gt;Node35</title>
<path fill="none" stroke="midnightblue" d="M383.541,-214.745C392.222,-213.771 401.177,-212.766 410.109,-211.763"/>
<polygon fill="midnightblue" stroke="midnightblue" points="410.62,-215.228 420.167,-210.634 409.839,-208.272 410.62,-215.228"/>
</g>
<!-- Node4 -->
<g id="node4" class="node"><title>Node4</title>
<g id="a_node4"><a xlink:href="../../dd/d02/classview_1_1_splash_screen.html#a329982556dc38c022b2b8c10347e34bd" target="_top" xlink:title="view.SplashScreen.formatNode">
<polygon fill="white" stroke="black" points="652,-213.5 652,-232.5 818,-232.5 818,-213.5 652,-213.5"/>
<text text-anchor="middle" x="735" y="-220.5" font-family="Helvetica,sans-Serif" font-size="10.00">view.SplashScreen.formatNode</text>
</a>
</g>
</g>
<!-- Node3&#45;&gt;Node4 -->
<g id="edge3" class="edge"><title>Node3&#45;&gt;Node4</title>
<path fill="none" stroke="midnightblue" d="M580.129,-237.979C599.779,-236.066 621.334,-233.967 641.928,-231.963"/>
<polygon fill="midnightblue" stroke="midnightblue" points="642.334,-235.44 651.948,-230.987 641.656,-228.473 642.334,-235.44"/>
</g>
<!-- Node5&#45;&gt;Node4 -->
<g id="edge5" class="edge"><title>Node5&#45;&gt;Node4</title>
<path fill="none" stroke="midnightblue" d="M559.849,-273.946C571.109,-270.671 582.955,-267.223 594,-264 626.805,-254.428 663.921,-243.557 691.691,-235.414"/>
<polygon fill="midnightblue" stroke="midnightblue" points="692.863,-238.718 701.473,-232.546 690.893,-232.001 692.863,-238.718"/>
</g>
<!-- Node6 -->
<g id="node6" class="node"><title>Node6</title>
<g id="a_node6"><a xlink:href="../../d6/d7b/classcontroller_1_1_cell_society_controller.html#afbdf9a63e15a2bfa878dcfe5ed3ef6dc" target="_top" xlink:title="controller.CellSocietyController.transition\lToFileLoaderScreen">
<polygon fill="white" stroke="black" points="630,-280 630,-310 840,-310 840,-280 630,-280"/>
<text text-anchor="start" x="638" y="-298" font-family="Helvetica,sans-Serif" font-size="10.00">controller.CellSocietyController.transition</text>
<text text-anchor="middle" x="735" y="-287" font-family="Helvetica,sans-Serif" font-size="10.00">ToFileLoaderScreen</text>
</a>
</g>
</g>
<!-- Node5&#45;&gt;Node6 -->
<g id="edge6" class="edge"><title>Node5&#45;&gt;Node6</title>
<path fill="none" stroke="midnightblue" d="M581.688,-290.956C593.783,-291.277 606.565,-291.617 619.374,-291.957"/>
<polygon fill="midnightblue" stroke="midnightblue" points="619.551,-295.463 629.641,-292.229 619.737,-288.465 619.551,-295.463"/>
</g>
<!-- Node7 -->
<g id="node7" class="node"><title>Node7</title>
<g id="a_node7"><a xlink:href="../../d3/d0a/classview_1_1_file_loader_screen.html#a32abcb410ad28199e0bfcdce0255715b" target="_top" xlink:title="view.FileLoaderScreen.getNode">
<polygon fill="white" stroke="black" points="898.5,-361.5 898.5,-380.5 1063.5,-380.5 1063.5,-361.5 898.5,-361.5"/>
<text text-anchor="middle" x="981" y="-368.5" font-family="Helvetica,sans-Serif" font-size="10.00">view.FileLoaderScreen.getNode</text>
</a>
</g>
</g>
<!-- Node6&#45;&gt;Node7 -->
<g id="edge7" class="edge"><title>Node6&#45;&gt;Node7</title>
<path fill="none" stroke="midnightblue" d="M767.583,-310.051C795.53,-322.834 837.705,-340.836 876,-352 885.581,-354.793 895.784,-357.257 905.913,-359.406"/>
<polygon fill="midnightblue" stroke="midnightblue" points="905.494,-362.892 915.991,-361.449 906.886,-356.032 905.494,-362.892"/>
</g>
<!-- Node8 -->
<g id="node8" class="node"><title>Node8</title>
<g id="a_node8"><a xlink:href="../../d3/d0a/classview_1_1_file_loader_screen.html#a196dd45848fbdf09ac100c343b6515cd" target="_top" xlink:title="view.FileLoaderScreen.getFile">
<polygon fill="white" stroke="black" points="903.5,-323.5 903.5,-342.5 1058.5,-342.5 1058.5,-323.5 903.5,-323.5"/>
<text text-anchor="middle" x="981" y="-330.5" font-family="Helvetica,sans-Serif" font-size="10.00">view.FileLoaderScreen.getFile</text>
</a>
</g>
</g>
<!-- Node6&#45;&gt;Node8 -->
<g id="edge8" class="edge"><title>Node6&#45;&gt;Node8</title>
<path fill="none" stroke="midnightblue" d="M832.435,-310.019C857.961,-313.994 885.05,-318.213 908.957,-321.936"/>
<polygon fill="midnightblue" stroke="midnightblue" points="908.575,-325.418 918.994,-323.499 909.652,-318.502 908.575,-325.418"/>
</g>
<!-- Node10 -->
<g id="node10" class="node"><title>Node10</title>
<g id="a_node10"><a xlink:href="../../d6/d7b/classcontroller_1_1_cell_society_controller.html#a643c7ac22f2822fa7e492dbf4267ed21" target="_top" xlink:title="controller.CellSocietyController.readXML">
<polygon fill="white" stroke="black" points="878,-285.5 878,-304.5 1084,-304.5 1084,-285.5 878,-285.5"/>
<text text-anchor="middle" x="981" y="-292.5" font-family="Helvetica,sans-Serif" font-size="10.00">controller.CellSocietyController.readXML</text>
</a>
</g>
</g>
<!-- Node6&#45;&gt;Node10 -->
<g id="edge10" class="edge"><title>Node6&#45;&gt;Node10</title>
<path fill="none" stroke="midnightblue" d="M840.186,-288.314C849.22,-288.249 858.388,-288.233 867.485,-288.268"/>
<polygon fill="midnightblue" stroke="midnightblue" points="867.694,-291.769 877.715,-288.329 867.736,-284.769 867.694,-291.769"/>
</g>
<!-- Node9 -->
<g id="node9" class="node"><title>Node9</title>
<g id="a_node9"><a xlink:href="../../d3/d0a/classview_1_1_file_loader_screen.html#a97d7c0b9dc021069c17e7f778398f41e" target="_top" xlink:title="view.FileLoaderScreen.configure\lFileChooser">
<polygon fill="white" stroke="black" points="1143,-373 1143,-403 1311,-403 1311,-373 1143,-373"/>
<text text-anchor="start" x="1151" y="-391" font-family="Helvetica,sans-Serif" font-size="10.00">view.FileLoaderScreen.configure</text>
<text text-anchor="middle" x="1227" y="-380" font-family="Helvetica,sans-Serif" font-size="10.00">FileChooser</text>
</a>
</g>
</g>
<!-- Node8&#45;&gt;Node9 -->
<g id="edge9" class="edge"><title>Node8&#45;&gt;Node9</title>
<path fill="none" stroke="midnightblue" d="M1040.83,-342.521C1055.64,-345.254 1071.47,-348.464 1086,-352 1102.26,-355.954 1105.86,-358.598 1122,-363 1131.34,-365.547 1141.19,-368.093 1150.95,-370.533"/>
<polygon fill="midnightblue" stroke="midnightblue" points="1150.11,-373.931 1160.66,-372.934 1151.79,-367.136 1150.11,-373.931"/>
</g>
<!-- Node10&#45;&gt;Node6 -->
<g id="edge22" class="edge"><title>Node10&#45;&gt;Node6</title>
<path fill="none" stroke="midnightblue" d="M877.715,-301.671C868.7,-301.744 859.538,-301.766 850.432,-301.738"/>
<polygon fill="midnightblue" stroke="midnightblue" points="850.204,-298.237 840.186,-301.686 850.168,-305.237 850.204,-298.237"/>
</g>
<!-- Node11 -->
<g id="node11" class="node"><title>Node11</title>
<g id="a_node11"><a xlink:href="../../dc/d47/classcontroller_1_1_x_m_l_parser.html#a841cf5fa54e30325a444ba24fa26c50e" target="_top" xlink:title="controller.XMLParser.getGrid">
<polygon fill="white" stroke="black" points="1151.5,-285.5 1151.5,-304.5 1302.5,-304.5 1302.5,-285.5 1151.5,-285.5"/>
<text text-anchor="middle" x="1227" y="-292.5" font-family="Helvetica,sans-Serif" font-size="10.00">controller.XMLParser.getGrid</text>
</a>
</g>
</g>
<!-- Node10&#45;&gt;Node11 -->
<g id="edge11" class="edge"><title>Node10&#45;&gt;Node11</title>
<path fill="none" stroke="midnightblue" d="M1084.06,-295C1103.13,-295 1122.86,-295 1141.32,-295"/>
<polygon fill="midnightblue" stroke="midnightblue" points="1141.44,-298.5 1151.44,-295 1141.44,-291.5 1141.44,-298.5"/>
</g>
<!-- Node12 -->
<g id="node12" class="node"><title>Node12</title>
<g id="a_node12"><a xlink:href="../../dc/d47/classcontroller_1_1_x_m_l_parser.html#a0ebd2f6df311d0e2f9f0cd7969ecbe73" target="_top" xlink:title="controller.XMLParser.get\lParameters">
<polygon fill="white" stroke="black" points="1161.5,-324 1161.5,-354 1292.5,-354 1292.5,-324 1161.5,-324"/>
<text text-anchor="start" x="1169.5" y="-342" font-family="Helvetica,sans-Serif" font-size="10.00">controller.XMLParser.get</text>
<text text-anchor="middle" x="1227" y="-331" font-family="Helvetica,sans-Serif" font-size="10.00">Parameters</text>
</a>
</g>
</g>
<!-- Node10&#45;&gt;Node12 -->
<g id="edge12" class="edge"><title>Node10&#45;&gt;Node12</title>
<path fill="none" stroke="midnightblue" d="M1034.94,-304.547C1069.04,-310.696 1113.87,-318.779 1151.53,-325.571"/>
<polygon fill="midnightblue" stroke="midnightblue" points="1150.98,-329.028 1161.44,-327.358 1152.22,-322.139 1150.98,-329.028"/>
</g>
<!-- Node13 -->
<g id="node13" class="node"><title>Node13</title>
<g id="a_node13"><a xlink:href="../../d6/d7b/classcontroller_1_1_cell_society_controller.html#a3d913ad3344ac48e887110e2fabb5746" target="_top" xlink:title="controller.CellSocietyController.transition\lToSimulation">
<polygon fill="white" stroke="black" points="1368,-204 1368,-234 1578,-234 1578,-204 1368,-204"/>
<text text-anchor="start" x="1376" y="-222" font-family="Helvetica,sans-Serif" font-size="10.00">controller.CellSocietyController.transition</text>
<text text-anchor="middle" x="1473" y="-211" font-family="Helvetica,sans-Serif" font-size="10.00">ToSimulation</text>
</a>
</g>
</g>
<!-- Node10&#45;&gt;Node13 -->
<g id="edge13" class="edge"><title>Node10&#45;&gt;Node13</title>
<path fill="none" stroke="midnightblue" d="M1043.56,-285.452C1124.2,-272.944 1266.88,-250.815 1365.29,-235.551"/>
<polygon fill="midnightblue" stroke="midnightblue" points="1365.92,-238.995 1375.27,-234.003 1364.85,-232.077 1365.92,-238.995"/>
</g>
<!-- Node14 -->
<g id="node14" class="node"><title>Node14</title>
<g id="a_node14"><a xlink:href="../../d6/d7b/classcontroller_1_1_cell_society_controller.html#af6b4eb647c4e76fef6f27cc61ced4d9a" target="_top" xlink:title="controller.CellSocietyController.initialize\lSimulationScreen">
<polygon fill="white" stroke="black" points="1614.5,-253 1614.5,-283 1817.5,-283 1817.5,-253 1614.5,-253"/>
<text text-anchor="start" x="1622.5" y="-271" font-family="Helvetica,sans-Serif" font-size="10.00">controller.CellSocietyController.initialize</text>
<text text-anchor="middle" x="1716" y="-260" font-family="Helvetica,sans-Serif" font-size="10.00">SimulationScreen</text>
</a>
</g>
</g>
<!-- Node13&#45;&gt;Node14 -->
<g id="edge14" class="edge"><title>Node13&#45;&gt;Node14</title>
<path fill="none" stroke="midnightblue" d="M1547.95,-234.035C1574.32,-239.396 1604.2,-245.473 1631.33,-250.989"/>
<polygon fill="midnightblue" stroke="midnightblue" points="1630.7,-254.431 1641.19,-252.994 1632.09,-247.571 1630.7,-254.431"/>
</g>
<!-- Node18 -->
<g id="node18" class="node"><title>Node18</title>
<g id="a_node18"><a xlink:href="../../d6/d7b/classcontroller_1_1_cell_society_controller.html#a8af25de87ececa5ca913e7b5af486b3f" target="_top" xlink:title="controller.CellSocietyController.initialize\lSimulation">
<polygon fill="white" stroke="black" points="1614.5,-204 1614.5,-234 1817.5,-234 1817.5,-204 1614.5,-204"/>
<text text-anchor="start" x="1622.5" y="-222" font-family="Helvetica,sans-Serif" font-size="10.00">controller.CellSocietyController.initialize</text>
<text text-anchor="middle" x="1716" y="-211" font-family="Helvetica,sans-Serif" font-size="10.00">Simulation</text>
</a>
</g>
</g>
<!-- Node13&#45;&gt;Node18 -->
<g id="edge18" class="edge"><title>Node13&#45;&gt;Node18</title>
<path fill="none" stroke="midnightblue" d="M1578.3,-219C1586.9,-219 1595.61,-219 1604.25,-219"/>
<polygon fill="midnightblue" stroke="midnightblue" points="1604.35,-222.5 1614.35,-219 1604.35,-215.5 1604.35,-222.5"/>
</g>
<!-- Node19 -->
<g id="node19" class="node"><title>Node19</title>
<g id="a_node19"><a xlink:href="../../d6/d7b/classcontroller_1_1_cell_society_controller.html#a7609d9a174ff7d2d00fc27e3574cdb21" target="_top" xlink:title="controller.CellSocietyController.stop\lOrStart">
<polygon fill="white" stroke="black" points="1623,-155 1623,-185 1809,-185 1809,-155 1623,-155"/>
<text text-anchor="start" x="1631" y="-173" font-family="Helvetica,sans-Serif" font-size="10.00">controller.CellSocietyController.stop</text>
<text text-anchor="middle" x="1716" y="-162" font-family="Helvetica,sans-Serif" font-size="10.00">OrStart</text>
</a>
</g>
</g>
<!-- Node13&#45;&gt;Node19 -->
<g id="edge19" class="edge"><title>Node13&#45;&gt;Node19</title>
<path fill="none" stroke="midnightblue" d="M1547.95,-203.965C1574.32,-198.604 1604.2,-192.527 1631.33,-187.011"/>
<polygon fill="midnightblue" stroke="midnightblue" points="1632.09,-190.429 1641.19,-185.006 1630.7,-183.569 1632.09,-190.429"/>
</g>
<!-- Node15 -->
<g id="node15" class="node"><title>Node15</title>
<g id="a_node15"><a xlink:href="../../d1/d3e/classview_1_1_simulation_screen.html#a6c9f5c7e36be620d06e55709bc256d18" target="_top" xlink:title="view.SimulationScreen.init\lSimScreen">
<polygon fill="white" stroke="black" points="1882.5,-285 1882.5,-315 2023.5,-315 2023.5,-285 1882.5,-285"/>
<text text-anchor="start" x="1890.5" y="-303" font-family="Helvetica,sans-Serif" font-size="10.00">view.SimulationScreen.init</text>
<text text-anchor="middle" x="1953" y="-292" font-family="Helvetica,sans-Serif" font-size="10.00">SimScreen</text>
</a>
</g>
</g>
<!-- Node14&#45;&gt;Node15 -->
<g id="edge15" class="edge"><title>Node14&#45;&gt;Node15</title>
<path fill="none" stroke="midnightblue" d="M1817.68,-281.71C1835.91,-284.192 1854.68,-286.748 1872.21,-289.135"/>
<polygon fill="midnightblue" stroke="midnightblue" points="1871.99,-292.637 1882.37,-290.518 1872.93,-285.701 1871.99,-292.637"/>
</g>
<!-- Node17 -->
<g id="node17" class="node"><title>Node17</title>
<g id="a_node17"><a xlink:href="../../d1/d3e/classview_1_1_simulation_screen.html#a482a021910f4b997fb7b798bdc363df4" target="_top" xlink:title="view.SimulationScreen.getNode">
<polygon fill="white" stroke="black" points="1869,-246.5 1869,-265.5 2037,-265.5 2037,-246.5 1869,-246.5"/>
<text text-anchor="middle" x="1953" y="-253.5" font-family="Helvetica,sans-Serif" font-size="10.00">view.SimulationScreen.getNode</text>
</a>
</g>
</g>
<!-- Node14&#45;&gt;Node17 -->
<g id="edge17" class="edge"><title>Node14&#45;&gt;Node17</title>
<path fill="none" stroke="midnightblue" d="M1817.68,-262.859C1831.28,-262.164 1845.19,-261.454 1858.66,-260.767"/>
<polygon fill="midnightblue" stroke="midnightblue" points="1859.05,-264.251 1868.85,-260.246 1858.69,-257.26 1859.05,-264.251"/>
</g>
<!-- Node16 -->
<g id="node16" class="node"><title>Node16</title>
<g id="a_node16"><a xlink:href="../../d1/d3e/classview_1_1_simulation_screen.html#a7144a80861195f360ade7612b479ff3e" target="_top" xlink:title="view.SimulationScreen.add\lButtons">
<polygon fill="white" stroke="black" points="2088.5,-285 2088.5,-315 2233.5,-315 2233.5,-285 2088.5,-285"/>
<text text-anchor="start" x="2096.5" y="-303" font-family="Helvetica,sans-Serif" font-size="10.00">view.SimulationScreen.add</text>
<text text-anchor="middle" x="2161" y="-292" font-family="Helvetica,sans-Serif" font-size="10.00">Buttons</text>
</a>
</g>
</g>
<!-- Node15&#45;&gt;Node16 -->
<g id="edge16" class="edge"><title>Node15&#45;&gt;Node16</title>
<path fill="none" stroke="midnightblue" d="M2023.74,-300C2041.19,-300 2060.07,-300 2078.05,-300"/>
<polygon fill="midnightblue" stroke="midnightblue" points="2078.22,-303.5 2088.22,-300 2078.22,-296.5 2078.22,-303.5"/>
</g>
<!-- Node20 -->
<g id="node20" class="node"><title>Node20</title>
<g id="a_node20"><a xlink:href="../../d6/d7b/classcontroller_1_1_cell_society_controller.html#aec38c45810ee2665fe01832114fbc68d" target="_top" xlink:title="controller.CellSocietyController.restart\lSimulation">
<polygon fill="white" stroke="black" points="1854.5,-185 1854.5,-215 2051.5,-215 2051.5,-185 1854.5,-185"/>
<text text-anchor="start" x="1862.5" y="-203" font-family="Helvetica,sans-Serif" font-size="10.00">controller.CellSocietyController.restart</text>
<text text-anchor="middle" x="1953" y="-192" font-family="Helvetica,sans-Serif" font-size="10.00">Simulation</text>
</a>
</g>
</g>
<!-- Node19&#45;&gt;Node20 -->
<g id="edge20" class="edge"><title>Node19&#45;&gt;Node20</title>
<path fill="none" stroke="midnightblue" d="M1809.2,-181.771C1820.64,-183.231 1832.41,-184.734 1844.06,-186.221"/>
<polygon fill="midnightblue" stroke="midnightblue" points="1843.89,-189.727 1854.25,-187.521 1844.78,-182.783 1843.89,-189.727"/>
</g>
<!-- Node21 -->
<g id="node21" class="node"><title>Node21</title>
<g id="a_node21"><a xlink:href="../../d6/d7b/classcontroller_1_1_cell_society_controller.html#a33e7a77467ceeb880526a1b405b3ee79" target="_top" xlink:title="controller.CellSocietyController.pause\lSimulation">
<polygon fill="white" stroke="black" points="1856,-136 1856,-166 2050,-166 2050,-136 1856,-136"/>
<text text-anchor="start" x="1864" y="-154" font-family="Helvetica,sans-Serif" font-size="10.00">controller.CellSocietyController.pause</text>
<text text-anchor="middle" x="1953" y="-143" font-family="Helvetica,sans-Serif" font-size="10.00">Simulation</text>
</a>
</g>
</g>
<!-- Node19&#45;&gt;Node21 -->
<g id="edge21" class="edge"><title>Node19&#45;&gt;Node21</title>
<path fill="none" stroke="midnightblue" d="M1809.2,-162.545C1821.16,-161.579 1833.48,-160.582 1845.64,-159.599"/>
<polygon fill="midnightblue" stroke="midnightblue" points="1846.12,-163.072 1855.81,-158.777 1845.56,-156.095 1846.12,-163.072"/>
</g>
<!-- Node22&#45;&gt;Node4 -->
<g id="edge24" class="edge"><title>Node22&#45;&gt;Node4</title>
<path fill="none" stroke="midnightblue" d="M563.638,-167.073C573.767,-169.946 584.22,-172.996 594,-176 629.252,-186.828 669.087,-200.326 697.226,-210.075"/>
<polygon fill="midnightblue" stroke="midnightblue" points="696.439,-213.507 707.034,-213.485 698.738,-206.895 696.439,-213.507"/>
</g>
<!-- Node23 -->
<g id="node23" class="node"><title>Node23</title>
<g id="a_node23"><a xlink:href="../../dd/d02/classview_1_1_splash_screen.html#a2f8c52e9a2a790459e51d5d42f16f7da" target="_top" xlink:title="view.SplashScreen.display\lAskInformatio">
<polygon fill="white" stroke="black" points="664.5,-137 664.5,-167 805.5,-167 805.5,-137 664.5,-137"/>
<text text-anchor="start" x="672.5" y="-155" font-family="Helvetica,sans-Serif" font-size="10.00">view.SplashScreen.display</text>
<text text-anchor="middle" x="735" y="-144" font-family="Helvetica,sans-Serif" font-size="10.00">AskInformatio</text>
</a>
</g>
</g>
<!-- Node22&#45;&gt;Node23 -->
<g id="edge25" class="edge"><title>Node22&#45;&gt;Node23</title>
<path fill="none" stroke="midnightblue" d="M590.231,-152C611.163,-152 633.621,-152 654.419,-152"/>
<polygon fill="midnightblue" stroke="midnightblue" points="654.482,-155.5 664.482,-152 654.482,-148.5 654.482,-155.5"/>
</g>
<!-- Node24 -->
<g id="node24" class="node"><title>Node24</title>
<g id="a_node24"><a xlink:href="../../dd/d02/classview_1_1_splash_screen.html#ab75deddb521d5727122eec02161acc9d" target="_top" xlink:title="view.SplashScreen.remove\lButtons">
<polygon fill="white" stroke="black" points="908.5,-36 908.5,-66 1053.5,-66 1053.5,-36 908.5,-36"/>
<text text-anchor="start" x="916.5" y="-54" font-family="Helvetica,sans-Serif" font-size="10.00">view.SplashScreen.remove</text>
<text text-anchor="middle" x="981" y="-43" font-family="Helvetica,sans-Serif" font-size="10.00">Buttons</text>
</a>
</g>
</g>
<!-- Node23&#45;&gt;Node24 -->
<g id="edge26" class="edge"><title>Node23&#45;&gt;Node24</title>
<path fill="none" stroke="midnightblue" d="M759.364,-136.833C786.443,-119.854 832.884,-92.556 876,-76 883.253,-73.2151 890.912,-70.6728 898.652,-68.3681"/>
<polygon fill="midnightblue" stroke="midnightblue" points="899.813,-71.6769 908.474,-65.5756 897.898,-64.9437 899.813,-71.6769"/>
</g>
<!-- Node25 -->
<g id="node25" class="node"><title>Node25</title>
<g id="a_node25"><a xlink:href="../../dd/d02/classview_1_1_splash_screen.html#ae484c2f05f910335ffacddd236eb4908" target="_top" xlink:title="view.SplashScreen.addDimensionsText">
<polygon fill="white" stroke="black" points="880.5,-230.5 880.5,-249.5 1081.5,-249.5 1081.5,-230.5 880.5,-230.5"/>
<text text-anchor="middle" x="981" y="-237.5" font-family="Helvetica,sans-Serif" font-size="10.00">view.SplashScreen.addDimensionsText</text>
</a>
</g>
</g>
<!-- Node23&#45;&gt;Node25 -->
<g id="edge27" class="edge"><title>Node23&#45;&gt;Node25</title>
<path fill="none" stroke="midnightblue" d="M766.132,-167.157C803.829,-186.036 864.815,-216.28 876,-220 885.652,-223.21 895.988,-225.966 906.264,-228.316"/>
<polygon fill="midnightblue" stroke="midnightblue" points="905.557,-231.744 916.072,-230.445 907.042,-224.903 905.557,-231.744"/>
</g>
<!-- Node26 -->
<g id="node26" class="node"><title>Node26</title>
<g id="a_node26"><a xlink:href="../../dd/d02/classview_1_1_splash_screen.html#ae4427d4a548843b069b35328182187fa" target="_top" xlink:title="view.SplashScreen.addSimulation\lNameText">
<polygon fill="white" stroke="black" points="892.5,-181 892.5,-211 1069.5,-211 1069.5,-181 892.5,-181"/>
<text text-anchor="start" x="900.5" y="-199" font-family="Helvetica,sans-Serif" font-size="10.00">view.SplashScreen.addSimulation</text>
<text text-anchor="middle" x="981" y="-188" font-family="Helvetica,sans-Serif" font-size="10.00">NameText</text>
</a>
</g>
</g>
<!-- Node23&#45;&gt;Node26 -->
<g id="edge28" class="edge"><title>Node23&#45;&gt;Node26</title>
<path fill="none" stroke="midnightblue" d="M805.594,-164.55C830.699,-169.077 859.46,-174.263 886.289,-179.101"/>
<polygon fill="midnightblue" stroke="midnightblue" points="886.003,-182.606 896.466,-180.936 887.246,-175.717 886.003,-182.606"/>
</g>
<!-- Node27 -->
<g id="node27" class="node"><title>Node27</title>
<g id="a_node27"><a xlink:href="../../dd/d02/classview_1_1_splash_screen.html#a05478a56856d70fd9508d79ca484fbca" target="_top" xlink:title="view.SplashScreen.addProbabilityText">
<polygon fill="white" stroke="black" points="884,-85.5 884,-104.5 1078,-104.5 1078,-85.5 884,-85.5"/>
<text text-anchor="middle" x="981" y="-92.5" font-family="Helvetica,sans-Serif" font-size="10.00">view.SplashScreen.addProbabilityText</text>
</a>
</g>
</g>
<!-- Node23&#45;&gt;Node27 -->
<g id="edge29" class="edge"><title>Node23&#45;&gt;Node27</title>
<path fill="none" stroke="midnightblue" d="M800.427,-136.949C840.564,-127.573 891.488,-115.677 928.848,-106.949"/>
<polygon fill="midnightblue" stroke="midnightblue" points="930.064,-110.26 939.006,-104.577 928.472,-103.443 930.064,-110.26"/>
</g>
<!-- Node32 -->
<g id="node32" class="node"><title>Node32</title>
<g id="a_node32"><a xlink:href="../../d6/d7b/classcontroller_1_1_cell_society_controller.html#ab65a8810efbc2b92e17ca77cdc591df9" target="_top" xlink:title="controller.CellSocietyController.generate\lRandomGrid">
<polygon fill="white" stroke="black" points="876.5,-132 876.5,-162 1085.5,-162 1085.5,-132 876.5,-132"/>
<text text-anchor="start" x="884.5" y="-150" font-family="Helvetica,sans-Serif" font-size="10.00">controller.CellSocietyController.generate</text>
<text text-anchor="middle" x="981" y="-139" font-family="Helvetica,sans-Serif" font-size="10.00">RandomGrid</text>
</a>
</g>
</g>
<!-- Node23&#45;&gt;Node32 -->
<g id="edge35" class="edge"><title>Node23&#45;&gt;Node32</title>
<path fill="none" stroke="midnightblue" d="M805.594,-150.574C824.478,-150.187 845.43,-149.758 866.073,-149.335"/>
<polygon fill="midnightblue" stroke="midnightblue" points="866.245,-152.832 876.171,-149.128 866.101,-145.833 866.245,-152.832"/>
</g>
<!-- Node28 -->
<g id="node28" class="node"><title>Node28</title>
<g id="a_node28"><a xlink:href="../../dd/d02/classview_1_1_splash_screen.html#a1e747e968477f14fbd6d6cd4a508e008" target="_top" xlink:title="view.SplashScreen.remove\lAskScreenNodes">
<polygon fill="white" stroke="black" points="1154.5,-73 1154.5,-103 1299.5,-103 1299.5,-73 1154.5,-73"/>
<text text-anchor="start" x="1162.5" y="-91" font-family="Helvetica,sans-Serif" font-size="10.00">view.SplashScreen.remove</text>
<text text-anchor="middle" x="1227" y="-80" font-family="Helvetica,sans-Serif" font-size="10.00">AskScreenNodes</text>
</a>
</g>
</g>
<!-- Node27&#45;&gt;Node28 -->
<g id="edge30" class="edge"><title>Node27&#45;&gt;Node28</title>
<path fill="none" stroke="midnightblue" d="M1078.09,-92.2435C1099.86,-91.6188 1122.79,-90.9609 1143.92,-90.3546"/>
<polygon fill="midnightblue" stroke="midnightblue" points="1144.25,-93.8469 1154.14,-90.0615 1144.04,-86.8498 1144.25,-93.8469"/>
</g>
<!-- Node29 -->
<g id="node29" class="node"><title>Node29</title>
<g id="a_node29"><a xlink:href="../../d6/d7b/classcontroller_1_1_cell_society_controller.html#ada30fdc135cdf08b93065edf15ed3fcc" target="_top" xlink:title="controller.CellSocietyController.generate\lProbabilityRandomGrid">
<polygon fill="white" stroke="black" points="1122.5,-24 1122.5,-54 1331.5,-54 1331.5,-24 1122.5,-24"/>
<text text-anchor="start" x="1130.5" y="-42" font-family="Helvetica,sans-Serif" font-size="10.00">controller.CellSocietyController.generate</text>
<text text-anchor="middle" x="1227" y="-31" font-family="Helvetica,sans-Serif" font-size="10.00">ProbabilityRandomGrid</text>
</a>
</g>
</g>
<!-- Node27&#45;&gt;Node29 -->
<g id="edge31" class="edge"><title>Node27&#45;&gt;Node29</title>
<path fill="none" stroke="midnightblue" d="M1038.71,-85.497C1054.14,-82.5305 1070.79,-78.9786 1086,-75 1102.32,-70.7316 1105.76,-67.568 1122,-63 1130.01,-60.7454 1138.42,-58.5431 1146.83,-56.4441"/>
<polygon fill="midnightblue" stroke="midnightblue" points="1147.8,-59.8095 1156.68,-54.0306 1146.13,-53.0106 1147.8,-59.8095"/>
</g>
<!-- Node29&#45;&gt;Node13 -->
<g id="edge34" class="edge"><title>Node29&#45;&gt;Node13</title>
<path fill="none" stroke="midnightblue" d="M1313.41,-54.0946C1319.9,-56.6178 1326.18,-59.5628 1332,-63 1388.68,-96.4442 1435.14,-160.483 1457.54,-195.204"/>
<polygon fill="midnightblue" stroke="midnightblue" points="1454.65,-197.188 1462.96,-203.767 1460.57,-193.445 1454.65,-197.188"/>
</g>
<!-- Node30 -->
<g id="node30" class="node"><title>Node30</title>
<g id="a_node30"><a xlink:href="../../d3/dc8/classcontroller_1_1_probability_sim_generator.html#a66a18a40b330a1650ff804385ed3abc2" target="_top" xlink:title="controller.ProbabilitySim\lGenerator.getGrid">
<polygon fill="white" stroke="black" points="1407,-0 1407,-30 1539,-30 1539,-0 1407,-0"/>
<text text-anchor="start" x="1415" y="-18" font-family="Helvetica,sans-Serif" font-size="10.00">controller.ProbabilitySim</text>
<text text-anchor="middle" x="1473" y="-7" font-family="Helvetica,sans-Serif" font-size="10.00">Generator.getGrid</text>
</a>
</g>
</g>
<!-- Node29&#45;&gt;Node30 -->
<g id="edge32" class="edge"><title>Node29&#45;&gt;Node30</title>
<path fill="none" stroke="midnightblue" d="M1331.83,-28.787C1353.58,-26.6478 1376.12,-24.4312 1396.59,-22.4171"/>
<polygon fill="midnightblue" stroke="midnightblue" points="1397.17,-25.8772 1406.78,-21.4151 1396.49,-18.9108 1397.17,-25.8772"/>
</g>
<!-- Node31 -->
<g id="node31" class="node"><title>Node31</title>
<g id="a_node31"><a xlink:href="../../d3/dc8/classcontroller_1_1_probability_sim_generator.html#aa5aa2ef09d94ff11c6912b34fafa1d4a" target="_top" xlink:title="controller.ProbabilitySim\lGenerator.getParameters">
<polygon fill="white" stroke="black" points="1403.5,-49 1403.5,-79 1542.5,-79 1542.5,-49 1403.5,-49"/>
<text text-anchor="start" x="1411.5" y="-67" font-family="Helvetica,sans-Serif" font-size="10.00">controller.ProbabilitySim</text>
<text text-anchor="middle" x="1473" y="-56" font-family="Helvetica,sans-Serif" font-size="10.00">Generator.getParameters</text>
</a>
</g>
</g>
<!-- Node29&#45;&gt;Node31 -->
<g id="edge33" class="edge"><title>Node29&#45;&gt;Node31</title>
<path fill="none" stroke="midnightblue" d="M1331.83,-49.6385C1352.38,-51.7435 1373.62,-53.9205 1393.17,-55.9235"/>
<polygon fill="midnightblue" stroke="midnightblue" points="1392.92,-59.4163 1403.23,-56.9538 1393.64,-52.4527 1392.92,-59.4163"/>
</g>
<!-- Node32&#45;&gt;Node13 -->
<g id="edge38" class="edge"><title>Node32&#45;&gt;Node13</title>
<path fill="none" stroke="midnightblue" d="M1063.57,-162.051C1071.32,-164.596 1078.92,-167.557 1086,-171 1104.48,-179.982 1102.82,-192.644 1122,-200 1196.87,-228.71 1287.39,-232.899 1357.62,-230.203"/>
<polygon fill="midnightblue" stroke="midnightblue" points="1357.99,-233.69 1367.83,-229.757 1357.69,-226.697 1357.99,-233.69"/>
</g>
<!-- Node33 -->
<g id="node33" class="node"><title>Node33</title>
<g id="a_node33"><a xlink:href="../../d4/d2d/classcontroller_1_1_random_sim_generator.html#a807ccd4617ee16b3f28aadfa544c42cb" target="_top" xlink:title="controller.RandomSimGenerator.getGrid">
<polygon fill="white" stroke="black" points="1122.5,-171.5 1122.5,-190.5 1331.5,-190.5 1331.5,-171.5 1122.5,-171.5"/>
<text text-anchor="middle" x="1227" y="-178.5" font-family="Helvetica,sans-Serif" font-size="10.00">controller.RandomSimGenerator.getGrid</text>
</a>
</g>
</g>
<!-- Node32&#45;&gt;Node33 -->
<g id="edge36" class="edge"><title>Node32&#45;&gt;Node33</title>
<path fill="none" stroke="midnightblue" d="M1085.83,-161.468C1106.49,-164.347 1127.85,-167.324 1147.49,-170.06"/>
<polygon fill="midnightblue" stroke="midnightblue" points="1147.2,-173.553 1157.59,-171.467 1148.17,-166.62 1147.2,-173.553"/>
</g>
<!-- Node34 -->
<g id="node34" class="node"><title>Node34</title>
<g id="a_node34"><a xlink:href="../../d4/d2d/classcontroller_1_1_random_sim_generator.html#a93fd8f4276dc3a0271fe51b37664f77a" target="_top" xlink:title="controller.RandomSimGenerator.get\lParameters">
<polygon fill="white" stroke="black" points="1132.5,-122 1132.5,-152 1321.5,-152 1321.5,-122 1132.5,-122"/>
<text text-anchor="start" x="1140.5" y="-140" font-family="Helvetica,sans-Serif" font-size="10.00">controller.RandomSimGenerator.get</text>
<text text-anchor="middle" x="1227" y="-129" font-family="Helvetica,sans-Serif" font-size="10.00">Parameters</text>
</a>
</g>
</g>
<!-- Node32&#45;&gt;Node34 -->
<g id="edge37" class="edge"><title>Node32&#45;&gt;Node34</title>
<path fill="none" stroke="midnightblue" d="M1085.83,-142.745C1097.89,-142.25 1110.19,-141.746 1122.25,-141.252"/>
<polygon fill="midnightblue" stroke="midnightblue" points="1122.46,-144.746 1132.31,-140.84 1122.18,-137.752 1122.46,-144.746"/>
</g>
<!-- Node35&#45;&gt;Node4 -->
<g id="edge40" class="edge"><title>Node35&#45;&gt;Node4</title>
<path fill="none" stroke="midnightblue" d="M593.763,-209.349C609.333,-210.864 625.636,-212.451 641.393,-213.985"/>
<polygon fill="midnightblue" stroke="midnightblue" points="641.362,-217.499 651.655,-214.984 642.041,-210.532 641.362,-217.499"/>
</g>
<!-- Node35&#45;&gt;Node23 -->
<g id="edge41" class="edge"><title>Node35&#45;&gt;Node23</title>
<path fill="none" stroke="midnightblue" d="M577.343,-185.965C601.857,-180.651 629.609,-174.633 654.872,-169.156"/>
<polygon fill="midnightblue" stroke="midnightblue" points="655.757,-172.546 664.788,-167.006 654.273,-165.705 655.757,-172.546"/>
</g>
</g>
</svg>
