<?xml version="1.0" encoding="UTF-8" standalone="no"?>
<!DOCTYPE svg PUBLIC "-//W3C//DTD SVG 1.1//EN"
 "http://www.w3.org/Graphics/SVG/1.1/DTD/svg11.dtd">
<!-- Generated by graphviz version 2.36.0 (20140111.2315)
 -->
<!-- Title: controller.CellSocietyController.transitionToSimulation Pages: 1 -->
<svg width="2010pt" height="168pt"
 viewBox="0.00 0.00 2010.00 168.00" xmlns="http://www.w3.org/2000/svg" xmlns:xlink="http://www.w3.org/1999/xlink">
<g id="graph0" class="graph" transform="scale(1 1) rotate(0) translate(4 164)">
<title>controller.CellSocietyController.transitionToSimulation</title>
<polygon fill="white" stroke="none" points="-4,4 -4,-164 2006,-164 2006,4 -4,4"/>
<!-- Node1 -->
<g id="node1" class="node"><title>Node1</title>
<polygon fill="#bfbfbf" stroke="black" points="0,-64 0,-94 210,-94 210,-64 0,-64"/>
<text text-anchor="start" x="8" y="-82" font-family="Helvetica,sans-Serif" font-size="10.00">controller.CellSocietyController.transition</text>
<text text-anchor="middle" x="105" y="-71" font-family="Helvetica,sans-Serif" font-size="10.00">ToSimulation</text>
</g>
<!-- Node2 -->
<g id="node2" class="node"><title>Node2</title>
<g id="a_node2"><a xlink:href="../../d6/d7b/classcontroller_1_1_cell_society_controller.html#a41b6379d34f94114f5ada21e3bb8b52e" target="_top" xlink:title="controller.CellSocietyController.generateGrid">
<polygon fill="white" stroke="black" points="246,-91.5 246,-110.5 474,-110.5 474,-91.5 246,-91.5"/>
<text text-anchor="middle" x="360" y="-98.5" font-family="Helvetica,sans-Serif" font-size="10.00">controller.CellSocietyController.generateGrid</text>
</a>
</g>
</g>
<!-- Node1&#45;&gt;Node2 -->
<g id="edge1" class="edge"><title>Node1&#45;&gt;Node2</title>
<path fill="none" stroke="midnightblue" d="M220.176,-88.9283C229.985,-89.7813 239.893,-90.6429 249.663,-91.4924"/>
<polygon fill="midnightblue" stroke="midnightblue" points="220.266,-85.423 210,-88.0435 219.659,-92.3967 220.266,-85.423"/>
</g>
<!-- Node12 -->
<g id="node12" class="node"><title>Node12</title>
<g id="a_node12"><a xlink:href="../../d6/d7b/classcontroller_1_1_cell_society_controller.html#a643c7ac22f2822fa7e492dbf4267ed21" target="_top" xlink:title="controller.CellSocietyController.readXML">
<polygon fill="white" stroke="black" points="257,-47.5 257,-66.5 463,-66.5 463,-47.5 257,-47.5"/>
<text text-anchor="middle" x="360" y="-54.5" font-family="Helvetica,sans-Serif" font-size="10.00">controller.CellSocietyController.readXML</text>
</a>
</g>
</g>
<!-- Node1&#45;&gt;Node12 -->
<g id="edge13" class="edge"><title>Node1&#45;&gt;Node12</title>
<path fill="none" stroke="midnightblue" d="M220.163,-69.0728C232.316,-68.016 244.623,-66.9458 256.629,-65.9019"/>
<polygon fill="midnightblue" stroke="midnightblue" points="219.659,-65.6033 210,-69.9565 220.266,-72.577 219.659,-65.6033"/>
</g>
<!-- Node3 -->
<g id="node3" class="node"><title>Node3</title>
<g id="a_node3"><a xlink:href="../../d6/d7b/classcontroller_1_1_cell_society_controller.html#ada30fdc135cdf08b93065edf15ed3fcc" target="_top" xlink:title="controller.CellSocietyController.generate\lProbabilityRandomGrid">
<polygon fill="white" stroke="black" points="510.5,-130 510.5,-160 719.5,-160 719.5,-130 510.5,-130"/>
<text text-anchor="start" x="518.5" y="-148" font-family="Helvetica,sans-Serif" font-size="10.00">controller.CellSocietyController.generate</text>
<text text-anchor="middle" x="615" y="-137" font-family="Helvetica,sans-Serif" font-size="10.00">ProbabilityRandomGrid</text>
</a>
</g>
</g>
<!-- Node2&#45;&gt;Node3 -->
<g id="edge2" class="edge"><title>Node2&#45;&gt;Node3</title>
<path fill="none" stroke="midnightblue" d="M426.093,-112.32C456.928,-117.683 494.19,-124.163 527.374,-129.935"/>
<polygon fill="midnightblue" stroke="midnightblue" points="426.349,-108.813 415.897,-110.547 425.15,-115.709 426.349,-108.813"/>
</g>
<!-- Node11 -->
<g id="node11" class="node"><title>Node11</title>
<g id="a_node11"><a xlink:href="../../d6/d7b/classcontroller_1_1_cell_society_controller.html#ab65a8810efbc2b92e17ca77cdc591df9" target="_top" xlink:title="controller.CellSocietyController.generate\lRandomGrid">
<polygon fill="white" stroke="black" points="756.5,-86 756.5,-116 965.5,-116 965.5,-86 756.5,-86"/>
<text text-anchor="start" x="764.5" y="-104" font-family="Helvetica,sans-Serif" font-size="10.00">controller.CellSocietyController.generate</text>
<text text-anchor="middle" x="861" y="-93" font-family="Helvetica,sans-Serif" font-size="10.00">RandomGrid</text>
</a>
</g>
</g>
<!-- Node2&#45;&gt;Node11 -->
<g id="edge11" class="edge"><title>Node2&#45;&gt;Node11</title>
<path fill="none" stroke="midnightblue" d="M484.289,-101C567.841,-101 677.027,-101 756.145,-101"/>
<polygon fill="midnightblue" stroke="midnightblue" points="484.231,-97.5001 474.231,-101 484.231,-104.5 484.231,-97.5001"/>
</g>
<!-- Node4 -->
<g id="node4" class="node"><title>Node4</title>
<g id="a_node4"><a xlink:href="../../dd/d02/classview_1_1_splash_screen.html#a05478a56856d70fd9508d79ca484fbca" target="_top" xlink:title="view.SplashScreen.addProbabilityText">
<polygon fill="white" stroke="black" points="764,-135.5 764,-154.5 958,-154.5 958,-135.5 764,-135.5"/>
<text text-anchor="middle" x="861" y="-142.5" font-family="Helvetica,sans-Serif" font-size="10.00">view.SplashScreen.addProbabilityText</text>
</a>
</g>
</g>
<!-- Node3&#45;&gt;Node4 -->
<g id="edge3" class="edge"><title>Node3&#45;&gt;Node4</title>
<path fill="none" stroke="midnightblue" d="M730.093,-145C741.306,-145 752.609,-145 763.619,-145"/>
<polygon fill="midnightblue" stroke="midnightblue" points="729.832,-141.5 719.832,-145 729.832,-148.5 729.832,-141.5"/>
</g>
<!-- Node5 -->
<g id="node5" class="node"><title>Node5</title>
<g id="a_node5"><a xlink:href="../../dd/d02/classview_1_1_splash_screen.html#a2f8c52e9a2a790459e51d5d42f16f7da" target="_top" xlink:title="view.SplashScreen.display\lAskInformatio">
<polygon fill="white" stroke="black" points="1015.5,-90 1015.5,-120 1156.5,-120 1156.5,-90 1015.5,-90"/>
<text text-anchor="start" x="1023.5" y="-108" font-family="Helvetica,sans-Serif" font-size="10.00">view.SplashScreen.display</text>
<text text-anchor="middle" x="1086" y="-97" font-family="Helvetica,sans-Serif" font-size="10.00">AskInformatio</text>
</a>
</g>
</g>
<!-- Node4&#45;&gt;Node5 -->
<g id="edge4" class="edge"><title>Node4&#45;&gt;Node5</title>
<path fill="none" stroke="midnightblue" d="M925.244,-133.656C953.367,-128.611 986.563,-122.657 1015.39,-117.486"/>
<polygon fill="midnightblue" stroke="midnightblue" points="924.356,-130.259 915.131,-135.47 925.592,-137.149 924.356,-130.259"/>
</g>
<!-- Node6 -->
<g id="node6" class="node"><title>Node6</title>
<g id="a_node6"><a xlink:href="../../dd/d02/classview_1_1_splash_screen.html#ad94d9edd23f270a5f480fd54a06d72f3" target="_top" xlink:title="view.SplashScreen.addProbablity\lButton">
<polygon fill="white" stroke="black" points="1206.5,-93 1206.5,-123 1379.5,-123 1379.5,-93 1206.5,-93"/>
<text text-anchor="start" x="1214.5" y="-111" font-family="Helvetica,sans-Serif" font-size="10.00">view.SplashScreen.addProbablity</text>
<text text-anchor="middle" x="1293" y="-100" font-family="Helvetica,sans-Serif" font-size="10.00">Button</text>
</a>
</g>
</g>
<!-- Node5&#45;&gt;Node6 -->
<g id="edge5" class="edge"><title>Node5&#45;&gt;Node6</title>
<path fill="none" stroke="midnightblue" d="M1166.89,-106.169C1179.77,-106.358 1193.15,-106.553 1206.16,-106.744"/>
<polygon fill="midnightblue" stroke="midnightblue" points="1166.74,-102.667 1156.69,-106.02 1166.64,-109.666 1166.74,-102.667"/>
</g>
<!-- Node10 -->
<g id="node10" class="node"><title>Node10</title>
<g id="a_node10"><a xlink:href="../../dd/d02/classview_1_1_splash_screen.html#a17ba24f5ed477a37ea527710e54d65c8" target="_top" xlink:title="view.SplashScreen.addRandom\lButton">
<polygon fill="white" stroke="black" points="1210,-44 1210,-74 1376,-74 1376,-44 1210,-44"/>
<text text-anchor="start" x="1218" y="-62" font-family="Helvetica,sans-Serif" font-size="10.00">view.SplashScreen.addRandom</text>
<text text-anchor="middle" x="1293" y="-51" font-family="Helvetica,sans-Serif" font-size="10.00">Button</text>
</a>
</g>
</g>
<!-- Node5&#45;&gt;Node10 -->
<g id="edge9" class="edge"><title>Node5&#45;&gt;Node10</title>
<path fill="none" stroke="midnightblue" d="M1164.15,-87.6887C1184.19,-83.1918 1205.61,-78.3853 1225.07,-74.0174"/>
<polygon fill="midnightblue" stroke="midnightblue" points="1163.12,-84.3333 1154.12,-89.9379 1164.65,-91.1634 1163.12,-84.3333"/>
</g>
<!-- Node7 -->
<g id="node7" class="node"><title>Node7</title>
<g id="a_node7"><a xlink:href="../../dd/d02/classview_1_1_splash_screen.html#a6ff42b7dad4e546981a3266f9d694f5a" target="_top" xlink:title="view.SplashScreen.getNode">
<polygon fill="white" stroke="black" points="1416.5,-49.5 1416.5,-68.5 1565.5,-68.5 1565.5,-49.5 1416.5,-49.5"/>
<text text-anchor="middle" x="1491" y="-56.5" font-family="Helvetica,sans-Serif" font-size="10.00">view.SplashScreen.getNode</text>
</a>
</g>
</g>
<!-- Node6&#45;&gt;Node7 -->
<g id="edge6" class="edge"><title>Node6&#45;&gt;Node7</title>
<path fill="none" stroke="midnightblue" d="M1364.02,-90.4952C1393.63,-83.0935 1426.95,-74.762 1451.89,-68.528"/>
<polygon fill="midnightblue" stroke="midnightblue" points="1362.99,-87.1445 1354.14,-92.9654 1364.69,-93.9355 1362.99,-87.1445"/>
</g>
<!-- Node8 -->
<g id="node8" class="node"><title>Node8</title>
<g id="a_node8"><a xlink:href="../../d6/d7b/classcontroller_1_1_cell_society_controller.html#a3f78125e5b809d88d3cf7ed20b3756c2" target="_top" xlink:title="controller.CellSocietyController.display\lSplashScreen">
<polygon fill="white" stroke="black" points="1602,-44 1602,-74 1800,-74 1800,-44 1602,-44"/>
<text text-anchor="start" x="1610" y="-62" font-family="Helvetica,sans-Serif" font-size="10.00">controller.CellSocietyController.display</text>
<text text-anchor="middle" x="1701" y="-51" font-family="Helvetica,sans-Serif" font-size="10.00">SplashScreen</text>
</a>
</g>
</g>
<!-- Node7&#45;&gt;Node8 -->
<g id="edge7" class="edge"><title>Node7&#45;&gt;Node8</title>
<path fill="none" stroke="midnightblue" d="M1575.88,-59C1584.38,-59 1593.07,-59 1601.7,-59"/>
<polygon fill="midnightblue" stroke="midnightblue" points="1575.63,-55.5001 1565.63,-59 1575.63,-62.5001 1575.63,-55.5001"/>
</g>
<!-- Node9 -->
<g id="node9" class="node"><title>Node9</title>
<g id="a_node9"><a xlink:href="../../d6/d7b/classcontroller_1_1_cell_society_controller.html#a6a2310de67e415512149c94c9f36e356" target="_top" xlink:title="controller.CellSocietyController.\lCellSocietyController">
<polygon fill="white" stroke="black" points="1836.5,-44 1836.5,-74 2001.5,-74 2001.5,-44 1836.5,-44"/>
<text text-anchor="start" x="1844.5" y="-62" font-family="Helvetica,sans-Serif" font-size="10.00">controller.CellSocietyController.</text>
<text text-anchor="middle" x="1919" y="-51" font-family="Helvetica,sans-Serif" font-size="10.00">CellSocietyController</text>
</a>
</g>
</g>
<!-- Node8&#45;&gt;Node9 -->
<g id="edge8" class="edge"><title>Node8&#45;&gt;Node9</title>
<path fill="none" stroke="midnightblue" d="M1810.38,-59C1819.07,-59 1827.75,-59 1836.2,-59"/>
<polygon fill="midnightblue" stroke="midnightblue" points="1810.2,-55.5001 1800.2,-59 1810.2,-62.5001 1810.2,-55.5001"/>
</g>
<!-- Node10&#45;&gt;Node7 -->
<g id="edge10" class="edge"><title>Node10&#45;&gt;Node7</title>
<path fill="none" stroke="midnightblue" d="M1386.31,-59C1396.39,-59 1406.55,-59 1416.36,-59"/>
<polygon fill="midnightblue" stroke="midnightblue" points="1386.27,-55.5001 1376.27,-59 1386.27,-62.5001 1386.27,-55.5001"/>
</g>
<!-- Node11&#45;&gt;Node5 -->
<g id="edge12" class="edge"><title>Node11&#45;&gt;Node5</title>
<path fill="none" stroke="midnightblue" d="M975.941,-103.044C989.381,-103.285 1002.78,-103.525 1015.34,-103.75"/>
<polygon fill="midnightblue" stroke="midnightblue" points="975.727,-99.5395 965.666,-102.859 975.601,-106.538 975.727,-99.5395"/>
</g>
<!-- Node13 -->
<g id="node13" class="node"><title>Node13</title>
<g id="a_node13"><a xlink:href="../../d6/d7b/classcontroller_1_1_cell_society_controller.html#afbdf9a63e15a2bfa878dcfe5ed3ef6dc" target="_top" xlink:title="controller.CellSocietyController.transition\lToFileLoaderScreen">
<polygon fill="white" stroke="black" points="510,-42 510,-72 720,-72 720,-42 510,-42"/>
<text text-anchor="start" x="518" y="-60" font-family="Helvetica,sans-Serif" font-size="10.00">controller.CellSocietyController.transition</text>
<text text-anchor="middle" x="615" y="-49" font-family="Helvetica,sans-Serif" font-size="10.00">ToFileLoaderScreen</text>
</a>
</g>
</g>
<!-- Node12&#45;&gt;Node13 -->
<g id="edge14" class="edge"><title>Node12&#45;&gt;Node13</title>
<path fill="none" stroke="midnightblue" d="M473.317,-50.2879C485.451,-50.2228 497.762,-50.2416 509.794,-50.3441"/>
<polygon fill="midnightblue" stroke="midnightblue" points="473.15,-46.7889 463.176,-50.3622 473.201,-53.7887 473.15,-46.7889"/>
</g>
<!-- Node13&#45;&gt;Node12 -->
<g id="edge19" class="edge"><title>Node13&#45;&gt;Node12</title>
<path fill="none" stroke="midnightblue" d="M499.632,-63.7223C487.479,-63.7779 475.175,-63.7497 463.176,-63.6378"/>
<polygon fill="midnightblue" stroke="midnightblue" points="499.818,-67.2213 509.794,-63.6559 499.772,-60.2214 499.818,-67.2213"/>
</g>
<!-- Node14 -->
<g id="node14" class="node"><title>Node14</title>
<g id="a_node14"><a xlink:href="../../d3/d48/classview_1_1_top_menu.html#af56bae78812baf114a9ed49ad52694df" target="_top" xlink:title="view.TopMenu.addLoadButton">
<polygon fill="white" stroke="black" points="782,-47.5 782,-66.5 940,-66.5 940,-47.5 782,-47.5"/>
<text text-anchor="middle" x="861" y="-54.5" font-family="Helvetica,sans-Serif" font-size="10.00">view.TopMenu.addLoadButton</text>
</a>
</g>
</g>
<!-- Node13&#45;&gt;Node14 -->
<g id="edge15" class="edge"><title>Node13&#45;&gt;Node14</title>
<path fill="none" stroke="midnightblue" d="M730.368,-57C747.719,-57 765.277,-57 781.631,-57"/>
<polygon fill="midnightblue" stroke="midnightblue" points="730.186,-53.5001 720.186,-57 730.186,-60.5001 730.186,-53.5001"/>
</g>
<!-- Node16 -->
<g id="node16" class="node"><title>Node16</title>
<g id="a_node16"><a xlink:href="../../dd/d02/classview_1_1_splash_screen.html#a652092fc5c5862cee4ff84bf231646ab" target="_top" xlink:title="view.SplashScreen.addLoad\lButton">
<polygon fill="white" stroke="black" points="1011.5,-0 1011.5,-30 1160.5,-30 1160.5,-0 1011.5,-0"/>
<text text-anchor="start" x="1019.5" y="-18" font-family="Helvetica,sans-Serif" font-size="10.00">view.SplashScreen.addLoad</text>
<text text-anchor="middle" x="1086" y="-7" font-family="Helvetica,sans-Serif" font-size="10.00">Button</text>
</a>
</g>
</g>
<!-- Node13&#45;&gt;Node16 -->
<g id="edge17" class="edge"><title>Node13&#45;&gt;Node16</title>
<path fill="none" stroke="midnightblue" d="M730.425,-40.8513C739.071,-39.8208 747.67,-38.8555 756,-38 843.573,-29.0061 944.627,-22.5193 1011.38,-18.7722"/>
<polygon fill="midnightblue" stroke="midnightblue" points="729.768,-37.4053 720.265,-42.0884 730.615,-44.3539 729.768,-37.4053"/>
</g>
<!-- Node15 -->
<g id="node15" class="node"><title>Node15</title>
<g id="a_node15"><a xlink:href="../../d3/d48/classview_1_1_top_menu.html#a4442589b1733d6ad662c92700f27018e" target="_top" xlink:title="view.TopMenu.createTopButtons">
<polygon fill="white" stroke="black" points="1002,-49.5 1002,-68.5 1170,-68.5 1170,-49.5 1002,-49.5"/>
<text text-anchor="middle" x="1086" y="-56.5" font-family="Helvetica,sans-Serif" font-size="10.00">view.TopMenu.createTopButtons</text>
</a>
</g>
</g>
<!-- Node14&#45;&gt;Node15 -->
<g id="edge16" class="edge"><title>Node14&#45;&gt;Node15</title>
<path fill="none" stroke="midnightblue" d="M950.72,-57.7957C967.618,-57.9473 985.246,-58.1053 1001.96,-58.2552"/>
<polygon fill="midnightblue" stroke="midnightblue" points="950.339,-54.2922 940.308,-57.7023 950.276,-61.2919 950.339,-54.2922"/>
</g>
<!-- Node16&#45;&gt;Node7 -->
<g id="edge18" class="edge"><title>Node16&#45;&gt;Node7</title>
<path fill="none" stroke="midnightblue" d="M1171.14,-16.9173C1229.9,-19.1192 1310.04,-23.8478 1380,-34 1405.2,-37.6564 1433.17,-44.0461 1454.6,-49.4502"/>
<polygon fill="midnightblue" stroke="midnightblue" points="1170.91,-13.4069 1160.79,-16.5473 1170.66,-20.4025 1170.91,-13.4069"/>
</g>
</g>
</svg>
