<?xml version="1.0" encoding="UTF-8" standalone="no"?>
<!DOCTYPE svg PUBLIC "-//W3C//DTD SVG 1.1//EN"
 "http://www.w3.org/Graphics/SVG/1.1/DTD/svg11.dtd">
<!-- Generated by graphviz version 2.36.0 (20140111.2315)
 -->
<!-- Title: controller.CellSocietyController.changeSimulationParameters Pages: 1 -->
<!--zoomable 185 -->
<svg id="main" version="1.1" xmlns="http://www.w3.org/2000/svg" xmlns:xlink="http://www.w3.org/1999/xlink" xml:space="preserve" onload="init(evt)">
<style type="text/css"><![CDATA[
.edge:hover path { stroke: red; }
.edge:hover polygon { stroke: red; fill: red; }
]]></style>
<script type="text/javascript"><![CDATA[
var edges = document.getElementsByTagName('g');
if (edges && edges.length) {
  for (var i=0;i<edges.length;i++) {
    if (edges[i].id.substr(0,4)=='edge') {
      edges[i].setAttribute('class','edge');
    }
  }
}
]]></script>
        <defs>
                <circle id="rim" cx="0" cy="0" r="7"/>
                <circle id="rim2" cx="0" cy="0" r="3.5"/>
                <g id="zoomPlus">
                        <use xlink:href="#rim" fill="#404040">
                                <set attributeName="fill" to="#808080" begin="zoomplus.mouseover" end="zoomplus.mouseout"/>
                        </use>
                        <path d="M-4,0h8M0,-4v8" fill="none" stroke="white" stroke-width="1.5" pointer-events="none"/>
                </g>
                <g id="zoomMin">
                        <use xlink:href="#rim" fill="#404040">
                                <set attributeName="fill" to="#808080" begin="zoomminus.mouseover" end="zoomminus.mouseout"/>
                        </use>
                        <path d="M-4,0h8" fill="none" stroke="white" stroke-width="1.5" pointer-events="none"/>
                </g>
                <g id="dirArrow">
                        <path fill="none" stroke="white" stroke-width="1.5" d="M0,-3.0v7 M-2.5,-0.5L0,-3.0L2.5,-0.5"/>
                </g>
               <g id="resetDef">
                       <use xlink:href="#rim2" fill="#404040">
                               <set attributeName="fill" to="#808080" begin="reset.mouseover" end="reset.mouseout"/>
                       </use>
               </g>
        </defs>

<script type="text/javascript">
var viewWidth = 996;
var viewHeight = 185;
var sectionId = 'dynsection-3';
</script>
<script xlink:href="../../svgpan.js"/>
<svg id="graph" class="graph">
<g id="viewport">
<title>controller.CellSocietyController.changeSimulationParameters</title>
<polygon fill="white" stroke="none" points="-4,4 -4,-181 992,-181 992,4 -4,4"/>
<!-- Node1 -->
<g id="node1" class="node"><title>Node1</title>
<polygon fill="#bfbfbf" stroke="black" points="0,-73 0,-103 200,-103 200,-73 0,-73"/>
<text text-anchor="start" x="8" y="-91" font-family="Helvetica,sans-Serif" font-size="10.00">controller.CellSocietyController.change</text>
<text text-anchor="middle" x="100" y="-80" font-family="Helvetica,sans-Serif" font-size="10.00">SimulationParameters</text>
</g>
<!-- Node2 -->
<g id="node2" class="node"><title>Node2</title>
<g id="a_node2"><a xlink:href="../../d4/d94/classview_1_1_side_menu.html#a21930f61c96e9858b9fabb0bdb6910bc" target="_top" xlink:title="view.SideMenu.addOptions\lPanel">
<polygon fill="white" stroke="black" points="236,-73 236,-103 380,-103 380,-73 236,-73"/>
<text text-anchor="start" x="244" y="-91" font-family="Helvetica,sans-Serif" font-size="10.00">view.SideMenu.addOptions</text>
<text text-anchor="middle" x="308" y="-80" font-family="Helvetica,sans-Serif" font-size="10.00">Panel</text>
</a>
</g>
</g>
<!-- Node1&#45;&gt;Node2 -->
<g id="edge1" class="edge"><title>Node1&#45;&gt;Node2</title>
<path fill="none" stroke="midnightblue" d="M210.256,-88C218.915,-88 227.515,-88 235.81,-88"/>
<polygon fill="midnightblue" stroke="midnightblue" points="210.078,-84.5001 200.078,-88 210.078,-91.5001 210.078,-84.5001"/>
</g>
<!-- Node3 -->
<g id="node3" class="node"><title>Node3</title>
<g id="a_node3"><a xlink:href="../../d4/d94/classview_1_1_side_menu.html#aa7edbecc8f707cf46ba943208bdfb6c6" target="_top" xlink:title="view.SideMenu.createOption\lWindow">
<polygon fill="white" stroke="black" points="416,-73 416,-103 568,-103 568,-73 416,-73"/>
<text text-anchor="start" x="424" y="-91" font-family="Helvetica,sans-Serif" font-size="10.00">view.SideMenu.createOption</text>
<text text-anchor="middle" x="492" y="-80" font-family="Helvetica,sans-Serif" font-size="10.00">Window</text>
</a>
</g>
</g>
<!-- Node2&#45;&gt;Node3 -->
<g id="edge2" class="edge"><title>Node2&#45;&gt;Node3</title>
<path fill="none" stroke="midnightblue" d="M390.166,-88C398.762,-88 407.477,-88 415.998,-88"/>
<polygon fill="midnightblue" stroke="midnightblue" points="390.148,-84.5001 380.148,-88 390.148,-91.5001 390.148,-84.5001"/>
</g>
<!-- Node4 -->
<g id="node4" class="node"><title>Node4</title>
<g id="a_node4"><a xlink:href="../../d1/d3e/classview_1_1_simulation_screen.html#a0b0bca3e7baf1004020e0c6bdce57e16" target="_top" xlink:title="view.SimulationScreen.create\lOptionsPanel">
<polygon fill="white" stroke="black" points="604,-73 604,-103 762,-103 762,-73 604,-73"/>
<text text-anchor="start" x="612" y="-91" font-family="Helvetica,sans-Serif" font-size="10.00">view.SimulationScreen.create</text>
<text text-anchor="middle" x="683" y="-80" font-family="Helvetica,sans-Serif" font-size="10.00">OptionsPanel</text>
</a>
</g>
</g>
<!-- Node3&#45;&gt;Node4 -->
<g id="edge3" class="edge"><title>Node3&#45;&gt;Node4</title>
<path fill="none" stroke="midnightblue" d="M578.503,-88C586.97,-88 595.535,-88 603.922,-88"/>
<polygon fill="midnightblue" stroke="midnightblue" points="578.241,-84.5001 568.241,-88 578.241,-91.5001 578.241,-84.5001"/>
</g>
<!-- Node5 -->
<g id="node5" class="node"><title>Node5</title>
<g id="a_node5"><a xlink:href="../../dd/d46/classmodel_1_1simulations_1_1_simulation_fire.html#a0f96ca474d40a8bed78969f4e8ca23da" target="_top" xlink:title="model.simulations.Simulation\lFire.setupParameterControl">
<polygon fill="white" stroke="black" points="814,-147 814,-177 972,-177 972,-147 814,-147"/>
<text text-anchor="start" x="822" y="-165" font-family="Helvetica,sans-Serif" font-size="10.00">model.simulations.Simulation</text>
<text text-anchor="middle" x="893" y="-154" font-family="Helvetica,sans-Serif" font-size="10.00">Fire.setupParameterControl</text>
</a>
</g>
</g>
<!-- Node4&#45;&gt;Node5 -->
<g id="edge4" class="edge"><title>Node4&#45;&gt;Node5</title>
<path fill="none" stroke="midnightblue" d="M725.075,-107.381C746.513,-117.053 773.348,-128.475 798,-137 808.294,-140.56 819.368,-143.913 830.175,-146.937"/>
<polygon fill="midnightblue" stroke="midnightblue" points="726.488,-104.178 715.937,-103.217 723.586,-110.548 726.488,-104.178"/>
</g>
<!-- Node6 -->
<g id="node6" class="node"><title>Node6</title>
<g id="a_node6"><a xlink:href="../../d9/d70/classmodel_1_1simulations_1_1_simulation_predator.html#a4d05983035767a892e5288ac90de6f55" target="_top" xlink:title="model.simulations.Simulation\lPredator.setupParameterControl">
<polygon fill="white" stroke="black" points="807,-98 807,-128 979,-128 979,-98 807,-98"/>
<text text-anchor="start" x="815" y="-116" font-family="Helvetica,sans-Serif" font-size="10.00">model.simulations.Simulation</text>
<text text-anchor="middle" x="893" y="-105" font-family="Helvetica,sans-Serif" font-size="10.00">Predator.setupParameterControl</text>
</a>
</g>
</g>
<!-- Node4&#45;&gt;Node6 -->
<g id="edge5" class="edge"><title>Node4&#45;&gt;Node6</title>
<path fill="none" stroke="midnightblue" d="M772.092,-98.588C783.622,-99.9738 795.419,-101.392 806.898,-102.771"/>
<polygon fill="midnightblue" stroke="midnightblue" points="772.39,-95.0986 762.043,-97.3802 771.554,-102.049 772.39,-95.0986"/>
</g>
<!-- Node7 -->
<g id="node7" class="node"><title>Node7</title>
<g id="a_node7"><a xlink:href="../../da/d76/classmodel_1_1simulations_1_1_simulation_segregation.html#a7278b4d0b458eec0ed47188abd23f773" target="_top" xlink:title="model.simulations.Simulation\lSegregation.setupParameterControl">
<polygon fill="white" stroke="black" points="798,-49 798,-79 988,-79 988,-49 798,-49"/>
<text text-anchor="start" x="806" y="-67" font-family="Helvetica,sans-Serif" font-size="10.00">model.simulations.Simulation</text>
<text text-anchor="middle" x="893" y="-56" font-family="Helvetica,sans-Serif" font-size="10.00">Segregation.setupParameterControl</text>
</a>
</g>
</g>
<!-- Node4&#45;&gt;Node7 -->
<g id="edge6" class="edge"><title>Node4&#45;&gt;Node7</title>
<path fill="none" stroke="midnightblue" d="M772.241,-77.8184C780.671,-76.8457 789.242,-75.8567 797.727,-74.8777"/>
<polygon fill="midnightblue" stroke="midnightblue" points="771.576,-74.3717 762.043,-78.995 772.379,-81.3256 771.576,-74.3717"/>
</g>
<!-- Node8 -->
<g id="node8" class="node"><title>Node8</title>
<g id="a_node8"><a xlink:href="../../d7/dc8/classmodel_1_1simulations_1_1_simulation_sugarscape.html#aae9b3060c4fba2ae8ed7f35354031c91" target="_top" xlink:title="model.simulations.Simulation\lSugarscape.setupParameterControl">
<polygon fill="white" stroke="black" points="799,-0 799,-30 987,-30 987,-0 799,-0"/>
<text text-anchor="start" x="807" y="-18" font-family="Helvetica,sans-Serif" font-size="10.00">model.simulations.Simulation</text>
<text text-anchor="middle" x="893" y="-7" font-family="Helvetica,sans-Serif" font-size="10.00">Sugarscape.setupParameterControl</text>
</a>
</g>
</g>
<!-- Node4&#45;&gt;Node8 -->
<g id="edge7" class="edge"><title>Node4&#45;&gt;Node8</title>
<path fill="none" stroke="midnightblue" d="M725.865,-68.73C747.187,-59.3388 773.681,-48.3089 798,-40 808.387,-36.4512 819.559,-33.0928 830.448,-30.0569"/>
<polygon fill="midnightblue" stroke="midnightblue" points="724.174,-65.6517 716.459,-72.9139 727.019,-72.0475 724.174,-65.6517"/>
</g>
</g>
</svg>
        <g id="navigator" transform="translate(0 0)" fill="#404254">
                <rect fill="#f2f5e9" fill-opacity="0.5" stroke="#606060" stroke-width=".5" x="0" y="0" width="60" height="60"/>
                <use id="zoomplus" xlink:href="#zoomPlus" x="17" y="9" onmousedown="handleZoom(evt,'in')"/>
                <use id="zoomminus" xlink:href="#zoomMin" x="42" y="9" onmousedown="handleZoom(evt,'out')"/>
                <use id="reset" xlink:href="#resetDef" x="30" y="36" onmousedown="handleReset()"/>
                <g id="arrowUp" xlink:href="#dirArrow" transform="translate(30 24)" onmousedown="handlePan(0,-1)">
                  <use xlink:href="#rim" fill="#404040">
                        <set attributeName="fill" to="#808080" begin="arrowUp.mouseover" end="arrowUp.mouseout"/>
                  </use>
                  <path fill="none" stroke="white" stroke-width="1.5" d="M0,-3.0v7 M-2.5,-0.5L0,-3.0L2.5,-0.5"/>
                </g>
                <g id="arrowRight" xlink:href="#dirArrow" transform="rotate(90) translate(36 -43)" onmousedown="handlePan(1,0)">
                  <use xlink:href="#rim" fill="#404040">
                        <set attributeName="fill" to="#808080" begin="arrowRight.mouseover" end="arrowRight.mouseout"/>
                  </use>
                  <path fill="none" stroke="white" stroke-width="1.5" d="M0,-3.0v7 M-2.5,-0.5L0,-3.0L2.5,-0.5"/>
                </g>
                <g id="arrowDown" xlink:href="#dirArrow" transform="rotate(180) translate(-30 -48)" onmousedown="handlePan(0,1)">
                  <use xlink:href="#rim" fill="#404040">
                        <set attributeName="fill" to="#808080" begin="arrowDown.mouseover" end="arrowDown.mouseout"/>
                  </use>
                  <path fill="none" stroke="white" stroke-width="1.5" d="M0,-3.0v7 M-2.5,-0.5L0,-3.0L2.5,-0.5"/>
                </g>
                <g id="arrowLeft" xlink:href="#dirArrow" transform="rotate(270) translate(-36 17)" onmousedown="handlePan(-1,0)">
                  <use xlink:href="#rim" fill="#404040">
                        <set attributeName="fill" to="#808080" begin="arrowLeft.mouseover" end="arrowLeft.mouseout"/>
                  </use>
                  <path fill="none" stroke="white" stroke-width="1.5" d="M0,-3.0v7 M-2.5,-0.5L0,-3.0L2.5,-0.5"/>
                </g>
        </g>
        <svg viewBox="0 0 15 15" width="100%" height="30px" preserveAspectRatio="xMaxYMin meet">
         <g id="arrow_out" transform="scale(0.3 0.3)">
          <a xlink:href="classcontroller_1_1_cell_society_controller_a34f35d20fd1fcdf6ec1b959f71692068_icgraph_org.svg" target="_base">
           <rect id="button" ry="5" rx="5" y="6" x="6" height="38" width="38"
                fill="#f2f5e9" fill-opacity="0.5" stroke="#606060" stroke-width="1.0"/>
           <path id="arrow"
             d="M 11.500037,31.436501 C 11.940474,20.09759 22.043105,11.32322 32.158766,21.979434 L 37.068811,17.246167 C 37.068811,17.246167 37.088388,32 37.088388,32 L 22.160133,31.978069 C 22.160133,31.978069 26.997745,27.140456 26.997745,27.140456 C 18.528582,18.264221 13.291696,25.230495 11.500037,31.436501 z"
             style="fill:#404040;"/>
          </a>
         </g>
        </svg>
</svg>
