<?xml version="1.0" encoding="UTF-8" standalone="no"?>
<!DOCTYPE svg PUBLIC "-//W3C//DTD SVG 1.1//EN"
 "http://www.w3.org/Graphics/SVG/1.1/DTD/svg11.dtd">
<!-- Generated by graphviz version 2.36.0 (20140111.2315)
 -->
<!-- Title: controller.CellSocietyController.CellSocietyController Pages: 1 -->
<!--zoomable 412 -->
<svg id="main" version="1.1" xmlns="http://www.w3.org/2000/svg" xmlns:xlink="http://www.w3.org/1999/xlink" xml:space="preserve" onload="init(evt)">
<style type="text/css"><![CDATA[
.edge:hover path { stroke: red; }
.edge:hover polygon { stroke: red; fill: red; }
]]></style>
<script type="text/javascript"><![CDATA[
var edges = document.getElementsByTagName('g');
if (edges && edges.length) {
  for (var i=0;i<edges.length;i++) {
    if (edges[i].id.substr(0,4)=='edge') {
      edges[i].setAttribute('class','edge');
    }
  }
}
]]></script>
        <defs>
                <circle id="rim" cx="0" cy="0" r="7"/>
                <circle id="rim2" cx="0" cy="0" r="3.5"/>
                <g id="zoomPlus">
                        <use xlink:href="#rim" fill="#404040">
                                <set attributeName="fill" to="#808080" begin="zoomplus.mouseover" end="zoomplus.mouseout"/>
                        </use>
                        <path d="M-4,0h8M0,-4v8" fill="none" stroke="white" stroke-width="1.5" pointer-events="none"/>
                </g>
                <g id="zoomMin">
                        <use xlink:href="#rim" fill="#404040">
                                <set attributeName="fill" to="#808080" begin="zoomminus.mouseover" end="zoomminus.mouseout"/>
                        </use>
                        <path d="M-4,0h8" fill="none" stroke="white" stroke-width="1.5" pointer-events="none"/>
                </g>
                <g id="dirArrow">
                        <path fill="none" stroke="white" stroke-width="1.5" d="M0,-3.0v7 M-2.5,-0.5L0,-3.0L2.5,-0.5"/>
                </g>
               <g id="resetDef">
                       <use xlink:href="#rim2" fill="#404040">
                               <set attributeName="fill" to="#808080" begin="reset.mouseover" end="reset.mouseout"/>
                       </use>
               </g>
        </defs>

<script type="text/javascript">
var viewWidth = 2444;
var viewHeight = 412;
var sectionId = 'dynsection-1';
</script>
<script xlink:href="../../svgpan.js"/>
<svg id="graph" class="graph">
<g id="viewport">
<title>controller.CellSocietyController.CellSocietyController</title>
<polygon fill="white" stroke="none" points="-4,4 -4,-408 2440,-408 2440,4 -4,4"/>
<!-- Node1 -->
<g id="node1" class="node"><title>Node1</title>
<polygon fill="#bfbfbf" stroke="black" points="0.5,-208 0.5,-238 165.5,-238 165.5,-208 0.5,-208"/>
<text text-anchor="start" x="8.5" y="-226" font-family="Helvetica,sans-Serif" font-size="10.00">controller.CellSocietyController.</text>
<text text-anchor="middle" x="83" y="-215" font-family="Helvetica,sans-Serif" font-size="10.00">CellSocietyController</text>
</g>
<!-- Node2 -->
<g id="node2" class="node"><title>Node2</title>
<g id="a_node2"><a xlink:href="../../d6/d7b/classcontroller_1_1_cell_society_controller.html#a3f78125e5b809d88d3cf7ed20b3756c2" target="_top" xlink:title="controller.CellSocietyController.display\lSplashScreen">
<polygon fill="white" stroke="black" points="202,-208 202,-238 400,-238 400,-208 202,-208"/>
<text text-anchor="start" x="210" y="-226" font-family="Helvetica,sans-Serif" font-size="10.00">controller.CellSocietyController.display</text>
<text text-anchor="middle" x="301" y="-215" font-family="Helvetica,sans-Serif" font-size="10.00">SplashScreen</text>
</a>
</g>
</g>
<!-- Node1&#45;&gt;Node2 -->
<g id="edge1" class="edge"><title>Node1&#45;&gt;Node2</title>
<path fill="none" stroke="midnightblue" d="M165.66,-223C174.161,-223 182.894,-223 191.63,-223"/>
<polygon fill="midnightblue" stroke="midnightblue" points="191.873,-226.5 201.873,-223 191.873,-219.5 191.873,-226.5"/>
</g>
<!-- Node3 -->
<g id="node3" class="node"><title>Node3</title>
<g id="a_node3"><a xlink:href="../../dd/d02/classview_1_1_splash_screen.html#a6ff42b7dad4e546981a3266f9d694f5a" target="_top" xlink:title="view.SplashScreen.getNode">
<polygon fill="white" stroke="black" points="436.5,-213.5 436.5,-232.5 585.5,-232.5 585.5,-213.5 436.5,-213.5"/>
<text text-anchor="middle" x="511" y="-220.5" font-family="Helvetica,sans-Serif" font-size="10.00">view.SplashScreen.getNode</text>
</a>
</g>
</g>
<!-- Node2&#45;&gt;Node3 -->
<g id="edge2" class="edge"><title>Node2&#45;&gt;Node3</title>
<path fill="none" stroke="midnightblue" d="M400.214,-223C408.984,-223 417.808,-223 426.438,-223"/>
<polygon fill="midnightblue" stroke="midnightblue" points="426.464,-226.5 436.463,-223 426.463,-219.5 426.464,-226.5"/>
</g>
<!-- Node4 -->
<g id="node4" class="node"><title>Node4</title>
<g id="a_node4"><a xlink:href="../../dd/d02/classview_1_1_splash_screen.html#a0a9ccd223a5668611f7fbbae36ea0796" target="_top" xlink:title="view.SplashScreen.addTitle">
<polygon fill="white" stroke="black" points="636,-235.5 636,-254.5 782,-254.5 782,-235.5 636,-235.5"/>
<text text-anchor="middle" x="709" y="-242.5" font-family="Helvetica,sans-Serif" font-size="10.00">view.SplashScreen.addTitle</text>
</a>
</g>
</g>
<!-- Node3&#45;&gt;Node4 -->
<g id="edge3" class="edge"><title>Node3&#45;&gt;Node4</title>
<path fill="none" stroke="midnightblue" d="M585.541,-231.255C598.698,-232.731 612.483,-234.279 625.864,-235.781"/>
<polygon fill="midnightblue" stroke="midnightblue" points="625.671,-239.281 636,-236.918 626.452,-232.325 625.671,-239.281"/>
</g>
<!-- Node6 -->
<g id="node6" class="node"><title>Node6</title>
<g id="a_node6"><a xlink:href="../../dd/d02/classview_1_1_splash_screen.html#a652092fc5c5862cee4ff84bf231646ab" target="_top" xlink:title="view.SplashScreen.addLoad\lButton">
<polygon fill="white" stroke="black" points="634.5,-274 634.5,-304 783.5,-304 783.5,-274 634.5,-274"/>
<text text-anchor="start" x="642.5" y="-292" font-family="Helvetica,sans-Serif" font-size="10.00">view.SplashScreen.addLoad</text>
<text text-anchor="middle" x="709" y="-281" font-family="Helvetica,sans-Serif" font-size="10.00">Button</text>
</a>
</g>
</g>
<!-- Node3&#45;&gt;Node6 -->
<g id="edge5" class="edge"><title>Node3&#45;&gt;Node6</title>
<path fill="none" stroke="midnightblue" d="M536.283,-232.64C558.451,-241.299 592.206,-254.132 622,-264 629.081,-266.345 636.529,-268.69 643.957,-270.951"/>
<polygon fill="midnightblue" stroke="midnightblue" points="643.094,-274.346 653.678,-273.869 645.106,-267.642 643.094,-274.346"/>
</g>
<!-- Node23 -->
<g id="node23" class="node"><title>Node23</title>
<g id="a_node23"><a xlink:href="../../dd/d02/classview_1_1_splash_screen.html#a17ba24f5ed477a37ea527710e54d65c8" target="_top" xlink:title="view.SplashScreen.addRandom\lButton">
<polygon fill="white" stroke="black" points="626,-137 626,-167 792,-167 792,-137 626,-137"/>
<text text-anchor="start" x="634" y="-155" font-family="Helvetica,sans-Serif" font-size="10.00">view.SplashScreen.addRandom</text>
<text text-anchor="middle" x="709" y="-144" font-family="Helvetica,sans-Serif" font-size="10.00">Button</text>
</a>
</g>
</g>
<!-- Node3&#45;&gt;Node23 -->
<g id="edge24" class="edge"><title>Node3&#45;&gt;Node23</title>
<path fill="none" stroke="midnightblue" d="M532.36,-213.342C554.201,-203.209 590.064,-187.224 622,-176 627.854,-173.943 633.98,-171.942 640.151,-170.03"/>
<polygon fill="midnightblue" stroke="midnightblue" points="641.287,-173.343 649.85,-167.104 639.265,-166.641 641.287,-173.343"/>
</g>
<!-- Node36 -->
<g id="node36" class="node"><title>Node36</title>
<g id="a_node36"><a xlink:href="../../dd/d02/classview_1_1_splash_screen.html#ad94d9edd23f270a5f480fd54a06d72f3" target="_top" xlink:title="view.SplashScreen.addProbablity\lButton">
<polygon fill="white" stroke="black" points="622.5,-186 622.5,-216 795.5,-216 795.5,-186 622.5,-186"/>
<text text-anchor="start" x="630.5" y="-204" font-family="Helvetica,sans-Serif" font-size="10.00">view.SplashScreen.addProbablity</text>
<text text-anchor="middle" x="709" y="-193" font-family="Helvetica,sans-Serif" font-size="10.00">Button</text>
</a>
</g>
</g>
<!-- Node3&#45;&gt;Node36 -->
<g id="edge40" class="edge"><title>Node3&#45;&gt;Node36</title>
<path fill="none" stroke="midnightblue" d="M585.541,-214.745C594.222,-213.771 603.177,-212.766 612.109,-211.763"/>
<polygon fill="midnightblue" stroke="midnightblue" points="612.62,-215.228 622.167,-210.634 611.839,-208.272 612.62,-215.228"/>
</g>
<!-- Node5 -->
<g id="node5" class="node"><title>Node5</title>
<g id="a_node5"><a xlink:href="../../dd/d02/classview_1_1_splash_screen.html#a329982556dc38c022b2b8c10347e34bd" target="_top" xlink:title="view.SplashScreen.formatNode">
<polygon fill="white" stroke="black" points="854,-213.5 854,-232.5 1020,-232.5 1020,-213.5 854,-213.5"/>
<text text-anchor="middle" x="937" y="-220.5" font-family="Helvetica,sans-Serif" font-size="10.00">view.SplashScreen.formatNode</text>
</a>
</g>
</g>
<!-- Node4&#45;&gt;Node5 -->
<g id="edge4" class="edge"><title>Node4&#45;&gt;Node5</title>
<path fill="none" stroke="midnightblue" d="M782.129,-237.979C801.779,-236.066 823.334,-233.967 843.928,-231.963"/>
<polygon fill="midnightblue" stroke="midnightblue" points="844.334,-235.44 853.948,-230.987 843.656,-228.473 844.334,-235.44"/>
</g>
<!-- Node6&#45;&gt;Node5 -->
<g id="edge6" class="edge"><title>Node6&#45;&gt;Node5</title>
<path fill="none" stroke="midnightblue" d="M761.849,-273.946C773.109,-270.671 784.955,-267.223 796,-264 828.805,-254.428 865.921,-243.557 893.691,-235.414"/>
<polygon fill="midnightblue" stroke="midnightblue" points="894.863,-238.718 903.473,-232.546 892.893,-232.001 894.863,-238.718"/>
</g>
<!-- Node7 -->
<g id="node7" class="node"><title>Node7</title>
<g id="a_node7"><a xlink:href="../../d6/d7b/classcontroller_1_1_cell_society_controller.html#afbdf9a63e15a2bfa878dcfe5ed3ef6dc" target="_top" xlink:title="controller.CellSocietyController.transition\lToFileLoaderScreen">
<polygon fill="white" stroke="black" points="832,-280 832,-310 1042,-310 1042,-280 832,-280"/>
<text text-anchor="start" x="840" y="-298" font-family="Helvetica,sans-Serif" font-size="10.00">controller.CellSocietyController.transition</text>
<text text-anchor="middle" x="937" y="-287" font-family="Helvetica,sans-Serif" font-size="10.00">ToFileLoaderScreen</text>
</a>
</g>
</g>
<!-- Node6&#45;&gt;Node7 -->
<g id="edge7" class="edge"><title>Node6&#45;&gt;Node7</title>
<path fill="none" stroke="midnightblue" d="M783.688,-290.956C795.783,-291.277 808.565,-291.617 821.374,-291.957"/>
<polygon fill="midnightblue" stroke="midnightblue" points="821.551,-295.463 831.641,-292.229 821.737,-288.465 821.551,-295.463"/>
</g>
<!-- Node8 -->
<g id="node8" class="node"><title>Node8</title>
<g id="a_node8"><a xlink:href="../../d3/d0a/classview_1_1_file_loader_screen.html#a32abcb410ad28199e0bfcdce0255715b" target="_top" xlink:title="view.FileLoaderScreen.getNode">
<polygon fill="white" stroke="black" points="1100.5,-361.5 1100.5,-380.5 1265.5,-380.5 1265.5,-361.5 1100.5,-361.5"/>
<text text-anchor="middle" x="1183" y="-368.5" font-family="Helvetica,sans-Serif" font-size="10.00">view.FileLoaderScreen.getNode</text>
</a>
</g>
</g>
<!-- Node7&#45;&gt;Node8 -->
<g id="edge8" class="edge"><title>Node7&#45;&gt;Node8</title>
<path fill="none" stroke="midnightblue" d="M969.583,-310.051C997.53,-322.834 1039.71,-340.836 1078,-352 1087.58,-354.793 1097.78,-357.257 1107.91,-359.406"/>
<polygon fill="midnightblue" stroke="midnightblue" points="1107.49,-362.892 1117.99,-361.449 1108.89,-356.032 1107.49,-362.892"/>
</g>
<!-- Node9 -->
<g id="node9" class="node"><title>Node9</title>
<g id="a_node9"><a xlink:href="../../d3/d0a/classview_1_1_file_loader_screen.html#a196dd45848fbdf09ac100c343b6515cd" target="_top" xlink:title="view.FileLoaderScreen.getFile">
<polygon fill="white" stroke="black" points="1105.5,-323.5 1105.5,-342.5 1260.5,-342.5 1260.5,-323.5 1105.5,-323.5"/>
<text text-anchor="middle" x="1183" y="-330.5" font-family="Helvetica,sans-Serif" font-size="10.00">view.FileLoaderScreen.getFile</text>
</a>
</g>
</g>
<!-- Node7&#45;&gt;Node9 -->
<g id="edge9" class="edge"><title>Node7&#45;&gt;Node9</title>
<path fill="none" stroke="midnightblue" d="M1034.44,-310.019C1059.96,-313.994 1087.05,-318.213 1110.96,-321.936"/>
<polygon fill="midnightblue" stroke="midnightblue" points="1110.57,-325.418 1120.99,-323.499 1111.65,-318.502 1110.57,-325.418"/>
</g>
<!-- Node11 -->
<g id="node11" class="node"><title>Node11</title>
<g id="a_node11"><a xlink:href="../../d6/d7b/classcontroller_1_1_cell_society_controller.html#a643c7ac22f2822fa7e492dbf4267ed21" target="_top" xlink:title="controller.CellSocietyController.readXML">
<polygon fill="white" stroke="black" points="1080,-285.5 1080,-304.5 1286,-304.5 1286,-285.5 1080,-285.5"/>
<text text-anchor="middle" x="1183" y="-292.5" font-family="Helvetica,sans-Serif" font-size="10.00">controller.CellSocietyController.readXML</text>
</a>
</g>
</g>
<!-- Node7&#45;&gt;Node11 -->
<g id="edge11" class="edge"><title>Node7&#45;&gt;Node11</title>
<path fill="none" stroke="midnightblue" d="M1042.19,-288.314C1051.22,-288.249 1060.39,-288.233 1069.49,-288.268"/>
<polygon fill="midnightblue" stroke="midnightblue" points="1069.69,-291.769 1079.72,-288.329 1069.74,-284.769 1069.69,-291.769"/>
</g>
<!-- Node10 -->
<g id="node10" class="node"><title>Node10</title>
<g id="a_node10"><a xlink:href="../../d3/d0a/classview_1_1_file_loader_screen.html#a97d7c0b9dc021069c17e7f778398f41e" target="_top" xlink:title="view.FileLoaderScreen.configure\lFileChooser">
<polygon fill="white" stroke="black" points="1345,-373 1345,-403 1513,-403 1513,-373 1345,-373"/>
<text text-anchor="start" x="1353" y="-391" font-family="Helvetica,sans-Serif" font-size="10.00">view.FileLoaderScreen.configure</text>
<text text-anchor="middle" x="1429" y="-380" font-family="Helvetica,sans-Serif" font-size="10.00">FileChooser</text>
</a>
</g>
</g>
<!-- Node9&#45;&gt;Node10 -->
<g id="edge10" class="edge"><title>Node9&#45;&gt;Node10</title>
<path fill="none" stroke="midnightblue" d="M1242.83,-342.521C1257.64,-345.254 1273.47,-348.464 1288,-352 1304.26,-355.954 1307.86,-358.598 1324,-363 1333.34,-365.547 1343.19,-368.093 1352.95,-370.533"/>
<polygon fill="midnightblue" stroke="midnightblue" points="1352.11,-373.931 1362.66,-372.934 1353.79,-367.136 1352.11,-373.931"/>
</g>
<!-- Node11&#45;&gt;Node7 -->
<g id="edge23" class="edge"><title>Node11&#45;&gt;Node7</title>
<path fill="none" stroke="midnightblue" d="M1079.72,-301.671C1070.7,-301.744 1061.54,-301.766 1052.43,-301.738"/>
<polygon fill="midnightblue" stroke="midnightblue" points="1052.2,-298.237 1042.19,-301.686 1052.17,-305.237 1052.2,-298.237"/>
</g>
<!-- Node12 -->
<g id="node12" class="node"><title>Node12</title>
<g id="a_node12"><a xlink:href="../../dc/d47/classcontroller_1_1_x_m_l_parser.html#a841cf5fa54e30325a444ba24fa26c50e" target="_top" xlink:title="controller.XMLParser.getGrid">
<polygon fill="white" stroke="black" points="1353.5,-285.5 1353.5,-304.5 1504.5,-304.5 1504.5,-285.5 1353.5,-285.5"/>
<text text-anchor="middle" x="1429" y="-292.5" font-family="Helvetica,sans-Serif" font-size="10.00">controller.XMLParser.getGrid</text>
</a>
</g>
</g>
<!-- Node11&#45;&gt;Node12 -->
<g id="edge12" class="edge"><title>Node11&#45;&gt;Node12</title>
<path fill="none" stroke="midnightblue" d="M1286.06,-295C1305.13,-295 1324.86,-295 1343.32,-295"/>
<polygon fill="midnightblue" stroke="midnightblue" points="1343.44,-298.5 1353.44,-295 1343.44,-291.5 1343.44,-298.5"/>
</g>
<!-- Node13 -->
<g id="node13" class="node"><title>Node13</title>
<g id="a_node13"><a xlink:href="../../dc/d47/classcontroller_1_1_x_m_l_parser.html#a0ebd2f6df311d0e2f9f0cd7969ecbe73" target="_top" xlink:title="controller.XMLParser.get\lParameters">
<polygon fill="white" stroke="black" points="1363.5,-324 1363.5,-354 1494.5,-354 1494.5,-324 1363.5,-324"/>
<text text-anchor="start" x="1371.5" y="-342" font-family="Helvetica,sans-Serif" font-size="10.00">controller.XMLParser.get</text>
<text text-anchor="middle" x="1429" y="-331" font-family="Helvetica,sans-Serif" font-size="10.00">Parameters</text>
</a>
</g>
</g>
<!-- Node11&#45;&gt;Node13 -->
<g id="edge13" class="edge"><title>Node11&#45;&gt;Node13</title>
<path fill="none" stroke="midnightblue" d="M1236.94,-304.547C1271.04,-310.696 1315.87,-318.779 1353.53,-325.571"/>
<polygon fill="midnightblue" stroke="midnightblue" points="1352.98,-329.028 1363.44,-327.358 1354.22,-322.139 1352.98,-329.028"/>
</g>
<!-- Node14 -->
<g id="node14" class="node"><title>Node14</title>
<g id="a_node14"><a xlink:href="../../d6/d7b/classcontroller_1_1_cell_society_controller.html#a3d913ad3344ac48e887110e2fabb5746" target="_top" xlink:title="controller.CellSocietyController.transition\lToSimulation">
<polygon fill="white" stroke="black" points="1570,-204 1570,-234 1780,-234 1780,-204 1570,-204"/>
<text text-anchor="start" x="1578" y="-222" font-family="Helvetica,sans-Serif" font-size="10.00">controller.CellSocietyController.transition</text>
<text text-anchor="middle" x="1675" y="-211" font-family="Helvetica,sans-Serif" font-size="10.00">ToSimulation</text>
</a>
</g>
</g>
<!-- Node11&#45;&gt;Node14 -->
<g id="edge14" class="edge"><title>Node11&#45;&gt;Node14</title>
<path fill="none" stroke="midnightblue" d="M1245.56,-285.452C1326.2,-272.944 1468.88,-250.815 1567.29,-235.551"/>
<polygon fill="midnightblue" stroke="midnightblue" points="1567.92,-238.995 1577.27,-234.003 1566.85,-232.077 1567.92,-238.995"/>
</g>
<!-- Node15 -->
<g id="node15" class="node"><title>Node15</title>
<g id="a_node15"><a xlink:href="../../d6/d7b/classcontroller_1_1_cell_society_controller.html#af6b4eb647c4e76fef6f27cc61ced4d9a" target="_top" xlink:title="controller.CellSocietyController.initialize\lSimulationScreen">
<polygon fill="white" stroke="black" points="1816.5,-253 1816.5,-283 2019.5,-283 2019.5,-253 1816.5,-253"/>
<text text-anchor="start" x="1824.5" y="-271" font-family="Helvetica,sans-Serif" font-size="10.00">controller.CellSocietyController.initialize</text>
<text text-anchor="middle" x="1918" y="-260" font-family="Helvetica,sans-Serif" font-size="10.00">SimulationScreen</text>
</a>
</g>
</g>
<!-- Node14&#45;&gt;Node15 -->
<g id="edge15" class="edge"><title>Node14&#45;&gt;Node15</title>
<path fill="none" stroke="midnightblue" d="M1749.95,-234.035C1776.32,-239.396 1806.2,-245.473 1833.33,-250.989"/>
<polygon fill="midnightblue" stroke="midnightblue" points="1832.7,-254.431 1843.19,-252.994 1834.09,-247.571 1832.7,-254.431"/>
</g>
<!-- Node19 -->
<g id="node19" class="node"><title>Node19</title>
<g id="a_node19"><a xlink:href="../../d6/d7b/classcontroller_1_1_cell_society_controller.html#a8af25de87ececa5ca913e7b5af486b3f" target="_top" xlink:title="controller.CellSocietyController.initialize\lSimulation">
<polygon fill="white" stroke="black" points="1816.5,-204 1816.5,-234 2019.5,-234 2019.5,-204 1816.5,-204"/>
<text text-anchor="start" x="1824.5" y="-222" font-family="Helvetica,sans-Serif" font-size="10.00">controller.CellSocietyController.initialize</text>
<text text-anchor="middle" x="1918" y="-211" font-family="Helvetica,sans-Serif" font-size="10.00">Simulation</text>
</a>
</g>
</g>
<!-- Node14&#45;&gt;Node19 -->
<g id="edge19" class="edge"><title>Node14&#45;&gt;Node19</title>
<path fill="none" stroke="midnightblue" d="M1780.3,-219C1788.9,-219 1797.61,-219 1806.25,-219"/>
<polygon fill="midnightblue" stroke="midnightblue" points="1806.35,-222.5 1816.35,-219 1806.35,-215.5 1806.35,-222.5"/>
</g>
<!-- Node20 -->
<g id="node20" class="node"><title>Node20</title>
<g id="a_node20"><a xlink:href="../../d6/d7b/classcontroller_1_1_cell_society_controller.html#a7609d9a174ff7d2d00fc27e3574cdb21" target="_top" xlink:title="controller.CellSocietyController.stop\lOrStart">
<polygon fill="white" stroke="black" points="1825,-155 1825,-185 2011,-185 2011,-155 1825,-155"/>
<text text-anchor="start" x="1833" y="-173" font-family="Helvetica,sans-Serif" font-size="10.00">controller.CellSocietyController.stop</text>
<text text-anchor="middle" x="1918" y="-162" font-family="Helvetica,sans-Serif" font-size="10.00">OrStart</text>
</a>
</g>
</g>
<!-- Node14&#45;&gt;Node20 -->
<g id="edge20" class="edge"><title>Node14&#45;&gt;Node20</title>
<path fill="none" stroke="midnightblue" d="M1749.95,-203.965C1776.32,-198.604 1806.2,-192.527 1833.33,-187.011"/>
<polygon fill="midnightblue" stroke="midnightblue" points="1834.09,-190.429 1843.19,-185.006 1832.7,-183.569 1834.09,-190.429"/>
</g>
<!-- Node16 -->
<g id="node16" class="node"><title>Node16</title>
<g id="a_node16"><a xlink:href="../../d1/d3e/classview_1_1_simulation_screen.html#a6c9f5c7e36be620d06e55709bc256d18" target="_top" xlink:title="view.SimulationScreen.init\lSimScreen">
<polygon fill="white" stroke="black" points="2084.5,-285 2084.5,-315 2225.5,-315 2225.5,-285 2084.5,-285"/>
<text text-anchor="start" x="2092.5" y="-303" font-family="Helvetica,sans-Serif" font-size="10.00">view.SimulationScreen.init</text>
<text text-anchor="middle" x="2155" y="-292" font-family="Helvetica,sans-Serif" font-size="10.00">SimScreen</text>
</a>
</g>
</g>
<!-- Node15&#45;&gt;Node16 -->
<g id="edge16" class="edge"><title>Node15&#45;&gt;Node16</title>
<path fill="none" stroke="midnightblue" d="M2019.68,-281.71C2037.91,-284.192 2056.68,-286.748 2074.21,-289.135"/>
<polygon fill="midnightblue" stroke="midnightblue" points="2073.99,-292.637 2084.37,-290.518 2074.93,-285.701 2073.99,-292.637"/>
</g>
<!-- Node18 -->
<g id="node18" class="node"><title>Node18</title>
<g id="a_node18"><a xlink:href="../../d1/d3e/classview_1_1_simulation_screen.html#a482a021910f4b997fb7b798bdc363df4" target="_top" xlink:title="view.SimulationScreen.getNode">
<polygon fill="white" stroke="black" points="2071,-246.5 2071,-265.5 2239,-265.5 2239,-246.5 2071,-246.5"/>
<text text-anchor="middle" x="2155" y="-253.5" font-family="Helvetica,sans-Serif" font-size="10.00">view.SimulationScreen.getNode</text>
</a>
</g>
</g>
<!-- Node15&#45;&gt;Node18 -->
<g id="edge18" class="edge"><title>Node15&#45;&gt;Node18</title>
<path fill="none" stroke="midnightblue" d="M2019.68,-262.859C2033.28,-262.164 2047.19,-261.454 2060.66,-260.767"/>
<polygon fill="midnightblue" stroke="midnightblue" points="2061.05,-264.251 2070.85,-260.246 2060.69,-257.26 2061.05,-264.251"/>
</g>
<!-- Node17 -->
<g id="node17" class="node"><title>Node17</title>
<g id="a_node17"><a xlink:href="../../d1/d3e/classview_1_1_simulation_screen.html#a7144a80861195f360ade7612b479ff3e" target="_top" xlink:title="view.SimulationScreen.add\lButtons">
<polygon fill="white" stroke="black" points="2290.5,-285 2290.5,-315 2435.5,-315 2435.5,-285 2290.5,-285"/>
<text text-anchor="start" x="2298.5" y="-303" font-family="Helvetica,sans-Serif" font-size="10.00">view.SimulationScreen.add</text>
<text text-anchor="middle" x="2363" y="-292" font-family="Helvetica,sans-Serif" font-size="10.00">Buttons</text>
</a>
</g>
</g>
<!-- Node16&#45;&gt;Node17 -->
<g id="edge17" class="edge"><title>Node16&#45;&gt;Node17</title>
<path fill="none" stroke="midnightblue" d="M2225.74,-300C2243.19,-300 2262.07,-300 2280.05,-300"/>
<polygon fill="midnightblue" stroke="midnightblue" points="2280.22,-303.5 2290.22,-300 2280.22,-296.5 2280.22,-303.5"/>
</g>
<!-- Node21 -->
<g id="node21" class="node"><title>Node21</title>
<g id="a_node21"><a xlink:href="../../d6/d7b/classcontroller_1_1_cell_society_controller.html#aec38c45810ee2665fe01832114fbc68d" target="_top" xlink:title="controller.CellSocietyController.restart\lSimulation">
<polygon fill="white" stroke="black" points="2056.5,-185 2056.5,-215 2253.5,-215 2253.5,-185 2056.5,-185"/>
<text text-anchor="start" x="2064.5" y="-203" font-family="Helvetica,sans-Serif" font-size="10.00">controller.CellSocietyController.restart</text>
<text text-anchor="middle" x="2155" y="-192" font-family="Helvetica,sans-Serif" font-size="10.00">Simulation</text>
</a>
</g>
</g>
<!-- Node20&#45;&gt;Node21 -->
<g id="edge21" class="edge"><title>Node20&#45;&gt;Node21</title>
<path fill="none" stroke="midnightblue" d="M2011.2,-181.771C2022.64,-183.231 2034.41,-184.734 2046.06,-186.221"/>
<polygon fill="midnightblue" stroke="midnightblue" points="2045.89,-189.727 2056.25,-187.521 2046.78,-182.783 2045.89,-189.727"/>
</g>
<!-- Node22 -->
<g id="node22" class="node"><title>Node22</title>
<g id="a_node22"><a xlink:href="../../d6/d7b/classcontroller_1_1_cell_society_controller.html#a33e7a77467ceeb880526a1b405b3ee79" target="_top" xlink:title="controller.CellSocietyController.pause\lSimulation">
<polygon fill="white" stroke="black" points="2058,-136 2058,-166 2252,-166 2252,-136 2058,-136"/>
<text text-anchor="start" x="2066" y="-154" font-family="Helvetica,sans-Serif" font-size="10.00">controller.CellSocietyController.pause</text>
<text text-anchor="middle" x="2155" y="-143" font-family="Helvetica,sans-Serif" font-size="10.00">Simulation</text>
</a>
</g>
</g>
<!-- Node20&#45;&gt;Node22 -->
<g id="edge22" class="edge"><title>Node20&#45;&gt;Node22</title>
<path fill="none" stroke="midnightblue" d="M2011.2,-162.545C2023.16,-161.579 2035.48,-160.582 2047.64,-159.599"/>
<polygon fill="midnightblue" stroke="midnightblue" points="2048.12,-163.072 2057.81,-158.777 2047.56,-156.095 2048.12,-163.072"/>
</g>
<!-- Node23&#45;&gt;Node5 -->
<g id="edge25" class="edge"><title>Node23&#45;&gt;Node5</title>
<path fill="none" stroke="midnightblue" d="M765.638,-167.073C775.767,-169.946 786.22,-172.996 796,-176 831.252,-186.828 871.087,-200.326 899.226,-210.075"/>
<polygon fill="midnightblue" stroke="midnightblue" points="898.439,-213.507 909.034,-213.485 900.738,-206.895 898.439,-213.507"/>
</g>
<!-- Node24 -->
<g id="node24" class="node"><title>Node24</title>
<g id="a_node24"><a xlink:href="../../dd/d02/classview_1_1_splash_screen.html#a2f8c52e9a2a790459e51d5d42f16f7da" target="_top" xlink:title="view.SplashScreen.display\lAskInformatio">
<polygon fill="white" stroke="black" points="866.5,-137 866.5,-167 1007.5,-167 1007.5,-137 866.5,-137"/>
<text text-anchor="start" x="874.5" y="-155" font-family="Helvetica,sans-Serif" font-size="10.00">view.SplashScreen.display</text>
<text text-anchor="middle" x="937" y="-144" font-family="Helvetica,sans-Serif" font-size="10.00">AskInformatio</text>
</a>
</g>
</g>
<!-- Node23&#45;&gt;Node24 -->
<g id="edge26" class="edge"><title>Node23&#45;&gt;Node24</title>
<path fill="none" stroke="midnightblue" d="M792.231,-152C813.163,-152 835.621,-152 856.419,-152"/>
<polygon fill="midnightblue" stroke="midnightblue" points="856.482,-155.5 866.482,-152 856.482,-148.5 856.482,-155.5"/>
</g>
<!-- Node25 -->
<g id="node25" class="node"><title>Node25</title>
<g id="a_node25"><a xlink:href="../../dd/d02/classview_1_1_splash_screen.html#ab75deddb521d5727122eec02161acc9d" target="_top" xlink:title="view.SplashScreen.remove\lButtons">
<polygon fill="white" stroke="black" points="1110.5,-36 1110.5,-66 1255.5,-66 1255.5,-36 1110.5,-36"/>
<text text-anchor="start" x="1118.5" y="-54" font-family="Helvetica,sans-Serif" font-size="10.00">view.SplashScreen.remove</text>
<text text-anchor="middle" x="1183" y="-43" font-family="Helvetica,sans-Serif" font-size="10.00">Buttons</text>
</a>
</g>
</g>
<!-- Node24&#45;&gt;Node25 -->
<g id="edge27" class="edge"><title>Node24&#45;&gt;Node25</title>
<path fill="none" stroke="midnightblue" d="M961.364,-136.833C988.443,-119.854 1034.88,-92.556 1078,-76 1085.25,-73.2151 1092.91,-70.6728 1100.65,-68.3681"/>
<polygon fill="midnightblue" stroke="midnightblue" points="1101.81,-71.6769 1110.47,-65.5756 1099.9,-64.9437 1101.81,-71.6769"/>
</g>
<!-- Node26 -->
<g id="node26" class="node"><title>Node26</title>
<g id="a_node26"><a xlink:href="../../dd/d02/classview_1_1_splash_screen.html#ae484c2f05f910335ffacddd236eb4908" target="_top" xlink:title="view.SplashScreen.addDimensionsText">
<polygon fill="white" stroke="black" points="1082.5,-230.5 1082.5,-249.5 1283.5,-249.5 1283.5,-230.5 1082.5,-230.5"/>
<text text-anchor="middle" x="1183" y="-237.5" font-family="Helvetica,sans-Serif" font-size="10.00">view.SplashScreen.addDimensionsText</text>
</a>
</g>
</g>
<!-- Node24&#45;&gt;Node26 -->
<g id="edge28" class="edge"><title>Node24&#45;&gt;Node26</title>
<path fill="none" stroke="midnightblue" d="M968.132,-167.157C1005.83,-186.036 1066.81,-216.28 1078,-220 1087.65,-223.21 1097.99,-225.966 1108.26,-228.316"/>
<polygon fill="midnightblue" stroke="midnightblue" points="1107.56,-231.744 1118.07,-230.445 1109.04,-224.903 1107.56,-231.744"/>
</g>
<!-- Node27 -->
<g id="node27" class="node"><title>Node27</title>
<g id="a_node27"><a xlink:href="../../dd/d02/classview_1_1_splash_screen.html#ae4427d4a548843b069b35328182187fa" target="_top" xlink:title="view.SplashScreen.addSimulation\lNameText">
<polygon fill="white" stroke="black" points="1094.5,-181 1094.5,-211 1271.5,-211 1271.5,-181 1094.5,-181"/>
<text text-anchor="start" x="1102.5" y="-199" font-family="Helvetica,sans-Serif" font-size="10.00">view.SplashScreen.addSimulation</text>
<text text-anchor="middle" x="1183" y="-188" font-family="Helvetica,sans-Serif" font-size="10.00">NameText</text>
</a>
</g>
</g>
<!-- Node24&#45;&gt;Node27 -->
<g id="edge29" class="edge"><title>Node24&#45;&gt;Node27</title>
<path fill="none" stroke="midnightblue" d="M1007.59,-164.55C1032.7,-169.077 1061.46,-174.263 1088.29,-179.101"/>
<polygon fill="midnightblue" stroke="midnightblue" points="1088,-182.606 1098.47,-180.936 1089.25,-175.717 1088,-182.606"/>
</g>
<!-- Node28 -->
<g id="node28" class="node"><title>Node28</title>
<g id="a_node28"><a xlink:href="../../dd/d02/classview_1_1_splash_screen.html#a05478a56856d70fd9508d79ca484fbca" target="_top" xlink:title="view.SplashScreen.addProbabilityText">
<polygon fill="white" stroke="black" points="1086,-85.5 1086,-104.5 1280,-104.5 1280,-85.5 1086,-85.5"/>
<text text-anchor="middle" x="1183" y="-92.5" font-family="Helvetica,sans-Serif" font-size="10.00">view.SplashScreen.addProbabilityText</text>
</a>
</g>
</g>
<!-- Node24&#45;&gt;Node28 -->
<g id="edge30" class="edge"><title>Node24&#45;&gt;Node28</title>
<path fill="none" stroke="midnightblue" d="M1002.43,-136.949C1042.56,-127.573 1093.49,-115.677 1130.85,-106.949"/>
<polygon fill="midnightblue" stroke="midnightblue" points="1132.06,-110.26 1141.01,-104.577 1130.47,-103.443 1132.06,-110.26"/>
</g>
<!-- Node33 -->
<g id="node33" class="node"><title>Node33</title>
<g id="a_node33"><a xlink:href="../../d6/d7b/classcontroller_1_1_cell_society_controller.html#ab65a8810efbc2b92e17ca77cdc591df9" target="_top" xlink:title="controller.CellSocietyController.generate\lRandomGrid">
<polygon fill="white" stroke="black" points="1078.5,-132 1078.5,-162 1287.5,-162 1287.5,-132 1078.5,-132"/>
<text text-anchor="start" x="1086.5" y="-150" font-family="Helvetica,sans-Serif" font-size="10.00">controller.CellSocietyController.generate</text>
<text text-anchor="middle" x="1183" y="-139" font-family="Helvetica,sans-Serif" font-size="10.00">RandomGrid</text>
</a>
</g>
</g>
<!-- Node24&#45;&gt;Node33 -->
<g id="edge36" class="edge"><title>Node24&#45;&gt;Node33</title>
<path fill="none" stroke="midnightblue" d="M1007.59,-150.574C1026.48,-150.187 1047.43,-149.758 1068.07,-149.335"/>
<polygon fill="midnightblue" stroke="midnightblue" points="1068.24,-152.832 1078.17,-149.128 1068.1,-145.833 1068.24,-152.832"/>
</g>
<!-- Node29 -->
<g id="node29" class="node"><title>Node29</title>
<g id="a_node29"><a xlink:href="../../dd/d02/classview_1_1_splash_screen.html#a1e747e968477f14fbd6d6cd4a508e008" target="_top" xlink:title="view.SplashScreen.remove\lAskScreenNodes">
<polygon fill="white" stroke="black" points="1356.5,-73 1356.5,-103 1501.5,-103 1501.5,-73 1356.5,-73"/>
<text text-anchor="start" x="1364.5" y="-91" font-family="Helvetica,sans-Serif" font-size="10.00">view.SplashScreen.remove</text>
<text text-anchor="middle" x="1429" y="-80" font-family="Helvetica,sans-Serif" font-size="10.00">AskScreenNodes</text>
</a>
</g>
</g>
<!-- Node28&#45;&gt;Node29 -->
<g id="edge31" class="edge"><title>Node28&#45;&gt;Node29</title>
<path fill="none" stroke="midnightblue" d="M1280.09,-92.2435C1301.86,-91.6188 1324.79,-90.9609 1345.92,-90.3546"/>
<polygon fill="midnightblue" stroke="midnightblue" points="1346.25,-93.8469 1356.14,-90.0615 1346.04,-86.8498 1346.25,-93.8469"/>
</g>
<!-- Node30 -->
<g id="node30" class="node"><title>Node30</title>
<g id="a_node30"><a xlink:href="../../d6/d7b/classcontroller_1_1_cell_society_controller.html#ada30fdc135cdf08b93065edf15ed3fcc" target="_top" xlink:title="controller.CellSocietyController.generate\lProbabilityRandomGrid">
<polygon fill="white" stroke="black" points="1324.5,-24 1324.5,-54 1533.5,-54 1533.5,-24 1324.5,-24"/>
<text text-anchor="start" x="1332.5" y="-42" font-family="Helvetica,sans-Serif" font-size="10.00">controller.CellSocietyController.generate</text>
<text text-anchor="middle" x="1429" y="-31" font-family="Helvetica,sans-Serif" font-size="10.00">ProbabilityRandomGrid</text>
</a>
</g>
</g>
<!-- Node28&#45;&gt;Node30 -->
<g id="edge32" class="edge"><title>Node28&#45;&gt;Node30</title>
<path fill="none" stroke="midnightblue" d="M1240.71,-85.497C1256.14,-82.5305 1272.79,-78.9786 1288,-75 1304.32,-70.7316 1307.76,-67.568 1324,-63 1332.01,-60.7454 1340.42,-58.5431 1348.83,-56.4441"/>
<polygon fill="midnightblue" stroke="midnightblue" points="1349.8,-59.8095 1358.68,-54.0306 1348.13,-53.0106 1349.8,-59.8095"/>
</g>
<!-- Node30&#45;&gt;Node14 -->
<g id="edge35" class="edge"><title>Node30&#45;&gt;Node14</title>
<path fill="none" stroke="midnightblue" d="M1515.41,-54.0946C1521.9,-56.6178 1528.18,-59.5628 1534,-63 1590.68,-96.4442 1637.14,-160.483 1659.54,-195.204"/>
<polygon fill="midnightblue" stroke="midnightblue" points="1656.65,-197.188 1664.96,-203.767 1662.57,-193.445 1656.65,-197.188"/>
</g>
<!-- Node31 -->
<g id="node31" class="node"><title>Node31</title>
<g id="a_node31"><a xlink:href="../../d3/dc8/classcontroller_1_1_probability_sim_generator.html#a66a18a40b330a1650ff804385ed3abc2" target="_top" xlink:title="controller.ProbabilitySim\lGenerator.getGrid">
<polygon fill="white" stroke="black" points="1609,-0 1609,-30 1741,-30 1741,-0 1609,-0"/>
<text text-anchor="start" x="1617" y="-18" font-family="Helvetica,sans-Serif" font-size="10.00">controller.ProbabilitySim</text>
<text text-anchor="middle" x="1675" y="-7" font-family="Helvetica,sans-Serif" font-size="10.00">Generator.getGrid</text>
</a>
</g>
</g>
<!-- Node30&#45;&gt;Node31 -->
<g id="edge33" class="edge"><title>Node30&#45;&gt;Node31</title>
<path fill="none" stroke="midnightblue" d="M1533.83,-28.787C1555.58,-26.6478 1578.12,-24.4312 1598.59,-22.4171"/>
<polygon fill="midnightblue" stroke="midnightblue" points="1599.17,-25.8772 1608.78,-21.4151 1598.49,-18.9108 1599.17,-25.8772"/>
</g>
<!-- Node32 -->
<g id="node32" class="node"><title>Node32</title>
<g id="a_node32"><a xlink:href="../../d3/dc8/classcontroller_1_1_probability_sim_generator.html#aa5aa2ef09d94ff11c6912b34fafa1d4a" target="_top" xlink:title="controller.ProbabilitySim\lGenerator.getParameters">
<polygon fill="white" stroke="black" points="1605.5,-49 1605.5,-79 1744.5,-79 1744.5,-49 1605.5,-49"/>
<text text-anchor="start" x="1613.5" y="-67" font-family="Helvetica,sans-Serif" font-size="10.00">controller.ProbabilitySim</text>
<text text-anchor="middle" x="1675" y="-56" font-family="Helvetica,sans-Serif" font-size="10.00">Generator.getParameters</text>
</a>
</g>
</g>
<!-- Node30&#45;&gt;Node32 -->
<g id="edge34" class="edge"><title>Node30&#45;&gt;Node32</title>
<path fill="none" stroke="midnightblue" d="M1533.83,-49.6385C1554.38,-51.7435 1575.62,-53.9205 1595.17,-55.9235"/>
<polygon fill="midnightblue" stroke="midnightblue" points="1594.92,-59.4163 1605.23,-56.9538 1595.64,-52.4527 1594.92,-59.4163"/>
</g>
<!-- Node33&#45;&gt;Node14 -->
<g id="edge39" class="edge"><title>Node33&#45;&gt;Node14</title>
<path fill="none" stroke="midnightblue" d="M1265.57,-162.051C1273.32,-164.596 1280.92,-167.557 1288,-171 1306.48,-179.982 1304.82,-192.644 1324,-200 1398.87,-228.71 1489.39,-232.899 1559.62,-230.203"/>
<polygon fill="midnightblue" stroke="midnightblue" points="1559.99,-233.69 1569.83,-229.757 1559.69,-226.697 1559.99,-233.69"/>
</g>
<!-- Node34 -->
<g id="node34" class="node"><title>Node34</title>
<g id="a_node34"><a xlink:href="../../d4/d2d/classcontroller_1_1_random_sim_generator.html#a807ccd4617ee16b3f28aadfa544c42cb" target="_top" xlink:title="controller.RandomSimGenerator.getGrid">
<polygon fill="white" stroke="black" points="1324.5,-171.5 1324.5,-190.5 1533.5,-190.5 1533.5,-171.5 1324.5,-171.5"/>
<text text-anchor="middle" x="1429" y="-178.5" font-family="Helvetica,sans-Serif" font-size="10.00">controller.RandomSimGenerator.getGrid</text>
</a>
</g>
</g>
<!-- Node33&#45;&gt;Node34 -->
<g id="edge37" class="edge"><title>Node33&#45;&gt;Node34</title>
<path fill="none" stroke="midnightblue" d="M1287.83,-161.468C1308.49,-164.347 1329.85,-167.324 1349.49,-170.06"/>
<polygon fill="midnightblue" stroke="midnightblue" points="1349.2,-173.553 1359.59,-171.467 1350.17,-166.62 1349.2,-173.553"/>
</g>
<!-- Node35 -->
<g id="node35" class="node"><title>Node35</title>
<g id="a_node35"><a xlink:href="../../d4/d2d/classcontroller_1_1_random_sim_generator.html#a93fd8f4276dc3a0271fe51b37664f77a" target="_top" xlink:title="controller.RandomSimGenerator.get\lParameters">
<polygon fill="white" stroke="black" points="1334.5,-122 1334.5,-152 1523.5,-152 1523.5,-122 1334.5,-122"/>
<text text-anchor="start" x="1342.5" y="-140" font-family="Helvetica,sans-Serif" font-size="10.00">controller.RandomSimGenerator.get</text>
<text text-anchor="middle" x="1429" y="-129" font-family="Helvetica,sans-Serif" font-size="10.00">Parameters</text>
</a>
</g>
</g>
<!-- Node33&#45;&gt;Node35 -->
<g id="edge38" class="edge"><title>Node33&#45;&gt;Node35</title>
<path fill="none" stroke="midnightblue" d="M1287.83,-142.745C1299.89,-142.25 1312.19,-141.746 1324.25,-141.252"/>
<polygon fill="midnightblue" stroke="midnightblue" points="1324.46,-144.746 1334.31,-140.84 1324.18,-137.752 1324.46,-144.746"/>
</g>
<!-- Node36&#45;&gt;Node5 -->
<g id="edge41" class="edge"><title>Node36&#45;&gt;Node5</title>
<path fill="none" stroke="midnightblue" d="M795.763,-209.349C811.333,-210.864 827.636,-212.451 843.393,-213.985"/>
<polygon fill="midnightblue" stroke="midnightblue" points="843.362,-217.499 853.655,-214.984 844.041,-210.532 843.362,-217.499"/>
</g>
<!-- Node36&#45;&gt;Node24 -->
<g id="edge42" class="edge"><title>Node36&#45;&gt;Node24</title>
<path fill="none" stroke="midnightblue" d="M779.343,-185.965C803.857,-180.651 831.609,-174.633 856.872,-169.156"/>
<polygon fill="midnightblue" stroke="midnightblue" points="857.757,-172.546 866.788,-167.006 856.273,-165.705 857.757,-172.546"/>
</g>
</g>
</svg>
        <g id="navigator" transform="translate(0 0)" fill="#404254">
                <rect fill="#f2f5e9" fill-opacity="0.5" stroke="#606060" stroke-width=".5" x="0" y="0" width="60" height="60"/>
                <use id="zoomplus" xlink:href="#zoomPlus" x="17" y="9" onmousedown="handleZoom(evt,'in')"/>
                <use id="zoomminus" xlink:href="#zoomMin" x="42" y="9" onmousedown="handleZoom(evt,'out')"/>
                <use id="reset" xlink:href="#resetDef" x="30" y="36" onmousedown="handleReset()"/>
                <g id="arrowUp" xlink:href="#dirArrow" transform="translate(30 24)" onmousedown="handlePan(0,-1)">
                  <use xlink:href="#rim" fill="#404040">
                        <set attributeName="fill" to="#808080" begin="arrowUp.mouseover" end="arrowUp.mouseout"/>
                  </use>
                  <path fill="none" stroke="white" stroke-width="1.5" d="M0,-3.0v7 M-2.5,-0.5L0,-3.0L2.5,-0.5"/>
                </g>
                <g id="arrowRight" xlink:href="#dirArrow" transform="rotate(90) translate(36 -43)" onmousedown="handlePan(1,0)">
                  <use xlink:href="#rim" fill="#404040">
                        <set attributeName="fill" to="#808080" begin="arrowRight.mouseover" end="arrowRight.mouseout"/>
                  </use>
                  <path fill="none" stroke="white" stroke-width="1.5" d="M0,-3.0v7 M-2.5,-0.5L0,-3.0L2.5,-0.5"/>
                </g>
                <g id="arrowDown" xlink:href="#dirArrow" transform="rotate(180) translate(-30 -48)" onmousedown="handlePan(0,1)">
                  <use xlink:href="#rim" fill="#404040">
                        <set attributeName="fill" to="#808080" begin="arrowDown.mouseover" end="arrowDown.mouseout"/>
                  </use>
                  <path fill="none" stroke="white" stroke-width="1.5" d="M0,-3.0v7 M-2.5,-0.5L0,-3.0L2.5,-0.5"/>
                </g>
                <g id="arrowLeft" xlink:href="#dirArrow" transform="rotate(270) translate(-36 17)" onmousedown="handlePan(-1,0)">
                  <use xlink:href="#rim" fill="#404040">
                        <set attributeName="fill" to="#808080" begin="arrowLeft.mouseover" end="arrowLeft.mouseout"/>
                  </use>
                  <path fill="none" stroke="white" stroke-width="1.5" d="M0,-3.0v7 M-2.5,-0.5L0,-3.0L2.5,-0.5"/>
                </g>
        </g>
        <svg viewBox="0 0 15 15" width="100%" height="30px" preserveAspectRatio="xMaxYMin meet">
         <g id="arrow_out" transform="scale(0.3 0.3)">
          <a xlink:href="classcontroller_1_1_cell_society_controller_a6a2310de67e415512149c94c9f36e356_cgraph_org.svg" target="_base">
           <rect id="button" ry="5" rx="5" y="6" x="6" height="38" width="38"
                fill="#f2f5e9" fill-opacity="0.5" stroke="#606060" stroke-width="1.0"/>
           <path id="arrow"
             d="M 11.500037,31.436501 C 11.940474,20.09759 22.043105,11.32322 32.158766,21.979434 L 37.068811,17.246167 C 37.068811,17.246167 37.088388,32 37.088388,32 L 22.160133,31.978069 C 22.160133,31.978069 26.997745,27.140456 26.997745,27.140456 C 18.528582,18.264221 13.291696,25.230495 11.500037,31.436501 z"
             style="fill:#404040;"/>
          </a>
         </g>
        </svg>
</svg>
