<?xml version="1.0" encoding="UTF-8" standalone="no"?>
<!DOCTYPE svg PUBLIC "-//W3C//DTD SVG 1.1//EN"
 "http://www.w3.org/Graphics/SVG/1.1/DTD/svg11.dtd">
<!-- Generated by graphviz version 2.36.0 (20140111.2315)
 -->
<!-- Title: controller.CellSocietyController.stopOrStart Pages: 1 -->
<svg width="2232pt" height="203pt"
 viewBox="0.00 0.00 2232.00 203.00" xmlns="http://www.w3.org/2000/svg" xmlns:xlink="http://www.w3.org/1999/xlink">
<g id="graph0" class="graph" transform="scale(1 1) rotate(0) translate(4 199)">
<title>controller.CellSocietyController.stopOrStart</title>
<polygon fill="white" stroke="none" points="-4,4 -4,-199 2228,-199 2228,4 -4,4"/>
<!-- Node1 -->
<g id="node1" class="node"><title>Node1</title>
<polygon fill="#bfbfbf" stroke="black" points="0,-28 0,-58 186,-58 186,-28 0,-28"/>
<text text-anchor="start" x="8" y="-46" font-family="Helvetica,sans-Serif" font-size="10.00">controller.CellSocietyController.stop</text>
<text text-anchor="middle" x="93" y="-35" font-family="Helvetica,sans-Serif" font-size="10.00">OrStart</text>
</g>
<!-- Node2 -->
<g id="node2" class="node"><title>Node2</title>
<g id="a_node2"><a xlink:href="../../d3/d48/classview_1_1_top_menu.html#a40539df58de6aa71c37c6f2a3072b478" target="_top" xlink:title="view.TopMenu.addStopStart\lButton">
<polygon fill="white" stroke="black" points="252.5,-0 252.5,-30 401.5,-30 401.5,-0 252.5,-0"/>
<text text-anchor="start" x="260.5" y="-18" font-family="Helvetica,sans-Serif" font-size="10.00">view.TopMenu.addStopStart</text>
<text text-anchor="middle" x="327" y="-7" font-family="Helvetica,sans-Serif" font-size="10.00">Button</text>
</a>
</g>
</g>
<!-- Node1&#45;&gt;Node2 -->
<g id="edge1" class="edge"><title>Node1&#45;&gt;Node2</title>
<path fill="none" stroke="midnightblue" d="M196.158,-30.6706C215.062,-28.389 234.464,-26.0475 252.316,-23.8929"/>
<polygon fill="midnightblue" stroke="midnightblue" points="195.534,-27.2204 186.026,-31.8934 196.373,-34.1699 195.534,-27.2204"/>
</g>
<!-- Node4 -->
<g id="node4" class="node"><title>Node4</title>
<g id="a_node4"><a xlink:href="../../d6/d7b/classcontroller_1_1_cell_society_controller.html#a3d913ad3344ac48e887110e2fabb5746" target="_top" xlink:title="controller.CellSocietyController.transition\lToSimulation">
<polygon fill="white" stroke="black" points="222,-57 222,-87 432,-87 432,-57 222,-57"/>
<text text-anchor="start" x="230" y="-75" font-family="Helvetica,sans-Serif" font-size="10.00">controller.CellSocietyController.transition</text>
<text text-anchor="middle" x="327" y="-64" font-family="Helvetica,sans-Serif" font-size="10.00">ToSimulation</text>
</a>
</g>
</g>
<!-- Node1&#45;&gt;Node4 -->
<g id="edge3" class="edge"><title>Node1&#45;&gt;Node4</title>
<path fill="none" stroke="midnightblue" d="M196.023,-55.7529C204.589,-56.8237 213.259,-57.9074 221.841,-58.9801"/>
<polygon fill="midnightblue" stroke="midnightblue" points="196.383,-52.2707 186.026,-54.5032 195.514,-59.2166 196.383,-52.2707"/>
</g>
<!-- Node3 -->
<g id="node3" class="node"><title>Node3</title>
<g id="a_node3"><a xlink:href="../../d3/d48/classview_1_1_top_menu.html#a4442589b1733d6ad662c92700f27018e" target="_top" xlink:title="view.TopMenu.createTopButtons">
<polygon fill="white" stroke="black" points="1224,-17.5 1224,-36.5 1392,-36.5 1392,-17.5 1224,-17.5"/>
<text text-anchor="middle" x="1308" y="-24.5" font-family="Helvetica,sans-Serif" font-size="10.00">view.TopMenu.createTopButtons</text>
</a>
</g>
</g>
<!-- Node2&#45;&gt;Node3 -->
<g id="edge2" class="edge"><title>Node2&#45;&gt;Node3</title>
<path fill="none" stroke="midnightblue" d="M411.811,-16.0273C597.056,-18.2979 1039.48,-23.7209 1223.98,-25.9824"/>
<polygon fill="midnightblue" stroke="midnightblue" points="411.626,-12.5249 401.584,-15.902 411.54,-19.5243 411.626,-12.5249"/>
</g>
<!-- Node5 -->
<g id="node5" class="node"><title>Node5</title>
<g id="a_node5"><a xlink:href="../../d6/d7b/classcontroller_1_1_cell_society_controller.html#a41b6379d34f94114f5ada21e3bb8b52e" target="_top" xlink:title="controller.CellSocietyController.generateGrid">
<polygon fill="white" stroke="black" points="468,-115.5 468,-134.5 696,-134.5 696,-115.5 468,-115.5"/>
<text text-anchor="middle" x="582" y="-122.5" font-family="Helvetica,sans-Serif" font-size="10.00">controller.CellSocietyController.generateGrid</text>
</a>
</g>
</g>
<!-- Node4&#45;&gt;Node5 -->
<g id="edge4" class="edge"><title>Node4&#45;&gt;Node5</title>
<path fill="none" stroke="midnightblue" d="M409.682,-89.1112C451.317,-97.8332 500.391,-108.114 535.321,-115.431"/>
<polygon fill="midnightblue" stroke="midnightblue" points="410.328,-85.6707 399.823,-87.0459 408.893,-92.522 410.328,-85.6707"/>
</g>
<!-- Node15 -->
<g id="node15" class="node"><title>Node15</title>
<g id="a_node15"><a xlink:href="../../d6/d7b/classcontroller_1_1_cell_society_controller.html#a643c7ac22f2822fa7e492dbf4267ed21" target="_top" xlink:title="controller.CellSocietyController.readXML">
<polygon fill="white" stroke="black" points="479,-62.5 479,-81.5 685,-81.5 685,-62.5 479,-62.5"/>
<text text-anchor="middle" x="582" y="-69.5" font-family="Helvetica,sans-Serif" font-size="10.00">controller.CellSocietyController.readXML</text>
</a>
</g>
</g>
<!-- Node4&#45;&gt;Node15 -->
<g id="edge16" class="edge"><title>Node4&#45;&gt;Node15</title>
<path fill="none" stroke="midnightblue" d="M442.163,-72C454.316,-72 466.623,-72 478.629,-72"/>
<polygon fill="midnightblue" stroke="midnightblue" points="442,-68.5001 432,-72 442,-75.5001 442,-68.5001"/>
</g>
<!-- Node6 -->
<g id="node6" class="node"><title>Node6</title>
<g id="a_node6"><a xlink:href="../../d6/d7b/classcontroller_1_1_cell_society_controller.html#ada30fdc135cdf08b93065edf15ed3fcc" target="_top" xlink:title="controller.CellSocietyController.generate\lProbabilityRandomGrid">
<polygon fill="white" stroke="black" points="732.5,-110 732.5,-140 941.5,-140 941.5,-110 732.5,-110"/>
<text text-anchor="start" x="740.5" y="-128" font-family="Helvetica,sans-Serif" font-size="10.00">controller.CellSocietyController.generate</text>
<text text-anchor="middle" x="837" y="-117" font-family="Helvetica,sans-Serif" font-size="10.00">ProbabilityRandomGrid</text>
</a>
</g>
</g>
<!-- Node5&#45;&gt;Node6 -->
<g id="edge5" class="edge"><title>Node5&#45;&gt;Node6</title>
<path fill="none" stroke="midnightblue" d="M706.311,-125C714.956,-125 723.622,-125 732.146,-125"/>
<polygon fill="midnightblue" stroke="midnightblue" points="706.18,-121.5 696.18,-125 706.18,-128.5 706.18,-121.5"/>
</g>
<!-- Node14 -->
<g id="node14" class="node"><title>Node14</title>
<g id="a_node14"><a xlink:href="../../d6/d7b/classcontroller_1_1_cell_society_controller.html#ab65a8810efbc2b92e17ca77cdc591df9" target="_top" xlink:title="controller.CellSocietyController.generate\lRandomGrid">
<polygon fill="white" stroke="black" points="978.5,-154 978.5,-184 1187.5,-184 1187.5,-154 978.5,-154"/>
<text text-anchor="start" x="986.5" y="-172" font-family="Helvetica,sans-Serif" font-size="10.00">controller.CellSocietyController.generate</text>
<text text-anchor="middle" x="1083" y="-161" font-family="Helvetica,sans-Serif" font-size="10.00">RandomGrid</text>
</a>
</g>
</g>
<!-- Node5&#45;&gt;Node14 -->
<g id="edge14" class="edge"><title>Node5&#45;&gt;Node14</title>
<path fill="none" stroke="midnightblue" d="M643.902,-136.259C670.817,-140.859 702.898,-145.833 732,-149 814.59,-157.987 908.613,-163.077 978.395,-165.87"/>
<polygon fill="midnightblue" stroke="midnightblue" points="644.306,-132.777 633.856,-134.518 643.111,-139.674 644.306,-132.777"/>
</g>
<!-- Node7 -->
<g id="node7" class="node"><title>Node7</title>
<g id="a_node7"><a xlink:href="../../dd/d02/classview_1_1_splash_screen.html#a05478a56856d70fd9508d79ca484fbca" target="_top" xlink:title="view.SplashScreen.addProbabilityText">
<polygon fill="white" stroke="black" points="986,-115.5 986,-134.5 1180,-134.5 1180,-115.5 986,-115.5"/>
<text text-anchor="middle" x="1083" y="-122.5" font-family="Helvetica,sans-Serif" font-size="10.00">view.SplashScreen.addProbabilityText</text>
</a>
</g>
</g>
<!-- Node6&#45;&gt;Node7 -->
<g id="edge6" class="edge"><title>Node6&#45;&gt;Node7</title>
<path fill="none" stroke="midnightblue" d="M952.093,-125C963.306,-125 974.609,-125 985.619,-125"/>
<polygon fill="midnightblue" stroke="midnightblue" points="951.832,-121.5 941.832,-125 951.832,-128.5 951.832,-121.5"/>
</g>
<!-- Node8 -->
<g id="node8" class="node"><title>Node8</title>
<g id="a_node8"><a xlink:href="../../dd/d02/classview_1_1_splash_screen.html#a2f8c52e9a2a790459e51d5d42f16f7da" target="_top" xlink:title="view.SplashScreen.display\lAskInformatio">
<polygon fill="white" stroke="black" points="1237.5,-137 1237.5,-167 1378.5,-167 1378.5,-137 1237.5,-137"/>
<text text-anchor="start" x="1245.5" y="-155" font-family="Helvetica,sans-Serif" font-size="10.00">view.SplashScreen.display</text>
<text text-anchor="middle" x="1308" y="-144" font-family="Helvetica,sans-Serif" font-size="10.00">AskInformatio</text>
</a>
</g>
</g>
<!-- Node7&#45;&gt;Node8 -->
<g id="edge7" class="edge"><title>Node7&#45;&gt;Node8</title>
<path fill="none" stroke="midnightblue" d="M1172.71,-135.741C1194.17,-138.339 1216.81,-141.08 1237.25,-143.555"/>
<polygon fill="midnightblue" stroke="midnightblue" points="1172.97,-132.247 1162.62,-134.519 1172.13,-139.196 1172.97,-132.247"/>
</g>
<!-- Node9 -->
<g id="node9" class="node"><title>Node9</title>
<g id="a_node9"><a xlink:href="../../dd/d02/classview_1_1_splash_screen.html#ad94d9edd23f270a5f480fd54a06d72f3" target="_top" xlink:title="view.SplashScreen.addProbablity\lButton">
<polygon fill="white" stroke="black" points="1428.5,-116 1428.5,-146 1601.5,-146 1601.5,-116 1428.5,-116"/>
<text text-anchor="start" x="1436.5" y="-134" font-family="Helvetica,sans-Serif" font-size="10.00">view.SplashScreen.addProbablity</text>
<text text-anchor="middle" x="1515" y="-123" font-family="Helvetica,sans-Serif" font-size="10.00">Button</text>
</a>
</g>
</g>
<!-- Node8&#45;&gt;Node9 -->
<g id="edge8" class="edge"><title>Node8&#45;&gt;Node9</title>
<path fill="none" stroke="midnightblue" d="M1388.89,-143.816C1401.77,-142.497 1415.15,-141.126 1428.16,-139.793"/>
<polygon fill="midnightblue" stroke="midnightblue" points="1388.28,-140.36 1378.69,-144.861 1388.99,-147.324 1388.28,-140.36"/>
</g>
<!-- Node13 -->
<g id="node13" class="node"><title>Node13</title>
<g id="a_node13"><a xlink:href="../../dd/d02/classview_1_1_splash_screen.html#a17ba24f5ed477a37ea527710e54d65c8" target="_top" xlink:title="view.SplashScreen.addRandom\lButton">
<polygon fill="white" stroke="black" points="1432,-165 1432,-195 1598,-195 1598,-165 1432,-165"/>
<text text-anchor="start" x="1440" y="-183" font-family="Helvetica,sans-Serif" font-size="10.00">view.SplashScreen.addRandom</text>
<text text-anchor="middle" x="1515" y="-172" font-family="Helvetica,sans-Serif" font-size="10.00">Button</text>
</a>
</g>
</g>
<!-- Node8&#45;&gt;Node13 -->
<g id="edge12" class="edge"><title>Node8&#45;&gt;Node13</title>
<path fill="none" stroke="midnightblue" d="M1388.83,-162.903C1402.92,-164.828 1417.61,-166.834 1431.76,-168.767"/>
<polygon fill="midnightblue" stroke="midnightblue" points="1389.07,-159.404 1378.69,-161.519 1388.12,-166.34 1389.07,-159.404"/>
</g>
<!-- Node10 -->
<g id="node10" class="node"><title>Node10</title>
<g id="a_node10"><a xlink:href="../../dd/d02/classview_1_1_splash_screen.html#a6ff42b7dad4e546981a3266f9d694f5a" target="_top" xlink:title="view.SplashScreen.getNode">
<polygon fill="white" stroke="black" points="1638.5,-121.5 1638.5,-140.5 1787.5,-140.5 1787.5,-121.5 1638.5,-121.5"/>
<text text-anchor="middle" x="1713" y="-128.5" font-family="Helvetica,sans-Serif" font-size="10.00">view.SplashScreen.getNode</text>
</a>
</g>
</g>
<!-- Node9&#45;&gt;Node10 -->
<g id="edge9" class="edge"><title>Node9&#45;&gt;Node10</title>
<path fill="none" stroke="midnightblue" d="M1611.78,-131C1620.75,-131 1629.74,-131 1638.46,-131"/>
<polygon fill="midnightblue" stroke="midnightblue" points="1611.68,-127.5 1601.68,-131 1611.68,-134.5 1611.68,-127.5"/>
</g>
<!-- Node11 -->
<g id="node11" class="node"><title>Node11</title>
<g id="a_node11"><a xlink:href="../../d6/d7b/classcontroller_1_1_cell_society_controller.html#a3f78125e5b809d88d3cf7ed20b3756c2" target="_top" xlink:title="controller.CellSocietyController.display\lSplashScreen">
<polygon fill="white" stroke="black" points="1824,-116 1824,-146 2022,-146 2022,-116 1824,-116"/>
<text text-anchor="start" x="1832" y="-134" font-family="Helvetica,sans-Serif" font-size="10.00">controller.CellSocietyController.display</text>
<text text-anchor="middle" x="1923" y="-123" font-family="Helvetica,sans-Serif" font-size="10.00">SplashScreen</text>
</a>
</g>
</g>
<!-- Node10&#45;&gt;Node11 -->
<g id="edge10" class="edge"><title>Node10&#45;&gt;Node11</title>
<path fill="none" stroke="midnightblue" d="M1797.88,-131C1806.38,-131 1815.07,-131 1823.7,-131"/>
<polygon fill="midnightblue" stroke="midnightblue" points="1797.63,-127.5 1787.63,-131 1797.63,-134.5 1797.63,-127.5"/>
</g>
<!-- Node12 -->
<g id="node12" class="node"><title>Node12</title>
<g id="a_node12"><a xlink:href="../../d6/d7b/classcontroller_1_1_cell_society_controller.html#a6a2310de67e415512149c94c9f36e356" target="_top" xlink:title="controller.CellSocietyController.\lCellSocietyController">
<polygon fill="white" stroke="black" points="2058.5,-116 2058.5,-146 2223.5,-146 2223.5,-116 2058.5,-116"/>
<text text-anchor="start" x="2066.5" y="-134" font-family="Helvetica,sans-Serif" font-size="10.00">controller.CellSocietyController.</text>
<text text-anchor="middle" x="2141" y="-123" font-family="Helvetica,sans-Serif" font-size="10.00">CellSocietyController</text>
</a>
</g>
</g>
<!-- Node11&#45;&gt;Node12 -->
<g id="edge11" class="edge"><title>Node11&#45;&gt;Node12</title>
<path fill="none" stroke="midnightblue" d="M2032.38,-131C2041.07,-131 2049.75,-131 2058.2,-131"/>
<polygon fill="midnightblue" stroke="midnightblue" points="2032.2,-127.5 2022.2,-131 2032.2,-134.5 2032.2,-127.5"/>
</g>
<!-- Node13&#45;&gt;Node10 -->
<g id="edge13" class="edge"><title>Node13&#45;&gt;Node10</title>
<path fill="none" stroke="midnightblue" d="M1586.02,-162.495C1615.63,-155.093 1648.95,-146.762 1673.89,-140.528"/>
<polygon fill="midnightblue" stroke="midnightblue" points="1584.99,-159.144 1576.14,-164.965 1586.69,-165.935 1584.99,-159.144"/>
</g>
<!-- Node14&#45;&gt;Node8 -->
<g id="edge15" class="edge"><title>Node14&#45;&gt;Node8</title>
<path fill="none" stroke="midnightblue" d="M1197.94,-160.314C1211.38,-159.289 1224.78,-158.268 1237.34,-157.31"/>
<polygon fill="midnightblue" stroke="midnightblue" points="1197.37,-156.847 1187.67,-161.097 1197.9,-163.827 1197.37,-156.847"/>
</g>
<!-- Node16 -->
<g id="node16" class="node"><title>Node16</title>
<g id="a_node16"><a xlink:href="../../d6/d7b/classcontroller_1_1_cell_society_controller.html#afbdf9a63e15a2bfa878dcfe5ed3ef6dc" target="_top" xlink:title="controller.CellSocietyController.transition\lToFileLoaderScreen">
<polygon fill="white" stroke="black" points="732,-57 732,-87 942,-87 942,-57 732,-57"/>
<text text-anchor="start" x="740" y="-75" font-family="Helvetica,sans-Serif" font-size="10.00">controller.CellSocietyController.transition</text>
<text text-anchor="middle" x="837" y="-64" font-family="Helvetica,sans-Serif" font-size="10.00">ToFileLoaderScreen</text>
</a>
</g>
</g>
<!-- Node15&#45;&gt;Node16 -->
<g id="edge17" class="edge"><title>Node15&#45;&gt;Node16</title>
<path fill="none" stroke="midnightblue" d="M695.317,-65.2879C707.451,-65.2228 719.762,-65.2416 731.794,-65.3441"/>
<polygon fill="midnightblue" stroke="midnightblue" points="695.15,-61.7889 685.176,-65.3622 695.201,-68.7887 695.15,-61.7889"/>
</g>
<!-- Node16&#45;&gt;Node15 -->
<g id="edge18" class="edge"><title>Node16&#45;&gt;Node15</title>
<path fill="none" stroke="midnightblue" d="M721.632,-78.7223C709.479,-78.7779 697.175,-78.7497 685.176,-78.6378"/>
<polygon fill="midnightblue" stroke="midnightblue" points="721.818,-82.2213 731.794,-78.6559 721.772,-75.2214 721.818,-82.2213"/>
</g>
<!-- Node17 -->
<g id="node17" class="node"><title>Node17</title>
<g id="a_node17"><a xlink:href="../../dd/d02/classview_1_1_splash_screen.html#a652092fc5c5862cee4ff84bf231646ab" target="_top" xlink:title="view.SplashScreen.addLoad\lButton">
<polygon fill="white" stroke="black" points="1233.5,-72 1233.5,-102 1382.5,-102 1382.5,-72 1233.5,-72"/>
<text text-anchor="start" x="1241.5" y="-90" font-family="Helvetica,sans-Serif" font-size="10.00">view.SplashScreen.addLoad</text>
<text text-anchor="middle" x="1308" y="-79" font-family="Helvetica,sans-Serif" font-size="10.00">Button</text>
</a>
</g>
</g>
<!-- Node16&#45;&gt;Node17 -->
<g id="edge19" class="edge"><title>Node16&#45;&gt;Node17</title>
<path fill="none" stroke="midnightblue" d="M952.338,-75.6569C1039.89,-78.4571 1158.07,-82.2368 1233.42,-84.6468"/>
<polygon fill="midnightblue" stroke="midnightblue" points="952.193,-72.1505 942.086,-75.329 951.969,-79.147 952.193,-72.1505"/>
</g>
<!-- Node18 -->
<g id="node18" class="node"><title>Node18</title>
<g id="a_node18"><a xlink:href="../../d3/d48/classview_1_1_top_menu.html#af56bae78812baf114a9ed49ad52694df" target="_top" xlink:title="view.TopMenu.addLoadButton">
<polygon fill="white" stroke="black" points="1004,-39.5 1004,-58.5 1162,-58.5 1162,-39.5 1004,-39.5"/>
<text text-anchor="middle" x="1083" y="-46.5" font-family="Helvetica,sans-Serif" font-size="10.00">view.TopMenu.addLoadButton</text>
</a>
</g>
</g>
<!-- Node16&#45;&gt;Node18 -->
<g id="edge21" class="edge"><title>Node16&#45;&gt;Node18</title>
<path fill="none" stroke="midnightblue" d="M952.368,-61.2195C969.719,-59.5838 987.277,-57.9288 1003.63,-56.3872"/>
<polygon fill="midnightblue" stroke="midnightblue" points="951.813,-57.7561 942.186,-62.1792 952.47,-64.7252 951.813,-57.7561"/>
</g>
<!-- Node17&#45;&gt;Node10 -->
<g id="edge20" class="edge"><title>Node17&#45;&gt;Node10</title>
<path fill="none" stroke="midnightblue" d="M1393.14,-88.9173C1451.9,-91.1192 1532.04,-95.8478 1602,-106 1627.2,-109.656 1655.17,-116.046 1676.6,-121.45"/>
<polygon fill="midnightblue" stroke="midnightblue" points="1392.91,-85.4069 1382.79,-88.5473 1392.66,-92.4025 1392.91,-85.4069"/>
</g>
<!-- Node18&#45;&gt;Node3 -->
<g id="edge22" class="edge"><title>Node18&#45;&gt;Node3</title>
<path fill="none" stroke="midnightblue" d="M1172.72,-40.2473C1189.62,-38.5802 1207.25,-36.8412 1223.96,-35.1924"/>
<polygon fill="midnightblue" stroke="midnightblue" points="1171.92,-36.8096 1162.31,-41.2746 1172.6,-43.7758 1171.92,-36.8096"/>
</g>
</g>
</svg>
