<?xml version="1.0" encoding="UTF-8" standalone="no"?>
<!DOCTYPE svg PUBLIC "-//W3C//DTD SVG 1.1//EN"
 "http://www.w3.org/Graphics/SVG/1.1/DTD/svg11.dtd">
<!-- Generated by graphviz version 2.36.0 (20140111.2315)
 -->
<!-- Title: controller.CellSocietyController.transitionToFileLoaderScreen Pages: 1 -->
<svg width="1100pt" height="116pt"
 viewBox="0.00 0.00 1100.00 116.00" xmlns="http://www.w3.org/2000/svg" xmlns:xlink="http://www.w3.org/1999/xlink">
<g id="graph0" class="graph" transform="scale(1 1) rotate(0) translate(4 112)">
<title>controller.CellSocietyController.transitionToFileLoaderScreen</title>
<polygon fill="white" stroke="none" points="-4,4 -4,-112 1096,-112 1096,4 -4,4"/>
<!-- Node1 -->
<g id="node1" class="node"><title>Node1</title>
<polygon fill="#bfbfbf" stroke="black" points="0,-17 0,-47 210,-47 210,-17 0,-17"/>
<text text-anchor="start" x="8" y="-35" font-family="Helvetica,sans-Serif" font-size="10.00">controller.CellSocietyController.transition</text>
<text text-anchor="middle" x="105" y="-24" font-family="Helvetica,sans-Serif" font-size="10.00">ToFileLoaderScreen</text>
</g>
<!-- Node2 -->
<g id="node2" class="node"><title>Node2</title>
<g id="a_node2"><a xlink:href="../../d3/d48/classview_1_1_top_menu.html#af56bae78812baf114a9ed49ad52694df" target="_top" xlink:title="view.TopMenu.addLoadButton">
<polygon fill="white" stroke="black" points="270,-88.5 270,-107.5 428,-107.5 428,-88.5 270,-88.5"/>
<text text-anchor="middle" x="349" y="-95.5" font-family="Helvetica,sans-Serif" font-size="10.00">view.TopMenu.addLoadButton</text>
</a>
</g>
</g>
<!-- Node1&#45;&gt;Node2 -->
<g id="edge1" class="edge"><title>Node1&#45;&gt;Node2</title>
<path fill="none" stroke="midnightblue" d="M157.015,-50.4486C183.355,-59.5425 216.149,-70.2014 246,-78 261.103,-81.9456 277.644,-85.5082 292.929,-88.4962"/>
<polygon fill="midnightblue" stroke="midnightblue" points="157.85,-47.0334 147.255,-47.0492 155.547,-53.6438 157.85,-47.0334"/>
</g>
<!-- Node4 -->
<g id="node4" class="node"><title>Node4</title>
<g id="a_node4"><a xlink:href="../../dd/d02/classview_1_1_splash_screen.html#a652092fc5c5862cee4ff84bf231646ab" target="_top" xlink:title="view.SplashScreen.addLoad\lButton">
<polygon fill="white" stroke="black" points="274.5,-39 274.5,-69 423.5,-69 423.5,-39 274.5,-39"/>
<text text-anchor="start" x="282.5" y="-57" font-family="Helvetica,sans-Serif" font-size="10.00">view.SplashScreen.addLoad</text>
<text text-anchor="middle" x="349" y="-46" font-family="Helvetica,sans-Serif" font-size="10.00">Button</text>
</a>
</g>
</g>
<!-- Node1&#45;&gt;Node4 -->
<g id="edge3" class="edge"><title>Node1&#45;&gt;Node4</title>
<path fill="none" stroke="midnightblue" d="M220.226,-42.3842C238.629,-44.0572 257.242,-45.7493 274.355,-47.305"/>
<polygon fill="midnightblue" stroke="midnightblue" points="220.31,-38.8775 210.034,-41.4577 219.676,-45.8487 220.31,-38.8775"/>
</g>
<!-- Node8 -->
<g id="node8" class="node"><title>Node8</title>
<g id="a_node8"><a xlink:href="../../d6/d7b/classcontroller_1_1_cell_society_controller.html#a643c7ac22f2822fa7e492dbf4267ed21" target="_top" xlink:title="controller.CellSocietyController.readXML">
<polygon fill="white" stroke="black" points="246,-0.5 246,-19.5 452,-19.5 452,-0.5 246,-0.5"/>
<text text-anchor="middle" x="349" y="-7.5" font-family="Helvetica,sans-Serif" font-size="10.00">controller.CellSocietyController.readXML</text>
</a>
</g>
</g>
<!-- Node1&#45;&gt;Node8 -->
<g id="edge7" class="edge"><title>Node1&#45;&gt;Node8</title>
<path fill="none" stroke="midnightblue" d="M209.011,-15.9521C221.165,-14.7564 233.566,-13.6309 245.71,-12.6213"/>
<polygon fill="midnightblue" stroke="midnightblue" points="208.471,-12.4887 198.871,-16.9719 209.172,-19.4535 208.471,-12.4887"/>
</g>
<!-- Node3 -->
<g id="node3" class="node"><title>Node3</title>
<g id="a_node3"><a xlink:href="../../d3/d48/classview_1_1_top_menu.html#a4442589b1733d6ad662c92700f27018e" target="_top" xlink:title="view.TopMenu.createTopButtons">
<polygon fill="white" stroke="black" points="488,-88.5 488,-107.5 656,-107.5 656,-88.5 488,-88.5"/>
<text text-anchor="middle" x="572" y="-95.5" font-family="Helvetica,sans-Serif" font-size="10.00">view.TopMenu.createTopButtons</text>
</a>
</g>
</g>
<!-- Node2&#45;&gt;Node3 -->
<g id="edge2" class="edge"><title>Node2&#45;&gt;Node3</title>
<path fill="none" stroke="midnightblue" d="M438.265,-98C454.546,-98 471.5,-98 487.631,-98"/>
<polygon fill="midnightblue" stroke="midnightblue" points="438.227,-94.5001 428.227,-98 438.227,-101.5 438.227,-94.5001"/>
</g>
<!-- Node5 -->
<g id="node5" class="node"><title>Node5</title>
<g id="a_node5"><a xlink:href="../../dd/d02/classview_1_1_splash_screen.html#a6ff42b7dad4e546981a3266f9d694f5a" target="_top" xlink:title="view.SplashScreen.getNode">
<polygon fill="white" stroke="black" points="497.5,-44.5 497.5,-63.5 646.5,-63.5 646.5,-44.5 497.5,-44.5"/>
<text text-anchor="middle" x="572" y="-51.5" font-family="Helvetica,sans-Serif" font-size="10.00">view.SplashScreen.getNode</text>
</a>
</g>
</g>
<!-- Node4&#45;&gt;Node5 -->
<g id="edge4" class="edge"><title>Node4&#45;&gt;Node5</title>
<path fill="none" stroke="midnightblue" d="M433.74,-54C454.667,-54 476.957,-54 497.355,-54"/>
<polygon fill="midnightblue" stroke="midnightblue" points="433.59,-50.5001 423.59,-54 433.59,-57.5001 433.59,-50.5001"/>
</g>
<!-- Node6 -->
<g id="node6" class="node"><title>Node6</title>
<g id="a_node6"><a xlink:href="../../d6/d7b/classcontroller_1_1_cell_society_controller.html#a3f78125e5b809d88d3cf7ed20b3756c2" target="_top" xlink:title="controller.CellSocietyController.display\lSplashScreen">
<polygon fill="white" stroke="black" points="692,-39 692,-69 890,-69 890,-39 692,-39"/>
<text text-anchor="start" x="700" y="-57" font-family="Helvetica,sans-Serif" font-size="10.00">controller.CellSocietyController.display</text>
<text text-anchor="middle" x="791" y="-46" font-family="Helvetica,sans-Serif" font-size="10.00">SplashScreen</text>
</a>
</g>
</g>
<!-- Node5&#45;&gt;Node6 -->
<g id="edge5" class="edge"><title>Node5&#45;&gt;Node6</title>
<path fill="none" stroke="midnightblue" d="M657.1,-54C668.482,-54 680.242,-54 691.843,-54"/>
<polygon fill="midnightblue" stroke="midnightblue" points="656.769,-50.5001 646.769,-54 656.769,-57.5001 656.769,-50.5001"/>
</g>
<!-- Node7 -->
<g id="node7" class="node"><title>Node7</title>
<g id="a_node7"><a xlink:href="../../d6/d7b/classcontroller_1_1_cell_society_controller.html#a6a2310de67e415512149c94c9f36e356" target="_top" xlink:title="controller.CellSocietyController.\lCellSocietyController">
<polygon fill="white" stroke="black" points="926.5,-39 926.5,-69 1091.5,-69 1091.5,-39 926.5,-39"/>
<text text-anchor="start" x="934.5" y="-57" font-family="Helvetica,sans-Serif" font-size="10.00">controller.CellSocietyController.</text>
<text text-anchor="middle" x="1009" y="-46" font-family="Helvetica,sans-Serif" font-size="10.00">CellSocietyController</text>
</a>
</g>
</g>
<!-- Node6&#45;&gt;Node7 -->
<g id="edge6" class="edge"><title>Node6&#45;&gt;Node7</title>
<path fill="none" stroke="midnightblue" d="M900.384,-54C909.067,-54 917.746,-54 926.198,-54"/>
<polygon fill="midnightblue" stroke="midnightblue" points="900.203,-50.5001 890.203,-54 900.203,-57.5001 900.203,-50.5001"/>
</g>
<!-- Node8&#45;&gt;Node1 -->
<g id="edge8" class="edge"><title>Node8&#45;&gt;Node1</title>
<path fill="none" stroke="midnightblue" d="M292.519,-20.8233C268.022,-23.8573 238.394,-26.8544 210.034,-29.233"/>
<polygon fill="midnightblue" stroke="midnightblue" points="293.211,-24.2635 302.686,-19.5225 292.322,-17.3201 293.211,-24.2635"/>
</g>
</g>
</svg>
