<?xml version="1.0" encoding="UTF-8" standalone="no"?>
<!DOCTYPE svg PUBLIC "-//W3C//DTD SVG 1.1//EN"
 "http://www.w3.org/Graphics/SVG/1.1/DTD/svg11.dtd">
<!-- Generated by graphviz version 2.36.0 (20140111.2315)
 -->
<!-- Title: controller.CellSocietyController.transitionToSimulation Pages: 1 -->
<svg width="1736pt" height="173pt"
 viewBox="0.00 0.00 1736.00 173.00" xmlns="http://www.w3.org/2000/svg" xmlns:xlink="http://www.w3.org/1999/xlink">
<g id="graph0" class="graph" transform="scale(1 1) rotate(0) translate(4 169)">
<title>controller.CellSocietyController.transitionToSimulation</title>
<polygon fill="white" stroke="none" points="-4,4 -4,-169 1732,-169 1732,4 -4,4"/>
<!-- Node1 -->
<g id="node1" class="node"><title>Node1</title>
<polygon fill="#bfbfbf" stroke="black" points="0,-68 0,-98 210,-98 210,-68 0,-68"/>
<text text-anchor="start" x="8" y="-86" font-family="Helvetica,sans-Serif" font-size="10.00">controller.CellSocietyController.transition</text>
<text text-anchor="middle" x="105" y="-75" font-family="Helvetica,sans-Serif" font-size="10.00">ToSimulation</text>
</g>
<!-- Node2 -->
<g id="node2" class="node"><title>Node2</title>
<g id="a_node2"><a xlink:href="../../d6/d7b/classcontroller_1_1_cell_society_controller.html#ada30fdc135cdf08b93065edf15ed3fcc" target="_top" xlink:title="controller.CellSocietyController.generate\lProbabilityRandomGrid">
<polygon fill="white" stroke="black" points="246.5,-112 246.5,-142 455.5,-142 455.5,-112 246.5,-112"/>
<text text-anchor="start" x="254.5" y="-130" font-family="Helvetica,sans-Serif" font-size="10.00">controller.CellSocietyController.generate</text>
<text text-anchor="middle" x="351" y="-119" font-family="Helvetica,sans-Serif" font-size="10.00">ProbabilityRandomGrid</text>
</a>
</g>
</g>
<!-- Node1&#45;&gt;Node2 -->
<g id="edge1" class="edge"><title>Node1&#45;&gt;Node2</title>
<path fill="none" stroke="midnightblue" d="M199.361,-99.8357C221.514,-103.83 245.001,-108.066 266.673,-111.974"/>
<polygon fill="midnightblue" stroke="midnightblue" points="199.751,-96.3495 189.289,-98.0192 198.509,-103.238 199.751,-96.3495"/>
</g>
<!-- Node10 -->
<g id="node10" class="node"><title>Node10</title>
<g id="a_node10"><a xlink:href="../../d6/d7b/classcontroller_1_1_cell_society_controller.html#ab65a8810efbc2b92e17ca77cdc591df9" target="_top" xlink:title="controller.CellSocietyController.generate\lRandomGrid">
<polygon fill="white" stroke="black" points="492.5,-68 492.5,-98 701.5,-98 701.5,-68 492.5,-68"/>
<text text-anchor="start" x="500.5" y="-86" font-family="Helvetica,sans-Serif" font-size="10.00">controller.CellSocietyController.generate</text>
<text text-anchor="middle" x="597" y="-75" font-family="Helvetica,sans-Serif" font-size="10.00">RandomGrid</text>
</a>
</g>
</g>
<!-- Node1&#45;&gt;Node10 -->
<g id="edge10" class="edge"><title>Node1&#45;&gt;Node10</title>
<path fill="none" stroke="midnightblue" d="M220.36,-83C302.624,-83 412.66,-83 492.36,-83"/>
<polygon fill="midnightblue" stroke="midnightblue" points="220.216,-79.5001 210.216,-83 220.216,-86.5001 220.216,-79.5001"/>
</g>
<!-- Node11 -->
<g id="node11" class="node"><title>Node11</title>
<g id="a_node11"><a xlink:href="../../d6/d7b/classcontroller_1_1_cell_society_controller.html#a643c7ac22f2822fa7e492dbf4267ed21" target="_top" xlink:title="controller.CellSocietyController.readXML">
<polygon fill="white" stroke="black" points="248,-24.5 248,-43.5 454,-43.5 454,-24.5 248,-24.5"/>
<text text-anchor="middle" x="351" y="-31.5" font-family="Helvetica,sans-Serif" font-size="10.00">controller.CellSocietyController.readXML</text>
</a>
</g>
</g>
<!-- Node1&#45;&gt;Node11 -->
<g id="edge12" class="edge"><title>Node1&#45;&gt;Node11</title>
<path fill="none" stroke="midnightblue" d="M190.77,-65.9766C228.216,-58.4567 270.837,-49.8975 302.555,-43.528"/>
<polygon fill="midnightblue" stroke="midnightblue" points="189.981,-62.5649 180.866,-67.9654 191.36,-69.4279 189.981,-62.5649"/>
</g>
<!-- Node3 -->
<g id="node3" class="node"><title>Node3</title>
<g id="a_node3"><a xlink:href="../../dd/d02/classview_1_1_splash_screen.html#a05478a56856d70fd9508d79ca484fbca" target="_top" xlink:title="view.SplashScreen.addProbabilityText">
<polygon fill="white" stroke="black" points="500,-117.5 500,-136.5 694,-136.5 694,-117.5 500,-117.5"/>
<text text-anchor="middle" x="597" y="-124.5" font-family="Helvetica,sans-Serif" font-size="10.00">view.SplashScreen.addProbabilityText</text>
</a>
</g>
</g>
<!-- Node2&#45;&gt;Node3 -->
<g id="edge2" class="edge"><title>Node2&#45;&gt;Node3</title>
<path fill="none" stroke="midnightblue" d="M466.093,-127C477.306,-127 488.609,-127 499.619,-127"/>
<polygon fill="midnightblue" stroke="midnightblue" points="465.832,-123.5 455.832,-127 465.832,-130.5 465.832,-123.5"/>
</g>
<!-- Node4 -->
<g id="node4" class="node"><title>Node4</title>
<g id="a_node4"><a xlink:href="../../dd/d02/classview_1_1_splash_screen.html#a2f8c52e9a2a790459e51d5d42f16f7da" target="_top" xlink:title="view.SplashScreen.display\lAskInformatio">
<polygon fill="white" stroke="black" points="746.5,-100 746.5,-130 887.5,-130 887.5,-100 746.5,-100"/>
<text text-anchor="start" x="754.5" y="-118" font-family="Helvetica,sans-Serif" font-size="10.00">view.SplashScreen.display</text>
<text text-anchor="middle" x="817" y="-107" font-family="Helvetica,sans-Serif" font-size="10.00">AskInformatio</text>
</a>
</g>
</g>
<!-- Node3&#45;&gt;Node4 -->
<g id="edge3" class="edge"><title>Node3&#45;&gt;Node4</title>
<path fill="none" stroke="midnightblue" d="M704.582,-121.133C718.8,-120.35 733.074,-119.565 746.433,-118.829"/>
<polygon fill="midnightblue" stroke="midnightblue" points="704.045,-117.657 694.253,-121.702 704.43,-124.647 704.045,-117.657"/>
</g>
<!-- Node5 -->
<g id="node5" class="node"><title>Node5</title>
<g id="a_node5"><a xlink:href="../../dd/d02/classview_1_1_splash_screen.html#ad94d9edd23f270a5f480fd54a06d72f3" target="_top" xlink:title="view.SplashScreen.addProbablity\lButton">
<polygon fill="white" stroke="black" points="932.5,-135 932.5,-165 1105.5,-165 1105.5,-135 932.5,-135"/>
<text text-anchor="start" x="940.5" y="-153" font-family="Helvetica,sans-Serif" font-size="10.00">view.SplashScreen.addProbablity</text>
<text text-anchor="middle" x="1019" y="-142" font-family="Helvetica,sans-Serif" font-size="10.00">Button</text>
</a>
</g>
</g>
<!-- Node4&#45;&gt;Node5 -->
<g id="edge4" class="edge"><title>Node4&#45;&gt;Node5</title>
<path fill="none" stroke="midnightblue" d="M897.605,-128.931C909.037,-130.932 920.841,-132.997 932.384,-135.017"/>
<polygon fill="midnightblue" stroke="midnightblue" points="898.123,-125.468 887.67,-127.192 896.916,-132.364 898.123,-125.468"/>
</g>
<!-- Node9 -->
<g id="node9" class="node"><title>Node9</title>
<g id="a_node9"><a xlink:href="../../dd/d02/classview_1_1_splash_screen.html#a17ba24f5ed477a37ea527710e54d65c8" target="_top" xlink:title="view.SplashScreen.addRandom\lButton">
<polygon fill="white" stroke="black" points="936,-86 936,-116 1102,-116 1102,-86 936,-86"/>
<text text-anchor="start" x="944" y="-104" font-family="Helvetica,sans-Serif" font-size="10.00">view.SplashScreen.addRandom</text>
<text text-anchor="middle" x="1019" y="-93" font-family="Helvetica,sans-Serif" font-size="10.00">Button</text>
</a>
</g>
</g>
<!-- Node4&#45;&gt;Node9 -->
<g id="edge8" class="edge"><title>Node4&#45;&gt;Node9</title>
<path fill="none" stroke="midnightblue" d="M898.016,-109.399C910.476,-108.527 923.368,-107.624 935.873,-106.749"/>
<polygon fill="midnightblue" stroke="midnightblue" points="897.401,-105.933 887.67,-110.123 897.89,-112.916 897.401,-105.933"/>
</g>
<!-- Node6 -->
<g id="node6" class="node"><title>Node6</title>
<g id="a_node6"><a xlink:href="../../dd/d02/classview_1_1_splash_screen.html#a6ff42b7dad4e546981a3266f9d694f5a" target="_top" xlink:title="view.SplashScreen.getNode">
<polygon fill="white" stroke="black" points="1142.5,-91.5 1142.5,-110.5 1291.5,-110.5 1291.5,-91.5 1142.5,-91.5"/>
<text text-anchor="middle" x="1217" y="-98.5" font-family="Helvetica,sans-Serif" font-size="10.00">view.SplashScreen.getNode</text>
</a>
</g>
</g>
<!-- Node5&#45;&gt;Node6 -->
<g id="edge5" class="edge"><title>Node5&#45;&gt;Node6</title>
<path fill="none" stroke="midnightblue" d="M1090.02,-132.495C1119.63,-125.093 1152.95,-116.762 1177.89,-110.528"/>
<polygon fill="midnightblue" stroke="midnightblue" points="1088.99,-129.144 1080.14,-134.965 1090.69,-135.935 1088.99,-129.144"/>
</g>
<!-- Node7 -->
<g id="node7" class="node"><title>Node7</title>
<g id="a_node7"><a xlink:href="../../d6/d7b/classcontroller_1_1_cell_society_controller.html#a3f78125e5b809d88d3cf7ed20b3756c2" target="_top" xlink:title="controller.CellSocietyController.display\lSplashScreen">
<polygon fill="white" stroke="black" points="1328,-86 1328,-116 1526,-116 1526,-86 1328,-86"/>
<text text-anchor="start" x="1336" y="-104" font-family="Helvetica,sans-Serif" font-size="10.00">controller.CellSocietyController.display</text>
<text text-anchor="middle" x="1427" y="-93" font-family="Helvetica,sans-Serif" font-size="10.00">SplashScreen</text>
</a>
</g>
</g>
<!-- Node6&#45;&gt;Node7 -->
<g id="edge6" class="edge"><title>Node6&#45;&gt;Node7</title>
<path fill="none" stroke="midnightblue" d="M1301.88,-101C1310.38,-101 1319.07,-101 1327.7,-101"/>
<polygon fill="midnightblue" stroke="midnightblue" points="1301.63,-97.5001 1291.63,-101 1301.63,-104.5 1301.63,-97.5001"/>
</g>
<!-- Node8 -->
<g id="node8" class="node"><title>Node8</title>
<g id="a_node8"><a xlink:href="../../d6/d7b/classcontroller_1_1_cell_society_controller.html#a6a2310de67e415512149c94c9f36e356" target="_top" xlink:title="controller.CellSocietyController.\lCellSocietyController">
<polygon fill="white" stroke="black" points="1562.5,-86 1562.5,-116 1727.5,-116 1727.5,-86 1562.5,-86"/>
<text text-anchor="start" x="1570.5" y="-104" font-family="Helvetica,sans-Serif" font-size="10.00">controller.CellSocietyController.</text>
<text text-anchor="middle" x="1645" y="-93" font-family="Helvetica,sans-Serif" font-size="10.00">CellSocietyController</text>
</a>
</g>
</g>
<!-- Node7&#45;&gt;Node8 -->
<g id="edge7" class="edge"><title>Node7&#45;&gt;Node8</title>
<path fill="none" stroke="midnightblue" d="M1536.38,-101C1545.07,-101 1553.75,-101 1562.2,-101"/>
<polygon fill="midnightblue" stroke="midnightblue" points="1536.2,-97.5001 1526.2,-101 1536.2,-104.5 1536.2,-97.5001"/>
</g>
<!-- Node9&#45;&gt;Node6 -->
<g id="edge9" class="edge"><title>Node9&#45;&gt;Node6</title>
<path fill="none" stroke="midnightblue" d="M1112.31,-101C1122.39,-101 1132.55,-101 1142.36,-101"/>
<polygon fill="midnightblue" stroke="midnightblue" points="1112.27,-97.5001 1102.27,-101 1112.27,-104.5 1112.27,-97.5001"/>
</g>
<!-- Node10&#45;&gt;Node4 -->
<g id="edge11" class="edge"><title>Node10&#45;&gt;Node4</title>
<path fill="none" stroke="midnightblue" d="M710.547,-99.5206C722.748,-101.312 734.889,-103.094 746.359,-104.777"/>
<polygon fill="midnightblue" stroke="midnightblue" points="710.7,-96.0057 700.298,-98.0162 709.683,-102.931 710.7,-96.0057"/>
</g>
<!-- Node12 -->
<g id="node12" class="node"><title>Node12</title>
<g id="a_node12"><a xlink:href="../../d6/d7b/classcontroller_1_1_cell_society_controller.html#afbdf9a63e15a2bfa878dcfe5ed3ef6dc" target="_top" xlink:title="controller.CellSocietyController.transition\lToFileLoaderScreen">
<polygon fill="white" stroke="black" points="492,-19 492,-49 702,-49 702,-19 492,-19"/>
<text text-anchor="start" x="500" y="-37" font-family="Helvetica,sans-Serif" font-size="10.00">controller.CellSocietyController.transition</text>
<text text-anchor="middle" x="597" y="-26" font-family="Helvetica,sans-Serif" font-size="10.00">ToFileLoaderScreen</text>
</a>
</g>
</g>
<!-- Node11&#45;&gt;Node12 -->
<g id="edge13" class="edge"><title>Node11&#45;&gt;Node12</title>
<path fill="none" stroke="midnightblue" d="M464.105,-27.2698C473.396,-27.2326 482.764,-27.2479 491.991,-27.3157"/>
<polygon fill="midnightblue" stroke="midnightblue" points="464.043,-23.77 454.064,-27.3307 464.085,-30.7699 464.043,-23.77"/>
</g>
<!-- Node12&#45;&gt;Node11 -->
<g id="edge18" class="edge"><title>Node12&#45;&gt;Node11</title>
<path fill="none" stroke="midnightblue" d="M481.934,-40.7373C472.633,-40.7671 463.271,-40.7444 454.064,-40.6693"/>
<polygon fill="midnightblue" stroke="midnightblue" points="482.01,-44.237 491.991,-40.6843 481.973,-37.2371 482.01,-44.237"/>
</g>
<!-- Node13 -->
<g id="node13" class="node"><title>Node13</title>
<g id="a_node13"><a xlink:href="../../d3/d48/classview_1_1_top_menu.html#af56bae78812baf114a9ed49ad52694df" target="_top" xlink:title="view.TopMenu.addLoadButton">
<polygon fill="white" stroke="black" points="738,-49.5 738,-68.5 896,-68.5 896,-49.5 738,-49.5"/>
<text text-anchor="middle" x="817" y="-56.5" font-family="Helvetica,sans-Serif" font-size="10.00">view.TopMenu.addLoadButton</text>
</a>
</g>
</g>
<!-- Node12&#45;&gt;Node13 -->
<g id="edge14" class="edge"><title>Node12&#45;&gt;Node13</title>
<path fill="none" stroke="midnightblue" d="M712.377,-47.1166C721.03,-48.1089 729.638,-49.0961 737.981,-50.0529"/>
<polygon fill="midnightblue" stroke="midnightblue" points="712.545,-43.613 702.211,-45.9508 711.747,-50.5675 712.545,-43.613"/>
</g>
<!-- Node15 -->
<g id="node15" class="node"><title>Node15</title>
<g id="a_node15"><a xlink:href="../../dd/d02/classview_1_1_splash_screen.html#a652092fc5c5862cee4ff84bf231646ab" target="_top" xlink:title="view.SplashScreen.addLoad\lButton">
<polygon fill="white" stroke="black" points="742.5,-0 742.5,-30 891.5,-30 891.5,-0 742.5,-0"/>
<text text-anchor="start" x="750.5" y="-18" font-family="Helvetica,sans-Serif" font-size="10.00">view.SplashScreen.addLoad</text>
<text text-anchor="middle" x="817" y="-7" font-family="Helvetica,sans-Serif" font-size="10.00">Button</text>
</a>
</g>
</g>
<!-- Node12&#45;&gt;Node15 -->
<g id="edge16" class="edge"><title>Node12&#45;&gt;Node15</title>
<path fill="none" stroke="midnightblue" d="M712.397,-24.0296C722.576,-23.1425 732.691,-22.2609 742.387,-21.4158"/>
<polygon fill="midnightblue" stroke="midnightblue" points="711.87,-20.5622 702.211,-24.9174 712.477,-27.5358 711.87,-20.5622"/>
</g>
<!-- Node14 -->
<g id="node14" class="node"><title>Node14</title>
<g id="a_node14"><a xlink:href="../../d3/d48/classview_1_1_top_menu.html#a4442589b1733d6ad662c92700f27018e" target="_top" xlink:title="view.TopMenu.createTopButtons">
<polygon fill="white" stroke="black" points="935,-47.5 935,-66.5 1103,-66.5 1103,-47.5 935,-47.5"/>
<text text-anchor="middle" x="1019" y="-54.5" font-family="Helvetica,sans-Serif" font-size="10.00">view.TopMenu.createTopButtons</text>
</a>
</g>
</g>
<!-- Node13&#45;&gt;Node14 -->
<g id="edge15" class="edge"><title>Node13&#45;&gt;Node14</title>
<path fill="none" stroke="midnightblue" d="M906.4,-58.116C915.88,-58.0212 925.502,-57.925 934.917,-57.8308"/>
<polygon fill="midnightblue" stroke="midnightblue" points="906.149,-54.6182 896.185,-58.2182 906.219,-61.6179 906.149,-54.6182"/>
</g>
<!-- Node15&#45;&gt;Node6 -->
<g id="edge17" class="edge"><title>Node15&#45;&gt;Node6</title>
<path fill="none" stroke="midnightblue" d="M901.858,-12.1144C960.311,-12.398 1039.43,-17.4154 1106,-38 1144.48,-49.8982 1184.15,-76.9788 1203.65,-91.4557"/>
<polygon fill="midnightblue" stroke="midnightblue" points="901.56,-8.61447 891.56,-12.1122 901.559,-15.6145 901.56,-8.61447"/>
</g>
</g>
</svg>
