<?xml version="1.0" encoding="UTF-8" standalone="no"?>
<!DOCTYPE svg PUBLIC "-//W3C//DTD SVG 1.1//EN"
 "http://www.w3.org/Graphics/SVG/1.1/DTD/svg11.dtd">
<!-- Generated by graphviz version 2.36.0 (20140111.2315)
 -->
<!-- Title: controller.CellSocietyController.update Pages: 1 -->
<svg width="1088pt" height="125pt"
 viewBox="0.00 0.00 1088.00 125.00" xmlns="http://www.w3.org/2000/svg" xmlns:xlink="http://www.w3.org/1999/xlink">
<g id="graph0" class="graph" transform="scale(1 1) rotate(0) translate(4 121)">
<title>controller.CellSocietyController.update</title>
<polygon fill="white" stroke="none" points="-4,4 -4,-121 1084,-121 1084,4 -4,4"/>
<!-- Node1 -->
<g id="node1" class="node"><title>Node1</title>
<polygon fill="#bfbfbf" stroke="black" points="0.5,-29.5 0.5,-48.5 199.5,-48.5 199.5,-29.5 0.5,-29.5"/>
<text text-anchor="middle" x="100" y="-36.5" font-family="Helvetica,sans-Serif" font-size="10.00">controller.CellSocietyController.update</text>
</g>
<!-- Node2 -->
<g id="node2" class="node"><title>Node2</title>
<g id="a_node2"><a xlink:href="../../d6/d7b/classcontroller_1_1_cell_society_controller.html#a2c91c70640d8de017cd11a225f1e4764" target="_top" xlink:title="controller.CellSocietyController.get\lKeyFrame">
<polygon fill="white" stroke="black" points="236.5,-24 236.5,-54 417.5,-54 417.5,-24 236.5,-24"/>
<text text-anchor="start" x="244.5" y="-42" font-family="Helvetica,sans-Serif" font-size="10.00">controller.CellSocietyController.get</text>
<text text-anchor="middle" x="327" y="-31" font-family="Helvetica,sans-Serif" font-size="10.00">KeyFrame</text>
</a>
</g>
</g>
<!-- Node1&#45;&gt;Node2 -->
<g id="edge1" class="edge"><title>Node1&#45;&gt;Node2</title>
<path fill="none" stroke="midnightblue" d="M209.702,-39C218.594,-39 227.517,-39 236.249,-39"/>
<polygon fill="midnightblue" stroke="midnightblue" points="209.688,-35.5001 199.688,-39 209.688,-42.5001 209.688,-35.5001"/>
</g>
<!-- Node3 -->
<g id="node3" class="node"><title>Node3</title>
<g id="a_node3"><a xlink:href="../../d6/d7b/classcontroller_1_1_cell_society_controller.html#a6eb10259241f3932f29dcc2947477ac9" target="_top" xlink:title="controller.CellSocietyController.change\lSimulationSpeed">
<polygon fill="white" stroke="black" points="457,-49 457,-79 657,-79 657,-49 457,-49"/>
<text text-anchor="start" x="465" y="-67" font-family="Helvetica,sans-Serif" font-size="10.00">controller.CellSocietyController.change</text>
<text text-anchor="middle" x="557" y="-56" font-family="Helvetica,sans-Serif" font-size="10.00">SimulationSpeed</text>
</a>
</g>
</g>
<!-- Node2&#45;&gt;Node3 -->
<g id="edge2" class="edge"><title>Node2&#45;&gt;Node3</title>
<path fill="none" stroke="midnightblue" d="M427.785,-49.9414C437.442,-51.0002 447.237,-52.0742 456.886,-53.1323"/>
<polygon fill="midnightblue" stroke="midnightblue" points="428.106,-46.4557 417.784,-48.8448 427.343,-53.414 428.106,-46.4557"/>
</g>
<!-- Node7 -->
<g id="node7" class="node"><title>Node7</title>
<g id="a_node7"><a xlink:href="../../d6/d7b/classcontroller_1_1_cell_society_controller.html#ad1a5392e3462b9b781ef440951024055" target="_top" xlink:title="controller.CellSocietyController.manage\lTimeline">
<polygon fill="white" stroke="black" points="454.5,-0 454.5,-30 659.5,-30 659.5,-0 454.5,-0"/>
<text text-anchor="start" x="462.5" y="-18" font-family="Helvetica,sans-Serif" font-size="10.00">controller.CellSocietyController.manage</text>
<text text-anchor="middle" x="557" y="-7" font-family="Helvetica,sans-Serif" font-size="10.00">Timeline</text>
</a>
</g>
</g>
<!-- Node2&#45;&gt;Node7 -->
<g id="edge7" class="edge"><title>Node2&#45;&gt;Node7</title>
<path fill="none" stroke="midnightblue" d="M427.954,-28.4785C436.672,-27.5609 445.5,-26.6316 454.232,-25.7124"/>
<polygon fill="midnightblue" stroke="midnightblue" points="427.363,-25.0213 417.784,-29.549 428.096,-31.9828 427.363,-25.0213"/>
</g>
<!-- Node4 -->
<g id="node4" class="node"><title>Node4</title>
<g id="a_node4"><a xlink:href="../../d3/d48/classview_1_1_top_menu.html#a78433064a3b87ac12b25e253a8461563" target="_top" xlink:title="view.TopMenu.addSlowDown\lButton">
<polygon fill="white" stroke="black" points="711,-87 711,-117 861,-117 861,-87 711,-87"/>
<text text-anchor="start" x="719" y="-105" font-family="Helvetica,sans-Serif" font-size="10.00">view.TopMenu.addSlowDown</text>
<text text-anchor="middle" x="786" y="-94" font-family="Helvetica,sans-Serif" font-size="10.00">Button</text>
</a>
</g>
</g>
<!-- Node3&#45;&gt;Node4 -->
<g id="edge3" class="edge"><title>Node3&#45;&gt;Node4</title>
<path fill="none" stroke="midnightblue" d="M657.605,-80.674C675.512,-83.6716 693.888,-86.7477 710.912,-89.5976"/>
<polygon fill="midnightblue" stroke="midnightblue" points="658.157,-77.2178 647.716,-79.0186 657.001,-84.1217 658.157,-77.2178"/>
</g>
<!-- Node6 -->
<g id="node6" class="node"><title>Node6</title>
<g id="a_node6"><a xlink:href="../../d3/d48/classview_1_1_top_menu.html#ae076a17bf4d52296bcc188a9bf23d57d" target="_top" xlink:title="view.TopMenu.addSpeedUpButton">
<polygon fill="white" stroke="black" points="696.5,-48.5 696.5,-67.5 875.5,-67.5 875.5,-48.5 696.5,-48.5"/>
<text text-anchor="middle" x="786" y="-55.5" font-family="Helvetica,sans-Serif" font-size="10.00">view.TopMenu.addSpeedUpButton</text>
</a>
</g>
</g>
<!-- Node3&#45;&gt;Node6 -->
<g id="edge5" class="edge"><title>Node3&#45;&gt;Node6</title>
<path fill="none" stroke="midnightblue" d="M667.332,-61.1102C677.046,-60.8534 686.8,-60.5956 696.311,-60.3442"/>
<polygon fill="midnightblue" stroke="midnightblue" points="667.139,-57.6139 657.235,-61.377 667.324,-64.6115 667.139,-57.6139"/>
</g>
<!-- Node5 -->
<g id="node5" class="node"><title>Node5</title>
<g id="a_node5"><a xlink:href="../../d3/d48/classview_1_1_top_menu.html#a4442589b1733d6ad662c92700f27018e" target="_top" xlink:title="view.TopMenu.createTopButtons">
<polygon fill="white" stroke="black" points="912,-70.5 912,-89.5 1080,-89.5 1080,-70.5 912,-70.5"/>
<text text-anchor="middle" x="996" y="-77.5" font-family="Helvetica,sans-Serif" font-size="10.00">view.TopMenu.createTopButtons</text>
</a>
</g>
</g>
<!-- Node4&#45;&gt;Node5 -->
<g id="edge4" class="edge"><title>Node4&#45;&gt;Node5</title>
<path fill="none" stroke="midnightblue" d="M871.355,-93.0778C884.755,-91.6605 898.606,-90.1955 911.975,-88.7815"/>
<polygon fill="midnightblue" stroke="midnightblue" points="870.788,-89.6182 861.212,-94.1507 871.525,-96.5793 870.788,-89.6182"/>
</g>
<!-- Node6&#45;&gt;Node5 -->
<g id="edge6" class="edge"><title>Node6&#45;&gt;Node5</title>
<path fill="none" stroke="midnightblue" d="M885.734,-68.443C894.473,-69.3674 903.262,-70.297 911.854,-71.2057"/>
<polygon fill="midnightblue" stroke="midnightblue" points="885.825,-64.9332 875.512,-67.3619 885.089,-71.8944 885.825,-64.9332"/>
</g>
<!-- Node8 -->
<g id="node8" class="node"><title>Node8</title>
<g id="a_node8"><a xlink:href="../../d2/dbb/classcontroller_1_1_main.html#a2afd534b3ce4f00386c3e5e00b360b40" target="_top" xlink:title="controller.Main.start">
<polygon fill="white" stroke="black" points="730,-5.5 730,-24.5 842,-24.5 842,-5.5 730,-5.5"/>
<text text-anchor="middle" x="786" y="-12.5" font-family="Helvetica,sans-Serif" font-size="10.00">controller.Main.start</text>
</a>
</g>
</g>
<!-- Node7&#45;&gt;Node8 -->
<g id="edge8" class="edge"><title>Node7&#45;&gt;Node8</title>
<path fill="none" stroke="midnightblue" d="M669.789,-15C690.687,-15 711.662,-15 729.88,-15"/>
<polygon fill="midnightblue" stroke="midnightblue" points="669.549,-11.5001 659.549,-15 669.549,-18.5001 669.549,-11.5001"/>
</g>
</g>
</svg>
