<?xml version="1.0" encoding="UTF-8" standalone="no"?>
<!DOCTYPE svg PUBLIC "-//W3C//DTD SVG 1.1//EN"
 "http://www.w3.org/Graphics/SVG/1.1/DTD/svg11.dtd">
<!-- Generated by graphviz version 2.36.0 (20140111.2315)
 -->
<!-- Title: controller.CellSocietyController.changeSimulationParameters Pages: 1 -->
<svg width="420pt" height="38pt"
 viewBox="0.00 0.00 420.00 38.00" xmlns="http://www.w3.org/2000/svg" xmlns:xlink="http://www.w3.org/1999/xlink">
<g id="graph0" class="graph" transform="scale(1 1) rotate(0) translate(4 34)">
<title>controller.CellSocietyController.changeSimulationParameters</title>
<polygon fill="white" stroke="none" points="-4,4 -4,-34 416,-34 416,4 -4,4"/>
<!-- Node1 -->
<g id="node1" class="node"><title>Node1</title>
<polygon fill="#bfbfbf" stroke="black" points="0,-0 0,-30 200,-30 200,-0 0,-0"/>
<text text-anchor="start" x="8" y="-18" font-family="Helvetica,sans-Serif" font-size="10.00">controller.CellSocietyController.change</text>
<text text-anchor="middle" x="100" y="-7" font-family="Helvetica,sans-Serif" font-size="10.00">SimulationParameters</text>
</g>
<!-- Node2 -->
<g id="node2" class="node"><title>Node2</title>
<g id="a_node2"><a xlink:href="../../d0/d56/classmodel_1_1simulations_1_1_simulation.html#a843485b5e61f708ef5c8f722faee5232" target="_top" xlink:title="model.simulations.Simulation.set\lParameter">
<polygon fill="white" stroke="black" points="236,-0 236,-30 412,-30 412,-0 236,-0"/>
<text text-anchor="start" x="244" y="-18" font-family="Helvetica,sans-Serif" font-size="10.00">model.simulations.Simulation.set</text>
<text text-anchor="middle" x="324" y="-7" font-family="Helvetica,sans-Serif" font-size="10.00">Parameter</text>
</a>
</g>
</g>
<!-- Node1&#45;&gt;Node2 -->
<g id="edge1" class="edge"><title>Node1&#45;&gt;Node2</title>
<path fill="none" stroke="midnightblue" d="M200.312,-15C208.766,-15 217.311,-15 225.749,-15"/>
<polygon fill="midnightblue" stroke="midnightblue" points="225.974,-18.5001 235.974,-15 225.974,-11.5001 225.974,-18.5001"/>
</g>
</g>
</svg>
