<?xml version="1.0" encoding="UTF-8" standalone="no"?>
<!DOCTYPE svg PUBLIC "-//W3C//DTD SVG 1.1//EN"
 "http://www.w3.org/Graphics/SVG/1.1/DTD/svg11.dtd">
<!-- Generated by graphviz version 2.36.0 (20140111.2315)
 -->
<!-- Title: controller.CellSocietyController.pauseSimulation Pages: 1 -->
<svg width="2188pt" height="194pt"
 viewBox="0.00 0.00 2188.00 194.00" xmlns="http://www.w3.org/2000/svg" xmlns:xlink="http://www.w3.org/1999/xlink">
<g id="graph0" class="graph" transform="scale(1 1) rotate(0) translate(4 190)">
<title>controller.CellSocietyController.pauseSimulation</title>
<polygon fill="white" stroke="none" points="-4,4 -4,-190 2184,-190 2184,4 -4,4"/>
<!-- Node1 -->
<g id="node1" class="node"><title>Node1</title>
<polygon fill="#bfbfbf" stroke="black" points="0,-29 0,-59 194,-59 194,-29 0,-29"/>
<text text-anchor="start" x="8" y="-47" font-family="Helvetica,sans-Serif" font-size="10.00">controller.CellSocietyController.pause</text>
<text text-anchor="middle" x="97" y="-36" font-family="Helvetica,sans-Serif" font-size="10.00">Simulation</text>
</g>
<!-- Node2 -->
<g id="node2" class="node"><title>Node2</title>
<g id="a_node2"><a xlink:href="../../d6/d7b/classcontroller_1_1_cell_society_controller.html#a7609d9a174ff7d2d00fc27e3574cdb21" target="_top" xlink:title="controller.CellSocietyController.stop\lOrStart">
<polygon fill="white" stroke="black" points="230,-29 230,-59 416,-59 416,-29 230,-29"/>
<text text-anchor="start" x="238" y="-47" font-family="Helvetica,sans-Serif" font-size="10.00">controller.CellSocietyController.stop</text>
<text text-anchor="middle" x="323" y="-36" font-family="Helvetica,sans-Serif" font-size="10.00">OrStart</text>
</a>
</g>
</g>
<!-- Node1&#45;&gt;Node2 -->
<g id="edge1" class="edge"><title>Node1&#45;&gt;Node2</title>
<path fill="none" stroke="midnightblue" d="M204.522,-44C212.933,-44 221.385,-44 229.688,-44"/>
<polygon fill="midnightblue" stroke="midnightblue" points="204.296,-40.5001 194.296,-44 204.296,-47.5001 204.296,-40.5001"/>
</g>
<!-- Node3 -->
<g id="node3" class="node"><title>Node3</title>
<g id="a_node3"><a xlink:href="../../d6/d7b/classcontroller_1_1_cell_society_controller.html#a3d913ad3344ac48e887110e2fabb5746" target="_top" xlink:title="controller.CellSocietyController.transition\lToSimulation">
<polygon fill="white" stroke="black" points="452,-59 452,-89 662,-89 662,-59 452,-59"/>
<text text-anchor="start" x="460" y="-77" font-family="Helvetica,sans-Serif" font-size="10.00">controller.CellSocietyController.transition</text>
<text text-anchor="middle" x="557" y="-66" font-family="Helvetica,sans-Serif" font-size="10.00">ToSimulation</text>
</a>
</g>
</g>
<!-- Node2&#45;&gt;Node3 -->
<g id="edge2" class="edge"><title>Node2&#45;&gt;Node3</title>
<path fill="none" stroke="midnightblue" d="M426.023,-57.1926C434.589,-58.3003 443.259,-59.4214 451.841,-60.5312"/>
<polygon fill="midnightblue" stroke="midnightblue" points="426.392,-53.7113 416.026,-55.8999 425.494,-60.6535 426.392,-53.7113"/>
</g>
<!-- Node18 -->
<g id="node18" class="node"><title>Node18</title>
<g id="a_node18"><a xlink:href="../../d3/d48/classview_1_1_top_menu.html#a40539df58de6aa71c37c6f2a3072b478" target="_top" xlink:title="view.TopMenu.addStopStart\lButton">
<polygon fill="white" stroke="black" points="482.5,-0 482.5,-30 631.5,-30 631.5,-0 482.5,-0"/>
<text text-anchor="start" x="490.5" y="-18" font-family="Helvetica,sans-Serif" font-size="10.00">view.TopMenu.addStopStart</text>
<text text-anchor="middle" x="557" y="-7" font-family="Helvetica,sans-Serif" font-size="10.00">Button</text>
</a>
</g>
</g>
<!-- Node2&#45;&gt;Node18 -->
<g id="edge21" class="edge"><title>Node2&#45;&gt;Node18</title>
<path fill="none" stroke="midnightblue" d="M426.158,-31.2302C445.062,-28.8672 464.464,-26.442 482.316,-24.2105"/>
<polygon fill="midnightblue" stroke="midnightblue" points="425.514,-27.7834 416.026,-32.4968 426.383,-34.7293 425.514,-27.7834"/>
</g>
<!-- Node4 -->
<g id="node4" class="node"><title>Node4</title>
<g id="a_node4"><a xlink:href="../../d6/d7b/classcontroller_1_1_cell_society_controller.html#ab65a8810efbc2b92e17ca77cdc591df9" target="_top" xlink:title="controller.CellSocietyController.generate\lRandomGrid">
<polygon fill="white" stroke="black" points="944.5,-113 944.5,-143 1153.5,-143 1153.5,-113 944.5,-113"/>
<text text-anchor="start" x="952.5" y="-131" font-family="Helvetica,sans-Serif" font-size="10.00">controller.CellSocietyController.generate</text>
<text text-anchor="middle" x="1049" y="-120" font-family="Helvetica,sans-Serif" font-size="10.00">RandomGrid</text>
</a>
</g>
</g>
<!-- Node3&#45;&gt;Node4 -->
<g id="edge3" class="edge"><title>Node3&#45;&gt;Node4</title>
<path fill="none" stroke="midnightblue" d="M619.835,-91.5727C644.024,-97.7721 672.125,-104.151 698,-108 780.174,-120.223 874.224,-125.097 944.123,-126.985"/>
<polygon fill="midnightblue" stroke="midnightblue" points="620.636,-88.1644 610.076,-89.0276 618.869,-94.9379 620.636,-88.1644"/>
</g>
<!-- Node11 -->
<g id="node11" class="node"><title>Node11</title>
<g id="a_node11"><a xlink:href="../../d6/d7b/classcontroller_1_1_cell_society_controller.html#ada30fdc135cdf08b93065edf15ed3fcc" target="_top" xlink:title="controller.CellSocietyController.generate\lProbabilityRandomGrid">
<polygon fill="white" stroke="black" points="698.5,-69 698.5,-99 907.5,-99 907.5,-69 698.5,-69"/>
<text text-anchor="start" x="706.5" y="-87" font-family="Helvetica,sans-Serif" font-size="10.00">controller.CellSocietyController.generate</text>
<text text-anchor="middle" x="803" y="-76" font-family="Helvetica,sans-Serif" font-size="10.00">ProbabilityRandomGrid</text>
</a>
</g>
</g>
<!-- Node3&#45;&gt;Node11 -->
<g id="edge11" class="edge"><title>Node3&#45;&gt;Node11</title>
<path fill="none" stroke="midnightblue" d="M672.285,-78.6838C680.917,-79.0376 689.601,-79.3935 698.163,-79.7444"/>
<polygon fill="midnightblue" stroke="midnightblue" points="672.321,-75.1824 662.186,-78.2699 672.034,-82.1766 672.321,-75.1824"/>
</g>
<!-- Node13 -->
<g id="node13" class="node"><title>Node13</title>
<g id="a_node13"><a xlink:href="../../d6/d7b/classcontroller_1_1_cell_society_controller.html#a643c7ac22f2822fa7e492dbf4267ed21" target="_top" xlink:title="controller.CellSocietyController.readXML">
<polygon fill="white" stroke="black" points="700,-30.5 700,-49.5 906,-49.5 906,-30.5 700,-30.5"/>
<text text-anchor="middle" x="803" y="-37.5" font-family="Helvetica,sans-Serif" font-size="10.00">controller.CellSocietyController.readXML</text>
</a>
</g>
</g>
<!-- Node3&#45;&gt;Node13 -->
<g id="edge14" class="edge"><title>Node3&#45;&gt;Node13</title>
<path fill="none" stroke="midnightblue" d="M672.164,-58.0919C693.237,-55.1555 714.623,-52.1755 733.793,-49.5043"/>
<polygon fill="midnightblue" stroke="midnightblue" points="671.607,-54.6356 662.186,-59.4823 672.573,-61.5686 671.607,-54.6356"/>
</g>
<!-- Node5 -->
<g id="node5" class="node"><title>Node5</title>
<g id="a_node5"><a xlink:href="../../dd/d02/classview_1_1_splash_screen.html#a2f8c52e9a2a790459e51d5d42f16f7da" target="_top" xlink:title="view.SplashScreen.display\lAskInformatio">
<polygon fill="white" stroke="black" points="1198.5,-113 1198.5,-143 1339.5,-143 1339.5,-113 1198.5,-113"/>
<text text-anchor="start" x="1206.5" y="-131" font-family="Helvetica,sans-Serif" font-size="10.00">view.SplashScreen.display</text>
<text text-anchor="middle" x="1269" y="-120" font-family="Helvetica,sans-Serif" font-size="10.00">AskInformatio</text>
</a>
</g>
</g>
<!-- Node4&#45;&gt;Node5 -->
<g id="edge4" class="edge"><title>Node4&#45;&gt;Node5</title>
<path fill="none" stroke="midnightblue" d="M1163.89,-128C1175.61,-128 1187.27,-128 1198.3,-128"/>
<polygon fill="midnightblue" stroke="midnightblue" points="1163.57,-124.5 1153.57,-128 1163.57,-131.5 1163.57,-124.5"/>
</g>
<!-- Node6 -->
<g id="node6" class="node"><title>Node6</title>
<g id="a_node6"><a xlink:href="../../dd/d02/classview_1_1_splash_screen.html#ad94d9edd23f270a5f480fd54a06d72f3" target="_top" xlink:title="view.SplashScreen.addProbablity\lButton">
<polygon fill="white" stroke="black" points="1384.5,-156 1384.5,-186 1557.5,-186 1557.5,-156 1384.5,-156"/>
<text text-anchor="start" x="1392.5" y="-174" font-family="Helvetica,sans-Serif" font-size="10.00">view.SplashScreen.addProbablity</text>
<text text-anchor="middle" x="1471" y="-163" font-family="Helvetica,sans-Serif" font-size="10.00">Button</text>
</a>
</g>
</g>
<!-- Node5&#45;&gt;Node6 -->
<g id="edge5" class="edge"><title>Node5&#45;&gt;Node6</title>
<path fill="none" stroke="midnightblue" d="M1349.86,-145.17C1366.41,-148.728 1383.73,-152.452 1399.9,-155.929"/>
<polygon fill="midnightblue" stroke="midnightblue" points="1350.18,-141.659 1339.67,-142.979 1348.71,-148.503 1350.18,-141.659"/>
</g>
<!-- Node10 -->
<g id="node10" class="node"><title>Node10</title>
<g id="a_node10"><a xlink:href="../../dd/d02/classview_1_1_splash_screen.html#a17ba24f5ed477a37ea527710e54d65c8" target="_top" xlink:title="view.SplashScreen.addRandom\lButton">
<polygon fill="white" stroke="black" points="1388,-107 1388,-137 1554,-137 1554,-107 1388,-107"/>
<text text-anchor="start" x="1396" y="-125" font-family="Helvetica,sans-Serif" font-size="10.00">view.SplashScreen.addRandom</text>
<text text-anchor="middle" x="1471" y="-114" font-family="Helvetica,sans-Serif" font-size="10.00">Button</text>
</a>
</g>
</g>
<!-- Node5&#45;&gt;Node10 -->
<g id="edge9" class="edge"><title>Node5&#45;&gt;Node10</title>
<path fill="none" stroke="midnightblue" d="M1350.02,-125.6C1362.48,-125.226 1375.37,-124.839 1387.87,-124.464"/>
<polygon fill="midnightblue" stroke="midnightblue" points="1349.56,-122.112 1339.67,-125.91 1349.77,-129.108 1349.56,-122.112"/>
</g>
<!-- Node7 -->
<g id="node7" class="node"><title>Node7</title>
<g id="a_node7"><a xlink:href="../../dd/d02/classview_1_1_splash_screen.html#a6ff42b7dad4e546981a3266f9d694f5a" target="_top" xlink:title="view.SplashScreen.getNode">
<polygon fill="white" stroke="black" points="1594.5,-112.5 1594.5,-131.5 1743.5,-131.5 1743.5,-112.5 1594.5,-112.5"/>
<text text-anchor="middle" x="1669" y="-119.5" font-family="Helvetica,sans-Serif" font-size="10.00">view.SplashScreen.getNode</text>
</a>
</g>
</g>
<!-- Node6&#45;&gt;Node7 -->
<g id="edge6" class="edge"><title>Node6&#45;&gt;Node7</title>
<path fill="none" stroke="midnightblue" d="M1542.02,-153.495C1571.63,-146.093 1604.95,-137.762 1629.89,-131.528"/>
<polygon fill="midnightblue" stroke="midnightblue" points="1540.99,-150.144 1532.14,-155.965 1542.69,-156.935 1540.99,-150.144"/>
</g>
<!-- Node8 -->
<g id="node8" class="node"><title>Node8</title>
<g id="a_node8"><a xlink:href="../../d6/d7b/classcontroller_1_1_cell_society_controller.html#a3f78125e5b809d88d3cf7ed20b3756c2" target="_top" xlink:title="controller.CellSocietyController.display\lSplashScreen">
<polygon fill="white" stroke="black" points="1780,-107 1780,-137 1978,-137 1978,-107 1780,-107"/>
<text text-anchor="start" x="1788" y="-125" font-family="Helvetica,sans-Serif" font-size="10.00">controller.CellSocietyController.display</text>
<text text-anchor="middle" x="1879" y="-114" font-family="Helvetica,sans-Serif" font-size="10.00">SplashScreen</text>
</a>
</g>
</g>
<!-- Node7&#45;&gt;Node8 -->
<g id="edge7" class="edge"><title>Node7&#45;&gt;Node8</title>
<path fill="none" stroke="midnightblue" d="M1753.88,-122C1762.38,-122 1771.07,-122 1779.7,-122"/>
<polygon fill="midnightblue" stroke="midnightblue" points="1753.63,-118.5 1743.63,-122 1753.63,-125.5 1753.63,-118.5"/>
</g>
<!-- Node9 -->
<g id="node9" class="node"><title>Node9</title>
<g id="a_node9"><a xlink:href="../../d6/d7b/classcontroller_1_1_cell_society_controller.html#a6a2310de67e415512149c94c9f36e356" target="_top" xlink:title="controller.CellSocietyController.\lCellSocietyController">
<polygon fill="white" stroke="black" points="2014.5,-107 2014.5,-137 2179.5,-137 2179.5,-107 2014.5,-107"/>
<text text-anchor="start" x="2022.5" y="-125" font-family="Helvetica,sans-Serif" font-size="10.00">controller.CellSocietyController.</text>
<text text-anchor="middle" x="2097" y="-114" font-family="Helvetica,sans-Serif" font-size="10.00">CellSocietyController</text>
</a>
</g>
</g>
<!-- Node8&#45;&gt;Node9 -->
<g id="edge8" class="edge"><title>Node8&#45;&gt;Node9</title>
<path fill="none" stroke="midnightblue" d="M1988.38,-122C1997.07,-122 2005.75,-122 2014.2,-122"/>
<polygon fill="midnightblue" stroke="midnightblue" points="1988.2,-118.5 1978.2,-122 1988.2,-125.5 1988.2,-118.5"/>
</g>
<!-- Node10&#45;&gt;Node7 -->
<g id="edge10" class="edge"><title>Node10&#45;&gt;Node7</title>
<path fill="none" stroke="midnightblue" d="M1564.31,-122C1574.39,-122 1584.55,-122 1594.36,-122"/>
<polygon fill="midnightblue" stroke="midnightblue" points="1564.27,-118.5 1554.27,-122 1564.27,-125.5 1564.27,-118.5"/>
</g>
<!-- Node12 -->
<g id="node12" class="node"><title>Node12</title>
<g id="a_node12"><a xlink:href="../../dd/d02/classview_1_1_splash_screen.html#a05478a56856d70fd9508d79ca484fbca" target="_top" xlink:title="view.SplashScreen.addProbabilityText">
<polygon fill="white" stroke="black" points="952,-74.5 952,-93.5 1146,-93.5 1146,-74.5 952,-74.5"/>
<text text-anchor="middle" x="1049" y="-81.5" font-family="Helvetica,sans-Serif" font-size="10.00">view.SplashScreen.addProbabilityText</text>
</a>
</g>
</g>
<!-- Node11&#45;&gt;Node12 -->
<g id="edge12" class="edge"><title>Node11&#45;&gt;Node12</title>
<path fill="none" stroke="midnightblue" d="M918.093,-84C929.306,-84 940.609,-84 951.619,-84"/>
<polygon fill="midnightblue" stroke="midnightblue" points="917.832,-80.5001 907.832,-84 917.832,-87.5001 917.832,-80.5001"/>
</g>
<!-- Node12&#45;&gt;Node5 -->
<g id="edge13" class="edge"><title>Node12&#45;&gt;Node5</title>
<path fill="none" stroke="midnightblue" d="M1114.02,-95.3308C1127.26,-97.7755 1141.09,-100.407 1154,-103 1169.4,-106.093 1185.92,-109.605 1201.47,-112.998"/>
<polygon fill="midnightblue" stroke="midnightblue" points="1114.51,-91.8624 1104.05,-93.5014 1113.25,-98.7476 1114.51,-91.8624"/>
</g>
<!-- Node14 -->
<g id="node14" class="node"><title>Node14</title>
<g id="a_node14"><a xlink:href="../../d6/d7b/classcontroller_1_1_cell_society_controller.html#afbdf9a63e15a2bfa878dcfe5ed3ef6dc" target="_top" xlink:title="controller.CellSocietyController.transition\lToFileLoaderScreen">
<polygon fill="white" stroke="black" points="944,-25 944,-55 1154,-55 1154,-25 944,-25"/>
<text text-anchor="start" x="952" y="-43" font-family="Helvetica,sans-Serif" font-size="10.00">controller.CellSocietyController.transition</text>
<text text-anchor="middle" x="1049" y="-32" font-family="Helvetica,sans-Serif" font-size="10.00">ToFileLoaderScreen</text>
</a>
</g>
</g>
<!-- Node13&#45;&gt;Node14 -->
<g id="edge15" class="edge"><title>Node13&#45;&gt;Node14</title>
<path fill="none" stroke="midnightblue" d="M916.105,-33.2698C925.396,-33.2326 934.764,-33.2479 943.991,-33.3157"/>
<polygon fill="midnightblue" stroke="midnightblue" points="916.043,-29.77 906.064,-33.3307 916.085,-36.7699 916.043,-29.77"/>
</g>
<!-- Node14&#45;&gt;Node13 -->
<g id="edge16" class="edge"><title>Node14&#45;&gt;Node13</title>
<path fill="none" stroke="midnightblue" d="M933.934,-46.7373C924.633,-46.7671 915.271,-46.7444 906.064,-46.6693"/>
<polygon fill="midnightblue" stroke="midnightblue" points="934.01,-50.237 943.991,-46.6843 933.973,-43.2371 934.01,-50.237"/>
</g>
<!-- Node15 -->
<g id="node15" class="node"><title>Node15</title>
<g id="a_node15"><a xlink:href="../../dd/d02/classview_1_1_splash_screen.html#a652092fc5c5862cee4ff84bf231646ab" target="_top" xlink:title="view.SplashScreen.addLoad\lButton">
<polygon fill="white" stroke="black" points="1194.5,-63 1194.5,-93 1343.5,-93 1343.5,-63 1194.5,-63"/>
<text text-anchor="start" x="1202.5" y="-81" font-family="Helvetica,sans-Serif" font-size="10.00">view.SplashScreen.addLoad</text>
<text text-anchor="middle" x="1269" y="-70" font-family="Helvetica,sans-Serif" font-size="10.00">Button</text>
</a>
</g>
</g>
<!-- Node14&#45;&gt;Node15 -->
<g id="edge17" class="edge"><title>Node14&#45;&gt;Node15</title>
<path fill="none" stroke="midnightblue" d="M1146.18,-56.7647C1162.36,-59.5864 1178.93,-62.4748 1194.43,-65.1763"/>
<polygon fill="midnightblue" stroke="midnightblue" points="1146.61,-53.2879 1136.16,-55.0186 1145.41,-60.1839 1146.61,-53.2879"/>
</g>
<!-- Node16 -->
<g id="node16" class="node"><title>Node16</title>
<g id="a_node16"><a xlink:href="../../d3/d48/classview_1_1_top_menu.html#af56bae78812baf114a9ed49ad52694df" target="_top" xlink:title="view.TopMenu.addLoadButton">
<polygon fill="white" stroke="black" points="1190,-24.5 1190,-43.5 1348,-43.5 1348,-24.5 1190,-24.5"/>
<text text-anchor="middle" x="1269" y="-31.5" font-family="Helvetica,sans-Serif" font-size="10.00">view.TopMenu.addLoadButton</text>
</a>
</g>
</g>
<!-- Node14&#45;&gt;Node16 -->
<g id="edge19" class="edge"><title>Node14&#45;&gt;Node16</title>
<path fill="none" stroke="midnightblue" d="M1164.38,-36.852C1173.03,-36.6139 1181.64,-36.3769 1189.98,-36.1473"/>
<polygon fill="midnightblue" stroke="midnightblue" points="1164.11,-33.3579 1154.21,-37.1318 1164.3,-40.3553 1164.11,-33.3579"/>
</g>
<!-- Node15&#45;&gt;Node7 -->
<g id="edge18" class="edge"><title>Node15&#45;&gt;Node7</title>
<path fill="none" stroke="midnightblue" d="M1353.88,-80.0477C1411.53,-82.3067 1489.71,-87.0499 1558,-97 1583.19,-100.671 1611.17,-107.06 1632.6,-112.461"/>
<polygon fill="midnightblue" stroke="midnightblue" points="1353.85,-76.5442 1343.73,-79.6671 1353.59,-83.5393 1353.85,-76.5442"/>
</g>
<!-- Node17 -->
<g id="node17" class="node"><title>Node17</title>
<g id="a_node17"><a xlink:href="../../d3/d48/classview_1_1_top_menu.html#a4442589b1733d6ad662c92700f27018e" target="_top" xlink:title="view.TopMenu.createTopButtons">
<polygon fill="white" stroke="black" points="1387,-5.5 1387,-24.5 1555,-24.5 1555,-5.5 1387,-5.5"/>
<text text-anchor="middle" x="1471" y="-12.5" font-family="Helvetica,sans-Serif" font-size="10.00">view.TopMenu.createTopButtons</text>
</a>
</g>
</g>
<!-- Node16&#45;&gt;Node17 -->
<g id="edge20" class="edge"><title>Node16&#45;&gt;Node17</title>
<path fill="none" stroke="midnightblue" d="M1358.4,-25.602C1367.88,-24.7014 1377.5,-23.7873 1386.92,-22.8929"/>
<polygon fill="midnightblue" stroke="midnightblue" points="1357.81,-22.1423 1348.18,-26.5725 1358.47,-29.111 1357.81,-22.1423"/>
</g>
<!-- Node18&#45;&gt;Node17 -->
<g id="edge22" class="edge"><title>Node18&#45;&gt;Node17</title>
<path fill="none" stroke="midnightblue" d="M641.986,-15C815.939,-15 1213.81,-15 1386.96,-15"/>
<polygon fill="midnightblue" stroke="midnightblue" points="641.86,-11.5001 631.86,-15 641.86,-18.5001 641.86,-11.5001"/>
</g>
</g>
</svg>
