<?xml version="1.0" encoding="UTF-8" standalone="no"?>
<!DOCTYPE svg PUBLIC "-//W3C//DTD SVG 1.1//EN"
 "http://www.w3.org/Graphics/SVG/1.1/DTD/svg11.dtd">
<!-- Generated by graphviz version 2.36.0 (20140111.2315)
 -->
<!-- Title: controller.CellSocietyController.stepThroughSimulation Pages: 1 -->
<svg width="592pt" height="38pt"
 viewBox="0.00 0.00 592.00 38.00" xmlns="http://www.w3.org/2000/svg" xmlns:xlink="http://www.w3.org/1999/xlink">
<g id="graph0" class="graph" transform="scale(1 1) rotate(0) translate(4 34)">
<title>controller.CellSocietyController.stepThroughSimulation</title>
<polygon fill="white" stroke="none" points="-4,4 -4,-34 588,-34 588,4 -4,4"/>
<!-- Node1 -->
<g id="node1" class="node"><title>Node1</title>
<polygon fill="#bfbfbf" stroke="black" points="0,-0 0,-30 186,-30 186,-0 0,-0"/>
<text text-anchor="start" x="8" y="-18" font-family="Helvetica,sans-Serif" font-size="10.00">controller.CellSocietyController.step</text>
<text text-anchor="middle" x="93" y="-7" font-family="Helvetica,sans-Serif" font-size="10.00">ThroughSimulation</text>
</g>
<!-- Node2 -->
<g id="node2" class="node"><title>Node2</title>
<g id="a_node2"><a xlink:href="../../d3/d48/classview_1_1_top_menu.html#a3f51a2491badcedde2d93f484951ddff" target="_top" xlink:title="view.TopMenu.addStepButton">
<polygon fill="white" stroke="black" points="222.5,-5.5 222.5,-24.5 379.5,-24.5 379.5,-5.5 222.5,-5.5"/>
<text text-anchor="middle" x="301" y="-12.5" font-family="Helvetica,sans-Serif" font-size="10.00">view.TopMenu.addStepButton</text>
</a>
</g>
</g>
<!-- Node1&#45;&gt;Node2 -->
<g id="edge1" class="edge"><title>Node1&#45;&gt;Node2</title>
<path fill="none" stroke="midnightblue" d="M196.401,-15C205.145,-15 213.895,-15 222.398,-15"/>
<polygon fill="midnightblue" stroke="midnightblue" points="196.155,-11.5001 186.155,-15 196.155,-18.5001 196.155,-11.5001"/>
</g>
<!-- Node3 -->
<g id="node3" class="node"><title>Node3</title>
<g id="a_node3"><a xlink:href="../../d3/d48/classview_1_1_top_menu.html#a4442589b1733d6ad662c92700f27018e" target="_top" xlink:title="view.TopMenu.createTopButtons">
<polygon fill="white" stroke="black" points="416,-5.5 416,-24.5 584,-24.5 584,-5.5 416,-5.5"/>
<text text-anchor="middle" x="500" y="-12.5" font-family="Helvetica,sans-Serif" font-size="10.00">view.TopMenu.createTopButtons</text>
</a>
</g>
</g>
<!-- Node2&#45;&gt;Node3 -->
<g id="edge2" class="edge"><title>Node2&#45;&gt;Node3</title>
<path fill="none" stroke="midnightblue" d="M389.747,-15C398.468,-15 407.304,-15 415.976,-15"/>
<polygon fill="midnightblue" stroke="midnightblue" points="389.577,-11.5001 379.577,-15 389.577,-18.5001 389.577,-11.5001"/>
</g>
</g>
</svg>
