<?xml version="1.0" encoding="UTF-8" standalone="no"?>
<!DOCTYPE svg PUBLIC "-//W3C//DTD SVG 1.1//EN"
 "http://www.w3.org/Graphics/SVG/1.1/DTD/svg11.dtd">
<!-- Generated by graphviz version 2.36.0 (20140111.2315)
 -->
<!-- Title: controller.CellSocietyController.generateRandomGrid Pages: 1 -->
<svg width="1228pt" height="87pt"
 viewBox="0.00 0.00 1228.00 87.00" xmlns="http://www.w3.org/2000/svg" xmlns:xlink="http://www.w3.org/1999/xlink">
<g id="graph0" class="graph" transform="scale(1 1) rotate(0) translate(4 83)">
<title>controller.CellSocietyController.generateRandomGrid</title>
<polygon fill="white" stroke="none" points="-4,4 -4,-83 1224,-83 1224,4 -4,4"/>
<!-- Node1 -->
<g id="node1" class="node"><title>Node1</title>
<polygon fill="#bfbfbf" stroke="black" points="0.5,-24 0.5,-54 209.5,-54 209.5,-24 0.5,-24"/>
<text text-anchor="start" x="8.5" y="-42" font-family="Helvetica,sans-Serif" font-size="10.00">controller.CellSocietyController.generate</text>
<text text-anchor="middle" x="105" y="-31" font-family="Helvetica,sans-Serif" font-size="10.00">RandomGrid</text>
</g>
<!-- Node2 -->
<g id="node2" class="node"><title>Node2</title>
<g id="a_node2"><a xlink:href="../../dd/d02/classview_1_1_splash_screen.html#a2f8c52e9a2a790459e51d5d42f16f7da" target="_top" xlink:title="view.SplashScreen.display\lAskInformatio">
<polygon fill="white" stroke="black" points="246.5,-24 246.5,-54 387.5,-54 387.5,-24 246.5,-24"/>
<text text-anchor="start" x="254.5" y="-42" font-family="Helvetica,sans-Serif" font-size="10.00">view.SplashScreen.display</text>
<text text-anchor="middle" x="317" y="-31" font-family="Helvetica,sans-Serif" font-size="10.00">AskInformatio</text>
</a>
</g>
</g>
<!-- Node1&#45;&gt;Node2 -->
<g id="edge1" class="edge"><title>Node1&#45;&gt;Node2</title>
<path fill="none" stroke="midnightblue" d="M219.932,-39C228.913,-39 237.807,-39 246.347,-39"/>
<polygon fill="midnightblue" stroke="midnightblue" points="219.77,-35.5001 209.77,-39 219.77,-42.5001 219.77,-35.5001"/>
</g>
<!-- Node3 -->
<g id="node3" class="node"><title>Node3</title>
<g id="a_node3"><a xlink:href="../../dd/d02/classview_1_1_splash_screen.html#ad94d9edd23f270a5f480fd54a06d72f3" target="_top" xlink:title="view.SplashScreen.addProbablity\lButton">
<polygon fill="white" stroke="black" points="424.5,-49 424.5,-79 597.5,-79 597.5,-49 424.5,-49"/>
<text text-anchor="start" x="432.5" y="-67" font-family="Helvetica,sans-Serif" font-size="10.00">view.SplashScreen.addProbablity</text>
<text text-anchor="middle" x="511" y="-56" font-family="Helvetica,sans-Serif" font-size="10.00">Button</text>
</a>
</g>
</g>
<!-- Node2&#45;&gt;Node3 -->
<g id="edge2" class="edge"><title>Node2&#45;&gt;Node3</title>
<path fill="none" stroke="midnightblue" d="M397.76,-49.3855C406.514,-50.5253 415.453,-51.6892 424.275,-52.8379"/>
<polygon fill="midnightblue" stroke="midnightblue" points="397.956,-45.8815 387.588,-48.0609 397.052,-52.8229 397.956,-45.8815"/>
</g>
<!-- Node7 -->
<g id="node7" class="node"><title>Node7</title>
<g id="a_node7"><a xlink:href="../../dd/d02/classview_1_1_splash_screen.html#a17ba24f5ed477a37ea527710e54d65c8" target="_top" xlink:title="view.SplashScreen.addRandom\lButton">
<polygon fill="white" stroke="black" points="428,-0 428,-30 594,-30 594,-0 428,-0"/>
<text text-anchor="start" x="436" y="-18" font-family="Helvetica,sans-Serif" font-size="10.00">view.SplashScreen.addRandom</text>
<text text-anchor="middle" x="511" y="-7" font-family="Helvetica,sans-Serif" font-size="10.00">Button</text>
</a>
</g>
</g>
<!-- Node2&#45;&gt;Node7 -->
<g id="edge6" class="edge"><title>Node2&#45;&gt;Node7</title>
<path fill="none" stroke="midnightblue" d="M397.524,-29.0595C407.559,-27.8051 417.842,-26.5197 427.917,-25.2604"/>
<polygon fill="midnightblue" stroke="midnightblue" points="397.076,-25.5881 387.588,-30.3015 397.945,-32.5341 397.076,-25.5881"/>
</g>
<!-- Node4 -->
<g id="node4" class="node"><title>Node4</title>
<g id="a_node4"><a xlink:href="../../dd/d02/classview_1_1_splash_screen.html#a6ff42b7dad4e546981a3266f9d694f5a" target="_top" xlink:title="view.SplashScreen.getNode">
<polygon fill="white" stroke="black" points="634.5,-29.5 634.5,-48.5 783.5,-48.5 783.5,-29.5 634.5,-29.5"/>
<text text-anchor="middle" x="709" y="-36.5" font-family="Helvetica,sans-Serif" font-size="10.00">view.SplashScreen.getNode</text>
</a>
</g>
</g>
<!-- Node3&#45;&gt;Node4 -->
<g id="edge3" class="edge"><title>Node3&#45;&gt;Node4</title>
<path fill="none" stroke="midnightblue" d="M607.781,-51.783C616.749,-50.6392 625.741,-49.4922 634.458,-48.3804"/>
<polygon fill="midnightblue" stroke="midnightblue" points="607.16,-48.3338 597.683,-53.071 608.046,-55.2775 607.16,-48.3338"/>
</g>
<!-- Node5 -->
<g id="node5" class="node"><title>Node5</title>
<g id="a_node5"><a xlink:href="../../d6/d7b/classcontroller_1_1_cell_society_controller.html#a3f78125e5b809d88d3cf7ed20b3756c2" target="_top" xlink:title="controller.CellSocietyController.display\lSplashScreen">
<polygon fill="white" stroke="black" points="820,-24 820,-54 1018,-54 1018,-24 820,-24"/>
<text text-anchor="start" x="828" y="-42" font-family="Helvetica,sans-Serif" font-size="10.00">controller.CellSocietyController.display</text>
<text text-anchor="middle" x="919" y="-31" font-family="Helvetica,sans-Serif" font-size="10.00">SplashScreen</text>
</a>
</g>
</g>
<!-- Node4&#45;&gt;Node5 -->
<g id="edge4" class="edge"><title>Node4&#45;&gt;Node5</title>
<path fill="none" stroke="midnightblue" d="M793.885,-39C802.384,-39 811.07,-39 819.703,-39"/>
<polygon fill="midnightblue" stroke="midnightblue" points="793.626,-35.5001 783.626,-39 793.626,-42.5001 793.626,-35.5001"/>
</g>
<!-- Node6 -->
<g id="node6" class="node"><title>Node6</title>
<g id="a_node6"><a xlink:href="../../d6/d7b/classcontroller_1_1_cell_society_controller.html#a6a2310de67e415512149c94c9f36e356" target="_top" xlink:title="controller.CellSocietyController.\lCellSocietyController">
<polygon fill="white" stroke="black" points="1054.5,-24 1054.5,-54 1219.5,-54 1219.5,-24 1054.5,-24"/>
<text text-anchor="start" x="1062.5" y="-42" font-family="Helvetica,sans-Serif" font-size="10.00">controller.CellSocietyController.</text>
<text text-anchor="middle" x="1137" y="-31" font-family="Helvetica,sans-Serif" font-size="10.00">CellSocietyController</text>
</a>
</g>
</g>
<!-- Node5&#45;&gt;Node6 -->
<g id="edge5" class="edge"><title>Node5&#45;&gt;Node6</title>
<path fill="none" stroke="midnightblue" d="M1028.38,-39C1037.07,-39 1045.75,-39 1054.2,-39"/>
<polygon fill="midnightblue" stroke="midnightblue" points="1028.2,-35.5001 1018.2,-39 1028.2,-42.5001 1028.2,-35.5001"/>
</g>
<!-- Node7&#45;&gt;Node4 -->
<g id="edge7" class="edge"><title>Node7&#45;&gt;Node4</title>
<path fill="none" stroke="midnightblue" d="M604.307,-26.3029C614.387,-27.5371 624.547,-28.7813 634.359,-29.9828"/>
<polygon fill="midnightblue" stroke="midnightblue" points="604.621,-22.8153 594.27,-25.0738 603.77,-29.7634 604.621,-22.8153"/>
</g>
</g>
</svg>
