<?xml version="1.0" encoding="UTF-8" standalone="no"?>
<!DOCTYPE svg PUBLIC "-//W3C//DTD SVG 1.1//EN"
 "http://www.w3.org/Graphics/SVG/1.1/DTD/svg11.dtd">
<!-- Generated by graphviz version 2.36.0 (20140111.2315)
 -->
<!-- Title: controller.CellSocietyController.stopOrStart Pages: 1 -->
<svg width="1958pt" height="206pt"
 viewBox="0.00 0.00 1958.00 206.00" xmlns="http://www.w3.org/2000/svg" xmlns:xlink="http://www.w3.org/1999/xlink">
<g id="graph0" class="graph" transform="scale(1 1) rotate(0) translate(4 202)">
<title>controller.CellSocietyController.stopOrStart</title>
<polygon fill="white" stroke="none" points="-4,4 -4,-202 1954,-202 1954,4 -4,4"/>
<!-- Node1 -->
<g id="node1" class="node"><title>Node1</title>
<polygon fill="#bfbfbf" stroke="black" points="0,-134 0,-164 186,-164 186,-134 0,-134"/>
<text text-anchor="start" x="8" y="-152" font-family="Helvetica,sans-Serif" font-size="10.00">controller.CellSocietyController.stop</text>
<text text-anchor="middle" x="93" y="-141" font-family="Helvetica,sans-Serif" font-size="10.00">OrStart</text>
</g>
<!-- Node2 -->
<g id="node2" class="node"><title>Node2</title>
<g id="a_node2"><a xlink:href="../../d3/d48/classview_1_1_top_menu.html#a40539df58de6aa71c37c6f2a3072b478" target="_top" xlink:title="view.TopMenu.addStopStart\lButton">
<polygon fill="white" stroke="black" points="252.5,-168 252.5,-198 401.5,-198 401.5,-168 252.5,-168"/>
<text text-anchor="start" x="260.5" y="-186" font-family="Helvetica,sans-Serif" font-size="10.00">view.TopMenu.addStopStart</text>
<text text-anchor="middle" x="327" y="-175" font-family="Helvetica,sans-Serif" font-size="10.00">Button</text>
</a>
</g>
</g>
<!-- Node1&#45;&gt;Node2 -->
<g id="edge1" class="edge"><title>Node1&#45;&gt;Node2</title>
<path fill="none" stroke="midnightblue" d="M196.158,-163.971C215.062,-166.742 234.464,-169.585 252.316,-172.201"/>
<polygon fill="midnightblue" stroke="midnightblue" points="196.428,-160.474 186.026,-162.487 195.413,-167.4 196.428,-160.474"/>
</g>
<!-- Node4 -->
<g id="node4" class="node"><title>Node4</title>
<g id="a_node4"><a xlink:href="../../d6/d7b/classcontroller_1_1_cell_society_controller.html#a3d913ad3344ac48e887110e2fabb5746" target="_top" xlink:title="controller.CellSocietyController.transition\lToSimulation">
<polygon fill="white" stroke="black" points="222,-100 222,-130 432,-130 432,-100 222,-100"/>
<text text-anchor="start" x="230" y="-118" font-family="Helvetica,sans-Serif" font-size="10.00">controller.CellSocietyController.transition</text>
<text text-anchor="middle" x="327" y="-107" font-family="Helvetica,sans-Serif" font-size="10.00">ToSimulation</text>
</a>
</g>
</g>
<!-- Node1&#45;&gt;Node4 -->
<g id="edge3" class="edge"><title>Node1&#45;&gt;Node4</title>
<path fill="none" stroke="midnightblue" d="M196.164,-134.028C205.197,-132.704 214.344,-131.363 223.381,-130.039"/>
<polygon fill="midnightblue" stroke="midnightblue" points="195.413,-130.6 186.026,-135.513 196.428,-137.526 195.413,-130.6"/>
</g>
<!-- Node3 -->
<g id="node3" class="node"><title>Node3</title>
<g id="a_node3"><a xlink:href="../../d3/d48/classview_1_1_top_menu.html#a4442589b1733d6ad662c92700f27018e" target="_top" xlink:title="view.TopMenu.createTopButtons">
<polygon fill="white" stroke="black" points="1157,-161.5 1157,-180.5 1325,-180.5 1325,-161.5 1157,-161.5"/>
<text text-anchor="middle" x="1241" y="-168.5" font-family="Helvetica,sans-Serif" font-size="10.00">view.TopMenu.createTopButtons</text>
</a>
</g>
</g>
<!-- Node2&#45;&gt;Node3 -->
<g id="edge2" class="edge"><title>Node2&#45;&gt;Node3</title>
<path fill="none" stroke="midnightblue" d="M411.986,-181.895C585.939,-179.606 983.815,-174.371 1156.96,-172.093"/>
<polygon fill="midnightblue" stroke="midnightblue" points="411.813,-178.397 401.86,-182.028 411.905,-185.396 411.813,-178.397"/>
</g>
<!-- Node5 -->
<g id="node5" class="node"><title>Node5</title>
<g id="a_node5"><a xlink:href="../../d6/d7b/classcontroller_1_1_cell_society_controller.html#ab65a8810efbc2b92e17ca77cdc591df9" target="_top" xlink:title="controller.CellSocietyController.generate\lRandomGrid">
<polygon fill="white" stroke="black" points="714.5,-82 714.5,-112 923.5,-112 923.5,-82 714.5,-82"/>
<text text-anchor="start" x="722.5" y="-100" font-family="Helvetica,sans-Serif" font-size="10.00">controller.CellSocietyController.generate</text>
<text text-anchor="middle" x="819" y="-89" font-family="Helvetica,sans-Serif" font-size="10.00">RandomGrid</text>
</a>
</g>
</g>
<!-- Node4&#45;&gt;Node5 -->
<g id="edge4" class="edge"><title>Node4&#45;&gt;Node5</title>
<path fill="none" stroke="midnightblue" d="M442.36,-110.799C524.624,-107.777 634.66,-103.735 714.36,-100.807"/>
<polygon fill="midnightblue" stroke="midnightblue" points="442.081,-107.307 432.216,-111.172 442.338,-114.302 442.081,-107.307"/>
</g>
<!-- Node12 -->
<g id="node12" class="node"><title>Node12</title>
<g id="a_node12"><a xlink:href="../../d6/d7b/classcontroller_1_1_cell_society_controller.html#ada30fdc135cdf08b93065edf15ed3fcc" target="_top" xlink:title="controller.CellSocietyController.generate\lProbabilityRandomGrid">
<polygon fill="white" stroke="black" points="468.5,-41 468.5,-71 677.5,-71 677.5,-41 468.5,-41"/>
<text text-anchor="start" x="476.5" y="-59" font-family="Helvetica,sans-Serif" font-size="10.00">controller.CellSocietyController.generate</text>
<text text-anchor="middle" x="573" y="-48" font-family="Helvetica,sans-Serif" font-size="10.00">ProbabilityRandomGrid</text>
</a>
</g>
</g>
<!-- Node4&#45;&gt;Node12 -->
<g id="edge12" class="edge"><title>Node4&#45;&gt;Node12</title>
<path fill="none" stroke="midnightblue" d="M400.316,-97.5138C435.156,-89.0892 476.517,-79.0882 509.911,-71.0134"/>
<polygon fill="midnightblue" stroke="midnightblue" points="399.1,-94.2068 390.203,-99.9592 400.745,-101.011 399.1,-94.2068"/>
</g>
<!-- Node14 -->
<g id="node14" class="node"><title>Node14</title>
<g id="a_node14"><a xlink:href="../../d6/d7b/classcontroller_1_1_cell_society_controller.html#a643c7ac22f2822fa7e492dbf4267ed21" target="_top" xlink:title="controller.CellSocietyController.readXML">
<polygon fill="white" stroke="black" points="470,-136.5 470,-155.5 676,-155.5 676,-136.5 470,-136.5"/>
<text text-anchor="middle" x="573" y="-143.5" font-family="Helvetica,sans-Serif" font-size="10.00">controller.CellSocietyController.readXML</text>
</a>
</g>
</g>
<!-- Node4&#45;&gt;Node14 -->
<g id="edge15" class="edge"><title>Node4&#45;&gt;Node14</title>
<path fill="none" stroke="midnightblue" d="M442.175,-129.506C460.764,-131.868 479.596,-134.26 496.936,-136.463"/>
<polygon fill="midnightblue" stroke="midnightblue" points="442.547,-126.025 432.186,-128.237 441.665,-132.969 442.547,-126.025"/>
</g>
<!-- Node6 -->
<g id="node6" class="node"><title>Node6</title>
<g id="a_node6"><a xlink:href="../../dd/d02/classview_1_1_splash_screen.html#a2f8c52e9a2a790459e51d5d42f16f7da" target="_top" xlink:title="view.SplashScreen.display\lAskInformatio">
<polygon fill="white" stroke="black" points="968.5,-41 968.5,-71 1109.5,-71 1109.5,-41 968.5,-41"/>
<text text-anchor="start" x="976.5" y="-59" font-family="Helvetica,sans-Serif" font-size="10.00">view.SplashScreen.display</text>
<text text-anchor="middle" x="1039" y="-48" font-family="Helvetica,sans-Serif" font-size="10.00">AskInformatio</text>
</a>
</g>
</g>
<!-- Node5&#45;&gt;Node6 -->
<g id="edge5" class="edge"><title>Node5&#45;&gt;Node6</title>
<path fill="none" stroke="midnightblue" d="M909.784,-80.1141C929.38,-76.4286 949.832,-72.5821 968.497,-69.0717"/>
<polygon fill="midnightblue" stroke="midnightblue" points="909.118,-76.6778 899.937,-81.9659 910.412,-83.5572 909.118,-76.6778"/>
</g>
<!-- Node7 -->
<g id="node7" class="node"><title>Node7</title>
<g id="a_node7"><a xlink:href="../../dd/d02/classview_1_1_splash_screen.html#ad94d9edd23f270a5f480fd54a06d72f3" target="_top" xlink:title="view.SplashScreen.addProbablity\lButton">
<polygon fill="white" stroke="black" points="1154.5,-0 1154.5,-30 1327.5,-30 1327.5,-0 1154.5,-0"/>
<text text-anchor="start" x="1162.5" y="-18" font-family="Helvetica,sans-Serif" font-size="10.00">view.SplashScreen.addProbablity</text>
<text text-anchor="middle" x="1241" y="-7" font-family="Helvetica,sans-Serif" font-size="10.00">Button</text>
</a>
</g>
</g>
<!-- Node6&#45;&gt;Node7 -->
<g id="edge6" class="edge"><title>Node6&#45;&gt;Node7</title>
<path fill="none" stroke="midnightblue" d="M1119.7,-39.6605C1135.15,-36.4945 1151.27,-33.1903 1166.5,-30.0673"/>
<polygon fill="midnightblue" stroke="midnightblue" points="1118.76,-36.2807 1109.67,-41.7177 1120.17,-43.1381 1118.76,-36.2807"/>
</g>
<!-- Node11 -->
<g id="node11" class="node"><title>Node11</title>
<g id="a_node11"><a xlink:href="../../dd/d02/classview_1_1_splash_screen.html#a17ba24f5ed477a37ea527710e54d65c8" target="_top" xlink:title="view.SplashScreen.addRandom\lButton">
<polygon fill="white" stroke="black" points="1158,-49 1158,-79 1324,-79 1324,-49 1158,-49"/>
<text text-anchor="start" x="1166" y="-67" font-family="Helvetica,sans-Serif" font-size="10.00">view.SplashScreen.addRandom</text>
<text text-anchor="middle" x="1241" y="-56" font-family="Helvetica,sans-Serif" font-size="10.00">Button</text>
</a>
</g>
</g>
<!-- Node6&#45;&gt;Node11 -->
<g id="edge10" class="edge"><title>Node6&#45;&gt;Node11</title>
<path fill="none" stroke="midnightblue" d="M1120.02,-59.2007C1132.48,-59.699 1145.37,-60.2147 1157.87,-60.7149"/>
<polygon fill="midnightblue" stroke="midnightblue" points="1119.8,-55.6894 1109.67,-58.7868 1119.52,-62.6838 1119.8,-55.6894"/>
</g>
<!-- Node8 -->
<g id="node8" class="node"><title>Node8</title>
<g id="a_node8"><a xlink:href="../../dd/d02/classview_1_1_splash_screen.html#a6ff42b7dad4e546981a3266f9d694f5a" target="_top" xlink:title="view.SplashScreen.getNode">
<polygon fill="white" stroke="black" points="1364.5,-54.5 1364.5,-73.5 1513.5,-73.5 1513.5,-54.5 1364.5,-54.5"/>
<text text-anchor="middle" x="1439" y="-61.5" font-family="Helvetica,sans-Serif" font-size="10.00">view.SplashScreen.getNode</text>
</a>
</g>
</g>
<!-- Node7&#45;&gt;Node8 -->
<g id="edge7" class="edge"><title>Node7&#45;&gt;Node8</title>
<path fill="none" stroke="midnightblue" d="M1312.02,-32.5048C1341.63,-39.9065 1374.95,-48.238 1399.89,-54.472"/>
<polygon fill="midnightblue" stroke="midnightblue" points="1312.69,-29.0645 1302.14,-30.0346 1310.99,-35.8555 1312.69,-29.0645"/>
</g>
<!-- Node9 -->
<g id="node9" class="node"><title>Node9</title>
<g id="a_node9"><a xlink:href="../../d6/d7b/classcontroller_1_1_cell_society_controller.html#a3f78125e5b809d88d3cf7ed20b3756c2" target="_top" xlink:title="controller.CellSocietyController.display\lSplashScreen">
<polygon fill="white" stroke="black" points="1550,-49 1550,-79 1748,-79 1748,-49 1550,-49"/>
<text text-anchor="start" x="1558" y="-67" font-family="Helvetica,sans-Serif" font-size="10.00">controller.CellSocietyController.display</text>
<text text-anchor="middle" x="1649" y="-56" font-family="Helvetica,sans-Serif" font-size="10.00">SplashScreen</text>
</a>
</g>
</g>
<!-- Node8&#45;&gt;Node9 -->
<g id="edge8" class="edge"><title>Node8&#45;&gt;Node9</title>
<path fill="none" stroke="midnightblue" d="M1523.88,-64C1532.38,-64 1541.07,-64 1549.7,-64"/>
<polygon fill="midnightblue" stroke="midnightblue" points="1523.63,-60.5001 1513.63,-64 1523.63,-67.5001 1523.63,-60.5001"/>
</g>
<!-- Node10 -->
<g id="node10" class="node"><title>Node10</title>
<g id="a_node10"><a xlink:href="../../d6/d7b/classcontroller_1_1_cell_society_controller.html#a6a2310de67e415512149c94c9f36e356" target="_top" xlink:title="controller.CellSocietyController.\lCellSocietyController">
<polygon fill="white" stroke="black" points="1784.5,-49 1784.5,-79 1949.5,-79 1949.5,-49 1784.5,-49"/>
<text text-anchor="start" x="1792.5" y="-67" font-family="Helvetica,sans-Serif" font-size="10.00">controller.CellSocietyController.</text>
<text text-anchor="middle" x="1867" y="-56" font-family="Helvetica,sans-Serif" font-size="10.00">CellSocietyController</text>
</a>
</g>
</g>
<!-- Node9&#45;&gt;Node10 -->
<g id="edge9" class="edge"><title>Node9&#45;&gt;Node10</title>
<path fill="none" stroke="midnightblue" d="M1758.38,-64C1767.07,-64 1775.75,-64 1784.2,-64"/>
<polygon fill="midnightblue" stroke="midnightblue" points="1758.2,-60.5001 1748.2,-64 1758.2,-67.5001 1758.2,-60.5001"/>
</g>
<!-- Node11&#45;&gt;Node8 -->
<g id="edge11" class="edge"><title>Node11&#45;&gt;Node8</title>
<path fill="none" stroke="midnightblue" d="M1334.31,-64C1344.39,-64 1354.55,-64 1364.36,-64"/>
<polygon fill="midnightblue" stroke="midnightblue" points="1334.27,-60.5001 1324.27,-64 1334.27,-67.5001 1334.27,-60.5001"/>
</g>
<!-- Node13 -->
<g id="node13" class="node"><title>Node13</title>
<g id="a_node13"><a xlink:href="../../dd/d02/classview_1_1_splash_screen.html#a05478a56856d70fd9508d79ca484fbca" target="_top" xlink:title="view.SplashScreen.addProbabilityText">
<polygon fill="white" stroke="black" points="722,-43.5 722,-62.5 916,-62.5 916,-43.5 722,-43.5"/>
<text text-anchor="middle" x="819" y="-50.5" font-family="Helvetica,sans-Serif" font-size="10.00">view.SplashScreen.addProbabilityText</text>
</a>
</g>
</g>
<!-- Node12&#45;&gt;Node13 -->
<g id="edge13" class="edge"><title>Node12&#45;&gt;Node13</title>
<path fill="none" stroke="midnightblue" d="M688.093,-54.5972C699.306,-54.4593 710.609,-54.3204 721.619,-54.185"/>
<polygon fill="midnightblue" stroke="midnightblue" points="687.788,-51.1006 677.832,-54.7234 687.874,-58.1001 687.788,-51.1006"/>
</g>
<!-- Node13&#45;&gt;Node6 -->
<g id="edge14" class="edge"><title>Node13&#45;&gt;Node6</title>
<path fill="none" stroke="midnightblue" d="M926.582,-54.4667C940.8,-54.6624 955.074,-54.8588 968.433,-55.0427"/>
<polygon fill="midnightblue" stroke="midnightblue" points="926.3,-50.9626 916.253,-54.3246 926.203,-57.9619 926.3,-50.9626"/>
</g>
<!-- Node15 -->
<g id="node15" class="node"><title>Node15</title>
<g id="a_node15"><a xlink:href="../../d6/d7b/classcontroller_1_1_cell_society_controller.html#afbdf9a63e15a2bfa878dcfe5ed3ef6dc" target="_top" xlink:title="controller.CellSocietyController.transition\lToFileLoaderScreen">
<polygon fill="white" stroke="black" points="714,-131 714,-161 924,-161 924,-131 714,-131"/>
<text text-anchor="start" x="722" y="-149" font-family="Helvetica,sans-Serif" font-size="10.00">controller.CellSocietyController.transition</text>
<text text-anchor="middle" x="819" y="-138" font-family="Helvetica,sans-Serif" font-size="10.00">ToFileLoaderScreen</text>
</a>
</g>
</g>
<!-- Node14&#45;&gt;Node15 -->
<g id="edge16" class="edge"><title>Node14&#45;&gt;Node15</title>
<path fill="none" stroke="midnightblue" d="M686.105,-139.27C695.396,-139.233 704.764,-139.248 713.991,-139.316"/>
<polygon fill="midnightblue" stroke="midnightblue" points="686.043,-135.77 676.064,-139.331 686.085,-142.77 686.043,-135.77"/>
</g>
<!-- Node15&#45;&gt;Node14 -->
<g id="edge17" class="edge"><title>Node15&#45;&gt;Node14</title>
<path fill="none" stroke="midnightblue" d="M703.934,-152.737C694.633,-152.767 685.271,-152.744 676.064,-152.669"/>
<polygon fill="midnightblue" stroke="midnightblue" points="704.01,-156.237 713.991,-152.684 703.973,-149.237 704.01,-156.237"/>
</g>
<!-- Node16 -->
<g id="node16" class="node"><title>Node16</title>
<g id="a_node16"><a xlink:href="../../dd/d02/classview_1_1_splash_screen.html#a652092fc5c5862cee4ff84bf231646ab" target="_top" xlink:title="view.SplashScreen.addLoad\lButton">
<polygon fill="white" stroke="black" points="964.5,-93 964.5,-123 1113.5,-123 1113.5,-93 964.5,-93"/>
<text text-anchor="start" x="972.5" y="-111" font-family="Helvetica,sans-Serif" font-size="10.00">view.SplashScreen.addLoad</text>
<text text-anchor="middle" x="1039" y="-100" font-family="Helvetica,sans-Serif" font-size="10.00">Button</text>
</a>
</g>
</g>
<!-- Node15&#45;&gt;Node16 -->
<g id="edge18" class="edge"><title>Node15&#45;&gt;Node16</title>
<path fill="none" stroke="midnightblue" d="M916.176,-129.235C932.364,-126.414 948.934,-123.525 964.433,-120.824"/>
<polygon fill="midnightblue" stroke="midnightblue" points="915.41,-125.816 906.159,-130.981 916.612,-132.712 915.41,-125.816"/>
</g>
<!-- Node17 -->
<g id="node17" class="node"><title>Node17</title>
<g id="a_node17"><a xlink:href="../../d3/d48/classview_1_1_top_menu.html#af56bae78812baf114a9ed49ad52694df" target="_top" xlink:title="view.TopMenu.addLoadButton">
<polygon fill="white" stroke="black" points="960,-142.5 960,-161.5 1118,-161.5 1118,-142.5 960,-142.5"/>
<text text-anchor="middle" x="1039" y="-149.5" font-family="Helvetica,sans-Serif" font-size="10.00">view.TopMenu.addLoadButton</text>
</a>
</g>
</g>
<!-- Node15&#45;&gt;Node17 -->
<g id="edge20" class="edge"><title>Node15&#45;&gt;Node17</title>
<path fill="none" stroke="midnightblue" d="M934.377,-149.148C943.03,-149.386 951.638,-149.623 959.981,-149.853"/>
<polygon fill="midnightblue" stroke="midnightblue" points="934.304,-145.645 924.211,-148.868 934.111,-152.642 934.304,-145.645"/>
</g>
<!-- Node16&#45;&gt;Node8 -->
<g id="edge19" class="edge"><title>Node16&#45;&gt;Node8</title>
<path fill="none" stroke="midnightblue" d="M1123.86,-105.397C1181.5,-102.821 1259.66,-97.7746 1328,-88 1352.48,-84.4988 1379.62,-78.5976 1400.82,-73.5231"/>
<polygon fill="midnightblue" stroke="midnightblue" points="1123.54,-101.907 1113.7,-105.835 1123.84,-108.901 1123.54,-101.907"/>
</g>
<!-- Node17&#45;&gt;Node3 -->
<g id="edge21" class="edge"><title>Node17&#45;&gt;Node3</title>
<path fill="none" stroke="midnightblue" d="M1128.4,-160.398C1137.88,-161.299 1147.5,-162.213 1156.92,-163.107"/>
<polygon fill="midnightblue" stroke="midnightblue" points="1128.47,-156.889 1118.18,-159.428 1127.81,-163.858 1128.47,-156.889"/>
</g>
</g>
</svg>
