<?xml version="1.0" encoding="UTF-8" standalone="no"?>
<!DOCTYPE svg PUBLIC "-//W3C//DTD SVG 1.1//EN"
 "http://www.w3.org/Graphics/SVG/1.1/DTD/svg11.dtd">
<!-- Generated by graphviz version 2.36.0 (20140111.2315)
 -->
<!-- Title: controller.CellSocietyController.restartSimulation Pages: 1 -->
<svg width="2192pt" height="194pt"
 viewBox="0.00 0.00 2192.00 194.00" xmlns="http://www.w3.org/2000/svg" xmlns:xlink="http://www.w3.org/1999/xlink">
<g id="graph0" class="graph" transform="scale(1 1) rotate(0) translate(4 190)">
<title>controller.CellSocietyController.restartSimulation</title>
<polygon fill="white" stroke="none" points="-4,4 -4,-190 2188,-190 2188,4 -4,4"/>
<!-- Node1 -->
<g id="node1" class="node"><title>Node1</title>
<polygon fill="#bfbfbf" stroke="black" points="0.5,-29 0.5,-59 197.5,-59 197.5,-29 0.5,-29"/>
<text text-anchor="start" x="8.5" y="-47" font-family="Helvetica,sans-Serif" font-size="10.00">controller.CellSocietyController.restart</text>
<text text-anchor="middle" x="99" y="-36" font-family="Helvetica,sans-Serif" font-size="10.00">Simulation</text>
</g>
<!-- Node2 -->
<g id="node2" class="node"><title>Node2</title>
<g id="a_node2"><a xlink:href="../../d6/d7b/classcontroller_1_1_cell_society_controller.html#a7609d9a174ff7d2d00fc27e3574cdb21" target="_top" xlink:title="controller.CellSocietyController.stop\lOrStart">
<polygon fill="white" stroke="black" points="234,-29 234,-59 420,-59 420,-29 234,-29"/>
<text text-anchor="start" x="242" y="-47" font-family="Helvetica,sans-Serif" font-size="10.00">controller.CellSocietyController.stop</text>
<text text-anchor="middle" x="327" y="-36" font-family="Helvetica,sans-Serif" font-size="10.00">OrStart</text>
</a>
</g>
</g>
<!-- Node1&#45;&gt;Node2 -->
<g id="edge1" class="edge"><title>Node1&#45;&gt;Node2</title>
<path fill="none" stroke="midnightblue" d="M207.92,-44C216.557,-44 225.233,-44 233.746,-44"/>
<polygon fill="midnightblue" stroke="midnightblue" points="207.812,-40.5001 197.812,-44 207.812,-47.5001 207.812,-40.5001"/>
</g>
<!-- Node3 -->
<g id="node3" class="node"><title>Node3</title>
<g id="a_node3"><a xlink:href="../../d6/d7b/classcontroller_1_1_cell_society_controller.html#a3d913ad3344ac48e887110e2fabb5746" target="_top" xlink:title="controller.CellSocietyController.transition\lToSimulation">
<polygon fill="white" stroke="black" points="456,-59 456,-89 666,-89 666,-59 456,-59"/>
<text text-anchor="start" x="464" y="-77" font-family="Helvetica,sans-Serif" font-size="10.00">controller.CellSocietyController.transition</text>
<text text-anchor="middle" x="561" y="-66" font-family="Helvetica,sans-Serif" font-size="10.00">ToSimulation</text>
</a>
</g>
</g>
<!-- Node2&#45;&gt;Node3 -->
<g id="edge2" class="edge"><title>Node2&#45;&gt;Node3</title>
<path fill="none" stroke="midnightblue" d="M430.023,-57.1926C438.589,-58.3003 447.259,-59.4214 455.841,-60.5312"/>
<polygon fill="midnightblue" stroke="midnightblue" points="430.392,-53.7113 420.026,-55.8999 429.494,-60.6535 430.392,-53.7113"/>
</g>
<!-- Node18 -->
<g id="node18" class="node"><title>Node18</title>
<g id="a_node18"><a xlink:href="../../d3/d48/classview_1_1_top_menu.html#a40539df58de6aa71c37c6f2a3072b478" target="_top" xlink:title="view.TopMenu.addStopStart\lButton">
<polygon fill="white" stroke="black" points="486.5,-0 486.5,-30 635.5,-30 635.5,-0 486.5,-0"/>
<text text-anchor="start" x="494.5" y="-18" font-family="Helvetica,sans-Serif" font-size="10.00">view.TopMenu.addStopStart</text>
<text text-anchor="middle" x="561" y="-7" font-family="Helvetica,sans-Serif" font-size="10.00">Button</text>
</a>
</g>
</g>
<!-- Node2&#45;&gt;Node18 -->
<g id="edge21" class="edge"><title>Node2&#45;&gt;Node18</title>
<path fill="none" stroke="midnightblue" d="M430.158,-31.2302C449.062,-28.8672 468.464,-26.442 486.316,-24.2105"/>
<polygon fill="midnightblue" stroke="midnightblue" points="429.514,-27.7834 420.026,-32.4968 430.383,-34.7293 429.514,-27.7834"/>
</g>
<!-- Node4 -->
<g id="node4" class="node"><title>Node4</title>
<g id="a_node4"><a xlink:href="../../d6/d7b/classcontroller_1_1_cell_society_controller.html#ab65a8810efbc2b92e17ca77cdc591df9" target="_top" xlink:title="controller.CellSocietyController.generate\lRandomGrid">
<polygon fill="white" stroke="black" points="948.5,-113 948.5,-143 1157.5,-143 1157.5,-113 948.5,-113"/>
<text text-anchor="start" x="956.5" y="-131" font-family="Helvetica,sans-Serif" font-size="10.00">controller.CellSocietyController.generate</text>
<text text-anchor="middle" x="1053" y="-120" font-family="Helvetica,sans-Serif" font-size="10.00">RandomGrid</text>
</a>
</g>
</g>
<!-- Node3&#45;&gt;Node4 -->
<g id="edge3" class="edge"><title>Node3&#45;&gt;Node4</title>
<path fill="none" stroke="midnightblue" d="M623.835,-91.5727C648.024,-97.7721 676.125,-104.151 702,-108 784.174,-120.223 878.224,-125.097 948.123,-126.985"/>
<polygon fill="midnightblue" stroke="midnightblue" points="624.636,-88.1644 614.076,-89.0276 622.869,-94.9379 624.636,-88.1644"/>
</g>
<!-- Node11 -->
<g id="node11" class="node"><title>Node11</title>
<g id="a_node11"><a xlink:href="../../d6/d7b/classcontroller_1_1_cell_society_controller.html#ada30fdc135cdf08b93065edf15ed3fcc" target="_top" xlink:title="controller.CellSocietyController.generate\lProbabilityRandomGrid">
<polygon fill="white" stroke="black" points="702.5,-69 702.5,-99 911.5,-99 911.5,-69 702.5,-69"/>
<text text-anchor="start" x="710.5" y="-87" font-family="Helvetica,sans-Serif" font-size="10.00">controller.CellSocietyController.generate</text>
<text text-anchor="middle" x="807" y="-76" font-family="Helvetica,sans-Serif" font-size="10.00">ProbabilityRandomGrid</text>
</a>
</g>
</g>
<!-- Node3&#45;&gt;Node11 -->
<g id="edge11" class="edge"><title>Node3&#45;&gt;Node11</title>
<path fill="none" stroke="midnightblue" d="M676.285,-78.6838C684.917,-79.0376 693.601,-79.3935 702.163,-79.7444"/>
<polygon fill="midnightblue" stroke="midnightblue" points="676.321,-75.1824 666.186,-78.2699 676.034,-82.1766 676.321,-75.1824"/>
</g>
<!-- Node13 -->
<g id="node13" class="node"><title>Node13</title>
<g id="a_node13"><a xlink:href="../../d6/d7b/classcontroller_1_1_cell_society_controller.html#a643c7ac22f2822fa7e492dbf4267ed21" target="_top" xlink:title="controller.CellSocietyController.readXML">
<polygon fill="white" stroke="black" points="704,-30.5 704,-49.5 910,-49.5 910,-30.5 704,-30.5"/>
<text text-anchor="middle" x="807" y="-37.5" font-family="Helvetica,sans-Serif" font-size="10.00">controller.CellSocietyController.readXML</text>
</a>
</g>
</g>
<!-- Node3&#45;&gt;Node13 -->
<g id="edge14" class="edge"><title>Node3&#45;&gt;Node13</title>
<path fill="none" stroke="midnightblue" d="M676.164,-58.0919C697.237,-55.1555 718.623,-52.1755 737.793,-49.5043"/>
<polygon fill="midnightblue" stroke="midnightblue" points="675.607,-54.6356 666.186,-59.4823 676.573,-61.5686 675.607,-54.6356"/>
</g>
<!-- Node5 -->
<g id="node5" class="node"><title>Node5</title>
<g id="a_node5"><a xlink:href="../../dd/d02/classview_1_1_splash_screen.html#a2f8c52e9a2a790459e51d5d42f16f7da" target="_top" xlink:title="view.SplashScreen.display\lAskInformatio">
<polygon fill="white" stroke="black" points="1202.5,-113 1202.5,-143 1343.5,-143 1343.5,-113 1202.5,-113"/>
<text text-anchor="start" x="1210.5" y="-131" font-family="Helvetica,sans-Serif" font-size="10.00">view.SplashScreen.display</text>
<text text-anchor="middle" x="1273" y="-120" font-family="Helvetica,sans-Serif" font-size="10.00">AskInformatio</text>
</a>
</g>
</g>
<!-- Node4&#45;&gt;Node5 -->
<g id="edge4" class="edge"><title>Node4&#45;&gt;Node5</title>
<path fill="none" stroke="midnightblue" d="M1167.89,-128C1179.61,-128 1191.27,-128 1202.3,-128"/>
<polygon fill="midnightblue" stroke="midnightblue" points="1167.57,-124.5 1157.57,-128 1167.57,-131.5 1167.57,-124.5"/>
</g>
<!-- Node6 -->
<g id="node6" class="node"><title>Node6</title>
<g id="a_node6"><a xlink:href="../../dd/d02/classview_1_1_splash_screen.html#ad94d9edd23f270a5f480fd54a06d72f3" target="_top" xlink:title="view.SplashScreen.addProbablity\lButton">
<polygon fill="white" stroke="black" points="1388.5,-156 1388.5,-186 1561.5,-186 1561.5,-156 1388.5,-156"/>
<text text-anchor="start" x="1396.5" y="-174" font-family="Helvetica,sans-Serif" font-size="10.00">view.SplashScreen.addProbablity</text>
<text text-anchor="middle" x="1475" y="-163" font-family="Helvetica,sans-Serif" font-size="10.00">Button</text>
</a>
</g>
</g>
<!-- Node5&#45;&gt;Node6 -->
<g id="edge5" class="edge"><title>Node5&#45;&gt;Node6</title>
<path fill="none" stroke="midnightblue" d="M1353.86,-145.17C1370.41,-148.728 1387.73,-152.452 1403.9,-155.929"/>
<polygon fill="midnightblue" stroke="midnightblue" points="1354.18,-141.659 1343.67,-142.979 1352.71,-148.503 1354.18,-141.659"/>
</g>
<!-- Node10 -->
<g id="node10" class="node"><title>Node10</title>
<g id="a_node10"><a xlink:href="../../dd/d02/classview_1_1_splash_screen.html#a17ba24f5ed477a37ea527710e54d65c8" target="_top" xlink:title="view.SplashScreen.addRandom\lButton">
<polygon fill="white" stroke="black" points="1392,-107 1392,-137 1558,-137 1558,-107 1392,-107"/>
<text text-anchor="start" x="1400" y="-125" font-family="Helvetica,sans-Serif" font-size="10.00">view.SplashScreen.addRandom</text>
<text text-anchor="middle" x="1475" y="-114" font-family="Helvetica,sans-Serif" font-size="10.00">Button</text>
</a>
</g>
</g>
<!-- Node5&#45;&gt;Node10 -->
<g id="edge9" class="edge"><title>Node5&#45;&gt;Node10</title>
<path fill="none" stroke="midnightblue" d="M1354.02,-125.6C1366.48,-125.226 1379.37,-124.839 1391.87,-124.464"/>
<polygon fill="midnightblue" stroke="midnightblue" points="1353.56,-122.112 1343.67,-125.91 1353.77,-129.108 1353.56,-122.112"/>
</g>
<!-- Node7 -->
<g id="node7" class="node"><title>Node7</title>
<g id="a_node7"><a xlink:href="../../dd/d02/classview_1_1_splash_screen.html#a6ff42b7dad4e546981a3266f9d694f5a" target="_top" xlink:title="view.SplashScreen.getNode">
<polygon fill="white" stroke="black" points="1598.5,-112.5 1598.5,-131.5 1747.5,-131.5 1747.5,-112.5 1598.5,-112.5"/>
<text text-anchor="middle" x="1673" y="-119.5" font-family="Helvetica,sans-Serif" font-size="10.00">view.SplashScreen.getNode</text>
</a>
</g>
</g>
<!-- Node6&#45;&gt;Node7 -->
<g id="edge6" class="edge"><title>Node6&#45;&gt;Node7</title>
<path fill="none" stroke="midnightblue" d="M1546.02,-153.495C1575.63,-146.093 1608.95,-137.762 1633.89,-131.528"/>
<polygon fill="midnightblue" stroke="midnightblue" points="1544.99,-150.144 1536.14,-155.965 1546.69,-156.935 1544.99,-150.144"/>
</g>
<!-- Node8 -->
<g id="node8" class="node"><title>Node8</title>
<g id="a_node8"><a xlink:href="../../d6/d7b/classcontroller_1_1_cell_society_controller.html#a3f78125e5b809d88d3cf7ed20b3756c2" target="_top" xlink:title="controller.CellSocietyController.display\lSplashScreen">
<polygon fill="white" stroke="black" points="1784,-107 1784,-137 1982,-137 1982,-107 1784,-107"/>
<text text-anchor="start" x="1792" y="-125" font-family="Helvetica,sans-Serif" font-size="10.00">controller.CellSocietyController.display</text>
<text text-anchor="middle" x="1883" y="-114" font-family="Helvetica,sans-Serif" font-size="10.00">SplashScreen</text>
</a>
</g>
</g>
<!-- Node7&#45;&gt;Node8 -->
<g id="edge7" class="edge"><title>Node7&#45;&gt;Node8</title>
<path fill="none" stroke="midnightblue" d="M1757.88,-122C1766.38,-122 1775.07,-122 1783.7,-122"/>
<polygon fill="midnightblue" stroke="midnightblue" points="1757.63,-118.5 1747.63,-122 1757.63,-125.5 1757.63,-118.5"/>
</g>
<!-- Node9 -->
<g id="node9" class="node"><title>Node9</title>
<g id="a_node9"><a xlink:href="../../d6/d7b/classcontroller_1_1_cell_society_controller.html#a6a2310de67e415512149c94c9f36e356" target="_top" xlink:title="controller.CellSocietyController.\lCellSocietyController">
<polygon fill="white" stroke="black" points="2018.5,-107 2018.5,-137 2183.5,-137 2183.5,-107 2018.5,-107"/>
<text text-anchor="start" x="2026.5" y="-125" font-family="Helvetica,sans-Serif" font-size="10.00">controller.CellSocietyController.</text>
<text text-anchor="middle" x="2101" y="-114" font-family="Helvetica,sans-Serif" font-size="10.00">CellSocietyController</text>
</a>
</g>
</g>
<!-- Node8&#45;&gt;Node9 -->
<g id="edge8" class="edge"><title>Node8&#45;&gt;Node9</title>
<path fill="none" stroke="midnightblue" d="M1992.38,-122C2001.07,-122 2009.75,-122 2018.2,-122"/>
<polygon fill="midnightblue" stroke="midnightblue" points="1992.2,-118.5 1982.2,-122 1992.2,-125.5 1992.2,-118.5"/>
</g>
<!-- Node10&#45;&gt;Node7 -->
<g id="edge10" class="edge"><title>Node10&#45;&gt;Node7</title>
<path fill="none" stroke="midnightblue" d="M1568.31,-122C1578.39,-122 1588.55,-122 1598.36,-122"/>
<polygon fill="midnightblue" stroke="midnightblue" points="1568.27,-118.5 1558.27,-122 1568.27,-125.5 1568.27,-118.5"/>
</g>
<!-- Node12 -->
<g id="node12" class="node"><title>Node12</title>
<g id="a_node12"><a xlink:href="../../dd/d02/classview_1_1_splash_screen.html#a05478a56856d70fd9508d79ca484fbca" target="_top" xlink:title="view.SplashScreen.addProbabilityText">
<polygon fill="white" stroke="black" points="956,-74.5 956,-93.5 1150,-93.5 1150,-74.5 956,-74.5"/>
<text text-anchor="middle" x="1053" y="-81.5" font-family="Helvetica,sans-Serif" font-size="10.00">view.SplashScreen.addProbabilityText</text>
</a>
</g>
</g>
<!-- Node11&#45;&gt;Node12 -->
<g id="edge12" class="edge"><title>Node11&#45;&gt;Node12</title>
<path fill="none" stroke="midnightblue" d="M922.093,-84C933.306,-84 944.609,-84 955.619,-84"/>
<polygon fill="midnightblue" stroke="midnightblue" points="921.832,-80.5001 911.832,-84 921.832,-87.5001 921.832,-80.5001"/>
</g>
<!-- Node12&#45;&gt;Node5 -->
<g id="edge13" class="edge"><title>Node12&#45;&gt;Node5</title>
<path fill="none" stroke="midnightblue" d="M1118.02,-95.3308C1131.26,-97.7755 1145.09,-100.407 1158,-103 1173.4,-106.093 1189.92,-109.605 1205.47,-112.998"/>
<polygon fill="midnightblue" stroke="midnightblue" points="1118.51,-91.8624 1108.05,-93.5014 1117.25,-98.7476 1118.51,-91.8624"/>
</g>
<!-- Node14 -->
<g id="node14" class="node"><title>Node14</title>
<g id="a_node14"><a xlink:href="../../d6/d7b/classcontroller_1_1_cell_society_controller.html#afbdf9a63e15a2bfa878dcfe5ed3ef6dc" target="_top" xlink:title="controller.CellSocietyController.transition\lToFileLoaderScreen">
<polygon fill="white" stroke="black" points="948,-25 948,-55 1158,-55 1158,-25 948,-25"/>
<text text-anchor="start" x="956" y="-43" font-family="Helvetica,sans-Serif" font-size="10.00">controller.CellSocietyController.transition</text>
<text text-anchor="middle" x="1053" y="-32" font-family="Helvetica,sans-Serif" font-size="10.00">ToFileLoaderScreen</text>
</a>
</g>
</g>
<!-- Node13&#45;&gt;Node14 -->
<g id="edge15" class="edge"><title>Node13&#45;&gt;Node14</title>
<path fill="none" stroke="midnightblue" d="M920.105,-33.2698C929.396,-33.2326 938.764,-33.2479 947.991,-33.3157"/>
<polygon fill="midnightblue" stroke="midnightblue" points="920.043,-29.77 910.064,-33.3307 920.085,-36.7699 920.043,-29.77"/>
</g>
<!-- Node14&#45;&gt;Node13 -->
<g id="edge16" class="edge"><title>Node14&#45;&gt;Node13</title>
<path fill="none" stroke="midnightblue" d="M937.934,-46.7373C928.633,-46.7671 919.271,-46.7444 910.064,-46.6693"/>
<polygon fill="midnightblue" stroke="midnightblue" points="938.01,-50.237 947.991,-46.6843 937.973,-43.2371 938.01,-50.237"/>
</g>
<!-- Node15 -->
<g id="node15" class="node"><title>Node15</title>
<g id="a_node15"><a xlink:href="../../dd/d02/classview_1_1_splash_screen.html#a652092fc5c5862cee4ff84bf231646ab" target="_top" xlink:title="view.SplashScreen.addLoad\lButton">
<polygon fill="white" stroke="black" points="1198.5,-63 1198.5,-93 1347.5,-93 1347.5,-63 1198.5,-63"/>
<text text-anchor="start" x="1206.5" y="-81" font-family="Helvetica,sans-Serif" font-size="10.00">view.SplashScreen.addLoad</text>
<text text-anchor="middle" x="1273" y="-70" font-family="Helvetica,sans-Serif" font-size="10.00">Button</text>
</a>
</g>
</g>
<!-- Node14&#45;&gt;Node15 -->
<g id="edge17" class="edge"><title>Node14&#45;&gt;Node15</title>
<path fill="none" stroke="midnightblue" d="M1150.18,-56.7647C1166.36,-59.5864 1182.93,-62.4748 1198.43,-65.1763"/>
<polygon fill="midnightblue" stroke="midnightblue" points="1150.61,-53.2879 1140.16,-55.0186 1149.41,-60.1839 1150.61,-53.2879"/>
</g>
<!-- Node16 -->
<g id="node16" class="node"><title>Node16</title>
<g id="a_node16"><a xlink:href="../../d3/d48/classview_1_1_top_menu.html#af56bae78812baf114a9ed49ad52694df" target="_top" xlink:title="view.TopMenu.addLoadButton">
<polygon fill="white" stroke="black" points="1194,-24.5 1194,-43.5 1352,-43.5 1352,-24.5 1194,-24.5"/>
<text text-anchor="middle" x="1273" y="-31.5" font-family="Helvetica,sans-Serif" font-size="10.00">view.TopMenu.addLoadButton</text>
</a>
</g>
</g>
<!-- Node14&#45;&gt;Node16 -->
<g id="edge19" class="edge"><title>Node14&#45;&gt;Node16</title>
<path fill="none" stroke="midnightblue" d="M1168.38,-36.852C1177.03,-36.6139 1185.64,-36.3769 1193.98,-36.1473"/>
<polygon fill="midnightblue" stroke="midnightblue" points="1168.11,-33.3579 1158.21,-37.1318 1168.3,-40.3553 1168.11,-33.3579"/>
</g>
<!-- Node15&#45;&gt;Node7 -->
<g id="edge18" class="edge"><title>Node15&#45;&gt;Node7</title>
<path fill="none" stroke="midnightblue" d="M1357.88,-80.0477C1415.53,-82.3067 1493.71,-87.0499 1562,-97 1587.19,-100.671 1615.17,-107.06 1636.6,-112.461"/>
<polygon fill="midnightblue" stroke="midnightblue" points="1357.85,-76.5442 1347.73,-79.6671 1357.59,-83.5393 1357.85,-76.5442"/>
</g>
<!-- Node17 -->
<g id="node17" class="node"><title>Node17</title>
<g id="a_node17"><a xlink:href="../../d3/d48/classview_1_1_top_menu.html#a4442589b1733d6ad662c92700f27018e" target="_top" xlink:title="view.TopMenu.createTopButtons">
<polygon fill="white" stroke="black" points="1391,-5.5 1391,-24.5 1559,-24.5 1559,-5.5 1391,-5.5"/>
<text text-anchor="middle" x="1475" y="-12.5" font-family="Helvetica,sans-Serif" font-size="10.00">view.TopMenu.createTopButtons</text>
</a>
</g>
</g>
<!-- Node16&#45;&gt;Node17 -->
<g id="edge20" class="edge"><title>Node16&#45;&gt;Node17</title>
<path fill="none" stroke="midnightblue" d="M1362.4,-25.602C1371.88,-24.7014 1381.5,-23.7873 1390.92,-22.8929"/>
<polygon fill="midnightblue" stroke="midnightblue" points="1361.81,-22.1423 1352.18,-26.5725 1362.47,-29.111 1361.81,-22.1423"/>
</g>
<!-- Node18&#45;&gt;Node17 -->
<g id="edge22" class="edge"><title>Node18&#45;&gt;Node17</title>
<path fill="none" stroke="midnightblue" d="M645.986,-15C819.939,-15 1217.81,-15 1390.96,-15"/>
<polygon fill="midnightblue" stroke="midnightblue" points="645.86,-11.5001 635.86,-15 645.86,-18.5001 645.86,-11.5001"/>
</g>
</g>
</svg>
