<?xml version="1.0" encoding="UTF-8" standalone="no"?>
<!DOCTYPE svg PUBLIC "-//W3C//DTD SVG 1.1//EN"
 "http://www.w3.org/Graphics/SVG/1.1/DTD/svg11.dtd">
<!-- Generated by graphviz version 2.36.0 (20140111.2315)
 -->
<!-- Title: controller.CellSocietyController.changeSimulationSpeed Pages: 1 -->
<svg width="628pt" height="77pt"
 viewBox="0.00 0.00 628.00 77.00" xmlns="http://www.w3.org/2000/svg" xmlns:xlink="http://www.w3.org/1999/xlink">
<g id="graph0" class="graph" transform="scale(1 1) rotate(0) translate(4 73)">
<title>controller.CellSocietyController.changeSimulationSpeed</title>
<polygon fill="white" stroke="none" points="-4,4 -4,-73 624,-73 624,4 -4,4"/>
<!-- Node1 -->
<g id="node1" class="node"><title>Node1</title>
<polygon fill="#bfbfbf" stroke="black" points="0,-17 0,-47 200,-47 200,-17 0,-17"/>
<text text-anchor="start" x="8" y="-35" font-family="Helvetica,sans-Serif" font-size="10.00">controller.CellSocietyController.change</text>
<text text-anchor="middle" x="100" y="-24" font-family="Helvetica,sans-Serif" font-size="10.00">SimulationSpeed</text>
</g>
<!-- Node2 -->
<g id="node2" class="node"><title>Node2</title>
<g id="a_node2"><a xlink:href="../../d3/d48/classview_1_1_top_menu.html#a78433064a3b87ac12b25e253a8461563" target="_top" xlink:title="view.TopMenu.addSlowDown\lButton">
<polygon fill="white" stroke="black" points="251,-39 251,-69 401,-69 401,-39 251,-39"/>
<text text-anchor="start" x="259" y="-57" font-family="Helvetica,sans-Serif" font-size="10.00">view.TopMenu.addSlowDown</text>
<text text-anchor="middle" x="326" y="-46" font-family="Helvetica,sans-Serif" font-size="10.00">Button</text>
</a>
</g>
</g>
<!-- Node1&#45;&gt;Node2 -->
<g id="edge1" class="edge"><title>Node1&#45;&gt;Node2</title>
<path fill="none" stroke="midnightblue" d="M210.204,-42.7254C223.934,-44.0739 237.72,-45.4279 250.736,-46.7062"/>
<polygon fill="midnightblue" stroke="midnightblue" points="210.522,-39.2399 200.228,-41.7456 209.838,-46.2064 210.522,-39.2399"/>
</g>
<!-- Node4 -->
<g id="node4" class="node"><title>Node4</title>
<g id="a_node4"><a xlink:href="../../d3/d48/classview_1_1_top_menu.html#ae076a17bf4d52296bcc188a9bf23d57d" target="_top" xlink:title="view.TopMenu.addSpeedUpButton">
<polygon fill="white" stroke="black" points="236.5,-0.5 236.5,-19.5 415.5,-19.5 415.5,-0.5 236.5,-0.5"/>
<text text-anchor="middle" x="326" y="-7.5" font-family="Helvetica,sans-Serif" font-size="10.00">view.TopMenu.addSpeedUpButton</text>
</a>
</g>
</g>
<!-- Node1&#45;&gt;Node4 -->
<g id="edge3" class="edge"><title>Node1&#45;&gt;Node4</title>
<path fill="none" stroke="midnightblue" d="M210.433,-21.2521C219.145,-20.3965 227.877,-19.5388 236.42,-18.6999"/>
<polygon fill="midnightblue" stroke="midnightblue" points="209.838,-17.7936 200.228,-22.2544 210.522,-24.7601 209.838,-17.7936"/>
</g>
<!-- Node3 -->
<g id="node3" class="node"><title>Node3</title>
<g id="a_node3"><a xlink:href="../../d3/d48/classview_1_1_top_menu.html#a4442589b1733d6ad662c92700f27018e" target="_top" xlink:title="view.TopMenu.createTopButtons">
<polygon fill="white" stroke="black" points="452,-22.5 452,-41.5 620,-41.5 620,-22.5 452,-22.5"/>
<text text-anchor="middle" x="536" y="-29.5" font-family="Helvetica,sans-Serif" font-size="10.00">view.TopMenu.createTopButtons</text>
</a>
</g>
</g>
<!-- Node2&#45;&gt;Node3 -->
<g id="edge2" class="edge"><title>Node2&#45;&gt;Node3</title>
<path fill="none" stroke="midnightblue" d="M411.355,-45.0778C424.755,-43.6605 438.606,-42.1955 451.975,-40.7815"/>
<polygon fill="midnightblue" stroke="midnightblue" points="410.788,-41.6182 401.212,-46.1507 411.525,-48.5793 410.788,-41.6182"/>
</g>
<!-- Node4&#45;&gt;Node3 -->
<g id="edge4" class="edge"><title>Node4&#45;&gt;Node3</title>
<path fill="none" stroke="midnightblue" d="M425.734,-20.443C434.473,-21.3674 443.262,-22.297 451.854,-23.2057"/>
<polygon fill="midnightblue" stroke="midnightblue" points="425.825,-16.9332 415.512,-19.3619 425.089,-23.8944 425.825,-16.9332"/>
</g>
</g>
</svg>
