<?xml version="1.0" encoding="UTF-8" standalone="no"?>
<!DOCTYPE svg PUBLIC "-//W3C//DTD SVG 1.1//EN"
 "http://www.w3.org/Graphics/SVG/1.1/DTD/svg11.dtd">
<!-- Generated by graphviz version 2.36.0 (20140111.2315)
 -->
<!-- Title: controller.CellSocietyController.displaySplashScreen Pages: 1 -->
<!--zoomable 330 -->
<svg id="main" version="1.1" xmlns="http://www.w3.org/2000/svg" xmlns:xlink="http://www.w3.org/1999/xlink" xml:space="preserve" onload="init(evt)">
<style type="text/css"><![CDATA[
.edge:hover path { stroke: red; }
.edge:hover polygon { stroke: red; fill: red; }
]]></style>
<script type="text/javascript"><![CDATA[
var edges = document.getElementsByTagName('g');
if (edges && edges.length) {
  for (var i=0;i<edges.length;i++) {
    if (edges[i].id.substr(0,4)=='edge') {
      edges[i].setAttribute('class','edge');
    }
  }
}
]]></script>
        <defs>
                <circle id="rim" cx="0" cy="0" r="7"/>
                <circle id="rim2" cx="0" cy="0" r="3.5"/>
                <g id="zoomPlus">
                        <use xlink:href="#rim" fill="#404040">
                                <set attributeName="fill" to="#808080" begin="zoomplus.mouseover" end="zoomplus.mouseout"/>
                        </use>
                        <path d="M-4,0h8M0,-4v8" fill="none" stroke="white" stroke-width="1.5" pointer-events="none"/>
                </g>
                <g id="zoomMin">
                        <use xlink:href="#rim" fill="#404040">
                                <set attributeName="fill" to="#808080" begin="zoomminus.mouseover" end="zoomminus.mouseout"/>
                        </use>
                        <path d="M-4,0h8" fill="none" stroke="white" stroke-width="1.5" pointer-events="none"/>
                </g>
                <g id="dirArrow">
                        <path fill="none" stroke="white" stroke-width="1.5" d="M0,-3.0v7 M-2.5,-0.5L0,-3.0L2.5,-0.5"/>
                </g>
               <g id="resetDef">
                       <use xlink:href="#rim2" fill="#404040">
                               <set attributeName="fill" to="#808080" begin="reset.mouseover" end="reset.mouseout"/>
                       </use>
               </g>
        </defs>

<script type="text/javascript">
var viewWidth = 2502;
var viewHeight = 330;
var sectionId = 'dynsection-6';
</script>
<script xlink:href="../../svgpan.js"/>
<svg id="graph" class="graph">
<g id="viewport">
<title>controller.CellSocietyController.displaySplashScreen</title>
<polygon fill="white" stroke="none" points="-4,4 -4,-326 2498,-326 2498,4 -4,4"/>
<!-- Node1 -->
<g id="node1" class="node"><title>Node1</title>
<polygon fill="#bfbfbf" stroke="black" points="0,-152 0,-182 198,-182 198,-152 0,-152"/>
<text text-anchor="start" x="8" y="-170" font-family="Helvetica,sans-Serif" font-size="10.00">controller.CellSocietyController.display</text>
<text text-anchor="middle" x="99" y="-159" font-family="Helvetica,sans-Serif" font-size="10.00">SplashScreen</text>
</g>
<!-- Node2 -->
<g id="node2" class="node"><title>Node2</title>
<g id="a_node2"><a xlink:href="../../dd/d02/classview_1_1_splash_screen.html#a6ff42b7dad4e546981a3266f9d694f5a" target="_top" xlink:title="view.SplashScreen.getNode">
<polygon fill="white" stroke="black" points="234.5,-157.5 234.5,-176.5 383.5,-176.5 383.5,-157.5 234.5,-157.5"/>
<text text-anchor="middle" x="309" y="-164.5" font-family="Helvetica,sans-Serif" font-size="10.00">view.SplashScreen.getNode</text>
</a>
</g>
</g>
<!-- Node1&#45;&gt;Node2 -->
<g id="edge1" class="edge"><title>Node1&#45;&gt;Node2</title>
<path fill="none" stroke="midnightblue" d="M198.214,-167C206.984,-167 215.808,-167 224.438,-167"/>
<polygon fill="midnightblue" stroke="midnightblue" points="224.464,-170.5 234.463,-167 224.463,-163.5 224.464,-170.5"/>
</g>
<!-- Node3 -->
<g id="node3" class="node"><title>Node3</title>
<g id="a_node3"><a xlink:href="../../dd/d02/classview_1_1_splash_screen.html#a0a9ccd223a5668611f7fbbae36ea0796" target="_top" xlink:title="view.SplashScreen.addTitle">
<polygon fill="white" stroke="black" points="434,-179.5 434,-198.5 580,-198.5 580,-179.5 434,-179.5"/>
<text text-anchor="middle" x="507" y="-186.5" font-family="Helvetica,sans-Serif" font-size="10.00">view.SplashScreen.addTitle</text>
</a>
</g>
</g>
<!-- Node2&#45;&gt;Node3 -->
<g id="edge2" class="edge"><title>Node2&#45;&gt;Node3</title>
<path fill="none" stroke="midnightblue" d="M383.541,-175.255C396.698,-176.731 410.483,-178.279 423.864,-179.781"/>
<polygon fill="midnightblue" stroke="midnightblue" points="423.671,-183.281 434,-180.918 424.452,-176.325 423.671,-183.281"/>
</g>
<!-- Node5 -->
<g id="node5" class="node"><title>Node5</title>
<g id="a_node5"><a xlink:href="../../dd/d02/classview_1_1_splash_screen.html#a652092fc5c5862cee4ff84bf231646ab" target="_top" xlink:title="view.SplashScreen.addLoad\lButton">
<polygon fill="white" stroke="black" points="432.5,-218 432.5,-248 581.5,-248 581.5,-218 432.5,-218"/>
<text text-anchor="start" x="440.5" y="-236" font-family="Helvetica,sans-Serif" font-size="10.00">view.SplashScreen.addLoad</text>
<text text-anchor="middle" x="507" y="-225" font-family="Helvetica,sans-Serif" font-size="10.00">Button</text>
</a>
</g>
</g>
<!-- Node2&#45;&gt;Node5 -->
<g id="edge4" class="edge"><title>Node2&#45;&gt;Node5</title>
<path fill="none" stroke="midnightblue" d="M334.283,-176.64C356.451,-185.299 390.206,-198.132 420,-208 427.081,-210.345 434.529,-212.69 441.957,-214.951"/>
<polygon fill="midnightblue" stroke="midnightblue" points="441.094,-218.346 451.678,-217.869 443.106,-211.642 441.094,-218.346"/>
</g>
<!-- Node22 -->
<g id="node22" class="node"><title>Node22</title>
<g id="a_node22"><a xlink:href="../../dd/d02/classview_1_1_splash_screen.html#a17ba24f5ed477a37ea527710e54d65c8" target="_top" xlink:title="view.SplashScreen.addRandom\lButton">
<polygon fill="white" stroke="black" points="424,-130 424,-160 590,-160 590,-130 424,-130"/>
<text text-anchor="start" x="432" y="-148" font-family="Helvetica,sans-Serif" font-size="10.00">view.SplashScreen.addRandom</text>
<text text-anchor="middle" x="507" y="-137" font-family="Helvetica,sans-Serif" font-size="10.00">Button</text>
</a>
</g>
</g>
<!-- Node2&#45;&gt;Node22 -->
<g id="edge23" class="edge"><title>Node2&#45;&gt;Node22</title>
<path fill="none" stroke="midnightblue" d="M383.541,-158.745C393.398,-157.639 403.609,-156.493 413.737,-155.356"/>
<polygon fill="midnightblue" stroke="midnightblue" points="414.275,-158.818 423.822,-154.224 413.494,-151.861 414.275,-158.818"/>
</g>
<!-- Node34 -->
<g id="node34" class="node"><title>Node34</title>
<g id="a_node34"><a xlink:href="../../dd/d02/classview_1_1_splash_screen.html#ad94d9edd23f270a5f480fd54a06d72f3" target="_top" xlink:title="view.SplashScreen.addProbablity\lButton">
<polygon fill="white" stroke="black" points="420.5,-81 420.5,-111 593.5,-111 593.5,-81 420.5,-81"/>
<text text-anchor="start" x="428.5" y="-99" font-family="Helvetica,sans-Serif" font-size="10.00">view.SplashScreen.addProbablity</text>
<text text-anchor="middle" x="507" y="-88" font-family="Helvetica,sans-Serif" font-size="10.00">Button</text>
</a>
</g>
</g>
<!-- Node2&#45;&gt;Node34 -->
<g id="edge38" class="edge"><title>Node2&#45;&gt;Node34</title>
<path fill="none" stroke="midnightblue" d="M330.36,-157.342C352.201,-147.209 388.064,-131.224 420,-120 425.854,-117.943 431.98,-115.942 438.151,-114.03"/>
<polygon fill="midnightblue" stroke="midnightblue" points="439.287,-117.343 447.85,-111.104 437.265,-110.641 439.287,-117.343"/>
</g>
<!-- Node4 -->
<g id="node4" class="node"><title>Node4</title>
<g id="a_node4"><a xlink:href="../../dd/d02/classview_1_1_splash_screen.html#a329982556dc38c022b2b8c10347e34bd" target="_top" xlink:title="view.SplashScreen.formatNode">
<polygon fill="white" stroke="black" points="652,-139.5 652,-158.5 818,-158.5 818,-139.5 652,-139.5"/>
<text text-anchor="middle" x="735" y="-146.5" font-family="Helvetica,sans-Serif" font-size="10.00">view.SplashScreen.formatNode</text>
</a>
</g>
</g>
<!-- Node3&#45;&gt;Node4 -->
<g id="edge3" class="edge"><title>Node3&#45;&gt;Node4</title>
<path fill="none" stroke="midnightblue" d="M561.846,-179.47C594.405,-173.707 636.089,-166.329 670.284,-160.277"/>
<polygon fill="midnightblue" stroke="midnightblue" points="670.939,-163.716 680.176,-158.526 669.719,-156.823 670.939,-163.716"/>
</g>
<!-- Node5&#45;&gt;Node4 -->
<g id="edge5" class="edge"><title>Node5&#45;&gt;Node4</title>
<path fill="none" stroke="midnightblue" d="M563.357,-217.936C573.612,-214.855 584.182,-211.483 594,-208 632.691,-194.275 676.087,-175.43 704.164,-162.764"/>
<polygon fill="midnightblue" stroke="midnightblue" points="705.765,-165.881 713.423,-158.56 702.871,-159.507 705.765,-165.881"/>
</g>
<!-- Node6 -->
<g id="node6" class="node"><title>Node6</title>
<g id="a_node6"><a xlink:href="../../d6/d7b/classcontroller_1_1_cell_society_controller.html#afbdf9a63e15a2bfa878dcfe5ed3ef6dc" target="_top" xlink:title="controller.CellSocietyController.transition\lToFileLoaderScreen">
<polygon fill="white" stroke="black" points="630,-218 630,-248 840,-248 840,-218 630,-218"/>
<text text-anchor="start" x="638" y="-236" font-family="Helvetica,sans-Serif" font-size="10.00">controller.CellSocietyController.transition</text>
<text text-anchor="middle" x="735" y="-225" font-family="Helvetica,sans-Serif" font-size="10.00">ToFileLoaderScreen</text>
</a>
</g>
</g>
<!-- Node5&#45;&gt;Node6 -->
<g id="edge6" class="edge"><title>Node5&#45;&gt;Node6</title>
<path fill="none" stroke="midnightblue" d="M581.688,-233C593.783,-233 606.565,-233 619.374,-233"/>
<polygon fill="midnightblue" stroke="midnightblue" points="619.641,-236.5 629.641,-233 619.641,-229.5 619.641,-236.5"/>
</g>
<!-- Node7 -->
<g id="node7" class="node"><title>Node7</title>
<g id="a_node7"><a xlink:href="../../d3/d0a/classview_1_1_file_loader_screen.html#a32abcb410ad28199e0bfcdce0255715b" target="_top" xlink:title="view.FileLoaderScreen.getNode">
<polygon fill="white" stroke="black" points="896.5,-297.5 896.5,-316.5 1061.5,-316.5 1061.5,-297.5 896.5,-297.5"/>
<text text-anchor="middle" x="979" y="-304.5" font-family="Helvetica,sans-Serif" font-size="10.00">view.FileLoaderScreen.getNode</text>
</a>
</g>
</g>
<!-- Node6&#45;&gt;Node7 -->
<g id="edge7" class="edge"><title>Node6&#45;&gt;Node7</title>
<path fill="none" stroke="midnightblue" d="M769.044,-248.049C797.03,-260.29 838.472,-277.239 876,-288 885.776,-290.803 896.2,-293.294 906.512,-295.474"/>
<polygon fill="midnightblue" stroke="midnightblue" points="905.844,-298.909 916.34,-297.469 907.236,-292.049 905.844,-298.909"/>
</g>
<!-- Node8 -->
<g id="node8" class="node"><title>Node8</title>
<g id="a_node8"><a xlink:href="../../d3/d0a/classview_1_1_file_loader_screen.html#a196dd45848fbdf09ac100c343b6515cd" target="_top" xlink:title="view.FileLoaderScreen.getFile">
<polygon fill="white" stroke="black" points="901.5,-259.5 901.5,-278.5 1056.5,-278.5 1056.5,-259.5 901.5,-259.5"/>
<text text-anchor="middle" x="979" y="-266.5" font-family="Helvetica,sans-Serif" font-size="10.00">view.FileLoaderScreen.getFile</text>
</a>
</g>
</g>
<!-- Node6&#45;&gt;Node8 -->
<g id="edge8" class="edge"><title>Node6&#45;&gt;Node8</title>
<path fill="none" stroke="midnightblue" d="M836.877,-248.007C859.28,-251.339 882.629,-254.813 903.736,-257.952"/>
<polygon fill="midnightblue" stroke="midnightblue" points="903.497,-261.455 913.903,-259.465 904.527,-254.532 903.497,-261.455"/>
</g>
<!-- Node10 -->
<g id="node10" class="node"><title>Node10</title>
<g id="a_node10"><a xlink:href="../../d6/d7b/classcontroller_1_1_cell_society_controller.html#a643c7ac22f2822fa7e492dbf4267ed21" target="_top" xlink:title="controller.CellSocietyController.readXML">
<polygon fill="white" stroke="black" points="876,-221.5 876,-240.5 1082,-240.5 1082,-221.5 876,-221.5"/>
<text text-anchor="middle" x="979" y="-228.5" font-family="Helvetica,sans-Serif" font-size="10.00">controller.CellSocietyController.readXML</text>
</a>
</g>
</g>
<!-- Node6&#45;&gt;Node10 -->
<g id="edge10" class="edge"><title>Node6&#45;&gt;Node10</title>
<path fill="none" stroke="midnightblue" d="M840.034,-225.45C848.597,-225.319 857.276,-225.232 865.894,-225.193"/>
<polygon fill="midnightblue" stroke="midnightblue" points="865.982,-228.693 875.973,-225.168 865.964,-221.693 865.982,-228.693"/>
</g>
<!-- Node9 -->
<g id="node9" class="node"><title>Node9</title>
<g id="a_node9"><a xlink:href="../../d3/d0a/classview_1_1_file_loader_screen.html#a97d7c0b9dc021069c17e7f778398f41e" target="_top" xlink:title="view.FileLoaderScreen.configure\lFileChooser">
<polygon fill="white" stroke="black" points="1139,-291 1139,-321 1307,-321 1307,-291 1139,-291"/>
<text text-anchor="start" x="1147" y="-309" font-family="Helvetica,sans-Serif" font-size="10.00">view.FileLoaderScreen.configure</text>
<text text-anchor="middle" x="1223" y="-298" font-family="Helvetica,sans-Serif" font-size="10.00">FileChooser</text>
</a>
</g>
</g>
<!-- Node8&#45;&gt;Node9 -->
<g id="edge9" class="edge"><title>Node8&#45;&gt;Node9</title>
<path fill="none" stroke="midnightblue" d="M1042.32,-278.528C1068.63,-282.551 1099.82,-287.319 1128.77,-291.746"/>
<polygon fill="midnightblue" stroke="midnightblue" points="1128.49,-295.243 1138.9,-293.295 1129.55,-288.324 1128.49,-295.243"/>
</g>
<!-- Node10&#45;&gt;Node6 -->
<g id="edge22" class="edge"><title>Node10&#45;&gt;Node6</title>
<path fill="none" stroke="midnightblue" d="M875.973,-238.519C867.429,-238.657 858.756,-238.75 850.129,-238.797"/>
<polygon fill="midnightblue" stroke="midnightblue" points="850.022,-235.297 840.034,-238.831 850.046,-242.297 850.022,-235.297"/>
</g>
<!-- Node11 -->
<g id="node11" class="node"><title>Node11</title>
<g id="a_node11"><a xlink:href="../../dc/d47/classcontroller_1_1_x_m_l_parser.html#a841cf5fa54e30325a444ba24fa26c50e" target="_top" xlink:title="controller.XMLParser.getGrid">
<polygon fill="white" stroke="black" points="1147.5,-165.5 1147.5,-184.5 1298.5,-184.5 1298.5,-165.5 1147.5,-165.5"/>
<text text-anchor="middle" x="1223" y="-172.5" font-family="Helvetica,sans-Serif" font-size="10.00">controller.XMLParser.getGrid</text>
</a>
</g>
</g>
<!-- Node10&#45;&gt;Node11 -->
<g id="edge11" class="edge"><title>Node10&#45;&gt;Node11</title>
<path fill="none" stroke="midnightblue" d="M1021.06,-221.467C1048.5,-215.098 1085.41,-206.538 1118,-199 1135.12,-195.04 1153.82,-190.721 1170.59,-186.852"/>
<polygon fill="midnightblue" stroke="midnightblue" points="1171.79,-190.167 1180.75,-184.509 1170.22,-183.346 1171.79,-190.167"/>
</g>
<!-- Node12 -->
<g id="node12" class="node"><title>Node12</title>
<g id="a_node12"><a xlink:href="../../dc/d47/classcontroller_1_1_x_m_l_parser.html#a0ebd2f6df311d0e2f9f0cd7969ecbe73" target="_top" xlink:title="controller.XMLParser.get\lParameters">
<polygon fill="white" stroke="black" points="1157.5,-242 1157.5,-272 1288.5,-272 1288.5,-242 1157.5,-242"/>
<text text-anchor="start" x="1165.5" y="-260" font-family="Helvetica,sans-Serif" font-size="10.00">controller.XMLParser.get</text>
<text text-anchor="middle" x="1223" y="-249" font-family="Helvetica,sans-Serif" font-size="10.00">Parameters</text>
</a>
</g>
</g>
<!-- Node10&#45;&gt;Node12 -->
<g id="edge12" class="edge"><title>Node10&#45;&gt;Node12</title>
<path fill="none" stroke="midnightblue" d="M1068.74,-240.534C1094.47,-243.298 1122.29,-246.288 1147.08,-248.951"/>
<polygon fill="midnightblue" stroke="midnightblue" points="1146.83,-252.444 1157.15,-250.032 1147.58,-245.484 1146.83,-252.444"/>
</g>
<!-- Node13 -->
<g id="node13" class="node"><title>Node13</title>
<g id="a_node13"><a xlink:href="../../d6/d7b/classcontroller_1_1_cell_society_controller.html#a3d913ad3344ac48e887110e2fabb5746" target="_top" xlink:title="controller.CellSocietyController.transition\lToSimulation">
<polygon fill="white" stroke="black" points="1628,-182 1628,-212 1838,-212 1838,-182 1628,-182"/>
<text text-anchor="start" x="1636" y="-200" font-family="Helvetica,sans-Serif" font-size="10.00">controller.CellSocietyController.transition</text>
<text text-anchor="middle" x="1733" y="-189" font-family="Helvetica,sans-Serif" font-size="10.00">ToSimulation</text>
</a>
</g>
</g>
<!-- Node10&#45;&gt;Node13 -->
<g id="edge13" class="edge"><title>Node10&#45;&gt;Node13</title>
<path fill="none" stroke="midnightblue" d="M1082.2,-226.379C1221.91,-220.063 1471.78,-208.765 1617.59,-202.173"/>
<polygon fill="midnightblue" stroke="midnightblue" points="1618.08,-205.654 1627.91,-201.706 1617.76,-198.662 1618.08,-205.654"/>
</g>
<!-- Node14 -->
<g id="node14" class="node"><title>Node14</title>
<g id="a_node14"><a xlink:href="../../d6/d7b/classcontroller_1_1_cell_society_controller.html#af6b4eb647c4e76fef6f27cc61ced4d9a" target="_top" xlink:title="controller.CellSocietyController.initialize\lSimulationScreen">
<polygon fill="white" stroke="black" points="1874.5,-231 1874.5,-261 2077.5,-261 2077.5,-231 1874.5,-231"/>
<text text-anchor="start" x="1882.5" y="-249" font-family="Helvetica,sans-Serif" font-size="10.00">controller.CellSocietyController.initialize</text>
<text text-anchor="middle" x="1976" y="-238" font-family="Helvetica,sans-Serif" font-size="10.00">SimulationScreen</text>
</a>
</g>
</g>
<!-- Node13&#45;&gt;Node14 -->
<g id="edge14" class="edge"><title>Node13&#45;&gt;Node14</title>
<path fill="none" stroke="midnightblue" d="M1807.95,-212.035C1834.32,-217.396 1864.2,-223.473 1891.33,-228.989"/>
<polygon fill="midnightblue" stroke="midnightblue" points="1890.7,-232.431 1901.19,-230.994 1892.09,-225.571 1890.7,-232.431"/>
</g>
<!-- Node18 -->
<g id="node18" class="node"><title>Node18</title>
<g id="a_node18"><a xlink:href="../../d6/d7b/classcontroller_1_1_cell_society_controller.html#a8af25de87ececa5ca913e7b5af486b3f" target="_top" xlink:title="controller.CellSocietyController.initialize\lSimulation">
<polygon fill="white" stroke="black" points="1874.5,-182 1874.5,-212 2077.5,-212 2077.5,-182 1874.5,-182"/>
<text text-anchor="start" x="1882.5" y="-200" font-family="Helvetica,sans-Serif" font-size="10.00">controller.CellSocietyController.initialize</text>
<text text-anchor="middle" x="1976" y="-189" font-family="Helvetica,sans-Serif" font-size="10.00">Simulation</text>
</a>
</g>
</g>
<!-- Node13&#45;&gt;Node18 -->
<g id="edge18" class="edge"><title>Node13&#45;&gt;Node18</title>
<path fill="none" stroke="midnightblue" d="M1838.3,-197C1846.9,-197 1855.61,-197 1864.25,-197"/>
<polygon fill="midnightblue" stroke="midnightblue" points="1864.35,-200.5 1874.35,-197 1864.35,-193.5 1864.35,-200.5"/>
</g>
<!-- Node19 -->
<g id="node19" class="node"><title>Node19</title>
<g id="a_node19"><a xlink:href="../../d6/d7b/classcontroller_1_1_cell_society_controller.html#a7609d9a174ff7d2d00fc27e3574cdb21" target="_top" xlink:title="controller.CellSocietyController.stop\lOrStart">
<polygon fill="white" stroke="black" points="1883,-133 1883,-163 2069,-163 2069,-133 1883,-133"/>
<text text-anchor="start" x="1891" y="-151" font-family="Helvetica,sans-Serif" font-size="10.00">controller.CellSocietyController.stop</text>
<text text-anchor="middle" x="1976" y="-140" font-family="Helvetica,sans-Serif" font-size="10.00">OrStart</text>
</a>
</g>
</g>
<!-- Node13&#45;&gt;Node19 -->
<g id="edge19" class="edge"><title>Node13&#45;&gt;Node19</title>
<path fill="none" stroke="midnightblue" d="M1807.95,-181.965C1834.32,-176.604 1864.2,-170.527 1891.33,-165.011"/>
<polygon fill="midnightblue" stroke="midnightblue" points="1892.09,-168.429 1901.19,-163.006 1890.7,-161.569 1892.09,-168.429"/>
</g>
<!-- Node15 -->
<g id="node15" class="node"><title>Node15</title>
<g id="a_node15"><a xlink:href="../../d1/d3e/classview_1_1_simulation_screen.html#a6c9f5c7e36be620d06e55709bc256d18" target="_top" xlink:title="view.SimulationScreen.init\lSimScreen">
<polygon fill="white" stroke="black" points="2142.5,-263 2142.5,-293 2283.5,-293 2283.5,-263 2142.5,-263"/>
<text text-anchor="start" x="2150.5" y="-281" font-family="Helvetica,sans-Serif" font-size="10.00">view.SimulationScreen.init</text>
<text text-anchor="middle" x="2213" y="-270" font-family="Helvetica,sans-Serif" font-size="10.00">SimScreen</text>
</a>
</g>
</g>
<!-- Node14&#45;&gt;Node15 -->
<g id="edge15" class="edge"><title>Node14&#45;&gt;Node15</title>
<path fill="none" stroke="midnightblue" d="M2077.68,-259.71C2095.91,-262.192 2114.68,-264.748 2132.21,-267.135"/>
<polygon fill="midnightblue" stroke="midnightblue" points="2131.99,-270.637 2142.37,-268.518 2132.93,-263.701 2131.99,-270.637"/>
</g>
<!-- Node17 -->
<g id="node17" class="node"><title>Node17</title>
<g id="a_node17"><a xlink:href="../../d1/d3e/classview_1_1_simulation_screen.html#a482a021910f4b997fb7b798bdc363df4" target="_top" xlink:title="view.SimulationScreen.getNode">
<polygon fill="white" stroke="black" points="2129,-224.5 2129,-243.5 2297,-243.5 2297,-224.5 2129,-224.5"/>
<text text-anchor="middle" x="2213" y="-231.5" font-family="Helvetica,sans-Serif" font-size="10.00">view.SimulationScreen.getNode</text>
</a>
</g>
</g>
<!-- Node14&#45;&gt;Node17 -->
<g id="edge17" class="edge"><title>Node14&#45;&gt;Node17</title>
<path fill="none" stroke="midnightblue" d="M2077.68,-240.859C2091.28,-240.164 2105.19,-239.454 2118.66,-238.767"/>
<polygon fill="midnightblue" stroke="midnightblue" points="2119.05,-242.251 2128.85,-238.246 2118.69,-235.26 2119.05,-242.251"/>
</g>
<!-- Node16 -->
<g id="node16" class="node"><title>Node16</title>
<g id="a_node16"><a xlink:href="../../d1/d3e/classview_1_1_simulation_screen.html#a7144a80861195f360ade7612b479ff3e" target="_top" xlink:title="view.SimulationScreen.add\lButtons">
<polygon fill="white" stroke="black" points="2348.5,-263 2348.5,-293 2493.5,-293 2493.5,-263 2348.5,-263"/>
<text text-anchor="start" x="2356.5" y="-281" font-family="Helvetica,sans-Serif" font-size="10.00">view.SimulationScreen.add</text>
<text text-anchor="middle" x="2421" y="-270" font-family="Helvetica,sans-Serif" font-size="10.00">Buttons</text>
</a>
</g>
</g>
<!-- Node15&#45;&gt;Node16 -->
<g id="edge16" class="edge"><title>Node15&#45;&gt;Node16</title>
<path fill="none" stroke="midnightblue" d="M2283.74,-278C2301.19,-278 2320.07,-278 2338.05,-278"/>
<polygon fill="midnightblue" stroke="midnightblue" points="2338.22,-281.5 2348.22,-278 2338.22,-274.5 2338.22,-281.5"/>
</g>
<!-- Node20 -->
<g id="node20" class="node"><title>Node20</title>
<g id="a_node20"><a xlink:href="../../d6/d7b/classcontroller_1_1_cell_society_controller.html#aec38c45810ee2665fe01832114fbc68d" target="_top" xlink:title="controller.CellSocietyController.restart\lSimulation">
<polygon fill="white" stroke="black" points="2114.5,-163 2114.5,-193 2311.5,-193 2311.5,-163 2114.5,-163"/>
<text text-anchor="start" x="2122.5" y="-181" font-family="Helvetica,sans-Serif" font-size="10.00">controller.CellSocietyController.restart</text>
<text text-anchor="middle" x="2213" y="-170" font-family="Helvetica,sans-Serif" font-size="10.00">Simulation</text>
</a>
</g>
</g>
<!-- Node19&#45;&gt;Node20 -->
<g id="edge20" class="edge"><title>Node19&#45;&gt;Node20</title>
<path fill="none" stroke="midnightblue" d="M2069.2,-159.771C2080.64,-161.231 2092.41,-162.734 2104.06,-164.221"/>
<polygon fill="midnightblue" stroke="midnightblue" points="2103.89,-167.727 2114.25,-165.521 2104.78,-160.783 2103.89,-167.727"/>
</g>
<!-- Node21 -->
<g id="node21" class="node"><title>Node21</title>
<g id="a_node21"><a xlink:href="../../d6/d7b/classcontroller_1_1_cell_society_controller.html#a33e7a77467ceeb880526a1b405b3ee79" target="_top" xlink:title="controller.CellSocietyController.pause\lSimulation">
<polygon fill="white" stroke="black" points="2116,-114 2116,-144 2310,-144 2310,-114 2116,-114"/>
<text text-anchor="start" x="2124" y="-132" font-family="Helvetica,sans-Serif" font-size="10.00">controller.CellSocietyController.pause</text>
<text text-anchor="middle" x="2213" y="-121" font-family="Helvetica,sans-Serif" font-size="10.00">Simulation</text>
</a>
</g>
</g>
<!-- Node19&#45;&gt;Node21 -->
<g id="edge21" class="edge"><title>Node19&#45;&gt;Node21</title>
<path fill="none" stroke="midnightblue" d="M2069.2,-140.545C2081.16,-139.579 2093.48,-138.582 2105.64,-137.599"/>
<polygon fill="midnightblue" stroke="midnightblue" points="2106.12,-141.072 2115.81,-136.777 2105.56,-134.095 2106.12,-141.072"/>
</g>
<!-- Node22&#45;&gt;Node4 -->
<g id="edge24" class="edge"><title>Node22&#45;&gt;Node4</title>
<path fill="none" stroke="midnightblue" d="M590.231,-146.455C606.849,-146.75 624.428,-147.061 641.375,-147.361"/>
<polygon fill="midnightblue" stroke="midnightblue" points="641.77,-150.868 651.831,-147.546 641.894,-143.869 641.77,-150.868"/>
</g>
<!-- Node23 -->
<g id="node23" class="node"><title>Node23</title>
<g id="a_node23"><a xlink:href="../../dd/d02/classview_1_1_splash_screen.html#a2f8c52e9a2a790459e51d5d42f16f7da" target="_top" xlink:title="view.SplashScreen.display\lAskInformatio">
<polygon fill="white" stroke="black" points="664.5,-88 664.5,-118 805.5,-118 805.5,-88 664.5,-88"/>
<text text-anchor="start" x="672.5" y="-106" font-family="Helvetica,sans-Serif" font-size="10.00">view.SplashScreen.display</text>
<text text-anchor="middle" x="735" y="-95" font-family="Helvetica,sans-Serif" font-size="10.00">AskInformatio</text>
</a>
</g>
</g>
<!-- Node22&#45;&gt;Node23 -->
<g id="edge25" class="edge"><title>Node22&#45;&gt;Node23</title>
<path fill="none" stroke="midnightblue" d="M588.953,-129.956C610.274,-125.993 633.255,-121.723 654.499,-117.774"/>
<polygon fill="midnightblue" stroke="midnightblue" points="655.256,-121.194 664.448,-115.926 653.977,-114.312 655.256,-121.194"/>
</g>
<!-- Node24 -->
<g id="node24" class="node"><title>Node24</title>
<g id="a_node24"><a xlink:href="../../dd/d02/classview_1_1_splash_screen.html#ab75deddb521d5727122eec02161acc9d" target="_top" xlink:title="view.SplashScreen.remove\lButtons">
<polygon fill="white" stroke="black" points="906.5,-132 906.5,-162 1051.5,-162 1051.5,-132 906.5,-132"/>
<text text-anchor="start" x="914.5" y="-150" font-family="Helvetica,sans-Serif" font-size="10.00">view.SplashScreen.remove</text>
<text text-anchor="middle" x="979" y="-139" font-family="Helvetica,sans-Serif" font-size="10.00">Buttons</text>
</a>
</g>
</g>
<!-- Node23&#45;&gt;Node24 -->
<g id="edge26" class="edge"><title>Node23&#45;&gt;Node24</title>
<path fill="none" stroke="midnightblue" d="M805.672,-115.668C834.024,-120.822 866.991,-126.816 896.453,-132.173"/>
<polygon fill="midnightblue" stroke="midnightblue" points="895.834,-135.618 906.299,-133.963 897.086,-128.731 895.834,-135.618"/>
</g>
<!-- Node25 -->
<g id="node25" class="node"><title>Node25</title>
<g id="a_node25"><a xlink:href="../../dd/d02/classview_1_1_splash_screen.html#ae484c2f05f910335ffacddd236eb4908" target="_top" xlink:title="view.SplashScreen.addDimensionsText">
<polygon fill="white" stroke="black" points="878.5,-93.5 878.5,-112.5 1079.5,-112.5 1079.5,-93.5 878.5,-93.5"/>
<text text-anchor="middle" x="979" y="-100.5" font-family="Helvetica,sans-Serif" font-size="10.00">view.SplashScreen.addDimensionsText</text>
</a>
</g>
</g>
<!-- Node23&#45;&gt;Node25 -->
<g id="edge27" class="edge"><title>Node23&#45;&gt;Node25</title>
<path fill="none" stroke="midnightblue" d="M805.672,-103C825.2,-103 846.917,-103 868.17,-103"/>
<polygon fill="midnightblue" stroke="midnightblue" points="868.223,-106.5 878.223,-103 868.223,-99.5001 868.223,-106.5"/>
</g>
<!-- Node26 -->
<g id="node26" class="node"><title>Node26</title>
<g id="a_node26"><a xlink:href="../../dd/d02/classview_1_1_splash_screen.html#ae4427d4a548843b069b35328182187fa" target="_top" xlink:title="view.SplashScreen.addSimulation\lNameText">
<polygon fill="white" stroke="black" points="890.5,-44 890.5,-74 1067.5,-74 1067.5,-44 890.5,-44"/>
<text text-anchor="start" x="898.5" y="-62" font-family="Helvetica,sans-Serif" font-size="10.00">view.SplashScreen.addSimulation</text>
<text text-anchor="middle" x="979" y="-51" font-family="Helvetica,sans-Serif" font-size="10.00">NameText</text>
</a>
</g>
</g>
<!-- Node23&#45;&gt;Node26 -->
<g id="edge28" class="edge"><title>Node23&#45;&gt;Node26</title>
<path fill="none" stroke="midnightblue" d="M805.672,-90.3324C830.435,-85.8301 858.718,-80.6876 885.113,-75.8886"/>
<polygon fill="midnightblue" stroke="midnightblue" points="885.912,-79.3007 895.125,-74.0682 884.66,-72.4136 885.912,-79.3007"/>
</g>
<!-- Node27 -->
<g id="node27" class="node"><title>Node27</title>
<g id="a_node27"><a xlink:href="../../dd/d02/classview_1_1_splash_screen.html#a05478a56856d70fd9508d79ca484fbca" target="_top" xlink:title="view.SplashScreen.addProbabilityText">
<polygon fill="white" stroke="black" points="882,-5.5 882,-24.5 1076,-24.5 1076,-5.5 882,-5.5"/>
<text text-anchor="middle" x="979" y="-12.5" font-family="Helvetica,sans-Serif" font-size="10.00">view.SplashScreen.addProbabilityText</text>
</a>
</g>
</g>
<!-- Node23&#45;&gt;Node27 -->
<g id="edge29" class="edge"><title>Node23&#45;&gt;Node27</title>
<path fill="none" stroke="midnightblue" d="M761.159,-87.9603C788.513,-72.2482 833.96,-47.9803 876,-34 884.321,-31.233 893.165,-28.8313 902.033,-26.7561"/>
<polygon fill="midnightblue" stroke="midnightblue" points="903.019,-30.1229 912.029,-24.5496 901.51,-23.2874 903.019,-30.1229"/>
</g>
<!-- Node33 -->
<g id="node33" class="node"><title>Node33</title>
<g id="a_node33"><a xlink:href="../../d6/d7b/classcontroller_1_1_cell_society_controller.html#ab65a8810efbc2b92e17ca77cdc591df9" target="_top" xlink:title="controller.CellSocietyController.generate\lRandomGrid">
<polygon fill="white" stroke="black" points="1118.5,-116 1118.5,-146 1327.5,-146 1327.5,-116 1118.5,-116"/>
<text text-anchor="start" x="1126.5" y="-134" font-family="Helvetica,sans-Serif" font-size="10.00">controller.CellSocietyController.generate</text>
<text text-anchor="middle" x="1223" y="-123" font-family="Helvetica,sans-Serif" font-size="10.00">RandomGrid</text>
</a>
</g>
</g>
<!-- Node23&#45;&gt;Node33 -->
<g id="edge36" class="edge"><title>Node23&#45;&gt;Node33</title>
<path fill="none" stroke="midnightblue" d="M805.504,-114.87C817.528,-118.62 829.518,-123.543 840,-130 860.647,-142.719 853.909,-160.999 876,-171 959.406,-208.76 992.222,-188.956 1082,-171 1099,-167.601 1101.52,-161.376 1118,-156 1125.99,-153.392 1134.41,-150.925 1142.86,-148.629"/>
<polygon fill="midnightblue" stroke="midnightblue" points="1143.98,-151.952 1152.76,-146.016 1142.2,-145.184 1143.98,-151.952"/>
</g>
<!-- Node28 -->
<g id="node28" class="node"><title>Node28</title>
<g id="a_node28"><a xlink:href="../../dd/d02/classview_1_1_splash_screen.html#a1e747e968477f14fbd6d6cd4a508e008" target="_top" xlink:title="view.SplashScreen.remove\lAskScreenNodes">
<polygon fill="white" stroke="black" points="1150.5,-49 1150.5,-79 1295.5,-79 1295.5,-49 1150.5,-49"/>
<text text-anchor="start" x="1158.5" y="-67" font-family="Helvetica,sans-Serif" font-size="10.00">view.SplashScreen.remove</text>
<text text-anchor="middle" x="1223" y="-56" font-family="Helvetica,sans-Serif" font-size="10.00">AskScreenNodes</text>
</a>
</g>
</g>
<!-- Node27&#45;&gt;Node28 -->
<g id="edge30" class="edge"><title>Node27&#45;&gt;Node28</title>
<path fill="none" stroke="midnightblue" d="M1032.73,-24.5422C1048.59,-27.487 1066.02,-30.7992 1082,-34 1102.02,-38.0082 1123.6,-42.5321 1143.68,-46.8284"/>
<polygon fill="midnightblue" stroke="midnightblue" points="1143.21,-50.3058 1153.72,-48.9829 1144.67,-43.4618 1143.21,-50.3058"/>
</g>
<!-- Node29 -->
<g id="node29" class="node"><title>Node29</title>
<g id="a_node29"><a xlink:href="../../d6/d7b/classcontroller_1_1_cell_society_controller.html#ada30fdc135cdf08b93065edf15ed3fcc" target="_top" xlink:title="controller.CellSocietyController.generate\lProbabilityRandomGrid">
<polygon fill="white" stroke="black" points="1118.5,-0 1118.5,-30 1327.5,-30 1327.5,-0 1118.5,-0"/>
<text text-anchor="start" x="1126.5" y="-18" font-family="Helvetica,sans-Serif" font-size="10.00">controller.CellSocietyController.generate</text>
<text text-anchor="middle" x="1223" y="-7" font-family="Helvetica,sans-Serif" font-size="10.00">ProbabilityRandomGrid</text>
</a>
</g>
</g>
<!-- Node27&#45;&gt;Node29 -->
<g id="edge31" class="edge"><title>Node27&#45;&gt;Node29</title>
<path fill="none" stroke="midnightblue" d="M1076.34,-15C1086.83,-15 1097.57,-15 1108.25,-15"/>
<polygon fill="midnightblue" stroke="midnightblue" points="1108.44,-18.5001 1118.44,-15 1108.44,-11.5001 1108.44,-18.5001"/>
</g>
<!-- Node30 -->
<g id="node30" class="node"><title>Node30</title>
<g id="a_node30"><a xlink:href="../../d6/d7b/classcontroller_1_1_cell_society_controller.html#a41b6379d34f94114f5ada21e3bb8b52e" target="_top" xlink:title="controller.CellSocietyController.generateGrid">
<polygon fill="white" stroke="black" points="1364,-121.5 1364,-140.5 1592,-140.5 1592,-121.5 1364,-121.5"/>
<text text-anchor="middle" x="1478" y="-128.5" font-family="Helvetica,sans-Serif" font-size="10.00">controller.CellSocietyController.generateGrid</text>
</a>
</g>
</g>
<!-- Node29&#45;&gt;Node30 -->
<g id="edge32" class="edge"><title>Node29&#45;&gt;Node30</title>
<path fill="none" stroke="midnightblue" d="M1301.83,-30.0082C1310.79,-32.6 1319.69,-35.5834 1328,-39 1377.22,-59.2323 1428.8,-94.8131 1456.49,-115.291"/>
<polygon fill="midnightblue" stroke="midnightblue" points="1454.51,-118.179 1464.61,-121.371 1458.71,-112.575 1454.51,-118.179"/>
</g>
<!-- Node30&#45;&gt;Node13 -->
<g id="edge35" class="edge"><title>Node30&#45;&gt;Node13</title>
<path fill="none" stroke="midnightblue" d="M1515.52,-140.526C1554.36,-150.658 1616.66,-166.91 1664.47,-179.384"/>
<polygon fill="midnightblue" stroke="midnightblue" points="1663.88,-182.847 1674.44,-181.985 1665.65,-176.074 1663.88,-182.847"/>
</g>
<!-- Node31 -->
<g id="node31" class="node"><title>Node31</title>
<g id="a_node31"><a xlink:href="../../d8/dd8/classcontroller_1_1_sim_generator.html#a56410ccebd07c1b6d1a3afb41d7997fc" target="_top" xlink:title="controller.SimGenerator.getGrid">
<polygon fill="white" stroke="black" points="1648.5,-86.5 1648.5,-105.5 1817.5,-105.5 1817.5,-86.5 1648.5,-86.5"/>
<text text-anchor="middle" x="1733" y="-93.5" font-family="Helvetica,sans-Serif" font-size="10.00">controller.SimGenerator.getGrid</text>
</a>
</g>
</g>
<!-- Node30&#45;&gt;Node31 -->
<g id="edge33" class="edge"><title>Node30&#45;&gt;Node31</title>
<path fill="none" stroke="midnightblue" d="M1547.8,-121.482C1580.29,-116.988 1619.24,-111.599 1652.94,-106.937"/>
<polygon fill="midnightblue" stroke="midnightblue" points="1653.79,-110.353 1663.21,-105.516 1652.83,-103.419 1653.79,-110.353"/>
</g>
<!-- Node32 -->
<g id="node32" class="node"><title>Node32</title>
<g id="a_node32"><a xlink:href="../../d8/dd8/classcontroller_1_1_sim_generator.html#a9fd6cebed37c16aad5e70dc966ac9fb5" target="_top" xlink:title="controller.SimGenerator.get\lParameters">
<polygon fill="white" stroke="black" points="1658.5,-125 1658.5,-155 1807.5,-155 1807.5,-125 1658.5,-125"/>
<text text-anchor="start" x="1666.5" y="-143" font-family="Helvetica,sans-Serif" font-size="10.00">controller.SimGenerator.get</text>
<text text-anchor="middle" x="1733" y="-132" font-family="Helvetica,sans-Serif" font-size="10.00">Parameters</text>
</a>
</g>
</g>
<!-- Node30&#45;&gt;Node32 -->
<g id="edge34" class="edge"><title>Node30&#45;&gt;Node32</title>
<path fill="none" stroke="midnightblue" d="M1592.18,-135.026C1611.08,-135.698 1630.37,-136.385 1648.36,-137.025"/>
<polygon fill="midnightblue" stroke="midnightblue" points="1648.37,-140.527 1658.49,-137.385 1648.62,-133.532 1648.37,-140.527"/>
</g>
<!-- Node33&#45;&gt;Node30 -->
<g id="edge37" class="edge"><title>Node33&#45;&gt;Node30</title>
<path fill="none" stroke="midnightblue" d="M1327.63,-131C1336.17,-131 1344.84,-131 1353.5,-131"/>
<polygon fill="midnightblue" stroke="midnightblue" points="1353.65,-134.5 1363.65,-131 1353.65,-127.5 1353.65,-134.5"/>
</g>
<!-- Node34&#45;&gt;Node4 -->
<g id="edge39" class="edge"><title>Node34&#45;&gt;Node4</title>
<path fill="none" stroke="midnightblue" d="M565.292,-111.065C585.676,-116.291 608.822,-122.071 630,-127 645.261,-130.552 661.839,-134.167 677.181,-137.414"/>
<polygon fill="midnightblue" stroke="midnightblue" points="676.552,-140.858 687.058,-139.489 677.992,-134.008 676.552,-140.858"/>
</g>
<!-- Node34&#45;&gt;Node23 -->
<g id="edge40" class="edge"><title>Node34&#45;&gt;Node23</title>
<path fill="none" stroke="midnightblue" d="M593.763,-98.6564C613.648,-99.2723 634.729,-99.9252 654.339,-100.533"/>
<polygon fill="midnightblue" stroke="midnightblue" points="654.342,-104.034 664.445,-100.846 654.559,-97.0377 654.342,-104.034"/>
</g>
</g>
</svg>
        <g id="navigator" transform="translate(0 0)" fill="#404254">
                <rect fill="#f2f5e9" fill-opacity="0.5" stroke="#606060" stroke-width=".5" x="0" y="0" width="60" height="60"/>
                <use id="zoomplus" xlink:href="#zoomPlus" x="17" y="9" onmousedown="handleZoom(evt,'in')"/>
                <use id="zoomminus" xlink:href="#zoomMin" x="42" y="9" onmousedown="handleZoom(evt,'out')"/>
                <use id="reset" xlink:href="#resetDef" x="30" y="36" onmousedown="handleReset()"/>
                <g id="arrowUp" xlink:href="#dirArrow" transform="translate(30 24)" onmousedown="handlePan(0,-1)">
                  <use xlink:href="#rim" fill="#404040">
                        <set attributeName="fill" to="#808080" begin="arrowUp.mouseover" end="arrowUp.mouseout"/>
                  </use>
                  <path fill="none" stroke="white" stroke-width="1.5" d="M0,-3.0v7 M-2.5,-0.5L0,-3.0L2.5,-0.5"/>
                </g>
                <g id="arrowRight" xlink:href="#dirArrow" transform="rotate(90) translate(36 -43)" onmousedown="handlePan(1,0)">
                  <use xlink:href="#rim" fill="#404040">
                        <set attributeName="fill" to="#808080" begin="arrowRight.mouseover" end="arrowRight.mouseout"/>
                  </use>
                  <path fill="none" stroke="white" stroke-width="1.5" d="M0,-3.0v7 M-2.5,-0.5L0,-3.0L2.5,-0.5"/>
                </g>
                <g id="arrowDown" xlink:href="#dirArrow" transform="rotate(180) translate(-30 -48)" onmousedown="handlePan(0,1)">
                  <use xlink:href="#rim" fill="#404040">
                        <set attributeName="fill" to="#808080" begin="arrowDown.mouseover" end="arrowDown.mouseout"/>
                  </use>
                  <path fill="none" stroke="white" stroke-width="1.5" d="M0,-3.0v7 M-2.5,-0.5L0,-3.0L2.5,-0.5"/>
                </g>
                <g id="arrowLeft" xlink:href="#dirArrow" transform="rotate(270) translate(-36 17)" onmousedown="handlePan(-1,0)">
                  <use xlink:href="#rim" fill="#404040">
                        <set attributeName="fill" to="#808080" begin="arrowLeft.mouseover" end="arrowLeft.mouseout"/>
                  </use>
                  <path fill="none" stroke="white" stroke-width="1.5" d="M0,-3.0v7 M-2.5,-0.5L0,-3.0L2.5,-0.5"/>
                </g>
        </g>
        <svg viewBox="0 0 15 15" width="100%" height="30px" preserveAspectRatio="xMaxYMin meet">
         <g id="arrow_out" transform="scale(0.3 0.3)">
          <a xlink:href="classcontroller_1_1_cell_society_controller_a3f78125e5b809d88d3cf7ed20b3756c2_cgraph_org.svg" target="_base">
           <rect id="button" ry="5" rx="5" y="6" x="6" height="38" width="38"
                fill="#f2f5e9" fill-opacity="0.5" stroke="#606060" stroke-width="1.0"/>
           <path id="arrow"
             d="M 11.500037,31.436501 C 11.940474,20.09759 22.043105,11.32322 32.158766,21.979434 L 37.068811,17.246167 C 37.068811,17.246167 37.088388,32 37.088388,32 L 22.160133,31.978069 C 22.160133,31.978069 26.997745,27.140456 26.997745,27.140456 C 18.528582,18.264221 13.291696,25.230495 11.500037,31.436501 z"
             style="fill:#404040;"/>
          </a>
         </g>
        </svg>
</svg>
