<?xml version="1.0" encoding="UTF-8" standalone="no"?>
<!DOCTYPE svg PUBLIC "-//W3C//DTD SVG 1.1//EN"
 "http://www.w3.org/Graphics/SVG/1.1/DTD/svg11.dtd">
<!-- Generated by graphviz version 2.36.0 (20140111.2315)
 -->
<!-- Title: controller.CellSocietyController.generateProbabilityRandomGrid Pages: 1 -->
<svg width="1458pt" height="87pt"
 viewBox="0.00 0.00 1458.00 87.00" xmlns="http://www.w3.org/2000/svg" xmlns:xlink="http://www.w3.org/1999/xlink">
<g id="graph0" class="graph" transform="scale(1 1) rotate(0) translate(4 83)">
<title>controller.CellSocietyController.generateProbabilityRandomGrid</title>
<polygon fill="white" stroke="none" points="-4,4 -4,-83 1454,-83 1454,4 -4,4"/>
<!-- Node1 -->
<g id="node1" class="node"><title>Node1</title>
<polygon fill="#bfbfbf" stroke="black" points="0.5,-24 0.5,-54 209.5,-54 209.5,-24 0.5,-24"/>
<text text-anchor="start" x="8.5" y="-42" font-family="Helvetica,sans-Serif" font-size="10.00">controller.CellSocietyController.generate</text>
<text text-anchor="middle" x="105" y="-31" font-family="Helvetica,sans-Serif" font-size="10.00">ProbabilityRandomGrid</text>
</g>
<!-- Node2 -->
<g id="node2" class="node"><title>Node2</title>
<g id="a_node2"><a xlink:href="../../dd/d02/classview_1_1_splash_screen.html#a05478a56856d70fd9508d79ca484fbca" target="_top" xlink:title="view.SplashScreen.addProbabilityText">
<polygon fill="white" stroke="black" points="246,-29.5 246,-48.5 440,-48.5 440,-29.5 246,-29.5"/>
<text text-anchor="middle" x="343" y="-36.5" font-family="Helvetica,sans-Serif" font-size="10.00">view.SplashScreen.addProbabilityText</text>
</a>
</g>
</g>
<!-- Node1&#45;&gt;Node2 -->
<g id="edge1" class="edge"><title>Node1&#45;&gt;Node2</title>
<path fill="none" stroke="midnightblue" d="M219.686,-39C228.374,-39 237.093,-39 245.655,-39"/>
<polygon fill="midnightblue" stroke="midnightblue" points="219.513,-35.5001 209.513,-39 219.513,-42.5001 219.513,-35.5001"/>
</g>
<!-- Node3 -->
<g id="node3" class="node"><title>Node3</title>
<g id="a_node3"><a xlink:href="../../dd/d02/classview_1_1_splash_screen.html#a2f8c52e9a2a790459e51d5d42f16f7da" target="_top" xlink:title="view.SplashScreen.display\lAskInformatio">
<polygon fill="white" stroke="black" points="476.5,-24 476.5,-54 617.5,-54 617.5,-24 476.5,-24"/>
<text text-anchor="start" x="484.5" y="-42" font-family="Helvetica,sans-Serif" font-size="10.00">view.SplashScreen.display</text>
<text text-anchor="middle" x="547" y="-31" font-family="Helvetica,sans-Serif" font-size="10.00">AskInformatio</text>
</a>
</g>
</g>
<!-- Node2&#45;&gt;Node3 -->
<g id="edge2" class="edge"><title>Node2&#45;&gt;Node3</title>
<path fill="none" stroke="midnightblue" d="M450.276,-39C459.134,-39 467.937,-39 476.412,-39"/>
<polygon fill="midnightblue" stroke="midnightblue" points="450.267,-35.5001 440.267,-39 450.267,-42.5001 450.267,-35.5001"/>
</g>
<!-- Node4 -->
<g id="node4" class="node"><title>Node4</title>
<g id="a_node4"><a xlink:href="../../dd/d02/classview_1_1_splash_screen.html#ad94d9edd23f270a5f480fd54a06d72f3" target="_top" xlink:title="view.SplashScreen.addProbablity\lButton">
<polygon fill="white" stroke="black" points="654.5,-49 654.5,-79 827.5,-79 827.5,-49 654.5,-49"/>
<text text-anchor="start" x="662.5" y="-67" font-family="Helvetica,sans-Serif" font-size="10.00">view.SplashScreen.addProbablity</text>
<text text-anchor="middle" x="741" y="-56" font-family="Helvetica,sans-Serif" font-size="10.00">Button</text>
</a>
</g>
</g>
<!-- Node3&#45;&gt;Node4 -->
<g id="edge3" class="edge"><title>Node3&#45;&gt;Node4</title>
<path fill="none" stroke="midnightblue" d="M627.76,-49.3855C636.514,-50.5253 645.453,-51.6892 654.275,-52.8379"/>
<polygon fill="midnightblue" stroke="midnightblue" points="627.956,-45.8815 617.588,-48.0609 627.052,-52.8229 627.956,-45.8815"/>
</g>
<!-- Node8 -->
<g id="node8" class="node"><title>Node8</title>
<g id="a_node8"><a xlink:href="../../dd/d02/classview_1_1_splash_screen.html#a17ba24f5ed477a37ea527710e54d65c8" target="_top" xlink:title="view.SplashScreen.addRandom\lButton">
<polygon fill="white" stroke="black" points="658,-0 658,-30 824,-30 824,-0 658,-0"/>
<text text-anchor="start" x="666" y="-18" font-family="Helvetica,sans-Serif" font-size="10.00">view.SplashScreen.addRandom</text>
<text text-anchor="middle" x="741" y="-7" font-family="Helvetica,sans-Serif" font-size="10.00">Button</text>
</a>
</g>
</g>
<!-- Node3&#45;&gt;Node8 -->
<g id="edge7" class="edge"><title>Node3&#45;&gt;Node8</title>
<path fill="none" stroke="midnightblue" d="M627.524,-29.0595C637.559,-27.8051 647.842,-26.5197 657.917,-25.2604"/>
<polygon fill="midnightblue" stroke="midnightblue" points="627.076,-25.5881 617.588,-30.3015 627.945,-32.5341 627.076,-25.5881"/>
</g>
<!-- Node5 -->
<g id="node5" class="node"><title>Node5</title>
<g id="a_node5"><a xlink:href="../../dd/d02/classview_1_1_splash_screen.html#a6ff42b7dad4e546981a3266f9d694f5a" target="_top" xlink:title="view.SplashScreen.getNode">
<polygon fill="white" stroke="black" points="864.5,-29.5 864.5,-48.5 1013.5,-48.5 1013.5,-29.5 864.5,-29.5"/>
<text text-anchor="middle" x="939" y="-36.5" font-family="Helvetica,sans-Serif" font-size="10.00">view.SplashScreen.getNode</text>
</a>
</g>
</g>
<!-- Node4&#45;&gt;Node5 -->
<g id="edge4" class="edge"><title>Node4&#45;&gt;Node5</title>
<path fill="none" stroke="midnightblue" d="M837.781,-51.783C846.749,-50.6392 855.741,-49.4922 864.458,-48.3804"/>
<polygon fill="midnightblue" stroke="midnightblue" points="837.16,-48.3338 827.683,-53.071 838.046,-55.2775 837.16,-48.3338"/>
</g>
<!-- Node6 -->
<g id="node6" class="node"><title>Node6</title>
<g id="a_node6"><a xlink:href="../../d6/d7b/classcontroller_1_1_cell_society_controller.html#a3f78125e5b809d88d3cf7ed20b3756c2" target="_top" xlink:title="controller.CellSocietyController.display\lSplashScreen">
<polygon fill="white" stroke="black" points="1050,-24 1050,-54 1248,-54 1248,-24 1050,-24"/>
<text text-anchor="start" x="1058" y="-42" font-family="Helvetica,sans-Serif" font-size="10.00">controller.CellSocietyController.display</text>
<text text-anchor="middle" x="1149" y="-31" font-family="Helvetica,sans-Serif" font-size="10.00">SplashScreen</text>
</a>
</g>
</g>
<!-- Node5&#45;&gt;Node6 -->
<g id="edge5" class="edge"><title>Node5&#45;&gt;Node6</title>
<path fill="none" stroke="midnightblue" d="M1023.88,-39C1032.38,-39 1041.07,-39 1049.7,-39"/>
<polygon fill="midnightblue" stroke="midnightblue" points="1023.63,-35.5001 1013.63,-39 1023.63,-42.5001 1023.63,-35.5001"/>
</g>
<!-- Node7 -->
<g id="node7" class="node"><title>Node7</title>
<g id="a_node7"><a xlink:href="../../d6/d7b/classcontroller_1_1_cell_society_controller.html#a6a2310de67e415512149c94c9f36e356" target="_top" xlink:title="controller.CellSocietyController.\lCellSocietyController">
<polygon fill="white" stroke="black" points="1284.5,-24 1284.5,-54 1449.5,-54 1449.5,-24 1284.5,-24"/>
<text text-anchor="start" x="1292.5" y="-42" font-family="Helvetica,sans-Serif" font-size="10.00">controller.CellSocietyController.</text>
<text text-anchor="middle" x="1367" y="-31" font-family="Helvetica,sans-Serif" font-size="10.00">CellSocietyController</text>
</a>
</g>
</g>
<!-- Node6&#45;&gt;Node7 -->
<g id="edge6" class="edge"><title>Node6&#45;&gt;Node7</title>
<path fill="none" stroke="midnightblue" d="M1258.38,-39C1267.07,-39 1275.75,-39 1284.2,-39"/>
<polygon fill="midnightblue" stroke="midnightblue" points="1258.2,-35.5001 1248.2,-39 1258.2,-42.5001 1258.2,-35.5001"/>
</g>
<!-- Node8&#45;&gt;Node5 -->
<g id="edge8" class="edge"><title>Node8&#45;&gt;Node5</title>
<path fill="none" stroke="midnightblue" d="M834.307,-26.3029C844.387,-27.5371 854.547,-28.7813 864.359,-29.9828"/>
<polygon fill="midnightblue" stroke="midnightblue" points="834.621,-22.8153 824.27,-25.0738 833.77,-29.7634 834.621,-22.8153"/>
</g>
</g>
</svg>
