<?xml version="1.0" encoding="UTF-8" standalone="no"?>
<!DOCTYPE svg PUBLIC "-//W3C//DTD SVG 1.1//EN"
 "http://www.w3.org/Graphics/SVG/1.1/DTD/svg11.dtd">
<!-- Generated by graphviz version 2.36.0 (20140111.2315)
 -->
<!-- Title: controller.CellSocietyController.generateProbabilityRandomGrid Pages: 1 -->
<!--zoomable 204 -->
<svg id="main" version="1.1" xmlns="http://www.w3.org/2000/svg" xmlns:xlink="http://www.w3.org/1999/xlink" xml:space="preserve" onload="init(evt)">
<style type="text/css"><![CDATA[
.edge:hover path { stroke: red; }
.edge:hover polygon { stroke: red; fill: red; }
]]></style>
<script type="text/javascript"><![CDATA[
var edges = document.getElementsByTagName('g');
if (edges && edges.length) {
  for (var i=0;i<edges.length;i++) {
    if (edges[i].id.substr(0,4)=='edge') {
      edges[i].setAttribute('class','edge');
    }
  }
}
]]></script>
        <defs>
                <circle id="rim" cx="0" cy="0" r="7"/>
                <circle id="rim2" cx="0" cy="0" r="3.5"/>
                <g id="zoomPlus">
                        <use xlink:href="#rim" fill="#404040">
                                <set attributeName="fill" to="#808080" begin="zoomplus.mouseover" end="zoomplus.mouseout"/>
                        </use>
                        <path d="M-4,0h8M0,-4v8" fill="none" stroke="white" stroke-width="1.5" pointer-events="none"/>
                </g>
                <g id="zoomMin">
                        <use xlink:href="#rim" fill="#404040">
                                <set attributeName="fill" to="#808080" begin="zoomminus.mouseover" end="zoomminus.mouseout"/>
                        </use>
                        <path d="M-4,0h8" fill="none" stroke="white" stroke-width="1.5" pointer-events="none"/>
                </g>
                <g id="dirArrow">
                        <path fill="none" stroke="white" stroke-width="1.5" d="M0,-3.0v7 M-2.5,-0.5L0,-3.0L2.5,-0.5"/>
                </g>
               <g id="resetDef">
                       <use xlink:href="#rim2" fill="#404040">
                               <set attributeName="fill" to="#808080" begin="reset.mouseover" end="reset.mouseout"/>
                       </use>
               </g>
        </defs>

<script type="text/javascript">
var viewWidth = 1120;
var viewHeight = 204;
var sectionId = 'dynsection-8';
</script>
<script xlink:href="../../svgpan.js"/>
<svg id="graph" class="graph">
<g id="viewport">
<title>controller.CellSocietyController.generateProbabilityRandomGrid</title>
<polygon fill="white" stroke="none" points="-4,4 -4,-200 1116,-200 1116,4 -4,4"/>
<!-- Node1 -->
<g id="node1" class="node"><title>Node1</title>
<polygon fill="#bfbfbf" stroke="black" points="0.5,-117 0.5,-147 209.5,-147 209.5,-117 0.5,-117"/>
<text text-anchor="start" x="8.5" y="-135" font-family="Helvetica,sans-Serif" font-size="10.00">controller.CellSocietyController.generate</text>
<text text-anchor="middle" x="105" y="-124" font-family="Helvetica,sans-Serif" font-size="10.00">ProbabilityRandomGrid</text>
</g>
<!-- Node2 -->
<g id="node2" class="node"><title>Node2</title>
<g id="a_node2"><a xlink:href="../../d3/dc8/classcontroller_1_1_probability_sim_generator.html#a66a18a40b330a1650ff804385ed3abc2" target="_top" xlink:title="controller.ProbabilitySim\lGenerator.getGrid">
<polygon fill="white" stroke="black" points="285,-166 285,-196 417,-196 417,-166 285,-166"/>
<text text-anchor="start" x="293" y="-184" font-family="Helvetica,sans-Serif" font-size="10.00">controller.ProbabilitySim</text>
<text text-anchor="middle" x="351" y="-173" font-family="Helvetica,sans-Serif" font-size="10.00">Generator.getGrid</text>
</a>
</g>
</g>
<!-- Node1&#45;&gt;Node2 -->
<g id="edge1" class="edge"><title>Node1&#45;&gt;Node2</title>
<path fill="none" stroke="midnightblue" d="M180.866,-147.035C210.695,-153.025 244.966,-159.907 274.825,-165.903"/>
<polygon fill="midnightblue" stroke="midnightblue" points="274.276,-169.363 284.77,-167.9 275.655,-162.5 274.276,-169.363"/>
</g>
<!-- Node3 -->
<g id="node3" class="node"><title>Node3</title>
<g id="a_node3"><a xlink:href="../../d3/dc8/classcontroller_1_1_probability_sim_generator.html#aa5aa2ef09d94ff11c6912b34fafa1d4a" target="_top" xlink:title="controller.ProbabilitySim\lGenerator.getParameters">
<polygon fill="white" stroke="black" points="281.5,-117 281.5,-147 420.5,-147 420.5,-117 281.5,-117"/>
<text text-anchor="start" x="289.5" y="-135" font-family="Helvetica,sans-Serif" font-size="10.00">controller.ProbabilitySim</text>
<text text-anchor="middle" x="351" y="-124" font-family="Helvetica,sans-Serif" font-size="10.00">Generator.getParameters</text>
</a>
</g>
</g>
<!-- Node1&#45;&gt;Node3 -->
<g id="edge2" class="edge"><title>Node1&#45;&gt;Node3</title>
<path fill="none" stroke="midnightblue" d="M209.832,-132C230.376,-132 251.624,-132 271.174,-132"/>
<polygon fill="midnightblue" stroke="midnightblue" points="271.229,-135.5 281.229,-132 271.229,-128.5 271.229,-135.5"/>
</g>
<!-- Node4 -->
<g id="node4" class="node"><title>Node4</title>
<g id="a_node4"><a xlink:href="../../d6/d7b/classcontroller_1_1_cell_society_controller.html#a3d913ad3344ac48e887110e2fabb5746" target="_top" xlink:title="controller.CellSocietyController.transition\lToSimulation">
<polygon fill="white" stroke="black" points="246,-68 246,-98 456,-98 456,-68 246,-68"/>
<text text-anchor="start" x="254" y="-86" font-family="Helvetica,sans-Serif" font-size="10.00">controller.CellSocietyController.transition</text>
<text text-anchor="middle" x="351" y="-75" font-family="Helvetica,sans-Serif" font-size="10.00">ToSimulation</text>
</a>
</g>
</g>
<!-- Node1&#45;&gt;Node4 -->
<g id="edge3" class="edge"><title>Node1&#45;&gt;Node4</title>
<path fill="none" stroke="midnightblue" d="M180.866,-116.965C207.566,-111.604 237.825,-105.527 265.293,-100.011"/>
<polygon fill="midnightblue" stroke="midnightblue" points="266.16,-103.407 275.275,-98.0062 264.782,-96.5437 266.16,-103.407"/>
</g>
<!-- Node5 -->
<g id="node5" class="node"><title>Node5</title>
<g id="a_node5"><a xlink:href="../../d6/d7b/classcontroller_1_1_cell_society_controller.html#af6b4eb647c4e76fef6f27cc61ced4d9a" target="_top" xlink:title="controller.CellSocietyController.initialize\lSimulationScreen">
<polygon fill="white" stroke="black" points="492.5,-117 492.5,-147 695.5,-147 695.5,-117 492.5,-117"/>
<text text-anchor="start" x="500.5" y="-135" font-family="Helvetica,sans-Serif" font-size="10.00">controller.CellSocietyController.initialize</text>
<text text-anchor="middle" x="594" y="-124" font-family="Helvetica,sans-Serif" font-size="10.00">SimulationScreen</text>
</a>
</g>
</g>
<!-- Node4&#45;&gt;Node5 -->
<g id="edge4" class="edge"><title>Node4&#45;&gt;Node5</title>
<path fill="none" stroke="midnightblue" d="M425.946,-98.0346C452.317,-103.396 482.204,-109.473 509.335,-114.989"/>
<polygon fill="midnightblue" stroke="midnightblue" points="508.697,-118.431 519.194,-116.994 510.092,-111.571 508.697,-118.431"/>
</g>
<!-- Node9 -->
<g id="node9" class="node"><title>Node9</title>
<g id="a_node9"><a xlink:href="../../d6/d7b/classcontroller_1_1_cell_society_controller.html#a8af25de87ececa5ca913e7b5af486b3f" target="_top" xlink:title="controller.CellSocietyController.initialize\lSimulation">
<polygon fill="white" stroke="black" points="492.5,-68 492.5,-98 695.5,-98 695.5,-68 492.5,-68"/>
<text text-anchor="start" x="500.5" y="-86" font-family="Helvetica,sans-Serif" font-size="10.00">controller.CellSocietyController.initialize</text>
<text text-anchor="middle" x="594" y="-75" font-family="Helvetica,sans-Serif" font-size="10.00">Simulation</text>
</a>
</g>
</g>
<!-- Node4&#45;&gt;Node9 -->
<g id="edge8" class="edge"><title>Node4&#45;&gt;Node9</title>
<path fill="none" stroke="midnightblue" d="M456.304,-83C464.899,-83 473.606,-83 482.246,-83"/>
<polygon fill="midnightblue" stroke="midnightblue" points="482.346,-86.5001 492.346,-83 482.346,-79.5001 482.346,-86.5001"/>
</g>
<!-- Node10 -->
<g id="node10" class="node"><title>Node10</title>
<g id="a_node10"><a xlink:href="../../d6/d7b/classcontroller_1_1_cell_society_controller.html#a7609d9a174ff7d2d00fc27e3574cdb21" target="_top" xlink:title="controller.CellSocietyController.stop\lOrStart">
<polygon fill="white" stroke="black" points="501,-19 501,-49 687,-49 687,-19 501,-19"/>
<text text-anchor="start" x="509" y="-37" font-family="Helvetica,sans-Serif" font-size="10.00">controller.CellSocietyController.stop</text>
<text text-anchor="middle" x="594" y="-26" font-family="Helvetica,sans-Serif" font-size="10.00">OrStart</text>
</a>
</g>
</g>
<!-- Node4&#45;&gt;Node10 -->
<g id="edge9" class="edge"><title>Node4&#45;&gt;Node10</title>
<path fill="none" stroke="midnightblue" d="M425.946,-67.9654C452.317,-62.6035 482.204,-56.5269 509.335,-51.0108"/>
<polygon fill="midnightblue" stroke="midnightblue" points="510.092,-54.4285 519.194,-49.0062 508.697,-47.5689 510.092,-54.4285"/>
</g>
<!-- Node6 -->
<g id="node6" class="node"><title>Node6</title>
<g id="a_node6"><a xlink:href="../../d1/d3e/classview_1_1_simulation_screen.html#a6c9f5c7e36be620d06e55709bc256d18" target="_top" xlink:title="view.SimulationScreen.init\lSimScreen">
<polygon fill="white" stroke="black" points="760.5,-149 760.5,-179 901.5,-179 901.5,-149 760.5,-149"/>
<text text-anchor="start" x="768.5" y="-167" font-family="Helvetica,sans-Serif" font-size="10.00">view.SimulationScreen.init</text>
<text text-anchor="middle" x="831" y="-156" font-family="Helvetica,sans-Serif" font-size="10.00">SimScreen</text>
</a>
</g>
</g>
<!-- Node5&#45;&gt;Node6 -->
<g id="edge5" class="edge"><title>Node5&#45;&gt;Node6</title>
<path fill="none" stroke="midnightblue" d="M695.684,-145.71C713.908,-148.192 732.683,-150.748 750.207,-153.135"/>
<polygon fill="midnightblue" stroke="midnightblue" points="749.985,-156.637 760.366,-154.518 750.93,-149.701 749.985,-156.637"/>
</g>
<!-- Node8 -->
<g id="node8" class="node"><title>Node8</title>
<g id="a_node8"><a xlink:href="../../d1/d3e/classview_1_1_simulation_screen.html#a482a021910f4b997fb7b798bdc363df4" target="_top" xlink:title="view.SimulationScreen.getNode">
<polygon fill="white" stroke="black" points="747,-110.5 747,-129.5 915,-129.5 915,-110.5 747,-110.5"/>
<text text-anchor="middle" x="831" y="-117.5" font-family="Helvetica,sans-Serif" font-size="10.00">view.SimulationScreen.getNode</text>
</a>
</g>
</g>
<!-- Node5&#45;&gt;Node8 -->
<g id="edge7" class="edge"><title>Node5&#45;&gt;Node8</title>
<path fill="none" stroke="midnightblue" d="M695.684,-126.859C709.284,-126.164 723.191,-125.454 736.656,-124.767"/>
<polygon fill="midnightblue" stroke="midnightblue" points="737.045,-128.251 746.854,-124.246 736.688,-121.26 737.045,-128.251"/>
</g>
<!-- Node7 -->
<g id="node7" class="node"><title>Node7</title>
<g id="a_node7"><a xlink:href="../../d1/d3e/classview_1_1_simulation_screen.html#a7144a80861195f360ade7612b479ff3e" target="_top" xlink:title="view.SimulationScreen.add\lButtons">
<polygon fill="white" stroke="black" points="966.5,-149 966.5,-179 1111.5,-179 1111.5,-149 966.5,-149"/>
<text text-anchor="start" x="974.5" y="-167" font-family="Helvetica,sans-Serif" font-size="10.00">view.SimulationScreen.add</text>
<text text-anchor="middle" x="1039" y="-156" font-family="Helvetica,sans-Serif" font-size="10.00">Buttons</text>
</a>
</g>
</g>
<!-- Node6&#45;&gt;Node7 -->
<g id="edge6" class="edge"><title>Node6&#45;&gt;Node7</title>
<path fill="none" stroke="midnightblue" d="M901.742,-164C919.191,-164 938.067,-164 956.049,-164"/>
<polygon fill="midnightblue" stroke="midnightblue" points="956.222,-167.5 966.222,-164 956.222,-160.5 956.222,-167.5"/>
</g>
<!-- Node11 -->
<g id="node11" class="node"><title>Node11</title>
<g id="a_node11"><a xlink:href="../../d6/d7b/classcontroller_1_1_cell_society_controller.html#aec38c45810ee2665fe01832114fbc68d" target="_top" xlink:title="controller.CellSocietyController.restart\lSimulation">
<polygon fill="white" stroke="black" points="732.5,-49 732.5,-79 929.5,-79 929.5,-49 732.5,-49"/>
<text text-anchor="start" x="740.5" y="-67" font-family="Helvetica,sans-Serif" font-size="10.00">controller.CellSocietyController.restart</text>
<text text-anchor="middle" x="831" y="-56" font-family="Helvetica,sans-Serif" font-size="10.00">Simulation</text>
</a>
</g>
</g>
<!-- Node10&#45;&gt;Node11 -->
<g id="edge10" class="edge"><title>Node10&#45;&gt;Node11</title>
<path fill="none" stroke="midnightblue" d="M687.204,-45.7707C698.641,-47.2308 710.414,-48.7337 722.061,-50.2205"/>
<polygon fill="midnightblue" stroke="midnightblue" points="721.889,-53.7269 732.252,-51.5215 722.775,-46.7833 721.889,-53.7269"/>
</g>
<!-- Node12 -->
<g id="node12" class="node"><title>Node12</title>
<g id="a_node12"><a xlink:href="../../d6/d7b/classcontroller_1_1_cell_society_controller.html#a33e7a77467ceeb880526a1b405b3ee79" target="_top" xlink:title="controller.CellSocietyController.pause\lSimulation">
<polygon fill="white" stroke="black" points="734,-0 734,-30 928,-30 928,-0 734,-0"/>
<text text-anchor="start" x="742" y="-18" font-family="Helvetica,sans-Serif" font-size="10.00">controller.CellSocietyController.pause</text>
<text text-anchor="middle" x="831" y="-7" font-family="Helvetica,sans-Serif" font-size="10.00">Simulation</text>
</a>
</g>
</g>
<!-- Node10&#45;&gt;Node12 -->
<g id="edge11" class="edge"><title>Node10&#45;&gt;Node12</title>
<path fill="none" stroke="midnightblue" d="M687.204,-26.5452C699.158,-25.5787 711.48,-24.5825 723.64,-23.5993"/>
<polygon fill="midnightblue" stroke="midnightblue" points="724.121,-27.072 733.806,-22.7774 723.556,-20.0947 724.121,-27.072"/>
</g>
</g>
</svg>
        <g id="navigator" transform="translate(0 0)" fill="#404254">
                <rect fill="#f2f5e9" fill-opacity="0.5" stroke="#606060" stroke-width=".5" x="0" y="0" width="60" height="60"/>
                <use id="zoomplus" xlink:href="#zoomPlus" x="17" y="9" onmousedown="handleZoom(evt,'in')"/>
                <use id="zoomminus" xlink:href="#zoomMin" x="42" y="9" onmousedown="handleZoom(evt,'out')"/>
                <use id="reset" xlink:href="#resetDef" x="30" y="36" onmousedown="handleReset()"/>
                <g id="arrowUp" xlink:href="#dirArrow" transform="translate(30 24)" onmousedown="handlePan(0,-1)">
                  <use xlink:href="#rim" fill="#404040">
                        <set attributeName="fill" to="#808080" begin="arrowUp.mouseover" end="arrowUp.mouseout"/>
                  </use>
                  <path fill="none" stroke="white" stroke-width="1.5" d="M0,-3.0v7 M-2.5,-0.5L0,-3.0L2.5,-0.5"/>
                </g>
                <g id="arrowRight" xlink:href="#dirArrow" transform="rotate(90) translate(36 -43)" onmousedown="handlePan(1,0)">
                  <use xlink:href="#rim" fill="#404040">
                        <set attributeName="fill" to="#808080" begin="arrowRight.mouseover" end="arrowRight.mouseout"/>
                  </use>
                  <path fill="none" stroke="white" stroke-width="1.5" d="M0,-3.0v7 M-2.5,-0.5L0,-3.0L2.5,-0.5"/>
                </g>
                <g id="arrowDown" xlink:href="#dirArrow" transform="rotate(180) translate(-30 -48)" onmousedown="handlePan(0,1)">
                  <use xlink:href="#rim" fill="#404040">
                        <set attributeName="fill" to="#808080" begin="arrowDown.mouseover" end="arrowDown.mouseout"/>
                  </use>
                  <path fill="none" stroke="white" stroke-width="1.5" d="M0,-3.0v7 M-2.5,-0.5L0,-3.0L2.5,-0.5"/>
                </g>
                <g id="arrowLeft" xlink:href="#dirArrow" transform="rotate(270) translate(-36 17)" onmousedown="handlePan(-1,0)">
                  <use xlink:href="#rim" fill="#404040">
                        <set attributeName="fill" to="#808080" begin="arrowLeft.mouseover" end="arrowLeft.mouseout"/>
                  </use>
                  <path fill="none" stroke="white" stroke-width="1.5" d="M0,-3.0v7 M-2.5,-0.5L0,-3.0L2.5,-0.5"/>
                </g>
        </g>
        <svg viewBox="0 0 15 15" width="100%" height="30px" preserveAspectRatio="xMaxYMin meet">
         <g id="arrow_out" transform="scale(0.3 0.3)">
          <a xlink:href="classcontroller_1_1_cell_society_controller_ada30fdc135cdf08b93065edf15ed3fcc_cgraph_org.svg" target="_base">
           <rect id="button" ry="5" rx="5" y="6" x="6" height="38" width="38"
                fill="#f2f5e9" fill-opacity="0.5" stroke="#606060" stroke-width="1.0"/>
           <path id="arrow"
             d="M 11.500037,31.436501 C 11.940474,20.09759 22.043105,11.32322 32.158766,21.979434 L 37.068811,17.246167 C 37.068811,17.246167 37.088388,32 37.088388,32 L 22.160133,31.978069 C 22.160133,31.978069 26.997745,27.140456 26.997745,27.140456 C 18.528582,18.264221 13.291696,25.230495 11.500037,31.436501 z"
             style="fill:#404040;"/>
          </a>
         </g>
        </svg>
</svg>
