<?xml version="1.0" encoding="UTF-8" standalone="no"?>
<!DOCTYPE svg PUBLIC "-//W3C//DTD SVG 1.1//EN"
 "http://www.w3.org/Graphics/SVG/1.1/DTD/svg11.dtd">
<!-- Generated by graphviz version 2.36.0 (20140111.2315)
 -->
<!-- Title: controller.CellSocietyController.restartSimulation Pages: 1 -->
<!--zoomable 194 -->
<svg id="main" version="1.1" xmlns="http://www.w3.org/2000/svg" xmlns:xlink="http://www.w3.org/1999/xlink" xml:space="preserve" onload="init(evt)">
<style type="text/css"><![CDATA[
.edge:hover path { stroke: red; }
.edge:hover polygon { stroke: red; fill: red; }
]]></style>
<script type="text/javascript"><![CDATA[
var edges = document.getElementsByTagName('g');
if (edges && edges.length) {
  for (var i=0;i<edges.length;i++) {
    if (edges[i].id.substr(0,4)=='edge') {
      edges[i].setAttribute('class','edge');
    }
  }
}
]]></script>
        <defs>
                <circle id="rim" cx="0" cy="0" r="7"/>
                <circle id="rim2" cx="0" cy="0" r="3.5"/>
                <g id="zoomPlus">
                        <use xlink:href="#rim" fill="#404040">
                                <set attributeName="fill" to="#808080" begin="zoomplus.mouseover" end="zoomplus.mouseout"/>
                        </use>
                        <path d="M-4,0h8M0,-4v8" fill="none" stroke="white" stroke-width="1.5" pointer-events="none"/>
                </g>
                <g id="zoomMin">
                        <use xlink:href="#rim" fill="#404040">
                                <set attributeName="fill" to="#808080" begin="zoomminus.mouseover" end="zoomminus.mouseout"/>
                        </use>
                        <path d="M-4,0h8" fill="none" stroke="white" stroke-width="1.5" pointer-events="none"/>
                </g>
                <g id="dirArrow">
                        <path fill="none" stroke="white" stroke-width="1.5" d="M0,-3.0v7 M-2.5,-0.5L0,-3.0L2.5,-0.5"/>
                </g>
               <g id="resetDef">
                       <use xlink:href="#rim2" fill="#404040">
                               <set attributeName="fill" to="#808080" begin="reset.mouseover" end="reset.mouseout"/>
                       </use>
               </g>
        </defs>

<script type="text/javascript">
var viewWidth = 2466;
var viewHeight = 194;
var sectionId = 'dynsection-25';
</script>
<script xlink:href="../../svgpan.js"/>
<svg id="graph" class="graph">
<g id="viewport">
<title>controller.CellSocietyController.restartSimulation</title>
<polygon fill="white" stroke="none" points="-4,4 -4,-190 2462,-190 2462,4 -4,4"/>
<!-- Node1 -->
<g id="node1" class="node"><title>Node1</title>
<polygon fill="#bfbfbf" stroke="black" points="0.5,-28 0.5,-58 197.5,-58 197.5,-28 0.5,-28"/>
<text text-anchor="start" x="8.5" y="-46" font-family="Helvetica,sans-Serif" font-size="10.00">controller.CellSocietyController.restart</text>
<text text-anchor="middle" x="99" y="-35" font-family="Helvetica,sans-Serif" font-size="10.00">Simulation</text>
</g>
<!-- Node2 -->
<g id="node2" class="node"><title>Node2</title>
<g id="a_node2"><a xlink:href="../../d6/d7b/classcontroller_1_1_cell_society_controller.html#a7609d9a174ff7d2d00fc27e3574cdb21" target="_top" xlink:title="controller.CellSocietyController.stop\lOrStart">
<polygon fill="white" stroke="black" points="234,-28 234,-58 420,-58 420,-28 234,-28"/>
<text text-anchor="start" x="242" y="-46" font-family="Helvetica,sans-Serif" font-size="10.00">controller.CellSocietyController.stop</text>
<text text-anchor="middle" x="327" y="-35" font-family="Helvetica,sans-Serif" font-size="10.00">OrStart</text>
</a>
</g>
</g>
<!-- Node1&#45;&gt;Node2 -->
<g id="edge1" class="edge"><title>Node1&#45;&gt;Node2</title>
<path fill="none" stroke="midnightblue" d="M207.92,-43C216.557,-43 225.233,-43 233.746,-43"/>
<polygon fill="midnightblue" stroke="midnightblue" points="207.812,-39.5001 197.812,-43 207.812,-46.5001 207.812,-39.5001"/>
</g>
<!-- Node3 -->
<g id="node3" class="node"><title>Node3</title>
<g id="a_node3"><a xlink:href="../../d6/d7b/classcontroller_1_1_cell_society_controller.html#a3d913ad3344ac48e887110e2fabb5746" target="_top" xlink:title="controller.CellSocietyController.transition\lToSimulation">
<polygon fill="white" stroke="black" points="456,-56 456,-86 666,-86 666,-56 456,-56"/>
<text text-anchor="start" x="464" y="-74" font-family="Helvetica,sans-Serif" font-size="10.00">controller.CellSocietyController.transition</text>
<text text-anchor="middle" x="561" y="-63" font-family="Helvetica,sans-Serif" font-size="10.00">ToSimulation</text>
</a>
</g>
</g>
<!-- Node2&#45;&gt;Node3 -->
<g id="edge2" class="edge"><title>Node2&#45;&gt;Node3</title>
<path fill="none" stroke="midnightblue" d="M430.023,-55.3131C438.589,-56.347 447.259,-57.3933 455.841,-58.4291"/>
<polygon fill="midnightblue" stroke="midnightblue" points="430.373,-51.8301 420.026,-54.1066 429.534,-58.7796 430.373,-51.8301"/>
</g>
<!-- Node19 -->
<g id="node19" class="node"><title>Node19</title>
<g id="a_node19"><a xlink:href="../../d3/d48/classview_1_1_top_menu.html#a40539df58de6aa71c37c6f2a3072b478" target="_top" xlink:title="view.TopMenu.addStopStart\lButton">
<polygon fill="white" stroke="black" points="486.5,-0 486.5,-30 635.5,-30 635.5,-0 486.5,-0"/>
<text text-anchor="start" x="494.5" y="-18" font-family="Helvetica,sans-Serif" font-size="10.00">view.TopMenu.addStopStart</text>
<text text-anchor="middle" x="561" y="-7" font-family="Helvetica,sans-Serif" font-size="10.00">Button</text>
</a>
</g>
</g>
<!-- Node2&#45;&gt;Node19 -->
<g id="edge22" class="edge"><title>Node2&#45;&gt;Node19</title>
<path fill="none" stroke="midnightblue" d="M430.158,-30.6706C449.062,-28.389 468.464,-26.0475 486.316,-23.8929"/>
<polygon fill="midnightblue" stroke="midnightblue" points="429.534,-27.2204 420.026,-31.8934 430.373,-34.1699 429.534,-27.2204"/>
</g>
<!-- Node4 -->
<g id="node4" class="node"><title>Node4</title>
<g id="a_node4"><a xlink:href="../../d6/d7b/classcontroller_1_1_cell_society_controller.html#a41b6379d34f94114f5ada21e3bb8b52e" target="_top" xlink:title="controller.CellSocietyController.generateGrid">
<polygon fill="white" stroke="black" points="702,-112.5 702,-131.5 930,-131.5 930,-112.5 702,-112.5"/>
<text text-anchor="middle" x="816" y="-119.5" font-family="Helvetica,sans-Serif" font-size="10.00">controller.CellSocietyController.generateGrid</text>
</a>
</g>
</g>
<!-- Node3&#45;&gt;Node4 -->
<g id="edge3" class="edge"><title>Node3&#45;&gt;Node4</title>
<path fill="none" stroke="midnightblue" d="M646.386,-88.0106C686.768,-96.1508 733.613,-105.594 767.663,-112.458"/>
<polygon fill="midnightblue" stroke="midnightblue" points="647.034,-84.571 636.54,-86.0258 645.651,-91.433 647.034,-84.571"/>
</g>
<!-- Node14 -->
<g id="node14" class="node"><title>Node14</title>
<g id="a_node14"><a xlink:href="../../d6/d7b/classcontroller_1_1_cell_society_controller.html#a643c7ac22f2822fa7e492dbf4267ed21" target="_top" xlink:title="controller.CellSocietyController.readXML">
<polygon fill="white" stroke="black" points="713,-61.5 713,-80.5 919,-80.5 919,-61.5 713,-61.5"/>
<text text-anchor="middle" x="816" y="-68.5" font-family="Helvetica,sans-Serif" font-size="10.00">controller.CellSocietyController.readXML</text>
</a>
</g>
</g>
<!-- Node3&#45;&gt;Node14 -->
<g id="edge15" class="edge"><title>Node3&#45;&gt;Node14</title>
<path fill="none" stroke="midnightblue" d="M676.163,-71C688.316,-71 700.623,-71 712.629,-71"/>
<polygon fill="midnightblue" stroke="midnightblue" points="676,-67.5001 666,-71 676,-74.5001 676,-67.5001"/>
</g>
<!-- Node5 -->
<g id="node5" class="node"><title>Node5</title>
<g id="a_node5"><a xlink:href="../../d6/d7b/classcontroller_1_1_cell_society_controller.html#ada30fdc135cdf08b93065edf15ed3fcc" target="_top" xlink:title="controller.CellSocietyController.generate\lProbabilityRandomGrid">
<polygon fill="white" stroke="black" points="966.5,-151 966.5,-181 1175.5,-181 1175.5,-151 966.5,-151"/>
<text text-anchor="start" x="974.5" y="-169" font-family="Helvetica,sans-Serif" font-size="10.00">controller.CellSocietyController.generate</text>
<text text-anchor="middle" x="1071" y="-158" font-family="Helvetica,sans-Serif" font-size="10.00">ProbabilityRandomGrid</text>
</a>
</g>
</g>
<!-- Node4&#45;&gt;Node5 -->
<g id="edge4" class="edge"><title>Node4&#45;&gt;Node5</title>
<path fill="none" stroke="midnightblue" d="M882.093,-133.32C912.928,-138.683 950.19,-145.163 983.374,-150.935"/>
<polygon fill="midnightblue" stroke="midnightblue" points="882.349,-129.813 871.897,-131.547 881.15,-136.709 882.349,-129.813"/>
</g>
<!-- Node13 -->
<g id="node13" class="node"><title>Node13</title>
<g id="a_node13"><a xlink:href="../../d6/d7b/classcontroller_1_1_cell_society_controller.html#ab65a8810efbc2b92e17ca77cdc591df9" target="_top" xlink:title="controller.CellSocietyController.generate\lRandomGrid">
<polygon fill="white" stroke="black" points="1212.5,-107 1212.5,-137 1421.5,-137 1421.5,-107 1212.5,-107"/>
<text text-anchor="start" x="1220.5" y="-125" font-family="Helvetica,sans-Serif" font-size="10.00">controller.CellSocietyController.generate</text>
<text text-anchor="middle" x="1317" y="-114" font-family="Helvetica,sans-Serif" font-size="10.00">RandomGrid</text>
</a>
</g>
</g>
<!-- Node4&#45;&gt;Node13 -->
<g id="edge13" class="edge"><title>Node4&#45;&gt;Node13</title>
<path fill="none" stroke="midnightblue" d="M940.289,-122C1023.84,-122 1133.03,-122 1212.15,-122"/>
<polygon fill="midnightblue" stroke="midnightblue" points="940.231,-118.5 930.231,-122 940.231,-125.5 940.231,-118.5"/>
</g>
<!-- Node6 -->
<g id="node6" class="node"><title>Node6</title>
<g id="a_node6"><a xlink:href="../../dd/d02/classview_1_1_splash_screen.html#a05478a56856d70fd9508d79ca484fbca" target="_top" xlink:title="view.SplashScreen.addProbabilityText">
<polygon fill="white" stroke="black" points="1220,-156.5 1220,-175.5 1414,-175.5 1414,-156.5 1220,-156.5"/>
<text text-anchor="middle" x="1317" y="-163.5" font-family="Helvetica,sans-Serif" font-size="10.00">view.SplashScreen.addProbabilityText</text>
</a>
</g>
</g>
<!-- Node5&#45;&gt;Node6 -->
<g id="edge5" class="edge"><title>Node5&#45;&gt;Node6</title>
<path fill="none" stroke="midnightblue" d="M1186.09,-166C1197.31,-166 1208.61,-166 1219.62,-166"/>
<polygon fill="midnightblue" stroke="midnightblue" points="1185.83,-162.5 1175.83,-166 1185.83,-169.5 1185.83,-162.5"/>
</g>
<!-- Node7 -->
<g id="node7" class="node"><title>Node7</title>
<g id="a_node7"><a xlink:href="../../dd/d02/classview_1_1_splash_screen.html#a2f8c52e9a2a790459e51d5d42f16f7da" target="_top" xlink:title="view.SplashScreen.display\lAskInformatio">
<polygon fill="white" stroke="black" points="1471.5,-131 1471.5,-161 1612.5,-161 1612.5,-131 1471.5,-131"/>
<text text-anchor="start" x="1479.5" y="-149" font-family="Helvetica,sans-Serif" font-size="10.00">view.SplashScreen.display</text>
<text text-anchor="middle" x="1542" y="-138" font-family="Helvetica,sans-Serif" font-size="10.00">AskInformatio</text>
</a>
</g>
</g>
<!-- Node6&#45;&gt;Node7 -->
<g id="edge6" class="edge"><title>Node6&#45;&gt;Node7</title>
<path fill="none" stroke="midnightblue" d="M1424.59,-156.44C1440.48,-155.016 1456.49,-153.579 1471.35,-152.247"/>
<polygon fill="midnightblue" stroke="midnightblue" points="1423.84,-152.994 1414.19,-157.373 1424.46,-159.966 1423.84,-152.994"/>
</g>
<!-- Node8 -->
<g id="node8" class="node"><title>Node8</title>
<g id="a_node8"><a xlink:href="../../dd/d02/classview_1_1_splash_screen.html#ad94d9edd23f270a5f480fd54a06d72f3" target="_top" xlink:title="view.SplashScreen.addProbablity\lButton">
<polygon fill="white" stroke="black" points="1662.5,-156 1662.5,-186 1835.5,-186 1835.5,-156 1662.5,-156"/>
<text text-anchor="start" x="1670.5" y="-174" font-family="Helvetica,sans-Serif" font-size="10.00">view.SplashScreen.addProbablity</text>
<text text-anchor="middle" x="1749" y="-163" font-family="Helvetica,sans-Serif" font-size="10.00">Button</text>
</a>
</g>
</g>
<!-- Node7&#45;&gt;Node8 -->
<g id="edge7" class="edge"><title>Node7&#45;&gt;Node8</title>
<path fill="none" stroke="midnightblue" d="M1622.89,-155.743C1635.77,-157.314 1649.15,-158.945 1662.16,-160.532"/>
<polygon fill="midnightblue" stroke="midnightblue" points="1623.04,-152.235 1612.69,-154.499 1622.19,-159.184 1623.04,-152.235"/>
</g>
<!-- Node12 -->
<g id="node12" class="node"><title>Node12</title>
<g id="a_node12"><a xlink:href="../../dd/d02/classview_1_1_splash_screen.html#a17ba24f5ed477a37ea527710e54d65c8" target="_top" xlink:title="view.SplashScreen.addRandom\lButton">
<polygon fill="white" stroke="black" points="1666,-107 1666,-137 1832,-137 1832,-107 1666,-107"/>
<text text-anchor="start" x="1674" y="-125" font-family="Helvetica,sans-Serif" font-size="10.00">view.SplashScreen.addRandom</text>
<text text-anchor="middle" x="1749" y="-114" font-family="Helvetica,sans-Serif" font-size="10.00">Button</text>
</a>
</g>
</g>
<!-- Node7&#45;&gt;Node12 -->
<g id="edge11" class="edge"><title>Node7&#45;&gt;Node12</title>
<path fill="none" stroke="midnightblue" d="M1622.83,-136.654C1636.92,-135.005 1651.61,-133.285 1665.76,-131.628"/>
<polygon fill="midnightblue" stroke="midnightblue" points="1622.21,-133.202 1612.69,-137.841 1623.03,-140.155 1622.21,-133.202"/>
</g>
<!-- Node9 -->
<g id="node9" class="node"><title>Node9</title>
<g id="a_node9"><a xlink:href="../../dd/d02/classview_1_1_splash_screen.html#a6ff42b7dad4e546981a3266f9d694f5a" target="_top" xlink:title="view.SplashScreen.getNode">
<polygon fill="white" stroke="black" points="1872.5,-112.5 1872.5,-131.5 2021.5,-131.5 2021.5,-112.5 1872.5,-112.5"/>
<text text-anchor="middle" x="1947" y="-119.5" font-family="Helvetica,sans-Serif" font-size="10.00">view.SplashScreen.getNode</text>
</a>
</g>
</g>
<!-- Node8&#45;&gt;Node9 -->
<g id="edge8" class="edge"><title>Node8&#45;&gt;Node9</title>
<path fill="none" stroke="midnightblue" d="M1820.02,-153.495C1849.63,-146.093 1882.95,-137.762 1907.89,-131.528"/>
<polygon fill="midnightblue" stroke="midnightblue" points="1818.99,-150.144 1810.14,-155.965 1820.69,-156.935 1818.99,-150.144"/>
</g>
<!-- Node10 -->
<g id="node10" class="node"><title>Node10</title>
<g id="a_node10"><a xlink:href="../../d6/d7b/classcontroller_1_1_cell_society_controller.html#a3f78125e5b809d88d3cf7ed20b3756c2" target="_top" xlink:title="controller.CellSocietyController.display\lSplashScreen">
<polygon fill="white" stroke="black" points="2058,-107 2058,-137 2256,-137 2256,-107 2058,-107"/>
<text text-anchor="start" x="2066" y="-125" font-family="Helvetica,sans-Serif" font-size="10.00">controller.CellSocietyController.display</text>
<text text-anchor="middle" x="2157" y="-114" font-family="Helvetica,sans-Serif" font-size="10.00">SplashScreen</text>
</a>
</g>
</g>
<!-- Node9&#45;&gt;Node10 -->
<g id="edge9" class="edge"><title>Node9&#45;&gt;Node10</title>
<path fill="none" stroke="midnightblue" d="M2031.88,-122C2040.38,-122 2049.07,-122 2057.7,-122"/>
<polygon fill="midnightblue" stroke="midnightblue" points="2031.63,-118.5 2021.63,-122 2031.63,-125.5 2031.63,-118.5"/>
</g>
<!-- Node11 -->
<g id="node11" class="node"><title>Node11</title>
<g id="a_node11"><a xlink:href="../../d6/d7b/classcontroller_1_1_cell_society_controller.html#a6a2310de67e415512149c94c9f36e356" target="_top" xlink:title="controller.CellSocietyController.\lCellSocietyController">
<polygon fill="white" stroke="black" points="2292.5,-107 2292.5,-137 2457.5,-137 2457.5,-107 2292.5,-107"/>
<text text-anchor="start" x="2300.5" y="-125" font-family="Helvetica,sans-Serif" font-size="10.00">controller.CellSocietyController.</text>
<text text-anchor="middle" x="2375" y="-114" font-family="Helvetica,sans-Serif" font-size="10.00">CellSocietyController</text>
</a>
</g>
</g>
<!-- Node10&#45;&gt;Node11 -->
<g id="edge10" class="edge"><title>Node10&#45;&gt;Node11</title>
<path fill="none" stroke="midnightblue" d="M2266.38,-122C2275.07,-122 2283.75,-122 2292.2,-122"/>
<polygon fill="midnightblue" stroke="midnightblue" points="2266.2,-118.5 2256.2,-122 2266.2,-125.5 2266.2,-118.5"/>
</g>
<!-- Node12&#45;&gt;Node9 -->
<g id="edge12" class="edge"><title>Node12&#45;&gt;Node9</title>
<path fill="none" stroke="midnightblue" d="M1842.31,-122C1852.39,-122 1862.55,-122 1872.36,-122"/>
<polygon fill="midnightblue" stroke="midnightblue" points="1842.27,-118.5 1832.27,-122 1842.27,-125.5 1842.27,-118.5"/>
</g>
<!-- Node13&#45;&gt;Node7 -->
<g id="edge14" class="edge"><title>Node13&#45;&gt;Node7</title>
<path fill="none" stroke="midnightblue" d="M1431.94,-134.263C1445.38,-135.709 1458.78,-137.151 1471.34,-138.503"/>
<polygon fill="midnightblue" stroke="midnightblue" points="1431.98,-130.747 1421.67,-133.157 1431.23,-137.707 1431.98,-130.747"/>
</g>
<!-- Node15 -->
<g id="node15" class="node"><title>Node15</title>
<g id="a_node15"><a xlink:href="../../d6/d7b/classcontroller_1_1_cell_society_controller.html#afbdf9a63e15a2bfa878dcfe5ed3ef6dc" target="_top" xlink:title="controller.CellSocietyController.transition\lToFileLoaderScreen">
<polygon fill="white" stroke="black" points="966,-56 966,-86 1176,-86 1176,-56 966,-56"/>
<text text-anchor="start" x="974" y="-74" font-family="Helvetica,sans-Serif" font-size="10.00">controller.CellSocietyController.transition</text>
<text text-anchor="middle" x="1071" y="-63" font-family="Helvetica,sans-Serif" font-size="10.00">ToFileLoaderScreen</text>
</a>
</g>
</g>
<!-- Node14&#45;&gt;Node15 -->
<g id="edge16" class="edge"><title>Node14&#45;&gt;Node15</title>
<path fill="none" stroke="midnightblue" d="M929.317,-64.2879C941.451,-64.2228 953.762,-64.2416 965.794,-64.3441"/>
<polygon fill="midnightblue" stroke="midnightblue" points="929.15,-60.7889 919.176,-64.3622 929.201,-67.7887 929.15,-60.7889"/>
</g>
<!-- Node15&#45;&gt;Node14 -->
<g id="edge17" class="edge"><title>Node15&#45;&gt;Node14</title>
<path fill="none" stroke="midnightblue" d="M955.632,-77.7223C943.479,-77.7779 931.175,-77.7497 919.176,-77.6378"/>
<polygon fill="midnightblue" stroke="midnightblue" points="955.818,-81.2213 965.794,-77.6559 955.772,-74.2214 955.818,-81.2213"/>
</g>
<!-- Node16 -->
<g id="node16" class="node"><title>Node16</title>
<g id="a_node16"><a xlink:href="../../dd/d02/classview_1_1_splash_screen.html#a652092fc5c5862cee4ff84bf231646ab" target="_top" xlink:title="view.SplashScreen.addLoad\lButton">
<polygon fill="white" stroke="black" points="1467.5,-63 1467.5,-93 1616.5,-93 1616.5,-63 1467.5,-63"/>
<text text-anchor="start" x="1475.5" y="-81" font-family="Helvetica,sans-Serif" font-size="10.00">view.SplashScreen.addLoad</text>
<text text-anchor="middle" x="1542" y="-70" font-family="Helvetica,sans-Serif" font-size="10.00">Button</text>
</a>
</g>
</g>
<!-- Node15&#45;&gt;Node16 -->
<g id="edge18" class="edge"><title>Node15&#45;&gt;Node16</title>
<path fill="none" stroke="midnightblue" d="M1186.34,-72.7065C1273.89,-74.0133 1392.07,-75.7772 1467.42,-76.9019"/>
<polygon fill="midnightblue" stroke="midnightblue" points="1186.14,-69.2032 1176.09,-72.5535 1186.03,-76.2025 1186.14,-69.2032"/>
</g>
<!-- Node17 -->
<g id="node17" class="node"><title>Node17</title>
<g id="a_node17"><a xlink:href="../../d3/d48/classview_1_1_top_menu.html#af56bae78812baf114a9ed49ad52694df" target="_top" xlink:title="view.TopMenu.addLoadButton">
<polygon fill="white" stroke="black" points="1238,-30.5 1238,-49.5 1396,-49.5 1396,-30.5 1238,-30.5"/>
<text text-anchor="middle" x="1317" y="-37.5" font-family="Helvetica,sans-Serif" font-size="10.00">view.TopMenu.addLoadButton</text>
</a>
</g>
</g>
<!-- Node15&#45;&gt;Node17 -->
<g id="edge20" class="edge"><title>Node15&#45;&gt;Node17</title>
<path fill="none" stroke="midnightblue" d="M1186.17,-56.4942C1204.76,-54.1325 1223.6,-51.7398 1240.94,-49.5368"/>
<polygon fill="midnightblue" stroke="midnightblue" points="1185.66,-53.0308 1176.19,-57.7633 1186.55,-59.9749 1185.66,-53.0308"/>
</g>
<!-- Node16&#45;&gt;Node9 -->
<g id="edge19" class="edge"><title>Node16&#45;&gt;Node9</title>
<path fill="none" stroke="midnightblue" d="M1627.14,-79.9173C1685.9,-82.1192 1766.04,-86.8478 1836,-97 1861.2,-100.656 1889.17,-107.046 1910.6,-112.45"/>
<polygon fill="midnightblue" stroke="midnightblue" points="1626.91,-76.4069 1616.79,-79.5473 1626.66,-83.4025 1626.91,-76.4069"/>
</g>
<!-- Node18 -->
<g id="node18" class="node"><title>Node18</title>
<g id="a_node18"><a xlink:href="../../d3/d48/classview_1_1_top_menu.html#a4442589b1733d6ad662c92700f27018e" target="_top" xlink:title="view.TopMenu.createTopButtons">
<polygon fill="white" stroke="black" points="1458,-8.5 1458,-27.5 1626,-27.5 1626,-8.5 1458,-8.5"/>
<text text-anchor="middle" x="1542" y="-15.5" font-family="Helvetica,sans-Serif" font-size="10.00">view.TopMenu.createTopButtons</text>
</a>
</g>
</g>
<!-- Node17&#45;&gt;Node18 -->
<g id="edge21" class="edge"><title>Node17&#45;&gt;Node18</title>
<path fill="none" stroke="midnightblue" d="M1406.72,-31.2473C1423.62,-29.5802 1441.25,-27.8412 1457.96,-26.1924"/>
<polygon fill="midnightblue" stroke="midnightblue" points="1405.92,-27.8096 1396.31,-32.2746 1406.6,-34.7758 1405.92,-27.8096"/>
</g>
<!-- Node19&#45;&gt;Node18 -->
<g id="edge23" class="edge"><title>Node19&#45;&gt;Node18</title>
<path fill="none" stroke="midnightblue" d="M645.811,-15.2568C831.056,-15.8245 1273.48,-17.1802 1457.98,-17.7456"/>
<polygon fill="midnightblue" stroke="midnightblue" points="645.595,-11.7562 635.584,-15.2255 645.573,-18.7562 645.595,-11.7562"/>
</g>
</g>
</svg>
        <g id="navigator" transform="translate(0 0)" fill="#404254">
                <rect fill="#f2f5e9" fill-opacity="0.5" stroke="#606060" stroke-width=".5" x="0" y="0" width="60" height="60"/>
                <use id="zoomplus" xlink:href="#zoomPlus" x="17" y="9" onmousedown="handleZoom(evt,'in')"/>
                <use id="zoomminus" xlink:href="#zoomMin" x="42" y="9" onmousedown="handleZoom(evt,'out')"/>
                <use id="reset" xlink:href="#resetDef" x="30" y="36" onmousedown="handleReset()"/>
                <g id="arrowUp" xlink:href="#dirArrow" transform="translate(30 24)" onmousedown="handlePan(0,-1)">
                  <use xlink:href="#rim" fill="#404040">
                        <set attributeName="fill" to="#808080" begin="arrowUp.mouseover" end="arrowUp.mouseout"/>
                  </use>
                  <path fill="none" stroke="white" stroke-width="1.5" d="M0,-3.0v7 M-2.5,-0.5L0,-3.0L2.5,-0.5"/>
                </g>
                <g id="arrowRight" xlink:href="#dirArrow" transform="rotate(90) translate(36 -43)" onmousedown="handlePan(1,0)">
                  <use xlink:href="#rim" fill="#404040">
                        <set attributeName="fill" to="#808080" begin="arrowRight.mouseover" end="arrowRight.mouseout"/>
                  </use>
                  <path fill="none" stroke="white" stroke-width="1.5" d="M0,-3.0v7 M-2.5,-0.5L0,-3.0L2.5,-0.5"/>
                </g>
                <g id="arrowDown" xlink:href="#dirArrow" transform="rotate(180) translate(-30 -48)" onmousedown="handlePan(0,1)">
                  <use xlink:href="#rim" fill="#404040">
                        <set attributeName="fill" to="#808080" begin="arrowDown.mouseover" end="arrowDown.mouseout"/>
                  </use>
                  <path fill="none" stroke="white" stroke-width="1.5" d="M0,-3.0v7 M-2.5,-0.5L0,-3.0L2.5,-0.5"/>
                </g>
                <g id="arrowLeft" xlink:href="#dirArrow" transform="rotate(270) translate(-36 17)" onmousedown="handlePan(-1,0)">
                  <use xlink:href="#rim" fill="#404040">
                        <set attributeName="fill" to="#808080" begin="arrowLeft.mouseover" end="arrowLeft.mouseout"/>
                  </use>
                  <path fill="none" stroke="white" stroke-width="1.5" d="M0,-3.0v7 M-2.5,-0.5L0,-3.0L2.5,-0.5"/>
                </g>
        </g>
        <svg viewBox="0 0 15 15" width="100%" height="30px" preserveAspectRatio="xMaxYMin meet">
         <g id="arrow_out" transform="scale(0.3 0.3)">
          <a xlink:href="classcontroller_1_1_cell_society_controller_aec38c45810ee2665fe01832114fbc68d_icgraph_org.svg" target="_base">
           <rect id="button" ry="5" rx="5" y="6" x="6" height="38" width="38"
                fill="#f2f5e9" fill-opacity="0.5" stroke="#606060" stroke-width="1.0"/>
           <path id="arrow"
             d="M 11.500037,31.436501 C 11.940474,20.09759 22.043105,11.32322 32.158766,21.979434 L 37.068811,17.246167 C 37.068811,17.246167 37.088388,32 37.088388,32 L 22.160133,31.978069 C 22.160133,31.978069 26.997745,27.140456 26.997745,27.140456 C 18.528582,18.264221 13.291696,25.230495 11.500037,31.436501 z"
             style="fill:#404040;"/>
          </a>
         </g>
        </svg>
</svg>
