<?xml version="1.0" encoding="UTF-8" standalone="no"?>
<!DOCTYPE svg PUBLIC "-//W3C//DTD SVG 1.1//EN"
 "http://www.w3.org/Graphics/SVG/1.1/DTD/svg11.dtd">
<!-- Generated by graphviz version 2.36.0 (20140111.2315)
 -->
<!-- Title: controller.CellSocietyController.generateGrid Pages: 1 -->
<svg width="1738pt" height="87pt"
 viewBox="0.00 0.00 1738.00 87.00" xmlns="http://www.w3.org/2000/svg" xmlns:xlink="http://www.w3.org/1999/xlink">
<g id="graph0" class="graph" transform="scale(1 1) rotate(0) translate(4 83)">
<title>controller.CellSocietyController.generateGrid</title>
<polygon fill="white" stroke="none" points="-4,4 -4,-83 1734,-83 1734,4 -4,4"/>
<!-- Node1 -->
<g id="node1" class="node"><title>Node1</title>
<polygon fill="#bfbfbf" stroke="black" points="0,-29.5 0,-48.5 228,-48.5 228,-29.5 0,-29.5"/>
<text text-anchor="middle" x="114" y="-36.5" font-family="Helvetica,sans-Serif" font-size="10.00">controller.CellSocietyController.generateGrid</text>
</g>
<!-- Node2 -->
<g id="node2" class="node"><title>Node2</title>
<g id="a_node2"><a xlink:href="../../d6/d7b/classcontroller_1_1_cell_society_controller.html#ada30fdc135cdf08b93065edf15ed3fcc" target="_top" xlink:title="controller.CellSocietyController.generate\lProbabilityRandomGrid">
<polygon fill="white" stroke="black" points="264.5,-46 264.5,-76 473.5,-76 473.5,-46 264.5,-46"/>
<text text-anchor="start" x="272.5" y="-64" font-family="Helvetica,sans-Serif" font-size="10.00">controller.CellSocietyController.generate</text>
<text text-anchor="middle" x="369" y="-53" font-family="Helvetica,sans-Serif" font-size="10.00">ProbabilityRandomGrid</text>
</a>
</g>
</g>
<!-- Node1&#45;&gt;Node2 -->
<g id="edge1" class="edge"><title>Node1&#45;&gt;Node2</title>
<path fill="none" stroke="midnightblue" d="M234.764,-49.4143C244.644,-50.2734 254.579,-51.1373 264.327,-51.9849"/>
<polygon fill="midnightblue" stroke="midnightblue" points="234.764,-45.9011 224.498,-48.5216 234.157,-52.8748 234.764,-45.9011"/>
</g>
<!-- Node10 -->
<g id="node10" class="node"><title>Node10</title>
<g id="a_node10"><a xlink:href="../../d6/d7b/classcontroller_1_1_cell_society_controller.html#ab65a8810efbc2b92e17ca77cdc591df9" target="_top" xlink:title="controller.CellSocietyController.generate\lRandomGrid">
<polygon fill="white" stroke="black" points="510.5,-2 510.5,-32 719.5,-32 719.5,-2 510.5,-2"/>
<text text-anchor="start" x="518.5" y="-20" font-family="Helvetica,sans-Serif" font-size="10.00">controller.CellSocietyController.generate</text>
<text text-anchor="middle" x="615" y="-9" font-family="Helvetica,sans-Serif" font-size="10.00">RandomGrid</text>
</a>
</g>
</g>
<!-- Node1&#45;&gt;Node10 -->
<g id="edge10" class="edge"><title>Node1&#45;&gt;Node10</title>
<path fill="none" stroke="midnightblue" d="M238.289,-33.5644C321.841,-29.8808 431.027,-25.067 510.145,-21.5788"/>
<polygon fill="midnightblue" stroke="midnightblue" points="238.067,-30.0707 228.231,-34.0079 238.375,-37.0639 238.067,-30.0707"/>
</g>
<!-- Node3 -->
<g id="node3" class="node"><title>Node3</title>
<g id="a_node3"><a xlink:href="../../dd/d02/classview_1_1_splash_screen.html#a05478a56856d70fd9508d79ca484fbca" target="_top" xlink:title="view.SplashScreen.addProbabilityText">
<polygon fill="white" stroke="black" points="518,-51.5 518,-70.5 712,-70.5 712,-51.5 518,-51.5"/>
<text text-anchor="middle" x="615" y="-58.5" font-family="Helvetica,sans-Serif" font-size="10.00">view.SplashScreen.addProbabilityText</text>
</a>
</g>
</g>
<!-- Node2&#45;&gt;Node3 -->
<g id="edge2" class="edge"><title>Node2&#45;&gt;Node3</title>
<path fill="none" stroke="midnightblue" d="M484.093,-61C495.306,-61 506.609,-61 517.619,-61"/>
<polygon fill="midnightblue" stroke="midnightblue" points="483.832,-57.5001 473.832,-61 483.832,-64.5001 483.832,-57.5001"/>
</g>
<!-- Node4 -->
<g id="node4" class="node"><title>Node4</title>
<g id="a_node4"><a xlink:href="../../dd/d02/classview_1_1_splash_screen.html#a2f8c52e9a2a790459e51d5d42f16f7da" target="_top" xlink:title="view.SplashScreen.display\lAskInformatio">
<polygon fill="white" stroke="black" points="756.5,-24 756.5,-54 897.5,-54 897.5,-24 756.5,-24"/>
<text text-anchor="start" x="764.5" y="-42" font-family="Helvetica,sans-Serif" font-size="10.00">view.SplashScreen.display</text>
<text text-anchor="middle" x="827" y="-31" font-family="Helvetica,sans-Serif" font-size="10.00">AskInformatio</text>
</a>
</g>
</g>
<!-- Node3&#45;&gt;Node4 -->
<g id="edge3" class="edge"><title>Node3&#45;&gt;Node4</title>
<path fill="none" stroke="midnightblue" d="M716.997,-50.4193C730.257,-49.0302 743.603,-47.6321 756.186,-46.3139"/>
<polygon fill="midnightblue" stroke="midnightblue" points="716.469,-46.9555 706.888,-51.4784 717.198,-53.9174 716.469,-46.9555"/>
</g>
<!-- Node5 -->
<g id="node5" class="node"><title>Node5</title>
<g id="a_node5"><a xlink:href="../../dd/d02/classview_1_1_splash_screen.html#ad94d9edd23f270a5f480fd54a06d72f3" target="_top" xlink:title="view.SplashScreen.addProbablity\lButton">
<polygon fill="white" stroke="black" points="934.5,-49 934.5,-79 1107.5,-79 1107.5,-49 934.5,-49"/>
<text text-anchor="start" x="942.5" y="-67" font-family="Helvetica,sans-Serif" font-size="10.00">view.SplashScreen.addProbablity</text>
<text text-anchor="middle" x="1021" y="-56" font-family="Helvetica,sans-Serif" font-size="10.00">Button</text>
</a>
</g>
</g>
<!-- Node4&#45;&gt;Node5 -->
<g id="edge4" class="edge"><title>Node4&#45;&gt;Node5</title>
<path fill="none" stroke="midnightblue" d="M907.76,-49.3855C916.514,-50.5253 925.453,-51.6892 934.275,-52.8379"/>
<polygon fill="midnightblue" stroke="midnightblue" points="907.956,-45.8815 897.588,-48.0609 907.052,-52.8229 907.956,-45.8815"/>
</g>
<!-- Node9 -->
<g id="node9" class="node"><title>Node9</title>
<g id="a_node9"><a xlink:href="../../dd/d02/classview_1_1_splash_screen.html#a17ba24f5ed477a37ea527710e54d65c8" target="_top" xlink:title="view.SplashScreen.addRandom\lButton">
<polygon fill="white" stroke="black" points="938,-0 938,-30 1104,-30 1104,-0 938,-0"/>
<text text-anchor="start" x="946" y="-18" font-family="Helvetica,sans-Serif" font-size="10.00">view.SplashScreen.addRandom</text>
<text text-anchor="middle" x="1021" y="-7" font-family="Helvetica,sans-Serif" font-size="10.00">Button</text>
</a>
</g>
</g>
<!-- Node4&#45;&gt;Node9 -->
<g id="edge8" class="edge"><title>Node4&#45;&gt;Node9</title>
<path fill="none" stroke="midnightblue" d="M907.524,-29.0595C917.559,-27.8051 927.842,-26.5197 937.917,-25.2604"/>
<polygon fill="midnightblue" stroke="midnightblue" points="907.076,-25.5881 897.588,-30.3015 907.945,-32.5341 907.076,-25.5881"/>
</g>
<!-- Node6 -->
<g id="node6" class="node"><title>Node6</title>
<g id="a_node6"><a xlink:href="../../dd/d02/classview_1_1_splash_screen.html#a6ff42b7dad4e546981a3266f9d694f5a" target="_top" xlink:title="view.SplashScreen.getNode">
<polygon fill="white" stroke="black" points="1144.5,-29.5 1144.5,-48.5 1293.5,-48.5 1293.5,-29.5 1144.5,-29.5"/>
<text text-anchor="middle" x="1219" y="-36.5" font-family="Helvetica,sans-Serif" font-size="10.00">view.SplashScreen.getNode</text>
</a>
</g>
</g>
<!-- Node5&#45;&gt;Node6 -->
<g id="edge5" class="edge"><title>Node5&#45;&gt;Node6</title>
<path fill="none" stroke="midnightblue" d="M1117.78,-51.783C1126.75,-50.6392 1135.74,-49.4922 1144.46,-48.3804"/>
<polygon fill="midnightblue" stroke="midnightblue" points="1117.16,-48.3338 1107.68,-53.071 1118.05,-55.2775 1117.16,-48.3338"/>
</g>
<!-- Node7 -->
<g id="node7" class="node"><title>Node7</title>
<g id="a_node7"><a xlink:href="../../d6/d7b/classcontroller_1_1_cell_society_controller.html#a3f78125e5b809d88d3cf7ed20b3756c2" target="_top" xlink:title="controller.CellSocietyController.display\lSplashScreen">
<polygon fill="white" stroke="black" points="1330,-24 1330,-54 1528,-54 1528,-24 1330,-24"/>
<text text-anchor="start" x="1338" y="-42" font-family="Helvetica,sans-Serif" font-size="10.00">controller.CellSocietyController.display</text>
<text text-anchor="middle" x="1429" y="-31" font-family="Helvetica,sans-Serif" font-size="10.00">SplashScreen</text>
</a>
</g>
</g>
<!-- Node6&#45;&gt;Node7 -->
<g id="edge6" class="edge"><title>Node6&#45;&gt;Node7</title>
<path fill="none" stroke="midnightblue" d="M1303.88,-39C1312.38,-39 1321.07,-39 1329.7,-39"/>
<polygon fill="midnightblue" stroke="midnightblue" points="1303.63,-35.5001 1293.63,-39 1303.63,-42.5001 1303.63,-35.5001"/>
</g>
<!-- Node8 -->
<g id="node8" class="node"><title>Node8</title>
<g id="a_node8"><a xlink:href="../../d6/d7b/classcontroller_1_1_cell_society_controller.html#a6a2310de67e415512149c94c9f36e356" target="_top" xlink:title="controller.CellSocietyController.\lCellSocietyController">
<polygon fill="white" stroke="black" points="1564.5,-24 1564.5,-54 1729.5,-54 1729.5,-24 1564.5,-24"/>
<text text-anchor="start" x="1572.5" y="-42" font-family="Helvetica,sans-Serif" font-size="10.00">controller.CellSocietyController.</text>
<text text-anchor="middle" x="1647" y="-31" font-family="Helvetica,sans-Serif" font-size="10.00">CellSocietyController</text>
</a>
</g>
</g>
<!-- Node7&#45;&gt;Node8 -->
<g id="edge7" class="edge"><title>Node7&#45;&gt;Node8</title>
<path fill="none" stroke="midnightblue" d="M1538.38,-39C1547.07,-39 1555.75,-39 1564.2,-39"/>
<polygon fill="midnightblue" stroke="midnightblue" points="1538.2,-35.5001 1528.2,-39 1538.2,-42.5001 1538.2,-35.5001"/>
</g>
<!-- Node9&#45;&gt;Node6 -->
<g id="edge9" class="edge"><title>Node9&#45;&gt;Node6</title>
<path fill="none" stroke="midnightblue" d="M1114.31,-26.3029C1124.39,-27.5371 1134.55,-28.7813 1144.36,-29.9828"/>
<polygon fill="midnightblue" stroke="midnightblue" points="1114.62,-22.8153 1104.27,-25.0738 1113.77,-29.7634 1114.62,-22.8153"/>
</g>
<!-- Node10&#45;&gt;Node4 -->
<g id="edge11" class="edge"><title>Node10&#45;&gt;Node4</title>
<path fill="none" stroke="midnightblue" d="M729.932,-28.9358C738.913,-29.8766 747.807,-30.8083 756.347,-31.703"/>
<polygon fill="midnightblue" stroke="midnightblue" points="730.08,-25.4322 719.77,-27.8711 729.35,-32.3941 730.08,-25.4322"/>
</g>
</g>
</svg>
