<?xml version="1.0" encoding="UTF-8" standalone="no"?>
<!DOCTYPE svg PUBLIC "-//W3C//DTD SVG 1.1//EN"
 "http://www.w3.org/Graphics/SVG/1.1/DTD/svg11.dtd">
<!-- Generated by graphviz version 2.36.0 (20140111.2315)
 -->
<!-- Title: controller.CellSocietyController.generateGrid Pages: 1 -->
<svg width="1138pt" height="194pt"
 viewBox="0.00 0.00 1138.00 194.00" xmlns="http://www.w3.org/2000/svg" xmlns:xlink="http://www.w3.org/1999/xlink">
<g id="graph0" class="graph" transform="scale(1 1) rotate(0) translate(4 190)">
<title>controller.CellSocietyController.generateGrid</title>
<polygon fill="white" stroke="none" points="-4,4 -4,-190 1134,-190 1134,4 -4,4"/>
<!-- Node1 -->
<g id="node1" class="node"><title>Node1</title>
<polygon fill="#bfbfbf" stroke="black" points="0,-122.5 0,-141.5 228,-141.5 228,-122.5 0,-122.5"/>
<text text-anchor="middle" x="114" y="-129.5" font-family="Helvetica,sans-Serif" font-size="10.00">controller.CellSocietyController.generateGrid</text>
</g>
<!-- Node2 -->
<g id="node2" class="node"><title>Node2</title>
<g id="a_node2"><a xlink:href="../../d8/dd8/classcontroller_1_1_sim_generator.html#a56410ccebd07c1b6d1a3afb41d7997fc" target="_top" xlink:title="controller.SimGenerator.getGrid">
<polygon fill="white" stroke="black" points="284.5,-166.5 284.5,-185.5 453.5,-185.5 453.5,-166.5 284.5,-166.5"/>
<text text-anchor="middle" x="369" y="-173.5" font-family="Helvetica,sans-Serif" font-size="10.00">controller.SimGenerator.getGrid</text>
</a>
</g>
</g>
<!-- Node1&#45;&gt;Node2 -->
<g id="edge1" class="edge"><title>Node1&#45;&gt;Node2</title>
<path fill="none" stroke="midnightblue" d="M169.897,-141.547C209.101,-148.365 261.986,-157.563 303.253,-164.74"/>
<polygon fill="midnightblue" stroke="midnightblue" points="302.758,-168.206 313.21,-166.471 303.958,-161.31 302.758,-168.206"/>
</g>
<!-- Node3 -->
<g id="node3" class="node"><title>Node3</title>
<g id="a_node3"><a xlink:href="../../d8/dd8/classcontroller_1_1_sim_generator.html#a9fd6cebed37c16aad5e70dc966ac9fb5" target="_top" xlink:title="controller.SimGenerator.get\lParameters">
<polygon fill="white" stroke="black" points="294.5,-117 294.5,-147 443.5,-147 443.5,-117 294.5,-117"/>
<text text-anchor="start" x="302.5" y="-135" font-family="Helvetica,sans-Serif" font-size="10.00">controller.SimGenerator.get</text>
<text text-anchor="middle" x="369" y="-124" font-family="Helvetica,sans-Serif" font-size="10.00">Parameters</text>
</a>
</g>
</g>
<!-- Node1&#45;&gt;Node3 -->
<g id="edge2" class="edge"><title>Node1&#45;&gt;Node3</title>
<path fill="none" stroke="midnightblue" d="M228.18,-132C247.075,-132 266.371,-132 284.356,-132"/>
<polygon fill="midnightblue" stroke="midnightblue" points="284.49,-135.5 294.49,-132 284.49,-128.5 284.49,-135.5"/>
</g>
<!-- Node4 -->
<g id="node4" class="node"><title>Node4</title>
<g id="a_node4"><a xlink:href="../../d6/d7b/classcontroller_1_1_cell_society_controller.html#a3d913ad3344ac48e887110e2fabb5746" target="_top" xlink:title="controller.CellSocietyController.transition\lToSimulation">
<polygon fill="white" stroke="black" points="264,-68 264,-98 474,-98 474,-68 264,-68"/>
<text text-anchor="start" x="272" y="-86" font-family="Helvetica,sans-Serif" font-size="10.00">controller.CellSocietyController.transition</text>
<text text-anchor="middle" x="369" y="-75" font-family="Helvetica,sans-Serif" font-size="10.00">ToSimulation</text>
</a>
</g>
</g>
<!-- Node1&#45;&gt;Node4 -->
<g id="edge3" class="edge"><title>Node1&#45;&gt;Node4</title>
<path fill="none" stroke="midnightblue" d="M164.081,-122.494C196.927,-116.133 241.087,-107.58 279.914,-100.06"/>
<polygon fill="midnightblue" stroke="midnightblue" points="281.031,-103.409 290.183,-98.0713 279.7,-96.5366 281.031,-103.409"/>
</g>
<!-- Node5 -->
<g id="node5" class="node"><title>Node5</title>
<g id="a_node5"><a xlink:href="../../d6/d7b/classcontroller_1_1_cell_society_controller.html#af6b4eb647c4e76fef6f27cc61ced4d9a" target="_top" xlink:title="controller.CellSocietyController.initialize\lSimulationScreen">
<polygon fill="white" stroke="black" points="510.5,-117 510.5,-147 713.5,-147 713.5,-117 510.5,-117"/>
<text text-anchor="start" x="518.5" y="-135" font-family="Helvetica,sans-Serif" font-size="10.00">controller.CellSocietyController.initialize</text>
<text text-anchor="middle" x="612" y="-124" font-family="Helvetica,sans-Serif" font-size="10.00">SimulationScreen</text>
</a>
</g>
</g>
<!-- Node4&#45;&gt;Node5 -->
<g id="edge4" class="edge"><title>Node4&#45;&gt;Node5</title>
<path fill="none" stroke="midnightblue" d="M443.946,-98.0346C470.317,-103.396 500.204,-109.473 527.335,-114.989"/>
<polygon fill="midnightblue" stroke="midnightblue" points="526.697,-118.431 537.194,-116.994 528.092,-111.571 526.697,-118.431"/>
</g>
<!-- Node9 -->
<g id="node9" class="node"><title>Node9</title>
<g id="a_node9"><a xlink:href="../../d6/d7b/classcontroller_1_1_cell_society_controller.html#a8af25de87ececa5ca913e7b5af486b3f" target="_top" xlink:title="controller.CellSocietyController.initialize\lSimulation">
<polygon fill="white" stroke="black" points="510.5,-68 510.5,-98 713.5,-98 713.5,-68 510.5,-68"/>
<text text-anchor="start" x="518.5" y="-86" font-family="Helvetica,sans-Serif" font-size="10.00">controller.CellSocietyController.initialize</text>
<text text-anchor="middle" x="612" y="-75" font-family="Helvetica,sans-Serif" font-size="10.00">Simulation</text>
</a>
</g>
</g>
<!-- Node4&#45;&gt;Node9 -->
<g id="edge8" class="edge"><title>Node4&#45;&gt;Node9</title>
<path fill="none" stroke="midnightblue" d="M474.304,-83C482.899,-83 491.606,-83 500.246,-83"/>
<polygon fill="midnightblue" stroke="midnightblue" points="500.346,-86.5001 510.346,-83 500.346,-79.5001 500.346,-86.5001"/>
</g>
<!-- Node10 -->
<g id="node10" class="node"><title>Node10</title>
<g id="a_node10"><a xlink:href="../../d6/d7b/classcontroller_1_1_cell_society_controller.html#a7609d9a174ff7d2d00fc27e3574cdb21" target="_top" xlink:title="controller.CellSocietyController.stop\lOrStart">
<polygon fill="white" stroke="black" points="519,-19 519,-49 705,-49 705,-19 519,-19"/>
<text text-anchor="start" x="527" y="-37" font-family="Helvetica,sans-Serif" font-size="10.00">controller.CellSocietyController.stop</text>
<text text-anchor="middle" x="612" y="-26" font-family="Helvetica,sans-Serif" font-size="10.00">OrStart</text>
</a>
</g>
</g>
<!-- Node4&#45;&gt;Node10 -->
<g id="edge9" class="edge"><title>Node4&#45;&gt;Node10</title>
<path fill="none" stroke="midnightblue" d="M443.946,-67.9654C470.317,-62.6035 500.204,-56.5269 527.335,-51.0108"/>
<polygon fill="midnightblue" stroke="midnightblue" points="528.092,-54.4285 537.194,-49.0062 526.697,-47.5689 528.092,-54.4285"/>
</g>
<!-- Node6 -->
<g id="node6" class="node"><title>Node6</title>
<g id="a_node6"><a xlink:href="../../d1/d3e/classview_1_1_simulation_screen.html#a6c9f5c7e36be620d06e55709bc256d18" target="_top" xlink:title="view.SimulationScreen.init\lSimScreen">
<polygon fill="white" stroke="black" points="778.5,-149 778.5,-179 919.5,-179 919.5,-149 778.5,-149"/>
<text text-anchor="start" x="786.5" y="-167" font-family="Helvetica,sans-Serif" font-size="10.00">view.SimulationScreen.init</text>
<text text-anchor="middle" x="849" y="-156" font-family="Helvetica,sans-Serif" font-size="10.00">SimScreen</text>
</a>
</g>
</g>
<!-- Node5&#45;&gt;Node6 -->
<g id="edge5" class="edge"><title>Node5&#45;&gt;Node6</title>
<path fill="none" stroke="midnightblue" d="M713.684,-145.71C731.908,-148.192 750.683,-150.748 768.207,-153.135"/>
<polygon fill="midnightblue" stroke="midnightblue" points="767.985,-156.637 778.366,-154.518 768.93,-149.701 767.985,-156.637"/>
</g>
<!-- Node8 -->
<g id="node8" class="node"><title>Node8</title>
<g id="a_node8"><a xlink:href="../../d1/d3e/classview_1_1_simulation_screen.html#a482a021910f4b997fb7b798bdc363df4" target="_top" xlink:title="view.SimulationScreen.getNode">
<polygon fill="white" stroke="black" points="765,-110.5 765,-129.5 933,-129.5 933,-110.5 765,-110.5"/>
<text text-anchor="middle" x="849" y="-117.5" font-family="Helvetica,sans-Serif" font-size="10.00">view.SimulationScreen.getNode</text>
</a>
</g>
</g>
<!-- Node5&#45;&gt;Node8 -->
<g id="edge7" class="edge"><title>Node5&#45;&gt;Node8</title>
<path fill="none" stroke="midnightblue" d="M713.684,-126.859C727.284,-126.164 741.191,-125.454 754.656,-124.767"/>
<polygon fill="midnightblue" stroke="midnightblue" points="755.045,-128.251 764.854,-124.246 754.688,-121.26 755.045,-128.251"/>
</g>
<!-- Node7 -->
<g id="node7" class="node"><title>Node7</title>
<g id="a_node7"><a xlink:href="../../d1/d3e/classview_1_1_simulation_screen.html#a7144a80861195f360ade7612b479ff3e" target="_top" xlink:title="view.SimulationScreen.add\lButtons">
<polygon fill="white" stroke="black" points="984.5,-149 984.5,-179 1129.5,-179 1129.5,-149 984.5,-149"/>
<text text-anchor="start" x="992.5" y="-167" font-family="Helvetica,sans-Serif" font-size="10.00">view.SimulationScreen.add</text>
<text text-anchor="middle" x="1057" y="-156" font-family="Helvetica,sans-Serif" font-size="10.00">Buttons</text>
</a>
</g>
</g>
<!-- Node6&#45;&gt;Node7 -->
<g id="edge6" class="edge"><title>Node6&#45;&gt;Node7</title>
<path fill="none" stroke="midnightblue" d="M919.742,-164C937.191,-164 956.067,-164 974.049,-164"/>
<polygon fill="midnightblue" stroke="midnightblue" points="974.222,-167.5 984.222,-164 974.222,-160.5 974.222,-167.5"/>
</g>
<!-- Node11 -->
<g id="node11" class="node"><title>Node11</title>
<g id="a_node11"><a xlink:href="../../d6/d7b/classcontroller_1_1_cell_society_controller.html#aec38c45810ee2665fe01832114fbc68d" target="_top" xlink:title="controller.CellSocietyController.restart\lSimulation">
<polygon fill="white" stroke="black" points="750.5,-49 750.5,-79 947.5,-79 947.5,-49 750.5,-49"/>
<text text-anchor="start" x="758.5" y="-67" font-family="Helvetica,sans-Serif" font-size="10.00">controller.CellSocietyController.restart</text>
<text text-anchor="middle" x="849" y="-56" font-family="Helvetica,sans-Serif" font-size="10.00">Simulation</text>
</a>
</g>
</g>
<!-- Node10&#45;&gt;Node11 -->
<g id="edge10" class="edge"><title>Node10&#45;&gt;Node11</title>
<path fill="none" stroke="midnightblue" d="M705.204,-45.7707C716.641,-47.2308 728.414,-48.7337 740.061,-50.2205"/>
<polygon fill="midnightblue" stroke="midnightblue" points="739.889,-53.7269 750.252,-51.5215 740.775,-46.7833 739.889,-53.7269"/>
</g>
<!-- Node12 -->
<g id="node12" class="node"><title>Node12</title>
<g id="a_node12"><a xlink:href="../../d6/d7b/classcontroller_1_1_cell_society_controller.html#a33e7a77467ceeb880526a1b405b3ee79" target="_top" xlink:title="controller.CellSocietyController.pause\lSimulation">
<polygon fill="white" stroke="black" points="752,-0 752,-30 946,-30 946,-0 752,-0"/>
<text text-anchor="start" x="760" y="-18" font-family="Helvetica,sans-Serif" font-size="10.00">controller.CellSocietyController.pause</text>
<text text-anchor="middle" x="849" y="-7" font-family="Helvetica,sans-Serif" font-size="10.00">Simulation</text>
</a>
</g>
</g>
<!-- Node10&#45;&gt;Node12 -->
<g id="edge11" class="edge"><title>Node10&#45;&gt;Node12</title>
<path fill="none" stroke="midnightblue" d="M705.204,-26.5452C717.158,-25.5787 729.48,-24.5825 741.64,-23.5993"/>
<polygon fill="midnightblue" stroke="midnightblue" points="742.121,-27.072 751.806,-22.7774 741.556,-20.0947 742.121,-27.072"/>
</g>
</g>
</svg>
