<?xml version="1.0" encoding="UTF-8" standalone="no"?>
<!DOCTYPE svg PUBLIC "-//W3C//DTD SVG 1.1//EN"
 "http://www.w3.org/Graphics/SVG/1.1/DTD/svg11.dtd">
<!-- Generated by graphviz version 2.36.0 (20140111.2315)
 -->
<!-- Title: controller.CellSocietyController.getKeyFrame Pages: 1 -->
<svg width="852pt" height="125pt"
 viewBox="0.00 0.00 852.00 125.00" xmlns="http://www.w3.org/2000/svg" xmlns:xlink="http://www.w3.org/1999/xlink">
<g id="graph0" class="graph" transform="scale(1 1) rotate(0) translate(4 121)">
<title>controller.CellSocietyController.getKeyFrame</title>
<polygon fill="white" stroke="none" points="-4,4 -4,-121 848,-121 848,4 -4,4"/>
<!-- Node1 -->
<g id="node1" class="node"><title>Node1</title>
<polygon fill="#bfbfbf" stroke="black" points="0.5,-24 0.5,-54 181.5,-54 181.5,-24 0.5,-24"/>
<text text-anchor="start" x="8.5" y="-42" font-family="Helvetica,sans-Serif" font-size="10.00">controller.CellSocietyController.get</text>
<text text-anchor="middle" x="91" y="-31" font-family="Helvetica,sans-Serif" font-size="10.00">KeyFrame</text>
</g>
<!-- Node2 -->
<g id="node2" class="node"><title>Node2</title>
<g id="a_node2"><a xlink:href="../../d6/d7b/classcontroller_1_1_cell_society_controller.html#a6eb10259241f3932f29dcc2947477ac9" target="_top" xlink:title="controller.CellSocietyController.change\lSimulationSpeed">
<polygon fill="white" stroke="black" points="221,-49 221,-79 421,-79 421,-49 221,-49"/>
<text text-anchor="start" x="229" y="-67" font-family="Helvetica,sans-Serif" font-size="10.00">controller.CellSocietyController.change</text>
<text text-anchor="middle" x="321" y="-56" font-family="Helvetica,sans-Serif" font-size="10.00">SimulationSpeed</text>
</a>
</g>
</g>
<!-- Node1&#45;&gt;Node2 -->
<g id="edge1" class="edge"><title>Node1&#45;&gt;Node2</title>
<path fill="none" stroke="midnightblue" d="M191.785,-49.9414C201.442,-51.0002 211.237,-52.0742 220.886,-53.1323"/>
<polygon fill="midnightblue" stroke="midnightblue" points="192.106,-46.4557 181.784,-48.8448 191.343,-53.414 192.106,-46.4557"/>
</g>
<!-- Node6 -->
<g id="node6" class="node"><title>Node6</title>
<g id="a_node6"><a xlink:href="../../d6/d7b/classcontroller_1_1_cell_society_controller.html#ad1a5392e3462b9b781ef440951024055" target="_top" xlink:title="controller.CellSocietyController.manage\lTimeline">
<polygon fill="white" stroke="black" points="218.5,-0 218.5,-30 423.5,-30 423.5,-0 218.5,-0"/>
<text text-anchor="start" x="226.5" y="-18" font-family="Helvetica,sans-Serif" font-size="10.00">controller.CellSocietyController.manage</text>
<text text-anchor="middle" x="321" y="-7" font-family="Helvetica,sans-Serif" font-size="10.00">Timeline</text>
</a>
</g>
</g>
<!-- Node1&#45;&gt;Node6 -->
<g id="edge6" class="edge"><title>Node1&#45;&gt;Node6</title>
<path fill="none" stroke="midnightblue" d="M191.954,-28.4785C200.672,-27.5609 209.5,-26.6316 218.232,-25.7124"/>
<polygon fill="midnightblue" stroke="midnightblue" points="191.363,-25.0213 181.784,-29.549 192.096,-31.9828 191.363,-25.0213"/>
</g>
<!-- Node3 -->
<g id="node3" class="node"><title>Node3</title>
<g id="a_node3"><a xlink:href="../../d3/d48/classview_1_1_top_menu.html#a78433064a3b87ac12b25e253a8461563" target="_top" xlink:title="view.TopMenu.addSlowDown\lButton">
<polygon fill="white" stroke="black" points="475,-87 475,-117 625,-117 625,-87 475,-87"/>
<text text-anchor="start" x="483" y="-105" font-family="Helvetica,sans-Serif" font-size="10.00">view.TopMenu.addSlowDown</text>
<text text-anchor="middle" x="550" y="-94" font-family="Helvetica,sans-Serif" font-size="10.00">Button</text>
</a>
</g>
</g>
<!-- Node2&#45;&gt;Node3 -->
<g id="edge2" class="edge"><title>Node2&#45;&gt;Node3</title>
<path fill="none" stroke="midnightblue" d="M421.605,-80.674C439.512,-83.6716 457.888,-86.7477 474.912,-89.5976"/>
<polygon fill="midnightblue" stroke="midnightblue" points="422.157,-77.2178 411.716,-79.0186 421.001,-84.1217 422.157,-77.2178"/>
</g>
<!-- Node5 -->
<g id="node5" class="node"><title>Node5</title>
<g id="a_node5"><a xlink:href="../../d3/d48/classview_1_1_top_menu.html#ae076a17bf4d52296bcc188a9bf23d57d" target="_top" xlink:title="view.TopMenu.addSpeedUpButton">
<polygon fill="white" stroke="black" points="460.5,-48.5 460.5,-67.5 639.5,-67.5 639.5,-48.5 460.5,-48.5"/>
<text text-anchor="middle" x="550" y="-55.5" font-family="Helvetica,sans-Serif" font-size="10.00">view.TopMenu.addSpeedUpButton</text>
</a>
</g>
</g>
<!-- Node2&#45;&gt;Node5 -->
<g id="edge4" class="edge"><title>Node2&#45;&gt;Node5</title>
<path fill="none" stroke="midnightblue" d="M431.332,-61.1102C441.046,-60.8534 450.8,-60.5956 460.311,-60.3442"/>
<polygon fill="midnightblue" stroke="midnightblue" points="431.139,-57.6139 421.235,-61.377 431.324,-64.6115 431.139,-57.6139"/>
</g>
<!-- Node4 -->
<g id="node4" class="node"><title>Node4</title>
<g id="a_node4"><a xlink:href="../../d3/d48/classview_1_1_top_menu.html#a4442589b1733d6ad662c92700f27018e" target="_top" xlink:title="view.TopMenu.createTopButtons">
<polygon fill="white" stroke="black" points="676,-70.5 676,-89.5 844,-89.5 844,-70.5 676,-70.5"/>
<text text-anchor="middle" x="760" y="-77.5" font-family="Helvetica,sans-Serif" font-size="10.00">view.TopMenu.createTopButtons</text>
</a>
</g>
</g>
<!-- Node3&#45;&gt;Node4 -->
<g id="edge3" class="edge"><title>Node3&#45;&gt;Node4</title>
<path fill="none" stroke="midnightblue" d="M635.355,-93.0778C648.755,-91.6605 662.606,-90.1955 675.975,-88.7815"/>
<polygon fill="midnightblue" stroke="midnightblue" points="634.788,-89.6182 625.212,-94.1507 635.525,-96.5793 634.788,-89.6182"/>
</g>
<!-- Node5&#45;&gt;Node4 -->
<g id="edge5" class="edge"><title>Node5&#45;&gt;Node4</title>
<path fill="none" stroke="midnightblue" d="M649.734,-68.443C658.473,-69.3674 667.262,-70.297 675.854,-71.2057"/>
<polygon fill="midnightblue" stroke="midnightblue" points="649.825,-64.9332 639.512,-67.3619 649.089,-71.8944 649.825,-64.9332"/>
</g>
<!-- Node7 -->
<g id="node7" class="node"><title>Node7</title>
<g id="a_node7"><a xlink:href="../../d2/dbb/classcontroller_1_1_main.html#a2afd534b3ce4f00386c3e5e00b360b40" target="_top" xlink:title="controller.Main.start">
<polygon fill="white" stroke="black" points="494,-5.5 494,-24.5 606,-24.5 606,-5.5 494,-5.5"/>
<text text-anchor="middle" x="550" y="-12.5" font-family="Helvetica,sans-Serif" font-size="10.00">controller.Main.start</text>
</a>
</g>
</g>
<!-- Node6&#45;&gt;Node7 -->
<g id="edge7" class="edge"><title>Node6&#45;&gt;Node7</title>
<path fill="none" stroke="midnightblue" d="M433.789,-15C454.687,-15 475.662,-15 493.88,-15"/>
<polygon fill="midnightblue" stroke="midnightblue" points="433.549,-11.5001 423.549,-15 433.549,-18.5001 433.549,-11.5001"/>
</g>
</g>
</svg>
