<?xml version="1.0" encoding="UTF-8" standalone="no"?>
<!DOCTYPE svg PUBLIC "-//W3C//DTD SVG 1.1//EN"
 "http://www.w3.org/Graphics/SVG/1.1/DTD/svg11.dtd">
<!-- Generated by graphviz version 2.36.0 (20140111.2315)
 -->
<!-- Title: controller.CellSocietyController.transitionToSimulation Pages: 1 -->
<svg width="874pt" height="185pt"
 viewBox="0.00 0.00 874.00 185.00" xmlns="http://www.w3.org/2000/svg" xmlns:xlink="http://www.w3.org/1999/xlink">
<g id="graph0" class="graph" transform="scale(1 1) rotate(0) translate(4 181)">
<title>controller.CellSocietyController.transitionToSimulation</title>
<polygon fill="white" stroke="none" points="-4,4 -4,-181 870,-181 870,4 -4,4"/>
<!-- Node1 -->
<g id="node1" class="node"><title>Node1</title>
<polygon fill="#bfbfbf" stroke="black" points="0,-98 0,-128 210,-128 210,-98 0,-98"/>
<text text-anchor="start" x="8" y="-116" font-family="Helvetica,sans-Serif" font-size="10.00">controller.CellSocietyController.transition</text>
<text text-anchor="middle" x="105" y="-105" font-family="Helvetica,sans-Serif" font-size="10.00">ToSimulation</text>
</g>
<!-- Node2 -->
<g id="node2" class="node"><title>Node2</title>
<g id="a_node2"><a xlink:href="../../d6/d7b/classcontroller_1_1_cell_society_controller.html#a8af25de87ececa5ca913e7b5af486b3f" target="_top" xlink:title="controller.CellSocietyController.initialize\lSimulation">
<polygon fill="white" stroke="black" points="246.5,-147 246.5,-177 449.5,-177 449.5,-147 246.5,-147"/>
<text text-anchor="start" x="254.5" y="-165" font-family="Helvetica,sans-Serif" font-size="10.00">controller.CellSocietyController.initialize</text>
<text text-anchor="middle" x="348" y="-154" font-family="Helvetica,sans-Serif" font-size="10.00">Simulation</text>
</a>
</g>
</g>
<!-- Node1&#45;&gt;Node2 -->
<g id="edge1" class="edge"><title>Node1&#45;&gt;Node2</title>
<path fill="none" stroke="midnightblue" d="M179.946,-128.035C206.317,-133.396 236.204,-139.473 263.335,-144.989"/>
<polygon fill="midnightblue" stroke="midnightblue" points="262.697,-148.431 273.194,-146.994 264.092,-141.571 262.697,-148.431"/>
</g>
<!-- Node3 -->
<g id="node3" class="node"><title>Node3</title>
<g id="a_node3"><a xlink:href="../../d6/d7b/classcontroller_1_1_cell_society_controller.html#af6b4eb647c4e76fef6f27cc61ced4d9a" target="_top" xlink:title="controller.CellSocietyController.initialize\lSimulationScreen">
<polygon fill="white" stroke="black" points="246.5,-98 246.5,-128 449.5,-128 449.5,-98 246.5,-98"/>
<text text-anchor="start" x="254.5" y="-116" font-family="Helvetica,sans-Serif" font-size="10.00">controller.CellSocietyController.initialize</text>
<text text-anchor="middle" x="348" y="-105" font-family="Helvetica,sans-Serif" font-size="10.00">SimulationScreen</text>
</a>
</g>
</g>
<!-- Node1&#45;&gt;Node3 -->
<g id="edge2" class="edge"><title>Node1&#45;&gt;Node3</title>
<path fill="none" stroke="midnightblue" d="M210.304,-113C218.899,-113 227.606,-113 236.246,-113"/>
<polygon fill="midnightblue" stroke="midnightblue" points="236.346,-116.5 246.346,-113 236.346,-109.5 236.346,-116.5"/>
</g>
<!-- Node7 -->
<g id="node7" class="node"><title>Node7</title>
<g id="a_node7"><a xlink:href="../../d6/d7b/classcontroller_1_1_cell_society_controller.html#a7609d9a174ff7d2d00fc27e3574cdb21" target="_top" xlink:title="controller.CellSocietyController.stop\lOrStart">
<polygon fill="white" stroke="black" points="255,-49 255,-79 441,-79 441,-49 255,-49"/>
<text text-anchor="start" x="263" y="-67" font-family="Helvetica,sans-Serif" font-size="10.00">controller.CellSocietyController.stop</text>
<text text-anchor="middle" x="348" y="-56" font-family="Helvetica,sans-Serif" font-size="10.00">OrStart</text>
</a>
</g>
</g>
<!-- Node1&#45;&gt;Node7 -->
<g id="edge6" class="edge"><title>Node1&#45;&gt;Node7</title>
<path fill="none" stroke="midnightblue" d="M179.946,-97.9654C206.317,-92.6035 236.204,-86.5269 263.335,-81.0108"/>
<polygon fill="midnightblue" stroke="midnightblue" points="264.092,-84.4285 273.194,-79.0062 262.697,-77.5689 264.092,-84.4285"/>
</g>
<!-- Node4 -->
<g id="node4" class="node"><title>Node4</title>
<g id="a_node4"><a xlink:href="../../d1/d3e/classview_1_1_simulation_screen.html#a482a021910f4b997fb7b798bdc363df4" target="_top" xlink:title="view.SimulationScreen.getNode">
<polygon fill="white" stroke="black" points="501,-147.5 501,-166.5 669,-166.5 669,-147.5 501,-147.5"/>
<text text-anchor="middle" x="585" y="-154.5" font-family="Helvetica,sans-Serif" font-size="10.00">view.SimulationScreen.getNode</text>
</a>
</g>
</g>
<!-- Node3&#45;&gt;Node4 -->
<g id="edge3" class="edge"><title>Node3&#45;&gt;Node4</title>
<path fill="none" stroke="midnightblue" d="M429.216,-128.019C460.022,-133.787 494.642,-140.269 523.316,-145.638"/>
<polygon fill="midnightblue" stroke="midnightblue" points="522.722,-149.087 533.195,-147.488 524.01,-142.207 522.722,-149.087"/>
</g>
<!-- Node5 -->
<g id="node5" class="node"><title>Node5</title>
<g id="a_node5"><a xlink:href="../../d1/d3e/classview_1_1_simulation_screen.html#a6c9f5c7e36be620d06e55709bc256d18" target="_top" xlink:title="view.SimulationScreen.init\lSimScreen">
<polygon fill="white" stroke="black" points="514.5,-98 514.5,-128 655.5,-128 655.5,-98 514.5,-98"/>
<text text-anchor="start" x="522.5" y="-116" font-family="Helvetica,sans-Serif" font-size="10.00">view.SimulationScreen.init</text>
<text text-anchor="middle" x="585" y="-105" font-family="Helvetica,sans-Serif" font-size="10.00">SimScreen</text>
</a>
</g>
</g>
<!-- Node3&#45;&gt;Node5 -->
<g id="edge4" class="edge"><title>Node3&#45;&gt;Node5</title>
<path fill="none" stroke="midnightblue" d="M449.684,-113C467.908,-113 486.683,-113 504.207,-113"/>
<polygon fill="midnightblue" stroke="midnightblue" points="504.366,-116.5 514.366,-113 504.366,-109.5 504.366,-116.5"/>
</g>
<!-- Node6 -->
<g id="node6" class="node"><title>Node6</title>
<g id="a_node6"><a xlink:href="../../d1/d3e/classview_1_1_simulation_screen.html#a7144a80861195f360ade7612b479ff3e" target="_top" xlink:title="view.SimulationScreen.add\lButtons">
<polygon fill="white" stroke="black" points="720.5,-98 720.5,-128 865.5,-128 865.5,-98 720.5,-98"/>
<text text-anchor="start" x="728.5" y="-116" font-family="Helvetica,sans-Serif" font-size="10.00">view.SimulationScreen.add</text>
<text text-anchor="middle" x="793" y="-105" font-family="Helvetica,sans-Serif" font-size="10.00">Buttons</text>
</a>
</g>
</g>
<!-- Node5&#45;&gt;Node6 -->
<g id="edge5" class="edge"><title>Node5&#45;&gt;Node6</title>
<path fill="none" stroke="midnightblue" d="M655.742,-113C673.191,-113 692.067,-113 710.049,-113"/>
<polygon fill="midnightblue" stroke="midnightblue" points="710.222,-116.5 720.222,-113 710.222,-109.5 710.222,-116.5"/>
</g>
<!-- Node8 -->
<g id="node8" class="node"><title>Node8</title>
<g id="a_node8"><a xlink:href="../../d6/d7b/classcontroller_1_1_cell_society_controller.html#a33e7a77467ceeb880526a1b405b3ee79" target="_top" xlink:title="controller.CellSocietyController.pause\lSimulation">
<polygon fill="white" stroke="black" points="488,-49 488,-79 682,-79 682,-49 488,-49"/>
<text text-anchor="start" x="496" y="-67" font-family="Helvetica,sans-Serif" font-size="10.00">controller.CellSocietyController.pause</text>
<text text-anchor="middle" x="585" y="-56" font-family="Helvetica,sans-Serif" font-size="10.00">Simulation</text>
</a>
</g>
</g>
<!-- Node7&#45;&gt;Node8 -->
<g id="edge7" class="edge"><title>Node7&#45;&gt;Node8</title>
<path fill="none" stroke="midnightblue" d="M441.204,-64C453.158,-64 465.48,-64 477.64,-64"/>
<polygon fill="midnightblue" stroke="midnightblue" points="477.806,-67.5001 487.806,-64 477.806,-60.5001 477.806,-67.5001"/>
</g>
<!-- Node9 -->
<g id="node9" class="node"><title>Node9</title>
<g id="a_node9"><a xlink:href="../../d6/d7b/classcontroller_1_1_cell_society_controller.html#aec38c45810ee2665fe01832114fbc68d" target="_top" xlink:title="controller.CellSocietyController.restart\lSimulation">
<polygon fill="white" stroke="black" points="486.5,-0 486.5,-30 683.5,-30 683.5,-0 486.5,-0"/>
<text text-anchor="start" x="494.5" y="-18" font-family="Helvetica,sans-Serif" font-size="10.00">controller.CellSocietyController.restart</text>
<text text-anchor="middle" x="585" y="-7" font-family="Helvetica,sans-Serif" font-size="10.00">Simulation</text>
</a>
</g>
</g>
<!-- Node7&#45;&gt;Node9 -->
<g id="edge8" class="edge"><title>Node7&#45;&gt;Node9</title>
<path fill="none" stroke="midnightblue" d="M421.105,-48.9654C446.707,-43.627 475.707,-37.5802 502.07,-32.0834"/>
<polygon fill="midnightblue" stroke="midnightblue" points="502.957,-35.4738 512.032,-30.0062 501.528,-28.6212 502.957,-35.4738"/>
</g>
</g>
</svg>
