<?xml version="1.0" encoding="UTF-8" standalone="no"?>
<!DOCTYPE svg PUBLIC "-//W3C//DTD SVG 1.1//EN"
 "http://www.w3.org/Graphics/SVG/1.1/DTD/svg11.dtd">
<!-- Generated by graphviz version 2.36.0 (20140111.2315)
 -->
<!-- Title: controller.CellSocietyController.CellSocietyController Pages: 1 -->
<svg width="2704pt" height="330pt"
 viewBox="0.00 0.00 2704.00 330.00" xmlns="http://www.w3.org/2000/svg" xmlns:xlink="http://www.w3.org/1999/xlink">
<g id="graph0" class="graph" transform="scale(1 1) rotate(0) translate(4 326)">
<title>controller.CellSocietyController.CellSocietyController</title>
<polygon fill="white" stroke="none" points="-4,4 -4,-326 2700,-326 2700,4 -4,4"/>
<!-- Node1 -->
<g id="node1" class="node"><title>Node1</title>
<polygon fill="#bfbfbf" stroke="black" points="0.5,-152 0.5,-182 165.5,-182 165.5,-152 0.5,-152"/>
<text text-anchor="start" x="8.5" y="-170" font-family="Helvetica,sans-Serif" font-size="10.00">controller.CellSocietyController.</text>
<text text-anchor="middle" x="83" y="-159" font-family="Helvetica,sans-Serif" font-size="10.00">CellSocietyController</text>
</g>
<!-- Node2 -->
<g id="node2" class="node"><title>Node2</title>
<g id="a_node2"><a xlink:href="../../d6/d7b/classcontroller_1_1_cell_society_controller.html#a3f78125e5b809d88d3cf7ed20b3756c2" target="_top" xlink:title="controller.CellSocietyController.display\lSplashScreen">
<polygon fill="white" stroke="black" points="202,-152 202,-182 400,-182 400,-152 202,-152"/>
<text text-anchor="start" x="210" y="-170" font-family="Helvetica,sans-Serif" font-size="10.00">controller.CellSocietyController.display</text>
<text text-anchor="middle" x="301" y="-159" font-family="Helvetica,sans-Serif" font-size="10.00">SplashScreen</text>
</a>
</g>
</g>
<!-- Node1&#45;&gt;Node2 -->
<g id="edge1" class="edge"><title>Node1&#45;&gt;Node2</title>
<path fill="none" stroke="midnightblue" d="M165.66,-167C174.161,-167 182.894,-167 191.63,-167"/>
<polygon fill="midnightblue" stroke="midnightblue" points="191.873,-170.5 201.873,-167 191.873,-163.5 191.873,-170.5"/>
</g>
<!-- Node3 -->
<g id="node3" class="node"><title>Node3</title>
<g id="a_node3"><a xlink:href="../../dd/d02/classview_1_1_splash_screen.html#a6ff42b7dad4e546981a3266f9d694f5a" target="_top" xlink:title="view.SplashScreen.getNode">
<polygon fill="white" stroke="black" points="436.5,-157.5 436.5,-176.5 585.5,-176.5 585.5,-157.5 436.5,-157.5"/>
<text text-anchor="middle" x="511" y="-164.5" font-family="Helvetica,sans-Serif" font-size="10.00">view.SplashScreen.getNode</text>
</a>
</g>
</g>
<!-- Node2&#45;&gt;Node3 -->
<g id="edge2" class="edge"><title>Node2&#45;&gt;Node3</title>
<path fill="none" stroke="midnightblue" d="M400.214,-167C408.984,-167 417.808,-167 426.438,-167"/>
<polygon fill="midnightblue" stroke="midnightblue" points="426.464,-170.5 436.463,-167 426.463,-163.5 426.464,-170.5"/>
</g>
<!-- Node4 -->
<g id="node4" class="node"><title>Node4</title>
<g id="a_node4"><a xlink:href="../../dd/d02/classview_1_1_splash_screen.html#a0a9ccd223a5668611f7fbbae36ea0796" target="_top" xlink:title="view.SplashScreen.addTitle">
<polygon fill="white" stroke="black" points="636,-179.5 636,-198.5 782,-198.5 782,-179.5 636,-179.5"/>
<text text-anchor="middle" x="709" y="-186.5" font-family="Helvetica,sans-Serif" font-size="10.00">view.SplashScreen.addTitle</text>
</a>
</g>
</g>
<!-- Node3&#45;&gt;Node4 -->
<g id="edge3" class="edge"><title>Node3&#45;&gt;Node4</title>
<path fill="none" stroke="midnightblue" d="M585.541,-175.255C598.698,-176.731 612.483,-178.279 625.864,-179.781"/>
<polygon fill="midnightblue" stroke="midnightblue" points="625.671,-183.281 636,-180.918 626.452,-176.325 625.671,-183.281"/>
</g>
<!-- Node6 -->
<g id="node6" class="node"><title>Node6</title>
<g id="a_node6"><a xlink:href="../../dd/d02/classview_1_1_splash_screen.html#a652092fc5c5862cee4ff84bf231646ab" target="_top" xlink:title="view.SplashScreen.addLoad\lButton">
<polygon fill="white" stroke="black" points="634.5,-218 634.5,-248 783.5,-248 783.5,-218 634.5,-218"/>
<text text-anchor="start" x="642.5" y="-236" font-family="Helvetica,sans-Serif" font-size="10.00">view.SplashScreen.addLoad</text>
<text text-anchor="middle" x="709" y="-225" font-family="Helvetica,sans-Serif" font-size="10.00">Button</text>
</a>
</g>
</g>
<!-- Node3&#45;&gt;Node6 -->
<g id="edge5" class="edge"><title>Node3&#45;&gt;Node6</title>
<path fill="none" stroke="midnightblue" d="M536.283,-176.64C558.451,-185.299 592.206,-198.132 622,-208 629.081,-210.345 636.529,-212.69 643.957,-214.951"/>
<polygon fill="midnightblue" stroke="midnightblue" points="643.094,-218.346 653.678,-217.869 645.106,-211.642 643.094,-218.346"/>
</g>
<!-- Node23 -->
<g id="node23" class="node"><title>Node23</title>
<g id="a_node23"><a xlink:href="../../dd/d02/classview_1_1_splash_screen.html#a17ba24f5ed477a37ea527710e54d65c8" target="_top" xlink:title="view.SplashScreen.addRandom\lButton">
<polygon fill="white" stroke="black" points="626,-130 626,-160 792,-160 792,-130 626,-130"/>
<text text-anchor="start" x="634" y="-148" font-family="Helvetica,sans-Serif" font-size="10.00">view.SplashScreen.addRandom</text>
<text text-anchor="middle" x="709" y="-137" font-family="Helvetica,sans-Serif" font-size="10.00">Button</text>
</a>
</g>
</g>
<!-- Node3&#45;&gt;Node23 -->
<g id="edge24" class="edge"><title>Node3&#45;&gt;Node23</title>
<path fill="none" stroke="midnightblue" d="M585.541,-158.745C595.398,-157.639 605.609,-156.493 615.737,-155.356"/>
<polygon fill="midnightblue" stroke="midnightblue" points="616.275,-158.818 625.822,-154.224 615.494,-151.861 616.275,-158.818"/>
</g>
<!-- Node35 -->
<g id="node35" class="node"><title>Node35</title>
<g id="a_node35"><a xlink:href="../../dd/d02/classview_1_1_splash_screen.html#ad94d9edd23f270a5f480fd54a06d72f3" target="_top" xlink:title="view.SplashScreen.addProbablity\lButton">
<polygon fill="white" stroke="black" points="622.5,-81 622.5,-111 795.5,-111 795.5,-81 622.5,-81"/>
<text text-anchor="start" x="630.5" y="-99" font-family="Helvetica,sans-Serif" font-size="10.00">view.SplashScreen.addProbablity</text>
<text text-anchor="middle" x="709" y="-88" font-family="Helvetica,sans-Serif" font-size="10.00">Button</text>
</a>
</g>
</g>
<!-- Node3&#45;&gt;Node35 -->
<g id="edge39" class="edge"><title>Node3&#45;&gt;Node35</title>
<path fill="none" stroke="midnightblue" d="M532.36,-157.342C554.201,-147.209 590.064,-131.224 622,-120 627.854,-117.943 633.98,-115.942 640.151,-114.03"/>
<polygon fill="midnightblue" stroke="midnightblue" points="641.287,-117.343 649.85,-111.104 639.265,-110.641 641.287,-117.343"/>
</g>
<!-- Node5 -->
<g id="node5" class="node"><title>Node5</title>
<g id="a_node5"><a xlink:href="../../dd/d02/classview_1_1_splash_screen.html#a329982556dc38c022b2b8c10347e34bd" target="_top" xlink:title="view.SplashScreen.formatNode">
<polygon fill="white" stroke="black" points="854,-139.5 854,-158.5 1020,-158.5 1020,-139.5 854,-139.5"/>
<text text-anchor="middle" x="937" y="-146.5" font-family="Helvetica,sans-Serif" font-size="10.00">view.SplashScreen.formatNode</text>
</a>
</g>
</g>
<!-- Node4&#45;&gt;Node5 -->
<g id="edge4" class="edge"><title>Node4&#45;&gt;Node5</title>
<path fill="none" stroke="midnightblue" d="M763.846,-179.47C796.405,-173.707 838.089,-166.329 872.284,-160.277"/>
<polygon fill="midnightblue" stroke="midnightblue" points="872.939,-163.716 882.176,-158.526 871.719,-156.823 872.939,-163.716"/>
</g>
<!-- Node6&#45;&gt;Node5 -->
<g id="edge6" class="edge"><title>Node6&#45;&gt;Node5</title>
<path fill="none" stroke="midnightblue" d="M765.357,-217.936C775.612,-214.855 786.182,-211.483 796,-208 834.691,-194.275 878.087,-175.43 906.164,-162.764"/>
<polygon fill="midnightblue" stroke="midnightblue" points="907.765,-165.881 915.423,-158.56 904.871,-159.507 907.765,-165.881"/>
</g>
<!-- Node7 -->
<g id="node7" class="node"><title>Node7</title>
<g id="a_node7"><a xlink:href="../../d6/d7b/classcontroller_1_1_cell_society_controller.html#afbdf9a63e15a2bfa878dcfe5ed3ef6dc" target="_top" xlink:title="controller.CellSocietyController.transition\lToFileLoaderScreen">
<polygon fill="white" stroke="black" points="832,-218 832,-248 1042,-248 1042,-218 832,-218"/>
<text text-anchor="start" x="840" y="-236" font-family="Helvetica,sans-Serif" font-size="10.00">controller.CellSocietyController.transition</text>
<text text-anchor="middle" x="937" y="-225" font-family="Helvetica,sans-Serif" font-size="10.00">ToFileLoaderScreen</text>
</a>
</g>
</g>
<!-- Node6&#45;&gt;Node7 -->
<g id="edge7" class="edge"><title>Node6&#45;&gt;Node7</title>
<path fill="none" stroke="midnightblue" d="M783.688,-233C795.783,-233 808.565,-233 821.374,-233"/>
<polygon fill="midnightblue" stroke="midnightblue" points="821.641,-236.5 831.641,-233 821.641,-229.5 821.641,-236.5"/>
</g>
<!-- Node8 -->
<g id="node8" class="node"><title>Node8</title>
<g id="a_node8"><a xlink:href="../../d3/d0a/classview_1_1_file_loader_screen.html#a32abcb410ad28199e0bfcdce0255715b" target="_top" xlink:title="view.FileLoaderScreen.getNode">
<polygon fill="white" stroke="black" points="1098.5,-297.5 1098.5,-316.5 1263.5,-316.5 1263.5,-297.5 1098.5,-297.5"/>
<text text-anchor="middle" x="1181" y="-304.5" font-family="Helvetica,sans-Serif" font-size="10.00">view.FileLoaderScreen.getNode</text>
</a>
</g>
</g>
<!-- Node7&#45;&gt;Node8 -->
<g id="edge8" class="edge"><title>Node7&#45;&gt;Node8</title>
<path fill="none" stroke="midnightblue" d="M971.044,-248.049C999.03,-260.29 1040.47,-277.239 1078,-288 1087.78,-290.803 1098.2,-293.294 1108.51,-295.474"/>
<polygon fill="midnightblue" stroke="midnightblue" points="1107.84,-298.909 1118.34,-297.469 1109.24,-292.049 1107.84,-298.909"/>
</g>
<!-- Node9 -->
<g id="node9" class="node"><title>Node9</title>
<g id="a_node9"><a xlink:href="../../d3/d0a/classview_1_1_file_loader_screen.html#a196dd45848fbdf09ac100c343b6515cd" target="_top" xlink:title="view.FileLoaderScreen.getFile">
<polygon fill="white" stroke="black" points="1103.5,-259.5 1103.5,-278.5 1258.5,-278.5 1258.5,-259.5 1103.5,-259.5"/>
<text text-anchor="middle" x="1181" y="-266.5" font-family="Helvetica,sans-Serif" font-size="10.00">view.FileLoaderScreen.getFile</text>
</a>
</g>
</g>
<!-- Node7&#45;&gt;Node9 -->
<g id="edge9" class="edge"><title>Node7&#45;&gt;Node9</title>
<path fill="none" stroke="midnightblue" d="M1038.88,-248.007C1061.28,-251.339 1084.63,-254.813 1105.74,-257.952"/>
<polygon fill="midnightblue" stroke="midnightblue" points="1105.5,-261.455 1115.9,-259.465 1106.53,-254.532 1105.5,-261.455"/>
</g>
<!-- Node11 -->
<g id="node11" class="node"><title>Node11</title>
<g id="a_node11"><a xlink:href="../../d6/d7b/classcontroller_1_1_cell_society_controller.html#a643c7ac22f2822fa7e492dbf4267ed21" target="_top" xlink:title="controller.CellSocietyController.readXML">
<polygon fill="white" stroke="black" points="1078,-221.5 1078,-240.5 1284,-240.5 1284,-221.5 1078,-221.5"/>
<text text-anchor="middle" x="1181" y="-228.5" font-family="Helvetica,sans-Serif" font-size="10.00">controller.CellSocietyController.readXML</text>
</a>
</g>
</g>
<!-- Node7&#45;&gt;Node11 -->
<g id="edge11" class="edge"><title>Node7&#45;&gt;Node11</title>
<path fill="none" stroke="midnightblue" d="M1042.03,-225.45C1050.6,-225.319 1059.28,-225.232 1067.89,-225.193"/>
<polygon fill="midnightblue" stroke="midnightblue" points="1067.98,-228.693 1077.97,-225.168 1067.96,-221.693 1067.98,-228.693"/>
</g>
<!-- Node10 -->
<g id="node10" class="node"><title>Node10</title>
<g id="a_node10"><a xlink:href="../../d3/d0a/classview_1_1_file_loader_screen.html#a97d7c0b9dc021069c17e7f778398f41e" target="_top" xlink:title="view.FileLoaderScreen.configure\lFileChooser">
<polygon fill="white" stroke="black" points="1341,-291 1341,-321 1509,-321 1509,-291 1341,-291"/>
<text text-anchor="start" x="1349" y="-309" font-family="Helvetica,sans-Serif" font-size="10.00">view.FileLoaderScreen.configure</text>
<text text-anchor="middle" x="1425" y="-298" font-family="Helvetica,sans-Serif" font-size="10.00">FileChooser</text>
</a>
</g>
</g>
<!-- Node9&#45;&gt;Node10 -->
<g id="edge10" class="edge"><title>Node9&#45;&gt;Node10</title>
<path fill="none" stroke="midnightblue" d="M1244.32,-278.528C1270.63,-282.551 1301.82,-287.319 1330.77,-291.746"/>
<polygon fill="midnightblue" stroke="midnightblue" points="1330.49,-295.243 1340.9,-293.295 1331.55,-288.324 1330.49,-295.243"/>
</g>
<!-- Node11&#45;&gt;Node7 -->
<g id="edge23" class="edge"><title>Node11&#45;&gt;Node7</title>
<path fill="none" stroke="midnightblue" d="M1077.97,-238.519C1069.43,-238.657 1060.76,-238.75 1052.13,-238.797"/>
<polygon fill="midnightblue" stroke="midnightblue" points="1052.02,-235.297 1042.03,-238.831 1052.05,-242.297 1052.02,-235.297"/>
</g>
<!-- Node12 -->
<g id="node12" class="node"><title>Node12</title>
<g id="a_node12"><a xlink:href="../../dc/d47/classcontroller_1_1_x_m_l_parser.html#a841cf5fa54e30325a444ba24fa26c50e" target="_top" xlink:title="controller.XMLParser.getGrid">
<polygon fill="white" stroke="black" points="1349.5,-165.5 1349.5,-184.5 1500.5,-184.5 1500.5,-165.5 1349.5,-165.5"/>
<text text-anchor="middle" x="1425" y="-172.5" font-family="Helvetica,sans-Serif" font-size="10.00">controller.XMLParser.getGrid</text>
</a>
</g>
</g>
<!-- Node11&#45;&gt;Node12 -->
<g id="edge12" class="edge"><title>Node11&#45;&gt;Node12</title>
<path fill="none" stroke="midnightblue" d="M1223.06,-221.467C1250.5,-215.098 1287.41,-206.538 1320,-199 1337.12,-195.04 1355.82,-190.721 1372.59,-186.852"/>
<polygon fill="midnightblue" stroke="midnightblue" points="1373.79,-190.167 1382.75,-184.509 1372.22,-183.346 1373.79,-190.167"/>
</g>
<!-- Node13 -->
<g id="node13" class="node"><title>Node13</title>
<g id="a_node13"><a xlink:href="../../dc/d47/classcontroller_1_1_x_m_l_parser.html#a0ebd2f6df311d0e2f9f0cd7969ecbe73" target="_top" xlink:title="controller.XMLParser.get\lParameters">
<polygon fill="white" stroke="black" points="1359.5,-242 1359.5,-272 1490.5,-272 1490.5,-242 1359.5,-242"/>
<text text-anchor="start" x="1367.5" y="-260" font-family="Helvetica,sans-Serif" font-size="10.00">controller.XMLParser.get</text>
<text text-anchor="middle" x="1425" y="-249" font-family="Helvetica,sans-Serif" font-size="10.00">Parameters</text>
</a>
</g>
</g>
<!-- Node11&#45;&gt;Node13 -->
<g id="edge13" class="edge"><title>Node11&#45;&gt;Node13</title>
<path fill="none" stroke="midnightblue" d="M1270.74,-240.534C1296.47,-243.298 1324.29,-246.288 1349.08,-248.951"/>
<polygon fill="midnightblue" stroke="midnightblue" points="1348.83,-252.444 1359.15,-250.032 1349.58,-245.484 1348.83,-252.444"/>
</g>
<!-- Node14 -->
<g id="node14" class="node"><title>Node14</title>
<g id="a_node14"><a xlink:href="../../d6/d7b/classcontroller_1_1_cell_society_controller.html#a3d913ad3344ac48e887110e2fabb5746" target="_top" xlink:title="controller.CellSocietyController.transition\lToSimulation">
<polygon fill="white" stroke="black" points="1830,-182 1830,-212 2040,-212 2040,-182 1830,-182"/>
<text text-anchor="start" x="1838" y="-200" font-family="Helvetica,sans-Serif" font-size="10.00">controller.CellSocietyController.transition</text>
<text text-anchor="middle" x="1935" y="-189" font-family="Helvetica,sans-Serif" font-size="10.00">ToSimulation</text>
</a>
</g>
</g>
<!-- Node11&#45;&gt;Node14 -->
<g id="edge14" class="edge"><title>Node11&#45;&gt;Node14</title>
<path fill="none" stroke="midnightblue" d="M1284.2,-226.379C1423.91,-220.063 1673.78,-208.765 1819.59,-202.173"/>
<polygon fill="midnightblue" stroke="midnightblue" points="1820.08,-205.654 1829.91,-201.706 1819.76,-198.662 1820.08,-205.654"/>
</g>
<!-- Node15 -->
<g id="node15" class="node"><title>Node15</title>
<g id="a_node15"><a xlink:href="../../d6/d7b/classcontroller_1_1_cell_society_controller.html#af6b4eb647c4e76fef6f27cc61ced4d9a" target="_top" xlink:title="controller.CellSocietyController.initialize\lSimulationScreen">
<polygon fill="white" stroke="black" points="2076.5,-231 2076.5,-261 2279.5,-261 2279.5,-231 2076.5,-231"/>
<text text-anchor="start" x="2084.5" y="-249" font-family="Helvetica,sans-Serif" font-size="10.00">controller.CellSocietyController.initialize</text>
<text text-anchor="middle" x="2178" y="-238" font-family="Helvetica,sans-Serif" font-size="10.00">SimulationScreen</text>
</a>
</g>
</g>
<!-- Node14&#45;&gt;Node15 -->
<g id="edge15" class="edge"><title>Node14&#45;&gt;Node15</title>
<path fill="none" stroke="midnightblue" d="M2009.95,-212.035C2036.32,-217.396 2066.2,-223.473 2093.33,-228.989"/>
<polygon fill="midnightblue" stroke="midnightblue" points="2092.7,-232.431 2103.19,-230.994 2094.09,-225.571 2092.7,-232.431"/>
</g>
<!-- Node19 -->
<g id="node19" class="node"><title>Node19</title>
<g id="a_node19"><a xlink:href="../../d6/d7b/classcontroller_1_1_cell_society_controller.html#a8af25de87ececa5ca913e7b5af486b3f" target="_top" xlink:title="controller.CellSocietyController.initialize\lSimulation">
<polygon fill="white" stroke="black" points="2076.5,-182 2076.5,-212 2279.5,-212 2279.5,-182 2076.5,-182"/>
<text text-anchor="start" x="2084.5" y="-200" font-family="Helvetica,sans-Serif" font-size="10.00">controller.CellSocietyController.initialize</text>
<text text-anchor="middle" x="2178" y="-189" font-family="Helvetica,sans-Serif" font-size="10.00">Simulation</text>
</a>
</g>
</g>
<!-- Node14&#45;&gt;Node19 -->
<g id="edge19" class="edge"><title>Node14&#45;&gt;Node19</title>
<path fill="none" stroke="midnightblue" d="M2040.3,-197C2048.9,-197 2057.61,-197 2066.25,-197"/>
<polygon fill="midnightblue" stroke="midnightblue" points="2066.35,-200.5 2076.35,-197 2066.35,-193.5 2066.35,-200.5"/>
</g>
<!-- Node20 -->
<g id="node20" class="node"><title>Node20</title>
<g id="a_node20"><a xlink:href="../../d6/d7b/classcontroller_1_1_cell_society_controller.html#a7609d9a174ff7d2d00fc27e3574cdb21" target="_top" xlink:title="controller.CellSocietyController.stop\lOrStart">
<polygon fill="white" stroke="black" points="2085,-133 2085,-163 2271,-163 2271,-133 2085,-133"/>
<text text-anchor="start" x="2093" y="-151" font-family="Helvetica,sans-Serif" font-size="10.00">controller.CellSocietyController.stop</text>
<text text-anchor="middle" x="2178" y="-140" font-family="Helvetica,sans-Serif" font-size="10.00">OrStart</text>
</a>
</g>
</g>
<!-- Node14&#45;&gt;Node20 -->
<g id="edge20" class="edge"><title>Node14&#45;&gt;Node20</title>
<path fill="none" stroke="midnightblue" d="M2009.95,-181.965C2036.32,-176.604 2066.2,-170.527 2093.33,-165.011"/>
<polygon fill="midnightblue" stroke="midnightblue" points="2094.09,-168.429 2103.19,-163.006 2092.7,-161.569 2094.09,-168.429"/>
</g>
<!-- Node16 -->
<g id="node16" class="node"><title>Node16</title>
<g id="a_node16"><a xlink:href="../../d1/d3e/classview_1_1_simulation_screen.html#a6c9f5c7e36be620d06e55709bc256d18" target="_top" xlink:title="view.SimulationScreen.init\lSimScreen">
<polygon fill="white" stroke="black" points="2344.5,-263 2344.5,-293 2485.5,-293 2485.5,-263 2344.5,-263"/>
<text text-anchor="start" x="2352.5" y="-281" font-family="Helvetica,sans-Serif" font-size="10.00">view.SimulationScreen.init</text>
<text text-anchor="middle" x="2415" y="-270" font-family="Helvetica,sans-Serif" font-size="10.00">SimScreen</text>
</a>
</g>
</g>
<!-- Node15&#45;&gt;Node16 -->
<g id="edge16" class="edge"><title>Node15&#45;&gt;Node16</title>
<path fill="none" stroke="midnightblue" d="M2279.68,-259.71C2297.91,-262.192 2316.68,-264.748 2334.21,-267.135"/>
<polygon fill="midnightblue" stroke="midnightblue" points="2333.99,-270.637 2344.37,-268.518 2334.93,-263.701 2333.99,-270.637"/>
</g>
<!-- Node18 -->
<g id="node18" class="node"><title>Node18</title>
<g id="a_node18"><a xlink:href="../../d1/d3e/classview_1_1_simulation_screen.html#a482a021910f4b997fb7b798bdc363df4" target="_top" xlink:title="view.SimulationScreen.getNode">
<polygon fill="white" stroke="black" points="2331,-224.5 2331,-243.5 2499,-243.5 2499,-224.5 2331,-224.5"/>
<text text-anchor="middle" x="2415" y="-231.5" font-family="Helvetica,sans-Serif" font-size="10.00">view.SimulationScreen.getNode</text>
</a>
</g>
</g>
<!-- Node15&#45;&gt;Node18 -->
<g id="edge18" class="edge"><title>Node15&#45;&gt;Node18</title>
<path fill="none" stroke="midnightblue" d="M2279.68,-240.859C2293.28,-240.164 2307.19,-239.454 2320.66,-238.767"/>
<polygon fill="midnightblue" stroke="midnightblue" points="2321.05,-242.251 2330.85,-238.246 2320.69,-235.26 2321.05,-242.251"/>
</g>
<!-- Node17 -->
<g id="node17" class="node"><title>Node17</title>
<g id="a_node17"><a xlink:href="../../d1/d3e/classview_1_1_simulation_screen.html#a7144a80861195f360ade7612b479ff3e" target="_top" xlink:title="view.SimulationScreen.add\lButtons">
<polygon fill="white" stroke="black" points="2550.5,-263 2550.5,-293 2695.5,-293 2695.5,-263 2550.5,-263"/>
<text text-anchor="start" x="2558.5" y="-281" font-family="Helvetica,sans-Serif" font-size="10.00">view.SimulationScreen.add</text>
<text text-anchor="middle" x="2623" y="-270" font-family="Helvetica,sans-Serif" font-size="10.00">Buttons</text>
</a>
</g>
</g>
<!-- Node16&#45;&gt;Node17 -->
<g id="edge17" class="edge"><title>Node16&#45;&gt;Node17</title>
<path fill="none" stroke="midnightblue" d="M2485.74,-278C2503.19,-278 2522.07,-278 2540.05,-278"/>
<polygon fill="midnightblue" stroke="midnightblue" points="2540.22,-281.5 2550.22,-278 2540.22,-274.5 2540.22,-281.5"/>
</g>
<!-- Node21 -->
<g id="node21" class="node"><title>Node21</title>
<g id="a_node21"><a xlink:href="../../d6/d7b/classcontroller_1_1_cell_society_controller.html#aec38c45810ee2665fe01832114fbc68d" target="_top" xlink:title="controller.CellSocietyController.restart\lSimulation">
<polygon fill="white" stroke="black" points="2316.5,-163 2316.5,-193 2513.5,-193 2513.5,-163 2316.5,-163"/>
<text text-anchor="start" x="2324.5" y="-181" font-family="Helvetica,sans-Serif" font-size="10.00">controller.CellSocietyController.restart</text>
<text text-anchor="middle" x="2415" y="-170" font-family="Helvetica,sans-Serif" font-size="10.00">Simulation</text>
</a>
</g>
</g>
<!-- Node20&#45;&gt;Node21 -->
<g id="edge21" class="edge"><title>Node20&#45;&gt;Node21</title>
<path fill="none" stroke="midnightblue" d="M2271.2,-159.771C2282.64,-161.231 2294.41,-162.734 2306.06,-164.221"/>
<polygon fill="midnightblue" stroke="midnightblue" points="2305.89,-167.727 2316.25,-165.521 2306.78,-160.783 2305.89,-167.727"/>
</g>
<!-- Node22 -->
<g id="node22" class="node"><title>Node22</title>
<g id="a_node22"><a xlink:href="../../d6/d7b/classcontroller_1_1_cell_society_controller.html#a33e7a77467ceeb880526a1b405b3ee79" target="_top" xlink:title="controller.CellSocietyController.pause\lSimulation">
<polygon fill="white" stroke="black" points="2318,-114 2318,-144 2512,-144 2512,-114 2318,-114"/>
<text text-anchor="start" x="2326" y="-132" font-family="Helvetica,sans-Serif" font-size="10.00">controller.CellSocietyController.pause</text>
<text text-anchor="middle" x="2415" y="-121" font-family="Helvetica,sans-Serif" font-size="10.00">Simulation</text>
</a>
</g>
</g>
<!-- Node20&#45;&gt;Node22 -->
<g id="edge22" class="edge"><title>Node20&#45;&gt;Node22</title>
<path fill="none" stroke="midnightblue" d="M2271.2,-140.545C2283.16,-139.579 2295.48,-138.582 2307.64,-137.599"/>
<polygon fill="midnightblue" stroke="midnightblue" points="2308.12,-141.072 2317.81,-136.777 2307.56,-134.095 2308.12,-141.072"/>
</g>
<!-- Node23&#45;&gt;Node5 -->
<g id="edge25" class="edge"><title>Node23&#45;&gt;Node5</title>
<path fill="none" stroke="midnightblue" d="M792.231,-146.455C808.849,-146.75 826.428,-147.061 843.375,-147.361"/>
<polygon fill="midnightblue" stroke="midnightblue" points="843.77,-150.868 853.831,-147.546 843.894,-143.869 843.77,-150.868"/>
</g>
<!-- Node24 -->
<g id="node24" class="node"><title>Node24</title>
<g id="a_node24"><a xlink:href="../../dd/d02/classview_1_1_splash_screen.html#a2f8c52e9a2a790459e51d5d42f16f7da" target="_top" xlink:title="view.SplashScreen.display\lAskInformatio">
<polygon fill="white" stroke="black" points="866.5,-88 866.5,-118 1007.5,-118 1007.5,-88 866.5,-88"/>
<text text-anchor="start" x="874.5" y="-106" font-family="Helvetica,sans-Serif" font-size="10.00">view.SplashScreen.display</text>
<text text-anchor="middle" x="937" y="-95" font-family="Helvetica,sans-Serif" font-size="10.00">AskInformatio</text>
</a>
</g>
</g>
<!-- Node23&#45;&gt;Node24 -->
<g id="edge26" class="edge"><title>Node23&#45;&gt;Node24</title>
<path fill="none" stroke="midnightblue" d="M790.953,-129.956C812.274,-125.993 835.255,-121.723 856.499,-117.774"/>
<polygon fill="midnightblue" stroke="midnightblue" points="857.256,-121.194 866.448,-115.926 855.977,-114.312 857.256,-121.194"/>
</g>
<!-- Node25 -->
<g id="node25" class="node"><title>Node25</title>
<g id="a_node25"><a xlink:href="../../dd/d02/classview_1_1_splash_screen.html#ab75deddb521d5727122eec02161acc9d" target="_top" xlink:title="view.SplashScreen.remove\lButtons">
<polygon fill="white" stroke="black" points="1108.5,-132 1108.5,-162 1253.5,-162 1253.5,-132 1108.5,-132"/>
<text text-anchor="start" x="1116.5" y="-150" font-family="Helvetica,sans-Serif" font-size="10.00">view.SplashScreen.remove</text>
<text text-anchor="middle" x="1181" y="-139" font-family="Helvetica,sans-Serif" font-size="10.00">Buttons</text>
</a>
</g>
</g>
<!-- Node24&#45;&gt;Node25 -->
<g id="edge27" class="edge"><title>Node24&#45;&gt;Node25</title>
<path fill="none" stroke="midnightblue" d="M1007.67,-115.668C1036.02,-120.822 1068.99,-126.816 1098.45,-132.173"/>
<polygon fill="midnightblue" stroke="midnightblue" points="1097.83,-135.618 1108.3,-133.963 1099.09,-128.731 1097.83,-135.618"/>
</g>
<!-- Node26 -->
<g id="node26" class="node"><title>Node26</title>
<g id="a_node26"><a xlink:href="../../dd/d02/classview_1_1_splash_screen.html#ae484c2f05f910335ffacddd236eb4908" target="_top" xlink:title="view.SplashScreen.addDimensionsText">
<polygon fill="white" stroke="black" points="1080.5,-93.5 1080.5,-112.5 1281.5,-112.5 1281.5,-93.5 1080.5,-93.5"/>
<text text-anchor="middle" x="1181" y="-100.5" font-family="Helvetica,sans-Serif" font-size="10.00">view.SplashScreen.addDimensionsText</text>
</a>
</g>
</g>
<!-- Node24&#45;&gt;Node26 -->
<g id="edge28" class="edge"><title>Node24&#45;&gt;Node26</title>
<path fill="none" stroke="midnightblue" d="M1007.67,-103C1027.2,-103 1048.92,-103 1070.17,-103"/>
<polygon fill="midnightblue" stroke="midnightblue" points="1070.22,-106.5 1080.22,-103 1070.22,-99.5001 1070.22,-106.5"/>
</g>
<!-- Node27 -->
<g id="node27" class="node"><title>Node27</title>
<g id="a_node27"><a xlink:href="../../dd/d02/classview_1_1_splash_screen.html#ae4427d4a548843b069b35328182187fa" target="_top" xlink:title="view.SplashScreen.addSimulation\lNameText">
<polygon fill="white" stroke="black" points="1092.5,-44 1092.5,-74 1269.5,-74 1269.5,-44 1092.5,-44"/>
<text text-anchor="start" x="1100.5" y="-62" font-family="Helvetica,sans-Serif" font-size="10.00">view.SplashScreen.addSimulation</text>
<text text-anchor="middle" x="1181" y="-51" font-family="Helvetica,sans-Serif" font-size="10.00">NameText</text>
</a>
</g>
</g>
<!-- Node24&#45;&gt;Node27 -->
<g id="edge29" class="edge"><title>Node24&#45;&gt;Node27</title>
<path fill="none" stroke="midnightblue" d="M1007.67,-90.3324C1032.43,-85.8301 1060.72,-80.6876 1087.11,-75.8886"/>
<polygon fill="midnightblue" stroke="midnightblue" points="1087.91,-79.3007 1097.12,-74.0682 1086.66,-72.4136 1087.91,-79.3007"/>
</g>
<!-- Node28 -->
<g id="node28" class="node"><title>Node28</title>
<g id="a_node28"><a xlink:href="../../dd/d02/classview_1_1_splash_screen.html#a05478a56856d70fd9508d79ca484fbca" target="_top" xlink:title="view.SplashScreen.addProbabilityText">
<polygon fill="white" stroke="black" points="1084,-5.5 1084,-24.5 1278,-24.5 1278,-5.5 1084,-5.5"/>
<text text-anchor="middle" x="1181" y="-12.5" font-family="Helvetica,sans-Serif" font-size="10.00">view.SplashScreen.addProbabilityText</text>
</a>
</g>
</g>
<!-- Node24&#45;&gt;Node28 -->
<g id="edge30" class="edge"><title>Node24&#45;&gt;Node28</title>
<path fill="none" stroke="midnightblue" d="M963.159,-87.9603C990.513,-72.2482 1035.96,-47.9803 1078,-34 1086.32,-31.233 1095.17,-28.8313 1104.03,-26.7561"/>
<polygon fill="midnightblue" stroke="midnightblue" points="1105.02,-30.1229 1114.03,-24.5496 1103.51,-23.2874 1105.02,-30.1229"/>
</g>
<!-- Node34 -->
<g id="node34" class="node"><title>Node34</title>
<g id="a_node34"><a xlink:href="../../d6/d7b/classcontroller_1_1_cell_society_controller.html#ab65a8810efbc2b92e17ca77cdc591df9" target="_top" xlink:title="controller.CellSocietyController.generate\lRandomGrid">
<polygon fill="white" stroke="black" points="1320.5,-116 1320.5,-146 1529.5,-146 1529.5,-116 1320.5,-116"/>
<text text-anchor="start" x="1328.5" y="-134" font-family="Helvetica,sans-Serif" font-size="10.00">controller.CellSocietyController.generate</text>
<text text-anchor="middle" x="1425" y="-123" font-family="Helvetica,sans-Serif" font-size="10.00">RandomGrid</text>
</a>
</g>
</g>
<!-- Node24&#45;&gt;Node34 -->
<g id="edge37" class="edge"><title>Node24&#45;&gt;Node34</title>
<path fill="none" stroke="midnightblue" d="M1007.5,-114.87C1019.53,-118.62 1031.52,-123.543 1042,-130 1062.65,-142.719 1055.91,-160.999 1078,-171 1161.41,-208.76 1194.22,-188.956 1284,-171 1301,-167.601 1303.52,-161.376 1320,-156 1327.99,-153.392 1336.41,-150.925 1344.86,-148.629"/>
<polygon fill="midnightblue" stroke="midnightblue" points="1345.98,-151.952 1354.76,-146.016 1344.2,-145.184 1345.98,-151.952"/>
</g>
<!-- Node29 -->
<g id="node29" class="node"><title>Node29</title>
<g id="a_node29"><a xlink:href="../../dd/d02/classview_1_1_splash_screen.html#a1e747e968477f14fbd6d6cd4a508e008" target="_top" xlink:title="view.SplashScreen.remove\lAskScreenNodes">
<polygon fill="white" stroke="black" points="1352.5,-49 1352.5,-79 1497.5,-79 1497.5,-49 1352.5,-49"/>
<text text-anchor="start" x="1360.5" y="-67" font-family="Helvetica,sans-Serif" font-size="10.00">view.SplashScreen.remove</text>
<text text-anchor="middle" x="1425" y="-56" font-family="Helvetica,sans-Serif" font-size="10.00">AskScreenNodes</text>
</a>
</g>
</g>
<!-- Node28&#45;&gt;Node29 -->
<g id="edge31" class="edge"><title>Node28&#45;&gt;Node29</title>
<path fill="none" stroke="midnightblue" d="M1234.73,-24.5422C1250.59,-27.487 1268.02,-30.7992 1284,-34 1304.02,-38.0082 1325.6,-42.5321 1345.68,-46.8284"/>
<polygon fill="midnightblue" stroke="midnightblue" points="1345.21,-50.3058 1355.72,-48.9829 1346.67,-43.4618 1345.21,-50.3058"/>
</g>
<!-- Node30 -->
<g id="node30" class="node"><title>Node30</title>
<g id="a_node30"><a xlink:href="../../d6/d7b/classcontroller_1_1_cell_society_controller.html#ada30fdc135cdf08b93065edf15ed3fcc" target="_top" xlink:title="controller.CellSocietyController.generate\lProbabilityRandomGrid">
<polygon fill="white" stroke="black" points="1320.5,-0 1320.5,-30 1529.5,-30 1529.5,-0 1320.5,-0"/>
<text text-anchor="start" x="1328.5" y="-18" font-family="Helvetica,sans-Serif" font-size="10.00">controller.CellSocietyController.generate</text>
<text text-anchor="middle" x="1425" y="-7" font-family="Helvetica,sans-Serif" font-size="10.00">ProbabilityRandomGrid</text>
</a>
</g>
</g>
<!-- Node28&#45;&gt;Node30 -->
<g id="edge32" class="edge"><title>Node28&#45;&gt;Node30</title>
<path fill="none" stroke="midnightblue" d="M1278.34,-15C1288.83,-15 1299.57,-15 1310.25,-15"/>
<polygon fill="midnightblue" stroke="midnightblue" points="1310.44,-18.5001 1320.44,-15 1310.44,-11.5001 1310.44,-18.5001"/>
</g>
<!-- Node31 -->
<g id="node31" class="node"><title>Node31</title>
<g id="a_node31"><a xlink:href="../../d6/d7b/classcontroller_1_1_cell_society_controller.html#a41b6379d34f94114f5ada21e3bb8b52e" target="_top" xlink:title="controller.CellSocietyController.generateGrid">
<polygon fill="white" stroke="black" points="1566,-121.5 1566,-140.5 1794,-140.5 1794,-121.5 1566,-121.5"/>
<text text-anchor="middle" x="1680" y="-128.5" font-family="Helvetica,sans-Serif" font-size="10.00">controller.CellSocietyController.generateGrid</text>
</a>
</g>
</g>
<!-- Node30&#45;&gt;Node31 -->
<g id="edge33" class="edge"><title>Node30&#45;&gt;Node31</title>
<path fill="none" stroke="midnightblue" d="M1503.83,-30.0082C1512.79,-32.6 1521.69,-35.5834 1530,-39 1579.22,-59.2323 1630.8,-94.8131 1658.49,-115.291"/>
<polygon fill="midnightblue" stroke="midnightblue" points="1656.51,-118.179 1666.61,-121.371 1660.71,-112.575 1656.51,-118.179"/>
</g>
<!-- Node31&#45;&gt;Node14 -->
<g id="edge36" class="edge"><title>Node31&#45;&gt;Node14</title>
<path fill="none" stroke="midnightblue" d="M1717.52,-140.526C1756.36,-150.658 1818.66,-166.91 1866.47,-179.384"/>
<polygon fill="midnightblue" stroke="midnightblue" points="1865.88,-182.847 1876.44,-181.985 1867.65,-176.074 1865.88,-182.847"/>
</g>
<!-- Node32 -->
<g id="node32" class="node"><title>Node32</title>
<g id="a_node32"><a xlink:href="../../d8/dd8/classcontroller_1_1_sim_generator.html#a56410ccebd07c1b6d1a3afb41d7997fc" target="_top" xlink:title="controller.SimGenerator.getGrid">
<polygon fill="white" stroke="black" points="1850.5,-86.5 1850.5,-105.5 2019.5,-105.5 2019.5,-86.5 1850.5,-86.5"/>
<text text-anchor="middle" x="1935" y="-93.5" font-family="Helvetica,sans-Serif" font-size="10.00">controller.SimGenerator.getGrid</text>
</a>
</g>
</g>
<!-- Node31&#45;&gt;Node32 -->
<g id="edge34" class="edge"><title>Node31&#45;&gt;Node32</title>
<path fill="none" stroke="midnightblue" d="M1749.8,-121.482C1782.29,-116.988 1821.24,-111.599 1854.94,-106.937"/>
<polygon fill="midnightblue" stroke="midnightblue" points="1855.79,-110.353 1865.21,-105.516 1854.83,-103.419 1855.79,-110.353"/>
</g>
<!-- Node33 -->
<g id="node33" class="node"><title>Node33</title>
<g id="a_node33"><a xlink:href="../../d8/dd8/classcontroller_1_1_sim_generator.html#a9fd6cebed37c16aad5e70dc966ac9fb5" target="_top" xlink:title="controller.SimGenerator.get\lParameters">
<polygon fill="white" stroke="black" points="1860.5,-125 1860.5,-155 2009.5,-155 2009.5,-125 1860.5,-125"/>
<text text-anchor="start" x="1868.5" y="-143" font-family="Helvetica,sans-Serif" font-size="10.00">controller.SimGenerator.get</text>
<text text-anchor="middle" x="1935" y="-132" font-family="Helvetica,sans-Serif" font-size="10.00">Parameters</text>
</a>
</g>
</g>
<!-- Node31&#45;&gt;Node33 -->
<g id="edge35" class="edge"><title>Node31&#45;&gt;Node33</title>
<path fill="none" stroke="midnightblue" d="M1794.18,-135.026C1813.08,-135.698 1832.37,-136.385 1850.36,-137.025"/>
<polygon fill="midnightblue" stroke="midnightblue" points="1850.37,-140.527 1860.49,-137.385 1850.62,-133.532 1850.37,-140.527"/>
</g>
<!-- Node34&#45;&gt;Node31 -->
<g id="edge38" class="edge"><title>Node34&#45;&gt;Node31</title>
<path fill="none" stroke="midnightblue" d="M1529.63,-131C1538.17,-131 1546.84,-131 1555.5,-131"/>
<polygon fill="midnightblue" stroke="midnightblue" points="1555.65,-134.5 1565.65,-131 1555.65,-127.5 1555.65,-134.5"/>
</g>
<!-- Node35&#45;&gt;Node5 -->
<g id="edge40" class="edge"><title>Node35&#45;&gt;Node5</title>
<path fill="none" stroke="midnightblue" d="M767.292,-111.065C787.676,-116.291 810.822,-122.071 832,-127 847.261,-130.552 863.839,-134.167 879.181,-137.414"/>
<polygon fill="midnightblue" stroke="midnightblue" points="878.552,-140.858 889.058,-139.489 879.992,-134.008 878.552,-140.858"/>
</g>
<!-- Node35&#45;&gt;Node24 -->
<g id="edge41" class="edge"><title>Node35&#45;&gt;Node24</title>
<path fill="none" stroke="midnightblue" d="M795.763,-98.6564C815.648,-99.2723 836.729,-99.9252 856.339,-100.533"/>
<polygon fill="midnightblue" stroke="midnightblue" points="856.342,-104.034 866.445,-100.846 856.559,-97.0377 856.342,-104.034"/>
</g>
</g>
</svg>
