<?xml version="1.0" encoding="UTF-8" standalone="no"?>
<!DOCTYPE svg PUBLIC "-//W3C//DTD SVG 1.1//EN"
 "http://www.w3.org/Graphics/SVG/1.1/DTD/svg11.dtd">
<!-- Generated by graphviz version 2.36.0 (20140111.2315)
 -->
<!-- Title: controller.CellSocietyController.manageTimeline Pages: 1 -->
<svg width="920pt" height="38pt"
 viewBox="0.00 0.00 920.00 38.00" xmlns="http://www.w3.org/2000/svg" xmlns:xlink="http://www.w3.org/1999/xlink">
<g id="graph0" class="graph" transform="scale(1 1) rotate(0) translate(4 34)">
<title>controller.CellSocietyController.manageTimeline</title>
<polygon fill="white" stroke="none" points="-4,4 -4,-34 916,-34 916,4 -4,4"/>
<!-- Node1 -->
<g id="node1" class="node"><title>Node1</title>
<polygon fill="#bfbfbf" stroke="black" points="0.5,-0 0.5,-30 205.5,-30 205.5,-0 0.5,-0"/>
<text text-anchor="start" x="8.5" y="-18" font-family="Helvetica,sans-Serif" font-size="10.00">controller.CellSocietyController.manage</text>
<text text-anchor="middle" x="103" y="-7" font-family="Helvetica,sans-Serif" font-size="10.00">Timeline</text>
</g>
<!-- Node2 -->
<g id="node2" class="node"><title>Node2</title>
<g id="a_node2"><a xlink:href="../../d6/d7b/classcontroller_1_1_cell_society_controller.html#a2c91c70640d8de017cd11a225f1e4764" target="_top" xlink:title="controller.CellSocietyController.get\lKeyFrame">
<polygon fill="white" stroke="black" points="242.5,-0 242.5,-30 423.5,-30 423.5,-0 242.5,-0"/>
<text text-anchor="start" x="250.5" y="-18" font-family="Helvetica,sans-Serif" font-size="10.00">controller.CellSocietyController.get</text>
<text text-anchor="middle" x="333" y="-7" font-family="Helvetica,sans-Serif" font-size="10.00">KeyFrame</text>
</a>
</g>
</g>
<!-- Node1&#45;&gt;Node2 -->
<g id="edge1" class="edge"><title>Node1&#45;&gt;Node2</title>
<path fill="none" stroke="midnightblue" d="M205.664,-15C214.455,-15 223.346,-15 232.122,-15"/>
<polygon fill="midnightblue" stroke="midnightblue" points="232.361,-18.5001 242.361,-15 232.361,-11.5001 232.361,-18.5001"/>
</g>
<!-- Node3 -->
<g id="node3" class="node"><title>Node3</title>
<g id="a_node3"><a xlink:href="../../d6/d7b/classcontroller_1_1_cell_society_controller.html#a7ce2131c45f721057c3275b01d6cb119" target="_top" xlink:title="controller.CellSocietyController.update">
<polygon fill="white" stroke="black" points="460.5,-5.5 460.5,-24.5 659.5,-24.5 659.5,-5.5 460.5,-5.5"/>
<text text-anchor="middle" x="560" y="-12.5" font-family="Helvetica,sans-Serif" font-size="10.00">controller.CellSocietyController.update</text>
</a>
</g>
</g>
<!-- Node2&#45;&gt;Node3 -->
<g id="edge2" class="edge"><title>Node2&#45;&gt;Node3</title>
<path fill="none" stroke="midnightblue" d="M423.572,-15C432.387,-15 441.398,-15 450.377,-15"/>
<polygon fill="midnightblue" stroke="midnightblue" points="450.487,-18.5001 460.487,-15 450.487,-11.5001 450.487,-18.5001"/>
</g>
<!-- Node4 -->
<g id="node4" class="node"><title>Node4</title>
<g id="a_node4"><a xlink:href="../../d0/d56/classmodel_1_1simulations_1_1_simulation.html#ab09457a4abc640d4b7ad57c3236d5778" target="_top" xlink:title="model.simulations.Simulation.updateGrid">
<polygon fill="white" stroke="black" points="696.5,-5.5 696.5,-24.5 911.5,-24.5 911.5,-5.5 696.5,-5.5"/>
<text text-anchor="middle" x="804" y="-12.5" font-family="Helvetica,sans-Serif" font-size="10.00">model.simulations.Simulation.updateGrid</text>
</a>
</g>
</g>
<!-- Node3&#45;&gt;Node4 -->
<g id="edge3" class="edge"><title>Node3&#45;&gt;Node4</title>
<path fill="none" stroke="midnightblue" d="M659.78,-15C668.422,-15 677.221,-15 685.991,-15"/>
<polygon fill="midnightblue" stroke="midnightblue" points="686.264,-18.5001 696.264,-15 686.264,-11.5001 686.264,-18.5001"/>
</g>
</g>
</svg>
