<?xml version="1.0" encoding="UTF-8" standalone="no"?>
<!DOCTYPE svg PUBLIC "-//W3C//DTD SVG 1.1//EN"
 "http://www.w3.org/Graphics/SVG/1.1/DTD/svg11.dtd">
<!-- Generated by graphviz version 2.36.0 (20140111.2315)
 -->
<!-- Title: controller.CellSocietyController.pauseSimulation Pages: 1 -->
<svg width="2462pt" height="194pt"
 viewBox="0.00 0.00 2462.00 194.00" xmlns="http://www.w3.org/2000/svg" xmlns:xlink="http://www.w3.org/1999/xlink">
<g id="graph0" class="graph" transform="scale(1 1) rotate(0) translate(4 190)">
<title>controller.CellSocietyController.pauseSimulation</title>
<polygon fill="white" stroke="none" points="-4,4 -4,-190 2458,-190 2458,4 -4,4"/>
<!-- Node1 -->
<g id="node1" class="node"><title>Node1</title>
<polygon fill="#bfbfbf" stroke="black" points="0,-28 0,-58 194,-58 194,-28 0,-28"/>
<text text-anchor="start" x="8" y="-46" font-family="Helvetica,sans-Serif" font-size="10.00">controller.CellSocietyController.pause</text>
<text text-anchor="middle" x="97" y="-35" font-family="Helvetica,sans-Serif" font-size="10.00">Simulation</text>
</g>
<!-- Node2 -->
<g id="node2" class="node"><title>Node2</title>
<g id="a_node2"><a xlink:href="../../d6/d7b/classcontroller_1_1_cell_society_controller.html#a7609d9a174ff7d2d00fc27e3574cdb21" target="_top" xlink:title="controller.CellSocietyController.stop\lOrStart">
<polygon fill="white" stroke="black" points="230,-28 230,-58 416,-58 416,-28 230,-28"/>
<text text-anchor="start" x="238" y="-46" font-family="Helvetica,sans-Serif" font-size="10.00">controller.CellSocietyController.stop</text>
<text text-anchor="middle" x="323" y="-35" font-family="Helvetica,sans-Serif" font-size="10.00">OrStart</text>
</a>
</g>
</g>
<!-- Node1&#45;&gt;Node2 -->
<g id="edge1" class="edge"><title>Node1&#45;&gt;Node2</title>
<path fill="none" stroke="midnightblue" d="M204.522,-43C212.933,-43 221.385,-43 229.688,-43"/>
<polygon fill="midnightblue" stroke="midnightblue" points="204.296,-39.5001 194.296,-43 204.296,-46.5001 204.296,-39.5001"/>
</g>
<!-- Node3 -->
<g id="node3" class="node"><title>Node3</title>
<g id="a_node3"><a xlink:href="../../d6/d7b/classcontroller_1_1_cell_society_controller.html#a3d913ad3344ac48e887110e2fabb5746" target="_top" xlink:title="controller.CellSocietyController.transition\lToSimulation">
<polygon fill="white" stroke="black" points="452,-56 452,-86 662,-86 662,-56 452,-56"/>
<text text-anchor="start" x="460" y="-74" font-family="Helvetica,sans-Serif" font-size="10.00">controller.CellSocietyController.transition</text>
<text text-anchor="middle" x="557" y="-63" font-family="Helvetica,sans-Serif" font-size="10.00">ToSimulation</text>
</a>
</g>
</g>
<!-- Node2&#45;&gt;Node3 -->
<g id="edge2" class="edge"><title>Node2&#45;&gt;Node3</title>
<path fill="none" stroke="midnightblue" d="M426.023,-55.3131C434.589,-56.347 443.259,-57.3933 451.841,-58.4291"/>
<polygon fill="midnightblue" stroke="midnightblue" points="426.373,-51.8301 416.026,-54.1066 425.534,-58.7796 426.373,-51.8301"/>
</g>
<!-- Node19 -->
<g id="node19" class="node"><title>Node19</title>
<g id="a_node19"><a xlink:href="../../d3/d48/classview_1_1_top_menu.html#a40539df58de6aa71c37c6f2a3072b478" target="_top" xlink:title="view.TopMenu.addStopStart\lButton">
<polygon fill="white" stroke="black" points="482.5,-0 482.5,-30 631.5,-30 631.5,-0 482.5,-0"/>
<text text-anchor="start" x="490.5" y="-18" font-family="Helvetica,sans-Serif" font-size="10.00">view.TopMenu.addStopStart</text>
<text text-anchor="middle" x="557" y="-7" font-family="Helvetica,sans-Serif" font-size="10.00">Button</text>
</a>
</g>
</g>
<!-- Node2&#45;&gt;Node19 -->
<g id="edge22" class="edge"><title>Node2&#45;&gt;Node19</title>
<path fill="none" stroke="midnightblue" d="M426.158,-30.6706C445.062,-28.389 464.464,-26.0475 482.316,-23.8929"/>
<polygon fill="midnightblue" stroke="midnightblue" points="425.534,-27.2204 416.026,-31.8934 426.373,-34.1699 425.534,-27.2204"/>
</g>
<!-- Node4 -->
<g id="node4" class="node"><title>Node4</title>
<g id="a_node4"><a xlink:href="../../d6/d7b/classcontroller_1_1_cell_society_controller.html#a41b6379d34f94114f5ada21e3bb8b52e" target="_top" xlink:title="controller.CellSocietyController.generateGrid">
<polygon fill="white" stroke="black" points="698,-112.5 698,-131.5 926,-131.5 926,-112.5 698,-112.5"/>
<text text-anchor="middle" x="812" y="-119.5" font-family="Helvetica,sans-Serif" font-size="10.00">controller.CellSocietyController.generateGrid</text>
</a>
</g>
</g>
<!-- Node3&#45;&gt;Node4 -->
<g id="edge3" class="edge"><title>Node3&#45;&gt;Node4</title>
<path fill="none" stroke="midnightblue" d="M642.386,-88.0106C682.768,-96.1508 729.613,-105.594 763.663,-112.458"/>
<polygon fill="midnightblue" stroke="midnightblue" points="643.034,-84.571 632.54,-86.0258 641.651,-91.433 643.034,-84.571"/>
</g>
<!-- Node14 -->
<g id="node14" class="node"><title>Node14</title>
<g id="a_node14"><a xlink:href="../../d6/d7b/classcontroller_1_1_cell_society_controller.html#a643c7ac22f2822fa7e492dbf4267ed21" target="_top" xlink:title="controller.CellSocietyController.readXML">
<polygon fill="white" stroke="black" points="709,-61.5 709,-80.5 915,-80.5 915,-61.5 709,-61.5"/>
<text text-anchor="middle" x="812" y="-68.5" font-family="Helvetica,sans-Serif" font-size="10.00">controller.CellSocietyController.readXML</text>
</a>
</g>
</g>
<!-- Node3&#45;&gt;Node14 -->
<g id="edge15" class="edge"><title>Node3&#45;&gt;Node14</title>
<path fill="none" stroke="midnightblue" d="M672.163,-71C684.316,-71 696.623,-71 708.629,-71"/>
<polygon fill="midnightblue" stroke="midnightblue" points="672,-67.5001 662,-71 672,-74.5001 672,-67.5001"/>
</g>
<!-- Node5 -->
<g id="node5" class="node"><title>Node5</title>
<g id="a_node5"><a xlink:href="../../d6/d7b/classcontroller_1_1_cell_society_controller.html#ada30fdc135cdf08b93065edf15ed3fcc" target="_top" xlink:title="controller.CellSocietyController.generate\lProbabilityRandomGrid">
<polygon fill="white" stroke="black" points="962.5,-151 962.5,-181 1171.5,-181 1171.5,-151 962.5,-151"/>
<text text-anchor="start" x="970.5" y="-169" font-family="Helvetica,sans-Serif" font-size="10.00">controller.CellSocietyController.generate</text>
<text text-anchor="middle" x="1067" y="-158" font-family="Helvetica,sans-Serif" font-size="10.00">ProbabilityRandomGrid</text>
</a>
</g>
</g>
<!-- Node4&#45;&gt;Node5 -->
<g id="edge4" class="edge"><title>Node4&#45;&gt;Node5</title>
<path fill="none" stroke="midnightblue" d="M878.093,-133.32C908.928,-138.683 946.19,-145.163 979.374,-150.935"/>
<polygon fill="midnightblue" stroke="midnightblue" points="878.349,-129.813 867.897,-131.547 877.15,-136.709 878.349,-129.813"/>
</g>
<!-- Node13 -->
<g id="node13" class="node"><title>Node13</title>
<g id="a_node13"><a xlink:href="../../d6/d7b/classcontroller_1_1_cell_society_controller.html#ab65a8810efbc2b92e17ca77cdc591df9" target="_top" xlink:title="controller.CellSocietyController.generate\lRandomGrid">
<polygon fill="white" stroke="black" points="1208.5,-107 1208.5,-137 1417.5,-137 1417.5,-107 1208.5,-107"/>
<text text-anchor="start" x="1216.5" y="-125" font-family="Helvetica,sans-Serif" font-size="10.00">controller.CellSocietyController.generate</text>
<text text-anchor="middle" x="1313" y="-114" font-family="Helvetica,sans-Serif" font-size="10.00">RandomGrid</text>
</a>
</g>
</g>
<!-- Node4&#45;&gt;Node13 -->
<g id="edge13" class="edge"><title>Node4&#45;&gt;Node13</title>
<path fill="none" stroke="midnightblue" d="M936.289,-122C1019.84,-122 1129.03,-122 1208.15,-122"/>
<polygon fill="midnightblue" stroke="midnightblue" points="936.231,-118.5 926.231,-122 936.231,-125.5 936.231,-118.5"/>
</g>
<!-- Node6 -->
<g id="node6" class="node"><title>Node6</title>
<g id="a_node6"><a xlink:href="../../dd/d02/classview_1_1_splash_screen.html#a05478a56856d70fd9508d79ca484fbca" target="_top" xlink:title="view.SplashScreen.addProbabilityText">
<polygon fill="white" stroke="black" points="1216,-156.5 1216,-175.5 1410,-175.5 1410,-156.5 1216,-156.5"/>
<text text-anchor="middle" x="1313" y="-163.5" font-family="Helvetica,sans-Serif" font-size="10.00">view.SplashScreen.addProbabilityText</text>
</a>
</g>
</g>
<!-- Node5&#45;&gt;Node6 -->
<g id="edge5" class="edge"><title>Node5&#45;&gt;Node6</title>
<path fill="none" stroke="midnightblue" d="M1182.09,-166C1193.31,-166 1204.61,-166 1215.62,-166"/>
<polygon fill="midnightblue" stroke="midnightblue" points="1181.83,-162.5 1171.83,-166 1181.83,-169.5 1181.83,-162.5"/>
</g>
<!-- Node7 -->
<g id="node7" class="node"><title>Node7</title>
<g id="a_node7"><a xlink:href="../../dd/d02/classview_1_1_splash_screen.html#a2f8c52e9a2a790459e51d5d42f16f7da" target="_top" xlink:title="view.SplashScreen.display\lAskInformatio">
<polygon fill="white" stroke="black" points="1467.5,-131 1467.5,-161 1608.5,-161 1608.5,-131 1467.5,-131"/>
<text text-anchor="start" x="1475.5" y="-149" font-family="Helvetica,sans-Serif" font-size="10.00">view.SplashScreen.display</text>
<text text-anchor="middle" x="1538" y="-138" font-family="Helvetica,sans-Serif" font-size="10.00">AskInformatio</text>
</a>
</g>
</g>
<!-- Node6&#45;&gt;Node7 -->
<g id="edge6" class="edge"><title>Node6&#45;&gt;Node7</title>
<path fill="none" stroke="midnightblue" d="M1420.59,-156.44C1436.48,-155.016 1452.49,-153.579 1467.35,-152.247"/>
<polygon fill="midnightblue" stroke="midnightblue" points="1419.84,-152.994 1410.19,-157.373 1420.46,-159.966 1419.84,-152.994"/>
</g>
<!-- Node8 -->
<g id="node8" class="node"><title>Node8</title>
<g id="a_node8"><a xlink:href="../../dd/d02/classview_1_1_splash_screen.html#ad94d9edd23f270a5f480fd54a06d72f3" target="_top" xlink:title="view.SplashScreen.addProbablity\lButton">
<polygon fill="white" stroke="black" points="1658.5,-156 1658.5,-186 1831.5,-186 1831.5,-156 1658.5,-156"/>
<text text-anchor="start" x="1666.5" y="-174" font-family="Helvetica,sans-Serif" font-size="10.00">view.SplashScreen.addProbablity</text>
<text text-anchor="middle" x="1745" y="-163" font-family="Helvetica,sans-Serif" font-size="10.00">Button</text>
</a>
</g>
</g>
<!-- Node7&#45;&gt;Node8 -->
<g id="edge7" class="edge"><title>Node7&#45;&gt;Node8</title>
<path fill="none" stroke="midnightblue" d="M1618.89,-155.743C1631.77,-157.314 1645.15,-158.945 1658.16,-160.532"/>
<polygon fill="midnightblue" stroke="midnightblue" points="1619.04,-152.235 1608.69,-154.499 1618.19,-159.184 1619.04,-152.235"/>
</g>
<!-- Node12 -->
<g id="node12" class="node"><title>Node12</title>
<g id="a_node12"><a xlink:href="../../dd/d02/classview_1_1_splash_screen.html#a17ba24f5ed477a37ea527710e54d65c8" target="_top" xlink:title="view.SplashScreen.addRandom\lButton">
<polygon fill="white" stroke="black" points="1662,-107 1662,-137 1828,-137 1828,-107 1662,-107"/>
<text text-anchor="start" x="1670" y="-125" font-family="Helvetica,sans-Serif" font-size="10.00">view.SplashScreen.addRandom</text>
<text text-anchor="middle" x="1745" y="-114" font-family="Helvetica,sans-Serif" font-size="10.00">Button</text>
</a>
</g>
</g>
<!-- Node7&#45;&gt;Node12 -->
<g id="edge11" class="edge"><title>Node7&#45;&gt;Node12</title>
<path fill="none" stroke="midnightblue" d="M1618.83,-136.654C1632.92,-135.005 1647.61,-133.285 1661.76,-131.628"/>
<polygon fill="midnightblue" stroke="midnightblue" points="1618.21,-133.202 1608.69,-137.841 1619.03,-140.155 1618.21,-133.202"/>
</g>
<!-- Node9 -->
<g id="node9" class="node"><title>Node9</title>
<g id="a_node9"><a xlink:href="../../dd/d02/classview_1_1_splash_screen.html#a6ff42b7dad4e546981a3266f9d694f5a" target="_top" xlink:title="view.SplashScreen.getNode">
<polygon fill="white" stroke="black" points="1868.5,-112.5 1868.5,-131.5 2017.5,-131.5 2017.5,-112.5 1868.5,-112.5"/>
<text text-anchor="middle" x="1943" y="-119.5" font-family="Helvetica,sans-Serif" font-size="10.00">view.SplashScreen.getNode</text>
</a>
</g>
</g>
<!-- Node8&#45;&gt;Node9 -->
<g id="edge8" class="edge"><title>Node8&#45;&gt;Node9</title>
<path fill="none" stroke="midnightblue" d="M1816.02,-153.495C1845.63,-146.093 1878.95,-137.762 1903.89,-131.528"/>
<polygon fill="midnightblue" stroke="midnightblue" points="1814.99,-150.144 1806.14,-155.965 1816.69,-156.935 1814.99,-150.144"/>
</g>
<!-- Node10 -->
<g id="node10" class="node"><title>Node10</title>
<g id="a_node10"><a xlink:href="../../d6/d7b/classcontroller_1_1_cell_society_controller.html#a3f78125e5b809d88d3cf7ed20b3756c2" target="_top" xlink:title="controller.CellSocietyController.display\lSplashScreen">
<polygon fill="white" stroke="black" points="2054,-107 2054,-137 2252,-137 2252,-107 2054,-107"/>
<text text-anchor="start" x="2062" y="-125" font-family="Helvetica,sans-Serif" font-size="10.00">controller.CellSocietyController.display</text>
<text text-anchor="middle" x="2153" y="-114" font-family="Helvetica,sans-Serif" font-size="10.00">SplashScreen</text>
</a>
</g>
</g>
<!-- Node9&#45;&gt;Node10 -->
<g id="edge9" class="edge"><title>Node9&#45;&gt;Node10</title>
<path fill="none" stroke="midnightblue" d="M2027.88,-122C2036.38,-122 2045.07,-122 2053.7,-122"/>
<polygon fill="midnightblue" stroke="midnightblue" points="2027.63,-118.5 2017.63,-122 2027.63,-125.5 2027.63,-118.5"/>
</g>
<!-- Node11 -->
<g id="node11" class="node"><title>Node11</title>
<g id="a_node11"><a xlink:href="../../d6/d7b/classcontroller_1_1_cell_society_controller.html#a6a2310de67e415512149c94c9f36e356" target="_top" xlink:title="controller.CellSocietyController.\lCellSocietyController">
<polygon fill="white" stroke="black" points="2288.5,-107 2288.5,-137 2453.5,-137 2453.5,-107 2288.5,-107"/>
<text text-anchor="start" x="2296.5" y="-125" font-family="Helvetica,sans-Serif" font-size="10.00">controller.CellSocietyController.</text>
<text text-anchor="middle" x="2371" y="-114" font-family="Helvetica,sans-Serif" font-size="10.00">CellSocietyController</text>
</a>
</g>
</g>
<!-- Node10&#45;&gt;Node11 -->
<g id="edge10" class="edge"><title>Node10&#45;&gt;Node11</title>
<path fill="none" stroke="midnightblue" d="M2262.38,-122C2271.07,-122 2279.75,-122 2288.2,-122"/>
<polygon fill="midnightblue" stroke="midnightblue" points="2262.2,-118.5 2252.2,-122 2262.2,-125.5 2262.2,-118.5"/>
</g>
<!-- Node12&#45;&gt;Node9 -->
<g id="edge12" class="edge"><title>Node12&#45;&gt;Node9</title>
<path fill="none" stroke="midnightblue" d="M1838.31,-122C1848.39,-122 1858.55,-122 1868.36,-122"/>
<polygon fill="midnightblue" stroke="midnightblue" points="1838.27,-118.5 1828.27,-122 1838.27,-125.5 1838.27,-118.5"/>
</g>
<!-- Node13&#45;&gt;Node7 -->
<g id="edge14" class="edge"><title>Node13&#45;&gt;Node7</title>
<path fill="none" stroke="midnightblue" d="M1427.94,-134.263C1441.38,-135.709 1454.78,-137.151 1467.34,-138.503"/>
<polygon fill="midnightblue" stroke="midnightblue" points="1427.98,-130.747 1417.67,-133.157 1427.23,-137.707 1427.98,-130.747"/>
</g>
<!-- Node15 -->
<g id="node15" class="node"><title>Node15</title>
<g id="a_node15"><a xlink:href="../../d6/d7b/classcontroller_1_1_cell_society_controller.html#afbdf9a63e15a2bfa878dcfe5ed3ef6dc" target="_top" xlink:title="controller.CellSocietyController.transition\lToFileLoaderScreen">
<polygon fill="white" stroke="black" points="962,-56 962,-86 1172,-86 1172,-56 962,-56"/>
<text text-anchor="start" x="970" y="-74" font-family="Helvetica,sans-Serif" font-size="10.00">controller.CellSocietyController.transition</text>
<text text-anchor="middle" x="1067" y="-63" font-family="Helvetica,sans-Serif" font-size="10.00">ToFileLoaderScreen</text>
</a>
</g>
</g>
<!-- Node14&#45;&gt;Node15 -->
<g id="edge16" class="edge"><title>Node14&#45;&gt;Node15</title>
<path fill="none" stroke="midnightblue" d="M925.317,-64.2879C937.451,-64.2228 949.762,-64.2416 961.794,-64.3441"/>
<polygon fill="midnightblue" stroke="midnightblue" points="925.15,-60.7889 915.176,-64.3622 925.201,-67.7887 925.15,-60.7889"/>
</g>
<!-- Node15&#45;&gt;Node14 -->
<g id="edge17" class="edge"><title>Node15&#45;&gt;Node14</title>
<path fill="none" stroke="midnightblue" d="M951.632,-77.7223C939.479,-77.7779 927.175,-77.7497 915.176,-77.6378"/>
<polygon fill="midnightblue" stroke="midnightblue" points="951.818,-81.2213 961.794,-77.6559 951.772,-74.2214 951.818,-81.2213"/>
</g>
<!-- Node16 -->
<g id="node16" class="node"><title>Node16</title>
<g id="a_node16"><a xlink:href="../../dd/d02/classview_1_1_splash_screen.html#a652092fc5c5862cee4ff84bf231646ab" target="_top" xlink:title="view.SplashScreen.addLoad\lButton">
<polygon fill="white" stroke="black" points="1463.5,-63 1463.5,-93 1612.5,-93 1612.5,-63 1463.5,-63"/>
<text text-anchor="start" x="1471.5" y="-81" font-family="Helvetica,sans-Serif" font-size="10.00">view.SplashScreen.addLoad</text>
<text text-anchor="middle" x="1538" y="-70" font-family="Helvetica,sans-Serif" font-size="10.00">Button</text>
</a>
</g>
</g>
<!-- Node15&#45;&gt;Node16 -->
<g id="edge18" class="edge"><title>Node15&#45;&gt;Node16</title>
<path fill="none" stroke="midnightblue" d="M1182.34,-72.7065C1269.89,-74.0133 1388.07,-75.7772 1463.42,-76.9019"/>
<polygon fill="midnightblue" stroke="midnightblue" points="1182.14,-69.2032 1172.09,-72.5535 1182.03,-76.2025 1182.14,-69.2032"/>
</g>
<!-- Node17 -->
<g id="node17" class="node"><title>Node17</title>
<g id="a_node17"><a xlink:href="../../d3/d48/classview_1_1_top_menu.html#af56bae78812baf114a9ed49ad52694df" target="_top" xlink:title="view.TopMenu.addLoadButton">
<polygon fill="white" stroke="black" points="1234,-30.5 1234,-49.5 1392,-49.5 1392,-30.5 1234,-30.5"/>
<text text-anchor="middle" x="1313" y="-37.5" font-family="Helvetica,sans-Serif" font-size="10.00">view.TopMenu.addLoadButton</text>
</a>
</g>
</g>
<!-- Node15&#45;&gt;Node17 -->
<g id="edge20" class="edge"><title>Node15&#45;&gt;Node17</title>
<path fill="none" stroke="midnightblue" d="M1182.17,-56.4942C1200.76,-54.1325 1219.6,-51.7398 1236.94,-49.5368"/>
<polygon fill="midnightblue" stroke="midnightblue" points="1181.66,-53.0308 1172.19,-57.7633 1182.55,-59.9749 1181.66,-53.0308"/>
</g>
<!-- Node16&#45;&gt;Node9 -->
<g id="edge19" class="edge"><title>Node16&#45;&gt;Node9</title>
<path fill="none" stroke="midnightblue" d="M1623.14,-79.9173C1681.9,-82.1192 1762.04,-86.8478 1832,-97 1857.2,-100.656 1885.17,-107.046 1906.6,-112.45"/>
<polygon fill="midnightblue" stroke="midnightblue" points="1622.91,-76.4069 1612.79,-79.5473 1622.66,-83.4025 1622.91,-76.4069"/>
</g>
<!-- Node18 -->
<g id="node18" class="node"><title>Node18</title>
<g id="a_node18"><a xlink:href="../../d3/d48/classview_1_1_top_menu.html#a4442589b1733d6ad662c92700f27018e" target="_top" xlink:title="view.TopMenu.createTopButtons">
<polygon fill="white" stroke="black" points="1454,-8.5 1454,-27.5 1622,-27.5 1622,-8.5 1454,-8.5"/>
<text text-anchor="middle" x="1538" y="-15.5" font-family="Helvetica,sans-Serif" font-size="10.00">view.TopMenu.createTopButtons</text>
</a>
</g>
</g>
<!-- Node17&#45;&gt;Node18 -->
<g id="edge21" class="edge"><title>Node17&#45;&gt;Node18</title>
<path fill="none" stroke="midnightblue" d="M1402.72,-31.2473C1419.62,-29.5802 1437.25,-27.8412 1453.96,-26.1924"/>
<polygon fill="midnightblue" stroke="midnightblue" points="1401.92,-27.8096 1392.31,-32.2746 1402.6,-34.7758 1401.92,-27.8096"/>
</g>
<!-- Node19&#45;&gt;Node18 -->
<g id="edge23" class="edge"><title>Node19&#45;&gt;Node18</title>
<path fill="none" stroke="midnightblue" d="M641.811,-15.2568C827.056,-15.8245 1269.48,-17.1802 1453.98,-17.7456"/>
<polygon fill="midnightblue" stroke="midnightblue" points="641.595,-11.7562 631.584,-15.2255 641.573,-18.7562 641.595,-11.7562"/>
</g>
</g>
</svg>
