<?xml version="1.0" encoding="UTF-8" standalone="no"?>
<!DOCTYPE svg PUBLIC "-//W3C//DTD SVG 1.1//EN"
 "http://www.w3.org/Graphics/SVG/1.1/DTD/svg11.dtd">
<!-- Generated by graphviz version 2.36.0 (20140111.2315)
 -->
<!-- Title: controller.Main.start Pages: 1 -->
<svg width="1068pt" height="136pt"
 viewBox="0.00 0.00 1068.00 136.00" xmlns="http://www.w3.org/2000/svg" xmlns:xlink="http://www.w3.org/1999/xlink">
<g id="graph0" class="graph" transform="scale(1 1) rotate(0) translate(4 132)">
<title>controller.Main.start</title>
<polygon fill="white" stroke="none" points="-4,4 -4,-132 1064,-132 1064,4 -4,4"/>
<!-- Node1 -->
<g id="node1" class="node"><title>Node1</title>
<polygon fill="#bfbfbf" stroke="black" points="0,-54.5 0,-73.5 112,-73.5 112,-54.5 0,-54.5"/>
<text text-anchor="middle" x="56" y="-61.5" font-family="Helvetica,sans-Serif" font-size="10.00">controller.Main.start</text>
</g>
<!-- Node2 -->
<g id="node2" class="node"><title>Node2</title>
<g id="a_node2"><a xlink:href="../../d6/d7b/classcontroller_1_1_cell_society_controller.html#a29d2ab73cf9bdf13a6a5aab34897f240" target="_top" xlink:title="controller.CellSocietyController.get\lScene">
<polygon fill="white" stroke="black" points="160.5,-98 160.5,-128 341.5,-128 341.5,-98 160.5,-98"/>
<text text-anchor="start" x="168.5" y="-116" font-family="Helvetica,sans-Serif" font-size="10.00">controller.CellSocietyController.get</text>
<text text-anchor="middle" x="251" y="-105" font-family="Helvetica,sans-Serif" font-size="10.00">Scene</text>
</a>
</g>
</g>
<!-- Node1&#45;&gt;Node2 -->
<g id="edge1" class="edge"><title>Node1&#45;&gt;Node2</title>
<path fill="none" stroke="midnightblue" d="M92.8356,-73.6059C109.577,-78.0539 129.79,-83.3675 148,-88 157.674,-90.4611 167.876,-93.0129 177.937,-95.5042"/>
<polygon fill="midnightblue" stroke="midnightblue" points="177.379,-98.9714 187.926,-97.9696 179.056,-92.1753 177.379,-98.9714"/>
</g>
<!-- Node3 -->
<g id="node3" class="node"><title>Node3</title>
<g id="a_node3"><a xlink:href="../../d6/d7b/classcontroller_1_1_cell_society_controller.html#ad1a5392e3462b9b781ef440951024055" target="_top" xlink:title="controller.CellSocietyController.manage\lTimeline">
<polygon fill="white" stroke="black" points="148.5,-49 148.5,-79 353.5,-79 353.5,-49 148.5,-49"/>
<text text-anchor="start" x="156.5" y="-67" font-family="Helvetica,sans-Serif" font-size="10.00">controller.CellSocietyController.manage</text>
<text text-anchor="middle" x="251" y="-56" font-family="Helvetica,sans-Serif" font-size="10.00">Timeline</text>
</a>
</g>
</g>
<!-- Node1&#45;&gt;Node3 -->
<g id="edge2" class="edge"><title>Node1&#45;&gt;Node3</title>
<path fill="none" stroke="midnightblue" d="M112.048,-64C120.305,-64 129.062,-64 138.001,-64"/>
<polygon fill="midnightblue" stroke="midnightblue" points="138.154,-67.5001 148.154,-64 138.154,-60.5001 138.154,-67.5001"/>
</g>
<!-- Node7 -->
<g id="node7" class="node"><title>Node7</title>
<g id="a_node7"><a xlink:href="../../d6/d7b/classcontroller_1_1_cell_society_controller.html#ab77f664fdad00fe59e9dfd63e0c806e7" target="_top" xlink:title="controller.CellSocietyController.set\lFrameRate">
<polygon fill="white" stroke="black" points="161,-0 161,-30 341,-30 341,-0 161,-0"/>
<text text-anchor="start" x="169" y="-18" font-family="Helvetica,sans-Serif" font-size="10.00">controller.CellSocietyController.set</text>
<text text-anchor="middle" x="251" y="-7" font-family="Helvetica,sans-Serif" font-size="10.00">FrameRate</text>
</a>
</g>
</g>
<!-- Node1&#45;&gt;Node7 -->
<g id="edge6" class="edge"><title>Node1&#45;&gt;Node7</title>
<path fill="none" stroke="midnightblue" d="M92.8356,-54.3941C109.577,-49.9461 129.79,-44.6325 148,-40 157.674,-37.5389 167.876,-34.9871 177.937,-32.4958"/>
<polygon fill="midnightblue" stroke="midnightblue" points="179.056,-35.8247 187.926,-30.0304 177.379,-29.0286 179.056,-35.8247"/>
</g>
<!-- Node4 -->
<g id="node4" class="node"><title>Node4</title>
<g id="a_node4"><a xlink:href="../../d6/d7b/classcontroller_1_1_cell_society_controller.html#a2c91c70640d8de017cd11a225f1e4764" target="_top" xlink:title="controller.CellSocietyController.get\lKeyFrame">
<polygon fill="white" stroke="black" points="390.5,-49 390.5,-79 571.5,-79 571.5,-49 390.5,-49"/>
<text text-anchor="start" x="398.5" y="-67" font-family="Helvetica,sans-Serif" font-size="10.00">controller.CellSocietyController.get</text>
<text text-anchor="middle" x="481" y="-56" font-family="Helvetica,sans-Serif" font-size="10.00">KeyFrame</text>
</a>
</g>
</g>
<!-- Node3&#45;&gt;Node4 -->
<g id="edge3" class="edge"><title>Node3&#45;&gt;Node4</title>
<path fill="none" stroke="midnightblue" d="M353.664,-64C362.455,-64 371.346,-64 380.122,-64"/>
<polygon fill="midnightblue" stroke="midnightblue" points="380.361,-67.5001 390.361,-64 380.361,-60.5001 380.361,-67.5001"/>
</g>
<!-- Node5 -->
<g id="node5" class="node"><title>Node5</title>
<g id="a_node5"><a xlink:href="../../d6/d7b/classcontroller_1_1_cell_society_controller.html#a7ce2131c45f721057c3275b01d6cb119" target="_top" xlink:title="controller.CellSocietyController.update">
<polygon fill="white" stroke="black" points="608.5,-54.5 608.5,-73.5 807.5,-73.5 807.5,-54.5 608.5,-54.5"/>
<text text-anchor="middle" x="708" y="-61.5" font-family="Helvetica,sans-Serif" font-size="10.00">controller.CellSocietyController.update</text>
</a>
</g>
</g>
<!-- Node4&#45;&gt;Node5 -->
<g id="edge4" class="edge"><title>Node4&#45;&gt;Node5</title>
<path fill="none" stroke="midnightblue" d="M571.572,-64C580.387,-64 589.398,-64 598.377,-64"/>
<polygon fill="midnightblue" stroke="midnightblue" points="598.487,-67.5001 608.487,-64 598.487,-60.5001 598.487,-67.5001"/>
</g>
<!-- Node6 -->
<g id="node6" class="node"><title>Node6</title>
<g id="a_node6"><a xlink:href="../../d0/d56/classmodel_1_1simulations_1_1_simulation.html#ab09457a4abc640d4b7ad57c3236d5778" target="_top" xlink:title="model.simulations.Simulation.updateGrid">
<polygon fill="white" stroke="black" points="844.5,-54.5 844.5,-73.5 1059.5,-73.5 1059.5,-54.5 844.5,-54.5"/>
<text text-anchor="middle" x="952" y="-61.5" font-family="Helvetica,sans-Serif" font-size="10.00">model.simulations.Simulation.updateGrid</text>
</a>
</g>
</g>
<!-- Node5&#45;&gt;Node6 -->
<g id="edge5" class="edge"><title>Node5&#45;&gt;Node6</title>
<path fill="none" stroke="midnightblue" d="M807.78,-64C816.422,-64 825.221,-64 833.991,-64"/>
<polygon fill="midnightblue" stroke="midnightblue" points="834.264,-67.5001 844.264,-64 834.264,-60.5001 834.264,-67.5001"/>
</g>
</g>
</svg>
