<?xml version="1.0" encoding="UTF-8" standalone="no"?>
<!DOCTYPE svg PUBLIC "-//W3C//DTD SVG 1.1//EN"
 "http://www.w3.org/Graphics/SVG/1.1/DTD/svg11.dtd">
<!-- Generated by graphviz version 2.36.0 (20140111.2315)
 -->
<!-- Title: model.cells.SugarCell Pages: 1 -->
<svg width="324pt" height="140pt"
 viewBox="0.00 0.00 324.00 140.00" xmlns="http://www.w3.org/2000/svg" xmlns:xlink="http://www.w3.org/1999/xlink">
<g id="graph0" class="graph" transform="scale(1 1) rotate(0) translate(4 136)">
<title>model.cells.SugarCell</title>
<polygon fill="white" stroke="none" points="-4,4 -4,-136 320,-136 320,4 -4,4"/>
<!-- Node1 -->
<g id="node1" class="node"><title>Node1</title>
<polygon fill="#bfbfbf" stroke="black" points="97.5,-56.5 97.5,-75.5 216.5,-75.5 216.5,-56.5 97.5,-56.5"/>
<text text-anchor="middle" x="157" y="-63.5" font-family="Helvetica,sans-Serif" font-size="10.00">model.cells.SugarCell</text>
</g>
<!-- Node3 -->
<g id="node3" class="node"><title>Node3</title>
<g id="a_node3"><a xlink:href="../../df/d26/classmodel_1_1cells_1_1_sugar_cell_agent.html" target="_top" xlink:title="model.cells.SugarCellAgent">
<polygon fill="white" stroke="black" points="0,-0.5 0,-19.5 148,-19.5 148,-0.5 0,-0.5"/>
<text text-anchor="middle" x="74" y="-7.5" font-family="Helvetica,sans-Serif" font-size="10.00">model.cells.SugarCellAgent</text>
</a>
</g>
</g>
<!-- Node1&#45;&gt;Node3 -->
<g id="edge2" class="edge"><title>Node1&#45;&gt;Node3</title>
<path fill="none" stroke="midnightblue" d="M134.901,-50.6221C119.738,-40.7574 100.117,-27.9919 87.3023,-19.6545"/>
<polygon fill="midnightblue" stroke="midnightblue" points="133.374,-53.8042 143.665,-56.324 137.191,-47.9367 133.374,-53.8042"/>
</g>
<!-- Node4 -->
<g id="node4" class="node"><title>Node4</title>
<g id="a_node4"><a xlink:href="../../db/de8/classmodel_1_1cells_1_1_sugar_cell_empty.html" target="_top" xlink:title="model.cells.SugarCellEmpty">
<polygon fill="white" stroke="black" points="166,-0.5 166,-19.5 316,-19.5 316,-0.5 166,-0.5"/>
<text text-anchor="middle" x="241" y="-7.5" font-family="Helvetica,sans-Serif" font-size="10.00">model.cells.SugarCellEmpty</text>
</a>
</g>
</g>
<!-- Node1&#45;&gt;Node4 -->
<g id="edge3" class="edge"><title>Node1&#45;&gt;Node4</title>
<path fill="none" stroke="midnightblue" d="M178.932,-50.9005C194.335,-40.9986 214.446,-28.0705 227.537,-19.6545"/>
<polygon fill="midnightblue" stroke="midnightblue" points="177.015,-47.9722 170.496,-56.324 180.801,-53.8605 177.015,-47.9722"/>
</g>
<!-- Node2 -->
<g id="node2" class="node"><title>Node2</title>
<g id="a_node2"><a xlink:href="../../dc/d41/classmodel_1_1cells_1_1_cell.html" target="_top" xlink:title="model.cells.Cell">
<polygon fill="white" stroke="black" points="111.5,-112.5 111.5,-131.5 202.5,-131.5 202.5,-112.5 111.5,-112.5"/>
<text text-anchor="middle" x="157" y="-119.5" font-family="Helvetica,sans-Serif" font-size="10.00">model.cells.Cell</text>
</a>
</g>
</g>
<!-- Node2&#45;&gt;Node1 -->
<g id="edge1" class="edge"><title>Node2&#45;&gt;Node1</title>
<path fill="none" stroke="midnightblue" d="M157,-101.805C157,-92.9102 157,-82.7798 157,-75.7511"/>
<polygon fill="midnightblue" stroke="midnightblue" points="153.5,-102.083 157,-112.083 160.5,-102.083 153.5,-102.083"/>
</g>
</g>
</svg>
