<?xml version="1.0" encoding="UTF-8" standalone="no"?>
<!DOCTYPE svg PUBLIC "-//W3C//DTD SVG 1.1//EN"
 "http://www.w3.org/Graphics/SVG/1.1/DTD/svg11.dtd">
<!-- Generated by graphviz version 2.36.0 (20140111.2315)
 -->
<!-- Title: view.SquareGrid Pages: 1 -->
<svg width="117pt" height="154pt"
 viewBox="0.00 0.00 117.00 154.00" xmlns="http://www.w3.org/2000/svg" xmlns:xlink="http://www.w3.org/1999/xlink">
<g id="graph0" class="graph" transform="scale(1 1) rotate(0) translate(4 150)">
<title>view.SquareGrid</title>
<polygon fill="white" stroke="none" points="-4,4 -4,-150 113,-150 113,4 -4,4"/>
<!-- Node1 -->
<g id="node1" class="node"><title>Node1</title>
<polygon fill="#bfbfbf" stroke="black" points="-0.5,-0.5 -0.5,-19.5 92.5,-19.5 92.5,-0.5 -0.5,-0.5"/>
<text text-anchor="middle" x="46" y="-7.5" font-family="Helvetica,sans-Serif" font-size="10.00">view.SquareGrid</text>
</g>
<!-- Node2 -->
<g id="node2" class="node"><title>Node2</title>
<g id="a_node2"><a xlink:href="../../d7/d7e/classview_1_1_shape_grid.html" target="_top" xlink:title="view.ShapeGrid">
<polygon fill="white" stroke="black" points="1.5,-58.5 1.5,-77.5 90.5,-77.5 90.5,-58.5 1.5,-58.5"/>
<text text-anchor="middle" x="46" y="-65.5" font-family="Helvetica,sans-Serif" font-size="10.00">view.ShapeGrid</text>
</a>
</g>
</g>
<!-- Node2&#45;&gt;Node1 -->
<g id="edge1" class="edge"><title>Node2&#45;&gt;Node1</title>
<path fill="none" stroke="midnightblue" d="M46,-47.953C46,-38.2875 46,-27.0312 46,-19.5052"/>
<polygon fill="midnightblue" stroke="midnightblue" points="42.5001,-48.25 46,-58.25 49.5001,-48.25 42.5001,-48.25"/>
</g>
<!-- Node3 -->
<g id="node3" class="node"><title>Node3</title>
<polygon fill="white" stroke="#bfbfbf" points="22.5,-126.5 22.5,-145.5 69.5,-145.5 69.5,-126.5 22.5,-126.5"/>
<text text-anchor="middle" x="46" y="-133.5" font-family="Helvetica,sans-Serif" font-size="10.00">Shape</text>
</g>
<!-- Node3&#45;&gt;Node2 -->
<g id="edge2" class="edge"><title>Node3&#45;&gt;Node2</title>
<path fill="none" stroke="#9a32cd" stroke-dasharray="5,2" d="M46,-116.041C46,-103.472 46,-87.5631 46,-77.8411"/>
<polygon fill="#9a32cd" stroke="#9a32cd" points="42.5001,-116.372 46,-126.372 49.5001,-116.372 42.5001,-116.372"/>
<text text-anchor="middle" x="77.5" y="-99.5" font-family="Helvetica,sans-Serif" font-size="10.00"> myColorGrid</text>
</g>
</g>
</svg>
