<?xml version="1.0" encoding="UTF-8" standalone="no"?>
<!DOCTYPE svg PUBLIC "-//W3C//DTD SVG 1.1//EN"
 "http://www.w3.org/Graphics/SVG/1.1/DTD/svg11.dtd">
<!-- Generated by graphviz version 2.36.0 (20140111.2315)
 -->
<!-- Title: model.cells.PredatorCell Pages: 1 -->
<svg width="429pt" height="164pt"
 viewBox="0.00 0.00 429.00 164.00" xmlns="http://www.w3.org/2000/svg" xmlns:xlink="http://www.w3.org/1999/xlink">
<g id="graph0" class="graph" transform="scale(1 1) rotate(0) translate(4 160)">
<title>model.cells.PredatorCell</title>
<polygon fill="white" stroke="none" points="-4,4 -4,-160 425,-160 425,4 -4,4"/>
<!-- Node1 -->
<g id="node1" class="node"><title>Node1</title>
<polygon fill="#bfbfbf" stroke="black" points="0,-0.5 0,-19.5 132,-19.5 132,-0.5 0,-0.5"/>
<text text-anchor="middle" x="66" y="-7.5" font-family="Helvetica,sans-Serif" font-size="10.00">model.cells.PredatorCell</text>
</g>
<!-- Node2 -->
<g id="node2" class="node"><title>Node2</title>
<g id="a_node2"><a xlink:href="../../dc/d41/classmodel_1_1cells_1_1_cell.html" target="_top" xlink:title="model.cells.Cell">
<polygon fill="white" stroke="black" points="38.5,-68.5 38.5,-87.5 129.5,-87.5 129.5,-68.5 38.5,-68.5"/>
<text text-anchor="middle" x="84" y="-75.5" font-family="Helvetica,sans-Serif" font-size="10.00">model.cells.Cell</text>
</a>
</g>
</g>
<!-- Node2&#45;&gt;Node1 -->
<g id="edge1" class="edge"><title>Node2&#45;&gt;Node1</title>
<path fill="none" stroke="midnightblue" d="M78.9341,-58.425C75.4903,-45.7978 71.0897,-29.6623 68.4112,-19.8411"/>
<polygon fill="midnightblue" stroke="midnightblue" points="75.6389,-59.6449 81.6468,-68.3717 82.3922,-57.8031 75.6389,-59.6449"/>
</g>
<!-- Node4 -->
<g id="node4" class="node"><title>Node4</title>
<g id="a_node4"><a xlink:href="../../db/d90/classmodel_1_1patches_1_1_patch.html" target="_top" xlink:title="model.patches.Patch">
<polygon fill="white" stroke="black" points="158.5,-0.5 158.5,-19.5 275.5,-19.5 275.5,-0.5 158.5,-0.5"/>
<text text-anchor="middle" x="217" y="-7.5" font-family="Helvetica,sans-Serif" font-size="10.00">model.patches.Patch</text>
</a>
</g>
</g>
<!-- Node2&#45;&gt;Node4 -->
<g id="edge5" class="edge"><title>Node2&#45;&gt;Node4</title>
<path fill="none" stroke="#9a32cd" stroke-dasharray="5,2" d="M114.005,-64.287C123.948,-59.9238 135.021,-54.9016 145,-50 165.033,-40.1603 187.574,-27.7212 202.013,-19.5718"/>
<polygon fill="#9a32cd" stroke="#9a32cd" points="112.302,-61.2106 104.521,-68.4016 115.088,-67.6324 112.302,-61.2106"/>
<text text-anchor="middle" x="186" y="-41.5" font-family="Helvetica,sans-Serif" font-size="10.00"> myCell</text>
</g>
<!-- Node3 -->
<g id="node3" class="node"><title>Node3</title>
<polygon fill="white" stroke="#bfbfbf" points="19,-136.5 19,-155.5 149,-155.5 149,-136.5 19,-136.5"/>
<text text-anchor="middle" x="84" y="-143.5" font-family="Helvetica,sans-Serif" font-size="10.00">List&lt; model.cells.Cell &gt;</text>
</g>
<!-- Node3&#45;&gt;Node2 -->
<g id="edge2" class="edge"><title>Node3&#45;&gt;Node2</title>
<path fill="none" stroke="#9a32cd" stroke-dasharray="5,2" d="M84,-126.041C84,-113.472 84,-97.5631 84,-87.8411"/>
<polygon fill="#9a32cd" stroke="#9a32cd" points="80.5001,-126.372 84,-136.372 87.5001,-126.372 80.5001,-126.372"/>
<text text-anchor="middle" x="117.5" y="-109.5" font-family="Helvetica,sans-Serif" font-size="10.00"> myNeighbors</text>
</g>
<!-- Node4&#45;&gt;Node2 -->
<g id="edge3" class="edge"><title>Node4&#45;&gt;Node2</title>
<path fill="none" stroke="#9a32cd" stroke-dasharray="5,2" d="M148.278,-21.3797C127.421,-25.6889 107.921,-31.2719 100,-38 90.9638,-45.6753 86.9568,-59.2541 85.2325,-68.1913"/>
<polygon fill="#9a32cd" stroke="#9a32cd" points="149.108,-24.7838 158.249,-19.4286 147.763,-17.9141 149.108,-24.7838"/>
<text text-anchor="middle" x="122.5" y="-41.5" font-family="Helvetica,sans-Serif" font-size="10.00"> myPatch</text>
</g>
<!-- Node5 -->
<g id="node5" class="node"><title>Node5</title>
<polygon fill="white" stroke="#bfbfbf" points="198,-136.5 198,-155.5 326,-155.5 326,-136.5 198,-136.5"/>
<text text-anchor="middle" x="262" y="-143.5" font-family="Helvetica,sans-Serif" font-size="10.00">Map&lt; String, Double &gt;</text>
</g>
<!-- Node5&#45;&gt;Node2 -->
<g id="edge7" class="edge"><title>Node5&#45;&gt;Node2</title>
<path fill="none" stroke="#9a32cd" stroke-dasharray="5,2" d="M229.299,-132.875C193.829,-119.723 138.117,-99.066 106.994,-87.5259"/>
<polygon fill="#9a32cd" stroke="#9a32cd" points="228.137,-136.177 238.73,-136.372 230.57,-129.613 228.137,-136.177"/>
<text text-anchor="middle" x="228.5" y="-109.5" font-family="Helvetica,sans-Serif" font-size="10.00"> myPropertyMap</text>
</g>
<!-- Node5&#45;&gt;Node4 -->
<g id="edge4" class="edge"><title>Node5&#45;&gt;Node4</title>
<path fill="none" stroke="#9a32cd" stroke-dasharray="5,2" d="M282.323,-130.042C299.398,-115.483 319.986,-92.0862 313,-68 308.604,-52.8422 306.354,-47.8222 294,-38 283.355,-29.5364 269.866,-23.6236 257.162,-19.5388"/>
<polygon fill="#9a32cd" stroke="#9a32cd" points="279.96,-127.451 274.358,-136.444 284.345,-132.907 279.96,-127.451"/>
<text text-anchor="middle" x="368" y="-75.5" font-family="Helvetica,sans-Serif" font-size="10.00"> myPatchPropertyMap</text>
</g>
<!-- Node6 -->
<g id="node6" class="node"><title>Node6</title>
<polygon fill="white" stroke="#bfbfbf" points="148,-68.5 148,-87.5 304,-87.5 304,-68.5 148,-68.5"/>
<text text-anchor="middle" x="226" y="-75.5" font-family="Helvetica,sans-Serif" font-size="10.00">List&lt; model.patches.Patch &gt;</text>
</g>
<!-- Node6&#45;&gt;Node4 -->
<g id="edge6" class="edge"><title>Node6&#45;&gt;Node4</title>
<path fill="none" stroke="#9a32cd" stroke-dasharray="5,2" d="M223.467,-58.425C221.745,-45.7978 219.545,-29.6623 218.206,-19.8411"/>
<polygon fill="#9a32cd" stroke="#9a32cd" points="220.004,-58.9363 224.823,-68.3717 226.94,-57.9904 220.004,-58.9363"/>
<text text-anchor="middle" x="256.5" y="-41.5" font-family="Helvetica,sans-Serif" font-size="10.00"> myNeighbors</text>
</g>
</g>
</svg>
