<?xml version="1.0" encoding="UTF-8" standalone="no"?>
<!DOCTYPE svg PUBLIC "-//W3C//DTD SVG 1.1//EN"
 "http://www.w3.org/Graphics/SVG/1.1/DTD/svg11.dtd">
<!-- Generated by graphviz version 2.36.0 (20140111.2315)
 -->
<!-- Title: model.cells.SugarCell Pages: 1 -->
<svg width="422pt" height="164pt"
 viewBox="0.00 0.00 422.00 164.00" xmlns="http://www.w3.org/2000/svg" xmlns:xlink="http://www.w3.org/1999/xlink">
<g id="graph0" class="graph" transform="scale(1 1) rotate(0) translate(4 160)">
<title>model.cells.SugarCell</title>
<polygon fill="white" stroke="none" points="-4,4 -4,-160 418,-160 418,4 -4,4"/>
<!-- Node1 -->
<g id="node1" class="node"><title>Node1</title>
<polygon fill="#bfbfbf" stroke="black" points="-0.5,-0.5 -0.5,-19.5 118.5,-19.5 118.5,-0.5 -0.5,-0.5"/>
<text text-anchor="middle" x="59" y="-7.5" font-family="Helvetica,sans-Serif" font-size="10.00">model.cells.SugarCell</text>
</g>
<!-- Node2 -->
<g id="node2" class="node"><title>Node2</title>
<g id="a_node2"><a xlink:href="../../dc/d41/classmodel_1_1cells_1_1_cell.html" target="_top" xlink:title="model.cells.Cell">
<polygon fill="white" stroke="black" points="31.5,-68.5 31.5,-87.5 122.5,-87.5 122.5,-68.5 31.5,-68.5"/>
<text text-anchor="middle" x="77" y="-75.5" font-family="Helvetica,sans-Serif" font-size="10.00">model.cells.Cell</text>
</a>
</g>
</g>
<!-- Node2&#45;&gt;Node1 -->
<g id="edge1" class="edge"><title>Node2&#45;&gt;Node1</title>
<path fill="none" stroke="midnightblue" d="M71.9341,-58.425C68.4903,-45.7978 64.0897,-29.6623 61.4112,-19.8411"/>
<polygon fill="midnightblue" stroke="midnightblue" points="68.6389,-59.6449 74.6468,-68.3717 75.3922,-57.8031 68.6389,-59.6449"/>
</g>
<!-- Node4 -->
<g id="node4" class="node"><title>Node4</title>
<g id="a_node4"><a xlink:href="../../db/d90/classmodel_1_1patches_1_1_patch.html" target="_top" xlink:title="model.patches.Patch">
<polygon fill="white" stroke="black" points="148.5,-0.5 148.5,-19.5 265.5,-19.5 265.5,-0.5 148.5,-0.5"/>
<text text-anchor="middle" x="207" y="-7.5" font-family="Helvetica,sans-Serif" font-size="10.00">model.patches.Patch</text>
</a>
</g>
</g>
<!-- Node2&#45;&gt;Node4 -->
<g id="edge5" class="edge"><title>Node2&#45;&gt;Node4</title>
<path fill="none" stroke="#9a32cd" stroke-dasharray="5,2" d="M106.747,-64.5281C116.773,-60.1411 127.962,-55.0433 138,-50 157.304,-40.3013 178.882,-27.8302 192.685,-19.6351"/>
<polygon fill="#9a32cd" stroke="#9a32cd" points="105.359,-61.3147 97.5653,-68.4913 108.134,-67.7415 105.359,-61.3147"/>
<text text-anchor="middle" x="178" y="-41.5" font-family="Helvetica,sans-Serif" font-size="10.00"> myCell</text>
</g>
<!-- Node3 -->
<g id="node3" class="node"><title>Node3</title>
<polygon fill="white" stroke="#bfbfbf" points="12,-136.5 12,-155.5 142,-155.5 142,-136.5 12,-136.5"/>
<text text-anchor="middle" x="77" y="-143.5" font-family="Helvetica,sans-Serif" font-size="10.00">List&lt; model.cells.Cell &gt;</text>
</g>
<!-- Node3&#45;&gt;Node2 -->
<g id="edge2" class="edge"><title>Node3&#45;&gt;Node2</title>
<path fill="none" stroke="#9a32cd" stroke-dasharray="5,2" d="M77,-126.041C77,-113.472 77,-97.5631 77,-87.8411"/>
<polygon fill="#9a32cd" stroke="#9a32cd" points="73.5001,-126.372 77,-136.372 80.5001,-126.372 73.5001,-126.372"/>
<text text-anchor="middle" x="110.5" y="-109.5" font-family="Helvetica,sans-Serif" font-size="10.00"> myNeighbors</text>
</g>
<!-- Node4&#45;&gt;Node2 -->
<g id="edge3" class="edge"><title>Node4&#45;&gt;Node2</title>
<path fill="none" stroke="#9a32cd" stroke-dasharray="5,2" d="M140.018,-21.5406C119.699,-25.864 100.708,-31.4148 93,-38 83.9859,-45.7013 79.973,-59.2732 78.2414,-68.2018"/>
<polygon fill="#9a32cd" stroke="#9a32cd" points="140.944,-24.9244 150.055,-19.5177 139.561,-18.0624 140.944,-24.9244"/>
<text text-anchor="middle" x="115.5" y="-41.5" font-family="Helvetica,sans-Serif" font-size="10.00"> myPatch</text>
</g>
<!-- Node5 -->
<g id="node5" class="node"><title>Node5</title>
<polygon fill="white" stroke="#bfbfbf" points="191,-136.5 191,-155.5 319,-155.5 319,-136.5 191,-136.5"/>
<text text-anchor="middle" x="255" y="-143.5" font-family="Helvetica,sans-Serif" font-size="10.00">Map&lt; String, Double &gt;</text>
</g>
<!-- Node5&#45;&gt;Node2 -->
<g id="edge7" class="edge"><title>Node5&#45;&gt;Node2</title>
<path fill="none" stroke="#9a32cd" stroke-dasharray="5,2" d="M222.299,-132.875C186.829,-119.723 131.117,-99.066 99.994,-87.5259"/>
<polygon fill="#9a32cd" stroke="#9a32cd" points="221.137,-136.177 231.73,-136.372 223.57,-129.613 221.137,-136.177"/>
<text text-anchor="middle" x="221.5" y="-109.5" font-family="Helvetica,sans-Serif" font-size="10.00"> myPropertyMap</text>
</g>
<!-- Node5&#45;&gt;Node4 -->
<g id="edge4" class="edge"><title>Node5&#45;&gt;Node4</title>
<path fill="none" stroke="#9a32cd" stroke-dasharray="5,2" d="M275.451,-130.004C292.618,-115.418 313.267,-92.0027 306,-68 301.356,-52.6629 298.698,-47.775 286,-38 274.974,-29.5122 261.108,-23.5934 248.083,-19.5104"/>
<polygon fill="#9a32cd" stroke="#9a32cd" points="273.058,-127.436 267.44,-136.419 277.434,-132.9 273.058,-127.436"/>
<text text-anchor="middle" x="361" y="-75.5" font-family="Helvetica,sans-Serif" font-size="10.00"> myPatchPropertyMap</text>
</g>
<!-- Node6 -->
<g id="node6" class="node"><title>Node6</title>
<polygon fill="white" stroke="#bfbfbf" points="141,-68.5 141,-87.5 297,-87.5 297,-68.5 141,-68.5"/>
<text text-anchor="middle" x="219" y="-75.5" font-family="Helvetica,sans-Serif" font-size="10.00">List&lt; model.patches.Patch &gt;</text>
</g>
<!-- Node6&#45;&gt;Node4 -->
<g id="edge6" class="edge"><title>Node6&#45;&gt;Node4</title>
<path fill="none" stroke="#9a32cd" stroke-dasharray="5,2" d="M215.623,-58.425C213.327,-45.7978 210.393,-29.6623 208.607,-19.8411"/>
<polygon fill="#9a32cd" stroke="#9a32cd" points="212.199,-59.1591 217.431,-68.3717 219.086,-57.9068 212.199,-59.1591"/>
<text text-anchor="middle" x="248.5" y="-41.5" font-family="Helvetica,sans-Serif" font-size="10.00"> myNeighbors</text>
</g>
</g>
</svg>
