<?xml version="1.0" encoding="UTF-8" standalone="no"?>
<!DOCTYPE svg PUBLIC "-//W3C//DTD SVG 1.1//EN"
 "http://www.w3.org/Graphics/SVG/1.1/DTD/svg11.dtd">
<!-- Generated by graphviz version 2.36.0 (20140111.2315)
 -->
<!-- Title: controller.SimGenerator.getParameters Pages: 1 -->
<svg width="1924pt" height="87pt"
 viewBox="0.00 0.00 1924.00 87.00" xmlns="http://www.w3.org/2000/svg" xmlns:xlink="http://www.w3.org/1999/xlink">
<g id="graph0" class="graph" transform="scale(1 1) rotate(0) translate(4 83)">
<title>controller.SimGenerator.getParameters</title>
<polygon fill="white" stroke="none" points="-4,4 -4,-83 1920,-83 1920,4 -4,4"/>
<!-- Node1 -->
<g id="node1" class="node"><title>Node1</title>
<polygon fill="#bfbfbf" stroke="black" points="0.5,-24 0.5,-54 149.5,-54 149.5,-24 0.5,-24"/>
<text text-anchor="start" x="8.5" y="-42" font-family="Helvetica,sans-Serif" font-size="10.00">controller.SimGenerator.get</text>
<text text-anchor="middle" x="75" y="-31" font-family="Helvetica,sans-Serif" font-size="10.00">Parameters</text>
</g>
<!-- Node2 -->
<g id="node2" class="node"><title>Node2</title>
<g id="a_node2"><a xlink:href="../../d6/d7b/classcontroller_1_1_cell_society_controller.html#a41b6379d34f94114f5ada21e3bb8b52e" target="_top" xlink:title="controller.CellSocietyController.generateGrid">
<polygon fill="white" stroke="black" points="186,-29.5 186,-48.5 414,-48.5 414,-29.5 186,-29.5"/>
<text text-anchor="middle" x="300" y="-36.5" font-family="Helvetica,sans-Serif" font-size="10.00">controller.CellSocietyController.generateGrid</text>
</a>
</g>
</g>
<!-- Node1&#45;&gt;Node2 -->
<g id="edge1" class="edge"><title>Node1&#45;&gt;Node2</title>
<path fill="none" stroke="midnightblue" d="M159.901,-39C168.421,-39 177.171,-39 185.933,-39"/>
<polygon fill="midnightblue" stroke="midnightblue" points="159.637,-35.5001 149.637,-39 159.637,-42.5001 159.637,-35.5001"/>
</g>
<!-- Node3 -->
<g id="node3" class="node"><title>Node3</title>
<g id="a_node3"><a xlink:href="../../d6/d7b/classcontroller_1_1_cell_society_controller.html#ada30fdc135cdf08b93065edf15ed3fcc" target="_top" xlink:title="controller.CellSocietyController.generate\lProbabilityRandomGrid">
<polygon fill="white" stroke="black" points="450.5,-46 450.5,-76 659.5,-76 659.5,-46 450.5,-46"/>
<text text-anchor="start" x="458.5" y="-64" font-family="Helvetica,sans-Serif" font-size="10.00">controller.CellSocietyController.generate</text>
<text text-anchor="middle" x="555" y="-53" font-family="Helvetica,sans-Serif" font-size="10.00">ProbabilityRandomGrid</text>
</a>
</g>
</g>
<!-- Node2&#45;&gt;Node3 -->
<g id="edge2" class="edge"><title>Node2&#45;&gt;Node3</title>
<path fill="none" stroke="midnightblue" d="M420.764,-49.4143C430.644,-50.2734 440.579,-51.1373 450.327,-51.9849"/>
<polygon fill="midnightblue" stroke="midnightblue" points="420.764,-45.9011 410.498,-48.5216 420.157,-52.8748 420.764,-45.9011"/>
</g>
<!-- Node11 -->
<g id="node11" class="node"><title>Node11</title>
<g id="a_node11"><a xlink:href="../../d6/d7b/classcontroller_1_1_cell_society_controller.html#ab65a8810efbc2b92e17ca77cdc591df9" target="_top" xlink:title="controller.CellSocietyController.generate\lRandomGrid">
<polygon fill="white" stroke="black" points="696.5,-2 696.5,-32 905.5,-32 905.5,-2 696.5,-2"/>
<text text-anchor="start" x="704.5" y="-20" font-family="Helvetica,sans-Serif" font-size="10.00">controller.CellSocietyController.generate</text>
<text text-anchor="middle" x="801" y="-9" font-family="Helvetica,sans-Serif" font-size="10.00">RandomGrid</text>
</a>
</g>
</g>
<!-- Node2&#45;&gt;Node11 -->
<g id="edge11" class="edge"><title>Node2&#45;&gt;Node11</title>
<path fill="none" stroke="midnightblue" d="M424.289,-33.5644C507.841,-29.8808 617.027,-25.067 696.145,-21.5788"/>
<polygon fill="midnightblue" stroke="midnightblue" points="424.067,-30.0707 414.231,-34.0079 424.375,-37.0639 424.067,-30.0707"/>
</g>
<!-- Node4 -->
<g id="node4" class="node"><title>Node4</title>
<g id="a_node4"><a xlink:href="../../dd/d02/classview_1_1_splash_screen.html#a05478a56856d70fd9508d79ca484fbca" target="_top" xlink:title="view.SplashScreen.addProbabilityText">
<polygon fill="white" stroke="black" points="704,-51.5 704,-70.5 898,-70.5 898,-51.5 704,-51.5"/>
<text text-anchor="middle" x="801" y="-58.5" font-family="Helvetica,sans-Serif" font-size="10.00">view.SplashScreen.addProbabilityText</text>
</a>
</g>
</g>
<!-- Node3&#45;&gt;Node4 -->
<g id="edge3" class="edge"><title>Node3&#45;&gt;Node4</title>
<path fill="none" stroke="midnightblue" d="M670.093,-61C681.306,-61 692.609,-61 703.619,-61"/>
<polygon fill="midnightblue" stroke="midnightblue" points="669.832,-57.5001 659.832,-61 669.832,-64.5001 669.832,-57.5001"/>
</g>
<!-- Node5 -->
<g id="node5" class="node"><title>Node5</title>
<g id="a_node5"><a xlink:href="../../dd/d02/classview_1_1_splash_screen.html#a2f8c52e9a2a790459e51d5d42f16f7da" target="_top" xlink:title="view.SplashScreen.display\lAskInformatio">
<polygon fill="white" stroke="black" points="942.5,-24 942.5,-54 1083.5,-54 1083.5,-24 942.5,-24"/>
<text text-anchor="start" x="950.5" y="-42" font-family="Helvetica,sans-Serif" font-size="10.00">view.SplashScreen.display</text>
<text text-anchor="middle" x="1013" y="-31" font-family="Helvetica,sans-Serif" font-size="10.00">AskInformatio</text>
</a>
</g>
</g>
<!-- Node4&#45;&gt;Node5 -->
<g id="edge4" class="edge"><title>Node4&#45;&gt;Node5</title>
<path fill="none" stroke="midnightblue" d="M902.997,-50.4193C916.257,-49.0302 929.603,-47.6321 942.186,-46.3139"/>
<polygon fill="midnightblue" stroke="midnightblue" points="902.469,-46.9555 892.888,-51.4784 903.198,-53.9174 902.469,-46.9555"/>
</g>
<!-- Node6 -->
<g id="node6" class="node"><title>Node6</title>
<g id="a_node6"><a xlink:href="../../dd/d02/classview_1_1_splash_screen.html#ad94d9edd23f270a5f480fd54a06d72f3" target="_top" xlink:title="view.SplashScreen.addProbablity\lButton">
<polygon fill="white" stroke="black" points="1120.5,-49 1120.5,-79 1293.5,-79 1293.5,-49 1120.5,-49"/>
<text text-anchor="start" x="1128.5" y="-67" font-family="Helvetica,sans-Serif" font-size="10.00">view.SplashScreen.addProbablity</text>
<text text-anchor="middle" x="1207" y="-56" font-family="Helvetica,sans-Serif" font-size="10.00">Button</text>
</a>
</g>
</g>
<!-- Node5&#45;&gt;Node6 -->
<g id="edge5" class="edge"><title>Node5&#45;&gt;Node6</title>
<path fill="none" stroke="midnightblue" d="M1093.76,-49.3855C1102.51,-50.5253 1111.45,-51.6892 1120.28,-52.8379"/>
<polygon fill="midnightblue" stroke="midnightblue" points="1093.96,-45.8815 1083.59,-48.0609 1093.05,-52.8229 1093.96,-45.8815"/>
</g>
<!-- Node10 -->
<g id="node10" class="node"><title>Node10</title>
<g id="a_node10"><a xlink:href="../../dd/d02/classview_1_1_splash_screen.html#a17ba24f5ed477a37ea527710e54d65c8" target="_top" xlink:title="view.SplashScreen.addRandom\lButton">
<polygon fill="white" stroke="black" points="1124,-0 1124,-30 1290,-30 1290,-0 1124,-0"/>
<text text-anchor="start" x="1132" y="-18" font-family="Helvetica,sans-Serif" font-size="10.00">view.SplashScreen.addRandom</text>
<text text-anchor="middle" x="1207" y="-7" font-family="Helvetica,sans-Serif" font-size="10.00">Button</text>
</a>
</g>
</g>
<!-- Node5&#45;&gt;Node10 -->
<g id="edge9" class="edge"><title>Node5&#45;&gt;Node10</title>
<path fill="none" stroke="midnightblue" d="M1093.52,-29.0595C1103.56,-27.8051 1113.84,-26.5197 1123.92,-25.2604"/>
<polygon fill="midnightblue" stroke="midnightblue" points="1093.08,-25.5881 1083.59,-30.3015 1093.94,-32.5341 1093.08,-25.5881"/>
</g>
<!-- Node7 -->
<g id="node7" class="node"><title>Node7</title>
<g id="a_node7"><a xlink:href="../../dd/d02/classview_1_1_splash_screen.html#a6ff42b7dad4e546981a3266f9d694f5a" target="_top" xlink:title="view.SplashScreen.getNode">
<polygon fill="white" stroke="black" points="1330.5,-29.5 1330.5,-48.5 1479.5,-48.5 1479.5,-29.5 1330.5,-29.5"/>
<text text-anchor="middle" x="1405" y="-36.5" font-family="Helvetica,sans-Serif" font-size="10.00">view.SplashScreen.getNode</text>
</a>
</g>
</g>
<!-- Node6&#45;&gt;Node7 -->
<g id="edge6" class="edge"><title>Node6&#45;&gt;Node7</title>
<path fill="none" stroke="midnightblue" d="M1303.78,-51.783C1312.75,-50.6392 1321.74,-49.4922 1330.46,-48.3804"/>
<polygon fill="midnightblue" stroke="midnightblue" points="1303.16,-48.3338 1293.68,-53.071 1304.05,-55.2775 1303.16,-48.3338"/>
</g>
<!-- Node8 -->
<g id="node8" class="node"><title>Node8</title>
<g id="a_node8"><a xlink:href="../../d6/d7b/classcontroller_1_1_cell_society_controller.html#a3f78125e5b809d88d3cf7ed20b3756c2" target="_top" xlink:title="controller.CellSocietyController.display\lSplashScreen">
<polygon fill="white" stroke="black" points="1516,-24 1516,-54 1714,-54 1714,-24 1516,-24"/>
<text text-anchor="start" x="1524" y="-42" font-family="Helvetica,sans-Serif" font-size="10.00">controller.CellSocietyController.display</text>
<text text-anchor="middle" x="1615" y="-31" font-family="Helvetica,sans-Serif" font-size="10.00">SplashScreen</text>
</a>
</g>
</g>
<!-- Node7&#45;&gt;Node8 -->
<g id="edge7" class="edge"><title>Node7&#45;&gt;Node8</title>
<path fill="none" stroke="midnightblue" d="M1489.88,-39C1498.38,-39 1507.07,-39 1515.7,-39"/>
<polygon fill="midnightblue" stroke="midnightblue" points="1489.63,-35.5001 1479.63,-39 1489.63,-42.5001 1489.63,-35.5001"/>
</g>
<!-- Node9 -->
<g id="node9" class="node"><title>Node9</title>
<g id="a_node9"><a xlink:href="../../d6/d7b/classcontroller_1_1_cell_society_controller.html#a6a2310de67e415512149c94c9f36e356" target="_top" xlink:title="controller.CellSocietyController.\lCellSocietyController">
<polygon fill="white" stroke="black" points="1750.5,-24 1750.5,-54 1915.5,-54 1915.5,-24 1750.5,-24"/>
<text text-anchor="start" x="1758.5" y="-42" font-family="Helvetica,sans-Serif" font-size="10.00">controller.CellSocietyController.</text>
<text text-anchor="middle" x="1833" y="-31" font-family="Helvetica,sans-Serif" font-size="10.00">CellSocietyController</text>
</a>
</g>
</g>
<!-- Node8&#45;&gt;Node9 -->
<g id="edge8" class="edge"><title>Node8&#45;&gt;Node9</title>
<path fill="none" stroke="midnightblue" d="M1724.38,-39C1733.07,-39 1741.75,-39 1750.2,-39"/>
<polygon fill="midnightblue" stroke="midnightblue" points="1724.2,-35.5001 1714.2,-39 1724.2,-42.5001 1724.2,-35.5001"/>
</g>
<!-- Node10&#45;&gt;Node7 -->
<g id="edge10" class="edge"><title>Node10&#45;&gt;Node7</title>
<path fill="none" stroke="midnightblue" d="M1300.31,-26.3029C1310.39,-27.5371 1320.55,-28.7813 1330.36,-29.9828"/>
<polygon fill="midnightblue" stroke="midnightblue" points="1300.62,-22.8153 1290.27,-25.0738 1299.77,-29.7634 1300.62,-22.8153"/>
</g>
<!-- Node11&#45;&gt;Node5 -->
<g id="edge12" class="edge"><title>Node11&#45;&gt;Node5</title>
<path fill="none" stroke="midnightblue" d="M915.932,-28.9358C924.913,-29.8766 933.807,-30.8083 942.347,-31.703"/>
<polygon fill="midnightblue" stroke="midnightblue" points="916.08,-25.4322 905.77,-27.8711 915.35,-32.3941 916.08,-25.4322"/>
</g>
</g>
</svg>
