<?xml version="1.0" encoding="UTF-8" standalone="no"?>
<!DOCTYPE svg PUBLIC "-//W3C//DTD SVG 1.1//EN"
 "http://www.w3.org/Graphics/SVG/1.1/DTD/svg11.dtd">
<!-- Generated by graphviz version 2.36.0 (20140111.2315)
 -->
<!-- Title: controller.SimGenerator.getGrid Pages: 1 -->
<svg width="1944pt" height="87pt"
 viewBox="0.00 0.00 1944.00 87.00" xmlns="http://www.w3.org/2000/svg" xmlns:xlink="http://www.w3.org/1999/xlink">
<g id="graph0" class="graph" transform="scale(1 1) rotate(0) translate(4 83)">
<title>controller.SimGenerator.getGrid</title>
<polygon fill="white" stroke="none" points="-4,4 -4,-83 1940,-83 1940,4 -4,4"/>
<!-- Node1 -->
<g id="node1" class="node"><title>Node1</title>
<polygon fill="#bfbfbf" stroke="black" points="0.5,-29.5 0.5,-48.5 169.5,-48.5 169.5,-29.5 0.5,-29.5"/>
<text text-anchor="middle" x="85" y="-36.5" font-family="Helvetica,sans-Serif" font-size="10.00">controller.SimGenerator.getGrid</text>
</g>
<!-- Node2 -->
<g id="node2" class="node"><title>Node2</title>
<g id="a_node2"><a xlink:href="../../d6/d7b/classcontroller_1_1_cell_society_controller.html#a41b6379d34f94114f5ada21e3bb8b52e" target="_top" xlink:title="controller.CellSocietyController.generateGrid">
<polygon fill="white" stroke="black" points="206,-29.5 206,-48.5 434,-48.5 434,-29.5 206,-29.5"/>
<text text-anchor="middle" x="320" y="-36.5" font-family="Helvetica,sans-Serif" font-size="10.00">controller.CellSocietyController.generateGrid</text>
</a>
</g>
</g>
<!-- Node1&#45;&gt;Node2 -->
<g id="edge1" class="edge"><title>Node1&#45;&gt;Node2</title>
<path fill="none" stroke="midnightblue" d="M179.799,-39C188.403,-39 197.18,-39 205.93,-39"/>
<polygon fill="midnightblue" stroke="midnightblue" points="179.789,-35.5001 169.789,-39 179.789,-42.5001 179.789,-35.5001"/>
</g>
<!-- Node3 -->
<g id="node3" class="node"><title>Node3</title>
<g id="a_node3"><a xlink:href="../../d6/d7b/classcontroller_1_1_cell_society_controller.html#ada30fdc135cdf08b93065edf15ed3fcc" target="_top" xlink:title="controller.CellSocietyController.generate\lProbabilityRandomGrid">
<polygon fill="white" stroke="black" points="470.5,-46 470.5,-76 679.5,-76 679.5,-46 470.5,-46"/>
<text text-anchor="start" x="478.5" y="-64" font-family="Helvetica,sans-Serif" font-size="10.00">controller.CellSocietyController.generate</text>
<text text-anchor="middle" x="575" y="-53" font-family="Helvetica,sans-Serif" font-size="10.00">ProbabilityRandomGrid</text>
</a>
</g>
</g>
<!-- Node2&#45;&gt;Node3 -->
<g id="edge2" class="edge"><title>Node2&#45;&gt;Node3</title>
<path fill="none" stroke="midnightblue" d="M440.764,-49.4143C450.644,-50.2734 460.579,-51.1373 470.327,-51.9849"/>
<polygon fill="midnightblue" stroke="midnightblue" points="440.764,-45.9011 430.498,-48.5216 440.157,-52.8748 440.764,-45.9011"/>
</g>
<!-- Node11 -->
<g id="node11" class="node"><title>Node11</title>
<g id="a_node11"><a xlink:href="../../d6/d7b/classcontroller_1_1_cell_society_controller.html#ab65a8810efbc2b92e17ca77cdc591df9" target="_top" xlink:title="controller.CellSocietyController.generate\lRandomGrid">
<polygon fill="white" stroke="black" points="716.5,-2 716.5,-32 925.5,-32 925.5,-2 716.5,-2"/>
<text text-anchor="start" x="724.5" y="-20" font-family="Helvetica,sans-Serif" font-size="10.00">controller.CellSocietyController.generate</text>
<text text-anchor="middle" x="821" y="-9" font-family="Helvetica,sans-Serif" font-size="10.00">RandomGrid</text>
</a>
</g>
</g>
<!-- Node2&#45;&gt;Node11 -->
<g id="edge11" class="edge"><title>Node2&#45;&gt;Node11</title>
<path fill="none" stroke="midnightblue" d="M444.289,-33.5644C527.841,-29.8808 637.027,-25.067 716.145,-21.5788"/>
<polygon fill="midnightblue" stroke="midnightblue" points="444.067,-30.0707 434.231,-34.0079 444.375,-37.0639 444.067,-30.0707"/>
</g>
<!-- Node4 -->
<g id="node4" class="node"><title>Node4</title>
<g id="a_node4"><a xlink:href="../../dd/d02/classview_1_1_splash_screen.html#a05478a56856d70fd9508d79ca484fbca" target="_top" xlink:title="view.SplashScreen.addProbabilityText">
<polygon fill="white" stroke="black" points="724,-51.5 724,-70.5 918,-70.5 918,-51.5 724,-51.5"/>
<text text-anchor="middle" x="821" y="-58.5" font-family="Helvetica,sans-Serif" font-size="10.00">view.SplashScreen.addProbabilityText</text>
</a>
</g>
</g>
<!-- Node3&#45;&gt;Node4 -->
<g id="edge3" class="edge"><title>Node3&#45;&gt;Node4</title>
<path fill="none" stroke="midnightblue" d="M690.093,-61C701.306,-61 712.609,-61 723.619,-61"/>
<polygon fill="midnightblue" stroke="midnightblue" points="689.832,-57.5001 679.832,-61 689.832,-64.5001 689.832,-57.5001"/>
</g>
<!-- Node5 -->
<g id="node5" class="node"><title>Node5</title>
<g id="a_node5"><a xlink:href="../../dd/d02/classview_1_1_splash_screen.html#a2f8c52e9a2a790459e51d5d42f16f7da" target="_top" xlink:title="view.SplashScreen.display\lAskInformatio">
<polygon fill="white" stroke="black" points="962.5,-24 962.5,-54 1103.5,-54 1103.5,-24 962.5,-24"/>
<text text-anchor="start" x="970.5" y="-42" font-family="Helvetica,sans-Serif" font-size="10.00">view.SplashScreen.display</text>
<text text-anchor="middle" x="1033" y="-31" font-family="Helvetica,sans-Serif" font-size="10.00">AskInformatio</text>
</a>
</g>
</g>
<!-- Node4&#45;&gt;Node5 -->
<g id="edge4" class="edge"><title>Node4&#45;&gt;Node5</title>
<path fill="none" stroke="midnightblue" d="M922.997,-50.4193C936.257,-49.0302 949.603,-47.6321 962.186,-46.3139"/>
<polygon fill="midnightblue" stroke="midnightblue" points="922.469,-46.9555 912.888,-51.4784 923.198,-53.9174 922.469,-46.9555"/>
</g>
<!-- Node6 -->
<g id="node6" class="node"><title>Node6</title>
<g id="a_node6"><a xlink:href="../../dd/d02/classview_1_1_splash_screen.html#ad94d9edd23f270a5f480fd54a06d72f3" target="_top" xlink:title="view.SplashScreen.addProbablity\lButton">
<polygon fill="white" stroke="black" points="1140.5,-49 1140.5,-79 1313.5,-79 1313.5,-49 1140.5,-49"/>
<text text-anchor="start" x="1148.5" y="-67" font-family="Helvetica,sans-Serif" font-size="10.00">view.SplashScreen.addProbablity</text>
<text text-anchor="middle" x="1227" y="-56" font-family="Helvetica,sans-Serif" font-size="10.00">Button</text>
</a>
</g>
</g>
<!-- Node5&#45;&gt;Node6 -->
<g id="edge5" class="edge"><title>Node5&#45;&gt;Node6</title>
<path fill="none" stroke="midnightblue" d="M1113.76,-49.3855C1122.51,-50.5253 1131.45,-51.6892 1140.28,-52.8379"/>
<polygon fill="midnightblue" stroke="midnightblue" points="1113.96,-45.8815 1103.59,-48.0609 1113.05,-52.8229 1113.96,-45.8815"/>
</g>
<!-- Node10 -->
<g id="node10" class="node"><title>Node10</title>
<g id="a_node10"><a xlink:href="../../dd/d02/classview_1_1_splash_screen.html#a17ba24f5ed477a37ea527710e54d65c8" target="_top" xlink:title="view.SplashScreen.addRandom\lButton">
<polygon fill="white" stroke="black" points="1144,-0 1144,-30 1310,-30 1310,-0 1144,-0"/>
<text text-anchor="start" x="1152" y="-18" font-family="Helvetica,sans-Serif" font-size="10.00">view.SplashScreen.addRandom</text>
<text text-anchor="middle" x="1227" y="-7" font-family="Helvetica,sans-Serif" font-size="10.00">Button</text>
</a>
</g>
</g>
<!-- Node5&#45;&gt;Node10 -->
<g id="edge9" class="edge"><title>Node5&#45;&gt;Node10</title>
<path fill="none" stroke="midnightblue" d="M1113.52,-29.0595C1123.56,-27.8051 1133.84,-26.5197 1143.92,-25.2604"/>
<polygon fill="midnightblue" stroke="midnightblue" points="1113.08,-25.5881 1103.59,-30.3015 1113.94,-32.5341 1113.08,-25.5881"/>
</g>
<!-- Node7 -->
<g id="node7" class="node"><title>Node7</title>
<g id="a_node7"><a xlink:href="../../dd/d02/classview_1_1_splash_screen.html#a6ff42b7dad4e546981a3266f9d694f5a" target="_top" xlink:title="view.SplashScreen.getNode">
<polygon fill="white" stroke="black" points="1350.5,-29.5 1350.5,-48.5 1499.5,-48.5 1499.5,-29.5 1350.5,-29.5"/>
<text text-anchor="middle" x="1425" y="-36.5" font-family="Helvetica,sans-Serif" font-size="10.00">view.SplashScreen.getNode</text>
</a>
</g>
</g>
<!-- Node6&#45;&gt;Node7 -->
<g id="edge6" class="edge"><title>Node6&#45;&gt;Node7</title>
<path fill="none" stroke="midnightblue" d="M1323.78,-51.783C1332.75,-50.6392 1341.74,-49.4922 1350.46,-48.3804"/>
<polygon fill="midnightblue" stroke="midnightblue" points="1323.16,-48.3338 1313.68,-53.071 1324.05,-55.2775 1323.16,-48.3338"/>
</g>
<!-- Node8 -->
<g id="node8" class="node"><title>Node8</title>
<g id="a_node8"><a xlink:href="../../d6/d7b/classcontroller_1_1_cell_society_controller.html#a3f78125e5b809d88d3cf7ed20b3756c2" target="_top" xlink:title="controller.CellSocietyController.display\lSplashScreen">
<polygon fill="white" stroke="black" points="1536,-24 1536,-54 1734,-54 1734,-24 1536,-24"/>
<text text-anchor="start" x="1544" y="-42" font-family="Helvetica,sans-Serif" font-size="10.00">controller.CellSocietyController.display</text>
<text text-anchor="middle" x="1635" y="-31" font-family="Helvetica,sans-Serif" font-size="10.00">SplashScreen</text>
</a>
</g>
</g>
<!-- Node7&#45;&gt;Node8 -->
<g id="edge7" class="edge"><title>Node7&#45;&gt;Node8</title>
<path fill="none" stroke="midnightblue" d="M1509.88,-39C1518.38,-39 1527.07,-39 1535.7,-39"/>
<polygon fill="midnightblue" stroke="midnightblue" points="1509.63,-35.5001 1499.63,-39 1509.63,-42.5001 1509.63,-35.5001"/>
</g>
<!-- Node9 -->
<g id="node9" class="node"><title>Node9</title>
<g id="a_node9"><a xlink:href="../../d6/d7b/classcontroller_1_1_cell_society_controller.html#a6a2310de67e415512149c94c9f36e356" target="_top" xlink:title="controller.CellSocietyController.\lCellSocietyController">
<polygon fill="white" stroke="black" points="1770.5,-24 1770.5,-54 1935.5,-54 1935.5,-24 1770.5,-24"/>
<text text-anchor="start" x="1778.5" y="-42" font-family="Helvetica,sans-Serif" font-size="10.00">controller.CellSocietyController.</text>
<text text-anchor="middle" x="1853" y="-31" font-family="Helvetica,sans-Serif" font-size="10.00">CellSocietyController</text>
</a>
</g>
</g>
<!-- Node8&#45;&gt;Node9 -->
<g id="edge8" class="edge"><title>Node8&#45;&gt;Node9</title>
<path fill="none" stroke="midnightblue" d="M1744.38,-39C1753.07,-39 1761.75,-39 1770.2,-39"/>
<polygon fill="midnightblue" stroke="midnightblue" points="1744.2,-35.5001 1734.2,-39 1744.2,-42.5001 1744.2,-35.5001"/>
</g>
<!-- Node10&#45;&gt;Node7 -->
<g id="edge10" class="edge"><title>Node10&#45;&gt;Node7</title>
<path fill="none" stroke="midnightblue" d="M1320.31,-26.3029C1330.39,-27.5371 1340.55,-28.7813 1350.36,-29.9828"/>
<polygon fill="midnightblue" stroke="midnightblue" points="1320.62,-22.8153 1310.27,-25.0738 1319.77,-29.7634 1320.62,-22.8153"/>
</g>
<!-- Node11&#45;&gt;Node5 -->
<g id="edge12" class="edge"><title>Node11&#45;&gt;Node5</title>
<path fill="none" stroke="midnightblue" d="M935.932,-28.9358C944.913,-29.8766 953.807,-30.8083 962.347,-31.703"/>
<polygon fill="midnightblue" stroke="midnightblue" points="936.08,-25.4322 925.77,-27.8711 935.35,-32.3941 936.08,-25.4322"/>
</g>
</g>
</svg>
