<?xml version="1.0" encoding="UTF-8" standalone="no"?>
<!DOCTYPE svg PUBLIC "-//W3C//DTD SVG 1.1//EN"
 "http://www.w3.org/Graphics/SVG/1.1/DTD/svg11.dtd">
<!-- Generated by graphviz version 2.36.0 (20140111.2315)
 -->
<!-- Title: model.cells.Cell.setCoords Pages: 1 -->
<svg width="514pt" height="224pt"
 viewBox="0.00 0.00 514.00 224.00" xmlns="http://www.w3.org/2000/svg" xmlns:xlink="http://www.w3.org/1999/xlink">
<g id="graph0" class="graph" transform="scale(1 1) rotate(0) translate(4 220)">
<title>model.cells.Cell.setCoords</title>
<polygon fill="white" stroke="none" points="-4,4 -4,-220 510,-220 510,4 -4,4"/>
<!-- Node1 -->
<g id="node1" class="node"><title>Node1</title>
<polygon fill="#bfbfbf" stroke="black" points="0.5,-98.5 0.5,-117.5 143.5,-117.5 143.5,-98.5 0.5,-98.5"/>
<text text-anchor="middle" x="72" y="-105.5" font-family="Helvetica,sans-Serif" font-size="10.00">model.cells.Cell.setCoords</text>
</g>
<!-- Node2 -->
<g id="node2" class="node"><title>Node2</title>
<g id="a_node2"><a xlink:href="../../df/dc2/classmodel_1_1cells_1_1_predator_cell_fish.html#a8f54a32666079575970d673568d1bafe" target="_top" xlink:title="model.cells.PredatorCell\lFish.moveSquareTo">
<polygon fill="white" stroke="black" points="193,-186 193,-216 325,-216 325,-186 193,-186"/>
<text text-anchor="start" x="201" y="-204" font-family="Helvetica,sans-Serif" font-size="10.00">model.cells.PredatorCell</text>
<text text-anchor="middle" x="259" y="-193" font-family="Helvetica,sans-Serif" font-size="10.00">Fish.moveSquareTo</text>
</a>
</g>
</g>
<!-- Node1&#45;&gt;Node2 -->
<g id="edge1" class="edge"><title>Node1&#45;&gt;Node2</title>
<path fill="none" stroke="midnightblue" d="M93.6964,-123.424C114.603,-138.446 148.26,-161.129 180,-176 187.855,-179.68 196.395,-183.026 204.848,-185.988"/>
<polygon fill="midnightblue" stroke="midnightblue" points="95.7045,-120.557 85.56,-117.501 91.5845,-126.216 95.7045,-120.557"/>
</g>
<!-- Node4 -->
<g id="node4" class="node"><title>Node4</title>
<g id="a_node4"><a xlink:href="../../d0/dfb/classmodel_1_1cells_1_1_predator_cell_shark.html#aef1600817bfe12c171d7ae0f3fb42c90" target="_top" xlink:title="model.cells.PredatorCell\lShark.moveSquareTo">
<polygon fill="white" stroke="black" points="193,-137 193,-167 325,-167 325,-137 193,-137"/>
<text text-anchor="start" x="201" y="-155" font-family="Helvetica,sans-Serif" font-size="10.00">model.cells.PredatorCell</text>
<text text-anchor="middle" x="259" y="-144" font-family="Helvetica,sans-Serif" font-size="10.00">Shark.moveSquareTo</text>
</a>
</g>
</g>
<!-- Node1&#45;&gt;Node4 -->
<g id="edge3" class="edge"><title>Node1&#45;&gt;Node4</title>
<path fill="none" stroke="midnightblue" d="M122.967,-119.884C145.037,-125.133 171.236,-131.364 194.657,-136.935"/>
<polygon fill="midnightblue" stroke="midnightblue" points="123.681,-116.456 113.142,-117.547 122.061,-123.266 123.681,-116.456"/>
</g>
<!-- Node5 -->
<g id="node5" class="node"><title>Node5</title>
<g id="a_node5"><a xlink:href="../../d0/dfb/classmodel_1_1cells_1_1_predator_cell_shark.html#ae00206800220a00e16771a22306df991" target="_top" xlink:title="model.cells.PredatorCell\lShark.update">
<polygon fill="white" stroke="black" points="374,-115 374,-145 506,-145 506,-115 374,-115"/>
<text text-anchor="start" x="382" y="-133" font-family="Helvetica,sans-Serif" font-size="10.00">model.cells.PredatorCell</text>
<text text-anchor="middle" x="440" y="-122" font-family="Helvetica,sans-Serif" font-size="10.00">Shark.update</text>
</a>
</g>
</g>
<!-- Node1&#45;&gt;Node5 -->
<g id="edge6" class="edge"><title>Node1&#45;&gt;Node5</title>
<path fill="none" stroke="midnightblue" d="M153.953,-112.866C220.11,-116.843 312.422,-122.391 373.87,-126.085"/>
<polygon fill="midnightblue" stroke="midnightblue" points="153.76,-109.348 143.568,-112.242 153.34,-116.336 153.76,-109.348"/>
</g>
<!-- Node6 -->
<g id="node6" class="node"><title>Node6</title>
<g id="a_node6"><a xlink:href="../../d9/d70/classmodel_1_1simulations_1_1_simulation_predator.html#a4dc34009f8fb8dd12979397f9b775430" target="_top" xlink:title="model.simulations.Simulation\lPredator.SimulationPredator">
<polygon fill="white" stroke="black" points="180,-49 180,-79 338,-79 338,-49 180,-49"/>
<text text-anchor="start" x="188" y="-67" font-family="Helvetica,sans-Serif" font-size="10.00">model.simulations.Simulation</text>
<text text-anchor="middle" x="259" y="-56" font-family="Helvetica,sans-Serif" font-size="10.00">Predator.SimulationPredator</text>
</a>
</g>
</g>
<!-- Node1&#45;&gt;Node6 -->
<g id="edge5" class="edge"><title>Node1&#45;&gt;Node6</title>
<path fill="none" stroke="midnightblue" d="M122.967,-96.116C145.037,-90.8669 171.236,-84.6358 194.657,-79.0654"/>
<polygon fill="midnightblue" stroke="midnightblue" points="122.061,-92.7337 113.142,-98.4527 123.681,-99.5438 122.061,-92.7337"/>
</g>
<!-- Node7 -->
<g id="node7" class="node"><title>Node7</title>
<g id="a_node7"><a xlink:href="../../d9/d70/classmodel_1_1simulations_1_1_simulation_predator.html#a1d05d28746dd1f641960ef401b28472e" target="_top" xlink:title="model.simulations.Simulation\lPredator.updateGrid">
<polygon fill="white" stroke="black" points="180,-0 180,-30 338,-30 338,-0 180,-0"/>
<text text-anchor="start" x="188" y="-18" font-family="Helvetica,sans-Serif" font-size="10.00">model.simulations.Simulation</text>
<text text-anchor="middle" x="259" y="-7" font-family="Helvetica,sans-Serif" font-size="10.00">Predator.updateGrid</text>
</a>
</g>
</g>
<!-- Node1&#45;&gt;Node7 -->
<g id="edge7" class="edge"><title>Node1&#45;&gt;Node7</title>
<path fill="none" stroke="midnightblue" d="M93.6964,-92.5759C114.603,-77.5544 148.26,-54.871 180,-40 187.855,-36.3198 196.395,-32.974 204.848,-30.0122"/>
<polygon fill="midnightblue" stroke="midnightblue" points="91.5845,-89.7841 85.56,-98.4994 95.7045,-95.4433 91.5845,-89.7841"/>
</g>
<!-- Node3 -->
<g id="node3" class="node"><title>Node3</title>
<g id="a_node3"><a xlink:href="../../df/dc2/classmodel_1_1cells_1_1_predator_cell_fish.html#a861e6aaf95d257b5e74ce2f9357c2b67" target="_top" xlink:title="model.cells.PredatorCell\lFish.update">
<polygon fill="white" stroke="black" points="374,-186 374,-216 506,-216 506,-186 374,-186"/>
<text text-anchor="start" x="382" y="-204" font-family="Helvetica,sans-Serif" font-size="10.00">model.cells.PredatorCell</text>
<text text-anchor="middle" x="440" y="-193" font-family="Helvetica,sans-Serif" font-size="10.00">Fish.update</text>
</a>
</g>
</g>
<!-- Node2&#45;&gt;Node3 -->
<g id="edge2" class="edge"><title>Node2&#45;&gt;Node3</title>
<path fill="none" stroke="midnightblue" d="M335.315,-201C348.147,-201 361.379,-201 373.919,-201"/>
<polygon fill="midnightblue" stroke="midnightblue" points="335.13,-197.5 325.129,-201 335.129,-204.5 335.13,-197.5"/>
</g>
<!-- Node4&#45;&gt;Node5 -->
<g id="edge4" class="edge"><title>Node4&#45;&gt;Node5</title>
<path fill="none" stroke="midnightblue" d="M335.315,-142.743C348.147,-141.166 361.379,-139.54 373.919,-137.999"/>
<polygon fill="midnightblue" stroke="midnightblue" points="334.628,-139.301 325.129,-143.995 335.482,-146.249 334.628,-139.301"/>
</g>
</g>
</svg>
