<?xml version="1.0" encoding="UTF-8" standalone="no"?>
<!DOCTYPE svg PUBLIC "-//W3C//DTD SVG 1.1//EN"
 "http://www.w3.org/Graphics/SVG/1.1/DTD/svg11.dtd">
<!-- Generated by graphviz version 2.36.0 (20140111.2315)
 -->
<!-- Title: model.cells.Cell.viewProperties Pages: 1 -->
<svg width="366pt" height="224pt"
 viewBox="0.00 0.00 366.00 224.00" xmlns="http://www.w3.org/2000/svg" xmlns:xlink="http://www.w3.org/1999/xlink">
<g id="graph0" class="graph" transform="scale(1 1) rotate(0) translate(4 220)">
<title>model.cells.Cell.viewProperties</title>
<polygon fill="white" stroke="none" points="-4,4 -4,-220 362,-220 362,4 -4,4"/>
<!-- Node1 -->
<g id="node1" class="node"><title>Node1</title>
<polygon fill="#bfbfbf" stroke="black" points="0.5,-98.5 0.5,-117.5 163.5,-117.5 163.5,-98.5 0.5,-98.5"/>
<text text-anchor="middle" x="82" y="-105.5" font-family="Helvetica,sans-Serif" font-size="10.00">model.cells.Cell.viewProperties</text>
</g>
<!-- Node2 -->
<g id="node2" class="node"><title>Node2</title>
<g id="a_node2"><a xlink:href="../../d4/d6f/classmodel_1_1cells_1_1_fire_cell.html#abb03bf614a4372785a2a2ac7ffe5cac6" target="_top" xlink:title="model.cells.FireCell.calculate\lProbability">
<polygon fill="white" stroke="black" points="202.5,-186 202.5,-216 355.5,-216 355.5,-186 202.5,-186"/>
<text text-anchor="start" x="210.5" y="-204" font-family="Helvetica,sans-Serif" font-size="10.00">model.cells.FireCell.calculate</text>
<text text-anchor="middle" x="279" y="-193" font-family="Helvetica,sans-Serif" font-size="10.00">Probability</text>
</a>
</g>
</g>
<!-- Node1&#45;&gt;Node2 -->
<g id="edge1" class="edge"><title>Node1&#45;&gt;Node2</title>
<path fill="none" stroke="midnightblue" d="M105.62,-123.132C128.633,-138.045 165.696,-160.75 200,-176 208.056,-179.582 216.785,-182.895 225.389,-185.859"/>
<polygon fill="midnightblue" stroke="midnightblue" points="107.52,-120.193 97.237,-117.642 103.684,-126.049 107.52,-120.193"/>
</g>
<!-- Node3 -->
<g id="node3" class="node"><title>Node3</title>
<g id="a_node3"><a xlink:href="../../dd/d69/classmodel_1_1cells_1_1_fire_cell_tree.html#a7d075512b3fddf298593594b6880eb4a" target="_top" xlink:title="model.cells.FireCellTree.check\lStatus">
<polygon fill="white" stroke="black" points="200,-137 200,-167 358,-167 358,-137 200,-137"/>
<text text-anchor="start" x="208" y="-155" font-family="Helvetica,sans-Serif" font-size="10.00">model.cells.FireCellTree.check</text>
<text text-anchor="middle" x="279" y="-144" font-family="Helvetica,sans-Serif" font-size="10.00">Status</text>
</a>
</g>
</g>
<!-- Node1&#45;&gt;Node3 -->
<g id="edge2" class="edge"><title>Node1&#45;&gt;Node3</title>
<path fill="none" stroke="midnightblue" d="M135.354,-119.813C158.682,-125.077 186.435,-131.339 211.233,-136.935"/>
<polygon fill="midnightblue" stroke="midnightblue" points="135.837,-116.334 125.312,-117.547 134.296,-123.163 135.837,-116.334"/>
</g>
<!-- Node4 -->
<g id="node4" class="node"><title>Node4</title>
<g id="a_node4"><a xlink:href="../../d0/d2c/classmodel_1_1cells_1_1_life_cell.html#a4ba0dfa37ccc9756a0cdc4f5e43c402c" target="_top" xlink:title="model.cells.LifeCell.update">
<polygon fill="white" stroke="black" points="207,-98.5 207,-117.5 351,-117.5 351,-98.5 207,-98.5"/>
<text text-anchor="middle" x="279" y="-105.5" font-family="Helvetica,sans-Serif" font-size="10.00">model.cells.LifeCell.update</text>
</a>
</g>
</g>
<!-- Node1&#45;&gt;Node4 -->
<g id="edge3" class="edge"><title>Node1&#45;&gt;Node4</title>
<path fill="none" stroke="midnightblue" d="M173.88,-108C184.995,-108 196.226,-108 206.99,-108"/>
<polygon fill="midnightblue" stroke="midnightblue" points="173.722,-104.5 163.722,-108 173.722,-111.5 173.722,-104.5"/>
</g>
<!-- Node5 -->
<g id="node5" class="node"><title>Node5</title>
<g id="a_node5"><a xlink:href="../../d7/dc8/classmodel_1_1simulations_1_1_simulation_sugarscape.html#a6f5b4a3d8842dbe0fd7c4ac94e349fe3" target="_top" xlink:title="model.simulations.Simulation\lSugarscape.updateGrid">
<polygon fill="white" stroke="black" points="200,-49 200,-79 358,-79 358,-49 200,-49"/>
<text text-anchor="start" x="208" y="-67" font-family="Helvetica,sans-Serif" font-size="10.00">model.simulations.Simulation</text>
<text text-anchor="middle" x="279" y="-56" font-family="Helvetica,sans-Serif" font-size="10.00">Sugarscape.updateGrid</text>
</a>
</g>
</g>
<!-- Node1&#45;&gt;Node5 -->
<g id="edge4" class="edge"><title>Node1&#45;&gt;Node5</title>
<path fill="none" stroke="midnightblue" d="M135.354,-96.1868C158.682,-90.9231 186.435,-84.6609 211.233,-79.0654"/>
<polygon fill="midnightblue" stroke="midnightblue" points="134.296,-92.8373 125.312,-98.4527 135.837,-99.6657 134.296,-92.8373"/>
</g>
<!-- Node6 -->
<g id="node6" class="node"><title>Node6</title>
<g id="a_node6"><a xlink:href="../../d9/d70/classmodel_1_1simulations_1_1_simulation_predator.html#a1d05d28746dd1f641960ef401b28472e" target="_top" xlink:title="model.simulations.Simulation\lPredator.updateGrid">
<polygon fill="white" stroke="black" points="200,-0 200,-30 358,-30 358,-0 200,-0"/>
<text text-anchor="start" x="208" y="-18" font-family="Helvetica,sans-Serif" font-size="10.00">model.simulations.Simulation</text>
<text text-anchor="middle" x="279" y="-7" font-family="Helvetica,sans-Serif" font-size="10.00">Predator.updateGrid</text>
</a>
</g>
</g>
<!-- Node1&#45;&gt;Node6 -->
<g id="edge5" class="edge"><title>Node1&#45;&gt;Node6</title>
<path fill="none" stroke="midnightblue" d="M105.62,-92.8675C128.633,-77.9553 165.696,-55.2502 200,-40 208.056,-36.4185 216.785,-33.1054 225.389,-30.1408"/>
<polygon fill="midnightblue" stroke="midnightblue" points="103.684,-89.9511 97.237,-98.3584 107.52,-95.8067 103.684,-89.9511"/>
</g>
</g>
</svg>
