<?xml version="1.0" encoding="UTF-8" standalone="no"?>
<!DOCTYPE svg PUBLIC "-//W3C//DTD SVG 1.1//EN"
 "http://www.w3.org/Graphics/SVG/1.1/DTD/svg11.dtd">
<!-- Generated by graphviz version 2.36.0 (20140111.2315)
 -->
<!-- Title: model.cells.Cell.setProperty Pages: 1 -->
<svg width="352pt" height="136pt"
 viewBox="0.00 0.00 352.00 136.00" xmlns="http://www.w3.org/2000/svg" xmlns:xlink="http://www.w3.org/1999/xlink">
<g id="graph0" class="graph" transform="scale(1 1) rotate(0) translate(4 132)">
<title>model.cells.Cell.setProperty</title>
<polygon fill="white" stroke="none" points="-4,4 -4,-132 348,-132 348,4 -4,4"/>
<!-- Node1 -->
<g id="node1" class="node"><title>Node1</title>
<polygon fill="#bfbfbf" stroke="black" points="0.5,-54.5 0.5,-73.5 149.5,-73.5 149.5,-54.5 0.5,-54.5"/>
<text text-anchor="middle" x="75" y="-61.5" font-family="Helvetica,sans-Serif" font-size="10.00">model.cells.Cell.setProperty</text>
</g>
<!-- Node2 -->
<g id="node2" class="node"><title>Node2</title>
<g id="a_node2"><a xlink:href="../../dd/d46/classmodel_1_1simulations_1_1_simulation_fire.html#ae5a99a4e85747e0f41ad6a8dbbd0dad0" target="_top" xlink:title="model.simulations.Simulation\lFire.setParameter">
<polygon fill="white" stroke="black" points="186,-98 186,-128 344,-128 344,-98 186,-98"/>
<text text-anchor="start" x="194" y="-116" font-family="Helvetica,sans-Serif" font-size="10.00">model.simulations.Simulation</text>
<text text-anchor="middle" x="265" y="-105" font-family="Helvetica,sans-Serif" font-size="10.00">Fire.setParameter</text>
</a>
</g>
</g>
<!-- Node1&#45;&gt;Node2 -->
<g id="edge1" class="edge"><title>Node1&#45;&gt;Node2</title>
<path fill="none" stroke="midnightblue" d="M122.431,-76.1018C147.777,-82.708 179.389,-90.9471 206.307,-97.963"/>
<polygon fill="midnightblue" stroke="midnightblue" points="123.254,-72.6994 112.695,-73.564 121.489,-79.4731 123.254,-72.6994"/>
</g>
<!-- Node3 -->
<g id="node3" class="node"><title>Node3</title>
<g id="a_node3"><a xlink:href="../../da/d76/classmodel_1_1simulations_1_1_simulation_segregation.html#a1b773126f6338ac30821282df0439541" target="_top" xlink:title="model.simulations.Simulation\lSegregation.setParameter">
<polygon fill="white" stroke="black" points="186,-49 186,-79 344,-79 344,-49 186,-49"/>
<text text-anchor="start" x="194" y="-67" font-family="Helvetica,sans-Serif" font-size="10.00">model.simulations.Simulation</text>
<text text-anchor="middle" x="265" y="-56" font-family="Helvetica,sans-Serif" font-size="10.00">Segregation.setParameter</text>
</a>
</g>
</g>
<!-- Node1&#45;&gt;Node3 -->
<g id="edge2" class="edge"><title>Node1&#45;&gt;Node3</title>
<path fill="none" stroke="midnightblue" d="M159.833,-64C168.472,-64 177.227,-64 185.801,-64"/>
<polygon fill="midnightblue" stroke="midnightblue" points="159.763,-60.5001 149.763,-64 159.763,-67.5001 159.763,-60.5001"/>
</g>
<!-- Node4 -->
<g id="node4" class="node"><title>Node4</title>
<g id="a_node4"><a xlink:href="../../d9/d70/classmodel_1_1simulations_1_1_simulation_predator.html#ac136add930b9740137df234c190a3b55" target="_top" xlink:title="model.simulations.Simulation\lPredator.setParameter">
<polygon fill="white" stroke="black" points="186,-0 186,-30 344,-30 344,-0 186,-0"/>
<text text-anchor="start" x="194" y="-18" font-family="Helvetica,sans-Serif" font-size="10.00">model.simulations.Simulation</text>
<text text-anchor="middle" x="265" y="-7" font-family="Helvetica,sans-Serif" font-size="10.00">Predator.setParameter</text>
</a>
</g>
</g>
<!-- Node1&#45;&gt;Node4 -->
<g id="edge3" class="edge"><title>Node1&#45;&gt;Node4</title>
<path fill="none" stroke="midnightblue" d="M122.431,-51.8982C147.777,-45.292 179.389,-37.0529 206.307,-30.037"/>
<polygon fill="midnightblue" stroke="midnightblue" points="121.489,-48.5269 112.695,-54.436 123.254,-55.3006 121.489,-48.5269"/>
</g>
</g>
</svg>
