<?xml version="1.0" encoding="UTF-8" standalone="no"?>
<!DOCTYPE svg PUBLIC "-//W3C//DTD SVG 1.1//EN"
 "http://www.w3.org/Graphics/SVG/1.1/DTD/svg11.dtd">
<!-- Generated by graphviz version 2.36.0 (20140111.2315)
 -->
<!-- Title: model.cells.Cell.getX Pages: 1 -->
<svg width="486pt" height="185pt"
 viewBox="0.00 0.00 486.00 185.00" xmlns="http://www.w3.org/2000/svg" xmlns:xlink="http://www.w3.org/1999/xlink">
<g id="graph0" class="graph" transform="scale(1 1) rotate(0) translate(4 181)">
<title>model.cells.Cell.getX</title>
<polygon fill="white" stroke="none" points="-4,4 -4,-181 482,-181 482,4 -4,4"/>
<!-- Node1 -->
<g id="node1" class="node"><title>Node1</title>
<polygon fill="#bfbfbf" stroke="black" points="0,-78.5 0,-97.5 116,-97.5 116,-78.5 0,-78.5"/>
<text text-anchor="middle" x="58" y="-85.5" font-family="Helvetica,sans-Serif" font-size="10.00">model.cells.Cell.getX</text>
</g>
<!-- Node2 -->
<g id="node2" class="node"><title>Node2</title>
<g id="a_node2"><a xlink:href="../../df/dc2/classmodel_1_1cells_1_1_predator_cell_fish.html#a8f54a32666079575970d673568d1bafe" target="_top" xlink:title="model.cells.PredatorCell\lFish.moveSquareTo">
<polygon fill="white" stroke="black" points="165,-147 165,-177 297,-177 297,-147 165,-147"/>
<text text-anchor="start" x="173" y="-165" font-family="Helvetica,sans-Serif" font-size="10.00">model.cells.PredatorCell</text>
<text text-anchor="middle" x="231" y="-154" font-family="Helvetica,sans-Serif" font-size="10.00">Fish.moveSquareTo</text>
</a>
</g>
</g>
<!-- Node1&#45;&gt;Node2 -->
<g id="edge1" class="edge"><title>Node1&#45;&gt;Node2</title>
<path fill="none" stroke="midnightblue" d="M83.9366,-102.67C102.34,-113.114 128.214,-127.012 152,-137 160.522,-140.579 169.745,-143.952 178.764,-146.993"/>
<polygon fill="midnightblue" stroke="midnightblue" points="85.4589,-99.5077 75.0444,-97.5615 81.9722,-105.577 85.4589,-99.5077"/>
</g>
<!-- Node4 -->
<g id="node4" class="node"><title>Node4</title>
<g id="a_node4"><a xlink:href="../../d0/dfb/classmodel_1_1cells_1_1_predator_cell_shark.html#aef1600817bfe12c171d7ae0f3fb42c90" target="_top" xlink:title="model.cells.PredatorCell\lShark.moveSquareTo">
<polygon fill="white" stroke="black" points="165,-98 165,-128 297,-128 297,-98 165,-98"/>
<text text-anchor="start" x="173" y="-116" font-family="Helvetica,sans-Serif" font-size="10.00">model.cells.PredatorCell</text>
<text text-anchor="middle" x="231" y="-105" font-family="Helvetica,sans-Serif" font-size="10.00">Shark.moveSquareTo</text>
</a>
</g>
</g>
<!-- Node1&#45;&gt;Node4 -->
<g id="edge3" class="edge"><title>Node1&#45;&gt;Node4</title>
<path fill="none" stroke="midnightblue" d="M126.403,-97.8543C139.032,-99.7005 152.212,-101.627 164.773,-103.464"/>
<polygon fill="midnightblue" stroke="midnightblue" points="126.817,-94.3777 116.416,-96.3942 125.805,-101.304 126.817,-94.3777"/>
</g>
<!-- Node6 -->
<g id="node6" class="node"><title>Node6</title>
<g id="a_node6"><a xlink:href="../../d7/dc8/classmodel_1_1simulations_1_1_simulation_sugarscape.html#a6f5b4a3d8842dbe0fd7c4ac94e349fe3" target="_top" xlink:title="model.simulations.Simulation\lSugarscape.updateGrid">
<polygon fill="white" stroke="black" points="152,-49 152,-79 310,-79 310,-49 152,-49"/>
<text text-anchor="start" x="160" y="-67" font-family="Helvetica,sans-Serif" font-size="10.00">model.simulations.Simulation</text>
<text text-anchor="middle" x="231" y="-56" font-family="Helvetica,sans-Serif" font-size="10.00">Sugarscape.updateGrid</text>
</a>
</g>
</g>
<!-- Node1&#45;&gt;Node6 -->
<g id="edge5" class="edge"><title>Node1&#45;&gt;Node6</title>
<path fill="none" stroke="midnightblue" d="M126.424,-78.5369C134.745,-77.3691 143.305,-76.1677 151.769,-74.9798"/>
<polygon fill="midnightblue" stroke="midnightblue" points="125.833,-75.0856 116.416,-79.9416 126.806,-82.0176 125.833,-75.0856"/>
</g>
<!-- Node7 -->
<g id="node7" class="node"><title>Node7</title>
<g id="a_node7"><a xlink:href="../../d9/d70/classmodel_1_1simulations_1_1_simulation_predator.html#a1d05d28746dd1f641960ef401b28472e" target="_top" xlink:title="model.simulations.Simulation\lPredator.updateGrid">
<polygon fill="white" stroke="black" points="152,-0 152,-30 310,-30 310,-0 152,-0"/>
<text text-anchor="start" x="160" y="-18" font-family="Helvetica,sans-Serif" font-size="10.00">model.simulations.Simulation</text>
<text text-anchor="middle" x="231" y="-7" font-family="Helvetica,sans-Serif" font-size="10.00">Predator.updateGrid</text>
</a>
</g>
</g>
<!-- Node1&#45;&gt;Node7 -->
<g id="edge6" class="edge"><title>Node1&#45;&gt;Node7</title>
<path fill="none" stroke="midnightblue" d="M84.3081,-73.4808C102.708,-63.2881 128.42,-49.7844 152,-40 160.537,-36.4575 169.768,-33.1022 178.789,-30.0675"/>
<polygon fill="midnightblue" stroke="midnightblue" points="82.4149,-70.5296 75.4027,-78.4719 85.8372,-76.636 82.4149,-70.5296"/>
</g>
<!-- Node3 -->
<g id="node3" class="node"><title>Node3</title>
<g id="a_node3"><a xlink:href="../../df/dc2/classmodel_1_1cells_1_1_predator_cell_fish.html#a861e6aaf95d257b5e74ce2f9357c2b67" target="_top" xlink:title="model.cells.PredatorCell\lFish.update">
<polygon fill="white" stroke="black" points="346,-147 346,-177 478,-177 478,-147 346,-147"/>
<text text-anchor="start" x="354" y="-165" font-family="Helvetica,sans-Serif" font-size="10.00">model.cells.PredatorCell</text>
<text text-anchor="middle" x="412" y="-154" font-family="Helvetica,sans-Serif" font-size="10.00">Fish.update</text>
</a>
</g>
</g>
<!-- Node2&#45;&gt;Node3 -->
<g id="edge2" class="edge"><title>Node2&#45;&gt;Node3</title>
<path fill="none" stroke="midnightblue" d="M307.315,-162C320.147,-162 333.379,-162 345.919,-162"/>
<polygon fill="midnightblue" stroke="midnightblue" points="307.13,-158.5 297.129,-162 307.129,-165.5 307.13,-158.5"/>
</g>
<!-- Node5 -->
<g id="node5" class="node"><title>Node5</title>
<g id="a_node5"><a xlink:href="../../d0/dfb/classmodel_1_1cells_1_1_predator_cell_shark.html#ae00206800220a00e16771a22306df991" target="_top" xlink:title="model.cells.PredatorCell\lShark.update">
<polygon fill="white" stroke="black" points="346,-98 346,-128 478,-128 478,-98 346,-98"/>
<text text-anchor="start" x="354" y="-116" font-family="Helvetica,sans-Serif" font-size="10.00">model.cells.PredatorCell</text>
<text text-anchor="middle" x="412" y="-105" font-family="Helvetica,sans-Serif" font-size="10.00">Shark.update</text>
</a>
</g>
</g>
<!-- Node4&#45;&gt;Node5 -->
<g id="edge4" class="edge"><title>Node4&#45;&gt;Node5</title>
<path fill="none" stroke="midnightblue" d="M307.315,-113C320.147,-113 333.379,-113 345.919,-113"/>
<polygon fill="midnightblue" stroke="midnightblue" points="307.13,-109.5 297.129,-113 307.129,-116.5 307.13,-109.5"/>
</g>
</g>
</svg>
