<?xml version="1.0" encoding="UTF-8" standalone="no"?>
<!DOCTYPE svg PUBLIC "-//W3C//DTD SVG 1.1//EN"
 "http://www.w3.org/Graphics/SVG/1.1/DTD/svg11.dtd">
<!-- Generated by graphviz version 2.36.0 (20140111.2315)
 -->
<!-- Title: model.cells.Cell.getColor Pages: 1 -->
<!--zoomable 278 -->
<svg id="main" version="1.1" xmlns="http://www.w3.org/2000/svg" xmlns:xlink="http://www.w3.org/1999/xlink" xml:space="preserve" onload="init(evt)">
<style type="text/css"><![CDATA[
.edge:hover path { stroke: red; }
.edge:hover polygon { stroke: red; fill: red; }
]]></style>
<script type="text/javascript"><![CDATA[
var edges = document.getElementsByTagName('g');
if (edges && edges.length) {
  for (var i=0;i<edges.length;i++) {
    if (edges[i].id.substr(0,4)=='edge') {
      edges[i].setAttribute('class','edge');
    }
  }
}
]]></script>
        <defs>
                <circle id="rim" cx="0" cy="0" r="7"/>
                <circle id="rim2" cx="0" cy="0" r="3.5"/>
                <g id="zoomPlus">
                        <use xlink:href="#rim" fill="#404040">
                                <set attributeName="fill" to="#808080" begin="zoomplus.mouseover" end="zoomplus.mouseout"/>
                        </use>
                        <path d="M-4,0h8M0,-4v8" fill="none" stroke="white" stroke-width="1.5" pointer-events="none"/>
                </g>
                <g id="zoomMin">
                        <use xlink:href="#rim" fill="#404040">
                                <set attributeName="fill" to="#808080" begin="zoomminus.mouseover" end="zoomminus.mouseout"/>
                        </use>
                        <path d="M-4,0h8" fill="none" stroke="white" stroke-width="1.5" pointer-events="none"/>
                </g>
                <g id="dirArrow">
                        <path fill="none" stroke="white" stroke-width="1.5" d="M0,-3.0v7 M-2.5,-0.5L0,-3.0L2.5,-0.5"/>
                </g>
               <g id="resetDef">
                       <use xlink:href="#rim2" fill="#404040">
                               <set attributeName="fill" to="#808080" begin="reset.mouseover" end="reset.mouseout"/>
                       </use>
               </g>
        </defs>

<script type="text/javascript">
var viewWidth = 816;
var viewHeight = 278;
var sectionId = 'dynsection-2';
</script>
<script xlink:href="../../svgpan.js"/>
<svg id="graph" class="graph">
<g id="viewport">
<title>model.cells.Cell.getColor</title>
<polygon fill="white" stroke="none" points="-4,4 -4,-274 812,-274 812,4 -4,4"/>
<!-- Node1 -->
<g id="node1" class="node"><title>Node1</title>
<polygon fill="#bfbfbf" stroke="black" points="0,-127.5 0,-146.5 134,-146.5 134,-127.5 0,-127.5"/>
<text text-anchor="middle" x="67" y="-134.5" font-family="Helvetica,sans-Serif" font-size="10.00">model.cells.Cell.getColor</text>
</g>
<!-- Node2 -->
<g id="node2" class="node"><title>Node2</title>
<g id="a_node2"><a xlink:href="../../d0/d56/classmodel_1_1simulations_1_1_simulation.html#a6efb6657ce3c803a99ccd41d8b8a2057" target="_top" xlink:title="model.simulations.Simulation.update\lColorGrid">
<polygon fill="white" stroke="black" points="170.5,-122 170.5,-152 365.5,-152 365.5,-122 170.5,-122"/>
<text text-anchor="start" x="178.5" y="-140" font-family="Helvetica,sans-Serif" font-size="10.00">model.simulations.Simulation.update</text>
<text text-anchor="middle" x="268" y="-129" font-family="Helvetica,sans-Serif" font-size="10.00">ColorGrid</text>
</a>
</g>
</g>
<!-- Node1&#45;&gt;Node2 -->
<g id="edge1" class="edge"><title>Node1&#45;&gt;Node2</title>
<path fill="none" stroke="midnightblue" d="M144.416,-137C152.849,-137 161.515,-137 170.155,-137"/>
<polygon fill="midnightblue" stroke="midnightblue" points="144.264,-133.5 134.264,-137 144.264,-140.5 144.264,-133.5"/>
</g>
<!-- Node3 -->
<g id="node3" class="node"><title>Node3</title>
<g id="a_node3"><a xlink:href="../../d0/d56/classmodel_1_1simulations_1_1_simulation.html#ad6b0af21d9f0a4d2bd0fc2ce13d40ab5" target="_top" xlink:title="model.simulations.Simulation.setupGrid">
<polygon fill="white" stroke="black" points="402,-245.5 402,-264.5 610,-264.5 610,-245.5 402,-245.5"/>
<text text-anchor="middle" x="506" y="-252.5" font-family="Helvetica,sans-Serif" font-size="10.00">model.simulations.Simulation.setupGrid</text>
</a>
</g>
</g>
<!-- Node2&#45;&gt;Node3 -->
<g id="edge2" class="edge"><title>Node2&#45;&gt;Node3</title>
<path fill="none" stroke="midnightblue" d="M292.221,-159.209C317.274,-181.869 359.339,-216.285 402,-235 411.925,-239.354 422.801,-242.765 433.649,-245.435"/>
<polygon fill="midnightblue" stroke="midnightblue" points="294.436,-156.491 284.705,-152.299 289.698,-161.644 294.436,-156.491"/>
</g>
<!-- Node5 -->
<g id="node5" class="node"><title>Node5</title>
<g id="a_node5"><a xlink:href="../../dd/d46/classmodel_1_1simulations_1_1_simulation_fire.html#afb98c9dd0a67eb041f8c635b0c18c709" target="_top" xlink:title="model.simulations.Simulation\lFire.updateGrid">
<polygon fill="white" stroke="black" points="427,-196 427,-226 585,-226 585,-196 427,-196"/>
<text text-anchor="start" x="435" y="-214" font-family="Helvetica,sans-Serif" font-size="10.00">model.simulations.Simulation</text>
<text text-anchor="middle" x="506" y="-203" font-family="Helvetica,sans-Serif" font-size="10.00">Fire.updateGrid</text>
</a>
</g>
</g>
<!-- Node2&#45;&gt;Node5 -->
<g id="edge4" class="edge"><title>Node2&#45;&gt;Node5</title>
<path fill="none" stroke="midnightblue" d="M315.792,-155.736C341.08,-165.48 372.985,-177.166 402,-186 413.618,-189.537 426.092,-192.912 438.208,-195.974"/>
<polygon fill="midnightblue" stroke="midnightblue" points="317.033,-152.463 306.445,-152.107 314.5,-158.989 317.033,-152.463"/>
</g>
<!-- Node6 -->
<g id="node6" class="node"><title>Node6</title>
<g id="a_node6"><a xlink:href="../../d7/d85/classmodel_1_1simulations_1_1_simulation_life.html#a835e84a7f9fc272a5cb373abb36bf628" target="_top" xlink:title="model.simulations.Simulation\lLife.updateGrid">
<polygon fill="white" stroke="black" points="427,-147 427,-177 585,-177 585,-147 427,-147"/>
<text text-anchor="start" x="435" y="-165" font-family="Helvetica,sans-Serif" font-size="10.00">model.simulations.Simulation</text>
<text text-anchor="middle" x="506" y="-154" font-family="Helvetica,sans-Serif" font-size="10.00">Life.updateGrid</text>
</a>
</g>
</g>
<!-- Node2&#45;&gt;Node6 -->
<g id="edge5" class="edge"><title>Node2&#45;&gt;Node6</title>
<path fill="none" stroke="midnightblue" d="M375.755,-148.309C392.964,-150.132 410.495,-151.989 426.866,-153.723"/>
<polygon fill="midnightblue" stroke="midnightblue" points="375.984,-144.814 365.671,-147.241 375.247,-151.775 375.984,-144.814"/>
</g>
<!-- Node7 -->
<g id="node7" class="node"><title>Node7</title>
<g id="a_node7"><a xlink:href="../../d9/d70/classmodel_1_1simulations_1_1_simulation_predator.html#a1d05d28746dd1f641960ef401b28472e" target="_top" xlink:title="model.simulations.Simulation\lPredator.updateGrid">
<polygon fill="white" stroke="black" points="427,-98 427,-128 585,-128 585,-98 427,-98"/>
<text text-anchor="start" x="435" y="-116" font-family="Helvetica,sans-Serif" font-size="10.00">model.simulations.Simulation</text>
<text text-anchor="middle" x="506" y="-105" font-family="Helvetica,sans-Serif" font-size="10.00">Predator.updateGrid</text>
</a>
</g>
</g>
<!-- Node2&#45;&gt;Node7 -->
<g id="edge6" class="edge"><title>Node2&#45;&gt;Node7</title>
<path fill="none" stroke="midnightblue" d="M375.755,-126.144C392.964,-124.393 410.495,-122.611 426.866,-120.946"/>
<polygon fill="midnightblue" stroke="midnightblue" points="375.266,-122.675 365.671,-127.169 375.974,-129.639 375.266,-122.675"/>
</g>
<!-- Node8 -->
<g id="node8" class="node"><title>Node8</title>
<g id="a_node8"><a xlink:href="../../da/d76/classmodel_1_1simulations_1_1_simulation_segregation.html#a3aeb5a7dfb3094553814a23e70cd5676" target="_top" xlink:title="model.simulations.Simulation\lSegregation.updateGrid">
<polygon fill="white" stroke="black" points="427,-49 427,-79 585,-79 585,-49 427,-49"/>
<text text-anchor="start" x="435" y="-67" font-family="Helvetica,sans-Serif" font-size="10.00">model.simulations.Simulation</text>
<text text-anchor="middle" x="506" y="-56" font-family="Helvetica,sans-Serif" font-size="10.00">Segregation.updateGrid</text>
</a>
</g>
</g>
<!-- Node2&#45;&gt;Node8 -->
<g id="edge7" class="edge"><title>Node2&#45;&gt;Node8</title>
<path fill="none" stroke="midnightblue" d="M316.98,-118.263C342.088,-108.82 373.465,-97.5846 402,-89 413.718,-85.4747 426.298,-82.0939 438.502,-79.0205"/>
<polygon fill="midnightblue" stroke="midnightblue" points="315.444,-115.101 307.333,-121.918 317.925,-121.647 315.444,-115.101"/>
</g>
<!-- Node9 -->
<g id="node9" class="node"><title>Node9</title>
<g id="a_node9"><a xlink:href="../../d7/dc8/classmodel_1_1simulations_1_1_simulation_sugarscape.html#a6f5b4a3d8842dbe0fd7c4ac94e349fe3" target="_top" xlink:title="model.simulations.Simulation\lSugarscape.updateGrid">
<polygon fill="white" stroke="black" points="427,-0 427,-30 585,-30 585,-0 427,-0"/>
<text text-anchor="start" x="435" y="-18" font-family="Helvetica,sans-Serif" font-size="10.00">model.simulations.Simulation</text>
<text text-anchor="middle" x="506" y="-7" font-family="Helvetica,sans-Serif" font-size="10.00">Sugarscape.updateGrid</text>
</a>
</g>
</g>
<!-- Node2&#45;&gt;Node9 -->
<g id="edge8" class="edge"><title>Node2&#45;&gt;Node9</title>
<path fill="none" stroke="midnightblue" d="M292.863,-115.049C318.144,-92.9452 360.121,-59.4159 402,-40 410.264,-36.1688 419.183,-32.8845 428.194,-30.0788"/>
<polygon fill="midnightblue" stroke="midnightblue" points="290.42,-112.538 285.263,-121.792 295.066,-117.774 290.42,-112.538"/>
</g>
<!-- Node4 -->
<g id="node4" class="node"><title>Node4</title>
<g id="a_node4"><a xlink:href="../../d0/d56/classmodel_1_1simulations_1_1_simulation.html#a49dab3d977f4447d538534885be2b64f" target="_top" xlink:title="model.simulations.Simulation.\lSimulation">
<polygon fill="white" stroke="black" points="646.5,-240 646.5,-270 807.5,-270 807.5,-240 646.5,-240"/>
<text text-anchor="start" x="654.5" y="-258" font-family="Helvetica,sans-Serif" font-size="10.00">model.simulations.Simulation.</text>
<text text-anchor="middle" x="727" y="-247" font-family="Helvetica,sans-Serif" font-size="10.00">Simulation</text>
</a>
</g>
</g>
<!-- Node3&#45;&gt;Node4 -->
<g id="edge3" class="edge"><title>Node3&#45;&gt;Node4</title>
<path fill="none" stroke="midnightblue" d="M620.109,-255C628.985,-255 637.83,-255 646.408,-255"/>
<polygon fill="midnightblue" stroke="midnightblue" points="620.087,-251.5 610.087,-255 620.087,-258.5 620.087,-251.5"/>
</g>
</g>
</svg>
        <g id="navigator" transform="translate(0 0)" fill="#404254">
                <rect fill="#f2f5e9" fill-opacity="0.5" stroke="#606060" stroke-width=".5" x="0" y="0" width="60" height="60"/>
                <use id="zoomplus" xlink:href="#zoomPlus" x="17" y="9" onmousedown="handleZoom(evt,'in')"/>
                <use id="zoomminus" xlink:href="#zoomMin" x="42" y="9" onmousedown="handleZoom(evt,'out')"/>
                <use id="reset" xlink:href="#resetDef" x="30" y="36" onmousedown="handleReset()"/>
                <g id="arrowUp" xlink:href="#dirArrow" transform="translate(30 24)" onmousedown="handlePan(0,-1)">
                  <use xlink:href="#rim" fill="#404040">
                        <set attributeName="fill" to="#808080" begin="arrowUp.mouseover" end="arrowUp.mouseout"/>
                  </use>
                  <path fill="none" stroke="white" stroke-width="1.5" d="M0,-3.0v7 M-2.5,-0.5L0,-3.0L2.5,-0.5"/>
                </g>
                <g id="arrowRight" xlink:href="#dirArrow" transform="rotate(90) translate(36 -43)" onmousedown="handlePan(1,0)">
                  <use xlink:href="#rim" fill="#404040">
                        <set attributeName="fill" to="#808080" begin="arrowRight.mouseover" end="arrowRight.mouseout"/>
                  </use>
                  <path fill="none" stroke="white" stroke-width="1.5" d="M0,-3.0v7 M-2.5,-0.5L0,-3.0L2.5,-0.5"/>
                </g>
                <g id="arrowDown" xlink:href="#dirArrow" transform="rotate(180) translate(-30 -48)" onmousedown="handlePan(0,1)">
                  <use xlink:href="#rim" fill="#404040">
                        <set attributeName="fill" to="#808080" begin="arrowDown.mouseover" end="arrowDown.mouseout"/>
                  </use>
                  <path fill="none" stroke="white" stroke-width="1.5" d="M0,-3.0v7 M-2.5,-0.5L0,-3.0L2.5,-0.5"/>
                </g>
                <g id="arrowLeft" xlink:href="#dirArrow" transform="rotate(270) translate(-36 17)" onmousedown="handlePan(-1,0)">
                  <use xlink:href="#rim" fill="#404040">
                        <set attributeName="fill" to="#808080" begin="arrowLeft.mouseover" end="arrowLeft.mouseout"/>
                  </use>
                  <path fill="none" stroke="white" stroke-width="1.5" d="M0,-3.0v7 M-2.5,-0.5L0,-3.0L2.5,-0.5"/>
                </g>
        </g>
        <svg viewBox="0 0 15 15" width="100%" height="30px" preserveAspectRatio="xMaxYMin meet">
         <g id="arrow_out" transform="scale(0.3 0.3)">
          <a xlink:href="classmodel_1_1cells_1_1_cell_ac50f3513c91c8934182ceb7fa8b192fb_icgraph_org.svg" target="_base">
           <rect id="button" ry="5" rx="5" y="6" x="6" height="38" width="38"
                fill="#f2f5e9" fill-opacity="0.5" stroke="#606060" stroke-width="1.0"/>
           <path id="arrow"
             d="M 11.500037,31.436501 C 11.940474,20.09759 22.043105,11.32322 32.158766,21.979434 L 37.068811,17.246167 C 37.068811,17.246167 37.088388,32 37.088388,32 L 22.160133,31.978069 C 22.160133,31.978069 26.997745,27.140456 26.997745,27.140456 C 18.528582,18.264221 13.291696,25.230495 11.500037,31.436501 z"
             style="fill:#404040;"/>
          </a>
         </g>
        </svg>
</svg>
