<?xml version="1.0" encoding="UTF-8" standalone="no"?>
<!DOCTYPE svg PUBLIC "-//W3C//DTD SVG 1.1//EN"
 "http://www.w3.org/Graphics/SVG/1.1/DTD/svg11.dtd">
<!-- Generated by graphviz version 2.36.0 (20140111.2315)
 -->
<!-- Title: model.neighbors.Neighbors.topRight Pages: 1 -->
<svg width="600pt" height="136pt"
 viewBox="0.00 0.00 600.00 136.00" xmlns="http://www.w3.org/2000/svg" xmlns:xlink="http://www.w3.org/1999/xlink">
<g id="graph0" class="graph" transform="scale(1 1) rotate(0) translate(4 132)">
<title>model.neighbors.Neighbors.topRight</title>
<polygon fill="white" stroke="none" points="-4,4 -4,-132 596,-132 596,4 -4,4"/>
<!-- Node1 -->
<g id="node1" class="node"><title>Node1</title>
<polygon fill="#bfbfbf" stroke="black" points="0.5,-24 0.5,-54 167.5,-54 167.5,-24 0.5,-24"/>
<text text-anchor="start" x="8.5" y="-42" font-family="Helvetica,sans-Serif" font-size="10.00">model.neighbors.Neighbors.top</text>
<text text-anchor="middle" x="84" y="-31" font-family="Helvetica,sans-Serif" font-size="10.00">Right</text>
</g>
<!-- Node2 -->
<g id="node2" class="node"><title>Node2</title>
<g id="a_node2"><a xlink:href="../../dd/d12/classmodel_1_1neighbors_1_1_hexagonal_neighbors.html#a8aa7f140ef710bd48182610f29bc95e9" target="_top" xlink:title="model.neighbors.Hexagonal\lNeighbors.getAllNeighbors">
<polygon fill="white" stroke="black" points="216.5,-49 216.5,-79 367.5,-79 367.5,-49 216.5,-49"/>
<text text-anchor="start" x="224.5" y="-67" font-family="Helvetica,sans-Serif" font-size="10.00">model.neighbors.Hexagonal</text>
<text text-anchor="middle" x="292" y="-56" font-family="Helvetica,sans-Serif" font-size="10.00">Neighbors.getAllNeighbors</text>
</a>
</g>
</g>
<!-- Node1&#45;&gt;Node2 -->
<g id="edge1" class="edge"><title>Node1&#45;&gt;Node2</title>
<path fill="none" stroke="midnightblue" d="M177.878,-50.2716C190.77,-51.8361 203.874,-53.4265 216.374,-54.9435"/>
<polygon fill="midnightblue" stroke="midnightblue" points="177.95,-46.7547 167.601,-49.0244 177.107,-53.7038 177.95,-46.7547"/>
</g>
<!-- Node5 -->
<g id="node5" class="node"><title>Node5</title>
<g id="a_node5"><a xlink:href="../../d6/d9c/classmodel_1_1neighbors_1_1_square_triangle_neighbors.html#afb39acbe23c36fbe98271ca837c9d5de" target="_top" xlink:title="model.neighbors.SquareTriangle\lNeighbors.getDiagonalNeighbors">
<polygon fill="white" stroke="black" points="204.5,-0 204.5,-30 379.5,-30 379.5,-0 204.5,-0"/>
<text text-anchor="start" x="212.5" y="-18" font-family="Helvetica,sans-Serif" font-size="10.00">model.neighbors.SquareTriangle</text>
<text text-anchor="middle" x="292" y="-7" font-family="Helvetica,sans-Serif" font-size="10.00">Neighbors.getDiagonalNeighbors</text>
</a>
</g>
</g>
<!-- Node1&#45;&gt;Node5 -->
<g id="edge4" class="edge"><title>Node1&#45;&gt;Node5</title>
<path fill="none" stroke="midnightblue" d="M177.591,-28.2127C186.492,-27.1757 195.497,-26.1266 204.337,-25.0967"/>
<polygon fill="midnightblue" stroke="midnightblue" points="177.129,-24.7428 167.601,-29.3766 177.939,-31.6957 177.129,-24.7428"/>
</g>
<!-- Node3 -->
<g id="node3" class="node"><title>Node3</title>
<g id="a_node3"><a xlink:href="../../dd/d12/classmodel_1_1neighbors_1_1_hexagonal_neighbors.html#aa5b2987e61b3abb40f9ad64e99ac8f3b" target="_top" xlink:title="model.neighbors.Hexagonal\lNeighbors.getCardinalNeighbors">
<polygon fill="white" stroke="black" points="418,-98 418,-128 590,-128 590,-98 418,-98"/>
<text text-anchor="start" x="426" y="-116" font-family="Helvetica,sans-Serif" font-size="10.00">model.neighbors.Hexagonal</text>
<text text-anchor="middle" x="504" y="-105" font-family="Helvetica,sans-Serif" font-size="10.00">Neighbors.getCardinalNeighbors</text>
</a>
</g>
</g>
<!-- Node2&#45;&gt;Node3 -->
<g id="edge2" class="edge"><title>Node2&#45;&gt;Node3</title>
<path fill="none" stroke="midnightblue" d="M367.275,-81.3309C390.591,-86.7712 416.122,-92.7285 438.688,-97.9938"/>
<polygon fill="midnightblue" stroke="midnightblue" points="367.968,-77.8985 357.434,-79.0346 366.377,-84.7154 367.968,-77.8985"/>
</g>
<!-- Node4 -->
<g id="node4" class="node"><title>Node4</title>
<g id="a_node4"><a xlink:href="../../dd/d12/classmodel_1_1neighbors_1_1_hexagonal_neighbors.html#a278e173ecc8cc08ae079e7f29f5c7cb4" target="_top" xlink:title="model.neighbors.Hexagonal\lNeighbors.getDiagonalNeighbors">
<polygon fill="white" stroke="black" points="416.5,-49 416.5,-79 591.5,-79 591.5,-49 416.5,-49"/>
<text text-anchor="start" x="424.5" y="-67" font-family="Helvetica,sans-Serif" font-size="10.00">model.neighbors.Hexagonal</text>
<text text-anchor="middle" x="504" y="-56" font-family="Helvetica,sans-Serif" font-size="10.00">Neighbors.getDiagonalNeighbors</text>
</a>
</g>
</g>
<!-- Node2&#45;&gt;Node4 -->
<g id="edge3" class="edge"><title>Node2&#45;&gt;Node4</title>
<path fill="none" stroke="midnightblue" d="M377.745,-64C390.488,-64 403.644,-64 416.425,-64"/>
<polygon fill="midnightblue" stroke="midnightblue" points="377.629,-60.5001 367.629,-64 377.629,-67.5001 377.629,-60.5001"/>
</g>
<!-- Node6 -->
<g id="node6" class="node"><title>Node6</title>
<g id="a_node6"><a xlink:href="../../d6/d9c/classmodel_1_1neighbors_1_1_square_triangle_neighbors.html#a4705a116c2c95cb5aeb2e7c6b9cf7b88" target="_top" xlink:title="model.neighbors.SquareTriangle\lNeighbors.getAllNeighbors">
<polygon fill="white" stroke="black" points="419,-0 419,-30 589,-30 589,-0 419,-0"/>
<text text-anchor="start" x="427" y="-18" font-family="Helvetica,sans-Serif" font-size="10.00">model.neighbors.SquareTriangle</text>
<text text-anchor="middle" x="504" y="-7" font-family="Helvetica,sans-Serif" font-size="10.00">Neighbors.getAllNeighbors</text>
</a>
</g>
</g>
<!-- Node5&#45;&gt;Node6 -->
<g id="edge5" class="edge"><title>Node5&#45;&gt;Node6</title>
<path fill="none" stroke="midnightblue" d="M389.74,-15C399.49,-15 409.336,-15 418.939,-15"/>
<polygon fill="midnightblue" stroke="midnightblue" points="389.627,-11.5001 379.627,-15 389.627,-18.5001 389.627,-11.5001"/>
</g>
</g>
</svg>
