<?xml version="1.0" encoding="UTF-8" standalone="no"?>
<!DOCTYPE svg PUBLIC "-//W3C//DTD SVG 1.1//EN"
 "http://www.w3.org/Graphics/SVG/1.1/DTD/svg11.dtd">
<!-- Generated by graphviz version 2.36.0 (20140111.2315)
 -->
<!-- Title: model.neighbors.Neighbors.bottomRight Pages: 1 -->
<svg width="620pt" height="136pt"
 viewBox="0.00 0.00 620.00 136.00" xmlns="http://www.w3.org/2000/svg" xmlns:xlink="http://www.w3.org/1999/xlink">
<g id="graph0" class="graph" transform="scale(1 1) rotate(0) translate(4 132)">
<title>model.neighbors.Neighbors.bottomRight</title>
<polygon fill="white" stroke="none" points="-4,4 -4,-132 616,-132 616,4 -4,4"/>
<!-- Node1 -->
<g id="node1" class="node"><title>Node1</title>
<polygon fill="#bfbfbf" stroke="black" points="0.5,-24 0.5,-54 187.5,-54 187.5,-24 0.5,-24"/>
<text text-anchor="start" x="8.5" y="-42" font-family="Helvetica,sans-Serif" font-size="10.00">model.neighbors.Neighbors.bottom</text>
<text text-anchor="middle" x="94" y="-31" font-family="Helvetica,sans-Serif" font-size="10.00">Right</text>
</g>
<!-- Node2 -->
<g id="node2" class="node"><title>Node2</title>
<g id="a_node2"><a xlink:href="../../dd/d12/classmodel_1_1neighbors_1_1_hexagonal_neighbors.html#a8aa7f140ef710bd48182610f29bc95e9" target="_top" xlink:title="model.neighbors.Hexagonal\lNeighbors.getAllNeighbors">
<polygon fill="white" stroke="black" points="236.5,-49 236.5,-79 387.5,-79 387.5,-49 236.5,-49"/>
<text text-anchor="start" x="244.5" y="-67" font-family="Helvetica,sans-Serif" font-size="10.00">model.neighbors.Hexagonal</text>
<text text-anchor="middle" x="312" y="-56" font-family="Helvetica,sans-Serif" font-size="10.00">Neighbors.getAllNeighbors</text>
</a>
</g>
</g>
<!-- Node1&#45;&gt;Node2 -->
<g id="edge1" class="edge"><title>Node1&#45;&gt;Node2</title>
<path fill="none" stroke="midnightblue" d="M197.498,-50.8632C210.559,-52.3749 223.729,-53.8991 236.238,-55.347"/>
<polygon fill="midnightblue" stroke="midnightblue" points="197.88,-47.3841 187.543,-49.711 197.075,-54.3377 197.88,-47.3841"/>
</g>
<!-- Node5 -->
<g id="node5" class="node"><title>Node5</title>
<g id="a_node5"><a xlink:href="../../d6/d9c/classmodel_1_1neighbors_1_1_square_triangle_neighbors.html#afb39acbe23c36fbe98271ca837c9d5de" target="_top" xlink:title="model.neighbors.SquareTriangle\lNeighbors.getDiagonalNeighbors">
<polygon fill="white" stroke="black" points="224.5,-0 224.5,-30 399.5,-30 399.5,-0 224.5,-0"/>
<text text-anchor="start" x="232.5" y="-18" font-family="Helvetica,sans-Serif" font-size="10.00">model.neighbors.SquareTriangle</text>
<text text-anchor="middle" x="312" y="-7" font-family="Helvetica,sans-Serif" font-size="10.00">Neighbors.getDiagonalNeighbors</text>
</a>
</g>
</g>
<!-- Node1&#45;&gt;Node5 -->
<g id="edge4" class="edge"><title>Node1&#45;&gt;Node5</title>
<path fill="none" stroke="midnightblue" d="M197.641,-27.5954C206.616,-26.5983 215.639,-25.5956 224.464,-24.6151"/>
<polygon fill="midnightblue" stroke="midnightblue" points="197.096,-24.1344 187.543,-28.7174 197.869,-31.0916 197.096,-24.1344"/>
</g>
<!-- Node3 -->
<g id="node3" class="node"><title>Node3</title>
<g id="a_node3"><a xlink:href="../../dd/d12/classmodel_1_1neighbors_1_1_hexagonal_neighbors.html#aa5b2987e61b3abb40f9ad64e99ac8f3b" target="_top" xlink:title="model.neighbors.Hexagonal\lNeighbors.getCardinalNeighbors">
<polygon fill="white" stroke="black" points="438,-98 438,-128 610,-128 610,-98 438,-98"/>
<text text-anchor="start" x="446" y="-116" font-family="Helvetica,sans-Serif" font-size="10.00">model.neighbors.Hexagonal</text>
<text text-anchor="middle" x="524" y="-105" font-family="Helvetica,sans-Serif" font-size="10.00">Neighbors.getCardinalNeighbors</text>
</a>
</g>
</g>
<!-- Node2&#45;&gt;Node3 -->
<g id="edge2" class="edge"><title>Node2&#45;&gt;Node3</title>
<path fill="none" stroke="midnightblue" d="M387.275,-81.3309C410.591,-86.7712 436.122,-92.7285 458.688,-97.9938"/>
<polygon fill="midnightblue" stroke="midnightblue" points="387.968,-77.8985 377.434,-79.0346 386.377,-84.7154 387.968,-77.8985"/>
</g>
<!-- Node4 -->
<g id="node4" class="node"><title>Node4</title>
<g id="a_node4"><a xlink:href="../../dd/d12/classmodel_1_1neighbors_1_1_hexagonal_neighbors.html#a278e173ecc8cc08ae079e7f29f5c7cb4" target="_top" xlink:title="model.neighbors.Hexagonal\lNeighbors.getDiagonalNeighbors">
<polygon fill="white" stroke="black" points="436.5,-49 436.5,-79 611.5,-79 611.5,-49 436.5,-49"/>
<text text-anchor="start" x="444.5" y="-67" font-family="Helvetica,sans-Serif" font-size="10.00">model.neighbors.Hexagonal</text>
<text text-anchor="middle" x="524" y="-56" font-family="Helvetica,sans-Serif" font-size="10.00">Neighbors.getDiagonalNeighbors</text>
</a>
</g>
</g>
<!-- Node2&#45;&gt;Node4 -->
<g id="edge3" class="edge"><title>Node2&#45;&gt;Node4</title>
<path fill="none" stroke="midnightblue" d="M397.745,-64C410.488,-64 423.644,-64 436.425,-64"/>
<polygon fill="midnightblue" stroke="midnightblue" points="397.629,-60.5001 387.629,-64 397.629,-67.5001 397.629,-60.5001"/>
</g>
<!-- Node6 -->
<g id="node6" class="node"><title>Node6</title>
<g id="a_node6"><a xlink:href="../../d6/d9c/classmodel_1_1neighbors_1_1_square_triangle_neighbors.html#a4705a116c2c95cb5aeb2e7c6b9cf7b88" target="_top" xlink:title="model.neighbors.SquareTriangle\lNeighbors.getAllNeighbors">
<polygon fill="white" stroke="black" points="439,-0 439,-30 609,-30 609,-0 439,-0"/>
<text text-anchor="start" x="447" y="-18" font-family="Helvetica,sans-Serif" font-size="10.00">model.neighbors.SquareTriangle</text>
<text text-anchor="middle" x="524" y="-7" font-family="Helvetica,sans-Serif" font-size="10.00">Neighbors.getAllNeighbors</text>
</a>
</g>
</g>
<!-- Node5&#45;&gt;Node6 -->
<g id="edge5" class="edge"><title>Node5&#45;&gt;Node6</title>
<path fill="none" stroke="midnightblue" d="M409.74,-15C419.49,-15 429.336,-15 438.939,-15"/>
<polygon fill="midnightblue" stroke="midnightblue" points="409.627,-11.5001 399.627,-15 409.627,-18.5001 409.627,-11.5001"/>
</g>
</g>
</svg>
