<?xml version="1.0" encoding="UTF-8" standalone="no"?>
<!DOCTYPE svg PUBLIC "-//W3C//DTD SVG 1.1//EN"
 "http://www.w3.org/Graphics/SVG/1.1/DTD/svg11.dtd">
<!-- Generated by graphviz version 2.36.0 (20140111.2315)
 -->
<!-- Title: model.neighbors.Neighbors.bottomRight Pages: 1 -->
<svg width="406pt" height="38pt"
 viewBox="0.00 0.00 406.00 38.00" xmlns="http://www.w3.org/2000/svg" xmlns:xlink="http://www.w3.org/1999/xlink">
<g id="graph0" class="graph" transform="scale(1 1) rotate(0) translate(4 34)">
<title>model.neighbors.Neighbors.bottomRight</title>
<polygon fill="white" stroke="none" points="-4,4 -4,-34 402,-34 402,4 -4,4"/>
<!-- Node1 -->
<g id="node1" class="node"><title>Node1</title>
<polygon fill="#bfbfbf" stroke="black" points="0.5,-0 0.5,-30 187.5,-30 187.5,-0 0.5,-0"/>
<text text-anchor="start" x="8.5" y="-18" font-family="Helvetica,sans-Serif" font-size="10.00">model.neighbors.Neighbors.bottom</text>
<text text-anchor="middle" x="94" y="-7" font-family="Helvetica,sans-Serif" font-size="10.00">Right</text>
</g>
<!-- Node2 -->
<g id="node2" class="node"><title>Node2</title>
<g id="a_node2"><a xlink:href="../../da/d6d/classmodel_1_1gridrules_1_1_grid_rules.html#a667e0098e66a7b398962d78c830f6c4a" target="_top" xlink:title="model.gridrules.GridRules.handle\lEdges">
<polygon fill="white" stroke="black" points="224.5,-0 224.5,-30 397.5,-30 397.5,-0 224.5,-0"/>
<text text-anchor="start" x="232.5" y="-18" font-family="Helvetica,sans-Serif" font-size="10.00">model.gridrules.GridRules.handle</text>
<text text-anchor="middle" x="311" y="-7" font-family="Helvetica,sans-Serif" font-size="10.00">Edges</text>
</a>
</g>
</g>
<!-- Node1&#45;&gt;Node2 -->
<g id="edge1" class="edge"><title>Node1&#45;&gt;Node2</title>
<path fill="none" stroke="midnightblue" d="M187.739,-15C196.48,-15 205.353,-15 214.122,-15"/>
<polygon fill="midnightblue" stroke="midnightblue" points="214.354,-18.5001 224.354,-15 214.354,-11.5001 214.354,-18.5001"/>
</g>
</g>
</svg>
