<?xml version="1.0" encoding="UTF-8" standalone="no"?>
<!DOCTYPE svg PUBLIC "-//W3C//DTD SVG 1.1//EN"
 "http://www.w3.org/Graphics/SVG/1.1/DTD/svg11.dtd">
<!-- Generated by graphviz version 2.36.0 (20140111.2315)
 -->
<!-- Title: model.neighbors.Neighbors.Right Pages: 1 -->
<svg width="580pt" height="136pt"
 viewBox="0.00 0.00 580.00 136.00" xmlns="http://www.w3.org/2000/svg" xmlns:xlink="http://www.w3.org/1999/xlink">
<g id="graph0" class="graph" transform="scale(1 1) rotate(0) translate(4 132)">
<title>model.neighbors.Neighbors.Right</title>
<polygon fill="white" stroke="none" points="-4,4 -4,-132 576,-132 576,4 -4,4"/>
<!-- Node1 -->
<g id="node1" class="node"><title>Node1</title>
<polygon fill="#bfbfbf" stroke="black" points="0,-24 0,-54 152,-54 152,-24 0,-24"/>
<text text-anchor="start" x="8" y="-42" font-family="Helvetica,sans-Serif" font-size="10.00">model.neighbors.Neighbors.</text>
<text text-anchor="middle" x="76" y="-31" font-family="Helvetica,sans-Serif" font-size="10.00">Right</text>
</g>
<!-- Node2 -->
<g id="node2" class="node"><title>Node2</title>
<g id="a_node2"><a xlink:href="../../dd/d12/classmodel_1_1neighbors_1_1_hexagonal_neighbors.html#a8aa7f140ef710bd48182610f29bc95e9" target="_top" xlink:title="model.neighbors.Hexagonal\lNeighbors.getAllNeighbors">
<polygon fill="white" stroke="black" points="198.5,-49 198.5,-79 349.5,-79 349.5,-49 198.5,-49"/>
<text text-anchor="start" x="206.5" y="-67" font-family="Helvetica,sans-Serif" font-size="10.00">model.neighbors.Hexagonal</text>
<text text-anchor="middle" x="274" y="-56" font-family="Helvetica,sans-Serif" font-size="10.00">Neighbors.getAllNeighbors</text>
</a>
</g>
</g>
<!-- Node1&#45;&gt;Node2 -->
<g id="edge1" class="edge"><title>Node1&#45;&gt;Node2</title>
<path fill="none" stroke="midnightblue" d="M162.23,-49.8712C174.241,-51.4033 186.513,-52.9685 198.307,-54.4728"/>
<polygon fill="midnightblue" stroke="midnightblue" points="162.581,-46.3876 152.218,-48.5942 161.695,-53.3314 162.581,-46.3876"/>
</g>
<!-- Node5 -->
<g id="node5" class="node"><title>Node5</title>
<g id="a_node5"><a xlink:href="../../d6/d9c/classmodel_1_1neighbors_1_1_square_triangle_neighbors.html#ad8ae7bc5b8567fd85d65a8f766d7025b" target="_top" xlink:title="model.neighbors.SquareTriangle\lNeighbors.getCardinalNeighbors">
<polygon fill="white" stroke="black" points="188,-0 188,-30 360,-30 360,-0 188,-0"/>
<text text-anchor="start" x="196" y="-18" font-family="Helvetica,sans-Serif" font-size="10.00">model.neighbors.SquareTriangle</text>
<text text-anchor="middle" x="274" y="-7" font-family="Helvetica,sans-Serif" font-size="10.00">Neighbors.getCardinalNeighbors</text>
</a>
</g>
</g>
<!-- Node1&#45;&gt;Node5 -->
<g id="edge4" class="edge"><title>Node1&#45;&gt;Node5</title>
<path fill="none" stroke="midnightblue" d="M162.148,-28.5737C170.672,-27.53 179.327,-26.4701 187.851,-25.4264"/>
<polygon fill="midnightblue" stroke="midnightblue" points="161.719,-25.1001 152.218,-29.7896 162.569,-32.0482 161.719,-25.1001"/>
</g>
<!-- Node3 -->
<g id="node3" class="node"><title>Node3</title>
<g id="a_node3"><a xlink:href="../../dd/d12/classmodel_1_1neighbors_1_1_hexagonal_neighbors.html#aa5b2987e61b3abb40f9ad64e99ac8f3b" target="_top" xlink:title="model.neighbors.Hexagonal\lNeighbors.getCardinalNeighbors">
<polygon fill="white" stroke="black" points="398,-98 398,-128 570,-128 570,-98 398,-98"/>
<text text-anchor="start" x="406" y="-116" font-family="Helvetica,sans-Serif" font-size="10.00">model.neighbors.Hexagonal</text>
<text text-anchor="middle" x="484" y="-105" font-family="Helvetica,sans-Serif" font-size="10.00">Neighbors.getCardinalNeighbors</text>
</a>
</g>
</g>
<!-- Node2&#45;&gt;Node3 -->
<g id="edge2" class="edge"><title>Node2&#45;&gt;Node3</title>
<path fill="none" stroke="midnightblue" d="M348.568,-81.3309C371.661,-86.7712 396.95,-92.7285 419.3,-97.9938"/>
<polygon fill="midnightblue" stroke="midnightblue" points="349.357,-77.9209 338.82,-79.0346 347.751,-84.7344 349.357,-77.9209"/>
</g>
<!-- Node4 -->
<g id="node4" class="node"><title>Node4</title>
<g id="a_node4"><a xlink:href="../../dd/d12/classmodel_1_1neighbors_1_1_hexagonal_neighbors.html#a278e173ecc8cc08ae079e7f29f5c7cb4" target="_top" xlink:title="model.neighbors.Hexagonal\lNeighbors.getDiagonalNeighbors">
<polygon fill="white" stroke="black" points="396.5,-49 396.5,-79 571.5,-79 571.5,-49 396.5,-49"/>
<text text-anchor="start" x="404.5" y="-67" font-family="Helvetica,sans-Serif" font-size="10.00">model.neighbors.Hexagonal</text>
<text text-anchor="middle" x="484" y="-56" font-family="Helvetica,sans-Serif" font-size="10.00">Neighbors.getDiagonalNeighbors</text>
</a>
</g>
</g>
<!-- Node2&#45;&gt;Node4 -->
<g id="edge3" class="edge"><title>Node2&#45;&gt;Node4</title>
<path fill="none" stroke="midnightblue" d="M359.566,-64C371.662,-64 384.123,-64 396.26,-64"/>
<polygon fill="midnightblue" stroke="midnightblue" points="359.505,-60.5001 349.505,-64 359.505,-67.5001 359.505,-60.5001"/>
</g>
<!-- Node6 -->
<g id="node6" class="node"><title>Node6</title>
<g id="a_node6"><a xlink:href="../../d6/d9c/classmodel_1_1neighbors_1_1_square_triangle_neighbors.html#a4705a116c2c95cb5aeb2e7c6b9cf7b88" target="_top" xlink:title="model.neighbors.SquareTriangle\lNeighbors.getAllNeighbors">
<polygon fill="white" stroke="black" points="399,-0 399,-30 569,-30 569,-0 399,-0"/>
<text text-anchor="start" x="407" y="-18" font-family="Helvetica,sans-Serif" font-size="10.00">model.neighbors.SquareTriangle</text>
<text text-anchor="middle" x="484" y="-7" font-family="Helvetica,sans-Serif" font-size="10.00">Neighbors.getAllNeighbors</text>
</a>
</g>
</g>
<!-- Node5&#45;&gt;Node6 -->
<g id="edge5" class="edge"><title>Node5&#45;&gt;Node6</title>
<path fill="none" stroke="midnightblue" d="M370.461,-15C379.965,-15 389.565,-15 398.939,-15"/>
<polygon fill="midnightblue" stroke="midnightblue" points="370.202,-11.5001 360.202,-15 370.202,-18.5001 370.202,-11.5001"/>
</g>
</g>
</svg>
