<?xml version="1.0" encoding="UTF-8" standalone="no"?>
<!DOCTYPE svg PUBLIC "-//W3C//DTD SVG 1.1//EN"
 "http://www.w3.org/Graphics/SVG/1.1/DTD/svg11.dtd">
<!-- Generated by graphviz version 2.36.0 (20140111.2315)
 -->
<!-- Title: model.neighbors.Neighbors.topLeft Pages: 1 -->
<svg width="618pt" height="136pt"
 viewBox="0.00 0.00 618.00 136.00" xmlns="http://www.w3.org/2000/svg" xmlns:xlink="http://www.w3.org/1999/xlink">
<g id="graph0" class="graph" transform="scale(1 1) rotate(0) translate(4 132)">
<title>model.neighbors.Neighbors.topLeft</title>
<polygon fill="white" stroke="none" points="-4,4 -4,-132 614,-132 614,4 -4,4"/>
<!-- Node1 -->
<g id="node1" class="node"><title>Node1</title>
<polygon fill="#bfbfbf" stroke="black" points="0.5,-29.5 0.5,-48.5 185.5,-48.5 185.5,-29.5 0.5,-29.5"/>
<text text-anchor="middle" x="93" y="-36.5" font-family="Helvetica,sans-Serif" font-size="10.00">model.neighbors.Neighbors.topLeft</text>
</g>
<!-- Node2 -->
<g id="node2" class="node"><title>Node2</title>
<g id="a_node2"><a xlink:href="../../dd/d12/classmodel_1_1neighbors_1_1_hexagonal_neighbors.html#a8aa7f140ef710bd48182610f29bc95e9" target="_top" xlink:title="model.neighbors.Hexagonal\lNeighbors.getAllNeighbors">
<polygon fill="white" stroke="black" points="234.5,-49 234.5,-79 385.5,-79 385.5,-49 234.5,-49"/>
<text text-anchor="start" x="242.5" y="-67" font-family="Helvetica,sans-Serif" font-size="10.00">model.neighbors.Hexagonal</text>
<text text-anchor="middle" x="310" y="-56" font-family="Helvetica,sans-Serif" font-size="10.00">Neighbors.getAllNeighbors</text>
</a>
</g>
</g>
<!-- Node1&#45;&gt;Node2 -->
<g id="edge1" class="edge"><title>Node1&#45;&gt;Node2</title>
<path fill="none" stroke="midnightblue" d="M185.898,-49.6858C202.083,-51.5678 218.751,-53.5059 234.39,-55.3245"/>
<polygon fill="midnightblue" stroke="midnightblue" points="186.233,-46.2013 175.896,-48.5227 185.424,-53.1544 186.233,-46.2013"/>
</g>
<!-- Node5 -->
<g id="node5" class="node"><title>Node5</title>
<g id="a_node5"><a xlink:href="../../d6/d9c/classmodel_1_1neighbors_1_1_square_triangle_neighbors.html#afb39acbe23c36fbe98271ca837c9d5de" target="_top" xlink:title="model.neighbors.SquareTriangle\lNeighbors.getDiagonalNeighbors">
<polygon fill="white" stroke="black" points="222.5,-0 222.5,-30 397.5,-30 397.5,-0 222.5,-0"/>
<text text-anchor="start" x="230.5" y="-18" font-family="Helvetica,sans-Serif" font-size="10.00">model.neighbors.SquareTriangle</text>
<text text-anchor="middle" x="310" y="-7" font-family="Helvetica,sans-Serif" font-size="10.00">Neighbors.getDiagonalNeighbors</text>
</a>
</g>
</g>
<!-- Node1&#45;&gt;Node5 -->
<g id="edge4" class="edge"><title>Node1&#45;&gt;Node5</title>
<path fill="none" stroke="midnightblue" d="M189.332,-28.3582C200.343,-27.1291 211.527,-25.8808 222.412,-24.6656"/>
<polygon fill="midnightblue" stroke="midnightblue" points="188.832,-24.8922 179.282,-29.4801 189.609,-31.849 188.832,-24.8922"/>
</g>
<!-- Node3 -->
<g id="node3" class="node"><title>Node3</title>
<g id="a_node3"><a xlink:href="../../dd/d12/classmodel_1_1neighbors_1_1_hexagonal_neighbors.html#aa5b2987e61b3abb40f9ad64e99ac8f3b" target="_top" xlink:title="model.neighbors.Hexagonal\lNeighbors.getCardinalNeighbors">
<polygon fill="white" stroke="black" points="436,-98 436,-128 608,-128 608,-98 436,-98"/>
<text text-anchor="start" x="444" y="-116" font-family="Helvetica,sans-Serif" font-size="10.00">model.neighbors.Hexagonal</text>
<text text-anchor="middle" x="522" y="-105" font-family="Helvetica,sans-Serif" font-size="10.00">Neighbors.getCardinalNeighbors</text>
</a>
</g>
</g>
<!-- Node2&#45;&gt;Node3 -->
<g id="edge2" class="edge"><title>Node2&#45;&gt;Node3</title>
<path fill="none" stroke="midnightblue" d="M385.275,-81.3309C408.591,-86.7712 434.122,-92.7285 456.688,-97.9938"/>
<polygon fill="midnightblue" stroke="midnightblue" points="385.968,-77.8985 375.434,-79.0346 384.377,-84.7154 385.968,-77.8985"/>
</g>
<!-- Node4 -->
<g id="node4" class="node"><title>Node4</title>
<g id="a_node4"><a xlink:href="../../dd/d12/classmodel_1_1neighbors_1_1_hexagonal_neighbors.html#a278e173ecc8cc08ae079e7f29f5c7cb4" target="_top" xlink:title="model.neighbors.Hexagonal\lNeighbors.getDiagonalNeighbors">
<polygon fill="white" stroke="black" points="434.5,-49 434.5,-79 609.5,-79 609.5,-49 434.5,-49"/>
<text text-anchor="start" x="442.5" y="-67" font-family="Helvetica,sans-Serif" font-size="10.00">model.neighbors.Hexagonal</text>
<text text-anchor="middle" x="522" y="-56" font-family="Helvetica,sans-Serif" font-size="10.00">Neighbors.getDiagonalNeighbors</text>
</a>
</g>
</g>
<!-- Node2&#45;&gt;Node4 -->
<g id="edge3" class="edge"><title>Node2&#45;&gt;Node4</title>
<path fill="none" stroke="midnightblue" d="M395.745,-64C408.488,-64 421.644,-64 434.425,-64"/>
<polygon fill="midnightblue" stroke="midnightblue" points="395.629,-60.5001 385.629,-64 395.629,-67.5001 395.629,-60.5001"/>
</g>
<!-- Node6 -->
<g id="node6" class="node"><title>Node6</title>
<g id="a_node6"><a xlink:href="../../d6/d9c/classmodel_1_1neighbors_1_1_square_triangle_neighbors.html#a4705a116c2c95cb5aeb2e7c6b9cf7b88" target="_top" xlink:title="model.neighbors.SquareTriangle\lNeighbors.getAllNeighbors">
<polygon fill="white" stroke="black" points="437,-0 437,-30 607,-30 607,-0 437,-0"/>
<text text-anchor="start" x="445" y="-18" font-family="Helvetica,sans-Serif" font-size="10.00">model.neighbors.SquareTriangle</text>
<text text-anchor="middle" x="522" y="-7" font-family="Helvetica,sans-Serif" font-size="10.00">Neighbors.getAllNeighbors</text>
</a>
</g>
</g>
<!-- Node5&#45;&gt;Node6 -->
<g id="edge5" class="edge"><title>Node5&#45;&gt;Node6</title>
<path fill="none" stroke="midnightblue" d="M407.74,-15C417.49,-15 427.336,-15 436.939,-15"/>
<polygon fill="midnightblue" stroke="midnightblue" points="407.627,-11.5001 397.627,-15 407.627,-18.5001 407.627,-11.5001"/>
</g>
</g>
</svg>
