<?xml version="1.0" encoding="UTF-8" standalone="no"?>
<!DOCTYPE svg PUBLIC "-//W3C//DTD SVG 1.1//EN"
 "http://www.w3.org/Graphics/SVG/1.1/DTD/svg11.dtd">
<!-- Generated by graphviz version 2.36.0 (20140111.2315)
 -->
<!-- Title: controller.SimGenerator Pages: 1 -->
<svg width="329pt" height="96pt"
 viewBox="0.00 0.00 329.00 96.00" xmlns="http://www.w3.org/2000/svg" xmlns:xlink="http://www.w3.org/1999/xlink">
<g id="graph0" class="graph" transform="scale(1 1) rotate(0) translate(4 92)">
<title>controller.SimGenerator</title>
<polygon fill="white" stroke="none" points="-4,4 -4,-92 325,-92 325,4 -4,4"/>
<!-- Node1 -->
<g id="node1" class="node"><title>Node1</title>
<polygon fill="#bfbfbf" stroke="black" points="85.5,-68.5 85.5,-87.5 216.5,-87.5 216.5,-68.5 85.5,-68.5"/>
<text text-anchor="middle" x="151" y="-75.5" font-family="Helvetica,sans-Serif" font-size="10.00">controller.SimGenerator</text>
</g>
<!-- Node2 -->
<g id="node2" class="node"><title>Node2</title>
<g id="a_node2"><a xlink:href="../../d3/dc8/classcontroller_1_1_probability_sim_generator.html" target="_top" xlink:title="controller.ProbabilitySim\lGenerator">
<polygon fill="white" stroke="black" points="0,-1 0,-31 132,-31 132,-1 0,-1"/>
<text text-anchor="start" x="8" y="-19" font-family="Helvetica,sans-Serif" font-size="10.00">controller.ProbabilitySim</text>
<text text-anchor="middle" x="66" y="-8" font-family="Helvetica,sans-Serif" font-size="10.00">Generator</text>
</a>
</g>
</g>
<!-- Node1&#45;&gt;Node2 -->
<g id="edge1" class="edge"><title>Node1&#45;&gt;Node2</title>
<path fill="none" stroke="midnightblue" d="M130.627,-62.6191C117.118,-53.0831 99.472,-40.6273 86.0328,-31.1408"/>
<polygon fill="midnightblue" stroke="midnightblue" points="128.633,-65.496 138.822,-68.4035 132.67,-59.7772 128.633,-65.496"/>
</g>
<!-- Node3 -->
<g id="node3" class="node"><title>Node3</title>
<g id="a_node3"><a xlink:href="../../d4/d2d/classcontroller_1_1_random_sim_generator.html" target="_top" xlink:title="controller.RandomSimGenerator">
<polygon fill="white" stroke="black" points="150.5,-6.5 150.5,-25.5 321.5,-25.5 321.5,-6.5 150.5,-6.5"/>
<text text-anchor="middle" x="236" y="-13.5" font-family="Helvetica,sans-Serif" font-size="10.00">controller.RandomSimGenerator</text>
</a>
</g>
</g>
<!-- Node1&#45;&gt;Node3 -->
<g id="edge2" class="edge"><title>Node1&#45;&gt;Node3</title>
<path fill="none" stroke="midnightblue" d="M171.553,-62.4918C187.901,-50.952 210.22,-35.1976 223.844,-25.5806"/>
<polygon fill="midnightblue" stroke="midnightblue" points="169.33,-59.7772 163.178,-68.4035 173.367,-65.496 169.33,-59.7772"/>
</g>
</g>
</svg>
