<?xml version="1.0" encoding="UTF-8" standalone="no"?>
<!DOCTYPE svg PUBLIC "-//W3C//DTD SVG 1.1//EN"
 "http://www.w3.org/Graphics/SVG/1.1/DTD/svg11.dtd">
<!-- Generated by graphviz version 2.36.0 (20140111.2315)
 -->
<!-- Title: model.cells.LifeCellAlive Pages: 1 -->
<svg width="537pt" height="232pt"
 viewBox="0.00 0.00 537.00 232.00" xmlns="http://www.w3.org/2000/svg" xmlns:xlink="http://www.w3.org/1999/xlink">
<g id="graph0" class="graph" transform="scale(1 1) rotate(0) translate(4 228)">
<title>model.cells.LifeCellAlive</title>
<polygon fill="white" stroke="none" points="-4,4 -4,-228 533,-228 533,4 -4,4"/>
<!-- Node1 -->
<g id="node1" class="node"><title>Node1</title>
<polygon fill="#bfbfbf" stroke="black" points="64,-0.5 64,-19.5 194,-19.5 194,-0.5 64,-0.5"/>
<text text-anchor="middle" x="129" y="-7.5" font-family="Helvetica,sans-Serif" font-size="10.00">model.cells.LifeCellAlive</text>
</g>
<!-- Node2 -->
<g id="node2" class="node"><title>Node2</title>
<g id="a_node2"><a xlink:href="../../d0/d2c/classmodel_1_1cells_1_1_life_cell.html" target="_top" xlink:title="model.cells.LifeCell">
<polygon fill="white" stroke="black" points="6.5,-68.5 6.5,-87.5 113.5,-87.5 113.5,-68.5 6.5,-68.5"/>
<text text-anchor="middle" x="60" y="-75.5" font-family="Helvetica,sans-Serif" font-size="10.00">model.cells.LifeCell</text>
</a>
</g>
</g>
<!-- Node2&#45;&gt;Node1 -->
<g id="edge1" class="edge"><title>Node2&#45;&gt;Node1</title>
<path fill="none" stroke="midnightblue" d="M76.2963,-61.4122C89.8511,-48.4468 108.66,-30.4559 119.757,-19.8411"/>
<polygon fill="midnightblue" stroke="midnightblue" points="73.8277,-58.9301 69.0205,-68.3717 78.6663,-63.9887 73.8277,-58.9301"/>
</g>
<!-- Node3 -->
<g id="node3" class="node"><title>Node3</title>
<g id="a_node3"><a xlink:href="../../dc/d41/classmodel_1_1cells_1_1_cell.html" target="_top" xlink:title="model.cells.Cell">
<polygon fill="white" stroke="black" points="84.5,-136.5 84.5,-155.5 175.5,-155.5 175.5,-136.5 84.5,-136.5"/>
<text text-anchor="middle" x="130" y="-143.5" font-family="Helvetica,sans-Serif" font-size="10.00">model.cells.Cell</text>
</a>
</g>
</g>
<!-- Node3&#45;&gt;Node2 -->
<g id="edge2" class="edge"><title>Node3&#45;&gt;Node2</title>
<path fill="none" stroke="midnightblue" d="M113.468,-129.412C99.7163,-116.447 80.6351,-98.4559 69.3769,-87.8411"/>
<polygon fill="midnightblue" stroke="midnightblue" points="111.172,-132.058 120.849,-136.372 115.974,-126.965 111.172,-132.058"/>
</g>
<!-- Node5 -->
<g id="node5" class="node"><title>Node5</title>
<g id="a_node5"><a xlink:href="../../db/d90/classmodel_1_1patches_1_1_patch.html" target="_top" xlink:title="model.patches.Patch">
<polygon fill="white" stroke="black" points="190.5,-68.5 190.5,-87.5 307.5,-87.5 307.5,-68.5 190.5,-68.5"/>
<text text-anchor="middle" x="249" y="-75.5" font-family="Helvetica,sans-Serif" font-size="10.00">model.patches.Patch</text>
</a>
</g>
</g>
<!-- Node3&#45;&gt;Node5 -->
<g id="edge6" class="edge"><title>Node3&#45;&gt;Node5</title>
<path fill="none" stroke="#9a32cd" stroke-dasharray="5,2" d="M126.513,-126.509C126.214,-119.368 127.315,-111.59 132,-106 136.587,-100.528 169.772,-93.1803 199.633,-87.5315"/>
<polygon fill="#9a32cd" stroke="#9a32cd" points="123.047,-127.001 127.757,-136.491 129.993,-126.135 123.047,-127.001"/>
<text text-anchor="middle" x="150" y="-109.5" font-family="Helvetica,sans-Serif" font-size="10.00"> myCell</text>
</g>
<!-- Node4 -->
<g id="node4" class="node"><title>Node4</title>
<polygon fill="white" stroke="#bfbfbf" points="0,-204.5 0,-223.5 130,-223.5 130,-204.5 0,-204.5"/>
<text text-anchor="middle" x="65" y="-211.5" font-family="Helvetica,sans-Serif" font-size="10.00">List&lt; model.cells.Cell &gt;</text>
</g>
<!-- Node4&#45;&gt;Node3 -->
<g id="edge3" class="edge"><title>Node4&#45;&gt;Node3</title>
<path fill="none" stroke="#9a32cd" stroke-dasharray="5,2" d="M61.4506,-194.433C61.1043,-187.492 61.9926,-179.875 66,-174 71.844,-165.432 80.9842,-159.574 90.5465,-155.571"/>
<polygon fill="#9a32cd" stroke="#9a32cd" points="57.9904,-194.967 62.7402,-204.437 64.9329,-194.072 57.9904,-194.967"/>
<text text-anchor="middle" x="99.5" y="-177.5" font-family="Helvetica,sans-Serif" font-size="10.00"> myNeighbors</text>
</g>
<!-- Node5&#45;&gt;Node3 -->
<g id="edge4" class="edge"><title>Node5&#45;&gt;Node3</title>
<path fill="none" stroke="#9a32cd" stroke-dasharray="5,2" d="M219.023,-91.6889C209.59,-95.9535 199.231,-100.924 190,-106 172.8,-115.459 153.976,-128.098 142.084,-136.388"/>
<polygon fill="#9a32cd" stroke="#9a32cd" points="220.702,-94.7731 228.43,-87.5254 217.869,-88.372 220.702,-94.7731"/>
<text text-anchor="middle" x="212.5" y="-109.5" font-family="Helvetica,sans-Serif" font-size="10.00"> myPatch</text>
</g>
<!-- Node6 -->
<g id="node6" class="node"><title>Node6</title>
<polygon fill="white" stroke="#bfbfbf" points="166,-204.5 166,-223.5 294,-223.5 294,-204.5 166,-204.5"/>
<text text-anchor="middle" x="230" y="-211.5" font-family="Helvetica,sans-Serif" font-size="10.00">Map&lt; String, Double &gt;</text>
</g>
<!-- Node6&#45;&gt;Node3 -->
<g id="edge8" class="edge"><title>Node6&#45;&gt;Node3</title>
<path fill="none" stroke="#9a32cd" stroke-dasharray="5,2" d="M183.134,-200.987C173.559,-197.183 163.982,-192.276 156,-186 145.637,-177.852 137.978,-164.398 133.751,-155.617"/>
<polygon fill="#9a32cd" stroke="#9a32cd" points="182.056,-204.319 192.65,-204.433 184.439,-197.737 182.056,-204.319"/>
<text text-anchor="middle" x="195.5" y="-177.5" font-family="Helvetica,sans-Serif" font-size="10.00"> myPropertyMap</text>
</g>
<!-- Node6&#45;&gt;Node5 -->
<g id="edge5" class="edge"><title>Node6&#45;&gt;Node5</title>
<path fill="none" stroke="#9a32cd" stroke-dasharray="5,2" d="M233.624,-194.139C234.11,-191.412 234.584,-188.637 235,-186 240.756,-149.544 245.944,-105.833 248.029,-87.6214"/>
<polygon fill="#9a32cd" stroke="#9a32cd" points="230.174,-193.549 231.786,-204.021 237.056,-194.829 230.174,-193.549"/>
<text text-anchor="middle" x="295" y="-143.5" font-family="Helvetica,sans-Serif" font-size="10.00"> myPatchPropertyMap</text>
</g>
<!-- Node7 -->
<g id="node7" class="node"><title>Node7</title>
<polygon fill="white" stroke="#bfbfbf" points="373,-136.5 373,-155.5 529,-155.5 529,-136.5 373,-136.5"/>
<text text-anchor="middle" x="451" y="-143.5" font-family="Helvetica,sans-Serif" font-size="10.00">List&lt; model.patches.Patch &gt;</text>
</g>
<!-- Node7&#45;&gt;Node5 -->
<g id="edge7" class="edge"><title>Node7&#45;&gt;Node5</title>
<path fill="none" stroke="#9a32cd" stroke-dasharray="5,2" d="M414.917,-133.211C374.72,-120.077 310.716,-99.1646 275.094,-87.5259"/>
<polygon fill="#9a32cd" stroke="#9a32cd" points="413.999,-136.593 424.592,-136.372 416.174,-129.939 413.999,-136.593"/>
<text text-anchor="middle" x="401.5" y="-109.5" font-family="Helvetica,sans-Serif" font-size="10.00"> myNeighbors</text>
</g>
<!-- Node8 -->
<g id="node8" class="node"><title>Node8</title>
<polygon fill="white" stroke="#bfbfbf" points="131.5,-68.5 131.5,-87.5 172.5,-87.5 172.5,-68.5 131.5,-68.5"/>
<text text-anchor="middle" x="152" y="-75.5" font-family="Helvetica,sans-Serif" font-size="10.00">Color</text>
</g>
<!-- Node8&#45;&gt;Node1 -->
<g id="edge9" class="edge"><title>Node8&#45;&gt;Node1</title>
<path fill="none" stroke="#9a32cd" stroke-dasharray="5,2" d="M145.66,-58.8066C141.24,-46.1244 135.538,-29.7615 132.081,-19.8411"/>
<polygon fill="#9a32cd" stroke="#9a32cd" points="142.397,-60.0804 148.993,-68.3717 149.007,-57.7768 142.397,-60.0804"/>
<text text-anchor="middle" x="164.5" y="-41.5" font-family="Helvetica,sans-Serif" font-size="10.00"> myColor</text>
</g>
</g>
</svg>
