<?xml version="1.0" encoding="UTF-8" standalone="no"?>
<!DOCTYPE svg PUBLIC "-//W3C//DTD SVG 1.1//EN"
 "http://www.w3.org/Graphics/SVG/1.1/DTD/svg11.dtd">
<!-- Generated by graphviz version 2.36.0 (20140111.2315)
 -->
<!-- Title: model.cells.PredatorCellFish Pages: 1 -->
<svg width="438pt" height="222pt"
 viewBox="0.00 0.00 438.00 222.00" xmlns="http://www.w3.org/2000/svg" xmlns:xlink="http://www.w3.org/1999/xlink">
<g id="graph0" class="graph" transform="scale(1 1) rotate(0) translate(4 218)">
<title>model.cells.PredatorCellFish</title>
<polygon fill="white" stroke="none" points="-4,4 -4,-218 434,-218 434,4 -4,4"/>
<!-- Node1 -->
<g id="node1" class="node"><title>Node1</title>
<polygon fill="#bfbfbf" stroke="black" points="0,-0.5 0,-19.5 150,-19.5 150,-0.5 0,-0.5"/>
<text text-anchor="middle" x="75" y="-7.5" font-family="Helvetica,sans-Serif" font-size="10.00">model.cells.PredatorCellFish</text>
</g>
<!-- Node2 -->
<g id="node2" class="node"><title>Node2</title>
<g id="a_node2"><a xlink:href="../../dc/d43/classmodel_1_1cells_1_1_predator_cell.html" target="_top" xlink:title="model.cells.PredatorCell">
<polygon fill="white" stroke="black" points="9,-58.5 9,-77.5 141,-77.5 141,-58.5 9,-58.5"/>
<text text-anchor="middle" x="75" y="-65.5" font-family="Helvetica,sans-Serif" font-size="10.00">model.cells.PredatorCell</text>
</a>
</g>
</g>
<!-- Node2&#45;&gt;Node1 -->
<g id="edge1" class="edge"><title>Node2&#45;&gt;Node1</title>
<path fill="none" stroke="midnightblue" d="M75,-47.953C75,-38.2875 75,-27.0312 75,-19.5052"/>
<polygon fill="midnightblue" stroke="midnightblue" points="71.5001,-48.25 75,-58.25 78.5001,-48.25 71.5001,-48.25"/>
</g>
<!-- Node3 -->
<g id="node3" class="node"><title>Node3</title>
<g id="a_node3"><a xlink:href="../../dc/d41/classmodel_1_1cells_1_1_cell.html" target="_top" xlink:title="model.cells.Cell">
<polygon fill="white" stroke="black" points="47.5,-126.5 47.5,-145.5 138.5,-145.5 138.5,-126.5 47.5,-126.5"/>
<text text-anchor="middle" x="93" y="-133.5" font-family="Helvetica,sans-Serif" font-size="10.00">model.cells.Cell</text>
</a>
</g>
</g>
<!-- Node3&#45;&gt;Node2 -->
<g id="edge2" class="edge"><title>Node3&#45;&gt;Node2</title>
<path fill="none" stroke="midnightblue" d="M87.9341,-116.425C84.4903,-103.798 80.0897,-87.6623 77.4112,-77.8411"/>
<polygon fill="midnightblue" stroke="midnightblue" points="84.6389,-117.645 90.6468,-126.372 91.3922,-115.803 84.6389,-117.645"/>
</g>
<!-- Node5 -->
<g id="node5" class="node"><title>Node5</title>
<g id="a_node5"><a xlink:href="../../db/d90/classmodel_1_1patches_1_1_patch.html" target="_top" xlink:title="model.patches.Patch">
<polygon fill="white" stroke="black" points="167.5,-58.5 167.5,-77.5 284.5,-77.5 284.5,-58.5 167.5,-58.5"/>
<text text-anchor="middle" x="226" y="-65.5" font-family="Helvetica,sans-Serif" font-size="10.00">model.patches.Patch</text>
</a>
</g>
</g>
<!-- Node3&#45;&gt;Node5 -->
<g id="edge6" class="edge"><title>Node3&#45;&gt;Node5</title>
<path fill="none" stroke="#9a32cd" stroke-dasharray="5,2" d="M123.005,-122.287C132.948,-117.924 144.021,-112.902 154,-108 174.033,-98.1603 196.574,-85.7212 211.013,-77.5718"/>
<polygon fill="#9a32cd" stroke="#9a32cd" points="121.302,-119.211 113.521,-126.402 124.088,-125.632 121.302,-119.211"/>
<text text-anchor="middle" x="195" y="-99.5" font-family="Helvetica,sans-Serif" font-size="10.00"> myCell</text>
</g>
<!-- Node4 -->
<g id="node4" class="node"><title>Node4</title>
<polygon fill="white" stroke="#bfbfbf" points="28,-194.5 28,-213.5 158,-213.5 158,-194.5 28,-194.5"/>
<text text-anchor="middle" x="93" y="-201.5" font-family="Helvetica,sans-Serif" font-size="10.00">List&lt; model.cells.Cell &gt;</text>
</g>
<!-- Node4&#45;&gt;Node3 -->
<g id="edge3" class="edge"><title>Node4&#45;&gt;Node3</title>
<path fill="none" stroke="#9a32cd" stroke-dasharray="5,2" d="M93,-184.041C93,-171.472 93,-155.563 93,-145.841"/>
<polygon fill="#9a32cd" stroke="#9a32cd" points="89.5001,-184.372 93,-194.372 96.5001,-184.372 89.5001,-184.372"/>
<text text-anchor="middle" x="126.5" y="-167.5" font-family="Helvetica,sans-Serif" font-size="10.00"> myNeighbors</text>
</g>
<!-- Node5&#45;&gt;Node3 -->
<g id="edge4" class="edge"><title>Node5&#45;&gt;Node3</title>
<path fill="none" stroke="#9a32cd" stroke-dasharray="5,2" d="M157.278,-79.3797C136.421,-83.6889 116.921,-89.2719 109,-96 99.9638,-103.675 95.9568,-117.254 94.2325,-126.191"/>
<polygon fill="#9a32cd" stroke="#9a32cd" points="158.108,-82.7838 167.249,-77.4286 156.763,-75.9141 158.108,-82.7838"/>
<text text-anchor="middle" x="131.5" y="-99.5" font-family="Helvetica,sans-Serif" font-size="10.00"> myPatch</text>
</g>
<!-- Node6 -->
<g id="node6" class="node"><title>Node6</title>
<polygon fill="white" stroke="#bfbfbf" points="207,-194.5 207,-213.5 335,-213.5 335,-194.5 207,-194.5"/>
<text text-anchor="middle" x="271" y="-201.5" font-family="Helvetica,sans-Serif" font-size="10.00">Map&lt; String, Double &gt;</text>
</g>
<!-- Node6&#45;&gt;Node3 -->
<g id="edge8" class="edge"><title>Node6&#45;&gt;Node3</title>
<path fill="none" stroke="#9a32cd" stroke-dasharray="5,2" d="M238.299,-190.875C202.829,-177.723 147.117,-157.066 115.994,-145.526"/>
<polygon fill="#9a32cd" stroke="#9a32cd" points="237.137,-194.177 247.73,-194.372 239.57,-187.613 237.137,-194.177"/>
<text text-anchor="middle" x="237.5" y="-167.5" font-family="Helvetica,sans-Serif" font-size="10.00"> myPropertyMap</text>
</g>
<!-- Node6&#45;&gt;Node5 -->
<g id="edge5" class="edge"><title>Node6&#45;&gt;Node5</title>
<path fill="none" stroke="#9a32cd" stroke-dasharray="5,2" d="M291.323,-188.042C308.398,-173.483 328.986,-150.086 322,-126 317.604,-110.842 315.354,-105.822 303,-96 292.355,-87.5364 278.866,-81.6236 266.162,-77.5388"/>
<polygon fill="#9a32cd" stroke="#9a32cd" points="288.96,-185.451 283.358,-194.444 293.345,-190.907 288.96,-185.451"/>
<text text-anchor="middle" x="377" y="-133.5" font-family="Helvetica,sans-Serif" font-size="10.00"> myPatchPropertyMap</text>
</g>
<!-- Node7 -->
<g id="node7" class="node"><title>Node7</title>
<polygon fill="white" stroke="#bfbfbf" points="157,-126.5 157,-145.5 313,-145.5 313,-126.5 157,-126.5"/>
<text text-anchor="middle" x="235" y="-133.5" font-family="Helvetica,sans-Serif" font-size="10.00">List&lt; model.patches.Patch &gt;</text>
</g>
<!-- Node7&#45;&gt;Node5 -->
<g id="edge7" class="edge"><title>Node7&#45;&gt;Node5</title>
<path fill="none" stroke="#9a32cd" stroke-dasharray="5,2" d="M232.467,-116.425C230.745,-103.798 228.545,-87.6623 227.206,-77.8411"/>
<polygon fill="#9a32cd" stroke="#9a32cd" points="229.004,-116.936 233.823,-126.372 235.94,-115.99 229.004,-116.936"/>
<text text-anchor="middle" x="265.5" y="-99.5" font-family="Helvetica,sans-Serif" font-size="10.00"> myNeighbors</text>
</g>
</g>
</svg>
