<?xml version="1.0" encoding="UTF-8" standalone="no"?>
<!DOCTYPE svg PUBLIC "-//W3C//DTD SVG 1.1//EN"
 "http://www.w3.org/Graphics/SVG/1.1/DTD/svg11.dtd">
<!-- Generated by graphviz version 2.36.0 (20140111.2315)
 -->
<!-- Title: view.SimulationScreen Pages: 1 -->
<svg width="1026pt" height="508pt"
 viewBox="0.00 0.00 1026.00 508.00" xmlns="http://www.w3.org/2000/svg" xmlns:xlink="http://www.w3.org/1999/xlink">
<g id="graph0" class="graph" transform="scale(1 1) rotate(0) translate(4 504)">
<title>view.SimulationScreen</title>
<polygon fill="white" stroke="none" points="-4,4 -4,-504 1022,-504 1022,4 -4,4"/>
<!-- Node1 -->
<g id="node1" class="node"><title>Node1</title>
<polygon fill="#bfbfbf" stroke="black" points="311,-367.5 311,-386.5 435,-386.5 435,-367.5 311,-367.5"/>
<text text-anchor="middle" x="373" y="-374.5" font-family="Helvetica,sans-Serif" font-size="10.00">view.SimulationScreen</text>
</g>
<!-- Node4 -->
<g id="node4" class="node"><title>Node4</title>
<g id="a_node4"><a xlink:href="../../d6/d7b/classcontroller_1_1_cell_society_controller.html" target="_top" xlink:title="controller.CellSocietyController">
<polygon fill="white" stroke="black" points="854.5,-321.5 854.5,-340.5 1017.5,-340.5 1017.5,-321.5 854.5,-321.5"/>
<text text-anchor="middle" x="936" y="-328.5" font-family="Helvetica,sans-Serif" font-size="10.00">controller.CellSocietyController</text>
</a>
</g>
</g>
<!-- Node1&#45;&gt;Node4 -->
<g id="edge21" class="edge"><title>Node1&#45;&gt;Node4</title>
<path fill="none" stroke="#9a32cd" stroke-dasharray="5,2" d="M393.349,-393.057C411.398,-407.547 439.453,-428.852 466,-444 503.002,-465.114 512.28,-473.377 554,-482 622.769,-496.214 641.981,-487.333 712,-482 767.593,-477.766 788.17,-491.649 836,-463 886.624,-432.677 919.88,-365.682 930.939,-340.669"/>
<polygon fill="#9a32cd" stroke="#9a32cd" points="395.31,-390.141 385.343,-386.548 390.894,-395.573 395.31,-390.141"/>
<text text-anchor="middle" x="633" y="-492" font-family="Helvetica,sans-Serif" font-size="10.00"> myCurrentSimulationScreen</text>
</g>
<!-- Node8 -->
<g id="node8" class="node"><title>Node8</title>
<g id="a_node8"><a xlink:href="../../d0/d56/classmodel_1_1simulations_1_1_simulation.html" target="_top" xlink:title="model.simulations.Simulation">
<polygon fill="white" stroke="black" points="554,-301.5 554,-320.5 712,-320.5 712,-301.5 554,-301.5"/>
<text text-anchor="middle" x="633" y="-308.5" font-family="Helvetica,sans-Serif" font-size="10.00">model.simulations.Simulation</text>
</a>
</g>
</g>
<!-- Node1&#45;&gt;Node8 -->
<g id="edge17" class="edge"><title>Node1&#45;&gt;Node8</title>
<path fill="none" stroke="#9a32cd" stroke-dasharray="5,2" d="M445.398,-369.681C474.456,-364.882 507.774,-356.979 536,-344 545.208,-339.766 544.874,-334.408 554,-330 561.907,-326.181 570.646,-323.091 579.328,-320.602"/>
<polygon fill="#9a32cd" stroke="#9a32cd" points="444.655,-366.255 435.313,-371.253 445.733,-373.171 444.655,-366.255"/>
<text text-anchor="middle" x="501" y="-369" font-family="Helvetica,sans-Serif" font-size="10.00"> myView</text>
</g>
<!-- Node2 -->
<g id="node2" class="node"><title>Node2</title>
<polygon fill="white" stroke="#bfbfbf" points="17.5,-340 17.5,-370 138.5,-370 138.5,-340 17.5,-340"/>
<text text-anchor="start" x="25.5" y="-358" font-family="Helvetica,sans-Serif" font-size="10.00">Map&lt; Color, ArrayList</text>
<text text-anchor="middle" x="78" y="-347" font-family="Helvetica,sans-Serif" font-size="10.00">&lt; Integer &gt; &gt;</text>
</g>
<!-- Node2&#45;&gt;Node1 -->
<g id="edge1" class="edge"><title>Node2&#45;&gt;Node1</title>
<path fill="none" stroke="#9a32cd" stroke-dasharray="5,2" d="M148.989,-357.724C187.66,-359.507 236.534,-362.216 280,-366 289.936,-366.865 300.455,-367.956 310.693,-369.113"/>
<polygon fill="#9a32cd" stroke="#9a32cd" points="149.026,-354.222 138.878,-357.268 148.71,-361.215 149.026,-354.222"/>
<text text-anchor="middle" x="227" y="-369" font-family="Helvetica,sans-Serif" font-size="10.00"> myData</text>
</g>
<!-- Node3 -->
<g id="node3" class="node"><title>Node3</title>
<polygon fill="white" stroke="#bfbfbf" points="54.5,-301.5 54.5,-320.5 101.5,-320.5 101.5,-301.5 54.5,-301.5"/>
<text text-anchor="middle" x="78" y="-308.5" font-family="Helvetica,sans-Serif" font-size="10.00">Shape</text>
</g>
<!-- Node3&#45;&gt;Node1 -->
<g id="edge2" class="edge"><title>Node3&#45;&gt;Node1</title>
<path fill="none" stroke="#9a32cd" stroke-dasharray="5,2" d="M111.827,-311.999C152.699,-314.252 223.961,-321.536 280,-345 289.103,-348.811 289.065,-353.811 298,-358 306.046,-361.772 314.95,-364.872 323.71,-367.392"/>
<polygon fill="#9a32cd" stroke="#9a32cd" points="111.787,-308.493 101.63,-311.508 111.45,-315.485 111.787,-308.493"/>
<text text-anchor="middle" x="227" y="-348" font-family="Helvetica,sans-Serif" font-size="10.00"> myColorGrid</text>
</g>
<!-- Node4&#45;&gt;Node1 -->
<g id="edge3" class="edge"><title>Node4&#45;&gt;Node1</title>
<path fill="none" stroke="#9a32cd" stroke-dasharray="5,2" d="M923.372,-349.094C907.043,-372.761 874.917,-413.396 836,-432 722.821,-486.105 677.461,-466.232 554,-444 492.633,-432.949 424.874,-402.293 392.806,-386.57"/>
<polygon fill="#9a32cd" stroke="#9a32cd" points="926.365,-350.915 929.018,-340.657 920.547,-347.021 926.365,-350.915"/>
<text text-anchor="middle" x="633" y="-470" font-family="Helvetica,sans-Serif" font-size="10.00"> myController</text>
</g>
<!-- Node5 -->
<g id="node5" class="node"><title>Node5</title>
<polygon fill="white" stroke="#bfbfbf" points="605,-415.5 605,-434.5 661,-434.5 661,-415.5 605,-415.5"/>
<text text-anchor="middle" x="633" y="-422.5" font-family="Helvetica,sans-Serif" font-size="10.00">Timeline</text>
</g>
<!-- Node5&#45;&gt;Node4 -->
<g id="edge4" class="edge"><title>Node5&#45;&gt;Node4</title>
<path fill="none" stroke="#9a32cd" stroke-dasharray="5,2" d="M671.508,-423.23C712.927,-420.291 781.025,-412.51 836,-392 870.047,-379.298 905.159,-354.301 923.007,-340.578"/>
<polygon fill="#9a32cd" stroke="#9a32cd" points="671.076,-419.751 661.324,-423.893 671.531,-426.736 671.076,-419.751"/>
<text text-anchor="middle" x="783" y="-420" font-family="Helvetica,sans-Serif" font-size="10.00"> myTimeline</text>
</g>
<!-- Node6 -->
<g id="node6" class="node"><title>Node6</title>
<polygon fill="white" stroke="#bfbfbf" points="559.5,-377.5 559.5,-396.5 706.5,-396.5 706.5,-377.5 559.5,-377.5"/>
<text text-anchor="middle" x="633" y="-384.5" font-family="Helvetica,sans-Serif" font-size="10.00">HashMap&lt; String, String &gt;</text>
</g>
<!-- Node6&#45;&gt;Node4 -->
<g id="edge5" class="edge"><title>Node6&#45;&gt;Node4</title>
<path fill="none" stroke="#9a32cd" stroke-dasharray="5,2" d="M717.027,-378.11C753.697,-373.511 797.2,-367.135 836,-359 859.6,-354.052 885.841,-346.536 905.374,-340.536"/>
<polygon fill="#9a32cd" stroke="#9a32cd" points="716.373,-374.664 706.875,-379.359 717.228,-381.611 716.373,-374.664"/>
<text text-anchor="middle" x="783" y="-380" font-family="Helvetica,sans-Serif" font-size="10.00"> myParameters</text>
</g>
<!-- Node7 -->
<g id="node7" class="node"><title>Node7</title>
<polygon fill="white" stroke="#bfbfbf" points="610.5,-339.5 610.5,-358.5 655.5,-358.5 655.5,-339.5 610.5,-339.5"/>
<text text-anchor="middle" x="633" y="-346.5" font-family="Helvetica,sans-Serif" font-size="10.00">Stage</text>
</g>
<!-- Node7&#45;&gt;Node4 -->
<g id="edge6" class="edge"><title>Node7&#45;&gt;Node4</title>
<path fill="none" stroke="#9a32cd" stroke-dasharray="5,2" d="M665.846,-347.096C710.32,-344.436 792.529,-339.52 854.436,-335.818"/>
<polygon fill="#9a32cd" stroke="#9a32cd" points="665.42,-343.615 655.647,-347.705 665.838,-350.602 665.42,-343.615"/>
<text text-anchor="middle" x="783" y="-347" font-family="Helvetica,sans-Serif" font-size="10.00"> myStage</text>
</g>
<!-- Node8&#45;&gt;Node4 -->
<g id="edge7" class="edge"><title>Node8&#45;&gt;Node4</title>
<path fill="none" stroke="#9a32cd" stroke-dasharray="5,2" d="M722.488,-315.848C757.809,-317.889 798.84,-320.395 836,-323 841.934,-323.416 848.067,-323.865 854.238,-324.331"/>
<polygon fill="#9a32cd" stroke="#9a32cd" points="722.389,-312.336 712.205,-315.257 721.987,-319.325 722.389,-312.336"/>
<text text-anchor="middle" x="783" y="-326" font-family="Helvetica,sans-Serif" font-size="10.00"> myCurrentSimulation</text>
</g>
<!-- Node9 -->
<g id="node9" class="node"><title>Node9</title>
<g id="a_node9"><a xlink:href="../../dc/d86/classmodel_1_1simulations_1_1_abstract_cell_factory.html" target="_top" xlink:title="model.simulations.Abstract\lCellFactory">
<polygon fill="white" stroke="black" points="299,-280 299,-310 447,-310 447,-280 299,-280"/>
<text text-anchor="start" x="307" y="-298" font-family="Helvetica,sans-Serif" font-size="10.00">model.simulations.Abstract</text>
<text text-anchor="middle" x="373" y="-287" font-family="Helvetica,sans-Serif" font-size="10.00">CellFactory</text>
</a>
</g>
</g>
<!-- Node9&#45;&gt;Node8 -->
<g id="edge8" class="edge"><title>Node9&#45;&gt;Node8</title>
<path fill="none" stroke="#9a32cd" stroke-dasharray="5,2" d="M457.541,-300.181C488.396,-302.094 523.23,-304.255 553.612,-306.139"/>
<polygon fill="#9a32cd" stroke="#9a32cd" points="457.44,-296.668 447.242,-299.542 457.006,-303.655 457.44,-296.668"/>
<text text-anchor="middle" x="501" y="-308" font-family="Helvetica,sans-Serif" font-size="10.00"> myCellFactory</text>
</g>
<!-- Node10 -->
<g id="node10" class="node"><title>Node10</title>
<g id="a_node10"><a xlink:href="../../da/d6d/classmodel_1_1gridrules_1_1_grid_rules.html" target="_top" xlink:title="model.gridrules.GridRules">
<polygon fill="white" stroke="black" points="304,-241.5 304,-260.5 442,-260.5 442,-241.5 304,-241.5"/>
<text text-anchor="middle" x="373" y="-248.5" font-family="Helvetica,sans-Serif" font-size="10.00">model.gridrules.GridRules</text>
</a>
</g>
</g>
<!-- Node10&#45;&gt;Node8 -->
<g id="edge9" class="edge"><title>Node10&#45;&gt;Node8</title>
<path fill="none" stroke="#9a32cd" stroke-dasharray="5,2" d="M429.744,-262.635C461.064,-269.36 500.815,-278.21 536,-287 544.055,-289.012 545.965,-289.906 554,-292 566.273,-295.199 579.677,-298.524 591.857,-301.482"/>
<polygon fill="#9a32cd" stroke="#9a32cd" points="430.398,-259.196 419.887,-260.529 428.935,-266.041 430.398,-259.196"/>
<text text-anchor="middle" x="501" y="-290" font-family="Helvetica,sans-Serif" font-size="10.00"> myGridRules</text>
</g>
<!-- Node11 -->
<g id="node11" class="node"><title>Node11</title>
<g id="a_node11"><a xlink:href="../../db/d90/classmodel_1_1patches_1_1_patch.html" target="_top" xlink:title="model.patches.Patch">
<polygon fill="white" stroke="black" points="314.5,-68.5 314.5,-87.5 431.5,-87.5 431.5,-68.5 314.5,-68.5"/>
<text text-anchor="middle" x="373" y="-75.5" font-family="Helvetica,sans-Serif" font-size="10.00">model.patches.Patch</text>
</a>
</g>
</g>
<!-- Node11&#45;&gt;Node8 -->
<g id="edge10" class="edge"><title>Node11&#45;&gt;Node8</title>
<path fill="none" stroke="#9a32cd" stroke-dasharray="5,2" d="M422.701,-90.597C459.978,-102.91 509.378,-125.548 536,-164 568.702,-211.233 515.442,-249.413 554,-292 557.461,-295.823 561.551,-298.938 566.016,-301.469"/>
<polygon fill="#9a32cd" stroke="#9a32cd" points="423.613,-87.2146 413.023,-87.5395 421.504,-93.8894 423.613,-87.2146"/>
<text text-anchor="middle" x="501" y="-167" font-family="Helvetica,sans-Serif" font-size="10.00"> myPatchGrid</text>
</g>
<!-- Node13 -->
<g id="node13" class="node"><title>Node13</title>
<g id="a_node13"><a xlink:href="../../dc/d41/classmodel_1_1cells_1_1_cell.html" target="_top" xlink:title="model.cells.Cell">
<polygon fill="white" stroke="black" points="587.5,-51.5 587.5,-70.5 678.5,-70.5 678.5,-51.5 587.5,-51.5"/>
<text text-anchor="middle" x="633" y="-58.5" font-family="Helvetica,sans-Serif" font-size="10.00">model.cells.Cell</text>
</a>
</g>
</g>
<!-- Node11&#45;&gt;Node13 -->
<g id="edge14" class="edge"><title>Node11&#45;&gt;Node13</title>
<path fill="none" stroke="#9a32cd" stroke-dasharray="5,2" d="M441.77,-73.5345C487.773,-70.5033 547.302,-66.5809 587.416,-63.9377"/>
<polygon fill="#9a32cd" stroke="#9a32cd" points="441.327,-70.056 431.579,-74.206 441.788,-77.0409 441.327,-70.056"/>
<text text-anchor="middle" x="501" y="-75" font-family="Helvetica,sans-Serif" font-size="10.00"> myPatch</text>
</g>
<!-- Node12 -->
<g id="node12" class="node"><title>Node12</title>
<polygon fill="white" stroke="#bfbfbf" points="14,-114.5 14,-133.5 142,-133.5 142,-114.5 14,-114.5"/>
<text text-anchor="middle" x="78" y="-121.5" font-family="Helvetica,sans-Serif" font-size="10.00">Map&lt; String, Double &gt;</text>
</g>
<!-- Node12&#45;&gt;Node11 -->
<g id="edge11" class="edge"><title>Node12&#45;&gt;Node11</title>
<path fill="none" stroke="#9a32cd" stroke-dasharray="5,2" d="M149.886,-112.871C200.312,-104.954 267.205,-94.4525 314.359,-87.0495"/>
<polygon fill="#9a32cd" stroke="#9a32cd" points="149.046,-109.46 139.71,-114.469 150.132,-116.375 149.046,-109.46"/>
<text text-anchor="middle" x="227" y="-111" font-family="Helvetica,sans-Serif" font-size="10.00"> myPatchPropertyMap</text>
</g>
<!-- Node12&#45;&gt;Node13 -->
<g id="edge15" class="edge"><title>Node12&#45;&gt;Node13</title>
<path fill="none" stroke="#9a32cd" stroke-dasharray="5,2" d="M141.445,-135.068C230.983,-148.487 400.035,-164.63 536,-124 571.145,-113.498 605.363,-85.5466 621.83,-70.6548"/>
<polygon fill="#9a32cd" stroke="#9a32cd" points="141.87,-131.592 131.454,-133.532 140.806,-138.511 141.87,-131.592"/>
<text text-anchor="middle" x="373" y="-153" font-family="Helvetica,sans-Serif" font-size="10.00"> myPropertyMap</text>
</g>
<!-- Node13&#45;&gt;Node11 -->
<g id="edge12" class="edge"><title>Node13&#45;&gt;Node11</title>
<path fill="none" stroke="#9a32cd" stroke-dasharray="5,2" d="M583.616,-49.5379C550.363,-43.3192 505.293,-38.1661 466,-45 440.422,-49.4486 412.556,-60.3671 394.273,-68.4329"/>
<polygon fill="#9a32cd" stroke="#9a32cd" points="583.05,-52.9935 593.537,-51.49 584.401,-46.1252 583.05,-52.9935"/>
<text text-anchor="middle" x="501" y="-48" font-family="Helvetica,sans-Serif" font-size="10.00"> myCell</text>
</g>
<!-- Node14 -->
<g id="node14" class="node"><title>Node14</title>
<polygon fill="white" stroke="#bfbfbf" points="308,-0.5 308,-19.5 438,-19.5 438,-0.5 308,-0.5"/>
<text text-anchor="middle" x="373" y="-7.5" font-family="Helvetica,sans-Serif" font-size="10.00">List&lt; model.cells.Cell &gt;</text>
</g>
<!-- Node14&#45;&gt;Node13 -->
<g id="edge13" class="edge"><title>Node14&#45;&gt;Node13</title>
<path fill="none" stroke="#9a32cd" stroke-dasharray="5,2" d="M448.093,-14.0815C475.898,-16.5764 507.627,-20.5816 536,-27 561.868,-32.8517 590.381,-43.5189 609.558,-51.3494"/>
<polygon fill="#9a32cd" stroke="#9a32cd" points="448.3,-10.5866 438.04,-13.229 447.708,-17.5615 448.3,-10.5866"/>
<text text-anchor="middle" x="501" y="-30" font-family="Helvetica,sans-Serif" font-size="10.00"> myNeighbors</text>
</g>
<!-- Node15 -->
<g id="node15" class="node"><title>Node15</title>
<polygon fill="white" stroke="#bfbfbf" points="0,-68.5 0,-87.5 156,-87.5 156,-68.5 0,-68.5"/>
<text text-anchor="middle" x="78" y="-75.5" font-family="Helvetica,sans-Serif" font-size="10.00">List&lt; model.patches.Patch &gt;</text>
</g>
<!-- Node15&#45;&gt;Node11 -->
<g id="edge16" class="edge"><title>Node15&#45;&gt;Node11</title>
<path fill="none" stroke="#9a32cd" stroke-dasharray="5,2" d="M166.4,-78C214.184,-78 272.046,-78 314.197,-78"/>
<polygon fill="#9a32cd" stroke="#9a32cd" points="166.366,-74.5001 156.366,-78 166.366,-81.5001 166.366,-74.5001"/>
<text text-anchor="middle" x="227" y="-81" font-family="Helvetica,sans-Serif" font-size="10.00"> myNeighbors</text>
</g>
<!-- Node16 -->
<g id="node16" class="node"><title>Node16</title>
<g id="a_node16"><a xlink:href="../../dc/de1/classmodel_1_1neighbors_1_1_neighbors.html" target="_top" xlink:title="model.neighbors.Neighbors">
<polygon fill="white" stroke="black" points="298.5,-329.5 298.5,-348.5 447.5,-348.5 447.5,-329.5 298.5,-329.5"/>
<text text-anchor="middle" x="373" y="-336.5" font-family="Helvetica,sans-Serif" font-size="10.00">model.neighbors.Neighbors</text>
</a>
</g>
</g>
<!-- Node16&#45;&gt;Node8 -->
<g id="edge18" class="edge"><title>Node16&#45;&gt;Node8</title>
<path fill="none" stroke="#9a32cd" stroke-dasharray="5,2" d="M457.882,-329.897C488.72,-326.55 523.493,-322.776 553.81,-319.486"/>
<polygon fill="#9a32cd" stroke="#9a32cd" points="457.151,-326.455 447.587,-331.014 457.906,-333.414 457.151,-326.455"/>
<text text-anchor="middle" x="501" y="-332" font-family="Helvetica,sans-Serif" font-size="10.00"> myNeighbors</text>
</g>
<!-- Node17 -->
<g id="node17" class="node"><title>Node17</title>
<polygon fill="white" stroke="#bfbfbf" points="586.5,-263.5 586.5,-282.5 679.5,-282.5 679.5,-263.5 586.5,-263.5"/>
<text text-anchor="middle" x="633" y="-270.5" font-family="Helvetica,sans-Serif" font-size="10.00">ResourceBundle</text>
</g>
<!-- Node17&#45;&gt;Node4 -->
<g id="edge19" class="edge"><title>Node17&#45;&gt;Node4</title>
<path fill="none" stroke="#9a32cd" stroke-dasharray="5,2" d="M689.673,-278.831C730.456,-283.625 787.006,-291.364 836,-302 859.978,-307.205 886.645,-315.145 906.255,-321.401"/>
<polygon fill="#9a32cd" stroke="#9a32cd" points="689.993,-275.345 679.658,-277.676 689.191,-282.299 689.993,-275.345"/>
<text text-anchor="middle" x="783" y="-305" font-family="Helvetica,sans-Serif" font-size="10.00"> myProperties</text>
</g>
<!-- Node18 -->
<g id="node18" class="node"><title>Node18</title>
<polygon fill="white" stroke="#bfbfbf" points="609.5,-225.5 609.5,-244.5 656.5,-244.5 656.5,-225.5 609.5,-225.5"/>
<text text-anchor="middle" x="633" y="-232.5" font-family="Helvetica,sans-Serif" font-size="10.00">Scene</text>
</g>
<!-- Node18&#45;&gt;Node4 -->
<g id="edge20" class="edge"><title>Node18&#45;&gt;Node4</title>
<path fill="none" stroke="#9a32cd" stroke-dasharray="5,2" d="M666.722,-236.85C707.524,-240.01 778.86,-248.369 836,-270 869.985,-282.866 905.123,-307.796 922.99,-321.465"/>
<polygon fill="#9a32cd" stroke="#9a32cd" points="666.772,-233.345 656.548,-236.122 666.272,-240.327 666.772,-233.345"/>
<text text-anchor="middle" x="783" y="-273" font-family="Helvetica,sans-Serif" font-size="10.00"> myScene</text>
</g>
<!-- Node19 -->
<g id="node19" class="node"><title>Node19</title>
<polygon fill="white" stroke="#bfbfbf" points="17,-228.5 17,-247.5 139,-247.5 139,-228.5 17,-228.5"/>
<text text-anchor="middle" x="78" y="-235.5" font-family="Helvetica,sans-Serif" font-size="10.00">Map&lt; String, String &gt;</text>
</g>
<!-- Node19&#45;&gt;Node1 -->
<g id="edge25" class="edge"><title>Node19&#45;&gt;Node1</title>
<path fill="none" stroke="#9a32cd" stroke-dasharray="5,2" d="M149.337,-245.144C192.232,-252.99 245.3,-269.455 280,-304 297.929,-321.848 279.493,-340.752 298,-358 302.075,-361.798 306.805,-364.861 311.866,-367.329"/>
<polygon fill="#9a32cd" stroke="#9a32cd" points="149.678,-241.651 139.231,-243.418 148.499,-248.552 149.678,-241.651"/>
<text text-anchor="middle" x="227" y="-307" font-family="Helvetica,sans-Serif" font-size="10.00"> myStyles</text>
</g>
<!-- Node19&#45;&gt;Node4 -->
<g id="edge22" class="edge"><title>Node19&#45;&gt;Node4</title>
<path fill="none" stroke="#9a32cd" stroke-dasharray="5,2" d="M149.66,-229.386C266.832,-216.481 508.602,-195.7 712,-216 767.942,-221.583 785.835,-215.62 836,-241 876.21,-261.343 912.33,-302.539 927.468,-321.3"/>
<polygon fill="#9a32cd" stroke="#9a32cd" points="148.946,-225.944 139.396,-230.531 149.723,-232.901 148.946,-225.944"/>
<text text-anchor="middle" x="501" y="-211" font-family="Helvetica,sans-Serif" font-size="10.00"> myStyles</text>
</g>
<!-- Node20 -->
<g id="node20" class="node"><title>Node20</title>
<polygon fill="white" stroke="#bfbfbf" points="610,-149.5 610,-168.5 656,-168.5 656,-149.5 610,-149.5"/>
<text text-anchor="middle" x="633" y="-156.5" font-family="Helvetica,sans-Serif" font-size="10.00">Group</text>
</g>
<!-- Node20&#45;&gt;Node4 -->
<g id="edge23" class="edge"><title>Node20&#45;&gt;Node4</title>
<path fill="none" stroke="#9a32cd" stroke-dasharray="5,2" d="M666.241,-152.564C708.469,-145.928 783.315,-140.485 836,-172 894.882,-207.222 923.955,-292.397 932.357,-321.253"/>
<polygon fill="#9a32cd" stroke="#9a32cd" points="665.518,-149.137 656.241,-154.255 666.685,-156.039 665.518,-149.137"/>
<text text-anchor="middle" x="783" y="-175" font-family="Helvetica,sans-Serif" font-size="10.00"> myGroup</text>
</g>
<!-- Node21 -->
<g id="node21" class="node"><title>Node21</title>
<polygon fill="white" stroke="#bfbfbf" points="21.5,-161.5 21.5,-180.5 134.5,-180.5 134.5,-161.5 21.5,-161.5"/>
<text text-anchor="middle" x="78" y="-168.5" font-family="Helvetica,sans-Serif" font-size="10.00">ArrayList&lt; Button &gt;</text>
</g>
<!-- Node21&#45;&gt;Node1 -->
<g id="edge24" class="edge"><title>Node21&#45;&gt;Node1</title>
<path fill="none" stroke="#9a32cd" stroke-dasharray="5,2" d="M144.612,-174.749C189.518,-180.953 246.743,-196.697 280,-236 315.404,-277.841 261.328,-317.267 298,-358 301.639,-362.042 306.01,-365.276 310.786,-367.858"/>
<polygon fill="#9a32cd" stroke="#9a32cd" points="145.008,-171.271 134.65,-173.499 144.137,-178.216 145.008,-171.271"/>
<text text-anchor="middle" x="227" y="-239" font-family="Helvetica,sans-Serif" font-size="10.00"> myButtons</text>
</g>
<!-- Node22 -->
<g id="node22" class="node"><title>Node22</title>
<polygon fill="white" stroke="#bfbfbf" points="57,-427.5 57,-446.5 99,-446.5 99,-427.5 57,-427.5"/>
<text text-anchor="middle" x="78" y="-434.5" font-family="Helvetica,sans-Serif" font-size="10.00">HBox</text>
</g>
<!-- Node22&#45;&gt;Node1 -->
<g id="edge26" class="edge"><title>Node22&#45;&gt;Node1</title>
<path fill="none" stroke="#9a32cd" stroke-dasharray="5,2" d="M109.236,-434.08C148.83,-429.894 220.234,-421.1 280,-407 302.891,-401.599 328.26,-393.133 346.55,-386.57"/>
<polygon fill="#9a32cd" stroke="#9a32cd" points="108.77,-430.609 99.181,-435.115 109.487,-437.572 108.77,-430.609"/>
<text text-anchor="middle" x="227" y="-429" font-family="Helvetica,sans-Serif" font-size="10.00"> myTop</text>
</g>
<!-- Node23 -->
<g id="node23" class="node"><title>Node23</title>
<polygon fill="white" stroke="#bfbfbf" points="42,-389.5 42,-408.5 114,-408.5 114,-389.5 42,-389.5"/>
<text text-anchor="middle" x="78" y="-396.5" font-family="Helvetica,sans-Serif" font-size="10.00">BorderPane</text>
</g>
<!-- Node23&#45;&gt;Node1 -->
<g id="edge27" class="edge"><title>Node23&#45;&gt;Node1</title>
<path fill="none" stroke="#9a32cd" stroke-dasharray="5,2" d="M124.244,-395.603C174.299,-391.844 255.227,-385.768 310.89,-381.588"/>
<polygon fill="#9a32cd" stroke="#9a32cd" points="123.761,-392.129 114.052,-396.368 124.286,-399.109 123.761,-392.129"/>
<text text-anchor="middle" x="227" y="-395" font-family="Helvetica,sans-Serif" font-size="10.00"> root</text>
</g>
</g>
</svg>
