<?xml version="1.0" encoding="UTF-8" standalone="no"?>
<!DOCTYPE svg PUBLIC "-//W3C//DTD SVG 1.1//EN"
 "http://www.w3.org/Graphics/SVG/1.1/DTD/svg11.dtd">
<!-- Generated by graphviz version 2.36.0 (20140111.2315)
 -->
<!-- Title: model.cells.FireCellTree Pages: 1 -->
<svg width="563pt" height="232pt"
 viewBox="0.00 0.00 562.76 232.00" xmlns="http://www.w3.org/2000/svg" xmlns:xlink="http://www.w3.org/1999/xlink">
<g id="graph0" class="graph" transform="scale(1 1) rotate(0) translate(4 228)">
<title>model.cells.FireCellTree</title>
<polygon fill="white" stroke="none" points="-4,4 -4,-228 558.757,-228 558.757,4 -4,4"/>
<!-- Node1 -->
<g id="node1" class="node"><title>Node1</title>
<polygon fill="#bfbfbf" stroke="black" points="427.257,-0.5 427.257,-19.5 554.257,-19.5 554.257,-0.5 427.257,-0.5"/>
<text text-anchor="middle" x="490.757" y="-7.5" font-family="Helvetica,sans-Serif" font-size="10.00">model.cells.FireCellTree</text>
</g>
<!-- Node2 -->
<g id="node2" class="node"><title>Node2</title>
<g id="a_node2"><a xlink:href="../../d4/d6f/classmodel_1_1cells_1_1_fire_cell.html" target="_top" xlink:title="model.cells.FireCell">
<polygon fill="white" stroke="black" points="368.257,-68.5 368.257,-87.5 475.257,-87.5 475.257,-68.5 368.257,-68.5"/>
<text text-anchor="middle" x="421.757" y="-75.5" font-family="Helvetica,sans-Serif" font-size="10.00">model.cells.FireCell</text>
</a>
</g>
</g>
<!-- Node2&#45;&gt;Node1 -->
<g id="edge1" class="edge"><title>Node2&#45;&gt;Node1</title>
<path fill="none" stroke="midnightblue" d="M438.053,-61.4122C451.608,-48.4468 470.416,-30.4559 481.514,-19.8411"/>
<polygon fill="midnightblue" stroke="midnightblue" points="435.584,-58.9301 430.777,-68.3717 440.423,-63.9887 435.584,-58.9301"/>
</g>
<!-- Node3 -->
<g id="node3" class="node"><title>Node3</title>
<g id="a_node3"><a xlink:href="../../dc/d41/classmodel_1_1cells_1_1_cell.html" target="_top" xlink:title="model.cells.Cell">
<polygon fill="white" stroke="black" points="299.257,-136.5 299.257,-155.5 390.257,-155.5 390.257,-136.5 299.257,-136.5"/>
<text text-anchor="middle" x="344.757" y="-143.5" font-family="Helvetica,sans-Serif" font-size="10.00">model.cells.Cell</text>
</a>
</g>
</g>
<!-- Node3&#45;&gt;Node2 -->
<g id="edge2" class="edge"><title>Node3&#45;&gt;Node2</title>
<path fill="none" stroke="midnightblue" d="M372.542,-131.449C379.184,-127.575 386.009,-123.024 391.757,-118 402.048,-109.006 411.194,-96.0198 416.606,-87.5453"/>
<polygon fill="midnightblue" stroke="midnightblue" points="370.799,-128.412 363.716,-136.292 374.167,-134.549 370.799,-128.412"/>
</g>
<!-- Node5 -->
<g id="node5" class="node"><title>Node5</title>
<g id="a_node5"><a xlink:href="../../db/d90/classmodel_1_1patches_1_1_patch.html" target="_top" xlink:title="model.patches.Patch">
<polygon fill="white" stroke="black" points="177.257,-68.5 177.257,-87.5 294.257,-87.5 294.257,-68.5 177.257,-68.5"/>
<text text-anchor="middle" x="235.757" y="-75.5" font-family="Helvetica,sans-Serif" font-size="10.00">model.patches.Patch</text>
</a>
</g>
</g>
<!-- Node3&#45;&gt;Node5 -->
<g id="edge6" class="edge"><title>Node3&#45;&gt;Node5</title>
<path fill="none" stroke="#9a32cd" stroke-dasharray="5,2" d="M342.84,-126.233C341.208,-119.051 338.218,-111.316 332.757,-106 322.297,-95.8193 308.341,-89.4074 294.282,-85.3889"/>
<polygon fill="#9a32cd" stroke="#9a32cd" points="339.415,-126.985 344.417,-136.324 346.331,-125.904 339.415,-126.985"/>
<text text-anchor="middle" x="358.757" y="-109.5" font-family="Helvetica,sans-Serif" font-size="10.00"> myCell</text>
</g>
<!-- Node4 -->
<g id="node4" class="node"><title>Node4</title>
<polygon fill="white" stroke="#bfbfbf" points="279.757,-204.5 279.757,-223.5 409.757,-223.5 409.757,-204.5 279.757,-204.5"/>
<text text-anchor="middle" x="344.757" y="-211.5" font-family="Helvetica,sans-Serif" font-size="10.00">List&lt; model.cells.Cell &gt;</text>
</g>
<!-- Node4&#45;&gt;Node3 -->
<g id="edge3" class="edge"><title>Node4&#45;&gt;Node3</title>
<path fill="none" stroke="#9a32cd" stroke-dasharray="5,2" d="M344.757,-194.041C344.757,-181.472 344.757,-165.563 344.757,-155.841"/>
<polygon fill="#9a32cd" stroke="#9a32cd" points="341.257,-194.372 344.757,-204.372 348.257,-194.372 341.257,-194.372"/>
<text text-anchor="middle" x="378.257" y="-177.5" font-family="Helvetica,sans-Serif" font-size="10.00"> myNeighbors</text>
</g>
<!-- Node5&#45;&gt;Node3 -->
<g id="edge4" class="edge"><title>Node5&#45;&gt;Node3</title>
<path fill="none" stroke="#9a32cd" stroke-dasharray="5,2" d="M254.141,-94.2184C263.816,-101.851 276.069,-110.947 287.757,-118 299.382,-125.015 313.119,-131.569 324.194,-136.463"/>
<polygon fill="#9a32cd" stroke="#9a32cd" points="256.056,-91.2663 246.072,-87.7202 251.665,-96.7183 256.056,-91.2663"/>
<text text-anchor="middle" x="310.257" y="-109.5" font-family="Helvetica,sans-Serif" font-size="10.00"> myPatch</text>
</g>
<!-- Node6 -->
<g id="node6" class="node"><title>Node6</title>
<polygon fill="white" stroke="#bfbfbf" points="33.7567,-204.5 33.7567,-223.5 161.757,-223.5 161.757,-204.5 33.7567,-204.5"/>
<text text-anchor="middle" x="97.7567" y="-211.5" font-family="Helvetica,sans-Serif" font-size="10.00">Map&lt; String, Double &gt;</text>
</g>
<!-- Node6&#45;&gt;Node3 -->
<g id="edge8" class="edge"><title>Node6&#45;&gt;Node3</title>
<path fill="none" stroke="#9a32cd" stroke-dasharray="5,2" d="M139.751,-201.779C188.717,-188.695 268.57,-167.358 312.776,-155.546"/>
<polygon fill="#9a32cd" stroke="#9a32cd" points="138.552,-198.476 129.794,-204.439 140.359,-205.239 138.552,-198.476"/>
<text text-anchor="middle" x="283.257" y="-177.5" font-family="Helvetica,sans-Serif" font-size="10.00"> myPropertyMap</text>
</g>
<!-- Node6&#45;&gt;Node5 -->
<g id="edge5" class="edge"><title>Node6&#45;&gt;Node5</title>
<path fill="none" stroke="#9a32cd" stroke-dasharray="5,2" d="M62.3885,-200.694C28.293,-186.886 -15.2703,-162.874 5.75665,-136 26.6707,-109.27 116.172,-93.3179 177.159,-85.3542"/>
<polygon fill="#9a32cd" stroke="#9a32cd" points="61.5485,-204.122 72.1374,-204.477 64.0812,-197.596 61.5485,-204.122"/>
<text text-anchor="middle" x="58.7567" y="-143.5" font-family="Helvetica,sans-Serif" font-size="10.00"> myPatchPropertyMap</text>
</g>
<!-- Node7 -->
<g id="node7" class="node"><title>Node7</title>
<polygon fill="white" stroke="#bfbfbf" points="120.757,-136.5 120.757,-155.5 276.757,-155.5 276.757,-136.5 120.757,-136.5"/>
<text text-anchor="middle" x="198.757" y="-143.5" font-family="Helvetica,sans-Serif" font-size="10.00">List&lt; model.patches.Patch &gt;</text>
</g>
<!-- Node7&#45;&gt;Node5 -->
<g id="edge7" class="edge"><title>Node7&#45;&gt;Node5</title>
<path fill="none" stroke="#9a32cd" stroke-dasharray="5,2" d="M194.653,-126.15C194.11,-119.463 194.612,-112.092 197.757,-106 201.84,-98.0895 209.43,-91.992 216.76,-87.6101"/>
<polygon fill="#9a32cd" stroke="#9a32cd" points="191.256,-127.078 196.271,-136.411 198.171,-125.987 191.256,-127.078"/>
<text text-anchor="middle" x="231.257" y="-109.5" font-family="Helvetica,sans-Serif" font-size="10.00"> myNeighbors</text>
</g>
<!-- Node8 -->
<g id="node8" class="node"><title>Node8</title>
<polygon fill="white" stroke="#bfbfbf" points="410.757,-136.5 410.757,-155.5 466.757,-155.5 466.757,-136.5 410.757,-136.5"/>
<text text-anchor="middle" x="438.757" y="-143.5" font-family="Helvetica,sans-Serif" font-size="10.00">Random</text>
</g>
<!-- Node8&#45;&gt;Node2 -->
<g id="edge9" class="edge"><title>Node8&#45;&gt;Node2</title>
<path fill="none" stroke="#9a32cd" stroke-dasharray="5,2" d="M433.972,-126.425C430.72,-113.798 426.564,-97.6623 424.034,-87.8411"/>
<polygon fill="#9a32cd" stroke="#9a32cd" points="430.65,-127.561 436.534,-136.372 437.429,-125.815 430.65,-127.561"/>
<text text-anchor="middle" x="461.757" y="-109.5" font-family="Helvetica,sans-Serif" font-size="10.00"> myRandom</text>
</g>
<!-- Node9 -->
<g id="node9" class="node"><title>Node9</title>
<polygon fill="white" stroke="#bfbfbf" points="493.257,-68.5 493.257,-87.5 534.257,-87.5 534.257,-68.5 493.257,-68.5"/>
<text text-anchor="middle" x="513.757" y="-75.5" font-family="Helvetica,sans-Serif" font-size="10.00">Color</text>
</g>
<!-- Node9&#45;&gt;Node1 -->
<g id="edge10" class="edge"><title>Node9&#45;&gt;Node1</title>
<path fill="none" stroke="#9a32cd" stroke-dasharray="5,2" d="M507.417,-58.8066C502.997,-46.1244 497.295,-29.7615 493.838,-19.8411"/>
<polygon fill="#9a32cd" stroke="#9a32cd" points="504.154,-60.0804 510.75,-68.3717 510.764,-57.7768 504.154,-60.0804"/>
<text text-anchor="middle" x="526.257" y="-41.5" font-family="Helvetica,sans-Serif" font-size="10.00"> myColor</text>
</g>
</g>
</svg>
