<?xml version="1.0" encoding="UTF-8" standalone="no"?>
<!DOCTYPE svg PUBLIC "-//W3C//DTD SVG 1.1//EN"
 "http://www.w3.org/Graphics/SVG/1.1/DTD/svg11.dtd">
<!-- Generated by graphviz version 2.36.0 (20140111.2315)
 -->
<!-- Title: view.SplashScreen Pages: 1 -->
<!--zoomable 612 -->
<svg id="main" version="1.1" xmlns="http://www.w3.org/2000/svg" xmlns:xlink="http://www.w3.org/1999/xlink" xml:space="preserve" onload="init(evt)">
<style type="text/css"><![CDATA[
.edge:hover path { stroke: red; }
.edge:hover polygon { stroke: red; fill: red; }
]]></style>
<script type="text/javascript"><![CDATA[
var edges = document.getElementsByTagName('g');
if (edges && edges.length) {
  for (var i=0;i<edges.length;i++) {
    if (edges[i].id.substr(0,4)=='edge') {
      edges[i].setAttribute('class','edge');
    }
  }
}
]]></script>
        <defs>
                <circle id="rim" cx="0" cy="0" r="7"/>
                <circle id="rim2" cx="0" cy="0" r="3.5"/>
                <g id="zoomPlus">
                        <use xlink:href="#rim" fill="#404040">
                                <set attributeName="fill" to="#808080" begin="zoomplus.mouseover" end="zoomplus.mouseout"/>
                        </use>
                        <path d="M-4,0h8M0,-4v8" fill="none" stroke="white" stroke-width="1.5" pointer-events="none"/>
                </g>
                <g id="zoomMin">
                        <use xlink:href="#rim" fill="#404040">
                                <set attributeName="fill" to="#808080" begin="zoomminus.mouseover" end="zoomminus.mouseout"/>
                        </use>
                        <path d="M-4,0h8" fill="none" stroke="white" stroke-width="1.5" pointer-events="none"/>
                </g>
                <g id="dirArrow">
                        <path fill="none" stroke="white" stroke-width="1.5" d="M0,-3.0v7 M-2.5,-0.5L0,-3.0L2.5,-0.5"/>
                </g>
               <g id="resetDef">
                       <use xlink:href="#rim2" fill="#404040">
                               <set attributeName="fill" to="#808080" begin="reset.mouseover" end="reset.mouseout"/>
                       </use>
               </g>
        </defs>

<script type="text/javascript">
var viewWidth = 1020;
var viewHeight = 612;
var sectionId = 'dynsection-0';
</script>
<script xlink:href="../../svgpan.js"/>
<svg id="graph" class="graph">
<g id="viewport">
<title>view.SplashScreen</title>
<polygon fill="white" stroke="none" points="-4,4 -4,-608.423 1016,-608.423 1016,4 -4,4"/>
<!-- Node1 -->
<g id="node1" class="node"><title>Node1</title>
<polygon fill="#bfbfbf" stroke="black" points="620.5,-403.923 620.5,-422.923 725.5,-422.923 725.5,-403.923 620.5,-403.923"/>
<text text-anchor="middle" x="673" y="-410.923" font-family="Helvetica,sans-Serif" font-size="10.00">view.SplashScreen</text>
</g>
<!-- Node2 -->
<g id="node2" class="node"><title>Node2</title>
<polygon fill="white" stroke="#bfbfbf" points="27.5,-373.923 27.5,-392.923 120.5,-392.923 120.5,-373.923 27.5,-373.923"/>
<text text-anchor="middle" x="74" y="-380.923" font-family="Helvetica,sans-Serif" font-size="10.00">ResourceBundle</text>
</g>
<!-- Node2&#45;&gt;Node1 -->
<g id="edge1" class="edge"><title>Node2&#45;&gt;Node1</title>
<path fill="none" stroke="#9a32cd" stroke-dasharray="5,2" d="M130.768,-391.634C142.39,-393.104 154.578,-394.469 166,-395.423 331.56,-409.252 528.46,-412.473 620.185,-413.212"/>
<polygon fill="#9a32cd" stroke="#9a32cd" points="131.104,-388.148 120.735,-390.323 130.197,-395.089 131.104,-388.148"/>
<text text-anchor="middle" x="340" y="-412.423" font-family="Helvetica,sans-Serif" font-size="10.00"> myProperties</text>
</g>
<!-- Node3 -->
<g id="node3" class="node"><title>Node3</title>
<g id="a_node3"><a xlink:href="../../d6/d7b/classcontroller_1_1_cell_society_controller.html" target="_top" xlink:title="controller.CellSocietyController">
<polygon fill="white" stroke="black" points="258.5,-269.923 258.5,-288.923 421.5,-288.923 421.5,-269.923 258.5,-269.923"/>
<text text-anchor="middle" x="340" y="-276.923" font-family="Helvetica,sans-Serif" font-size="10.00">controller.CellSocietyController</text>
</a>
</g>
</g>
<!-- Node2&#45;&gt;Node3 -->
<g id="edge25" class="edge"><title>Node2&#45;&gt;Node3</title>
<path fill="none" stroke="#9a32cd" stroke-dasharray="5,2" d="M109.67,-370.137C143.097,-357.289 195.082,-337.208 240,-319.423 265.853,-309.187 295.399,-297.213 315.434,-289.053"/>
<polygon fill="#9a32cd" stroke="#9a32cd" points="108.001,-367.029 99.9209,-373.881 110.511,-373.563 108.001,-367.029"/>
<text text-anchor="middle" x="203" y="-351.423" font-family="Helvetica,sans-Serif" font-size="10.00"> myProperties</text>
</g>
<!-- Node3&#45;&gt;Node1 -->
<g id="edge2" class="edge"><title>Node3&#45;&gt;Node1</title>
<path fill="none" stroke="#9a32cd" stroke-dasharray="5,2" d="M402.223,-290.723C414.715,-292.981 427.776,-295.308 440,-297.423 471.066,-302.799 556.412,-299.503 580,-320.423 601.467,-339.462 578.901,-361.01 598,-382.423 606.808,-392.299 619.269,-399.114 631.459,-403.78"/>
<polygon fill="#9a32cd" stroke="#9a32cd" points="402.818,-287.274 392.353,-288.932 401.568,-294.161 402.818,-287.274"/>
<text text-anchor="middle" x="510" y="-323.423" font-family="Helvetica,sans-Serif" font-size="10.00"> myController</text>
</g>
<!-- Node15 -->
<g id="node15" class="node"><title>Node15</title>
<g id="a_node15"><a xlink:href="../../d1/d3e/classview_1_1_simulation_screen.html" target="_top" xlink:title="view.SimulationScreen">
<polygon fill="white" stroke="black" points="611,-199.923 611,-218.923 735,-218.923 735,-199.923 611,-199.923"/>
<text text-anchor="middle" x="673" y="-206.923" font-family="Helvetica,sans-Serif" font-size="10.00">view.SimulationScreen</text>
</a>
</g>
</g>
<!-- Node3&#45;&gt;Node15 -->
<g id="edge19" class="edge"><title>Node3&#45;&gt;Node15</title>
<path fill="none" stroke="#9a32cd" stroke-dasharray="5,2" d="M402.223,-268.124C414.715,-265.865 427.776,-263.539 440,-261.423 502.133,-250.672 518.664,-253.05 580,-238.423 602.318,-233.101 627.096,-225.17 645.311,-218.947"/>
<polygon fill="#9a32cd" stroke="#9a32cd" points="401.568,-264.685 392.353,-269.915 402.818,-271.573 401.568,-264.685"/>
<text text-anchor="middle" x="510" y="-264.423" font-family="Helvetica,sans-Serif" font-size="10.00"> myController</text>
</g>
<!-- Node4 -->
<g id="node4" class="node"><title>Node4</title>
<polygon fill="white" stroke="#bfbfbf" points="46,-307.923 46,-326.923 102,-326.923 102,-307.923 46,-307.923"/>
<text text-anchor="middle" x="74" y="-314.923" font-family="Helvetica,sans-Serif" font-size="10.00">Timeline</text>
</g>
<!-- Node4&#45;&gt;Node3 -->
<g id="edge3" class="edge"><title>Node4&#45;&gt;Node3</title>
<path fill="none" stroke="#9a32cd" stroke-dasharray="5,2" d="M112.24,-312.063C153.861,-306.072 222.061,-296.255 272.816,-288.95"/>
<polygon fill="#9a32cd" stroke="#9a32cd" points="111.658,-308.611 102.258,-313.5 112.655,-315.539 111.658,-308.611"/>
<text text-anchor="middle" x="203" y="-307.423" font-family="Helvetica,sans-Serif" font-size="10.00"> myTimeline</text>
</g>
<!-- Node5 -->
<g id="node5" class="node"><title>Node5</title>
<polygon fill="white" stroke="#bfbfbf" points="0.5,-193.923 0.5,-212.923 147.5,-212.923 147.5,-193.923 0.5,-193.923"/>
<text text-anchor="middle" x="74" y="-200.923" font-family="Helvetica,sans-Serif" font-size="10.00">HashMap&lt; String, String &gt;</text>
</g>
<!-- Node5&#45;&gt;Node3 -->
<g id="edge4" class="edge"><title>Node5&#45;&gt;Node3</title>
<path fill="none" stroke="#9a32cd" stroke-dasharray="5,2" d="M139.991,-214.963C170.642,-221.074 207.531,-229.401 240,-239.423 267.632,-247.953 298.35,-260.94 318.132,-269.786"/>
<polygon fill="#9a32cd" stroke="#9a32cd" points="140.337,-211.464 129.85,-212.976 138.991,-218.334 140.337,-211.464"/>
<text text-anchor="middle" x="203" y="-242.423" font-family="Helvetica,sans-Serif" font-size="10.00"> myParameters</text>
</g>
<!-- Node6 -->
<g id="node6" class="node"><title>Node6</title>
<polygon fill="white" stroke="#bfbfbf" points="51.5,-269.923 51.5,-288.923 96.5,-288.923 96.5,-269.923 51.5,-269.923"/>
<text text-anchor="middle" x="74" y="-276.923" font-family="Helvetica,sans-Serif" font-size="10.00">Stage</text>
</g>
<!-- Node6&#45;&gt;Node3 -->
<g id="edge5" class="edge"><title>Node6&#45;&gt;Node3</title>
<path fill="none" stroke="#9a32cd" stroke-dasharray="5,2" d="M106.861,-279.423C144.173,-279.423 207.371,-279.423 258.413,-279.423"/>
<polygon fill="#9a32cd" stroke="#9a32cd" points="106.604,-275.923 96.6042,-279.423 106.604,-282.923 106.604,-275.923"/>
<text text-anchor="middle" x="203" y="-282.423" font-family="Helvetica,sans-Serif" font-size="10.00"> myStage</text>
</g>
<!-- Node7 -->
<g id="node7" class="node"><title>Node7</title>
<g id="a_node7"><a xlink:href="../../d0/d56/classmodel_1_1simulations_1_1_simulation.html" target="_top" xlink:title="model.simulations.Simulation">
<polygon fill="white" stroke="black" points="854,-295.923 854,-314.923 1012,-314.923 1012,-295.923 854,-295.923"/>
<text text-anchor="middle" x="933" y="-302.923" font-family="Helvetica,sans-Serif" font-size="10.00">model.simulations.Simulation</text>
</a>
</g>
</g>
<!-- Node7&#45;&gt;Node3 -->
<g id="edge6" class="edge"><title>Node7&#45;&gt;Node3</title>
<path fill="none" stroke="#9a32cd" stroke-dasharray="5,2" d="M843.553,-300.347C813.258,-298.68 779.151,-296.882 748,-295.423 634.804,-290.123 503.843,-285.189 421.713,-282.239"/>
<polygon fill="#9a32cd" stroke="#9a32cd" points="843.493,-303.849 853.671,-300.907 843.879,-296.859 843.493,-303.849"/>
<text text-anchor="middle" x="673" y="-298.423" font-family="Helvetica,sans-Serif" font-size="10.00"> myCurrentSimulation</text>
</g>
<!-- Node8 -->
<g id="node8" class="node"><title>Node8</title>
<g id="a_node8"><a xlink:href="../../dc/d86/classmodel_1_1simulations_1_1_abstract_cell_factory.html" target="_top" xlink:title="model.simulations.Abstract\lCellFactory">
<polygon fill="white" stroke="black" points="599,-150.423 599,-180.423 747,-180.423 747,-150.423 599,-150.423"/>
<text text-anchor="start" x="607" y="-168.423" font-family="Helvetica,sans-Serif" font-size="10.00">model.simulations.Abstract</text>
<text text-anchor="middle" x="673" y="-157.423" font-family="Helvetica,sans-Serif" font-size="10.00">CellFactory</text>
</a>
</g>
</g>
<!-- Node8&#45;&gt;Node7 -->
<g id="edge7" class="edge"><title>Node8&#45;&gt;Node7</title>
<path fill="none" stroke="#9a32cd" stroke-dasharray="5,2" d="M729.328,-183.893C735.636,-186.064 741.964,-188.273 748,-190.423 787.348,-204.443 800.02,-202.205 836,-223.423 871.684,-244.467 907.004,-279.133 923.048,-295.837"/>
<polygon fill="#9a32cd" stroke="#9a32cd" points="730.073,-180.448 719.478,-180.524 727.808,-187.072 730.073,-180.448"/>
<text text-anchor="middle" x="801" y="-226.423" font-family="Helvetica,sans-Serif" font-size="10.00"> myCellFactory</text>
</g>
<!-- Node9 -->
<g id="node9" class="node"><title>Node9</title>
<g id="a_node9"><a xlink:href="../../da/d6d/classmodel_1_1gridrules_1_1_grid_rules.html" target="_top" xlink:title="model.gridrules.GridRules">
<polygon fill="white" stroke="black" points="604,-353.923 604,-372.923 742,-372.923 742,-353.923 604,-353.923"/>
<text text-anchor="middle" x="673" y="-360.923" font-family="Helvetica,sans-Serif" font-size="10.00">model.gridrules.GridRules</text>
</a>
</g>
</g>
<!-- Node9&#45;&gt;Node7 -->
<g id="edge8" class="edge"><title>Node9&#45;&gt;Node7</title>
<path fill="none" stroke="#9a32cd" stroke-dasharray="5,2" d="M743.506,-352.135C772.27,-347.054 805.88,-340.585 836,-333.423 858.295,-328.122 883.122,-320.843 901.942,-315.036"/>
<polygon fill="#9a32cd" stroke="#9a32cd" points="742.796,-348.706 733.547,-353.874 744,-355.602 742.796,-348.706"/>
<text text-anchor="middle" x="801" y="-350.423" font-family="Helvetica,sans-Serif" font-size="10.00"> myGridRules</text>
</g>
<!-- Node10 -->
<g id="node10" class="node"><title>Node10</title>
<g id="a_node10"><a xlink:href="../../db/d90/classmodel_1_1patches_1_1_patch.html" target="_top" xlink:title="model.patches.Patch">
<polygon fill="white" stroke="black" points="614.5,-514.923 614.5,-533.923 731.5,-533.923 731.5,-514.923 614.5,-514.923"/>
<text text-anchor="middle" x="673" y="-521.923" font-family="Helvetica,sans-Serif" font-size="10.00">model.patches.Patch</text>
</a>
</g>
</g>
<!-- Node10&#45;&gt;Node7 -->
<g id="edge9" class="edge"><title>Node10&#45;&gt;Node7</title>
<path fill="none" stroke="#9a32cd" stroke-dasharray="5,2" d="M693.355,-507.994C744.227,-464.812 880.544,-349.101 920.713,-315.004"/>
<polygon fill="#9a32cd" stroke="#9a32cd" points="690.778,-505.591 685.419,-514.731 695.308,-510.927 690.778,-505.591"/>
<text text-anchor="middle" x="801" y="-444.423" font-family="Helvetica,sans-Serif" font-size="10.00"> myPatchGrid</text>
</g>
<!-- Node12 -->
<g id="node12" class="node"><title>Node12</title>
<g id="a_node12"><a xlink:href="../../dc/d41/classmodel_1_1cells_1_1_cell.html" target="_top" xlink:title="model.cells.Cell">
<polygon fill="white" stroke="black" points="887.5,-535.923 887.5,-554.923 978.5,-554.923 978.5,-535.923 887.5,-535.923"/>
<text text-anchor="middle" x="933" y="-542.923" font-family="Helvetica,sans-Serif" font-size="10.00">model.cells.Cell</text>
</a>
</g>
</g>
<!-- Node10&#45;&gt;Node12 -->
<g id="edge13" class="edge"><title>Node10&#45;&gt;Node12</title>
<path fill="none" stroke="#9a32cd" stroke-dasharray="5,2" d="M741.768,-529.815C770.789,-532.136 805.059,-534.893 836,-537.423 852.669,-538.787 870.964,-540.306 887.07,-541.65"/>
<polygon fill="#9a32cd" stroke="#9a32cd" points="741.982,-526.321 731.735,-529.013 741.425,-533.299 741.982,-526.321"/>
<text text-anchor="middle" x="801" y="-540.423" font-family="Helvetica,sans-Serif" font-size="10.00"> myPatch</text>
</g>
<!-- Node11 -->
<g id="node11" class="node"><title>Node11</title>
<polygon fill="white" stroke="#bfbfbf" points="276,-572.923 276,-591.923 404,-591.923 404,-572.923 276,-572.923"/>
<text text-anchor="middle" x="340" y="-579.923" font-family="Helvetica,sans-Serif" font-size="10.00">Map&lt; String, Double &gt;</text>
</g>
<!-- Node11&#45;&gt;Node10 -->
<g id="edge10" class="edge"><title>Node11&#45;&gt;Node10</title>
<path fill="none" stroke="#9a32cd" stroke-dasharray="5,2" d="M414.333,-573.025C461.764,-566.541 524.742,-557.172 580,-546.423 598.216,-542.88 618.276,-538.178 635.003,-534.031"/>
<polygon fill="#9a32cd" stroke="#9a32cd" points="413.591,-569.594 404.152,-574.405 414.532,-576.53 413.591,-569.594"/>
<text text-anchor="middle" x="510" y="-572.423" font-family="Helvetica,sans-Serif" font-size="10.00"> myPatchPropertyMap</text>
</g>
<!-- Node11&#45;&gt;Node12 -->
<g id="edge14" class="edge"><title>Node11&#45;&gt;Node12</title>
<path fill="none" stroke="#9a32cd" stroke-dasharray="5,2" d="M414.243,-588.316C511.563,-594.442 688.403,-599.628 836,-571.423 858.218,-567.178 882.835,-560.469 901.579,-554.93"/>
<polygon fill="#9a32cd" stroke="#9a32cd" points="414.421,-584.82 404.214,-587.664 413.966,-591.806 414.421,-584.82"/>
<text text-anchor="middle" x="673" y="-596.423" font-family="Helvetica,sans-Serif" font-size="10.00"> myPropertyMap</text>
</g>
<!-- Node12&#45;&gt;Node10 -->
<g id="edge11" class="edge"><title>Node12&#45;&gt;Node10</title>
<path fill="none" stroke="#9a32cd" stroke-dasharray="5,2" d="M910.481,-530.347C891.779,-518.224 863.45,-502.143 836,-495.423 786.323,-483.262 726.913,-502.286 695.669,-514.83"/>
<polygon fill="#9a32cd" stroke="#9a32cd" points="908.581,-533.287 918.843,-535.923 912.465,-527.463 908.581,-533.287"/>
<text text-anchor="middle" x="801" y="-498.423" font-family="Helvetica,sans-Serif" font-size="10.00"> myCell</text>
</g>
<!-- Node13 -->
<g id="node13" class="node"><title>Node13</title>
<polygon fill="white" stroke="#bfbfbf" points="608,-552.923 608,-571.923 738,-571.923 738,-552.923 608,-552.923"/>
<text text-anchor="middle" x="673" y="-559.923" font-family="Helvetica,sans-Serif" font-size="10.00">List&lt; model.cells.Cell &gt;</text>
</g>
<!-- Node13&#45;&gt;Node12 -->
<g id="edge12" class="edge"><title>Node13&#45;&gt;Node12</title>
<path fill="none" stroke="#9a32cd" stroke-dasharray="5,2" d="M748.109,-557.54C793.077,-554.577 848.983,-550.893 887.274,-548.37"/>
<polygon fill="#9a32cd" stroke="#9a32cd" points="747.855,-554.049 738.107,-558.199 748.315,-561.034 747.855,-554.049"/>
<text text-anchor="middle" x="801" y="-559.423" font-family="Helvetica,sans-Serif" font-size="10.00"> myNeighbors</text>
</g>
<!-- Node14 -->
<g id="node14" class="node"><title>Node14</title>
<polygon fill="white" stroke="#bfbfbf" points="262,-523.923 262,-542.923 418,-542.923 418,-523.923 262,-523.923"/>
<text text-anchor="middle" x="340" y="-530.923" font-family="Helvetica,sans-Serif" font-size="10.00">List&lt; model.patches.Patch &gt;</text>
</g>
<!-- Node14&#45;&gt;Node10 -->
<g id="edge15" class="edge"><title>Node14&#45;&gt;Node10</title>
<path fill="none" stroke="#9a32cd" stroke-dasharray="5,2" d="M428.216,-531.052C487.043,-529.452 563.016,-527.387 614.396,-525.99"/>
<polygon fill="#9a32cd" stroke="#9a32cd" points="428.088,-527.554 418.187,-531.325 428.279,-534.551 428.088,-527.554"/>
<text text-anchor="middle" x="510" y="-534.423" font-family="Helvetica,sans-Serif" font-size="10.00"> myNeighbors</text>
</g>
<!-- Node15&#45;&gt;Node3 -->
<g id="edge27" class="edge"><title>Node15&#45;&gt;Node3</title>
<path fill="none" stroke="#9a32cd" stroke-dasharray="5,2" d="M600.662,-206.529C554.056,-206.527 492.353,-210.136 440,-225.423 406.924,-235.082 372.534,-256.983 354.271,-269.728"/>
<polygon fill="#9a32cd" stroke="#9a32cd" points="600.649,-210.029 610.668,-206.584 600.688,-203.029 600.649,-210.029"/>
<text text-anchor="middle" x="510" y="-228.423" font-family="Helvetica,sans-Serif" font-size="10.00"> myCurrentSimulationScreen</text>
</g>
<!-- Node15&#45;&gt;Node7 -->
<g id="edge16" class="edge"><title>Node15&#45;&gt;Node7</title>
<path fill="none" stroke="#9a32cd" stroke-dasharray="5,2" d="M717.368,-221.81C750.276,-231.578 796.445,-246.073 836,-261.423 863.176,-271.97 893.627,-286.389 912.802,-295.802"/>
<polygon fill="#9a32cd" stroke="#9a32cd" points="718.185,-218.402 707.603,-218.935 716.208,-225.117 718.185,-218.402"/>
<text text-anchor="middle" x="801" y="-264.423" font-family="Helvetica,sans-Serif" font-size="10.00"> myView</text>
</g>
<!-- Node16 -->
<g id="node16" class="node"><title>Node16</title>
<polygon fill="white" stroke="#bfbfbf" points="279.5,-148.423 279.5,-178.423 400.5,-178.423 400.5,-148.423 279.5,-148.423"/>
<text text-anchor="start" x="287.5" y="-166.423" font-family="Helvetica,sans-Serif" font-size="10.00">Map&lt; Color, ArrayList</text>
<text text-anchor="middle" x="340" y="-155.423" font-family="Helvetica,sans-Serif" font-size="10.00">&lt; Integer &gt; &gt;</text>
</g>
<!-- Node16&#45;&gt;Node15 -->
<g id="edge17" class="edge"><title>Node16&#45;&gt;Node15</title>
<path fill="none" stroke="#9a32cd" stroke-dasharray="5,2" d="M411.1,-156.059C459.957,-153.505 525.824,-155.303 580,-175.423 589.501,-178.952 588.93,-184.901 598,-189.423 606.575,-193.699 616.18,-197.151 625.558,-199.905"/>
<polygon fill="#9a32cd" stroke="#9a32cd" points="410.716,-152.575 400.943,-156.665 411.133,-159.563 410.716,-152.575"/>
<text text-anchor="middle" x="510" y="-178.423" font-family="Helvetica,sans-Serif" font-size="10.00"> myData</text>
</g>
<!-- Node17 -->
<g id="node17" class="node"><title>Node17</title>
<polygon fill="white" stroke="#bfbfbf" points="316.5,-109.923 316.5,-128.923 363.5,-128.923 363.5,-109.923 316.5,-109.923"/>
<text text-anchor="middle" x="340" y="-116.923" font-family="Helvetica,sans-Serif" font-size="10.00">Shape</text>
</g>
<!-- Node17&#45;&gt;Node15 -->
<g id="edge18" class="edge"><title>Node17&#45;&gt;Node15</title>
<path fill="none" stroke="#9a32cd" stroke-dasharray="5,2" d="M373.465,-112.27C423.364,-103.272 519.472,-94.1033 580,-140.423 598.425,-154.523 580.888,-173.756 598,-189.423 602.711,-193.737 608.258,-197.136 614.16,-199.812"/>
<polygon fill="#9a32cd" stroke="#9a32cd" points="372.712,-108.85 363.548,-114.167 374.027,-115.725 372.712,-108.85"/>
<text text-anchor="middle" x="510" y="-143.423" font-family="Helvetica,sans-Serif" font-size="10.00"> myColorGrid</text>
</g>
<!-- Node18 -->
<g id="node18" class="node"><title>Node18</title>
<polygon fill="white" stroke="#bfbfbf" points="283.5,-346.923 283.5,-365.923 396.5,-365.923 396.5,-346.923 283.5,-346.923"/>
<text text-anchor="middle" x="340" y="-353.923" font-family="Helvetica,sans-Serif" font-size="10.00">ArrayList&lt; Button &gt;</text>
</g>
<!-- Node18&#45;&gt;Node1 -->
<g id="edge30" class="edge"><title>Node18&#45;&gt;Node1</title>
<path fill="none" stroke="#9a32cd" stroke-dasharray="5,2" d="M406.88,-362.873C455.098,-368.168 521.96,-376.705 580,-388.423 600.442,-392.55 623.049,-398.671 640.737,-403.823"/>
<polygon fill="#9a32cd" stroke="#9a32cd" points="407.201,-359.387 396.883,-361.792 406.449,-366.347 407.201,-359.387"/>
<text text-anchor="middle" x="510" y="-391.423" font-family="Helvetica,sans-Serif" font-size="10.00"> myButtons</text>
</g>
<!-- Node18&#45;&gt;Node15 -->
<g id="edge20" class="edge"><title>Node18&#45;&gt;Node15</title>
<path fill="none" stroke="#9a32cd" stroke-dasharray="5,2" d="M406.976,-353.325C473.133,-349.619 567.026,-342.491 580,-331.423 603.458,-311.412 580.665,-289.923 598,-264.423 611.859,-244.037 635.823,-228.275 652.719,-218.95"/>
<polygon fill="#9a32cd" stroke="#9a32cd" points="406.407,-349.851 396.613,-353.891 406.789,-356.84 406.407,-349.851"/>
<text text-anchor="middle" x="510" y="-354.423" font-family="Helvetica,sans-Serif" font-size="10.00"> myButtons</text>
</g>
<!-- Node19 -->
<g id="node19" class="node"><title>Node19</title>
<polygon fill="white" stroke="#bfbfbf" points="13,-96.9233 13,-115.923 135,-115.923 135,-96.9233 13,-96.9233"/>
<text text-anchor="middle" x="74" y="-103.923" font-family="Helvetica,sans-Serif" font-size="10.00">Map&lt; String, String &gt;</text>
</g>
<!-- Node19&#45;&gt;Node3 -->
<g id="edge28" class="edge"><title>Node19&#45;&gt;Node3</title>
<path fill="none" stroke="#9a32cd" stroke-dasharray="5,2" d="M103.768,-120.541C138.069,-138.097 196.248,-170.208 240,-206.423 249.212,-214.049 248.921,-218.64 258,-226.423 278.287,-243.814 304.62,-260.047 321.663,-269.852"/>
<polygon fill="#9a32cd" stroke="#9a32cd" points="105.261,-117.374 94.7582,-115.984 102.102,-123.621 105.261,-117.374"/>
<text text-anchor="middle" x="203" y="-209.423" font-family="Helvetica,sans-Serif" font-size="10.00"> myStyles</text>
</g>
<!-- Node19&#45;&gt;Node15 -->
<g id="edge21" class="edge"><title>Node19&#45;&gt;Node15</title>
<path fill="none" stroke="#9a32cd" stroke-dasharray="5,2" d="M101.34,-91.9334C183.958,-48.6425 440.758,69.1823 580,-56.4233 624.292,-96.3776 558.637,-144.605 598,-189.423 601.776,-193.723 606.372,-197.142 611.405,-199.856"/>
<polygon fill="#9a32cd" stroke="#9a32cd" points="99.3337,-89.0363 92.148,-96.8219 102.621,-95.2167 99.3337,-89.0363"/>
<text text-anchor="middle" x="340" y="-28.4233" font-family="Helvetica,sans-Serif" font-size="10.00"> myStyles</text>
</g>
<!-- Node20 -->
<g id="node20" class="node"><title>Node20</title>
<polygon fill="white" stroke="#bfbfbf" points="319,-197.923 319,-216.923 361,-216.923 361,-197.923 319,-197.923"/>
<text text-anchor="middle" x="340" y="-204.923" font-family="Helvetica,sans-Serif" font-size="10.00">HBox</text>
</g>
<!-- Node20&#45;&gt;Node15 -->
<g id="edge22" class="edge"><title>Node20&#45;&gt;Node15</title>
<path fill="none" stroke="#9a32cd" stroke-dasharray="5,2" d="M370.874,-202.083C390.458,-198.859 416.662,-195.065 440,-193.423 502.069,-189.056 518.008,-188.073 580,-193.423 595.183,-194.734 611.62,-197.239 626.343,-199.885"/>
<polygon fill="#9a32cd" stroke="#9a32cd" points="370.287,-198.633 361.011,-203.751 371.454,-205.535 370.287,-198.633"/>
<text text-anchor="middle" x="510" y="-196.423" font-family="Helvetica,sans-Serif" font-size="10.00"> myTop</text>
</g>
<!-- Node21 -->
<g id="node21" class="node"><title>Node21</title>
<polygon fill="white" stroke="#bfbfbf" points="304,-71.9233 304,-90.9233 376,-90.9233 376,-71.9233 304,-71.9233"/>
<text text-anchor="middle" x="340" y="-78.9233" font-family="Helvetica,sans-Serif" font-size="10.00">BorderPane</text>
</g>
<!-- Node21&#45;&gt;Node15 -->
<g id="edge23" class="edge"><title>Node21&#45;&gt;Node15</title>
<path fill="none" stroke="#9a32cd" stroke-dasharray="5,2" d="M381.291,-69.2244C433.736,-56.0714 525.147,-42.8647 580,-90.4233 613.79,-119.719 567.735,-156.499 598,-189.423 601.963,-193.734 606.749,-197.154 611.96,-199.862"/>
<polygon fill="#9a32cd" stroke="#9a32cd" points="380.127,-65.9113 371.344,-71.8363 381.905,-72.6818 380.127,-65.9113"/>
<text text-anchor="middle" x="510" y="-93.4233" font-family="Helvetica,sans-Serif" font-size="10.00"> root</text>
</g>
<!-- Node22 -->
<g id="node22" class="node"><title>Node22</title>
<g id="a_node22"><a xlink:href="../../dc/de1/classmodel_1_1neighbors_1_1_neighbors.html" target="_top" xlink:title="model.neighbors.Neighbors">
<polygon fill="white" stroke="black" points="598.5,-315.923 598.5,-334.923 747.5,-334.923 747.5,-315.923 598.5,-315.923"/>
<text text-anchor="middle" x="673" y="-322.923" font-family="Helvetica,sans-Serif" font-size="10.00">model.neighbors.Neighbors</text>
</a>
</g>
</g>
<!-- Node22&#45;&gt;Node7 -->
<g id="edge24" class="edge"><title>Node22&#45;&gt;Node7</title>
<path fill="none" stroke="#9a32cd" stroke-dasharray="5,2" d="M757.882,-318.921C788.72,-316.53 823.493,-313.835 853.81,-311.485"/>
<polygon fill="#9a32cd" stroke="#9a32cd" points="757.287,-315.456 747.587,-319.719 757.828,-322.435 757.287,-315.456"/>
<text text-anchor="middle" x="801" y="-321.423" font-family="Helvetica,sans-Serif" font-size="10.00"> myNeighbors</text>
</g>
<!-- Node23 -->
<g id="node23" class="node"><title>Node23</title>
<polygon fill="white" stroke="#bfbfbf" points="50.5,-231.923 50.5,-250.923 97.5,-250.923 97.5,-231.923 50.5,-231.923"/>
<text text-anchor="middle" x="74" y="-238.923" font-family="Helvetica,sans-Serif" font-size="10.00">Scene</text>
</g>
<!-- Node23&#45;&gt;Node3 -->
<g id="edge26" class="edge"><title>Node23&#45;&gt;Node3</title>
<path fill="none" stroke="#9a32cd" stroke-dasharray="5,2" d="M107.784,-245.876C141.091,-250.428 194.158,-257.756 240,-264.423 251.956,-266.162 264.717,-268.063 276.964,-269.908"/>
<polygon fill="#9a32cd" stroke="#9a32cd" points="108.08,-242.384 97.6983,-244.501 107.133,-249.32 108.08,-242.384"/>
<text text-anchor="middle" x="203" y="-267.423" font-family="Helvetica,sans-Serif" font-size="10.00"> myScene</text>
</g>
<!-- Node24 -->
<g id="node24" class="node"><title>Node24</title>
<polygon fill="white" stroke="#bfbfbf" points="51,-429.923 51,-448.923 97,-448.923 97,-429.923 51,-429.923"/>
<text text-anchor="middle" x="74" y="-436.923" font-family="Helvetica,sans-Serif" font-size="10.00">Group</text>
</g>
<!-- Node24&#45;&gt;Node1 -->
<g id="edge32" class="edge"><title>Node24&#45;&gt;Node1</title>
<path fill="none" stroke="#9a32cd" stroke-dasharray="5,2" d="M107.655,-440.083C188.114,-441.396 402.275,-442.994 580,-427.423 593.037,-426.281 607.034,-424.46 620.079,-422.504"/>
<polygon fill="#9a32cd" stroke="#9a32cd" points="107.266,-436.576 97.2068,-439.901 107.144,-443.575 107.266,-436.576"/>
<text text-anchor="middle" x="340" y="-444.423" font-family="Helvetica,sans-Serif" font-size="10.00"> myRoot</text>
</g>
<!-- Node24&#45;&gt;Node3 -->
<g id="edge29" class="edge"><title>Node24&#45;&gt;Node3</title>
<path fill="none" stroke="#9a32cd" stroke-dasharray="5,2" d="M106.955,-429.534C142.212,-417.505 199.335,-394.607 240,-361.423 250.33,-352.993 248.468,-346.747 258,-337.423 278.154,-317.71 305.481,-299.586 322.677,-289.02"/>
<polygon fill="#9a32cd" stroke="#9a32cd" points="105.577,-426.304 97.1905,-432.778 107.784,-432.947 105.577,-426.304"/>
<text text-anchor="middle" x="203" y="-408.423" font-family="Helvetica,sans-Serif" font-size="10.00"> myGroup</text>
</g>
<!-- Node25 -->
<g id="node25" class="node"><title>Node25</title>
<polygon fill="white" stroke="#bfbfbf" points="286.5,-485.923 286.5,-504.923 393.5,-504.923 393.5,-485.923 286.5,-485.923"/>
<text text-anchor="middle" x="340" y="-492.923" font-family="Helvetica,sans-Serif" font-size="10.00">ArrayList&lt; Node &gt;</text>
</g>
<!-- Node25&#45;&gt;Node1 -->
<g id="edge31" class="edge"><title>Node25&#45;&gt;Node1</title>
<path fill="none" stroke="#9a32cd" stroke-dasharray="5,2" d="M403.899,-496.45C453.077,-495.463 522.507,-490.081 580,-470.423 611.646,-459.603 643.763,-436.272 660.396,-423.06"/>
<polygon fill="#9a32cd" stroke="#9a32cd" points="403.673,-492.953 393.724,-496.598 403.774,-499.953 403.673,-492.953"/>
<text text-anchor="middle" x="510" y="-498.423" font-family="Helvetica,sans-Serif" font-size="10.00"> myAskScreenNodes</text>
</g>
</g>
</svg>
        <g id="navigator" transform="translate(0 0)" fill="#404254">
                <rect fill="#f2f5e9" fill-opacity="0.5" stroke="#606060" stroke-width=".5" x="0" y="0" width="60" height="60"/>
                <use id="zoomplus" xlink:href="#zoomPlus" x="17" y="9" onmousedown="handleZoom(evt,'in')"/>
                <use id="zoomminus" xlink:href="#zoomMin" x="42" y="9" onmousedown="handleZoom(evt,'out')"/>
                <use id="reset" xlink:href="#resetDef" x="30" y="36" onmousedown="handleReset()"/>
                <g id="arrowUp" xlink:href="#dirArrow" transform="translate(30 24)" onmousedown="handlePan(0,-1)">
                  <use xlink:href="#rim" fill="#404040">
                        <set attributeName="fill" to="#808080" begin="arrowUp.mouseover" end="arrowUp.mouseout"/>
                  </use>
                  <path fill="none" stroke="white" stroke-width="1.5" d="M0,-3.0v7 M-2.5,-0.5L0,-3.0L2.5,-0.5"/>
                </g>
                <g id="arrowRight" xlink:href="#dirArrow" transform="rotate(90) translate(36 -43)" onmousedown="handlePan(1,0)">
                  <use xlink:href="#rim" fill="#404040">
                        <set attributeName="fill" to="#808080" begin="arrowRight.mouseover" end="arrowRight.mouseout"/>
                  </use>
                  <path fill="none" stroke="white" stroke-width="1.5" d="M0,-3.0v7 M-2.5,-0.5L0,-3.0L2.5,-0.5"/>
                </g>
                <g id="arrowDown" xlink:href="#dirArrow" transform="rotate(180) translate(-30 -48)" onmousedown="handlePan(0,1)">
                  <use xlink:href="#rim" fill="#404040">
                        <set attributeName="fill" to="#808080" begin="arrowDown.mouseover" end="arrowDown.mouseout"/>
                  </use>
                  <path fill="none" stroke="white" stroke-width="1.5" d="M0,-3.0v7 M-2.5,-0.5L0,-3.0L2.5,-0.5"/>
                </g>
                <g id="arrowLeft" xlink:href="#dirArrow" transform="rotate(270) translate(-36 17)" onmousedown="handlePan(-1,0)">
                  <use xlink:href="#rim" fill="#404040">
                        <set attributeName="fill" to="#808080" begin="arrowLeft.mouseover" end="arrowLeft.mouseout"/>
                  </use>
                  <path fill="none" stroke="white" stroke-width="1.5" d="M0,-3.0v7 M-2.5,-0.5L0,-3.0L2.5,-0.5"/>
                </g>
        </g>
        <svg viewBox="0 0 15 15" width="100%" height="30px" preserveAspectRatio="xMaxYMin meet">
         <g id="arrow_out" transform="scale(0.3 0.3)">
          <a xlink:href="classview_1_1_splash_screen__coll__graph_org.svg" target="_base">
           <rect id="button" ry="5" rx="5" y="6" x="6" height="38" width="38"
                fill="#f2f5e9" fill-opacity="0.5" stroke="#606060" stroke-width="1.0"/>
           <path id="arrow"
             d="M 11.500037,31.436501 C 11.940474,20.09759 22.043105,11.32322 32.158766,21.979434 L 37.068811,17.246167 C 37.068811,17.246167 37.088388,32 37.088388,32 L 22.160133,31.978069 C 22.160133,31.978069 26.997745,27.140456 26.997745,27.140456 C 18.528582,18.264221 13.291696,25.230495 11.500037,31.436501 z"
             style="fill:#404040;"/>
          </a>
         </g>
        </svg>
</svg>
