<?xml version="1.0" encoding="UTF-8" standalone="no"?>
<!DOCTYPE svg PUBLIC "-//W3C//DTD SVG 1.1//EN"
 "http://www.w3.org/Graphics/SVG/1.1/DTD/svg11.dtd">
<!-- Generated by graphviz version 2.36.0 (20140111.2315)
 -->
<!-- Title: model.cells.FireCell Pages: 1 -->
<svg width="453pt" height="140pt"
 viewBox="0.00 0.00 453.00 140.00" xmlns="http://www.w3.org/2000/svg" xmlns:xlink="http://www.w3.org/1999/xlink">
<g id="graph0" class="graph" transform="scale(1 1) rotate(0) translate(4 136)">
<title>model.cells.FireCell</title>
<polygon fill="white" stroke="none" points="-4,4 -4,-136 449,-136 449,4 -4,4"/>
<!-- Node1 -->
<g id="node1" class="node"><title>Node1</title>
<polygon fill="#bfbfbf" stroke="black" points="177.5,-56.5 177.5,-75.5 284.5,-75.5 284.5,-56.5 177.5,-56.5"/>
<text text-anchor="middle" x="231" y="-63.5" font-family="Helvetica,sans-Serif" font-size="10.00">model.cells.FireCell</text>
</g>
<!-- Node3 -->
<g id="node3" class="node"><title>Node3</title>
<g id="a_node3"><a xlink:href="../../d1/d8f/classmodel_1_1cells_1_1_fire_cell_burning.html" target="_top" xlink:title="model.cells.FireCellBurning">
<polygon fill="white" stroke="black" points="0,-0.5 0,-19.5 144,-19.5 144,-0.5 0,-0.5"/>
<text text-anchor="middle" x="72" y="-7.5" font-family="Helvetica,sans-Serif" font-size="10.00">model.cells.FireCellBurning</text>
</a>
</g>
</g>
<!-- Node1&#45;&gt;Node3 -->
<g id="edge2" class="edge"><title>Node1&#45;&gt;Node3</title>
<path fill="none" stroke="midnightblue" d="M196.173,-53.172C166.234,-43.0039 123.779,-28.5852 97.0762,-19.5164"/>
<polygon fill="midnightblue" stroke="midnightblue" points="195.212,-56.5417 205.806,-56.4435 197.463,-49.9136 195.212,-56.5417"/>
</g>
<!-- Node4 -->
<g id="node4" class="node"><title>Node4</title>
<g id="a_node4"><a xlink:href="../../dc/d31/classmodel_1_1cells_1_1_fire_cell_empty.html" target="_top" xlink:title="model.cells.FireCellEmpty">
<polygon fill="white" stroke="black" points="162,-0.5 162,-19.5 300,-19.5 300,-0.5 162,-0.5"/>
<text text-anchor="middle" x="231" y="-7.5" font-family="Helvetica,sans-Serif" font-size="10.00">model.cells.FireCellEmpty</text>
</a>
</g>
</g>
<!-- Node1&#45;&gt;Node4 -->
<g id="edge3" class="edge"><title>Node1&#45;&gt;Node4</title>
<path fill="none" stroke="midnightblue" d="M231,-45.8045C231,-36.9102 231,-26.7798 231,-19.7511"/>
<polygon fill="midnightblue" stroke="midnightblue" points="227.5,-46.083 231,-56.083 234.5,-46.083 227.5,-46.083"/>
</g>
<!-- Node5 -->
<g id="node5" class="node"><title>Node5</title>
<g id="a_node5"><a xlink:href="../../dd/d69/classmodel_1_1cells_1_1_fire_cell_tree.html" target="_top" xlink:title="model.cells.FireCellTree">
<polygon fill="white" stroke="black" points="318.5,-0.5 318.5,-19.5 445.5,-19.5 445.5,-0.5 318.5,-0.5"/>
<text text-anchor="middle" x="382" y="-7.5" font-family="Helvetica,sans-Serif" font-size="10.00">model.cells.FireCellTree</text>
</a>
</g>
</g>
<!-- Node1&#45;&gt;Node5 -->
<g id="edge4" class="edge"><title>Node1&#45;&gt;Node5</title>
<path fill="none" stroke="midnightblue" d="M264.446,-53.0392C292.858,-42.8786 332.937,-28.5457 358.186,-19.5164"/>
<polygon fill="midnightblue" stroke="midnightblue" points="263.164,-49.7806 254.926,-56.4435 265.521,-56.3718 263.164,-49.7806"/>
</g>
<!-- Node2 -->
<g id="node2" class="node"><title>Node2</title>
<g id="a_node2"><a xlink:href="../../dc/d41/classmodel_1_1cells_1_1_cell.html" target="_top" xlink:title="model.cells.Cell">
<polygon fill="white" stroke="black" points="185.5,-112.5 185.5,-131.5 276.5,-131.5 276.5,-112.5 185.5,-112.5"/>
<text text-anchor="middle" x="231" y="-119.5" font-family="Helvetica,sans-Serif" font-size="10.00">model.cells.Cell</text>
</a>
</g>
</g>
<!-- Node2&#45;&gt;Node1 -->
<g id="edge1" class="edge"><title>Node2&#45;&gt;Node1</title>
<path fill="none" stroke="midnightblue" d="M231,-101.805C231,-92.9102 231,-82.7798 231,-75.7511"/>
<polygon fill="midnightblue" stroke="midnightblue" points="227.5,-102.083 231,-112.083 234.5,-102.083 227.5,-102.083"/>
</g>
</g>
</svg>
