<?xml version="1.0" encoding="UTF-8" standalone="no"?>
<!DOCTYPE svg PUBLIC "-//W3C//DTD SVG 1.1//EN"
 "http://www.w3.org/Graphics/SVG/1.1/DTD/svg11.dtd">
<!-- Generated by graphviz version 2.36.0 (20140111.2315)
 -->
<!-- Title: view.SplashScreen.getNode Pages: 1 -->
<!--zoomable 447 -->
<svg id="main" version="1.1" xmlns="http://www.w3.org/2000/svg" xmlns:xlink="http://www.w3.org/1999/xlink" xml:space="preserve" onload="init(evt)">
<style type="text/css"><![CDATA[
.edge:hover path { stroke: red; }
.edge:hover polygon { stroke: red; fill: red; }
]]></style>
<script type="text/javascript"><![CDATA[
var edges = document.getElementsByTagName('g');
if (edges && edges.length) {
  for (var i=0;i<edges.length;i++) {
    if (edges[i].id.substr(0,4)=='edge') {
      edges[i].setAttribute('class','edge');
    }
  }
}
]]></script>
        <defs>
                <circle id="rim" cx="0" cy="0" r="7"/>
                <circle id="rim2" cx="0" cy="0" r="3.5"/>
                <g id="zoomPlus">
                        <use xlink:href="#rim" fill="#404040">
                                <set attributeName="fill" to="#808080" begin="zoomplus.mouseover" end="zoomplus.mouseout"/>
                        </use>
                        <path d="M-4,0h8M0,-4v8" fill="none" stroke="white" stroke-width="1.5" pointer-events="none"/>
                </g>
                <g id="zoomMin">
                        <use xlink:href="#rim" fill="#404040">
                                <set attributeName="fill" to="#808080" begin="zoomminus.mouseover" end="zoomminus.mouseout"/>
                        </use>
                        <path d="M-4,0h8" fill="none" stroke="white" stroke-width="1.5" pointer-events="none"/>
                </g>
                <g id="dirArrow">
                        <path fill="none" stroke="white" stroke-width="1.5" d="M0,-3.0v7 M-2.5,-0.5L0,-3.0L2.5,-0.5"/>
                </g>
               <g id="resetDef">
                       <use xlink:href="#rim2" fill="#404040">
                               <set attributeName="fill" to="#808080" begin="reset.mouseover" end="reset.mouseout"/>
                       </use>
               </g>
        </defs>

<script type="text/javascript">
var viewWidth = 2008;
var viewHeight = 447;
var sectionId = 'dynsection-16';
</script>
<script xlink:href="../../svgpan.js"/>
<svg id="graph" class="graph">
<g id="viewport">
<title>view.SplashScreen.getNode</title>
<polygon fill="white" stroke="none" points="-4,4 -4,-443 2004,-443 2004,4 -4,4"/>
<!-- Node1 -->
<g id="node1" class="node"><title>Node1</title>
<polygon fill="#bfbfbf" stroke="black" points="0.5,-186.5 0.5,-205.5 149.5,-205.5 149.5,-186.5 0.5,-186.5"/>
<text text-anchor="middle" x="75" y="-193.5" font-family="Helvetica,sans-Serif" font-size="10.00">view.SplashScreen.getNode</text>
</g>
<!-- Node2 -->
<g id="node2" class="node"><title>Node2</title>
<g id="a_node2"><a xlink:href="../../dd/d02/classview_1_1_splash_screen.html#a652092fc5c5862cee4ff84bf231646ab" target="_top" xlink:title="view.SplashScreen.addLoad\lButton">
<polygon fill="white" stroke="black" points="198.5,-247 198.5,-277 347.5,-277 347.5,-247 198.5,-247"/>
<text text-anchor="start" x="206.5" y="-265" font-family="Helvetica,sans-Serif" font-size="10.00">view.SplashScreen.addLoad</text>
<text text-anchor="middle" x="273" y="-254" font-family="Helvetica,sans-Serif" font-size="10.00">Button</text>
</a>
</g>
</g>
<!-- Node1&#45;&gt;Node2 -->
<g id="edge1" class="edge"><title>Node1&#45;&gt;Node2</title>
<path fill="none" stroke="midnightblue" d="M100.283,-205.64C122.451,-214.299 156.206,-227.132 186,-237 193.081,-239.345 200.529,-241.69 207.957,-243.951"/>
<polygon fill="midnightblue" stroke="midnightblue" points="207.094,-247.346 217.678,-246.869 209.106,-240.642 207.094,-247.346"/>
</g>
<!-- Node20 -->
<g id="node20" class="node"><title>Node20</title>
<g id="a_node20"><a xlink:href="../../dd/d02/classview_1_1_splash_screen.html#ad94d9edd23f270a5f480fd54a06d72f3" target="_top" xlink:title="view.SplashScreen.addProbablity\lButton">
<polygon fill="white" stroke="black" points="186.5,-110 186.5,-140 359.5,-140 359.5,-110 186.5,-110"/>
<text text-anchor="start" x="194.5" y="-128" font-family="Helvetica,sans-Serif" font-size="10.00">view.SplashScreen.addProbablity</text>
<text text-anchor="middle" x="273" y="-117" font-family="Helvetica,sans-Serif" font-size="10.00">Button</text>
</a>
</g>
</g>
<!-- Node1&#45;&gt;Node20 -->
<g id="edge20" class="edge"><title>Node1&#45;&gt;Node20</title>
<path fill="none" stroke="midnightblue" d="M96.3596,-186.342C118.201,-176.209 154.064,-160.224 186,-149 191.854,-146.943 197.98,-144.942 204.151,-143.03"/>
<polygon fill="midnightblue" stroke="midnightblue" points="205.287,-146.343 213.85,-140.104 203.265,-139.641 205.287,-146.343"/>
</g>
<!-- Node33 -->
<g id="node33" class="node"><title>Node33</title>
<g id="a_node33"><a xlink:href="../../dd/d02/classview_1_1_splash_screen.html#a17ba24f5ed477a37ea527710e54d65c8" target="_top" xlink:title="view.SplashScreen.addRandom\lButton">
<polygon fill="white" stroke="black" points="190,-159 190,-189 356,-189 356,-159 190,-159"/>
<text text-anchor="start" x="198" y="-177" font-family="Helvetica,sans-Serif" font-size="10.00">view.SplashScreen.addRandom</text>
<text text-anchor="middle" x="273" y="-166" font-family="Helvetica,sans-Serif" font-size="10.00">Button</text>
</a>
</g>
</g>
<!-- Node1&#45;&gt;Node33 -->
<g id="edge36" class="edge"><title>Node1&#45;&gt;Node33</title>
<path fill="none" stroke="midnightblue" d="M149.541,-187.745C159.398,-186.639 169.609,-185.493 179.737,-184.356"/>
<polygon fill="midnightblue" stroke="midnightblue" points="180.275,-187.818 189.822,-183.224 179.494,-180.861 180.275,-187.818"/>
</g>
<!-- Node34 -->
<g id="node34" class="node"><title>Node34</title>
<g id="a_node34"><a xlink:href="../../dd/d02/classview_1_1_splash_screen.html#a0a9ccd223a5668611f7fbbae36ea0796" target="_top" xlink:title="view.SplashScreen.addTitle">
<polygon fill="white" stroke="black" points="200,-208.5 200,-227.5 346,-227.5 346,-208.5 200,-208.5"/>
<text text-anchor="middle" x="273" y="-215.5" font-family="Helvetica,sans-Serif" font-size="10.00">view.SplashScreen.addTitle</text>
</a>
</g>
</g>
<!-- Node1&#45;&gt;Node34 -->
<g id="edge39" class="edge"><title>Node1&#45;&gt;Node34</title>
<path fill="none" stroke="midnightblue" d="M149.541,-204.255C162.698,-205.731 176.483,-207.279 189.864,-208.781"/>
<polygon fill="midnightblue" stroke="midnightblue" points="189.671,-212.281 200,-209.918 190.452,-205.325 189.671,-212.281"/>
</g>
<!-- Node3 -->
<g id="node3" class="node"><title>Node3</title>
<g id="a_node3"><a xlink:href="../../dd/d02/classview_1_1_splash_screen.html#a329982556dc38c022b2b8c10347e34bd" target="_top" xlink:title="view.SplashScreen.formatNode">
<polygon fill="white" stroke="black" points="418,-186.5 418,-205.5 584,-205.5 584,-186.5 418,-186.5"/>
<text text-anchor="middle" x="501" y="-193.5" font-family="Helvetica,sans-Serif" font-size="10.00">view.SplashScreen.formatNode</text>
</a>
</g>
</g>
<!-- Node2&#45;&gt;Node3 -->
<g id="edge2" class="edge"><title>Node2&#45;&gt;Node3</title>
<path fill="none" stroke="midnightblue" d="M325.849,-246.946C337.109,-243.671 348.955,-240.223 360,-237 392.805,-227.428 429.921,-216.557 457.691,-208.414"/>
<polygon fill="midnightblue" stroke="midnightblue" points="458.863,-211.718 467.473,-205.546 456.893,-205.001 458.863,-211.718"/>
</g>
<!-- Node4 -->
<g id="node4" class="node"><title>Node4</title>
<g id="a_node4"><a xlink:href="../../d6/d7b/classcontroller_1_1_cell_society_controller.html#afbdf9a63e15a2bfa878dcfe5ed3ef6dc" target="_top" xlink:title="controller.CellSocietyController.transition\lToFileLoaderScreen">
<polygon fill="white" stroke="black" points="396,-285 396,-315 606,-315 606,-285 396,-285"/>
<text text-anchor="start" x="404" y="-303" font-family="Helvetica,sans-Serif" font-size="10.00">controller.CellSocietyController.transition</text>
<text text-anchor="middle" x="501" y="-292" font-family="Helvetica,sans-Serif" font-size="10.00">ToFileLoaderScreen</text>
</a>
</g>
</g>
<!-- Node2&#45;&gt;Node4 -->
<g id="edge3" class="edge"><title>Node2&#45;&gt;Node4</title>
<path fill="none" stroke="midnightblue" d="M347.688,-274.39C364.486,-277.214 382.608,-280.261 400.289,-283.234"/>
<polygon fill="midnightblue" stroke="midnightblue" points="400.194,-286.767 410.636,-284.974 401.355,-279.864 400.194,-286.767"/>
</g>
<!-- Node5 -->
<g id="node5" class="node"><title>Node5</title>
<g id="a_node5"><a xlink:href="../../d3/d0a/classview_1_1_file_loader_screen.html#a196dd45848fbdf09ac100c343b6515cd" target="_top" xlink:title="view.FileLoaderScreen.getFile">
<polygon fill="white" stroke="black" points="669.5,-290.5 669.5,-309.5 824.5,-309.5 824.5,-290.5 669.5,-290.5"/>
<text text-anchor="middle" x="747" y="-297.5" font-family="Helvetica,sans-Serif" font-size="10.00">view.FileLoaderScreen.getFile</text>
</a>
</g>
</g>
<!-- Node4&#45;&gt;Node5 -->
<g id="edge4" class="edge"><title>Node4&#45;&gt;Node5</title>
<path fill="none" stroke="midnightblue" d="M606.186,-300C623.943,-300 642.215,-300 659.453,-300"/>
<polygon fill="midnightblue" stroke="midnightblue" points="659.472,-303.5 669.472,-300 659.472,-296.5 659.472,-303.5"/>
</g>
<!-- Node7 -->
<g id="node7" class="node"><title>Node7</title>
<g id="a_node7"><a xlink:href="../../d3/d0a/classview_1_1_file_loader_screen.html#a32abcb410ad28199e0bfcdce0255715b" target="_top" xlink:title="view.FileLoaderScreen.getNode">
<polygon fill="white" stroke="black" points="664.5,-252.5 664.5,-271.5 829.5,-271.5 829.5,-252.5 664.5,-252.5"/>
<text text-anchor="middle" x="747" y="-259.5" font-family="Helvetica,sans-Serif" font-size="10.00">view.FileLoaderScreen.getNode</text>
</a>
</g>
</g>
<!-- Node4&#45;&gt;Node7 -->
<g id="edge6" class="edge"><title>Node4&#45;&gt;Node7</title>
<path fill="none" stroke="midnightblue" d="M598.435,-284.981C623.961,-281.006 651.05,-276.787 674.957,-273.064"/>
<polygon fill="midnightblue" stroke="midnightblue" points="675.652,-276.498 684.994,-271.501 674.575,-269.582 675.652,-276.498"/>
</g>
<!-- Node8 -->
<g id="node8" class="node"><title>Node8</title>
<g id="a_node8"><a xlink:href="../../d6/d7b/classcontroller_1_1_cell_society_controller.html#a643c7ac22f2822fa7e492dbf4267ed21" target="_top" xlink:title="controller.CellSocietyController.readXML">
<polygon fill="white" stroke="black" points="644,-331.5 644,-350.5 850,-350.5 850,-331.5 644,-331.5"/>
<text text-anchor="middle" x="747" y="-338.5" font-family="Helvetica,sans-Serif" font-size="10.00">controller.CellSocietyController.readXML</text>
</a>
</g>
</g>
<!-- Node4&#45;&gt;Node8 -->
<g id="edge7" class="edge"><title>Node4&#45;&gt;Node8</title>
<path fill="none" stroke="midnightblue" d="M606.186,-310.821C641.791,-316.545 679.465,-323.398 706.723,-329.282"/>
<polygon fill="midnightblue" stroke="midnightblue" points="706.113,-332.732 716.634,-331.485 707.632,-325.898 706.113,-332.732"/>
</g>
<!-- Node6 -->
<g id="node6" class="node"><title>Node6</title>
<g id="a_node6"><a xlink:href="../../d3/d0a/classview_1_1_file_loader_screen.html#a97d7c0b9dc021069c17e7f778398f41e" target="_top" xlink:title="view.FileLoaderScreen.configure\lFileChooser">
<polygon fill="white" stroke="black" points="909,-282 909,-312 1077,-312 1077,-282 909,-282"/>
<text text-anchor="start" x="917" y="-300" font-family="Helvetica,sans-Serif" font-size="10.00">view.FileLoaderScreen.configure</text>
<text text-anchor="middle" x="993" y="-289" font-family="Helvetica,sans-Serif" font-size="10.00">FileChooser</text>
</a>
</g>
</g>
<!-- Node5&#45;&gt;Node6 -->
<g id="edge5" class="edge"><title>Node5&#45;&gt;Node6</title>
<path fill="none" stroke="midnightblue" d="M824.534,-299.059C848.118,-298.769 874.348,-298.447 898.918,-298.144"/>
<polygon fill="midnightblue" stroke="midnightblue" points="899.011,-301.644 908.967,-298.021 898.925,-294.644 899.011,-301.644"/>
</g>
<!-- Node8&#45;&gt;Node4 -->
<g id="edge10" class="edge"><title>Node8&#45;&gt;Node4</title>
<path fill="none" stroke="midnightblue" d="M649.925,-331.469C622.102,-327.093 592.392,-321.911 566.953,-316.96"/>
<polygon fill="midnightblue" stroke="midnightblue" points="567.552,-313.511 557.063,-315.003 566.193,-320.378 567.552,-313.511"/>
</g>
<!-- Node9 -->
<g id="node9" class="node"><title>Node9</title>
<g id="a_node9"><a xlink:href="../../dc/d47/classcontroller_1_1_x_m_l_parser.html#a841cf5fa54e30325a444ba24fa26c50e" target="_top" xlink:title="controller.XMLParser.getGrid">
<polygon fill="white" stroke="black" points="917.5,-419.5 917.5,-438.5 1068.5,-438.5 1068.5,-419.5 917.5,-419.5"/>
<text text-anchor="middle" x="993" y="-426.5" font-family="Helvetica,sans-Serif" font-size="10.00">controller.XMLParser.getGrid</text>
</a>
</g>
</g>
<!-- Node8&#45;&gt;Node9 -->
<g id="edge8" class="edge"><title>Node8&#45;&gt;Node9</title>
<path fill="none" stroke="midnightblue" d="M764.213,-350.628C789.7,-365.352 841.079,-393.395 888,-409 897.652,-412.21 907.988,-414.966 918.264,-417.316"/>
<polygon fill="midnightblue" stroke="midnightblue" points="917.557,-420.744 928.072,-419.445 919.042,-413.903 917.557,-420.744"/>
</g>
<!-- Node10 -->
<g id="node10" class="node"><title>Node10</title>
<g id="a_node10"><a xlink:href="../../dc/d47/classcontroller_1_1_x_m_l_parser.html#a0ebd2f6df311d0e2f9f0cd7969ecbe73" target="_top" xlink:title="controller.XMLParser.get\lParameters">
<polygon fill="white" stroke="black" points="927.5,-370 927.5,-400 1058.5,-400 1058.5,-370 927.5,-370"/>
<text text-anchor="start" x="935.5" y="-388" font-family="Helvetica,sans-Serif" font-size="10.00">controller.XMLParser.get</text>
<text text-anchor="middle" x="993" y="-377" font-family="Helvetica,sans-Serif" font-size="10.00">Parameters</text>
</a>
</g>
</g>
<!-- Node8&#45;&gt;Node10 -->
<g id="edge9" class="edge"><title>Node8&#45;&gt;Node10</title>
<path fill="none" stroke="midnightblue" d="M800.944,-350.547C835.04,-356.696 879.866,-364.779 917.528,-371.571"/>
<polygon fill="midnightblue" stroke="midnightblue" points="916.978,-375.028 927.44,-373.358 918.22,-368.139 916.978,-375.028"/>
</g>
<!-- Node11 -->
<g id="node11" class="node"><title>Node11</title>
<g id="a_node11"><a xlink:href="../../d6/d7b/classcontroller_1_1_cell_society_controller.html#a3d913ad3344ac48e887110e2fabb5746" target="_top" xlink:title="controller.CellSocietyController.transition\lToSimulation">
<polygon fill="white" stroke="black" points="1134,-238 1134,-268 1344,-268 1344,-238 1134,-238"/>
<text text-anchor="start" x="1142" y="-256" font-family="Helvetica,sans-Serif" font-size="10.00">controller.CellSocietyController.transition</text>
<text text-anchor="middle" x="1239" y="-245" font-family="Helvetica,sans-Serif" font-size="10.00">ToSimulation</text>
</a>
</g>
</g>
<!-- Node8&#45;&gt;Node11 -->
<g id="edge11" class="edge"><title>Node8&#45;&gt;Node11</title>
<path fill="none" stroke="midnightblue" d="M850.341,-345.65C921.016,-346.329 1016.57,-342.194 1098,-321 1137,-310.85 1178.07,-289.447 1205.57,-273.348"/>
<polygon fill="midnightblue" stroke="midnightblue" points="1207.55,-276.241 1214.35,-268.115 1203.97,-270.227 1207.55,-276.241"/>
</g>
<!-- Node12 -->
<g id="node12" class="node"><title>Node12</title>
<g id="a_node12"><a xlink:href="../../d6/d7b/classcontroller_1_1_cell_society_controller.html#a8af25de87ececa5ca913e7b5af486b3f" target="_top" xlink:title="controller.CellSocietyController.initialize\lSimulation">
<polygon fill="white" stroke="black" points="1380.5,-287 1380.5,-317 1583.5,-317 1583.5,-287 1380.5,-287"/>
<text text-anchor="start" x="1388.5" y="-305" font-family="Helvetica,sans-Serif" font-size="10.00">controller.CellSocietyController.initialize</text>
<text text-anchor="middle" x="1482" y="-294" font-family="Helvetica,sans-Serif" font-size="10.00">Simulation</text>
</a>
</g>
</g>
<!-- Node11&#45;&gt;Node12 -->
<g id="edge12" class="edge"><title>Node11&#45;&gt;Node12</title>
<path fill="none" stroke="midnightblue" d="M1313.95,-268.035C1340.32,-273.396 1370.2,-279.473 1397.33,-284.989"/>
<polygon fill="midnightblue" stroke="midnightblue" points="1396.7,-288.431 1407.19,-286.994 1398.09,-281.571 1396.7,-288.431"/>
</g>
<!-- Node13 -->
<g id="node13" class="node"><title>Node13</title>
<g id="a_node13"><a xlink:href="../../d6/d7b/classcontroller_1_1_cell_society_controller.html#af6b4eb647c4e76fef6f27cc61ced4d9a" target="_top" xlink:title="controller.CellSocietyController.initialize\lSimulationScreen">
<polygon fill="white" stroke="black" points="1380.5,-238 1380.5,-268 1583.5,-268 1583.5,-238 1380.5,-238"/>
<text text-anchor="start" x="1388.5" y="-256" font-family="Helvetica,sans-Serif" font-size="10.00">controller.CellSocietyController.initialize</text>
<text text-anchor="middle" x="1482" y="-245" font-family="Helvetica,sans-Serif" font-size="10.00">SimulationScreen</text>
</a>
</g>
</g>
<!-- Node11&#45;&gt;Node13 -->
<g id="edge13" class="edge"><title>Node11&#45;&gt;Node13</title>
<path fill="none" stroke="midnightblue" d="M1344.3,-253C1352.9,-253 1361.61,-253 1370.25,-253"/>
<polygon fill="midnightblue" stroke="midnightblue" points="1370.35,-256.5 1380.35,-253 1370.35,-249.5 1370.35,-256.5"/>
</g>
<!-- Node17 -->
<g id="node17" class="node"><title>Node17</title>
<g id="a_node17"><a xlink:href="../../d6/d7b/classcontroller_1_1_cell_society_controller.html#a7609d9a174ff7d2d00fc27e3574cdb21" target="_top" xlink:title="controller.CellSocietyController.stop\lOrStart">
<polygon fill="white" stroke="black" points="1389,-189 1389,-219 1575,-219 1575,-189 1389,-189"/>
<text text-anchor="start" x="1397" y="-207" font-family="Helvetica,sans-Serif" font-size="10.00">controller.CellSocietyController.stop</text>
<text text-anchor="middle" x="1482" y="-196" font-family="Helvetica,sans-Serif" font-size="10.00">OrStart</text>
</a>
</g>
</g>
<!-- Node11&#45;&gt;Node17 -->
<g id="edge17" class="edge"><title>Node11&#45;&gt;Node17</title>
<path fill="none" stroke="midnightblue" d="M1313.95,-237.965C1340.32,-232.604 1370.2,-226.527 1397.33,-221.011"/>
<polygon fill="midnightblue" stroke="midnightblue" points="1398.09,-224.429 1407.19,-219.006 1396.7,-217.569 1398.09,-224.429"/>
</g>
<!-- Node14 -->
<g id="node14" class="node"><title>Node14</title>
<g id="a_node14"><a xlink:href="../../d1/d3e/classview_1_1_simulation_screen.html#a482a021910f4b997fb7b798bdc363df4" target="_top" xlink:title="view.SimulationScreen.getNode">
<polygon fill="white" stroke="black" points="1635,-287.5 1635,-306.5 1803,-306.5 1803,-287.5 1635,-287.5"/>
<text text-anchor="middle" x="1719" y="-294.5" font-family="Helvetica,sans-Serif" font-size="10.00">view.SimulationScreen.getNode</text>
</a>
</g>
</g>
<!-- Node13&#45;&gt;Node14 -->
<g id="edge14" class="edge"><title>Node13&#45;&gt;Node14</title>
<path fill="none" stroke="midnightblue" d="M1563.22,-268.019C1594.02,-273.787 1628.64,-280.269 1657.32,-285.638"/>
<polygon fill="midnightblue" stroke="midnightblue" points="1656.72,-289.087 1667.2,-287.488 1658.01,-282.207 1656.72,-289.087"/>
</g>
<!-- Node15 -->
<g id="node15" class="node"><title>Node15</title>
<g id="a_node15"><a xlink:href="../../d1/d3e/classview_1_1_simulation_screen.html#a6c9f5c7e36be620d06e55709bc256d18" target="_top" xlink:title="view.SimulationScreen.init\lSimScreen">
<polygon fill="white" stroke="black" points="1648.5,-238 1648.5,-268 1789.5,-268 1789.5,-238 1648.5,-238"/>
<text text-anchor="start" x="1656.5" y="-256" font-family="Helvetica,sans-Serif" font-size="10.00">view.SimulationScreen.init</text>
<text text-anchor="middle" x="1719" y="-245" font-family="Helvetica,sans-Serif" font-size="10.00">SimScreen</text>
</a>
</g>
</g>
<!-- Node13&#45;&gt;Node15 -->
<g id="edge15" class="edge"><title>Node13&#45;&gt;Node15</title>
<path fill="none" stroke="midnightblue" d="M1583.68,-253C1601.91,-253 1620.68,-253 1638.21,-253"/>
<polygon fill="midnightblue" stroke="midnightblue" points="1638.37,-256.5 1648.37,-253 1638.37,-249.5 1638.37,-256.5"/>
</g>
<!-- Node16 -->
<g id="node16" class="node"><title>Node16</title>
<g id="a_node16"><a xlink:href="../../d1/d3e/classview_1_1_simulation_screen.html#a7144a80861195f360ade7612b479ff3e" target="_top" xlink:title="view.SimulationScreen.add\lButtons">
<polygon fill="white" stroke="black" points="1854.5,-238 1854.5,-268 1999.5,-268 1999.5,-238 1854.5,-238"/>
<text text-anchor="start" x="1862.5" y="-256" font-family="Helvetica,sans-Serif" font-size="10.00">view.SimulationScreen.add</text>
<text text-anchor="middle" x="1927" y="-245" font-family="Helvetica,sans-Serif" font-size="10.00">Buttons</text>
</a>
</g>
</g>
<!-- Node15&#45;&gt;Node16 -->
<g id="edge16" class="edge"><title>Node15&#45;&gt;Node16</title>
<path fill="none" stroke="midnightblue" d="M1789.74,-253C1807.19,-253 1826.07,-253 1844.05,-253"/>
<polygon fill="midnightblue" stroke="midnightblue" points="1844.22,-256.5 1854.22,-253 1844.22,-249.5 1844.22,-256.5"/>
</g>
<!-- Node18 -->
<g id="node18" class="node"><title>Node18</title>
<g id="a_node18"><a xlink:href="../../d6/d7b/classcontroller_1_1_cell_society_controller.html#a33e7a77467ceeb880526a1b405b3ee79" target="_top" xlink:title="controller.CellSocietyController.pause\lSimulation">
<polygon fill="white" stroke="black" points="1622,-189 1622,-219 1816,-219 1816,-189 1622,-189"/>
<text text-anchor="start" x="1630" y="-207" font-family="Helvetica,sans-Serif" font-size="10.00">controller.CellSocietyController.pause</text>
<text text-anchor="middle" x="1719" y="-196" font-family="Helvetica,sans-Serif" font-size="10.00">Simulation</text>
</a>
</g>
</g>
<!-- Node17&#45;&gt;Node18 -->
<g id="edge18" class="edge"><title>Node17&#45;&gt;Node18</title>
<path fill="none" stroke="midnightblue" d="M1575.2,-204C1587.16,-204 1599.48,-204 1611.64,-204"/>
<polygon fill="midnightblue" stroke="midnightblue" points="1611.81,-207.5 1621.81,-204 1611.81,-200.5 1611.81,-207.5"/>
</g>
<!-- Node19 -->
<g id="node19" class="node"><title>Node19</title>
<g id="a_node19"><a xlink:href="../../d6/d7b/classcontroller_1_1_cell_society_controller.html#aec38c45810ee2665fe01832114fbc68d" target="_top" xlink:title="controller.CellSocietyController.restart\lSimulation">
<polygon fill="white" stroke="black" points="1620.5,-140 1620.5,-170 1817.5,-170 1817.5,-140 1620.5,-140"/>
<text text-anchor="start" x="1628.5" y="-158" font-family="Helvetica,sans-Serif" font-size="10.00">controller.CellSocietyController.restart</text>
<text text-anchor="middle" x="1719" y="-147" font-family="Helvetica,sans-Serif" font-size="10.00">Simulation</text>
</a>
</g>
</g>
<!-- Node17&#45;&gt;Node19 -->
<g id="edge19" class="edge"><title>Node17&#45;&gt;Node19</title>
<path fill="none" stroke="midnightblue" d="M1555.1,-188.965C1580.71,-183.627 1609.71,-177.58 1636.07,-172.083"/>
<polygon fill="midnightblue" stroke="midnightblue" points="1636.96,-175.474 1646.03,-170.006 1635.53,-168.621 1636.96,-175.474"/>
</g>
<!-- Node20&#45;&gt;Node3 -->
<g id="edge35" class="edge"><title>Node20&#45;&gt;Node3</title>
<path fill="none" stroke="midnightblue" d="M329.638,-140.073C339.767,-142.946 350.22,-145.996 360,-149 395.252,-159.828 435.087,-173.326 463.226,-183.075"/>
<polygon fill="midnightblue" stroke="midnightblue" points="462.439,-186.507 473.034,-186.485 464.738,-179.895 462.439,-186.507"/>
</g>
<!-- Node21 -->
<g id="node21" class="node"><title>Node21</title>
<g id="a_node21"><a xlink:href="../../dd/d02/classview_1_1_splash_screen.html#a2f8c52e9a2a790459e51d5d42f16f7da" target="_top" xlink:title="view.SplashScreen.display\lAskInformatio">
<polygon fill="white" stroke="black" points="430.5,-110 430.5,-140 571.5,-140 571.5,-110 430.5,-110"/>
<text text-anchor="start" x="438.5" y="-128" font-family="Helvetica,sans-Serif" font-size="10.00">view.SplashScreen.display</text>
<text text-anchor="middle" x="501" y="-117" font-family="Helvetica,sans-Serif" font-size="10.00">AskInformatio</text>
</a>
</g>
</g>
<!-- Node20&#45;&gt;Node21 -->
<g id="edge21" class="edge"><title>Node20&#45;&gt;Node21</title>
<path fill="none" stroke="midnightblue" d="M359.763,-125C379.648,-125 400.729,-125 420.339,-125"/>
<polygon fill="midnightblue" stroke="midnightblue" points="420.445,-128.5 430.445,-125 420.445,-121.5 420.445,-128.5"/>
</g>
<!-- Node22 -->
<g id="node22" class="node"><title>Node22</title>
<g id="a_node22"><a xlink:href="../../dd/d02/classview_1_1_splash_screen.html#ae484c2f05f910335ffacddd236eb4908" target="_top" xlink:title="view.SplashScreen.addDimensionsText">
<polygon fill="white" stroke="black" points="646.5,-0.5 646.5,-19.5 847.5,-19.5 847.5,-0.5 646.5,-0.5"/>
<text text-anchor="middle" x="747" y="-7.5" font-family="Helvetica,sans-Serif" font-size="10.00">view.SplashScreen.addDimensionsText</text>
</a>
</g>
</g>
<!-- Node21&#45;&gt;Node22 -->
<g id="edge22" class="edge"><title>Node21&#45;&gt;Node22</title>
<path fill="none" stroke="midnightblue" d="M518.722,-109.985C543.665,-88.4616 592.954,-49.2116 642,-29 648.328,-26.3923 655.019,-24.1412 661.833,-22.198"/>
<polygon fill="midnightblue" stroke="midnightblue" points="663.091,-25.4867 671.877,-19.5659 661.316,-18.7154 663.091,-25.4867"/>
</g>
<!-- Node23 -->
<g id="node23" class="node"><title>Node23</title>
<g id="a_node23"><a xlink:href="../../dd/d02/classview_1_1_splash_screen.html#a05478a56856d70fd9508d79ca484fbca" target="_top" xlink:title="view.SplashScreen.addProbabilityText">
<polygon fill="white" stroke="black" points="650,-137.5 650,-156.5 844,-156.5 844,-137.5 650,-137.5"/>
<text text-anchor="middle" x="747" y="-144.5" font-family="Helvetica,sans-Serif" font-size="10.00">view.SplashScreen.addProbabilityText</text>
</a>
</g>
</g>
<!-- Node21&#45;&gt;Node23 -->
<g id="edge23" class="edge"><title>Node21&#45;&gt;Node23</title>
<path fill="none" stroke="midnightblue" d="M571.594,-131.275C592.821,-133.189 616.662,-135.338 639.739,-137.419"/>
<polygon fill="midnightblue" stroke="midnightblue" points="639.649,-140.925 649.923,-138.337 640.277,-133.953 639.649,-140.925"/>
</g>
<!-- Node28 -->
<g id="node28" class="node"><title>Node28</title>
<g id="a_node28"><a xlink:href="../../dd/d02/classview_1_1_splash_screen.html#ae4427d4a548843b069b35328182187fa" target="_top" xlink:title="view.SplashScreen.addSimulation\lNameText">
<polygon fill="white" stroke="black" points="658.5,-88 658.5,-118 835.5,-118 835.5,-88 658.5,-88"/>
<text text-anchor="start" x="666.5" y="-106" font-family="Helvetica,sans-Serif" font-size="10.00">view.SplashScreen.addSimulation</text>
<text text-anchor="middle" x="747" y="-95" font-family="Helvetica,sans-Serif" font-size="10.00">NameText</text>
</a>
</g>
</g>
<!-- Node21&#45;&gt;Node28 -->
<g id="edge29" class="edge"><title>Node21&#45;&gt;Node28</title>
<path fill="none" stroke="midnightblue" d="M571.594,-118.725C595.47,-116.572 622.651,-114.122 648.334,-111.806"/>
<polygon fill="midnightblue" stroke="midnightblue" points="648.825,-115.276 658.47,-110.892 648.197,-108.304 648.825,-115.276"/>
</g>
<!-- Node29 -->
<g id="node29" class="node"><title>Node29</title>
<g id="a_node29"><a xlink:href="../../d6/d7b/classcontroller_1_1_cell_society_controller.html#ab65a8810efbc2b92e17ca77cdc591df9" target="_top" xlink:title="controller.CellSocietyController.generate\lRandomGrid">
<polygon fill="white" stroke="black" points="642.5,-178 642.5,-208 851.5,-208 851.5,-178 642.5,-178"/>
<text text-anchor="start" x="650.5" y="-196" font-family="Helvetica,sans-Serif" font-size="10.00">controller.CellSocietyController.generate</text>
<text text-anchor="middle" x="747" y="-185" font-family="Helvetica,sans-Serif" font-size="10.00">RandomGrid</text>
</a>
</g>
</g>
<!-- Node21&#45;&gt;Node29 -->
<g id="edge30" class="edge"><title>Node21&#45;&gt;Node29</title>
<path fill="none" stroke="midnightblue" d="M552.111,-140.083C578.753,-147.998 612.095,-157.741 642,-166 653.308,-169.123 665.337,-172.341 677.05,-175.419"/>
<polygon fill="midnightblue" stroke="midnightblue" points="676.231,-178.823 686.792,-177.966 678.002,-172.05 676.231,-178.823"/>
</g>
<!-- Node32 -->
<g id="node32" class="node"><title>Node32</title>
<g id="a_node32"><a xlink:href="../../dd/d02/classview_1_1_splash_screen.html#ab75deddb521d5727122eec02161acc9d" target="_top" xlink:title="view.SplashScreen.remove\lButtons">
<polygon fill="white" stroke="black" points="674.5,-39 674.5,-69 819.5,-69 819.5,-39 674.5,-39"/>
<text text-anchor="start" x="682.5" y="-57" font-family="Helvetica,sans-Serif" font-size="10.00">view.SplashScreen.remove</text>
<text text-anchor="middle" x="747" y="-46" font-family="Helvetica,sans-Serif" font-size="10.00">Buttons</text>
</a>
</g>
</g>
<!-- Node21&#45;&gt;Node32 -->
<g id="edge34" class="edge"><title>Node21&#45;&gt;Node32</title>
<path fill="none" stroke="midnightblue" d="M543.327,-109.949C571.03,-100.152 608.445,-87.48 642,-78 650.011,-75.7369 658.412,-73.529 666.821,-71.4266"/>
<polygon fill="midnightblue" stroke="midnightblue" points="667.794,-74.7918 676.672,-69.0101 666.126,-67.9933 667.794,-74.7918"/>
</g>
<!-- Node24 -->
<g id="node24" class="node"><title>Node24</title>
<g id="a_node24"><a xlink:href="../../d6/d7b/classcontroller_1_1_cell_society_controller.html#ada30fdc135cdf08b93065edf15ed3fcc" target="_top" xlink:title="controller.CellSocietyController.generate\lProbabilityRandomGrid">
<polygon fill="white" stroke="black" points="888.5,-58 888.5,-88 1097.5,-88 1097.5,-58 888.5,-58"/>
<text text-anchor="start" x="896.5" y="-76" font-family="Helvetica,sans-Serif" font-size="10.00">controller.CellSocietyController.generate</text>
<text text-anchor="middle" x="993" y="-65" font-family="Helvetica,sans-Serif" font-size="10.00">ProbabilityRandomGrid</text>
</a>
</g>
</g>
<!-- Node23&#45;&gt;Node24 -->
<g id="edge24" class="edge"><title>Node23&#45;&gt;Node24</title>
<path fill="none" stroke="midnightblue" d="M822.484,-137.451C832.666,-134.783 842.778,-131.368 852,-127 870.823,-118.084 869.345,-106.261 888,-97 892.03,-94.9994 896.231,-93.1625 900.535,-91.476"/>
<polygon fill="midnightblue" stroke="midnightblue" points="901.879,-94.7117 910.093,-88.0196 899.499,-88.1289 901.879,-94.7117"/>
</g>
<!-- Node27 -->
<g id="node27" class="node"><title>Node27</title>
<g id="a_node27"><a xlink:href="../../dd/d02/classview_1_1_splash_screen.html#a1e747e968477f14fbd6d6cd4a508e008" target="_top" xlink:title="view.SplashScreen.remove\lAskScreenNodes">
<polygon fill="white" stroke="black" points="920.5,-107 920.5,-137 1065.5,-137 1065.5,-107 920.5,-107"/>
<text text-anchor="start" x="928.5" y="-125" font-family="Helvetica,sans-Serif" font-size="10.00">view.SplashScreen.remove</text>
<text text-anchor="middle" x="993" y="-114" font-family="Helvetica,sans-Serif" font-size="10.00">AskScreenNodes</text>
</a>
</g>
</g>
<!-- Node23&#45;&gt;Node27 -->
<g id="edge28" class="edge"><title>Node23&#45;&gt;Node27</title>
<path fill="none" stroke="midnightblue" d="M840.942,-137.477C863.716,-135.144 887.924,-132.663 910.135,-130.388"/>
<polygon fill="midnightblue" stroke="midnightblue" points="910.596,-133.859 920.188,-129.358 909.883,-126.895 910.596,-133.859"/>
</g>
<!-- Node24&#45;&gt;Node11 -->
<g id="edge27" class="edge"><title>Node24&#45;&gt;Node11</title>
<path fill="none" stroke="midnightblue" d="M1079.41,-88.0946C1085.9,-90.6178 1092.18,-93.5628 1098,-97 1154.68,-130.444 1201.14,-194.483 1223.54,-229.204"/>
<polygon fill="midnightblue" stroke="midnightblue" points="1220.65,-231.188 1228.96,-237.767 1226.57,-227.445 1220.65,-231.188"/>
</g>
<!-- Node25 -->
<g id="node25" class="node"><title>Node25</title>
<g id="a_node25"><a xlink:href="../../d3/dc8/classcontroller_1_1_probability_sim_generator.html#a66a18a40b330a1650ff804385ed3abc2" target="_top" xlink:title="controller.ProbabilitySim\lGenerator.getGrid">
<polygon fill="white" stroke="black" points="1173,-34 1173,-64 1305,-64 1305,-34 1173,-34"/>
<text text-anchor="start" x="1181" y="-52" font-family="Helvetica,sans-Serif" font-size="10.00">controller.ProbabilitySim</text>
<text text-anchor="middle" x="1239" y="-41" font-family="Helvetica,sans-Serif" font-size="10.00">Generator.getGrid</text>
</a>
</g>
</g>
<!-- Node24&#45;&gt;Node25 -->
<g id="edge25" class="edge"><title>Node24&#45;&gt;Node25</title>
<path fill="none" stroke="midnightblue" d="M1097.83,-62.787C1119.58,-60.6478 1142.12,-58.4312 1162.59,-56.4171"/>
<polygon fill="midnightblue" stroke="midnightblue" points="1163.17,-59.8772 1172.78,-55.4151 1162.49,-52.9108 1163.17,-59.8772"/>
</g>
<!-- Node26 -->
<g id="node26" class="node"><title>Node26</title>
<g id="a_node26"><a xlink:href="../../d3/dc8/classcontroller_1_1_probability_sim_generator.html#aa5aa2ef09d94ff11c6912b34fafa1d4a" target="_top" xlink:title="controller.ProbabilitySim\lGenerator.getParameters">
<polygon fill="white" stroke="black" points="1169.5,-83 1169.5,-113 1308.5,-113 1308.5,-83 1169.5,-83"/>
<text text-anchor="start" x="1177.5" y="-101" font-family="Helvetica,sans-Serif" font-size="10.00">controller.ProbabilitySim</text>
<text text-anchor="middle" x="1239" y="-90" font-family="Helvetica,sans-Serif" font-size="10.00">Generator.getParameters</text>
</a>
</g>
</g>
<!-- Node24&#45;&gt;Node26 -->
<g id="edge26" class="edge"><title>Node24&#45;&gt;Node26</title>
<path fill="none" stroke="midnightblue" d="M1097.83,-83.6385C1118.38,-85.7435 1139.62,-87.9205 1159.17,-89.9235"/>
<polygon fill="midnightblue" stroke="midnightblue" points="1158.92,-93.4163 1169.23,-90.9538 1159.64,-86.4527 1158.92,-93.4163"/>
</g>
<!-- Node29&#45;&gt;Node11 -->
<g id="edge33" class="edge"><title>Node29&#45;&gt;Node11</title>
<path fill="none" stroke="midnightblue" d="M789.984,-208.055C817.485,-217.226 854.425,-228.252 888,-234 965.876,-247.333 1054.79,-252.029 1123.51,-253.419"/>
<polygon fill="midnightblue" stroke="midnightblue" points="1123.86,-256.926 1133.93,-253.608 1123.99,-249.927 1123.86,-256.926"/>
</g>
<!-- Node30 -->
<g id="node30" class="node"><title>Node30</title>
<g id="a_node30"><a xlink:href="../../d4/d2d/classcontroller_1_1_random_sim_generator.html#a807ccd4617ee16b3f28aadfa544c42cb" target="_top" xlink:title="controller.RandomSimGenerator.getGrid">
<polygon fill="white" stroke="black" points="888.5,-205.5 888.5,-224.5 1097.5,-224.5 1097.5,-205.5 888.5,-205.5"/>
<text text-anchor="middle" x="993" y="-212.5" font-family="Helvetica,sans-Serif" font-size="10.00">controller.RandomSimGenerator.getGrid</text>
</a>
</g>
</g>
<!-- Node29&#45;&gt;Node30 -->
<g id="edge31" class="edge"><title>Node29&#45;&gt;Node30</title>
<path fill="none" stroke="midnightblue" d="M851.832,-202.362C860.502,-203.144 869.297,-203.937 878.038,-204.725"/>
<polygon fill="midnightblue" stroke="midnightblue" points="877.988,-208.234 888.262,-205.647 878.616,-201.263 877.988,-208.234"/>
</g>
<!-- Node31 -->
<g id="node31" class="node"><title>Node31</title>
<g id="a_node31"><a xlink:href="../../d4/d2d/classcontroller_1_1_random_sim_generator.html#a93fd8f4276dc3a0271fe51b37664f77a" target="_top" xlink:title="controller.RandomSimGenerator.get\lParameters">
<polygon fill="white" stroke="black" points="898.5,-156 898.5,-186 1087.5,-186 1087.5,-156 898.5,-156"/>
<text text-anchor="start" x="906.5" y="-174" font-family="Helvetica,sans-Serif" font-size="10.00">controller.RandomSimGenerator.get</text>
<text text-anchor="middle" x="993" y="-163" font-family="Helvetica,sans-Serif" font-size="10.00">Parameters</text>
</a>
</g>
</g>
<!-- Node29&#45;&gt;Node31 -->
<g id="edge32" class="edge"><title>Node29&#45;&gt;Node31</title>
<path fill="none" stroke="midnightblue" d="M851.832,-183.638C863.891,-182.551 876.192,-181.442 888.249,-180.355"/>
<polygon fill="midnightblue" stroke="midnightblue" points="888.665,-183.831 898.31,-179.447 888.036,-176.86 888.665,-183.831"/>
</g>
<!-- Node33&#45;&gt;Node3 -->
<g id="edge38" class="edge"><title>Node33&#45;&gt;Node3</title>
<path fill="none" stroke="midnightblue" d="M356.231,-182.005C373.005,-183.638 390.76,-185.366 407.854,-187.03"/>
<polygon fill="midnightblue" stroke="midnightblue" points="407.539,-190.516 417.831,-188.001 408.217,-183.549 407.539,-190.516"/>
</g>
<!-- Node33&#45;&gt;Node21 -->
<g id="edge37" class="edge"><title>Node33&#45;&gt;Node21</title>
<path fill="none" stroke="midnightblue" d="M343.343,-158.965C367.857,-153.651 395.609,-147.633 420.872,-142.156"/>
<polygon fill="midnightblue" stroke="midnightblue" points="421.757,-145.546 430.788,-140.006 420.273,-138.705 421.757,-145.546"/>
</g>
<!-- Node34&#45;&gt;Node3 -->
<g id="edge40" class="edge"><title>Node34&#45;&gt;Node3</title>
<path fill="none" stroke="midnightblue" d="M346.129,-210.979C365.779,-209.066 387.334,-206.967 407.928,-204.963"/>
<polygon fill="midnightblue" stroke="midnightblue" points="408.334,-208.44 417.948,-203.987 407.656,-201.473 408.334,-208.44"/>
</g>
</g>
</svg>
        <g id="navigator" transform="translate(0 0)" fill="#404254">
                <rect fill="#f2f5e9" fill-opacity="0.5" stroke="#606060" stroke-width=".5" x="0" y="0" width="60" height="60"/>
                <use id="zoomplus" xlink:href="#zoomPlus" x="17" y="9" onmousedown="handleZoom(evt,'in')"/>
                <use id="zoomminus" xlink:href="#zoomMin" x="42" y="9" onmousedown="handleZoom(evt,'out')"/>
                <use id="reset" xlink:href="#resetDef" x="30" y="36" onmousedown="handleReset()"/>
                <g id="arrowUp" xlink:href="#dirArrow" transform="translate(30 24)" onmousedown="handlePan(0,-1)">
                  <use xlink:href="#rim" fill="#404040">
                        <set attributeName="fill" to="#808080" begin="arrowUp.mouseover" end="arrowUp.mouseout"/>
                  </use>
                  <path fill="none" stroke="white" stroke-width="1.5" d="M0,-3.0v7 M-2.5,-0.5L0,-3.0L2.5,-0.5"/>
                </g>
                <g id="arrowRight" xlink:href="#dirArrow" transform="rotate(90) translate(36 -43)" onmousedown="handlePan(1,0)">
                  <use xlink:href="#rim" fill="#404040">
                        <set attributeName="fill" to="#808080" begin="arrowRight.mouseover" end="arrowRight.mouseout"/>
                  </use>
                  <path fill="none" stroke="white" stroke-width="1.5" d="M0,-3.0v7 M-2.5,-0.5L0,-3.0L2.5,-0.5"/>
                </g>
                <g id="arrowDown" xlink:href="#dirArrow" transform="rotate(180) translate(-30 -48)" onmousedown="handlePan(0,1)">
                  <use xlink:href="#rim" fill="#404040">
                        <set attributeName="fill" to="#808080" begin="arrowDown.mouseover" end="arrowDown.mouseout"/>
                  </use>
                  <path fill="none" stroke="white" stroke-width="1.5" d="M0,-3.0v7 M-2.5,-0.5L0,-3.0L2.5,-0.5"/>
                </g>
                <g id="arrowLeft" xlink:href="#dirArrow" transform="rotate(270) translate(-36 17)" onmousedown="handlePan(-1,0)">
                  <use xlink:href="#rim" fill="#404040">
                        <set attributeName="fill" to="#808080" begin="arrowLeft.mouseover" end="arrowLeft.mouseout"/>
                  </use>
                  <path fill="none" stroke="white" stroke-width="1.5" d="M0,-3.0v7 M-2.5,-0.5L0,-3.0L2.5,-0.5"/>
                </g>
        </g>
        <svg viewBox="0 0 15 15" width="100%" height="30px" preserveAspectRatio="xMaxYMin meet">
         <g id="arrow_out" transform="scale(0.3 0.3)">
          <a xlink:href="classview_1_1_splash_screen_a6ff42b7dad4e546981a3266f9d694f5a_cgraph_org.svg" target="_base">
           <rect id="button" ry="5" rx="5" y="6" x="6" height="38" width="38"
                fill="#f2f5e9" fill-opacity="0.5" stroke="#606060" stroke-width="1.0"/>
           <path id="arrow"
             d="M 11.500037,31.436501 C 11.940474,20.09759 22.043105,11.32322 32.158766,21.979434 L 37.068811,17.246167 C 37.068811,17.246167 37.088388,32 37.088388,32 L 22.160133,31.978069 C 22.160133,31.978069 26.997745,27.140456 26.997745,27.140456 C 18.528582,18.264221 13.291696,25.230495 11.500037,31.436501 z"
             style="fill:#404040;"/>
          </a>
         </g>
        </svg>
</svg>
