<?xml version="1.0" encoding="UTF-8" standalone="no"?>
<!DOCTYPE svg PUBLIC "-//W3C//DTD SVG 1.1//EN"
 "http://www.w3.org/Graphics/SVG/1.1/DTD/svg11.dtd">
<!-- Generated by graphviz version 2.36.0 (20140111.2315)
 -->
<!-- Title: view.SplashScreen.addProbablityButton Pages: 1 -->
<!--zoomable 317 -->
<svg id="main" version="1.1" xmlns="http://www.w3.org/2000/svg" xmlns:xlink="http://www.w3.org/1999/xlink" xml:space="preserve" onload="init(evt)">
<style type="text/css"><![CDATA[
.edge:hover path { stroke: red; }
.edge:hover polygon { stroke: red; fill: red; }
]]></style>
<script type="text/javascript"><![CDATA[
var edges = document.getElementsByTagName('g');
if (edges && edges.length) {
  for (var i=0;i<edges.length;i++) {
    if (edges[i].id.substr(0,4)=='edge') {
      edges[i].setAttribute('class','edge');
    }
  }
}
]]></script>
        <defs>
                <circle id="rim" cx="0" cy="0" r="7"/>
                <circle id="rim2" cx="0" cy="0" r="3.5"/>
                <g id="zoomPlus">
                        <use xlink:href="#rim" fill="#404040">
                                <set attributeName="fill" to="#808080" begin="zoomplus.mouseover" end="zoomplus.mouseout"/>
                        </use>
                        <path d="M-4,0h8M0,-4v8" fill="none" stroke="white" stroke-width="1.5" pointer-events="none"/>
                </g>
                <g id="zoomMin">
                        <use xlink:href="#rim" fill="#404040">
                                <set attributeName="fill" to="#808080" begin="zoomminus.mouseover" end="zoomminus.mouseout"/>
                        </use>
                        <path d="M-4,0h8" fill="none" stroke="white" stroke-width="1.5" pointer-events="none"/>
                </g>
                <g id="dirArrow">
                        <path fill="none" stroke="white" stroke-width="1.5" d="M0,-3.0v7 M-2.5,-0.5L0,-3.0L2.5,-0.5"/>
                </g>
               <g id="resetDef">
                       <use xlink:href="#rim2" fill="#404040">
                               <set attributeName="fill" to="#808080" begin="reset.mouseover" end="reset.mouseout"/>
                       </use>
               </g>
        </defs>

<script type="text/javascript">
var viewWidth = 2034;
var viewHeight = 317;
var sectionId = 'dynsection-6';
</script>
<script xlink:href="../../svgpan.js"/>
<svg id="graph" class="graph">
<g id="viewport">
<title>view.SplashScreen.addProbablityButton</title>
<polygon fill="white" stroke="none" points="-4,4 -4,-313 2030,-313 2030,4 -4,4"/>
<!-- Node1 -->
<g id="node1" class="node"><title>Node1</title>
<polygon fill="#bfbfbf" stroke="black" points="0.5,-169 0.5,-199 173.5,-199 173.5,-169 0.5,-169"/>
<text text-anchor="start" x="8.5" y="-187" font-family="Helvetica,sans-Serif" font-size="10.00">view.SplashScreen.addProbablity</text>
<text text-anchor="middle" x="87" y="-176" font-family="Helvetica,sans-Serif" font-size="10.00">Button</text>
</g>
<!-- Node2 -->
<g id="node2" class="node"><title>Node2</title>
<g id="a_node2"><a xlink:href="../../dd/d02/classview_1_1_splash_screen.html#a2f8c52e9a2a790459e51d5d42f16f7da" target="_top" xlink:title="view.SplashScreen.display\lAskInformatio">
<polygon fill="white" stroke="black" points="222.5,-191 222.5,-221 363.5,-221 363.5,-191 222.5,-191"/>
<text text-anchor="start" x="230.5" y="-209" font-family="Helvetica,sans-Serif" font-size="10.00">view.SplashScreen.display</text>
<text text-anchor="middle" x="293" y="-198" font-family="Helvetica,sans-Serif" font-size="10.00">AskInformatio</text>
</a>
</g>
</g>
<!-- Node1&#45;&gt;Node2 -->
<g id="edge1" class="edge"><title>Node1&#45;&gt;Node2</title>
<path fill="none" stroke="midnightblue" d="M173.628,-193.234C186.447,-194.617 199.621,-196.038 212.31,-197.406"/>
<polygon fill="midnightblue" stroke="midnightblue" points="212.049,-200.898 222.367,-198.491 212.8,-193.938 212.049,-200.898"/>
</g>
<!-- Node22 -->
<g id="node22" class="node"><title>Node22</title>
<g id="a_node22"><a xlink:href="../../dd/d02/classview_1_1_splash_screen.html#a329982556dc38c022b2b8c10347e34bd" target="_top" xlink:title="view.SplashScreen.formatNode">
<polygon fill="white" stroke="black" points="210,-152.5 210,-171.5 376,-171.5 376,-152.5 210,-152.5"/>
<text text-anchor="middle" x="293" y="-159.5" font-family="Helvetica,sans-Serif" font-size="10.00">view.SplashScreen.formatNode</text>
</a>
</g>
</g>
<!-- Node1&#45;&gt;Node22 -->
<g id="edge22" class="edge"><title>Node1&#45;&gt;Node22</title>
<path fill="none" stroke="midnightblue" d="M173.628,-174.766C182.248,-173.836 191.029,-172.889 199.715,-171.952"/>
<polygon fill="midnightblue" stroke="midnightblue" points="200.286,-175.411 209.853,-170.859 199.536,-168.451 200.286,-175.411"/>
</g>
<!-- Node3 -->
<g id="node3" class="node"><title>Node3</title>
<g id="a_node3"><a xlink:href="../../dd/d02/classview_1_1_splash_screen.html#ab75deddb521d5727122eec02161acc9d" target="_top" xlink:title="view.SplashScreen.remove\lButtons">
<polygon fill="white" stroke="black" points="440.5,-279 440.5,-309 585.5,-309 585.5,-279 440.5,-279"/>
<text text-anchor="start" x="448.5" y="-297" font-family="Helvetica,sans-Serif" font-size="10.00">view.SplashScreen.remove</text>
<text text-anchor="middle" x="513" y="-286" font-family="Helvetica,sans-Serif" font-size="10.00">Buttons</text>
</a>
</g>
</g>
<!-- Node2&#45;&gt;Node3 -->
<g id="edge2" class="edge"><title>Node2&#45;&gt;Node3</title>
<path fill="none" stroke="midnightblue" d="M318.028,-221.098C341.304,-235.168 377.977,-255.894 412,-269 418.659,-271.565 425.669,-273.938 432.761,-276.115"/>
<polygon fill="midnightblue" stroke="midnightblue" points="431.874,-279.503 442.455,-278.964 433.848,-272.787 431.874,-279.503"/>
</g>
<!-- Node4 -->
<g id="node4" class="node"><title>Node4</title>
<g id="a_node4"><a xlink:href="../../dd/d02/classview_1_1_splash_screen.html#ae484c2f05f910335ffacddd236eb4908" target="_top" xlink:title="view.SplashScreen.addDimensionsText">
<polygon fill="white" stroke="black" points="412.5,-240.5 412.5,-259.5 613.5,-259.5 613.5,-240.5 412.5,-240.5"/>
<text text-anchor="middle" x="513" y="-247.5" font-family="Helvetica,sans-Serif" font-size="10.00">view.SplashScreen.addDimensionsText</text>
</a>
</g>
</g>
<!-- Node2&#45;&gt;Node4 -->
<g id="edge3" class="edge"><title>Node2&#45;&gt;Node4</title>
<path fill="none" stroke="midnightblue" d="M363.564,-220.188C379.478,-223.423 396.323,-226.838 412,-230 425.686,-232.76 440.43,-235.718 454.28,-238.489"/>
<polygon fill="midnightblue" stroke="midnightblue" points="453.688,-241.94 464.18,-240.469 455.061,-235.076 453.688,-241.94"/>
</g>
<!-- Node5 -->
<g id="node5" class="node"><title>Node5</title>
<g id="a_node5"><a xlink:href="../../dd/d02/classview_1_1_splash_screen.html#ae4427d4a548843b069b35328182187fa" target="_top" xlink:title="view.SplashScreen.addSimulation\lNameText">
<polygon fill="white" stroke="black" points="424.5,-191 424.5,-221 601.5,-221 601.5,-191 424.5,-191"/>
<text text-anchor="start" x="432.5" y="-209" font-family="Helvetica,sans-Serif" font-size="10.00">view.SplashScreen.addSimulation</text>
<text text-anchor="middle" x="513" y="-198" font-family="Helvetica,sans-Serif" font-size="10.00">NameText</text>
</a>
</g>
</g>
<!-- Node2&#45;&gt;Node5 -->
<g id="edge4" class="edge"><title>Node2&#45;&gt;Node5</title>
<path fill="none" stroke="midnightblue" d="M363.576,-206C379.721,-206 397.201,-206 414.305,-206"/>
<polygon fill="midnightblue" stroke="midnightblue" points="414.319,-209.5 424.319,-206 414.319,-202.5 414.319,-209.5"/>
</g>
<!-- Node6 -->
<g id="node6" class="node"><title>Node6</title>
<g id="a_node6"><a xlink:href="../../dd/d02/classview_1_1_splash_screen.html#a05478a56856d70fd9508d79ca484fbca" target="_top" xlink:title="view.SplashScreen.addProbabilityText">
<polygon fill="white" stroke="black" points="416,-152.5 416,-171.5 610,-171.5 610,-152.5 416,-152.5"/>
<text text-anchor="middle" x="513" y="-159.5" font-family="Helvetica,sans-Serif" font-size="10.00">view.SplashScreen.addProbabilityText</text>
</a>
</g>
</g>
<!-- Node2&#45;&gt;Node6 -->
<g id="edge5" class="edge"><title>Node2&#45;&gt;Node6</title>
<path fill="none" stroke="midnightblue" d="M363.521,-191.017C379.438,-187.657 396.294,-184.155 412,-181 424.509,-178.487 437.916,-175.88 450.72,-173.432"/>
<polygon fill="midnightblue" stroke="midnightblue" points="451.661,-176.816 460.83,-171.508 450.352,-169.939 451.661,-176.816"/>
</g>
<!-- Node21 -->
<g id="node21" class="node"><title>Node21</title>
<g id="a_node21"><a xlink:href="../../d6/d7b/classcontroller_1_1_cell_society_controller.html#ab65a8810efbc2b92e17ca77cdc591df9" target="_top" xlink:title="controller.CellSocietyController.generate\lRandomGrid">
<polygon fill="white" stroke="black" points="650.5,-98 650.5,-128 859.5,-128 859.5,-98 650.5,-98"/>
<text text-anchor="start" x="658.5" y="-116" font-family="Helvetica,sans-Serif" font-size="10.00">controller.CellSocietyController.generate</text>
<text text-anchor="middle" x="755" y="-105" font-family="Helvetica,sans-Serif" font-size="10.00">RandomGrid</text>
</a>
</g>
</g>
<!-- Node2&#45;&gt;Node21 -->
<g id="edge20" class="edge"><title>Node2&#45;&gt;Node21</title>
<path fill="none" stroke="midnightblue" d="M355.974,-190.925C362.967,-188.122 369.799,-184.838 376,-181 395.783,-168.757 391.051,-153.118 412,-143 482.593,-108.903 570.929,-101.924 640.139,-103.198"/>
<polygon fill="midnightblue" stroke="midnightblue" points="640.124,-106.699 650.207,-103.444 640.295,-99.7011 640.124,-106.699"/>
</g>
<!-- Node7 -->
<g id="node7" class="node"><title>Node7</title>
<g id="a_node7"><a xlink:href="../../d6/d7b/classcontroller_1_1_cell_society_controller.html#ada30fdc135cdf08b93065edf15ed3fcc" target="_top" xlink:title="controller.CellSocietyController.generate\lProbabilityRandomGrid">
<polygon fill="white" stroke="black" points="650.5,-196 650.5,-226 859.5,-226 859.5,-196 650.5,-196"/>
<text text-anchor="start" x="658.5" y="-214" font-family="Helvetica,sans-Serif" font-size="10.00">controller.CellSocietyController.generate</text>
<text text-anchor="middle" x="755" y="-203" font-family="Helvetica,sans-Serif" font-size="10.00">ProbabilityRandomGrid</text>
</a>
</g>
</g>
<!-- Node6&#45;&gt;Node7 -->
<g id="edge6" class="edge"><title>Node6&#45;&gt;Node7</title>
<path fill="none" stroke="midnightblue" d="M565.432,-171.534C581.045,-174.492 598.237,-177.814 614,-181 633.905,-185.023 655.364,-189.534 675.357,-193.811"/>
<polygon fill="midnightblue" stroke="midnightblue" points="674.839,-197.279 685.351,-195.956 676.308,-190.435 674.839,-197.279"/>
</g>
<!-- Node20 -->
<g id="node20" class="node"><title>Node20</title>
<g id="a_node20"><a xlink:href="../../dd/d02/classview_1_1_splash_screen.html#a1e747e968477f14fbd6d6cd4a508e008" target="_top" xlink:title="view.SplashScreen.remove\lAskScreenNodes">
<polygon fill="white" stroke="black" points="682.5,-147 682.5,-177 827.5,-177 827.5,-147 682.5,-147"/>
<text text-anchor="start" x="690.5" y="-165" font-family="Helvetica,sans-Serif" font-size="10.00">view.SplashScreen.remove</text>
<text text-anchor="middle" x="755" y="-154" font-family="Helvetica,sans-Serif" font-size="10.00">AskScreenNodes</text>
</a>
</g>
</g>
<!-- Node6&#45;&gt;Node20 -->
<g id="edge19" class="edge"><title>Node6&#45;&gt;Node20</title>
<path fill="none" stroke="midnightblue" d="M610.234,-162C630.668,-162 652.059,-162 671.908,-162"/>
<polygon fill="midnightblue" stroke="midnightblue" points="672.134,-165.5 682.134,-162 672.134,-158.5 672.134,-165.5"/>
</g>
<!-- Node8 -->
<g id="node8" class="node"><title>Node8</title>
<g id="a_node8"><a xlink:href="../../d6/d7b/classcontroller_1_1_cell_society_controller.html#a41b6379d34f94114f5ada21e3bb8b52e" target="_top" xlink:title="controller.CellSocietyController.generateGrid">
<polygon fill="white" stroke="black" points="896,-152.5 896,-171.5 1124,-171.5 1124,-152.5 896,-152.5"/>
<text text-anchor="middle" x="1010" y="-159.5" font-family="Helvetica,sans-Serif" font-size="10.00">controller.CellSocietyController.generateGrid</text>
</a>
</g>
</g>
<!-- Node7&#45;&gt;Node8 -->
<g id="edge7" class="edge"><title>Node7&#45;&gt;Node8</title>
<path fill="none" stroke="midnightblue" d="M833.628,-195.965C871.042,-188.719 915.195,-180.168 949.839,-173.458"/>
<polygon fill="midnightblue" stroke="midnightblue" points="950.653,-176.866 959.805,-171.528 949.322,-169.993 950.653,-176.866"/>
</g>
<!-- Node9 -->
<g id="node9" class="node"><title>Node9</title>
<g id="a_node9"><a xlink:href="../../d8/dd8/classcontroller_1_1_sim_generator.html#a56410ccebd07c1b6d1a3afb41d7997fc" target="_top" xlink:title="controller.SimGenerator.getGrid">
<polygon fill="white" stroke="black" points="1180.5,-196.5 1180.5,-215.5 1349.5,-215.5 1349.5,-196.5 1180.5,-196.5"/>
<text text-anchor="middle" x="1265" y="-203.5" font-family="Helvetica,sans-Serif" font-size="10.00">controller.SimGenerator.getGrid</text>
</a>
</g>
</g>
<!-- Node8&#45;&gt;Node9 -->
<g id="edge8" class="edge"><title>Node8&#45;&gt;Node9</title>
<path fill="none" stroke="midnightblue" d="M1065.9,-171.547C1105.1,-178.365 1157.99,-187.563 1199.25,-194.74"/>
<polygon fill="midnightblue" stroke="midnightblue" points="1198.76,-198.206 1209.21,-196.471 1199.96,-191.31 1198.76,-198.206"/>
</g>
<!-- Node10 -->
<g id="node10" class="node"><title>Node10</title>
<g id="a_node10"><a xlink:href="../../d8/dd8/classcontroller_1_1_sim_generator.html#a9fd6cebed37c16aad5e70dc966ac9fb5" target="_top" xlink:title="controller.SimGenerator.get\lParameters">
<polygon fill="white" stroke="black" points="1190.5,-147 1190.5,-177 1339.5,-177 1339.5,-147 1190.5,-147"/>
<text text-anchor="start" x="1198.5" y="-165" font-family="Helvetica,sans-Serif" font-size="10.00">controller.SimGenerator.get</text>
<text text-anchor="middle" x="1265" y="-154" font-family="Helvetica,sans-Serif" font-size="10.00">Parameters</text>
</a>
</g>
</g>
<!-- Node8&#45;&gt;Node10 -->
<g id="edge9" class="edge"><title>Node8&#45;&gt;Node10</title>
<path fill="none" stroke="midnightblue" d="M1124.18,-162C1143.08,-162 1162.37,-162 1180.36,-162"/>
<polygon fill="midnightblue" stroke="midnightblue" points="1180.49,-165.5 1190.49,-162 1180.49,-158.5 1180.49,-165.5"/>
</g>
<!-- Node11 -->
<g id="node11" class="node"><title>Node11</title>
<g id="a_node11"><a xlink:href="../../d6/d7b/classcontroller_1_1_cell_society_controller.html#a3d913ad3344ac48e887110e2fabb5746" target="_top" xlink:title="controller.CellSocietyController.transition\lToSimulation">
<polygon fill="white" stroke="black" points="1160,-98 1160,-128 1370,-128 1370,-98 1160,-98"/>
<text text-anchor="start" x="1168" y="-116" font-family="Helvetica,sans-Serif" font-size="10.00">controller.CellSocietyController.transition</text>
<text text-anchor="middle" x="1265" y="-105" font-family="Helvetica,sans-Serif" font-size="10.00">ToSimulation</text>
</a>
</g>
</g>
<!-- Node8&#45;&gt;Node11 -->
<g id="edge10" class="edge"><title>Node8&#45;&gt;Node11</title>
<path fill="none" stroke="midnightblue" d="M1060.08,-152.494C1092.93,-146.133 1137.09,-137.58 1175.91,-130.06"/>
<polygon fill="midnightblue" stroke="midnightblue" points="1177.03,-133.409 1186.18,-128.071 1175.7,-126.537 1177.03,-133.409"/>
</g>
<!-- Node12 -->
<g id="node12" class="node"><title>Node12</title>
<g id="a_node12"><a xlink:href="../../d6/d7b/classcontroller_1_1_cell_society_controller.html#a8af25de87ececa5ca913e7b5af486b3f" target="_top" xlink:title="controller.CellSocietyController.initialize\lSimulation">
<polygon fill="white" stroke="black" points="1406.5,-147 1406.5,-177 1609.5,-177 1609.5,-147 1406.5,-147"/>
<text text-anchor="start" x="1414.5" y="-165" font-family="Helvetica,sans-Serif" font-size="10.00">controller.CellSocietyController.initialize</text>
<text text-anchor="middle" x="1508" y="-154" font-family="Helvetica,sans-Serif" font-size="10.00">Simulation</text>
</a>
</g>
</g>
<!-- Node11&#45;&gt;Node12 -->
<g id="edge11" class="edge"><title>Node11&#45;&gt;Node12</title>
<path fill="none" stroke="midnightblue" d="M1339.95,-128.035C1366.32,-133.396 1396.2,-139.473 1423.33,-144.989"/>
<polygon fill="midnightblue" stroke="midnightblue" points="1422.7,-148.431 1433.19,-146.994 1424.09,-141.571 1422.7,-148.431"/>
</g>
<!-- Node13 -->
<g id="node13" class="node"><title>Node13</title>
<g id="a_node13"><a xlink:href="../../d6/d7b/classcontroller_1_1_cell_society_controller.html#af6b4eb647c4e76fef6f27cc61ced4d9a" target="_top" xlink:title="controller.CellSocietyController.initialize\lSimulationScreen">
<polygon fill="white" stroke="black" points="1406.5,-98 1406.5,-128 1609.5,-128 1609.5,-98 1406.5,-98"/>
<text text-anchor="start" x="1414.5" y="-116" font-family="Helvetica,sans-Serif" font-size="10.00">controller.CellSocietyController.initialize</text>
<text text-anchor="middle" x="1508" y="-105" font-family="Helvetica,sans-Serif" font-size="10.00">SimulationScreen</text>
</a>
</g>
</g>
<!-- Node11&#45;&gt;Node13 -->
<g id="edge12" class="edge"><title>Node11&#45;&gt;Node13</title>
<path fill="none" stroke="midnightblue" d="M1370.3,-113C1378.9,-113 1387.61,-113 1396.25,-113"/>
<polygon fill="midnightblue" stroke="midnightblue" points="1396.35,-116.5 1406.35,-113 1396.35,-109.5 1396.35,-116.5"/>
</g>
<!-- Node17 -->
<g id="node17" class="node"><title>Node17</title>
<g id="a_node17"><a xlink:href="../../d6/d7b/classcontroller_1_1_cell_society_controller.html#a7609d9a174ff7d2d00fc27e3574cdb21" target="_top" xlink:title="controller.CellSocietyController.stop\lOrStart">
<polygon fill="white" stroke="black" points="1415,-49 1415,-79 1601,-79 1601,-49 1415,-49"/>
<text text-anchor="start" x="1423" y="-67" font-family="Helvetica,sans-Serif" font-size="10.00">controller.CellSocietyController.stop</text>
<text text-anchor="middle" x="1508" y="-56" font-family="Helvetica,sans-Serif" font-size="10.00">OrStart</text>
</a>
</g>
</g>
<!-- Node11&#45;&gt;Node17 -->
<g id="edge16" class="edge"><title>Node11&#45;&gt;Node17</title>
<path fill="none" stroke="midnightblue" d="M1339.95,-97.9654C1366.32,-92.6035 1396.2,-86.5269 1423.33,-81.0108"/>
<polygon fill="midnightblue" stroke="midnightblue" points="1424.09,-84.4285 1433.19,-79.0062 1422.7,-77.5689 1424.09,-84.4285"/>
</g>
<!-- Node14 -->
<g id="node14" class="node"><title>Node14</title>
<g id="a_node14"><a xlink:href="../../d1/d3e/classview_1_1_simulation_screen.html#a482a021910f4b997fb7b798bdc363df4" target="_top" xlink:title="view.SimulationScreen.getNode">
<polygon fill="white" stroke="black" points="1661,-147.5 1661,-166.5 1829,-166.5 1829,-147.5 1661,-147.5"/>
<text text-anchor="middle" x="1745" y="-154.5" font-family="Helvetica,sans-Serif" font-size="10.00">view.SimulationScreen.getNode</text>
</a>
</g>
</g>
<!-- Node13&#45;&gt;Node14 -->
<g id="edge13" class="edge"><title>Node13&#45;&gt;Node14</title>
<path fill="none" stroke="midnightblue" d="M1589.22,-128.019C1620.02,-133.787 1654.64,-140.269 1683.32,-145.638"/>
<polygon fill="midnightblue" stroke="midnightblue" points="1682.72,-149.087 1693.2,-147.488 1684.01,-142.207 1682.72,-149.087"/>
</g>
<!-- Node15 -->
<g id="node15" class="node"><title>Node15</title>
<g id="a_node15"><a xlink:href="../../d1/d3e/classview_1_1_simulation_screen.html#a6c9f5c7e36be620d06e55709bc256d18" target="_top" xlink:title="view.SimulationScreen.init\lSimScreen">
<polygon fill="white" stroke="black" points="1674.5,-98 1674.5,-128 1815.5,-128 1815.5,-98 1674.5,-98"/>
<text text-anchor="start" x="1682.5" y="-116" font-family="Helvetica,sans-Serif" font-size="10.00">view.SimulationScreen.init</text>
<text text-anchor="middle" x="1745" y="-105" font-family="Helvetica,sans-Serif" font-size="10.00">SimScreen</text>
</a>
</g>
</g>
<!-- Node13&#45;&gt;Node15 -->
<g id="edge14" class="edge"><title>Node13&#45;&gt;Node15</title>
<path fill="none" stroke="midnightblue" d="M1609.68,-113C1627.91,-113 1646.68,-113 1664.21,-113"/>
<polygon fill="midnightblue" stroke="midnightblue" points="1664.37,-116.5 1674.37,-113 1664.37,-109.5 1664.37,-116.5"/>
</g>
<!-- Node16 -->
<g id="node16" class="node"><title>Node16</title>
<g id="a_node16"><a xlink:href="../../d1/d3e/classview_1_1_simulation_screen.html#a7144a80861195f360ade7612b479ff3e" target="_top" xlink:title="view.SimulationScreen.add\lButtons">
<polygon fill="white" stroke="black" points="1880.5,-98 1880.5,-128 2025.5,-128 2025.5,-98 1880.5,-98"/>
<text text-anchor="start" x="1888.5" y="-116" font-family="Helvetica,sans-Serif" font-size="10.00">view.SimulationScreen.add</text>
<text text-anchor="middle" x="1953" y="-105" font-family="Helvetica,sans-Serif" font-size="10.00">Buttons</text>
</a>
</g>
</g>
<!-- Node15&#45;&gt;Node16 -->
<g id="edge15" class="edge"><title>Node15&#45;&gt;Node16</title>
<path fill="none" stroke="midnightblue" d="M1815.74,-113C1833.19,-113 1852.07,-113 1870.05,-113"/>
<polygon fill="midnightblue" stroke="midnightblue" points="1870.22,-116.5 1880.22,-113 1870.22,-109.5 1870.22,-116.5"/>
</g>
<!-- Node18 -->
<g id="node18" class="node"><title>Node18</title>
<g id="a_node18"><a xlink:href="../../d6/d7b/classcontroller_1_1_cell_society_controller.html#a33e7a77467ceeb880526a1b405b3ee79" target="_top" xlink:title="controller.CellSocietyController.pause\lSimulation">
<polygon fill="white" stroke="black" points="1648,-49 1648,-79 1842,-79 1842,-49 1648,-49"/>
<text text-anchor="start" x="1656" y="-67" font-family="Helvetica,sans-Serif" font-size="10.00">controller.CellSocietyController.pause</text>
<text text-anchor="middle" x="1745" y="-56" font-family="Helvetica,sans-Serif" font-size="10.00">Simulation</text>
</a>
</g>
</g>
<!-- Node17&#45;&gt;Node18 -->
<g id="edge17" class="edge"><title>Node17&#45;&gt;Node18</title>
<path fill="none" stroke="midnightblue" d="M1601.2,-64C1613.16,-64 1625.48,-64 1637.64,-64"/>
<polygon fill="midnightblue" stroke="midnightblue" points="1637.81,-67.5001 1647.81,-64 1637.81,-60.5001 1637.81,-67.5001"/>
</g>
<!-- Node19 -->
<g id="node19" class="node"><title>Node19</title>
<g id="a_node19"><a xlink:href="../../d6/d7b/classcontroller_1_1_cell_society_controller.html#aec38c45810ee2665fe01832114fbc68d" target="_top" xlink:title="controller.CellSocietyController.restart\lSimulation">
<polygon fill="white" stroke="black" points="1646.5,-0 1646.5,-30 1843.5,-30 1843.5,-0 1646.5,-0"/>
<text text-anchor="start" x="1654.5" y="-18" font-family="Helvetica,sans-Serif" font-size="10.00">controller.CellSocietyController.restart</text>
<text text-anchor="middle" x="1745" y="-7" font-family="Helvetica,sans-Serif" font-size="10.00">Simulation</text>
</a>
</g>
</g>
<!-- Node17&#45;&gt;Node19 -->
<g id="edge18" class="edge"><title>Node17&#45;&gt;Node19</title>
<path fill="none" stroke="midnightblue" d="M1581.1,-48.9654C1606.71,-43.627 1635.71,-37.5802 1662.07,-32.0834"/>
<polygon fill="midnightblue" stroke="midnightblue" points="1662.96,-35.4738 1672.03,-30.0062 1661.53,-28.6212 1662.96,-35.4738"/>
</g>
<!-- Node21&#45;&gt;Node8 -->
<g id="edge21" class="edge"><title>Node21&#45;&gt;Node8</title>
<path fill="none" stroke="midnightblue" d="M833.628,-128.035C871.042,-135.281 915.195,-143.832 949.839,-150.542"/>
<polygon fill="midnightblue" stroke="midnightblue" points="949.322,-154.007 959.805,-152.472 950.653,-147.134 949.322,-154.007"/>
</g>
</g>
</svg>
        <g id="navigator" transform="translate(0 0)" fill="#404254">
                <rect fill="#f2f5e9" fill-opacity="0.5" stroke="#606060" stroke-width=".5" x="0" y="0" width="60" height="60"/>
                <use id="zoomplus" xlink:href="#zoomPlus" x="17" y="9" onmousedown="handleZoom(evt,'in')"/>
                <use id="zoomminus" xlink:href="#zoomMin" x="42" y="9" onmousedown="handleZoom(evt,'out')"/>
                <use id="reset" xlink:href="#resetDef" x="30" y="36" onmousedown="handleReset()"/>
                <g id="arrowUp" xlink:href="#dirArrow" transform="translate(30 24)" onmousedown="handlePan(0,-1)">
                  <use xlink:href="#rim" fill="#404040">
                        <set attributeName="fill" to="#808080" begin="arrowUp.mouseover" end="arrowUp.mouseout"/>
                  </use>
                  <path fill="none" stroke="white" stroke-width="1.5" d="M0,-3.0v7 M-2.5,-0.5L0,-3.0L2.5,-0.5"/>
                </g>
                <g id="arrowRight" xlink:href="#dirArrow" transform="rotate(90) translate(36 -43)" onmousedown="handlePan(1,0)">
                  <use xlink:href="#rim" fill="#404040">
                        <set attributeName="fill" to="#808080" begin="arrowRight.mouseover" end="arrowRight.mouseout"/>
                  </use>
                  <path fill="none" stroke="white" stroke-width="1.5" d="M0,-3.0v7 M-2.5,-0.5L0,-3.0L2.5,-0.5"/>
                </g>
                <g id="arrowDown" xlink:href="#dirArrow" transform="rotate(180) translate(-30 -48)" onmousedown="handlePan(0,1)">
                  <use xlink:href="#rim" fill="#404040">
                        <set attributeName="fill" to="#808080" begin="arrowDown.mouseover" end="arrowDown.mouseout"/>
                  </use>
                  <path fill="none" stroke="white" stroke-width="1.5" d="M0,-3.0v7 M-2.5,-0.5L0,-3.0L2.5,-0.5"/>
                </g>
                <g id="arrowLeft" xlink:href="#dirArrow" transform="rotate(270) translate(-36 17)" onmousedown="handlePan(-1,0)">
                  <use xlink:href="#rim" fill="#404040">
                        <set attributeName="fill" to="#808080" begin="arrowLeft.mouseover" end="arrowLeft.mouseout"/>
                  </use>
                  <path fill="none" stroke="white" stroke-width="1.5" d="M0,-3.0v7 M-2.5,-0.5L0,-3.0L2.5,-0.5"/>
                </g>
        </g>
        <svg viewBox="0 0 15 15" width="100%" height="30px" preserveAspectRatio="xMaxYMin meet">
         <g id="arrow_out" transform="scale(0.3 0.3)">
          <a xlink:href="classview_1_1_splash_screen_ad94d9edd23f270a5f480fd54a06d72f3_cgraph_org.svg" target="_base">
           <rect id="button" ry="5" rx="5" y="6" x="6" height="38" width="38"
                fill="#f2f5e9" fill-opacity="0.5" stroke="#606060" stroke-width="1.0"/>
           <path id="arrow"
             d="M 11.500037,31.436501 C 11.940474,20.09759 22.043105,11.32322 32.158766,21.979434 L 37.068811,17.246167 C 37.068811,17.246167 37.088388,32 37.088388,32 L 22.160133,31.978069 C 22.160133,31.978069 26.997745,27.140456 26.997745,27.140456 C 18.528582,18.264221 13.291696,25.230495 11.500037,31.436501 z"
             style="fill:#404040;"/>
          </a>
         </g>
        </svg>
</svg>
