<?xml version="1.0" encoding="UTF-8" standalone="no"?>
<!DOCTYPE svg PUBLIC "-//W3C//DTD SVG 1.1//EN"
 "http://www.w3.org/Graphics/SVG/1.1/DTD/svg11.dtd">
<!-- Generated by graphviz version 2.36.0 (20140111.2315)
 -->
<!-- Title: view.SplashScreen.addLoadButton Pages: 1 -->
<svg width="780pt" height="38pt"
 viewBox="0.00 0.00 780.00 38.00" xmlns="http://www.w3.org/2000/svg" xmlns:xlink="http://www.w3.org/1999/xlink">
<g id="graph0" class="graph" transform="scale(1 1) rotate(0) translate(4 34)">
<title>view.SplashScreen.addLoadButton</title>
<polygon fill="white" stroke="none" points="-4,4 -4,-34 776,-34 776,4 -4,4"/>
<!-- Node1 -->
<g id="node1" class="node"><title>Node1</title>
<polygon fill="#bfbfbf" stroke="black" points="0.5,-0 0.5,-30 149.5,-30 149.5,-0 0.5,-0"/>
<text text-anchor="start" x="8.5" y="-18" font-family="Helvetica,sans-Serif" font-size="10.00">view.SplashScreen.addLoad</text>
<text text-anchor="middle" x="75" y="-7" font-family="Helvetica,sans-Serif" font-size="10.00">Button</text>
</g>
<!-- Node2 -->
<g id="node2" class="node"><title>Node2</title>
<g id="a_node2"><a xlink:href="../../dd/d02/classview_1_1_splash_screen.html#a6ff42b7dad4e546981a3266f9d694f5a" target="_top" xlink:title="view.SplashScreen.getNode">
<polygon fill="white" stroke="black" points="186.5,-5.5 186.5,-24.5 335.5,-24.5 335.5,-5.5 186.5,-5.5"/>
<text text-anchor="middle" x="261" y="-12.5" font-family="Helvetica,sans-Serif" font-size="10.00">view.SplashScreen.getNode</text>
</a>
</g>
</g>
<!-- Node1&#45;&gt;Node2 -->
<g id="edge1" class="edge"><title>Node1&#45;&gt;Node2</title>
<path fill="none" stroke="midnightblue" d="M159.533,-15C168.462,-15 177.498,-15 186.302,-15"/>
<polygon fill="midnightblue" stroke="midnightblue" points="159.515,-11.5001 149.515,-15 159.515,-18.5001 159.515,-11.5001"/>
</g>
<!-- Node3 -->
<g id="node3" class="node"><title>Node3</title>
<g id="a_node3"><a xlink:href="../../d6/d7b/classcontroller_1_1_cell_society_controller.html#a3f78125e5b809d88d3cf7ed20b3756c2" target="_top" xlink:title="controller.CellSocietyController.display\lSplashScreen">
<polygon fill="white" stroke="black" points="372,-0 372,-30 570,-30 570,-0 372,-0"/>
<text text-anchor="start" x="380" y="-18" font-family="Helvetica,sans-Serif" font-size="10.00">controller.CellSocietyController.display</text>
<text text-anchor="middle" x="471" y="-7" font-family="Helvetica,sans-Serif" font-size="10.00">SplashScreen</text>
</a>
</g>
</g>
<!-- Node2&#45;&gt;Node3 -->
<g id="edge2" class="edge"><title>Node2&#45;&gt;Node3</title>
<path fill="none" stroke="midnightblue" d="M345.885,-15C354.384,-15 363.07,-15 371.703,-15"/>
<polygon fill="midnightblue" stroke="midnightblue" points="345.626,-11.5001 335.626,-15 345.626,-18.5001 345.626,-11.5001"/>
</g>
<!-- Node4 -->
<g id="node4" class="node"><title>Node4</title>
<g id="a_node4"><a xlink:href="../../d6/d7b/classcontroller_1_1_cell_society_controller.html#a6a2310de67e415512149c94c9f36e356" target="_top" xlink:title="controller.CellSocietyController.\lCellSocietyController">
<polygon fill="white" stroke="black" points="606.5,-0 606.5,-30 771.5,-30 771.5,-0 606.5,-0"/>
<text text-anchor="start" x="614.5" y="-18" font-family="Helvetica,sans-Serif" font-size="10.00">controller.CellSocietyController.</text>
<text text-anchor="middle" x="689" y="-7" font-family="Helvetica,sans-Serif" font-size="10.00">CellSocietyController</text>
</a>
</g>
</g>
<!-- Node3&#45;&gt;Node4 -->
<g id="edge3" class="edge"><title>Node3&#45;&gt;Node4</title>
<path fill="none" stroke="midnightblue" d="M580.384,-15C589.067,-15 597.746,-15 606.198,-15"/>
<polygon fill="midnightblue" stroke="midnightblue" points="580.203,-11.5001 570.203,-15 580.203,-18.5001 580.203,-11.5001"/>
</g>
</g>
</svg>
