<?xml version="1.0" encoding="UTF-8" standalone="no"?>
<!DOCTYPE svg PUBLIC "-//W3C//DTD SVG 1.1//EN"
 "http://www.w3.org/Graphics/SVG/1.1/DTD/svg11.dtd">
<!-- Generated by graphviz version 2.36.0 (20140111.2315)
 -->
<!-- Title: view.SplashScreen.getNode Pages: 1 -->
<svg width="2268pt" height="374pt"
 viewBox="0.00 0.00 2268.00 374.00" xmlns="http://www.w3.org/2000/svg" xmlns:xlink="http://www.w3.org/1999/xlink">
<g id="graph0" class="graph" transform="scale(1 1) rotate(0) translate(4 370)">
<title>view.SplashScreen.getNode</title>
<polygon fill="white" stroke="none" points="-4,4 -4,-370 2264,-370 2264,4 -4,4"/>
<!-- Node1 -->
<g id="node1" class="node"><title>Node1</title>
<polygon fill="#bfbfbf" stroke="black" points="0.5,-179.5 0.5,-198.5 149.5,-198.5 149.5,-179.5 0.5,-179.5"/>
<text text-anchor="middle" x="75" y="-186.5" font-family="Helvetica,sans-Serif" font-size="10.00">view.SplashScreen.getNode</text>
</g>
<!-- Node2 -->
<g id="node2" class="node"><title>Node2</title>
<g id="a_node2"><a xlink:href="../../dd/d02/classview_1_1_splash_screen.html#a652092fc5c5862cee4ff84bf231646ab" target="_top" xlink:title="view.SplashScreen.addLoad\lButton">
<polygon fill="white" stroke="black" points="198.5,-240 198.5,-270 347.5,-270 347.5,-240 198.5,-240"/>
<text text-anchor="start" x="206.5" y="-258" font-family="Helvetica,sans-Serif" font-size="10.00">view.SplashScreen.addLoad</text>
<text text-anchor="middle" x="273" y="-247" font-family="Helvetica,sans-Serif" font-size="10.00">Button</text>
</a>
</g>
</g>
<!-- Node1&#45;&gt;Node2 -->
<g id="edge1" class="edge"><title>Node1&#45;&gt;Node2</title>
<path fill="none" stroke="midnightblue" d="M100.283,-198.64C122.451,-207.299 156.206,-220.132 186,-230 193.081,-232.345 200.529,-234.69 207.957,-236.951"/>
<polygon fill="midnightblue" stroke="midnightblue" points="207.094,-240.346 217.678,-239.869 209.106,-233.642 207.094,-240.346"/>
</g>
<!-- Node20 -->
<g id="node20" class="node"><title>Node20</title>
<g id="a_node20"><a xlink:href="../../dd/d02/classview_1_1_splash_screen.html#ad94d9edd23f270a5f480fd54a06d72f3" target="_top" xlink:title="view.SplashScreen.addProbablity\lButton">
<polygon fill="white" stroke="black" points="186.5,-152 186.5,-182 359.5,-182 359.5,-152 186.5,-152"/>
<text text-anchor="start" x="194.5" y="-170" font-family="Helvetica,sans-Serif" font-size="10.00">view.SplashScreen.addProbablity</text>
<text text-anchor="middle" x="273" y="-159" font-family="Helvetica,sans-Serif" font-size="10.00">Button</text>
</a>
</g>
</g>
<!-- Node1&#45;&gt;Node20 -->
<g id="edge20" class="edge"><title>Node1&#45;&gt;Node20</title>
<path fill="none" stroke="midnightblue" d="M149.541,-180.745C158.222,-179.771 167.177,-178.766 176.109,-177.763"/>
<polygon fill="midnightblue" stroke="midnightblue" points="176.62,-181.228 186.167,-176.634 175.839,-174.272 176.62,-181.228"/>
</g>
<!-- Node32 -->
<g id="node32" class="node"><title>Node32</title>
<g id="a_node32"><a xlink:href="../../dd/d02/classview_1_1_splash_screen.html#a17ba24f5ed477a37ea527710e54d65c8" target="_top" xlink:title="view.SplashScreen.addRandom\lButton">
<polygon fill="white" stroke="black" points="190,-103 190,-133 356,-133 356,-103 190,-103"/>
<text text-anchor="start" x="198" y="-121" font-family="Helvetica,sans-Serif" font-size="10.00">view.SplashScreen.addRandom</text>
<text text-anchor="middle" x="273" y="-110" font-family="Helvetica,sans-Serif" font-size="10.00">Button</text>
</a>
</g>
</g>
<!-- Node1&#45;&gt;Node32 -->
<g id="edge35" class="edge"><title>Node1&#45;&gt;Node32</title>
<path fill="none" stroke="midnightblue" d="M96.3596,-179.342C118.201,-169.209 154.064,-153.224 186,-142 191.854,-139.943 197.98,-137.942 204.151,-136.03"/>
<polygon fill="midnightblue" stroke="midnightblue" points="205.287,-139.343 213.85,-133.104 203.265,-132.641 205.287,-139.343"/>
</g>
<!-- Node33 -->
<g id="node33" class="node"><title>Node33</title>
<g id="a_node33"><a xlink:href="../../dd/d02/classview_1_1_splash_screen.html#a0a9ccd223a5668611f7fbbae36ea0796" target="_top" xlink:title="view.SplashScreen.addTitle">
<polygon fill="white" stroke="black" points="200,-201.5 200,-220.5 346,-220.5 346,-201.5 200,-201.5"/>
<text text-anchor="middle" x="273" y="-208.5" font-family="Helvetica,sans-Serif" font-size="10.00">view.SplashScreen.addTitle</text>
</a>
</g>
</g>
<!-- Node1&#45;&gt;Node33 -->
<g id="edge38" class="edge"><title>Node1&#45;&gt;Node33</title>
<path fill="none" stroke="midnightblue" d="M149.541,-197.255C162.698,-198.731 176.483,-200.279 189.864,-201.781"/>
<polygon fill="midnightblue" stroke="midnightblue" points="189.671,-205.281 200,-202.918 190.452,-198.325 189.671,-205.281"/>
</g>
<!-- Node3 -->
<g id="node3" class="node"><title>Node3</title>
<g id="a_node3"><a xlink:href="../../dd/d02/classview_1_1_splash_screen.html#a329982556dc38c022b2b8c10347e34bd" target="_top" xlink:title="view.SplashScreen.formatNode">
<polygon fill="white" stroke="black" points="418,-179.5 418,-198.5 584,-198.5 584,-179.5 418,-179.5"/>
<text text-anchor="middle" x="501" y="-186.5" font-family="Helvetica,sans-Serif" font-size="10.00">view.SplashScreen.formatNode</text>
</a>
</g>
</g>
<!-- Node2&#45;&gt;Node3 -->
<g id="edge2" class="edge"><title>Node2&#45;&gt;Node3</title>
<path fill="none" stroke="midnightblue" d="M325.849,-239.946C337.109,-236.671 348.955,-233.223 360,-230 392.805,-220.428 429.921,-209.557 457.691,-201.414"/>
<polygon fill="midnightblue" stroke="midnightblue" points="458.863,-204.718 467.473,-198.546 456.893,-198.001 458.863,-204.718"/>
</g>
<!-- Node4 -->
<g id="node4" class="node"><title>Node4</title>
<g id="a_node4"><a xlink:href="../../d6/d7b/classcontroller_1_1_cell_society_controller.html#afbdf9a63e15a2bfa878dcfe5ed3ef6dc" target="_top" xlink:title="controller.CellSocietyController.transition\lToFileLoaderScreen">
<polygon fill="white" stroke="black" points="396,-259 396,-289 606,-289 606,-259 396,-259"/>
<text text-anchor="start" x="404" y="-277" font-family="Helvetica,sans-Serif" font-size="10.00">controller.CellSocietyController.transition</text>
<text text-anchor="middle" x="501" y="-266" font-family="Helvetica,sans-Serif" font-size="10.00">ToFileLoaderScreen</text>
</a>
</g>
</g>
<!-- Node2&#45;&gt;Node4 -->
<g id="edge3" class="edge"><title>Node2&#45;&gt;Node4</title>
<path fill="none" stroke="midnightblue" d="M347.688,-261.195C359.783,-262.212 372.565,-263.286 385.374,-264.363"/>
<polygon fill="midnightblue" stroke="midnightblue" points="385.383,-267.876 395.641,-265.226 385.969,-260.901 385.383,-267.876"/>
</g>
<!-- Node5 -->
<g id="node5" class="node"><title>Node5</title>
<g id="a_node5"><a xlink:href="../../d3/d0a/classview_1_1_file_loader_screen.html#a196dd45848fbdf09ac100c343b6515cd" target="_top" xlink:title="view.FileLoaderScreen.getFile">
<polygon fill="white" stroke="black" points="667.5,-264.5 667.5,-283.5 822.5,-283.5 822.5,-264.5 667.5,-264.5"/>
<text text-anchor="middle" x="745" y="-271.5" font-family="Helvetica,sans-Serif" font-size="10.00">view.FileLoaderScreen.getFile</text>
</a>
</g>
</g>
<!-- Node4&#45;&gt;Node5 -->
<g id="edge4" class="edge"><title>Node4&#45;&gt;Node5</title>
<path fill="none" stroke="midnightblue" d="M606.034,-274C623.114,-274 640.655,-274 657.257,-274"/>
<polygon fill="midnightblue" stroke="midnightblue" points="657.461,-277.5 667.461,-274 657.461,-270.5 657.461,-277.5"/>
</g>
<!-- Node7 -->
<g id="node7" class="node"><title>Node7</title>
<g id="a_node7"><a xlink:href="../../d3/d0a/classview_1_1_file_loader_screen.html#a32abcb410ad28199e0bfcdce0255715b" target="_top" xlink:title="view.FileLoaderScreen.getNode">
<polygon fill="white" stroke="black" points="662.5,-226.5 662.5,-245.5 827.5,-245.5 827.5,-226.5 662.5,-226.5"/>
<text text-anchor="middle" x="745" y="-233.5" font-family="Helvetica,sans-Serif" font-size="10.00">view.FileLoaderScreen.getNode</text>
</a>
</g>
</g>
<!-- Node4&#45;&gt;Node7 -->
<g id="edge6" class="edge"><title>Node4&#45;&gt;Node7</title>
<path fill="none" stroke="midnightblue" d="M597.645,-258.981C622.961,-255.006 649.829,-250.787 673.539,-247.064"/>
<polygon fill="midnightblue" stroke="midnightblue" points="674.158,-250.51 683.494,-245.501 673.072,-243.595 674.158,-250.51"/>
</g>
<!-- Node8 -->
<g id="node8" class="node"><title>Node8</title>
<g id="a_node8"><a xlink:href="../../d6/d7b/classcontroller_1_1_cell_society_controller.html#a643c7ac22f2822fa7e492dbf4267ed21" target="_top" xlink:title="controller.CellSocietyController.readXML">
<polygon fill="white" stroke="black" points="642,-302.5 642,-321.5 848,-321.5 848,-302.5 642,-302.5"/>
<text text-anchor="middle" x="745" y="-309.5" font-family="Helvetica,sans-Serif" font-size="10.00">controller.CellSocietyController.readXML</text>
</a>
</g>
</g>
<!-- Node4&#45;&gt;Node8 -->
<g id="edge7" class="edge"><title>Node4&#45;&gt;Node8</title>
<path fill="none" stroke="midnightblue" d="M606.034,-283.645C640.302,-288.785 676.421,-294.95 703.104,-300.368"/>
<polygon fill="midnightblue" stroke="midnightblue" points="702.7,-303.86 713.205,-302.483 704.134,-297.008 702.7,-303.86"/>
</g>
<!-- Node6 -->
<g id="node6" class="node"><title>Node6</title>
<g id="a_node6"><a xlink:href="../../d3/d0a/classview_1_1_file_loader_screen.html#a97d7c0b9dc021069c17e7f778398f41e" target="_top" xlink:title="view.FileLoaderScreen.configure\lFileChooser">
<polygon fill="white" stroke="black" points="905,-209 905,-239 1073,-239 1073,-209 905,-209"/>
<text text-anchor="start" x="913" y="-227" font-family="Helvetica,sans-Serif" font-size="10.00">view.FileLoaderScreen.configure</text>
<text text-anchor="middle" x="989" y="-216" font-family="Helvetica,sans-Serif" font-size="10.00">FileChooser</text>
</a>
</g>
</g>
<!-- Node5&#45;&gt;Node6 -->
<g id="edge5" class="edge"><title>Node5&#45;&gt;Node6</title>
<path fill="none" stroke="midnightblue" d="M799.006,-264.477C814.792,-261.547 832.115,-258.237 848,-255 868.858,-250.749 891.401,-245.88 912.177,-241.279"/>
<polygon fill="midnightblue" stroke="midnightblue" points="913.217,-244.633 922.219,-239.046 911.698,-237.8 913.217,-244.633"/>
</g>
<!-- Node8&#45;&gt;Node4 -->
<g id="edge10" class="edge"><title>Node8&#45;&gt;Node4</title>
<path fill="none" stroke="midnightblue" d="M641.802,-302.629C617.655,-299.026 592.483,-294.896 570.261,-290.863"/>
<polygon fill="midnightblue" stroke="midnightblue" points="570.742,-287.393 560.273,-289.019 569.471,-294.277 570.742,-287.393"/>
</g>
<!-- Node9 -->
<g id="node9" class="node"><title>Node9</title>
<g id="a_node9"><a xlink:href="../../dc/d47/classcontroller_1_1_x_m_l_parser.html#a841cf5fa54e30325a444ba24fa26c50e" target="_top" xlink:title="controller.XMLParser.getGrid">
<polygon fill="white" stroke="black" points="913.5,-346.5 913.5,-365.5 1064.5,-365.5 1064.5,-346.5 913.5,-346.5"/>
<text text-anchor="middle" x="989" y="-353.5" font-family="Helvetica,sans-Serif" font-size="10.00">controller.XMLParser.getGrid</text>
</a>
</g>
</g>
<!-- Node8&#45;&gt;Node9 -->
<g id="edge8" class="edge"><title>Node8&#45;&gt;Node9</title>
<path fill="none" stroke="midnightblue" d="M798.51,-321.547C835.851,-328.337 886.168,-337.485 925.567,-344.649"/>
<polygon fill="midnightblue" stroke="midnightblue" points="925.127,-348.126 935.592,-346.471 926.38,-341.239 925.127,-348.126"/>
</g>
<!-- Node10 -->
<g id="node10" class="node"><title>Node10</title>
<g id="a_node10"><a xlink:href="../../dc/d47/classcontroller_1_1_x_m_l_parser.html#a0ebd2f6df311d0e2f9f0cd7969ecbe73" target="_top" xlink:title="controller.XMLParser.get\lParameters">
<polygon fill="white" stroke="black" points="923.5,-297 923.5,-327 1054.5,-327 1054.5,-297 923.5,-297"/>
<text text-anchor="start" x="931.5" y="-315" font-family="Helvetica,sans-Serif" font-size="10.00">controller.XMLParser.get</text>
<text text-anchor="middle" x="989" y="-304" font-family="Helvetica,sans-Serif" font-size="10.00">Parameters</text>
</a>
</g>
</g>
<!-- Node8&#45;&gt;Node10 -->
<g id="edge9" class="edge"><title>Node8&#45;&gt;Node10</title>
<path fill="none" stroke="midnightblue" d="M848.279,-312C870.019,-312 892.585,-312 913.078,-312"/>
<polygon fill="midnightblue" stroke="midnightblue" points="913.273,-315.5 923.273,-312 913.273,-308.5 913.273,-315.5"/>
</g>
<!-- Node11 -->
<g id="node11" class="node"><title>Node11</title>
<g id="a_node11"><a xlink:href="../../d6/d7b/classcontroller_1_1_cell_society_controller.html#a3d913ad3344ac48e887110e2fabb5746" target="_top" xlink:title="controller.CellSocietyController.transition\lToSimulation">
<polygon fill="white" stroke="black" points="1394,-211 1394,-241 1604,-241 1604,-211 1394,-211"/>
<text text-anchor="start" x="1402" y="-229" font-family="Helvetica,sans-Serif" font-size="10.00">controller.CellSocietyController.transition</text>
<text text-anchor="middle" x="1499" y="-218" font-family="Helvetica,sans-Serif" font-size="10.00">ToSimulation</text>
</a>
</g>
</g>
<!-- Node8&#45;&gt;Node11 -->
<g id="edge11" class="edge"><title>Node8&#45;&gt;Node11</title>
<path fill="none" stroke="midnightblue" d="M797.516,-302.461C833.036,-295.92 875.349,-288.211 884,-287 1057.61,-262.69 1260.17,-244.533 1383.72,-234.597"/>
<polygon fill="midnightblue" stroke="midnightblue" points="1384.26,-238.065 1393.95,-233.778 1383.7,-231.087 1384.26,-238.065"/>
</g>
<!-- Node12 -->
<g id="node12" class="node"><title>Node12</title>
<g id="a_node12"><a xlink:href="../../d6/d7b/classcontroller_1_1_cell_society_controller.html#a8af25de87ececa5ca913e7b5af486b3f" target="_top" xlink:title="controller.CellSocietyController.initialize\lSimulation">
<polygon fill="white" stroke="black" points="1640.5,-260 1640.5,-290 1843.5,-290 1843.5,-260 1640.5,-260"/>
<text text-anchor="start" x="1648.5" y="-278" font-family="Helvetica,sans-Serif" font-size="10.00">controller.CellSocietyController.initialize</text>
<text text-anchor="middle" x="1742" y="-267" font-family="Helvetica,sans-Serif" font-size="10.00">Simulation</text>
</a>
</g>
</g>
<!-- Node11&#45;&gt;Node12 -->
<g id="edge12" class="edge"><title>Node11&#45;&gt;Node12</title>
<path fill="none" stroke="midnightblue" d="M1573.95,-241.035C1600.32,-246.396 1630.2,-252.473 1657.33,-257.989"/>
<polygon fill="midnightblue" stroke="midnightblue" points="1656.7,-261.431 1667.19,-259.994 1658.09,-254.571 1656.7,-261.431"/>
</g>
<!-- Node13 -->
<g id="node13" class="node"><title>Node13</title>
<g id="a_node13"><a xlink:href="../../d6/d7b/classcontroller_1_1_cell_society_controller.html#af6b4eb647c4e76fef6f27cc61ced4d9a" target="_top" xlink:title="controller.CellSocietyController.initialize\lSimulationScreen">
<polygon fill="white" stroke="black" points="1640.5,-211 1640.5,-241 1843.5,-241 1843.5,-211 1640.5,-211"/>
<text text-anchor="start" x="1648.5" y="-229" font-family="Helvetica,sans-Serif" font-size="10.00">controller.CellSocietyController.initialize</text>
<text text-anchor="middle" x="1742" y="-218" font-family="Helvetica,sans-Serif" font-size="10.00">SimulationScreen</text>
</a>
</g>
</g>
<!-- Node11&#45;&gt;Node13 -->
<g id="edge13" class="edge"><title>Node11&#45;&gt;Node13</title>
<path fill="none" stroke="midnightblue" d="M1604.3,-226C1612.9,-226 1621.61,-226 1630.25,-226"/>
<polygon fill="midnightblue" stroke="midnightblue" points="1630.35,-229.5 1640.35,-226 1630.35,-222.5 1630.35,-229.5"/>
</g>
<!-- Node17 -->
<g id="node17" class="node"><title>Node17</title>
<g id="a_node17"><a xlink:href="../../d6/d7b/classcontroller_1_1_cell_society_controller.html#a7609d9a174ff7d2d00fc27e3574cdb21" target="_top" xlink:title="controller.CellSocietyController.stop\lOrStart">
<polygon fill="white" stroke="black" points="1649,-162 1649,-192 1835,-192 1835,-162 1649,-162"/>
<text text-anchor="start" x="1657" y="-180" font-family="Helvetica,sans-Serif" font-size="10.00">controller.CellSocietyController.stop</text>
<text text-anchor="middle" x="1742" y="-169" font-family="Helvetica,sans-Serif" font-size="10.00">OrStart</text>
</a>
</g>
</g>
<!-- Node11&#45;&gt;Node17 -->
<g id="edge17" class="edge"><title>Node11&#45;&gt;Node17</title>
<path fill="none" stroke="midnightblue" d="M1573.95,-210.965C1600.32,-205.604 1630.2,-199.527 1657.33,-194.011"/>
<polygon fill="midnightblue" stroke="midnightblue" points="1658.09,-197.429 1667.19,-192.006 1656.7,-190.569 1658.09,-197.429"/>
</g>
<!-- Node14 -->
<g id="node14" class="node"><title>Node14</title>
<g id="a_node14"><a xlink:href="../../d1/d3e/classview_1_1_simulation_screen.html#a482a021910f4b997fb7b798bdc363df4" target="_top" xlink:title="view.SimulationScreen.getNode">
<polygon fill="white" stroke="black" points="1895,-260.5 1895,-279.5 2063,-279.5 2063,-260.5 1895,-260.5"/>
<text text-anchor="middle" x="1979" y="-267.5" font-family="Helvetica,sans-Serif" font-size="10.00">view.SimulationScreen.getNode</text>
</a>
</g>
</g>
<!-- Node13&#45;&gt;Node14 -->
<g id="edge14" class="edge"><title>Node13&#45;&gt;Node14</title>
<path fill="none" stroke="midnightblue" d="M1823.22,-241.019C1854.02,-246.787 1888.64,-253.269 1917.32,-258.638"/>
<polygon fill="midnightblue" stroke="midnightblue" points="1916.72,-262.087 1927.2,-260.488 1918.01,-255.207 1916.72,-262.087"/>
</g>
<!-- Node15 -->
<g id="node15" class="node"><title>Node15</title>
<g id="a_node15"><a xlink:href="../../d1/d3e/classview_1_1_simulation_screen.html#a6c9f5c7e36be620d06e55709bc256d18" target="_top" xlink:title="view.SimulationScreen.init\lSimScreen">
<polygon fill="white" stroke="black" points="1908.5,-211 1908.5,-241 2049.5,-241 2049.5,-211 1908.5,-211"/>
<text text-anchor="start" x="1916.5" y="-229" font-family="Helvetica,sans-Serif" font-size="10.00">view.SimulationScreen.init</text>
<text text-anchor="middle" x="1979" y="-218" font-family="Helvetica,sans-Serif" font-size="10.00">SimScreen</text>
</a>
</g>
</g>
<!-- Node13&#45;&gt;Node15 -->
<g id="edge15" class="edge"><title>Node13&#45;&gt;Node15</title>
<path fill="none" stroke="midnightblue" d="M1843.68,-226C1861.91,-226 1880.68,-226 1898.21,-226"/>
<polygon fill="midnightblue" stroke="midnightblue" points="1898.37,-229.5 1908.37,-226 1898.37,-222.5 1898.37,-229.5"/>
</g>
<!-- Node16 -->
<g id="node16" class="node"><title>Node16</title>
<g id="a_node16"><a xlink:href="../../d1/d3e/classview_1_1_simulation_screen.html#a7144a80861195f360ade7612b479ff3e" target="_top" xlink:title="view.SimulationScreen.add\lButtons">
<polygon fill="white" stroke="black" points="2114.5,-211 2114.5,-241 2259.5,-241 2259.5,-211 2114.5,-211"/>
<text text-anchor="start" x="2122.5" y="-229" font-family="Helvetica,sans-Serif" font-size="10.00">view.SimulationScreen.add</text>
<text text-anchor="middle" x="2187" y="-218" font-family="Helvetica,sans-Serif" font-size="10.00">Buttons</text>
</a>
</g>
</g>
<!-- Node15&#45;&gt;Node16 -->
<g id="edge16" class="edge"><title>Node15&#45;&gt;Node16</title>
<path fill="none" stroke="midnightblue" d="M2049.74,-226C2067.19,-226 2086.07,-226 2104.05,-226"/>
<polygon fill="midnightblue" stroke="midnightblue" points="2104.22,-229.5 2114.22,-226 2104.22,-222.5 2104.22,-229.5"/>
</g>
<!-- Node18 -->
<g id="node18" class="node"><title>Node18</title>
<g id="a_node18"><a xlink:href="../../d6/d7b/classcontroller_1_1_cell_society_controller.html#a33e7a77467ceeb880526a1b405b3ee79" target="_top" xlink:title="controller.CellSocietyController.pause\lSimulation">
<polygon fill="white" stroke="black" points="1882,-162 1882,-192 2076,-192 2076,-162 1882,-162"/>
<text text-anchor="start" x="1890" y="-180" font-family="Helvetica,sans-Serif" font-size="10.00">controller.CellSocietyController.pause</text>
<text text-anchor="middle" x="1979" y="-169" font-family="Helvetica,sans-Serif" font-size="10.00">Simulation</text>
</a>
</g>
</g>
<!-- Node17&#45;&gt;Node18 -->
<g id="edge18" class="edge"><title>Node17&#45;&gt;Node18</title>
<path fill="none" stroke="midnightblue" d="M1835.2,-177C1847.16,-177 1859.48,-177 1871.64,-177"/>
<polygon fill="midnightblue" stroke="midnightblue" points="1871.81,-180.5 1881.81,-177 1871.81,-173.5 1871.81,-180.5"/>
</g>
<!-- Node19 -->
<g id="node19" class="node"><title>Node19</title>
<g id="a_node19"><a xlink:href="../../d6/d7b/classcontroller_1_1_cell_society_controller.html#aec38c45810ee2665fe01832114fbc68d" target="_top" xlink:title="controller.CellSocietyController.restart\lSimulation">
<polygon fill="white" stroke="black" points="1880.5,-113 1880.5,-143 2077.5,-143 2077.5,-113 1880.5,-113"/>
<text text-anchor="start" x="1888.5" y="-131" font-family="Helvetica,sans-Serif" font-size="10.00">controller.CellSocietyController.restart</text>
<text text-anchor="middle" x="1979" y="-120" font-family="Helvetica,sans-Serif" font-size="10.00">Simulation</text>
</a>
</g>
</g>
<!-- Node17&#45;&gt;Node19 -->
<g id="edge19" class="edge"><title>Node17&#45;&gt;Node19</title>
<path fill="none" stroke="midnightblue" d="M1815.1,-161.965C1840.71,-156.627 1869.71,-150.58 1896.07,-145.083"/>
<polygon fill="midnightblue" stroke="midnightblue" points="1896.96,-148.474 1906.03,-143.006 1895.53,-141.621 1896.96,-148.474"/>
</g>
<!-- Node20&#45;&gt;Node3 -->
<g id="edge34" class="edge"><title>Node20&#45;&gt;Node3</title>
<path fill="none" stroke="midnightblue" d="M359.763,-175.349C375.333,-176.864 391.636,-178.451 407.393,-179.985"/>
<polygon fill="midnightblue" stroke="midnightblue" points="407.362,-183.499 417.655,-180.984 408.041,-176.532 407.362,-183.499"/>
</g>
<!-- Node21 -->
<g id="node21" class="node"><title>Node21</title>
<g id="a_node21"><a xlink:href="../../dd/d02/classview_1_1_splash_screen.html#a2f8c52e9a2a790459e51d5d42f16f7da" target="_top" xlink:title="view.SplashScreen.display\lAskInformatio">
<polygon fill="white" stroke="black" points="430.5,-103 430.5,-133 571.5,-133 571.5,-103 430.5,-103"/>
<text text-anchor="start" x="438.5" y="-121" font-family="Helvetica,sans-Serif" font-size="10.00">view.SplashScreen.display</text>
<text text-anchor="middle" x="501" y="-110" font-family="Helvetica,sans-Serif" font-size="10.00">AskInformatio</text>
</a>
</g>
</g>
<!-- Node20&#45;&gt;Node21 -->
<g id="edge21" class="edge"><title>Node20&#45;&gt;Node21</title>
<path fill="none" stroke="midnightblue" d="M343.343,-151.965C367.857,-146.651 395.609,-140.633 420.872,-135.156"/>
<polygon fill="midnightblue" stroke="midnightblue" points="421.757,-138.546 430.788,-133.006 420.273,-131.705 421.757,-138.546"/>
</g>
<!-- Node22 -->
<g id="node22" class="node"><title>Node22</title>
<g id="a_node22"><a xlink:href="../../dd/d02/classview_1_1_splash_screen.html#ae484c2f05f910335ffacddd236eb4908" target="_top" xlink:title="view.SplashScreen.addDimensionsText">
<polygon fill="white" stroke="black" points="644.5,-89.5 644.5,-108.5 845.5,-108.5 845.5,-89.5 644.5,-89.5"/>
<text text-anchor="middle" x="745" y="-96.5" font-family="Helvetica,sans-Serif" font-size="10.00">view.SplashScreen.addDimensionsText</text>
</a>
</g>
</g>
<!-- Node21&#45;&gt;Node22 -->
<g id="edge22" class="edge"><title>Node21&#45;&gt;Node22</title>
<path fill="none" stroke="midnightblue" d="M571.672,-112.53C591.2,-110.997 612.917,-109.292 634.17,-107.623"/>
<polygon fill="midnightblue" stroke="midnightblue" points="634.527,-111.106 644.223,-106.834 633.979,-104.127 634.527,-111.106"/>
</g>
<!-- Node23 -->
<g id="node23" class="node"><title>Node23</title>
<g id="a_node23"><a xlink:href="../../dd/d02/classview_1_1_splash_screen.html#a05478a56856d70fd9508d79ca484fbca" target="_top" xlink:title="view.SplashScreen.addProbabilityText">
<polygon fill="white" stroke="black" points="648,-51.5 648,-70.5 842,-70.5 842,-51.5 648,-51.5"/>
<text text-anchor="middle" x="745" y="-58.5" font-family="Helvetica,sans-Serif" font-size="10.00">view.SplashScreen.addProbabilityText</text>
</a>
</g>
</g>
<!-- Node21&#45;&gt;Node23 -->
<g id="edge23" class="edge"><title>Node21&#45;&gt;Node23</title>
<path fill="none" stroke="midnightblue" d="M553.608,-102.92C579.934,-95.5013 612.537,-86.731 642,-80 653.661,-77.3359 666.136,-74.7754 678.218,-72.4441"/>
<polygon fill="midnightblue" stroke="midnightblue" points="679.074,-75.8442 688.247,-70.5425 677.77,-68.9667 679.074,-75.8442"/>
</g>
<!-- Node29 -->
<g id="node29" class="node"><title>Node29</title>
<g id="a_node29"><a xlink:href="../../dd/d02/classview_1_1_splash_screen.html#ae4427d4a548843b069b35328182187fa" target="_top" xlink:title="view.SplashScreen.addSimulation\lNameText">
<polygon fill="white" stroke="black" points="656.5,-177 656.5,-207 833.5,-207 833.5,-177 656.5,-177"/>
<text text-anchor="start" x="664.5" y="-195" font-family="Helvetica,sans-Serif" font-size="10.00">view.SplashScreen.addSimulation</text>
<text text-anchor="middle" x="745" y="-184" font-family="Helvetica,sans-Serif" font-size="10.00">NameText</text>
</a>
</g>
</g>
<!-- Node21&#45;&gt;Node29 -->
<g id="edge30" class="edge"><title>Node21&#45;&gt;Node29</title>
<path fill="none" stroke="midnightblue" d="M541.797,-133.079C569.636,-143.342 607.809,-156.852 642,-167 650.664,-169.572 659.798,-172.085 668.893,-174.465"/>
<polygon fill="midnightblue" stroke="midnightblue" points="668.168,-177.893 678.725,-176.993 669.911,-171.113 668.168,-177.893"/>
</g>
<!-- Node30 -->
<g id="node30" class="node"><title>Node30</title>
<g id="a_node30"><a xlink:href="../../d6/d7b/classcontroller_1_1_cell_society_controller.html#ab65a8810efbc2b92e17ca77cdc591df9" target="_top" xlink:title="controller.CellSocietyController.generate\lRandomGrid">
<polygon fill="white" stroke="black" points="884.5,-0 884.5,-30 1093.5,-30 1093.5,-0 884.5,-0"/>
<text text-anchor="start" x="892.5" y="-18" font-family="Helvetica,sans-Serif" font-size="10.00">controller.CellSocietyController.generate</text>
<text text-anchor="middle" x="989" y="-7" font-family="Helvetica,sans-Serif" font-size="10.00">RandomGrid</text>
</a>
</g>
</g>
<!-- Node21&#45;&gt;Node30 -->
<g id="edge31" class="edge"><title>Node21&#45;&gt;Node30</title>
<path fill="none" stroke="midnightblue" d="M523.055,-102.865C549.42,-84.8181 596.651,-55.4148 642,-42 717.152,-19.7691 805.26,-13.1587 873.755,-12.0345"/>
<polygon fill="midnightblue" stroke="midnightblue" points="874.19,-15.5294 884.145,-11.9034 874.101,-8.52998 874.19,-15.5294"/>
</g>
<!-- Node31 -->
<g id="node31" class="node"><title>Node31</title>
<g id="a_node31"><a xlink:href="../../dd/d02/classview_1_1_splash_screen.html#ab75deddb521d5727122eec02161acc9d" target="_top" xlink:title="view.SplashScreen.remove\lButtons">
<polygon fill="white" stroke="black" points="672.5,-128 672.5,-158 817.5,-158 817.5,-128 672.5,-128"/>
<text text-anchor="start" x="680.5" y="-146" font-family="Helvetica,sans-Serif" font-size="10.00">view.SplashScreen.remove</text>
<text text-anchor="middle" x="745" y="-135" font-family="Helvetica,sans-Serif" font-size="10.00">Buttons</text>
</a>
</g>
</g>
<!-- Node21&#45;&gt;Node31 -->
<g id="edge33" class="edge"><title>Node21&#45;&gt;Node31</title>
<path fill="none" stroke="midnightblue" d="M571.672,-125.197C599.9,-128.114 632.704,-131.502 662.069,-134.536"/>
<polygon fill="midnightblue" stroke="midnightblue" points="661.992,-138.047 672.299,-135.593 662.712,-131.084 661.992,-138.047"/>
</g>
<!-- Node24 -->
<g id="node24" class="node"><title>Node24</title>
<g id="a_node24"><a xlink:href="../../d6/d7b/classcontroller_1_1_cell_society_controller.html#ada30fdc135cdf08b93065edf15ed3fcc" target="_top" xlink:title="controller.CellSocietyController.generate\lProbabilityRandomGrid">
<polygon fill="white" stroke="black" points="884.5,-98 884.5,-128 1093.5,-128 1093.5,-98 884.5,-98"/>
<text text-anchor="start" x="892.5" y="-116" font-family="Helvetica,sans-Serif" font-size="10.00">controller.CellSocietyController.generate</text>
<text text-anchor="middle" x="989" y="-105" font-family="Helvetica,sans-Serif" font-size="10.00">ProbabilityRandomGrid</text>
</a>
</g>
</g>
<!-- Node23&#45;&gt;Node24 -->
<g id="edge24" class="edge"><title>Node23&#45;&gt;Node24</title>
<path fill="none" stroke="midnightblue" d="M799.825,-70.5334C815.398,-73.425 832.402,-76.7107 848,-80 861.275,-82.7992 888.502,-89.1672 915.445,-95.5701"/>
<polygon fill="midnightblue" stroke="midnightblue" points="914.794,-99.0128 925.333,-97.9241 916.416,-92.2032 914.794,-99.0128"/>
</g>
<!-- Node28 -->
<g id="node28" class="node"><title>Node28</title>
<g id="a_node28"><a xlink:href="../../dd/d02/classview_1_1_splash_screen.html#a1e747e968477f14fbd6d6cd4a508e008" target="_top" xlink:title="view.SplashScreen.remove\lAskScreenNodes">
<polygon fill="white" stroke="black" points="916.5,-49 916.5,-79 1061.5,-79 1061.5,-49 916.5,-49"/>
<text text-anchor="start" x="924.5" y="-67" font-family="Helvetica,sans-Serif" font-size="10.00">view.SplashScreen.remove</text>
<text text-anchor="middle" x="989" y="-56" font-family="Helvetica,sans-Serif" font-size="10.00">AskScreenNodes</text>
</a>
</g>
</g>
<!-- Node23&#45;&gt;Node28 -->
<g id="edge29" class="edge"><title>Node23&#45;&gt;Node28</title>
<path fill="none" stroke="midnightblue" d="M842.34,-62.1943C863.426,-62.4557 885.555,-62.73 906.017,-62.9837"/>
<polygon fill="midnightblue" stroke="midnightblue" points="906.19,-66.486 916.233,-63.1103 906.277,-59.4865 906.19,-66.486"/>
</g>
<!-- Node25 -->
<g id="node25" class="node"><title>Node25</title>
<g id="a_node25"><a xlink:href="../../d6/d7b/classcontroller_1_1_cell_society_controller.html#a41b6379d34f94114f5ada21e3bb8b52e" target="_top" xlink:title="controller.CellSocietyController.generateGrid">
<polygon fill="white" stroke="black" points="1130,-103.5 1130,-122.5 1358,-122.5 1358,-103.5 1130,-103.5"/>
<text text-anchor="middle" x="1244" y="-110.5" font-family="Helvetica,sans-Serif" font-size="10.00">controller.CellSocietyController.generateGrid</text>
</a>
</g>
</g>
<!-- Node24&#45;&gt;Node25 -->
<g id="edge25" class="edge"><title>Node24&#45;&gt;Node25</title>
<path fill="none" stroke="midnightblue" d="M1093.63,-113C1102.17,-113 1110.84,-113 1119.5,-113"/>
<polygon fill="midnightblue" stroke="midnightblue" points="1119.65,-116.5 1129.65,-113 1119.65,-109.5 1119.65,-116.5"/>
</g>
<!-- Node25&#45;&gt;Node11 -->
<g id="edge28" class="edge"><title>Node25&#45;&gt;Node11</title>
<path fill="none" stroke="midnightblue" d="M1266.57,-122.634C1308.17,-141.213 1400.18,-182.309 1454.82,-206.716"/>
<polygon fill="midnightblue" stroke="midnightblue" points="1453.69,-210.041 1464.24,-210.923 1456.54,-203.649 1453.69,-210.041"/>
</g>
<!-- Node26 -->
<g id="node26" class="node"><title>Node26</title>
<g id="a_node26"><a xlink:href="../../d8/dd8/classcontroller_1_1_sim_generator.html#a56410ccebd07c1b6d1a3afb41d7997fc" target="_top" xlink:title="controller.SimGenerator.getGrid">
<polygon fill="white" stroke="black" points="1414.5,-81.5 1414.5,-100.5 1583.5,-100.5 1583.5,-81.5 1414.5,-81.5"/>
<text text-anchor="middle" x="1499" y="-88.5" font-family="Helvetica,sans-Serif" font-size="10.00">controller.SimGenerator.getGrid</text>
</a>
</g>
</g>
<!-- Node25&#45;&gt;Node26 -->
<g id="edge26" class="edge"><title>Node25&#45;&gt;Node26</title>
<path fill="none" stroke="midnightblue" d="M1354.5,-103.478C1371.09,-102.036 1388.07,-100.559 1404.29,-99.1489"/>
<polygon fill="midnightblue" stroke="midnightblue" points="1404.61,-102.634 1414.27,-98.2806 1404.01,-95.6601 1404.61,-102.634"/>
</g>
<!-- Node27 -->
<g id="node27" class="node"><title>Node27</title>
<g id="a_node27"><a xlink:href="../../d8/dd8/classcontroller_1_1_sim_generator.html#a9fd6cebed37c16aad5e70dc966ac9fb5" target="_top" xlink:title="controller.SimGenerator.get\lParameters">
<polygon fill="white" stroke="black" points="1424.5,-120 1424.5,-150 1573.5,-150 1573.5,-120 1424.5,-120"/>
<text text-anchor="start" x="1432.5" y="-138" font-family="Helvetica,sans-Serif" font-size="10.00">controller.SimGenerator.get</text>
<text text-anchor="middle" x="1499" y="-127" font-family="Helvetica,sans-Serif" font-size="10.00">Parameters</text>
</a>
</g>
</g>
<!-- Node25&#45;&gt;Node27 -->
<g id="edge27" class="edge"><title>Node25&#45;&gt;Node27</title>
<path fill="none" stroke="midnightblue" d="M1354.5,-122.522C1374.53,-124.264 1395.15,-126.057 1414.29,-127.721"/>
<polygon fill="midnightblue" stroke="midnightblue" points="1414.18,-131.225 1424.45,-128.604 1414.79,-124.251 1414.18,-131.225"/>
</g>
<!-- Node30&#45;&gt;Node25 -->
<g id="edge32" class="edge"><title>Node30&#45;&gt;Node25</title>
<path fill="none" stroke="midnightblue" d="M1064.75,-30.0197C1074.69,-32.6642 1084.67,-35.6577 1094,-39 1139.44,-55.2723 1189.05,-81.8326 1218.02,-98.3157"/>
<polygon fill="midnightblue" stroke="midnightblue" points="1216.6,-101.539 1227.02,-103.49 1220.09,-95.4707 1216.6,-101.539"/>
</g>
<!-- Node32&#45;&gt;Node3 -->
<g id="edge37" class="edge"><title>Node32&#45;&gt;Node3</title>
<path fill="none" stroke="midnightblue" d="M329.638,-133.073C339.767,-135.946 350.22,-138.996 360,-142 395.252,-152.828 435.087,-166.326 463.226,-176.075"/>
<polygon fill="midnightblue" stroke="midnightblue" points="462.439,-179.507 473.034,-179.485 464.738,-172.895 462.439,-179.507"/>
</g>
<!-- Node32&#45;&gt;Node21 -->
<g id="edge36" class="edge"><title>Node32&#45;&gt;Node21</title>
<path fill="none" stroke="midnightblue" d="M356.231,-118C377.163,-118 399.621,-118 420.419,-118"/>
<polygon fill="midnightblue" stroke="midnightblue" points="420.482,-121.5 430.482,-118 420.482,-114.5 420.482,-121.5"/>
</g>
<!-- Node33&#45;&gt;Node3 -->
<g id="edge39" class="edge"><title>Node33&#45;&gt;Node3</title>
<path fill="none" stroke="midnightblue" d="M346.129,-203.979C365.779,-202.066 387.334,-199.967 407.928,-197.963"/>
<polygon fill="midnightblue" stroke="midnightblue" points="408.334,-201.44 417.948,-196.987 407.656,-194.473 408.334,-201.44"/>
</g>
</g>
</svg>
