<?xml version="1.0" encoding="UTF-8" standalone="no"?>
<!DOCTYPE svg PUBLIC "-//W3C//DTD SVG 1.1//EN"
 "http://www.w3.org/Graphics/SVG/1.1/DTD/svg11.dtd">
<!-- Generated by graphviz version 2.36.0 (20140111.2315)
 -->
<!-- Title: view.SplashScreen.addLoadButton Pages: 1 -->
<!--zoomable 273 -->
<svg id="main" version="1.1" xmlns="http://www.w3.org/2000/svg" xmlns:xlink="http://www.w3.org/1999/xlink" xml:space="preserve" onload="init(evt)">
<style type="text/css"><![CDATA[
.edge:hover path { stroke: red; }
.edge:hover polygon { stroke: red; fill: red; }
]]></style>
<script type="text/javascript"><![CDATA[
var edges = document.getElementsByTagName('g');
if (edges && edges.length) {
  for (var i=0;i<edges.length;i++) {
    if (edges[i].id.substr(0,4)=='edge') {
      edges[i].setAttribute('class','edge');
    }
  }
}
]]></script>
        <defs>
                <circle id="rim" cx="0" cy="0" r="7"/>
                <circle id="rim2" cx="0" cy="0" r="3.5"/>
                <g id="zoomPlus">
                        <use xlink:href="#rim" fill="#404040">
                                <set attributeName="fill" to="#808080" begin="zoomplus.mouseover" end="zoomplus.mouseout"/>
                        </use>
                        <path d="M-4,0h8M0,-4v8" fill="none" stroke="white" stroke-width="1.5" pointer-events="none"/>
                </g>
                <g id="zoomMin">
                        <use xlink:href="#rim" fill="#404040">
                                <set attributeName="fill" to="#808080" begin="zoomminus.mouseover" end="zoomminus.mouseout"/>
                        </use>
                        <path d="M-4,0h8" fill="none" stroke="white" stroke-width="1.5" pointer-events="none"/>
                </g>
                <g id="dirArrow">
                        <path fill="none" stroke="white" stroke-width="1.5" d="M0,-3.0v7 M-2.5,-0.5L0,-3.0L2.5,-0.5"/>
                </g>
               <g id="resetDef">
                       <use xlink:href="#rim2" fill="#404040">
                               <set attributeName="fill" to="#808080" begin="reset.mouseover" end="reset.mouseout"/>
                       </use>
               </g>
        </defs>

<script type="text/javascript">
var viewWidth = 1548;
var viewHeight = 273;
var sectionId = 'dynsection-2';
</script>
<script xlink:href="../../svgpan.js"/>
<svg id="graph" class="graph">
<g id="viewport">
<title>view.SplashScreen.addLoadButton</title>
<polygon fill="white" stroke="none" points="-4,4 -4,-269 1544,-269 1544,4 -4,4"/>
<!-- Node1 -->
<g id="node1" class="node"><title>Node1</title>
<polygon fill="#bfbfbf" stroke="black" points="0.5,-191 0.5,-221 149.5,-221 149.5,-191 0.5,-191"/>
<text text-anchor="start" x="8.5" y="-209" font-family="Helvetica,sans-Serif" font-size="10.00">view.SplashScreen.addLoad</text>
<text text-anchor="middle" x="75" y="-198" font-family="Helvetica,sans-Serif" font-size="10.00">Button</text>
</g>
<!-- Node2 -->
<g id="node2" class="node"><title>Node2</title>
<g id="a_node2"><a xlink:href="../../dd/d02/classview_1_1_splash_screen.html#a329982556dc38c022b2b8c10347e34bd" target="_top" xlink:title="view.SplashScreen.formatNode">
<polygon fill="white" stroke="black" points="208,-218.5 208,-237.5 374,-237.5 374,-218.5 208,-218.5"/>
<text text-anchor="middle" x="291" y="-225.5" font-family="Helvetica,sans-Serif" font-size="10.00">view.SplashScreen.formatNode</text>
</a>
</g>
</g>
<!-- Node1&#45;&gt;Node2 -->
<g id="edge1" class="edge"><title>Node1&#45;&gt;Node2</title>
<path fill="none" stroke="midnightblue" d="M149.647,-213.571C165.166,-215.167 181.725,-216.869 197.827,-218.524"/>
<polygon fill="midnightblue" stroke="midnightblue" points="197.475,-222.006 207.781,-219.548 198.191,-215.043 197.475,-222.006"/>
</g>
<!-- Node3 -->
<g id="node3" class="node"><title>Node3</title>
<g id="a_node3"><a xlink:href="../../d6/d7b/classcontroller_1_1_cell_society_controller.html#afbdf9a63e15a2bfa878dcfe5ed3ef6dc" target="_top" xlink:title="controller.CellSocietyController.transition\lToFileLoaderScreen">
<polygon fill="white" stroke="black" points="186,-169 186,-199 396,-199 396,-169 186,-169"/>
<text text-anchor="start" x="194" y="-187" font-family="Helvetica,sans-Serif" font-size="10.00">controller.CellSocietyController.transition</text>
<text text-anchor="middle" x="291" y="-176" font-family="Helvetica,sans-Serif" font-size="10.00">ToFileLoaderScreen</text>
</a>
</g>
</g>
<!-- Node1&#45;&gt;Node3 -->
<g id="edge2" class="edge"><title>Node1&#45;&gt;Node3</title>
<path fill="none" stroke="midnightblue" d="M149.647,-198.429C158.168,-197.553 167.002,-196.645 175.902,-195.73"/>
<polygon fill="midnightblue" stroke="midnightblue" points="176.376,-199.2 185.965,-194.695 175.66,-192.236 176.376,-199.2"/>
</g>
<!-- Node4 -->
<g id="node4" class="node"><title>Node4</title>
<g id="a_node4"><a xlink:href="../../d3/d0a/classview_1_1_file_loader_screen.html#a196dd45848fbdf09ac100c343b6515cd" target="_top" xlink:title="view.FileLoaderScreen.getFile">
<polygon fill="white" stroke="black" points="457.5,-237.5 457.5,-256.5 612.5,-256.5 612.5,-237.5 457.5,-237.5"/>
<text text-anchor="middle" x="535" y="-244.5" font-family="Helvetica,sans-Serif" font-size="10.00">view.FileLoaderScreen.getFile</text>
</a>
</g>
</g>
<!-- Node3&#45;&gt;Node4 -->
<g id="edge3" class="edge"><title>Node3&#45;&gt;Node4</title>
<path fill="none" stroke="midnightblue" d="M359.426,-199.056C371.661,-202.115 384.26,-205.481 396,-209 412.295,-213.884 415.716,-217.079 432,-222 447.677,-226.737 464.91,-231.228 480.678,-235.062"/>
<polygon fill="midnightblue" stroke="midnightblue" points="480.256,-238.56 490.796,-237.483 481.885,-231.752 480.256,-238.56"/>
</g>
<!-- Node6 -->
<g id="node6" class="node"><title>Node6</title>
<g id="a_node6"><a xlink:href="../../d3/d0a/classview_1_1_file_loader_screen.html#a32abcb410ad28199e0bfcdce0255715b" target="_top" xlink:title="view.FileLoaderScreen.getNode">
<polygon fill="white" stroke="black" points="452.5,-193.5 452.5,-212.5 617.5,-212.5 617.5,-193.5 452.5,-193.5"/>
<text text-anchor="middle" x="535" y="-200.5" font-family="Helvetica,sans-Serif" font-size="10.00">view.FileLoaderScreen.getNode</text>
</a>
</g>
</g>
<!-- Node3&#45;&gt;Node6 -->
<g id="edge5" class="edge"><title>Node3&#45;&gt;Node6</title>
<path fill="none" stroke="midnightblue" d="M396.034,-192.168C411.335,-193.369 427.005,-194.6 442.039,-195.78"/>
<polygon fill="midnightblue" stroke="midnightblue" points="442.09,-199.295 452.333,-196.588 442.638,-192.316 442.09,-199.295"/>
</g>
<!-- Node7 -->
<g id="node7" class="node"><title>Node7</title>
<g id="a_node7"><a xlink:href="../../d6/d7b/classcontroller_1_1_cell_society_controller.html#a643c7ac22f2822fa7e492dbf4267ed21" target="_top" xlink:title="controller.CellSocietyController.readXML">
<polygon fill="white" stroke="black" points="432,-155.5 432,-174.5 638,-174.5 638,-155.5 432,-155.5"/>
<text text-anchor="middle" x="535" y="-162.5" font-family="Helvetica,sans-Serif" font-size="10.00">controller.CellSocietyController.readXML</text>
</a>
</g>
</g>
<!-- Node3&#45;&gt;Node7 -->
<g id="edge6" class="edge"><title>Node3&#45;&gt;Node7</title>
<path fill="none" stroke="midnightblue" d="M396.034,-169.141C404.597,-168.409 413.276,-167.713 421.894,-167.068"/>
<polygon fill="midnightblue" stroke="midnightblue" points="422.253,-170.551 431.973,-166.335 421.745,-163.57 422.253,-170.551"/>
</g>
<!-- Node5 -->
<g id="node5" class="node"><title>Node5</title>
<g id="a_node5"><a xlink:href="../../d3/d0a/classview_1_1_file_loader_screen.html#a97d7c0b9dc021069c17e7f778398f41e" target="_top" xlink:title="view.FileLoaderScreen.configure\lFileChooser">
<polygon fill="white" stroke="black" points="695,-235 695,-265 863,-265 863,-235 695,-235"/>
<text text-anchor="start" x="703" y="-253" font-family="Helvetica,sans-Serif" font-size="10.00">view.FileLoaderScreen.configure</text>
<text text-anchor="middle" x="779" y="-242" font-family="Helvetica,sans-Serif" font-size="10.00">FileChooser</text>
</a>
</g>
</g>
<!-- Node4&#45;&gt;Node5 -->
<g id="edge4" class="edge"><title>Node4&#45;&gt;Node5</title>
<path fill="none" stroke="midnightblue" d="M612.57,-247.949C635.47,-248.233 660.836,-248.548 684.685,-248.843"/>
<polygon fill="midnightblue" stroke="midnightblue" points="684.759,-252.344 694.802,-248.969 684.846,-245.345 684.759,-252.344"/>
</g>
<!-- Node7&#45;&gt;Node3 -->
<g id="edge9" class="edge"><title>Node7&#45;&gt;Node3</title>
<path fill="none" stroke="midnightblue" d="M483.949,-174.519C461.265,-177.145 433.436,-179.713 406.081,-181.783"/>
<polygon fill="midnightblue" stroke="midnightblue" points="405.75,-178.298 396.034,-182.523 406.264,-185.279 405.75,-178.298"/>
</g>
<!-- Node8 -->
<g id="node8" class="node"><title>Node8</title>
<g id="a_node8"><a xlink:href="../../dc/d47/classcontroller_1_1_x_m_l_parser.html#a841cf5fa54e30325a444ba24fa26c50e" target="_top" xlink:title="controller.XMLParser.getGrid">
<polygon fill="white" stroke="black" points="703.5,-196.5 703.5,-215.5 854.5,-215.5 854.5,-196.5 703.5,-196.5"/>
<text text-anchor="middle" x="779" y="-203.5" font-family="Helvetica,sans-Serif" font-size="10.00">controller.XMLParser.getGrid</text>
</a>
</g>
</g>
<!-- Node7&#45;&gt;Node8 -->
<g id="edge7" class="edge"><title>Node7&#45;&gt;Node8</title>
<path fill="none" stroke="midnightblue" d="M592.128,-174.509C627.736,-180.542 673.986,-188.378 711.443,-194.724"/>
<polygon fill="midnightblue" stroke="midnightblue" points="711.314,-198.252 721.758,-196.471 712.483,-191.35 711.314,-198.252"/>
</g>
<!-- Node9 -->
<g id="node9" class="node"><title>Node9</title>
<g id="a_node9"><a xlink:href="../../dc/d47/classcontroller_1_1_x_m_l_parser.html#a0ebd2f6df311d0e2f9f0cd7969ecbe73" target="_top" xlink:title="controller.XMLParser.get\lParameters">
<polygon fill="white" stroke="black" points="713.5,-147 713.5,-177 844.5,-177 844.5,-147 713.5,-147"/>
<text text-anchor="start" x="721.5" y="-165" font-family="Helvetica,sans-Serif" font-size="10.00">controller.XMLParser.get</text>
<text text-anchor="middle" x="779" y="-154" font-family="Helvetica,sans-Serif" font-size="10.00">Parameters</text>
</a>
</g>
</g>
<!-- Node7&#45;&gt;Node9 -->
<g id="edge8" class="edge"><title>Node7&#45;&gt;Node9</title>
<path fill="none" stroke="midnightblue" d="M638.279,-163.732C660.019,-163.463 682.585,-163.183 703.078,-162.929"/>
<polygon fill="midnightblue" stroke="midnightblue" points="703.317,-166.426 713.273,-162.802 703.231,-159.427 703.317,-166.426"/>
</g>
<!-- Node10 -->
<g id="node10" class="node"><title>Node10</title>
<g id="a_node10"><a xlink:href="../../d6/d7b/classcontroller_1_1_cell_society_controller.html#a3d913ad3344ac48e887110e2fabb5746" target="_top" xlink:title="controller.CellSocietyController.transition\lToSimulation">
<polygon fill="white" stroke="black" points="674,-98 674,-128 884,-128 884,-98 674,-98"/>
<text text-anchor="start" x="682" y="-116" font-family="Helvetica,sans-Serif" font-size="10.00">controller.CellSocietyController.transition</text>
<text text-anchor="middle" x="779" y="-105" font-family="Helvetica,sans-Serif" font-size="10.00">ToSimulation</text>
</a>
</g>
</g>
<!-- Node7&#45;&gt;Node10 -->
<g id="edge10" class="edge"><title>Node7&#45;&gt;Node10</title>
<path fill="none" stroke="midnightblue" d="M580.387,-155.462C613.218,-148.408 658.834,-138.606 697.967,-130.197"/>
<polygon fill="midnightblue" stroke="midnightblue" points="698.723,-133.615 707.765,-128.092 697.253,-126.771 698.723,-133.615"/>
</g>
<!-- Node11 -->
<g id="node11" class="node"><title>Node11</title>
<g id="a_node11"><a xlink:href="../../d6/d7b/classcontroller_1_1_cell_society_controller.html#a8af25de87ececa5ca913e7b5af486b3f" target="_top" xlink:title="controller.CellSocietyController.initialize\lSimulation">
<polygon fill="white" stroke="black" points="920.5,-147 920.5,-177 1123.5,-177 1123.5,-147 920.5,-147"/>
<text text-anchor="start" x="928.5" y="-165" font-family="Helvetica,sans-Serif" font-size="10.00">controller.CellSocietyController.initialize</text>
<text text-anchor="middle" x="1022" y="-154" font-family="Helvetica,sans-Serif" font-size="10.00">Simulation</text>
</a>
</g>
</g>
<!-- Node10&#45;&gt;Node11 -->
<g id="edge11" class="edge"><title>Node10&#45;&gt;Node11</title>
<path fill="none" stroke="midnightblue" d="M853.946,-128.035C880.317,-133.396 910.204,-139.473 937.335,-144.989"/>
<polygon fill="midnightblue" stroke="midnightblue" points="936.697,-148.431 947.194,-146.994 938.092,-141.571 936.697,-148.431"/>
</g>
<!-- Node12 -->
<g id="node12" class="node"><title>Node12</title>
<g id="a_node12"><a xlink:href="../../d6/d7b/classcontroller_1_1_cell_society_controller.html#af6b4eb647c4e76fef6f27cc61ced4d9a" target="_top" xlink:title="controller.CellSocietyController.initialize\lSimulationScreen">
<polygon fill="white" stroke="black" points="920.5,-98 920.5,-128 1123.5,-128 1123.5,-98 920.5,-98"/>
<text text-anchor="start" x="928.5" y="-116" font-family="Helvetica,sans-Serif" font-size="10.00">controller.CellSocietyController.initialize</text>
<text text-anchor="middle" x="1022" y="-105" font-family="Helvetica,sans-Serif" font-size="10.00">SimulationScreen</text>
</a>
</g>
</g>
<!-- Node10&#45;&gt;Node12 -->
<g id="edge12" class="edge"><title>Node10&#45;&gt;Node12</title>
<path fill="none" stroke="midnightblue" d="M884.304,-113C892.899,-113 901.606,-113 910.246,-113"/>
<polygon fill="midnightblue" stroke="midnightblue" points="910.346,-116.5 920.346,-113 910.346,-109.5 910.346,-116.5"/>
</g>
<!-- Node16 -->
<g id="node16" class="node"><title>Node16</title>
<g id="a_node16"><a xlink:href="../../d6/d7b/classcontroller_1_1_cell_society_controller.html#a7609d9a174ff7d2d00fc27e3574cdb21" target="_top" xlink:title="controller.CellSocietyController.stop\lOrStart">
<polygon fill="white" stroke="black" points="929,-49 929,-79 1115,-79 1115,-49 929,-49"/>
<text text-anchor="start" x="937" y="-67" font-family="Helvetica,sans-Serif" font-size="10.00">controller.CellSocietyController.stop</text>
<text text-anchor="middle" x="1022" y="-56" font-family="Helvetica,sans-Serif" font-size="10.00">OrStart</text>
</a>
</g>
</g>
<!-- Node10&#45;&gt;Node16 -->
<g id="edge16" class="edge"><title>Node10&#45;&gt;Node16</title>
<path fill="none" stroke="midnightblue" d="M853.946,-97.9654C880.317,-92.6035 910.204,-86.5269 937.335,-81.0108"/>
<polygon fill="midnightblue" stroke="midnightblue" points="938.092,-84.4285 947.194,-79.0062 936.697,-77.5689 938.092,-84.4285"/>
</g>
<!-- Node13 -->
<g id="node13" class="node"><title>Node13</title>
<g id="a_node13"><a xlink:href="../../d1/d3e/classview_1_1_simulation_screen.html#a482a021910f4b997fb7b798bdc363df4" target="_top" xlink:title="view.SimulationScreen.getNode">
<polygon fill="white" stroke="black" points="1175,-147.5 1175,-166.5 1343,-166.5 1343,-147.5 1175,-147.5"/>
<text text-anchor="middle" x="1259" y="-154.5" font-family="Helvetica,sans-Serif" font-size="10.00">view.SimulationScreen.getNode</text>
</a>
</g>
</g>
<!-- Node12&#45;&gt;Node13 -->
<g id="edge13" class="edge"><title>Node12&#45;&gt;Node13</title>
<path fill="none" stroke="midnightblue" d="M1103.22,-128.019C1134.02,-133.787 1168.64,-140.269 1197.32,-145.638"/>
<polygon fill="midnightblue" stroke="midnightblue" points="1196.72,-149.087 1207.2,-147.488 1198.01,-142.207 1196.72,-149.087"/>
</g>
<!-- Node14 -->
<g id="node14" class="node"><title>Node14</title>
<g id="a_node14"><a xlink:href="../../d1/d3e/classview_1_1_simulation_screen.html#a6c9f5c7e36be620d06e55709bc256d18" target="_top" xlink:title="view.SimulationScreen.init\lSimScreen">
<polygon fill="white" stroke="black" points="1188.5,-98 1188.5,-128 1329.5,-128 1329.5,-98 1188.5,-98"/>
<text text-anchor="start" x="1196.5" y="-116" font-family="Helvetica,sans-Serif" font-size="10.00">view.SimulationScreen.init</text>
<text text-anchor="middle" x="1259" y="-105" font-family="Helvetica,sans-Serif" font-size="10.00">SimScreen</text>
</a>
</g>
</g>
<!-- Node12&#45;&gt;Node14 -->
<g id="edge14" class="edge"><title>Node12&#45;&gt;Node14</title>
<path fill="none" stroke="midnightblue" d="M1123.68,-113C1141.91,-113 1160.68,-113 1178.21,-113"/>
<polygon fill="midnightblue" stroke="midnightblue" points="1178.37,-116.5 1188.37,-113 1178.37,-109.5 1178.37,-116.5"/>
</g>
<!-- Node15 -->
<g id="node15" class="node"><title>Node15</title>
<g id="a_node15"><a xlink:href="../../d1/d3e/classview_1_1_simulation_screen.html#a7144a80861195f360ade7612b479ff3e" target="_top" xlink:title="view.SimulationScreen.add\lButtons">
<polygon fill="white" stroke="black" points="1394.5,-98 1394.5,-128 1539.5,-128 1539.5,-98 1394.5,-98"/>
<text text-anchor="start" x="1402.5" y="-116" font-family="Helvetica,sans-Serif" font-size="10.00">view.SimulationScreen.add</text>
<text text-anchor="middle" x="1467" y="-105" font-family="Helvetica,sans-Serif" font-size="10.00">Buttons</text>
</a>
</g>
</g>
<!-- Node14&#45;&gt;Node15 -->
<g id="edge15" class="edge"><title>Node14&#45;&gt;Node15</title>
<path fill="none" stroke="midnightblue" d="M1329.74,-113C1347.19,-113 1366.07,-113 1384.05,-113"/>
<polygon fill="midnightblue" stroke="midnightblue" points="1384.22,-116.5 1394.22,-113 1384.22,-109.5 1384.22,-116.5"/>
</g>
<!-- Node17 -->
<g id="node17" class="node"><title>Node17</title>
<g id="a_node17"><a xlink:href="../../d6/d7b/classcontroller_1_1_cell_society_controller.html#a33e7a77467ceeb880526a1b405b3ee79" target="_top" xlink:title="controller.CellSocietyController.pause\lSimulation">
<polygon fill="white" stroke="black" points="1162,-49 1162,-79 1356,-79 1356,-49 1162,-49"/>
<text text-anchor="start" x="1170" y="-67" font-family="Helvetica,sans-Serif" font-size="10.00">controller.CellSocietyController.pause</text>
<text text-anchor="middle" x="1259" y="-56" font-family="Helvetica,sans-Serif" font-size="10.00">Simulation</text>
</a>
</g>
</g>
<!-- Node16&#45;&gt;Node17 -->
<g id="edge17" class="edge"><title>Node16&#45;&gt;Node17</title>
<path fill="none" stroke="midnightblue" d="M1115.2,-64C1127.16,-64 1139.48,-64 1151.64,-64"/>
<polygon fill="midnightblue" stroke="midnightblue" points="1151.81,-67.5001 1161.81,-64 1151.81,-60.5001 1151.81,-67.5001"/>
</g>
<!-- Node18 -->
<g id="node18" class="node"><title>Node18</title>
<g id="a_node18"><a xlink:href="../../d6/d7b/classcontroller_1_1_cell_society_controller.html#aec38c45810ee2665fe01832114fbc68d" target="_top" xlink:title="controller.CellSocietyController.restart\lSimulation">
<polygon fill="white" stroke="black" points="1160.5,-0 1160.5,-30 1357.5,-30 1357.5,-0 1160.5,-0"/>
<text text-anchor="start" x="1168.5" y="-18" font-family="Helvetica,sans-Serif" font-size="10.00">controller.CellSocietyController.restart</text>
<text text-anchor="middle" x="1259" y="-7" font-family="Helvetica,sans-Serif" font-size="10.00">Simulation</text>
</a>
</g>
</g>
<!-- Node16&#45;&gt;Node18 -->
<g id="edge18" class="edge"><title>Node16&#45;&gt;Node18</title>
<path fill="none" stroke="midnightblue" d="M1095.1,-48.9654C1120.71,-43.627 1149.71,-37.5802 1176.07,-32.0834"/>
<polygon fill="midnightblue" stroke="midnightblue" points="1176.96,-35.4738 1186.03,-30.0062 1175.53,-28.6212 1176.96,-35.4738"/>
</g>
</g>
</svg>
        <g id="navigator" transform="translate(0 0)" fill="#404254">
                <rect fill="#f2f5e9" fill-opacity="0.5" stroke="#606060" stroke-width=".5" x="0" y="0" width="60" height="60"/>
                <use id="zoomplus" xlink:href="#zoomPlus" x="17" y="9" onmousedown="handleZoom(evt,'in')"/>
                <use id="zoomminus" xlink:href="#zoomMin" x="42" y="9" onmousedown="handleZoom(evt,'out')"/>
                <use id="reset" xlink:href="#resetDef" x="30" y="36" onmousedown="handleReset()"/>
                <g id="arrowUp" xlink:href="#dirArrow" transform="translate(30 24)" onmousedown="handlePan(0,-1)">
                  <use xlink:href="#rim" fill="#404040">
                        <set attributeName="fill" to="#808080" begin="arrowUp.mouseover" end="arrowUp.mouseout"/>
                  </use>
                  <path fill="none" stroke="white" stroke-width="1.5" d="M0,-3.0v7 M-2.5,-0.5L0,-3.0L2.5,-0.5"/>
                </g>
                <g id="arrowRight" xlink:href="#dirArrow" transform="rotate(90) translate(36 -43)" onmousedown="handlePan(1,0)">
                  <use xlink:href="#rim" fill="#404040">
                        <set attributeName="fill" to="#808080" begin="arrowRight.mouseover" end="arrowRight.mouseout"/>
                  </use>
                  <path fill="none" stroke="white" stroke-width="1.5" d="M0,-3.0v7 M-2.5,-0.5L0,-3.0L2.5,-0.5"/>
                </g>
                <g id="arrowDown" xlink:href="#dirArrow" transform="rotate(180) translate(-30 -48)" onmousedown="handlePan(0,1)">
                  <use xlink:href="#rim" fill="#404040">
                        <set attributeName="fill" to="#808080" begin="arrowDown.mouseover" end="arrowDown.mouseout"/>
                  </use>
                  <path fill="none" stroke="white" stroke-width="1.5" d="M0,-3.0v7 M-2.5,-0.5L0,-3.0L2.5,-0.5"/>
                </g>
                <g id="arrowLeft" xlink:href="#dirArrow" transform="rotate(270) translate(-36 17)" onmousedown="handlePan(-1,0)">
                  <use xlink:href="#rim" fill="#404040">
                        <set attributeName="fill" to="#808080" begin="arrowLeft.mouseover" end="arrowLeft.mouseout"/>
                  </use>
                  <path fill="none" stroke="white" stroke-width="1.5" d="M0,-3.0v7 M-2.5,-0.5L0,-3.0L2.5,-0.5"/>
                </g>
        </g>
        <svg viewBox="0 0 15 15" width="100%" height="30px" preserveAspectRatio="xMaxYMin meet">
         <g id="arrow_out" transform="scale(0.3 0.3)">
          <a xlink:href="classview_1_1_splash_screen_a652092fc5c5862cee4ff84bf231646ab_cgraph_org.svg" target="_base">
           <rect id="button" ry="5" rx="5" y="6" x="6" height="38" width="38"
                fill="#f2f5e9" fill-opacity="0.5" stroke="#606060" stroke-width="1.0"/>
           <path id="arrow"
             d="M 11.500037,31.436501 C 11.940474,20.09759 22.043105,11.32322 32.158766,21.979434 L 37.068811,17.246167 C 37.068811,17.246167 37.088388,32 37.088388,32 L 22.160133,31.978069 C 22.160133,31.978069 26.997745,27.140456 26.997745,27.140456 C 18.528582,18.264221 13.291696,25.230495 11.500037,31.436501 z"
             style="fill:#404040;"/>
          </a>
         </g>
        </svg>
</svg>
