<?xml version="1.0" encoding="UTF-8" standalone="no"?>
<!DOCTYPE svg PUBLIC "-//W3C//DTD SVG 1.1//EN"
 "http://www.w3.org/Graphics/SVG/1.1/DTD/svg11.dtd">
<!-- Generated by graphviz version 2.36.0 (20140111.2315)
 -->
<!-- Title: view.SplashScreen.addProbabilityText Pages: 1 -->
<svg width="1212pt" height="87pt"
 viewBox="0.00 0.00 1212.00 87.00" xmlns="http://www.w3.org/2000/svg" xmlns:xlink="http://www.w3.org/1999/xlink">
<g id="graph0" class="graph" transform="scale(1 1) rotate(0) translate(4 83)">
<title>view.SplashScreen.addProbabilityText</title>
<polygon fill="white" stroke="none" points="-4,4 -4,-83 1208,-83 1208,4 -4,4"/>
<!-- Node1 -->
<g id="node1" class="node"><title>Node1</title>
<polygon fill="#bfbfbf" stroke="black" points="0,-29.5 0,-48.5 194,-48.5 194,-29.5 0,-29.5"/>
<text text-anchor="middle" x="97" y="-36.5" font-family="Helvetica,sans-Serif" font-size="10.00">view.SplashScreen.addProbabilityText</text>
</g>
<!-- Node2 -->
<g id="node2" class="node"><title>Node2</title>
<g id="a_node2"><a xlink:href="../../dd/d02/classview_1_1_splash_screen.html#a2f8c52e9a2a790459e51d5d42f16f7da" target="_top" xlink:title="view.SplashScreen.display\lAskInformatio">
<polygon fill="white" stroke="black" points="230.5,-24 230.5,-54 371.5,-54 371.5,-24 230.5,-24"/>
<text text-anchor="start" x="238.5" y="-42" font-family="Helvetica,sans-Serif" font-size="10.00">view.SplashScreen.display</text>
<text text-anchor="middle" x="301" y="-31" font-family="Helvetica,sans-Serif" font-size="10.00">AskInformatio</text>
</a>
</g>
</g>
<!-- Node1&#45;&gt;Node2 -->
<g id="edge1" class="edge"><title>Node1&#45;&gt;Node2</title>
<path fill="none" stroke="midnightblue" d="M204.276,-39C213.134,-39 221.937,-39 230.412,-39"/>
<polygon fill="midnightblue" stroke="midnightblue" points="204.267,-35.5001 194.267,-39 204.267,-42.5001 204.267,-35.5001"/>
</g>
<!-- Node3 -->
<g id="node3" class="node"><title>Node3</title>
<g id="a_node3"><a xlink:href="../../dd/d02/classview_1_1_splash_screen.html#ad94d9edd23f270a5f480fd54a06d72f3" target="_top" xlink:title="view.SplashScreen.addProbablity\lButton">
<polygon fill="white" stroke="black" points="408.5,-49 408.5,-79 581.5,-79 581.5,-49 408.5,-49"/>
<text text-anchor="start" x="416.5" y="-67" font-family="Helvetica,sans-Serif" font-size="10.00">view.SplashScreen.addProbablity</text>
<text text-anchor="middle" x="495" y="-56" font-family="Helvetica,sans-Serif" font-size="10.00">Button</text>
</a>
</g>
</g>
<!-- Node2&#45;&gt;Node3 -->
<g id="edge2" class="edge"><title>Node2&#45;&gt;Node3</title>
<path fill="none" stroke="midnightblue" d="M381.76,-49.3855C390.514,-50.5253 399.453,-51.6892 408.275,-52.8379"/>
<polygon fill="midnightblue" stroke="midnightblue" points="381.956,-45.8815 371.588,-48.0609 381.052,-52.8229 381.956,-45.8815"/>
</g>
<!-- Node7 -->
<g id="node7" class="node"><title>Node7</title>
<g id="a_node7"><a xlink:href="../../dd/d02/classview_1_1_splash_screen.html#a17ba24f5ed477a37ea527710e54d65c8" target="_top" xlink:title="view.SplashScreen.addRandom\lButton">
<polygon fill="white" stroke="black" points="412,-0 412,-30 578,-30 578,-0 412,-0"/>
<text text-anchor="start" x="420" y="-18" font-family="Helvetica,sans-Serif" font-size="10.00">view.SplashScreen.addRandom</text>
<text text-anchor="middle" x="495" y="-7" font-family="Helvetica,sans-Serif" font-size="10.00">Button</text>
</a>
</g>
</g>
<!-- Node2&#45;&gt;Node7 -->
<g id="edge6" class="edge"><title>Node2&#45;&gt;Node7</title>
<path fill="none" stroke="midnightblue" d="M381.524,-29.0595C391.559,-27.8051 401.842,-26.5197 411.917,-25.2604"/>
<polygon fill="midnightblue" stroke="midnightblue" points="381.076,-25.5881 371.588,-30.3015 381.945,-32.5341 381.076,-25.5881"/>
</g>
<!-- Node4 -->
<g id="node4" class="node"><title>Node4</title>
<g id="a_node4"><a xlink:href="../../dd/d02/classview_1_1_splash_screen.html#a6ff42b7dad4e546981a3266f9d694f5a" target="_top" xlink:title="view.SplashScreen.getNode">
<polygon fill="white" stroke="black" points="618.5,-29.5 618.5,-48.5 767.5,-48.5 767.5,-29.5 618.5,-29.5"/>
<text text-anchor="middle" x="693" y="-36.5" font-family="Helvetica,sans-Serif" font-size="10.00">view.SplashScreen.getNode</text>
</a>
</g>
</g>
<!-- Node3&#45;&gt;Node4 -->
<g id="edge3" class="edge"><title>Node3&#45;&gt;Node4</title>
<path fill="none" stroke="midnightblue" d="M591.781,-51.783C600.749,-50.6392 609.741,-49.4922 618.458,-48.3804"/>
<polygon fill="midnightblue" stroke="midnightblue" points="591.16,-48.3338 581.683,-53.071 592.046,-55.2775 591.16,-48.3338"/>
</g>
<!-- Node5 -->
<g id="node5" class="node"><title>Node5</title>
<g id="a_node5"><a xlink:href="../../d6/d7b/classcontroller_1_1_cell_society_controller.html#a3f78125e5b809d88d3cf7ed20b3756c2" target="_top" xlink:title="controller.CellSocietyController.display\lSplashScreen">
<polygon fill="white" stroke="black" points="804,-24 804,-54 1002,-54 1002,-24 804,-24"/>
<text text-anchor="start" x="812" y="-42" font-family="Helvetica,sans-Serif" font-size="10.00">controller.CellSocietyController.display</text>
<text text-anchor="middle" x="903" y="-31" font-family="Helvetica,sans-Serif" font-size="10.00">SplashScreen</text>
</a>
</g>
</g>
<!-- Node4&#45;&gt;Node5 -->
<g id="edge4" class="edge"><title>Node4&#45;&gt;Node5</title>
<path fill="none" stroke="midnightblue" d="M777.885,-39C786.384,-39 795.07,-39 803.703,-39"/>
<polygon fill="midnightblue" stroke="midnightblue" points="777.626,-35.5001 767.626,-39 777.626,-42.5001 777.626,-35.5001"/>
</g>
<!-- Node6 -->
<g id="node6" class="node"><title>Node6</title>
<g id="a_node6"><a xlink:href="../../d6/d7b/classcontroller_1_1_cell_society_controller.html#a6a2310de67e415512149c94c9f36e356" target="_top" xlink:title="controller.CellSocietyController.\lCellSocietyController">
<polygon fill="white" stroke="black" points="1038.5,-24 1038.5,-54 1203.5,-54 1203.5,-24 1038.5,-24"/>
<text text-anchor="start" x="1046.5" y="-42" font-family="Helvetica,sans-Serif" font-size="10.00">controller.CellSocietyController.</text>
<text text-anchor="middle" x="1121" y="-31" font-family="Helvetica,sans-Serif" font-size="10.00">CellSocietyController</text>
</a>
</g>
</g>
<!-- Node5&#45;&gt;Node6 -->
<g id="edge5" class="edge"><title>Node5&#45;&gt;Node6</title>
<path fill="none" stroke="midnightblue" d="M1012.38,-39C1021.07,-39 1029.75,-39 1038.2,-39"/>
<polygon fill="midnightblue" stroke="midnightblue" points="1012.2,-35.5001 1002.2,-39 1012.2,-42.5001 1012.2,-35.5001"/>
</g>
<!-- Node7&#45;&gt;Node4 -->
<g id="edge7" class="edge"><title>Node7&#45;&gt;Node4</title>
<path fill="none" stroke="midnightblue" d="M588.307,-26.3029C598.387,-27.5371 608.547,-28.7813 618.359,-29.9828"/>
<polygon fill="midnightblue" stroke="midnightblue" points="588.621,-22.8153 578.27,-25.0738 587.77,-29.7634 588.621,-22.8153"/>
</g>
</g>
</svg>
