<?xml version="1.0" encoding="UTF-8" standalone="no"?>
<!DOCTYPE svg PUBLIC "-//W3C//DTD SVG 1.1//EN"
 "http://www.w3.org/Graphics/SVG/1.1/DTD/svg11.dtd">
<!-- Generated by graphviz version 2.36.0 (20140111.2315)
 -->
<!-- Title: view.SplashScreen.addRandomButton Pages: 1 -->
<svg width="2026pt" height="317pt"
 viewBox="0.00 0.00 2026.00 317.00" xmlns="http://www.w3.org/2000/svg" xmlns:xlink="http://www.w3.org/1999/xlink">
<g id="graph0" class="graph" transform="scale(1 1) rotate(0) translate(4 313)">
<title>view.SplashScreen.addRandomButton</title>
<polygon fill="white" stroke="none" points="-4,4 -4,-313 2022,-313 2022,4 -4,4"/>
<!-- Node1 -->
<g id="node1" class="node"><title>Node1</title>
<polygon fill="#bfbfbf" stroke="black" points="0,-169 0,-199 166,-199 166,-169 0,-169"/>
<text text-anchor="start" x="8" y="-187" font-family="Helvetica,sans-Serif" font-size="10.00">view.SplashScreen.addRandom</text>
<text text-anchor="middle" x="83" y="-176" font-family="Helvetica,sans-Serif" font-size="10.00">Button</text>
</g>
<!-- Node2 -->
<g id="node2" class="node"><title>Node2</title>
<g id="a_node2"><a xlink:href="../../dd/d02/classview_1_1_splash_screen.html#a2f8c52e9a2a790459e51d5d42f16f7da" target="_top" xlink:title="view.SplashScreen.display\lAskInformatio">
<polygon fill="white" stroke="black" points="214.5,-191 214.5,-221 355.5,-221 355.5,-191 214.5,-191"/>
<text text-anchor="start" x="222.5" y="-209" font-family="Helvetica,sans-Serif" font-size="10.00">view.SplashScreen.display</text>
<text text-anchor="middle" x="285" y="-198" font-family="Helvetica,sans-Serif" font-size="10.00">AskInformatio</text>
</a>
</g>
</g>
<!-- Node1&#45;&gt;Node2 -->
<g id="edge1" class="edge"><title>Node1&#45;&gt;Node2</title>
<path fill="none" stroke="midnightblue" d="M166.213,-193.043C178.671,-194.414 191.509,-195.826 203.92,-197.191"/>
<polygon fill="midnightblue" stroke="midnightblue" points="203.905,-200.711 214.227,-198.325 204.67,-193.753 203.905,-200.711"/>
</g>
<!-- Node22 -->
<g id="node22" class="node"><title>Node22</title>
<g id="a_node22"><a xlink:href="../../dd/d02/classview_1_1_splash_screen.html#a329982556dc38c022b2b8c10347e34bd" target="_top" xlink:title="view.SplashScreen.formatNode">
<polygon fill="white" stroke="black" points="202,-152.5 202,-171.5 368,-171.5 368,-152.5 202,-152.5"/>
<text text-anchor="middle" x="285" y="-159.5" font-family="Helvetica,sans-Serif" font-size="10.00">view.SplashScreen.formatNode</text>
</a>
</g>
</g>
<!-- Node1&#45;&gt;Node22 -->
<g id="edge22" class="edge"><title>Node1&#45;&gt;Node22</title>
<path fill="none" stroke="midnightblue" d="M166.213,-174.957C174.654,-174.028 183.27,-173.08 191.809,-172.141"/>
<polygon fill="midnightblue" stroke="midnightblue" points="192.225,-175.616 201.783,-171.044 191.46,-168.658 192.225,-175.616"/>
</g>
<!-- Node3 -->
<g id="node3" class="node"><title>Node3</title>
<g id="a_node3"><a xlink:href="../../dd/d02/classview_1_1_splash_screen.html#ab75deddb521d5727122eec02161acc9d" target="_top" xlink:title="view.SplashScreen.remove\lButtons">
<polygon fill="white" stroke="black" points="432.5,-279 432.5,-309 577.5,-309 577.5,-279 432.5,-279"/>
<text text-anchor="start" x="440.5" y="-297" font-family="Helvetica,sans-Serif" font-size="10.00">view.SplashScreen.remove</text>
<text text-anchor="middle" x="505" y="-286" font-family="Helvetica,sans-Serif" font-size="10.00">Buttons</text>
</a>
</g>
</g>
<!-- Node2&#45;&gt;Node3 -->
<g id="edge2" class="edge"><title>Node2&#45;&gt;Node3</title>
<path fill="none" stroke="midnightblue" d="M310.028,-221.098C333.304,-235.168 369.977,-255.894 404,-269 410.659,-271.565 417.669,-273.938 424.761,-276.115"/>
<polygon fill="midnightblue" stroke="midnightblue" points="423.874,-279.503 434.455,-278.964 425.848,-272.787 423.874,-279.503"/>
</g>
<!-- Node4 -->
<g id="node4" class="node"><title>Node4</title>
<g id="a_node4"><a xlink:href="../../dd/d02/classview_1_1_splash_screen.html#ae484c2f05f910335ffacddd236eb4908" target="_top" xlink:title="view.SplashScreen.addDimensionsText">
<polygon fill="white" stroke="black" points="404.5,-240.5 404.5,-259.5 605.5,-259.5 605.5,-240.5 404.5,-240.5"/>
<text text-anchor="middle" x="505" y="-247.5" font-family="Helvetica,sans-Serif" font-size="10.00">view.SplashScreen.addDimensionsText</text>
</a>
</g>
</g>
<!-- Node2&#45;&gt;Node4 -->
<g id="edge3" class="edge"><title>Node2&#45;&gt;Node4</title>
<path fill="none" stroke="midnightblue" d="M355.564,-220.188C371.478,-223.423 388.323,-226.838 404,-230 417.686,-232.76 432.43,-235.718 446.28,-238.489"/>
<polygon fill="midnightblue" stroke="midnightblue" points="445.688,-241.94 456.18,-240.469 447.061,-235.076 445.688,-241.94"/>
</g>
<!-- Node5 -->
<g id="node5" class="node"><title>Node5</title>
<g id="a_node5"><a xlink:href="../../dd/d02/classview_1_1_splash_screen.html#ae4427d4a548843b069b35328182187fa" target="_top" xlink:title="view.SplashScreen.addSimulation\lNameText">
<polygon fill="white" stroke="black" points="416.5,-191 416.5,-221 593.5,-221 593.5,-191 416.5,-191"/>
<text text-anchor="start" x="424.5" y="-209" font-family="Helvetica,sans-Serif" font-size="10.00">view.SplashScreen.addSimulation</text>
<text text-anchor="middle" x="505" y="-198" font-family="Helvetica,sans-Serif" font-size="10.00">NameText</text>
</a>
</g>
</g>
<!-- Node2&#45;&gt;Node5 -->
<g id="edge4" class="edge"><title>Node2&#45;&gt;Node5</title>
<path fill="none" stroke="midnightblue" d="M355.576,-206C371.721,-206 389.201,-206 406.305,-206"/>
<polygon fill="midnightblue" stroke="midnightblue" points="406.319,-209.5 416.319,-206 406.319,-202.5 406.319,-209.5"/>
</g>
<!-- Node6 -->
<g id="node6" class="node"><title>Node6</title>
<g id="a_node6"><a xlink:href="../../dd/d02/classview_1_1_splash_screen.html#a05478a56856d70fd9508d79ca484fbca" target="_top" xlink:title="view.SplashScreen.addProbabilityText">
<polygon fill="white" stroke="black" points="408,-152.5 408,-171.5 602,-171.5 602,-152.5 408,-152.5"/>
<text text-anchor="middle" x="505" y="-159.5" font-family="Helvetica,sans-Serif" font-size="10.00">view.SplashScreen.addProbabilityText</text>
</a>
</g>
</g>
<!-- Node2&#45;&gt;Node6 -->
<g id="edge5" class="edge"><title>Node2&#45;&gt;Node6</title>
<path fill="none" stroke="midnightblue" d="M355.521,-191.017C371.438,-187.657 388.294,-184.155 404,-181 416.509,-178.487 429.916,-175.88 442.72,-173.432"/>
<polygon fill="midnightblue" stroke="midnightblue" points="443.661,-176.816 452.83,-171.508 442.352,-169.939 443.661,-176.816"/>
</g>
<!-- Node21 -->
<g id="node21" class="node"><title>Node21</title>
<g id="a_node21"><a xlink:href="../../d6/d7b/classcontroller_1_1_cell_society_controller.html#ab65a8810efbc2b92e17ca77cdc591df9" target="_top" xlink:title="controller.CellSocietyController.generate\lRandomGrid">
<polygon fill="white" stroke="black" points="642.5,-98 642.5,-128 851.5,-128 851.5,-98 642.5,-98"/>
<text text-anchor="start" x="650.5" y="-116" font-family="Helvetica,sans-Serif" font-size="10.00">controller.CellSocietyController.generate</text>
<text text-anchor="middle" x="747" y="-105" font-family="Helvetica,sans-Serif" font-size="10.00">RandomGrid</text>
</a>
</g>
</g>
<!-- Node2&#45;&gt;Node21 -->
<g id="edge20" class="edge"><title>Node2&#45;&gt;Node21</title>
<path fill="none" stroke="midnightblue" d="M347.974,-190.925C354.967,-188.122 361.799,-184.838 368,-181 387.783,-168.757 383.051,-153.118 404,-143 474.593,-108.903 562.929,-101.924 632.139,-103.198"/>
<polygon fill="midnightblue" stroke="midnightblue" points="632.124,-106.699 642.207,-103.444 632.295,-99.7011 632.124,-106.699"/>
</g>
<!-- Node7 -->
<g id="node7" class="node"><title>Node7</title>
<g id="a_node7"><a xlink:href="../../d6/d7b/classcontroller_1_1_cell_society_controller.html#ada30fdc135cdf08b93065edf15ed3fcc" target="_top" xlink:title="controller.CellSocietyController.generate\lProbabilityRandomGrid">
<polygon fill="white" stroke="black" points="642.5,-196 642.5,-226 851.5,-226 851.5,-196 642.5,-196"/>
<text text-anchor="start" x="650.5" y="-214" font-family="Helvetica,sans-Serif" font-size="10.00">controller.CellSocietyController.generate</text>
<text text-anchor="middle" x="747" y="-203" font-family="Helvetica,sans-Serif" font-size="10.00">ProbabilityRandomGrid</text>
</a>
</g>
</g>
<!-- Node6&#45;&gt;Node7 -->
<g id="edge6" class="edge"><title>Node6&#45;&gt;Node7</title>
<path fill="none" stroke="midnightblue" d="M557.432,-171.534C573.045,-174.492 590.237,-177.814 606,-181 625.905,-185.023 647.364,-189.534 667.357,-193.811"/>
<polygon fill="midnightblue" stroke="midnightblue" points="666.839,-197.279 677.351,-195.956 668.308,-190.435 666.839,-197.279"/>
</g>
<!-- Node20 -->
<g id="node20" class="node"><title>Node20</title>
<g id="a_node20"><a xlink:href="../../dd/d02/classview_1_1_splash_screen.html#a1e747e968477f14fbd6d6cd4a508e008" target="_top" xlink:title="view.SplashScreen.remove\lAskScreenNodes">
<polygon fill="white" stroke="black" points="674.5,-147 674.5,-177 819.5,-177 819.5,-147 674.5,-147"/>
<text text-anchor="start" x="682.5" y="-165" font-family="Helvetica,sans-Serif" font-size="10.00">view.SplashScreen.remove</text>
<text text-anchor="middle" x="747" y="-154" font-family="Helvetica,sans-Serif" font-size="10.00">AskScreenNodes</text>
</a>
</g>
</g>
<!-- Node6&#45;&gt;Node20 -->
<g id="edge19" class="edge"><title>Node6&#45;&gt;Node20</title>
<path fill="none" stroke="midnightblue" d="M602.234,-162C622.668,-162 644.059,-162 663.908,-162"/>
<polygon fill="midnightblue" stroke="midnightblue" points="664.134,-165.5 674.134,-162 664.134,-158.5 664.134,-165.5"/>
</g>
<!-- Node8 -->
<g id="node8" class="node"><title>Node8</title>
<g id="a_node8"><a xlink:href="../../d6/d7b/classcontroller_1_1_cell_society_controller.html#a41b6379d34f94114f5ada21e3bb8b52e" target="_top" xlink:title="controller.CellSocietyController.generateGrid">
<polygon fill="white" stroke="black" points="888,-152.5 888,-171.5 1116,-171.5 1116,-152.5 888,-152.5"/>
<text text-anchor="middle" x="1002" y="-159.5" font-family="Helvetica,sans-Serif" font-size="10.00">controller.CellSocietyController.generateGrid</text>
</a>
</g>
</g>
<!-- Node7&#45;&gt;Node8 -->
<g id="edge7" class="edge"><title>Node7&#45;&gt;Node8</title>
<path fill="none" stroke="midnightblue" d="M825.628,-195.965C863.042,-188.719 907.195,-180.168 941.839,-173.458"/>
<polygon fill="midnightblue" stroke="midnightblue" points="942.653,-176.866 951.805,-171.528 941.322,-169.993 942.653,-176.866"/>
</g>
<!-- Node9 -->
<g id="node9" class="node"><title>Node9</title>
<g id="a_node9"><a xlink:href="../../d8/dd8/classcontroller_1_1_sim_generator.html#a56410ccebd07c1b6d1a3afb41d7997fc" target="_top" xlink:title="controller.SimGenerator.getGrid">
<polygon fill="white" stroke="black" points="1172.5,-196.5 1172.5,-215.5 1341.5,-215.5 1341.5,-196.5 1172.5,-196.5"/>
<text text-anchor="middle" x="1257" y="-203.5" font-family="Helvetica,sans-Serif" font-size="10.00">controller.SimGenerator.getGrid</text>
</a>
</g>
</g>
<!-- Node8&#45;&gt;Node9 -->
<g id="edge8" class="edge"><title>Node8&#45;&gt;Node9</title>
<path fill="none" stroke="midnightblue" d="M1057.9,-171.547C1097.1,-178.365 1149.99,-187.563 1191.25,-194.74"/>
<polygon fill="midnightblue" stroke="midnightblue" points="1190.76,-198.206 1201.21,-196.471 1191.96,-191.31 1190.76,-198.206"/>
</g>
<!-- Node10 -->
<g id="node10" class="node"><title>Node10</title>
<g id="a_node10"><a xlink:href="../../d8/dd8/classcontroller_1_1_sim_generator.html#a9fd6cebed37c16aad5e70dc966ac9fb5" target="_top" xlink:title="controller.SimGenerator.get\lParameters">
<polygon fill="white" stroke="black" points="1182.5,-147 1182.5,-177 1331.5,-177 1331.5,-147 1182.5,-147"/>
<text text-anchor="start" x="1190.5" y="-165" font-family="Helvetica,sans-Serif" font-size="10.00">controller.SimGenerator.get</text>
<text text-anchor="middle" x="1257" y="-154" font-family="Helvetica,sans-Serif" font-size="10.00">Parameters</text>
</a>
</g>
</g>
<!-- Node8&#45;&gt;Node10 -->
<g id="edge9" class="edge"><title>Node8&#45;&gt;Node10</title>
<path fill="none" stroke="midnightblue" d="M1116.18,-162C1135.08,-162 1154.37,-162 1172.36,-162"/>
<polygon fill="midnightblue" stroke="midnightblue" points="1172.49,-165.5 1182.49,-162 1172.49,-158.5 1172.49,-165.5"/>
</g>
<!-- Node11 -->
<g id="node11" class="node"><title>Node11</title>
<g id="a_node11"><a xlink:href="../../d6/d7b/classcontroller_1_1_cell_society_controller.html#a3d913ad3344ac48e887110e2fabb5746" target="_top" xlink:title="controller.CellSocietyController.transition\lToSimulation">
<polygon fill="white" stroke="black" points="1152,-98 1152,-128 1362,-128 1362,-98 1152,-98"/>
<text text-anchor="start" x="1160" y="-116" font-family="Helvetica,sans-Serif" font-size="10.00">controller.CellSocietyController.transition</text>
<text text-anchor="middle" x="1257" y="-105" font-family="Helvetica,sans-Serif" font-size="10.00">ToSimulation</text>
</a>
</g>
</g>
<!-- Node8&#45;&gt;Node11 -->
<g id="edge10" class="edge"><title>Node8&#45;&gt;Node11</title>
<path fill="none" stroke="midnightblue" d="M1052.08,-152.494C1084.93,-146.133 1129.09,-137.58 1167.91,-130.06"/>
<polygon fill="midnightblue" stroke="midnightblue" points="1169.03,-133.409 1178.18,-128.071 1167.7,-126.537 1169.03,-133.409"/>
</g>
<!-- Node12 -->
<g id="node12" class="node"><title>Node12</title>
<g id="a_node12"><a xlink:href="../../d6/d7b/classcontroller_1_1_cell_society_controller.html#a8af25de87ececa5ca913e7b5af486b3f" target="_top" xlink:title="controller.CellSocietyController.initialize\lSimulation">
<polygon fill="white" stroke="black" points="1398.5,-147 1398.5,-177 1601.5,-177 1601.5,-147 1398.5,-147"/>
<text text-anchor="start" x="1406.5" y="-165" font-family="Helvetica,sans-Serif" font-size="10.00">controller.CellSocietyController.initialize</text>
<text text-anchor="middle" x="1500" y="-154" font-family="Helvetica,sans-Serif" font-size="10.00">Simulation</text>
</a>
</g>
</g>
<!-- Node11&#45;&gt;Node12 -->
<g id="edge11" class="edge"><title>Node11&#45;&gt;Node12</title>
<path fill="none" stroke="midnightblue" d="M1331.95,-128.035C1358.32,-133.396 1388.2,-139.473 1415.33,-144.989"/>
<polygon fill="midnightblue" stroke="midnightblue" points="1414.7,-148.431 1425.19,-146.994 1416.09,-141.571 1414.7,-148.431"/>
</g>
<!-- Node13 -->
<g id="node13" class="node"><title>Node13</title>
<g id="a_node13"><a xlink:href="../../d6/d7b/classcontroller_1_1_cell_society_controller.html#af6b4eb647c4e76fef6f27cc61ced4d9a" target="_top" xlink:title="controller.CellSocietyController.initialize\lSimulationScreen">
<polygon fill="white" stroke="black" points="1398.5,-98 1398.5,-128 1601.5,-128 1601.5,-98 1398.5,-98"/>
<text text-anchor="start" x="1406.5" y="-116" font-family="Helvetica,sans-Serif" font-size="10.00">controller.CellSocietyController.initialize</text>
<text text-anchor="middle" x="1500" y="-105" font-family="Helvetica,sans-Serif" font-size="10.00">SimulationScreen</text>
</a>
</g>
</g>
<!-- Node11&#45;&gt;Node13 -->
<g id="edge12" class="edge"><title>Node11&#45;&gt;Node13</title>
<path fill="none" stroke="midnightblue" d="M1362.3,-113C1370.9,-113 1379.61,-113 1388.25,-113"/>
<polygon fill="midnightblue" stroke="midnightblue" points="1388.35,-116.5 1398.35,-113 1388.35,-109.5 1388.35,-116.5"/>
</g>
<!-- Node17 -->
<g id="node17" class="node"><title>Node17</title>
<g id="a_node17"><a xlink:href="../../d6/d7b/classcontroller_1_1_cell_society_controller.html#a7609d9a174ff7d2d00fc27e3574cdb21" target="_top" xlink:title="controller.CellSocietyController.stop\lOrStart">
<polygon fill="white" stroke="black" points="1407,-49 1407,-79 1593,-79 1593,-49 1407,-49"/>
<text text-anchor="start" x="1415" y="-67" font-family="Helvetica,sans-Serif" font-size="10.00">controller.CellSocietyController.stop</text>
<text text-anchor="middle" x="1500" y="-56" font-family="Helvetica,sans-Serif" font-size="10.00">OrStart</text>
</a>
</g>
</g>
<!-- Node11&#45;&gt;Node17 -->
<g id="edge16" class="edge"><title>Node11&#45;&gt;Node17</title>
<path fill="none" stroke="midnightblue" d="M1331.95,-97.9654C1358.32,-92.6035 1388.2,-86.5269 1415.33,-81.0108"/>
<polygon fill="midnightblue" stroke="midnightblue" points="1416.09,-84.4285 1425.19,-79.0062 1414.7,-77.5689 1416.09,-84.4285"/>
</g>
<!-- Node14 -->
<g id="node14" class="node"><title>Node14</title>
<g id="a_node14"><a xlink:href="../../d1/d3e/classview_1_1_simulation_screen.html#a482a021910f4b997fb7b798bdc363df4" target="_top" xlink:title="view.SimulationScreen.getNode">
<polygon fill="white" stroke="black" points="1653,-147.5 1653,-166.5 1821,-166.5 1821,-147.5 1653,-147.5"/>
<text text-anchor="middle" x="1737" y="-154.5" font-family="Helvetica,sans-Serif" font-size="10.00">view.SimulationScreen.getNode</text>
</a>
</g>
</g>
<!-- Node13&#45;&gt;Node14 -->
<g id="edge13" class="edge"><title>Node13&#45;&gt;Node14</title>
<path fill="none" stroke="midnightblue" d="M1581.22,-128.019C1612.02,-133.787 1646.64,-140.269 1675.32,-145.638"/>
<polygon fill="midnightblue" stroke="midnightblue" points="1674.72,-149.087 1685.2,-147.488 1676.01,-142.207 1674.72,-149.087"/>
</g>
<!-- Node15 -->
<g id="node15" class="node"><title>Node15</title>
<g id="a_node15"><a xlink:href="../../d1/d3e/classview_1_1_simulation_screen.html#a6c9f5c7e36be620d06e55709bc256d18" target="_top" xlink:title="view.SimulationScreen.init\lSimScreen">
<polygon fill="white" stroke="black" points="1666.5,-98 1666.5,-128 1807.5,-128 1807.5,-98 1666.5,-98"/>
<text text-anchor="start" x="1674.5" y="-116" font-family="Helvetica,sans-Serif" font-size="10.00">view.SimulationScreen.init</text>
<text text-anchor="middle" x="1737" y="-105" font-family="Helvetica,sans-Serif" font-size="10.00">SimScreen</text>
</a>
</g>
</g>
<!-- Node13&#45;&gt;Node15 -->
<g id="edge14" class="edge"><title>Node13&#45;&gt;Node15</title>
<path fill="none" stroke="midnightblue" d="M1601.68,-113C1619.91,-113 1638.68,-113 1656.21,-113"/>
<polygon fill="midnightblue" stroke="midnightblue" points="1656.37,-116.5 1666.37,-113 1656.37,-109.5 1656.37,-116.5"/>
</g>
<!-- Node16 -->
<g id="node16" class="node"><title>Node16</title>
<g id="a_node16"><a xlink:href="../../d1/d3e/classview_1_1_simulation_screen.html#a7144a80861195f360ade7612b479ff3e" target="_top" xlink:title="view.SimulationScreen.add\lButtons">
<polygon fill="white" stroke="black" points="1872.5,-98 1872.5,-128 2017.5,-128 2017.5,-98 1872.5,-98"/>
<text text-anchor="start" x="1880.5" y="-116" font-family="Helvetica,sans-Serif" font-size="10.00">view.SimulationScreen.add</text>
<text text-anchor="middle" x="1945" y="-105" font-family="Helvetica,sans-Serif" font-size="10.00">Buttons</text>
</a>
</g>
</g>
<!-- Node15&#45;&gt;Node16 -->
<g id="edge15" class="edge"><title>Node15&#45;&gt;Node16</title>
<path fill="none" stroke="midnightblue" d="M1807.74,-113C1825.19,-113 1844.07,-113 1862.05,-113"/>
<polygon fill="midnightblue" stroke="midnightblue" points="1862.22,-116.5 1872.22,-113 1862.22,-109.5 1862.22,-116.5"/>
</g>
<!-- Node18 -->
<g id="node18" class="node"><title>Node18</title>
<g id="a_node18"><a xlink:href="../../d6/d7b/classcontroller_1_1_cell_society_controller.html#a33e7a77467ceeb880526a1b405b3ee79" target="_top" xlink:title="controller.CellSocietyController.pause\lSimulation">
<polygon fill="white" stroke="black" points="1640,-49 1640,-79 1834,-79 1834,-49 1640,-49"/>
<text text-anchor="start" x="1648" y="-67" font-family="Helvetica,sans-Serif" font-size="10.00">controller.CellSocietyController.pause</text>
<text text-anchor="middle" x="1737" y="-56" font-family="Helvetica,sans-Serif" font-size="10.00">Simulation</text>
</a>
</g>
</g>
<!-- Node17&#45;&gt;Node18 -->
<g id="edge17" class="edge"><title>Node17&#45;&gt;Node18</title>
<path fill="none" stroke="midnightblue" d="M1593.2,-64C1605.16,-64 1617.48,-64 1629.64,-64"/>
<polygon fill="midnightblue" stroke="midnightblue" points="1629.81,-67.5001 1639.81,-64 1629.81,-60.5001 1629.81,-67.5001"/>
</g>
<!-- Node19 -->
<g id="node19" class="node"><title>Node19</title>
<g id="a_node19"><a xlink:href="../../d6/d7b/classcontroller_1_1_cell_society_controller.html#aec38c45810ee2665fe01832114fbc68d" target="_top" xlink:title="controller.CellSocietyController.restart\lSimulation">
<polygon fill="white" stroke="black" points="1638.5,-0 1638.5,-30 1835.5,-30 1835.5,-0 1638.5,-0"/>
<text text-anchor="start" x="1646.5" y="-18" font-family="Helvetica,sans-Serif" font-size="10.00">controller.CellSocietyController.restart</text>
<text text-anchor="middle" x="1737" y="-7" font-family="Helvetica,sans-Serif" font-size="10.00">Simulation</text>
</a>
</g>
</g>
<!-- Node17&#45;&gt;Node19 -->
<g id="edge18" class="edge"><title>Node17&#45;&gt;Node19</title>
<path fill="none" stroke="midnightblue" d="M1573.1,-48.9654C1598.71,-43.627 1627.71,-37.5802 1654.07,-32.0834"/>
<polygon fill="midnightblue" stroke="midnightblue" points="1654.96,-35.4738 1664.03,-30.0062 1653.53,-28.6212 1654.96,-35.4738"/>
</g>
<!-- Node21&#45;&gt;Node8 -->
<g id="edge21" class="edge"><title>Node21&#45;&gt;Node8</title>
<path fill="none" stroke="midnightblue" d="M825.628,-128.035C863.042,-135.281 907.195,-143.832 941.839,-150.542"/>
<polygon fill="midnightblue" stroke="midnightblue" points="941.322,-154.007 951.805,-152.472 942.653,-147.134 941.322,-154.007"/>
</g>
</g>
</svg>
