<?xml version="1.0" encoding="UTF-8" standalone="no"?>
<!DOCTYPE svg PUBLIC "-//W3C//DTD SVG 1.1//EN"
 "http://www.w3.org/Graphics/SVG/1.1/DTD/svg11.dtd">
<!-- Generated by graphviz version 2.36.0 (20140111.2315)
 -->
<!-- Title: view.SplashScreen.addProbablityButton Pages: 1 -->
<!--zoomable 296 -->
<svg id="main" version="1.1" xmlns="http://www.w3.org/2000/svg" xmlns:xlink="http://www.w3.org/1999/xlink" xml:space="preserve" onload="init(evt)">
<style type="text/css"><![CDATA[
.edge:hover path { stroke: red; }
.edge:hover polygon { stroke: red; fill: red; }
]]></style>
<script type="text/javascript"><![CDATA[
var edges = document.getElementsByTagName('g');
if (edges && edges.length) {
  for (var i=0;i<edges.length;i++) {
    if (edges[i].id.substr(0,4)=='edge') {
      edges[i].setAttribute('class','edge');
    }
  }
}
]]></script>
        <defs>
                <circle id="rim" cx="0" cy="0" r="7"/>
                <circle id="rim2" cx="0" cy="0" r="3.5"/>
                <g id="zoomPlus">
                        <use xlink:href="#rim" fill="#404040">
                                <set attributeName="fill" to="#808080" begin="zoomplus.mouseover" end="zoomplus.mouseout"/>
                        </use>
                        <path d="M-4,0h8M0,-4v8" fill="none" stroke="white" stroke-width="1.5" pointer-events="none"/>
                </g>
                <g id="zoomMin">
                        <use xlink:href="#rim" fill="#404040">
                                <set attributeName="fill" to="#808080" begin="zoomminus.mouseover" end="zoomminus.mouseout"/>
                        </use>
                        <path d="M-4,0h8" fill="none" stroke="white" stroke-width="1.5" pointer-events="none"/>
                </g>
                <g id="dirArrow">
                        <path fill="none" stroke="white" stroke-width="1.5" d="M0,-3.0v7 M-2.5,-0.5L0,-3.0L2.5,-0.5"/>
                </g>
               <g id="resetDef">
                       <use xlink:href="#rim2" fill="#404040">
                               <set attributeName="fill" to="#808080" begin="reset.mouseover" end="reset.mouseout"/>
                       </use>
               </g>
        </defs>

<script type="text/javascript">
var viewWidth = 1778;
var viewHeight = 296;
var sectionId = 'dynsection-6';
</script>
<script xlink:href="../../svgpan.js"/>
<svg id="graph" class="graph">
<g id="viewport">
<title>view.SplashScreen.addProbablityButton</title>
<polygon fill="white" stroke="none" points="-4,4 -4,-292 1774,-292 1774,4 -4,4"/>
<!-- Node1 -->
<g id="node1" class="node"><title>Node1</title>
<polygon fill="#bfbfbf" stroke="black" points="0.5,-148 0.5,-178 173.5,-178 173.5,-148 0.5,-148"/>
<text text-anchor="start" x="8.5" y="-166" font-family="Helvetica,sans-Serif" font-size="10.00">view.SplashScreen.addProbablity</text>
<text text-anchor="middle" x="87" y="-155" font-family="Helvetica,sans-Serif" font-size="10.00">Button</text>
</g>
<!-- Node2 -->
<g id="node2" class="node"><title>Node2</title>
<g id="a_node2"><a xlink:href="../../dd/d02/classview_1_1_splash_screen.html#a2f8c52e9a2a790459e51d5d42f16f7da" target="_top" xlink:title="view.SplashScreen.display\lAskInformatio">
<polygon fill="white" stroke="black" points="222.5,-170 222.5,-200 363.5,-200 363.5,-170 222.5,-170"/>
<text text-anchor="start" x="230.5" y="-188" font-family="Helvetica,sans-Serif" font-size="10.00">view.SplashScreen.display</text>
<text text-anchor="middle" x="293" y="-177" font-family="Helvetica,sans-Serif" font-size="10.00">AskInformatio</text>
</a>
</g>
</g>
<!-- Node1&#45;&gt;Node2 -->
<g id="edge1" class="edge"><title>Node1&#45;&gt;Node2</title>
<path fill="none" stroke="midnightblue" d="M173.628,-172.234C186.447,-173.617 199.621,-175.038 212.31,-176.406"/>
<polygon fill="midnightblue" stroke="midnightblue" points="212.049,-179.898 222.367,-177.491 212.8,-172.938 212.049,-179.898"/>
</g>
<!-- Node23 -->
<g id="node23" class="node"><title>Node23</title>
<g id="a_node23"><a xlink:href="../../dd/d02/classview_1_1_splash_screen.html#a329982556dc38c022b2b8c10347e34bd" target="_top" xlink:title="view.SplashScreen.formatNode">
<polygon fill="white" stroke="black" points="210,-131.5 210,-150.5 376,-150.5 376,-131.5 210,-131.5"/>
<text text-anchor="middle" x="293" y="-138.5" font-family="Helvetica,sans-Serif" font-size="10.00">view.SplashScreen.formatNode</text>
</a>
</g>
</g>
<!-- Node1&#45;&gt;Node23 -->
<g id="edge23" class="edge"><title>Node1&#45;&gt;Node23</title>
<path fill="none" stroke="midnightblue" d="M173.628,-153.766C182.248,-152.836 191.029,-151.889 199.715,-150.952"/>
<polygon fill="midnightblue" stroke="midnightblue" points="200.286,-154.411 209.853,-149.859 199.536,-147.451 200.286,-154.411"/>
</g>
<!-- Node3 -->
<g id="node3" class="node"><title>Node3</title>
<g id="a_node3"><a xlink:href="../../dd/d02/classview_1_1_splash_screen.html#ab75deddb521d5727122eec02161acc9d" target="_top" xlink:title="view.SplashScreen.remove\lButtons">
<polygon fill="white" stroke="black" points="444.5,-258 444.5,-288 589.5,-288 589.5,-258 444.5,-258"/>
<text text-anchor="start" x="452.5" y="-276" font-family="Helvetica,sans-Serif" font-size="10.00">view.SplashScreen.remove</text>
<text text-anchor="middle" x="517" y="-265" font-family="Helvetica,sans-Serif" font-size="10.00">Buttons</text>
</a>
</g>
</g>
<!-- Node2&#45;&gt;Node3 -->
<g id="edge2" class="edge"><title>Node2&#45;&gt;Node3</title>
<path fill="none" stroke="midnightblue" d="M318.001,-200.167C341.258,-214.288 377.918,-235.048 412,-248 419.262,-250.76 426.928,-253.285 434.672,-255.579"/>
<polygon fill="midnightblue" stroke="midnightblue" points="433.923,-259.004 444.499,-258.361 435.83,-252.269 433.923,-259.004"/>
</g>
<!-- Node4 -->
<g id="node4" class="node"><title>Node4</title>
<g id="a_node4"><a xlink:href="../../dd/d02/classview_1_1_splash_screen.html#ae484c2f05f910335ffacddd236eb4908" target="_top" xlink:title="view.SplashScreen.addDimensionsText">
<polygon fill="white" stroke="black" points="416.5,-219.5 416.5,-238.5 617.5,-238.5 617.5,-219.5 416.5,-219.5"/>
<text text-anchor="middle" x="517" y="-226.5" font-family="Helvetica,sans-Serif" font-size="10.00">view.SplashScreen.addDimensionsText</text>
</a>
</g>
</g>
<!-- Node2&#45;&gt;Node4 -->
<g id="edge3" class="edge"><title>Node2&#45;&gt;Node4</title>
<path fill="none" stroke="midnightblue" d="M363.546,-199.273C379.462,-202.504 396.311,-205.896 412,-209 426.289,-211.827 441.693,-214.819 456.154,-217.604"/>
<polygon fill="midnightblue" stroke="midnightblue" points="455.509,-221.044 465.99,-219.495 456.83,-214.17 455.509,-221.044"/>
</g>
<!-- Node5 -->
<g id="node5" class="node"><title>Node5</title>
<g id="a_node5"><a xlink:href="../../dd/d02/classview_1_1_splash_screen.html#ae4427d4a548843b069b35328182187fa" target="_top" xlink:title="view.SplashScreen.addSimulation\lNameText">
<polygon fill="white" stroke="black" points="428.5,-170 428.5,-200 605.5,-200 605.5,-170 428.5,-170"/>
<text text-anchor="start" x="436.5" y="-188" font-family="Helvetica,sans-Serif" font-size="10.00">view.SplashScreen.addSimulation</text>
<text text-anchor="middle" x="517" y="-177" font-family="Helvetica,sans-Serif" font-size="10.00">NameText</text>
</a>
</g>
</g>
<!-- Node2&#45;&gt;Node5 -->
<g id="edge4" class="edge"><title>Node2&#45;&gt;Node5</title>
<path fill="none" stroke="midnightblue" d="M363.633,-185C380.907,-185 399.74,-185 418.09,-185"/>
<polygon fill="midnightblue" stroke="midnightblue" points="418.221,-188.5 428.221,-185 418.221,-181.5 418.221,-188.5"/>
</g>
<!-- Node6 -->
<g id="node6" class="node"><title>Node6</title>
<g id="a_node6"><a xlink:href="../../dd/d02/classview_1_1_splash_screen.html#a05478a56856d70fd9508d79ca484fbca" target="_top" xlink:title="view.SplashScreen.addProbabilityText">
<polygon fill="white" stroke="black" points="420,-131.5 420,-150.5 614,-150.5 614,-131.5 420,-131.5"/>
<text text-anchor="middle" x="517" y="-138.5" font-family="Helvetica,sans-Serif" font-size="10.00">view.SplashScreen.addProbabilityText</text>
</a>
</g>
</g>
<!-- Node2&#45;&gt;Node6 -->
<g id="edge5" class="edge"><title>Node2&#45;&gt;Node6</title>
<path fill="none" stroke="midnightblue" d="M363.546,-170.727C379.462,-167.496 396.311,-164.104 412,-161 426.289,-158.173 441.693,-155.181 456.154,-152.396"/>
<polygon fill="midnightblue" stroke="midnightblue" points="456.83,-155.83 465.99,-150.505 455.509,-148.956 456.83,-155.83"/>
</g>
<!-- Node20 -->
<g id="node20" class="node"><title>Node20</title>
<g id="a_node20"><a xlink:href="../../d6/d7b/classcontroller_1_1_cell_society_controller.html#ab65a8810efbc2b92e17ca77cdc591df9" target="_top" xlink:title="controller.CellSocietyController.generate\lRandomGrid">
<polygon fill="white" stroke="black" points="412.5,-63 412.5,-93 621.5,-93 621.5,-63 412.5,-63"/>
<text text-anchor="start" x="420.5" y="-81" font-family="Helvetica,sans-Serif" font-size="10.00">controller.CellSocietyController.generate</text>
<text text-anchor="middle" x="517" y="-70" font-family="Helvetica,sans-Serif" font-size="10.00">RandomGrid</text>
</a>
</g>
</g>
<!-- Node2&#45;&gt;Node20 -->
<g id="edge19" class="edge"><title>Node2&#45;&gt;Node20</title>
<path fill="none" stroke="midnightblue" d="M355.974,-169.925C362.967,-167.122 369.799,-163.838 376,-160 395.783,-147.757 392.883,-135.257 412,-122 426.545,-111.914 443.765,-103.469 459.965,-96.7631"/>
<polygon fill="midnightblue" stroke="midnightblue" points="461.366,-99.9724 469.358,-93.0161 458.772,-93.4707 461.366,-99.9724"/>
</g>
<!-- Node7 -->
<g id="node7" class="node"><title>Node7</title>
<g id="a_node7"><a xlink:href="../../d6/d7b/classcontroller_1_1_cell_society_controller.html#ada30fdc135cdf08b93065edf15ed3fcc" target="_top" xlink:title="controller.CellSocietyController.generate\lProbabilityRandomGrid">
<polygon fill="white" stroke="black" points="658.5,-175 658.5,-205 867.5,-205 867.5,-175 658.5,-175"/>
<text text-anchor="start" x="666.5" y="-193" font-family="Helvetica,sans-Serif" font-size="10.00">controller.CellSocietyController.generate</text>
<text text-anchor="middle" x="763" y="-182" font-family="Helvetica,sans-Serif" font-size="10.00">ProbabilityRandomGrid</text>
</a>
</g>
</g>
<!-- Node6&#45;&gt;Node7 -->
<g id="edge6" class="edge"><title>Node6&#45;&gt;Node7</title>
<path fill="none" stroke="midnightblue" d="M568.281,-150.52C585.344,-153.79 604.511,-157.507 622,-161 640.966,-164.788 661.356,-168.956 680.547,-172.923"/>
<polygon fill="midnightblue" stroke="midnightblue" points="679.957,-176.375 690.459,-174.976 681.376,-169.52 679.957,-176.375"/>
</g>
<!-- Node19 -->
<g id="node19" class="node"><title>Node19</title>
<g id="a_node19"><a xlink:href="../../dd/d02/classview_1_1_splash_screen.html#a1e747e968477f14fbd6d6cd4a508e008" target="_top" xlink:title="view.SplashScreen.remove\lAskScreenNodes">
<polygon fill="white" stroke="black" points="690.5,-126 690.5,-156 835.5,-156 835.5,-126 690.5,-126"/>
<text text-anchor="start" x="698.5" y="-144" font-family="Helvetica,sans-Serif" font-size="10.00">view.SplashScreen.remove</text>
<text text-anchor="middle" x="763" y="-133" font-family="Helvetica,sans-Serif" font-size="10.00">AskScreenNodes</text>
</a>
</g>
</g>
<!-- Node6&#45;&gt;Node19 -->
<g id="edge18" class="edge"><title>Node6&#45;&gt;Node19</title>
<path fill="none" stroke="midnightblue" d="M614.085,-141C635.86,-141 658.79,-141 679.924,-141"/>
<polygon fill="midnightblue" stroke="midnightblue" points="680.141,-144.5 690.141,-141 680.141,-137.5 680.141,-144.5"/>
</g>
<!-- Node8 -->
<g id="node8" class="node"><title>Node8</title>
<g id="a_node8"><a xlink:href="../../d3/dc8/classcontroller_1_1_probability_sim_generator.html#a66a18a40b330a1650ff804385ed3abc2" target="_top" xlink:title="controller.ProbabilitySim\lGenerator.getGrid">
<polygon fill="white" stroke="black" points="943,-213 943,-243 1075,-243 1075,-213 943,-213"/>
<text text-anchor="start" x="951" y="-231" font-family="Helvetica,sans-Serif" font-size="10.00">controller.ProbabilitySim</text>
<text text-anchor="middle" x="1009" y="-220" font-family="Helvetica,sans-Serif" font-size="10.00">Generator.getGrid</text>
</a>
</g>
</g>
<!-- Node7&#45;&gt;Node8 -->
<g id="edge7" class="edge"><title>Node7&#45;&gt;Node8</title>
<path fill="none" stroke="midnightblue" d="M860.435,-205.019C884.455,-208.759 909.858,-212.716 932.692,-216.272"/>
<polygon fill="midnightblue" stroke="midnightblue" points="932.228,-219.742 942.648,-217.822 933.305,-212.825 932.228,-219.742"/>
</g>
<!-- Node9 -->
<g id="node9" class="node"><title>Node9</title>
<g id="a_node9"><a xlink:href="../../d3/dc8/classcontroller_1_1_probability_sim_generator.html#aa5aa2ef09d94ff11c6912b34fafa1d4a" target="_top" xlink:title="controller.ProbabilitySim\lGenerator.getParameters">
<polygon fill="white" stroke="black" points="939.5,-164 939.5,-194 1078.5,-194 1078.5,-164 939.5,-164"/>
<text text-anchor="start" x="947.5" y="-182" font-family="Helvetica,sans-Serif" font-size="10.00">controller.ProbabilitySim</text>
<text text-anchor="middle" x="1009" y="-171" font-family="Helvetica,sans-Serif" font-size="10.00">Generator.getParameters</text>
</a>
</g>
</g>
<!-- Node7&#45;&gt;Node9 -->
<g id="edge8" class="edge"><title>Node7&#45;&gt;Node9</title>
<path fill="none" stroke="midnightblue" d="M867.832,-185.319C888.376,-184.393 909.624,-183.435 929.174,-182.554"/>
<polygon fill="midnightblue" stroke="midnightblue" points="929.397,-186.047 939.229,-182.1 929.082,-179.054 929.397,-186.047"/>
</g>
<!-- Node10 -->
<g id="node10" class="node"><title>Node10</title>
<g id="a_node10"><a xlink:href="../../d6/d7b/classcontroller_1_1_cell_society_controller.html#a3d913ad3344ac48e887110e2fabb5746" target="_top" xlink:title="controller.CellSocietyController.transition\lToSimulation">
<polygon fill="white" stroke="black" points="904,-104 904,-134 1114,-134 1114,-104 904,-104"/>
<text text-anchor="start" x="912" y="-122" font-family="Helvetica,sans-Serif" font-size="10.00">controller.CellSocietyController.transition</text>
<text text-anchor="middle" x="1009" y="-111" font-family="Helvetica,sans-Serif" font-size="10.00">ToSimulation</text>
</a>
</g>
</g>
<!-- Node7&#45;&gt;Node10 -->
<g id="edge9" class="edge"><title>Node7&#45;&gt;Node10</title>
<path fill="none" stroke="midnightblue" d="M830.231,-174.936C842.821,-171.83 855.853,-168.449 868,-165 897.243,-156.696 929.5,-146.191 955.673,-137.317"/>
<polygon fill="midnightblue" stroke="midnightblue" points="957.053,-140.544 965.388,-134.003 954.793,-133.919 957.053,-140.544"/>
</g>
<!-- Node11 -->
<g id="node11" class="node"><title>Node11</title>
<g id="a_node11"><a xlink:href="../../d6/d7b/classcontroller_1_1_cell_society_controller.html#a8af25de87ececa5ca913e7b5af486b3f" target="_top" xlink:title="controller.CellSocietyController.initialize\lSimulation">
<polygon fill="white" stroke="black" points="1150.5,-153 1150.5,-183 1353.5,-183 1353.5,-153 1150.5,-153"/>
<text text-anchor="start" x="1158.5" y="-171" font-family="Helvetica,sans-Serif" font-size="10.00">controller.CellSocietyController.initialize</text>
<text text-anchor="middle" x="1252" y="-160" font-family="Helvetica,sans-Serif" font-size="10.00">Simulation</text>
</a>
</g>
</g>
<!-- Node10&#45;&gt;Node11 -->
<g id="edge10" class="edge"><title>Node10&#45;&gt;Node11</title>
<path fill="none" stroke="midnightblue" d="M1083.95,-134.035C1110.32,-139.396 1140.2,-145.473 1167.33,-150.989"/>
<polygon fill="midnightblue" stroke="midnightblue" points="1166.7,-154.431 1177.19,-152.994 1168.09,-147.571 1166.7,-154.431"/>
</g>
<!-- Node12 -->
<g id="node12" class="node"><title>Node12</title>
<g id="a_node12"><a xlink:href="../../d6/d7b/classcontroller_1_1_cell_society_controller.html#af6b4eb647c4e76fef6f27cc61ced4d9a" target="_top" xlink:title="controller.CellSocietyController.initialize\lSimulationScreen">
<polygon fill="white" stroke="black" points="1150.5,-104 1150.5,-134 1353.5,-134 1353.5,-104 1150.5,-104"/>
<text text-anchor="start" x="1158.5" y="-122" font-family="Helvetica,sans-Serif" font-size="10.00">controller.CellSocietyController.initialize</text>
<text text-anchor="middle" x="1252" y="-111" font-family="Helvetica,sans-Serif" font-size="10.00">SimulationScreen</text>
</a>
</g>
</g>
<!-- Node10&#45;&gt;Node12 -->
<g id="edge11" class="edge"><title>Node10&#45;&gt;Node12</title>
<path fill="none" stroke="midnightblue" d="M1114.3,-119C1122.9,-119 1131.61,-119 1140.25,-119"/>
<polygon fill="midnightblue" stroke="midnightblue" points="1140.35,-122.5 1150.35,-119 1140.35,-115.5 1140.35,-122.5"/>
</g>
<!-- Node16 -->
<g id="node16" class="node"><title>Node16</title>
<g id="a_node16"><a xlink:href="../../d6/d7b/classcontroller_1_1_cell_society_controller.html#a7609d9a174ff7d2d00fc27e3574cdb21" target="_top" xlink:title="controller.CellSocietyController.stop\lOrStart">
<polygon fill="white" stroke="black" points="1159,-55 1159,-85 1345,-85 1345,-55 1159,-55"/>
<text text-anchor="start" x="1167" y="-73" font-family="Helvetica,sans-Serif" font-size="10.00">controller.CellSocietyController.stop</text>
<text text-anchor="middle" x="1252" y="-62" font-family="Helvetica,sans-Serif" font-size="10.00">OrStart</text>
</a>
</g>
</g>
<!-- Node10&#45;&gt;Node16 -->
<g id="edge15" class="edge"><title>Node10&#45;&gt;Node16</title>
<path fill="none" stroke="midnightblue" d="M1083.95,-103.965C1110.32,-98.6035 1140.2,-92.5269 1167.33,-87.0108"/>
<polygon fill="midnightblue" stroke="midnightblue" points="1168.09,-90.4285 1177.19,-85.0062 1166.7,-83.5689 1168.09,-90.4285"/>
</g>
<!-- Node13 -->
<g id="node13" class="node"><title>Node13</title>
<g id="a_node13"><a xlink:href="../../d1/d3e/classview_1_1_simulation_screen.html#a482a021910f4b997fb7b798bdc363df4" target="_top" xlink:title="view.SimulationScreen.getNode">
<polygon fill="white" stroke="black" points="1405,-153.5 1405,-172.5 1573,-172.5 1573,-153.5 1405,-153.5"/>
<text text-anchor="middle" x="1489" y="-160.5" font-family="Helvetica,sans-Serif" font-size="10.00">view.SimulationScreen.getNode</text>
</a>
</g>
</g>
<!-- Node12&#45;&gt;Node13 -->
<g id="edge12" class="edge"><title>Node12&#45;&gt;Node13</title>
<path fill="none" stroke="midnightblue" d="M1333.22,-134.019C1364.02,-139.787 1398.64,-146.269 1427.32,-151.638"/>
<polygon fill="midnightblue" stroke="midnightblue" points="1426.72,-155.087 1437.2,-153.488 1428.01,-148.207 1426.72,-155.087"/>
</g>
<!-- Node14 -->
<g id="node14" class="node"><title>Node14</title>
<g id="a_node14"><a xlink:href="../../d1/d3e/classview_1_1_simulation_screen.html#a6c9f5c7e36be620d06e55709bc256d18" target="_top" xlink:title="view.SimulationScreen.init\lSimScreen">
<polygon fill="white" stroke="black" points="1418.5,-104 1418.5,-134 1559.5,-134 1559.5,-104 1418.5,-104"/>
<text text-anchor="start" x="1426.5" y="-122" font-family="Helvetica,sans-Serif" font-size="10.00">view.SimulationScreen.init</text>
<text text-anchor="middle" x="1489" y="-111" font-family="Helvetica,sans-Serif" font-size="10.00">SimScreen</text>
</a>
</g>
</g>
<!-- Node12&#45;&gt;Node14 -->
<g id="edge13" class="edge"><title>Node12&#45;&gt;Node14</title>
<path fill="none" stroke="midnightblue" d="M1353.68,-119C1371.91,-119 1390.68,-119 1408.21,-119"/>
<polygon fill="midnightblue" stroke="midnightblue" points="1408.37,-122.5 1418.37,-119 1408.37,-115.5 1408.37,-122.5"/>
</g>
<!-- Node15 -->
<g id="node15" class="node"><title>Node15</title>
<g id="a_node15"><a xlink:href="../../d1/d3e/classview_1_1_simulation_screen.html#a7144a80861195f360ade7612b479ff3e" target="_top" xlink:title="view.SimulationScreen.add\lButtons">
<polygon fill="white" stroke="black" points="1624.5,-104 1624.5,-134 1769.5,-134 1769.5,-104 1624.5,-104"/>
<text text-anchor="start" x="1632.5" y="-122" font-family="Helvetica,sans-Serif" font-size="10.00">view.SimulationScreen.add</text>
<text text-anchor="middle" x="1697" y="-111" font-family="Helvetica,sans-Serif" font-size="10.00">Buttons</text>
</a>
</g>
</g>
<!-- Node14&#45;&gt;Node15 -->
<g id="edge14" class="edge"><title>Node14&#45;&gt;Node15</title>
<path fill="none" stroke="midnightblue" d="M1559.74,-119C1577.19,-119 1596.07,-119 1614.05,-119"/>
<polygon fill="midnightblue" stroke="midnightblue" points="1614.22,-122.5 1624.22,-119 1614.22,-115.5 1614.22,-122.5"/>
</g>
<!-- Node17 -->
<g id="node17" class="node"><title>Node17</title>
<g id="a_node17"><a xlink:href="../../d6/d7b/classcontroller_1_1_cell_society_controller.html#a33e7a77467ceeb880526a1b405b3ee79" target="_top" xlink:title="controller.CellSocietyController.pause\lSimulation">
<polygon fill="white" stroke="black" points="1392,-55 1392,-85 1586,-85 1586,-55 1392,-55"/>
<text text-anchor="start" x="1400" y="-73" font-family="Helvetica,sans-Serif" font-size="10.00">controller.CellSocietyController.pause</text>
<text text-anchor="middle" x="1489" y="-62" font-family="Helvetica,sans-Serif" font-size="10.00">Simulation</text>
</a>
</g>
</g>
<!-- Node16&#45;&gt;Node17 -->
<g id="edge16" class="edge"><title>Node16&#45;&gt;Node17</title>
<path fill="none" stroke="midnightblue" d="M1345.2,-70C1357.16,-70 1369.48,-70 1381.64,-70"/>
<polygon fill="midnightblue" stroke="midnightblue" points="1381.81,-73.5001 1391.81,-70 1381.81,-66.5001 1381.81,-73.5001"/>
</g>
<!-- Node18 -->
<g id="node18" class="node"><title>Node18</title>
<g id="a_node18"><a xlink:href="../../d6/d7b/classcontroller_1_1_cell_society_controller.html#aec38c45810ee2665fe01832114fbc68d" target="_top" xlink:title="controller.CellSocietyController.restart\lSimulation">
<polygon fill="white" stroke="black" points="1390.5,-6 1390.5,-36 1587.5,-36 1587.5,-6 1390.5,-6"/>
<text text-anchor="start" x="1398.5" y="-24" font-family="Helvetica,sans-Serif" font-size="10.00">controller.CellSocietyController.restart</text>
<text text-anchor="middle" x="1489" y="-13" font-family="Helvetica,sans-Serif" font-size="10.00">Simulation</text>
</a>
</g>
</g>
<!-- Node16&#45;&gt;Node18 -->
<g id="edge17" class="edge"><title>Node16&#45;&gt;Node18</title>
<path fill="none" stroke="midnightblue" d="M1325.1,-54.9654C1350.71,-49.627 1379.71,-43.5802 1406.07,-38.0834"/>
<polygon fill="midnightblue" stroke="midnightblue" points="1406.96,-41.4738 1416.03,-36.0062 1405.53,-34.6212 1406.96,-41.4738"/>
</g>
<!-- Node20&#45;&gt;Node10 -->
<g id="edge22" class="edge"><title>Node20&#45;&gt;Node10</title>
<path fill="none" stroke="midnightblue" d="M621.617,-86.67C701.287,-93.3362 811.28,-102.54 893.541,-109.423"/>
<polygon fill="midnightblue" stroke="midnightblue" points="893.428,-112.926 903.685,-110.272 894.012,-105.95 893.428,-112.926"/>
</g>
<!-- Node21 -->
<g id="node21" class="node"><title>Node21</title>
<g id="a_node21"><a xlink:href="../../d4/d2d/classcontroller_1_1_random_sim_generator.html#a807ccd4617ee16b3f28aadfa544c42cb" target="_top" xlink:title="controller.RandomSimGenerator.getGrid">
<polygon fill="white" stroke="black" points="658.5,-49.5 658.5,-68.5 867.5,-68.5 867.5,-49.5 658.5,-49.5"/>
<text text-anchor="middle" x="763" y="-56.5" font-family="Helvetica,sans-Serif" font-size="10.00">controller.RandomSimGenerator.getGrid</text>
</a>
</g>
</g>
<!-- Node20&#45;&gt;Node21 -->
<g id="edge20" class="edge"><title>Node20&#45;&gt;Node21</title>
<path fill="none" stroke="midnightblue" d="M621.832,-69.9147C630.502,-69.2396 639.297,-68.5547 648.038,-67.8741"/>
<polygon fill="midnightblue" stroke="midnightblue" points="648.563,-71.3439 658.262,-67.078 648.02,-64.365 648.563,-71.3439"/>
</g>
<!-- Node22 -->
<g id="node22" class="node"><title>Node22</title>
<g id="a_node22"><a xlink:href="../../d4/d2d/classcontroller_1_1_random_sim_generator.html#a93fd8f4276dc3a0271fe51b37664f77a" target="_top" xlink:title="controller.RandomSimGenerator.get\lParameters">
<polygon fill="white" stroke="black" points="668.5,-0 668.5,-30 857.5,-30 857.5,-0 668.5,-0"/>
<text text-anchor="start" x="676.5" y="-18" font-family="Helvetica,sans-Serif" font-size="10.00">controller.RandomSimGenerator.get</text>
<text text-anchor="middle" x="763" y="-7" font-family="Helvetica,sans-Serif" font-size="10.00">Parameters</text>
</a>
</g>
</g>
<!-- Node20&#45;&gt;Node22 -->
<g id="edge21" class="edge"><title>Node20&#45;&gt;Node22</title>
<path fill="none" stroke="midnightblue" d="M572.087,-62.9248C598.028,-55.7955 629.575,-47.2725 658,-40 667.816,-37.4886 678.172,-34.912 688.392,-32.4122"/>
<polygon fill="midnightblue" stroke="midnightblue" points="689.238,-35.8086 698.127,-30.0436 687.583,-29.0071 689.238,-35.8086"/>
</g>
</g>
</svg>
        <g id="navigator" transform="translate(0 0)" fill="#404254">
                <rect fill="#f2f5e9" fill-opacity="0.5" stroke="#606060" stroke-width=".5" x="0" y="0" width="60" height="60"/>
                <use id="zoomplus" xlink:href="#zoomPlus" x="17" y="9" onmousedown="handleZoom(evt,'in')"/>
                <use id="zoomminus" xlink:href="#zoomMin" x="42" y="9" onmousedown="handleZoom(evt,'out')"/>
                <use id="reset" xlink:href="#resetDef" x="30" y="36" onmousedown="handleReset()"/>
                <g id="arrowUp" xlink:href="#dirArrow" transform="translate(30 24)" onmousedown="handlePan(0,-1)">
                  <use xlink:href="#rim" fill="#404040">
                        <set attributeName="fill" to="#808080" begin="arrowUp.mouseover" end="arrowUp.mouseout"/>
                  </use>
                  <path fill="none" stroke="white" stroke-width="1.5" d="M0,-3.0v7 M-2.5,-0.5L0,-3.0L2.5,-0.5"/>
                </g>
                <g id="arrowRight" xlink:href="#dirArrow" transform="rotate(90) translate(36 -43)" onmousedown="handlePan(1,0)">
                  <use xlink:href="#rim" fill="#404040">
                        <set attributeName="fill" to="#808080" begin="arrowRight.mouseover" end="arrowRight.mouseout"/>
                  </use>
                  <path fill="none" stroke="white" stroke-width="1.5" d="M0,-3.0v7 M-2.5,-0.5L0,-3.0L2.5,-0.5"/>
                </g>
                <g id="arrowDown" xlink:href="#dirArrow" transform="rotate(180) translate(-30 -48)" onmousedown="handlePan(0,1)">
                  <use xlink:href="#rim" fill="#404040">
                        <set attributeName="fill" to="#808080" begin="arrowDown.mouseover" end="arrowDown.mouseout"/>
                  </use>
                  <path fill="none" stroke="white" stroke-width="1.5" d="M0,-3.0v7 M-2.5,-0.5L0,-3.0L2.5,-0.5"/>
                </g>
                <g id="arrowLeft" xlink:href="#dirArrow" transform="rotate(270) translate(-36 17)" onmousedown="handlePan(-1,0)">
                  <use xlink:href="#rim" fill="#404040">
                        <set attributeName="fill" to="#808080" begin="arrowLeft.mouseover" end="arrowLeft.mouseout"/>
                  </use>
                  <path fill="none" stroke="white" stroke-width="1.5" d="M0,-3.0v7 M-2.5,-0.5L0,-3.0L2.5,-0.5"/>
                </g>
        </g>
        <svg viewBox="0 0 15 15" width="100%" height="30px" preserveAspectRatio="xMaxYMin meet">
         <g id="arrow_out" transform="scale(0.3 0.3)">
          <a xlink:href="classview_1_1_splash_screen_ad94d9edd23f270a5f480fd54a06d72f3_cgraph_org.svg" target="_base">
           <rect id="button" ry="5" rx="5" y="6" x="6" height="38" width="38"
                fill="#f2f5e9" fill-opacity="0.5" stroke="#606060" stroke-width="1.0"/>
           <path id="arrow"
             d="M 11.500037,31.436501 C 11.940474,20.09759 22.043105,11.32322 32.158766,21.979434 L 37.068811,17.246167 C 37.068811,17.246167 37.088388,32 37.088388,32 L 22.160133,31.978069 C 22.160133,31.978069 26.997745,27.140456 26.997745,27.140456 C 18.528582,18.264221 13.291696,25.230495 11.500037,31.436501 z"
             style="fill:#404040;"/>
          </a>
         </g>
        </svg>
</svg>
