<?xml version="1.0" encoding="UTF-8" standalone="no"?>
<!DOCTYPE svg PUBLIC "-//W3C//DTD SVG 1.1//EN"
 "http://www.w3.org/Graphics/SVG/1.1/DTD/svg11.dtd">
<!-- Generated by graphviz version 2.36.0 (20140111.2315)
 -->
<!-- Title: view.SplashScreen.displayAskInformatio Pages: 1 -->
<svg width="1544pt" height="256pt"
 viewBox="0.00 0.00 1544.00 256.00" xmlns="http://www.w3.org/2000/svg" xmlns:xlink="http://www.w3.org/1999/xlink">
<g id="graph0" class="graph" transform="scale(1 1) rotate(0) translate(4 252)">
<title>view.SplashScreen.displayAskInformatio</title>
<polygon fill="white" stroke="none" points="-4,4 -4,-252 1540,-252 1540,4 -4,4"/>
<!-- Node1 -->
<g id="node1" class="node"><title>Node1</title>
<polygon fill="#bfbfbf" stroke="black" points="0.5,-98 0.5,-128 141.5,-128 141.5,-98 0.5,-98"/>
<text text-anchor="start" x="8.5" y="-116" font-family="Helvetica,sans-Serif" font-size="10.00">view.SplashScreen.display</text>
<text text-anchor="middle" x="71" y="-105" font-family="Helvetica,sans-Serif" font-size="10.00">AskInformatio</text>
</g>
<!-- Node2 -->
<g id="node2" class="node"><title>Node2</title>
<g id="a_node2"><a xlink:href="../../dd/d02/classview_1_1_splash_screen.html#ae484c2f05f910335ffacddd236eb4908" target="_top" xlink:title="view.SplashScreen.addDimensionsText">
<polygon fill="white" stroke="black" points="182.5,-185.5 182.5,-204.5 383.5,-204.5 383.5,-185.5 182.5,-185.5"/>
<text text-anchor="middle" x="283" y="-192.5" font-family="Helvetica,sans-Serif" font-size="10.00">view.SplashScreen.addDimensionsText</text>
</a>
</g>
</g>
<!-- Node1&#45;&gt;Node2 -->
<g id="edge1" class="edge"><title>Node1&#45;&gt;Node2</title>
<path fill="none" stroke="midnightblue" d="M92.3938,-128.137C112.955,-142.647 146.125,-164.058 178,-176 185.311,-178.739 193.065,-181.093 200.911,-183.113"/>
<polygon fill="midnightblue" stroke="midnightblue" points="200.333,-186.574 210.873,-185.498 201.963,-179.766 200.333,-186.574"/>
</g>
<!-- Node3 -->
<g id="node3" class="node"><title>Node3</title>
<g id="a_node3"><a xlink:href="../../dd/d02/classview_1_1_splash_screen.html#a05478a56856d70fd9508d79ca484fbca" target="_top" xlink:title="view.SplashScreen.addProbabilityText">
<polygon fill="white" stroke="black" points="186,-147.5 186,-166.5 380,-166.5 380,-147.5 186,-147.5"/>
<text text-anchor="middle" x="283" y="-154.5" font-family="Helvetica,sans-Serif" font-size="10.00">view.SplashScreen.addProbabilityText</text>
</a>
</g>
</g>
<!-- Node1&#45;&gt;Node3 -->
<g id="edge2" class="edge"><title>Node1&#45;&gt;Node3</title>
<path fill="none" stroke="midnightblue" d="M136.954,-128.059C150.5,-131.101 164.703,-134.217 178,-137 191.757,-139.879 206.572,-142.823 220.586,-145.535"/>
<polygon fill="midnightblue" stroke="midnightblue" points="220.141,-149.013 230.622,-147.464 221.463,-142.139 220.141,-149.013"/>
</g>
<!-- Node17 -->
<g id="node17" class="node"><title>Node17</title>
<g id="a_node17"><a xlink:href="../../dd/d02/classview_1_1_splash_screen.html#ae4427d4a548843b069b35328182187fa" target="_top" xlink:title="view.SplashScreen.addSimulation\lNameText">
<polygon fill="white" stroke="black" points="194.5,-98 194.5,-128 371.5,-128 371.5,-98 194.5,-98"/>
<text text-anchor="start" x="202.5" y="-116" font-family="Helvetica,sans-Serif" font-size="10.00">view.SplashScreen.addSimulation</text>
<text text-anchor="middle" x="283" y="-105" font-family="Helvetica,sans-Serif" font-size="10.00">NameText</text>
</a>
</g>
</g>
<!-- Node1&#45;&gt;Node17 -->
<g id="edge16" class="edge"><title>Node1&#45;&gt;Node17</title>
<path fill="none" stroke="midnightblue" d="M141.635,-113C155.182,-113 169.617,-113 183.883,-113"/>
<polygon fill="midnightblue" stroke="midnightblue" points="184.225,-116.5 194.225,-113 184.225,-109.5 184.225,-116.5"/>
</g>
<!-- Node18 -->
<g id="node18" class="node"><title>Node18</title>
<g id="a_node18"><a xlink:href="../../d6/d7b/classcontroller_1_1_cell_society_controller.html#ab65a8810efbc2b92e17ca77cdc591df9" target="_top" xlink:title="controller.CellSocietyController.generate\lRandomGrid">
<polygon fill="white" stroke="black" points="178.5,-49 178.5,-79 387.5,-79 387.5,-49 178.5,-49"/>
<text text-anchor="start" x="186.5" y="-67" font-family="Helvetica,sans-Serif" font-size="10.00">controller.CellSocietyController.generate</text>
<text text-anchor="middle" x="283" y="-56" font-family="Helvetica,sans-Serif" font-size="10.00">RandomGrid</text>
</a>
</g>
</g>
<!-- Node1&#45;&gt;Node18 -->
<g id="edge17" class="edge"><title>Node1&#45;&gt;Node18</title>
<path fill="none" stroke="midnightblue" d="M136.434,-97.9654C159.01,-92.6976 184.543,-86.7399 207.85,-81.3016"/>
<polygon fill="midnightblue" stroke="midnightblue" points="208.745,-84.687 217.688,-79.0062 207.154,-77.8701 208.745,-84.687"/>
</g>
<!-- Node21 -->
<g id="node21" class="node"><title>Node21</title>
<g id="a_node21"><a xlink:href="../../dd/d02/classview_1_1_splash_screen.html#ab75deddb521d5727122eec02161acc9d" target="_top" xlink:title="view.SplashScreen.remove\lButtons">
<polygon fill="white" stroke="black" points="210.5,-0 210.5,-30 355.5,-30 355.5,-0 210.5,-0"/>
<text text-anchor="start" x="218.5" y="-18" font-family="Helvetica,sans-Serif" font-size="10.00">view.SplashScreen.remove</text>
<text text-anchor="middle" x="283" y="-7" font-family="Helvetica,sans-Serif" font-size="10.00">Buttons</text>
</a>
</g>
</g>
<!-- Node1&#45;&gt;Node21 -->
<g id="edge21" class="edge"><title>Node1&#45;&gt;Node21</title>
<path fill="none" stroke="midnightblue" d="M89.531,-97.8782C109.611,-81.317 144.124,-55.1077 178,-40 185.234,-36.7737 192.945,-33.9284 200.773,-31.4268"/>
<polygon fill="midnightblue" stroke="midnightblue" points="201.788,-34.7765 210.355,-28.5433 199.771,-28.0734 201.788,-34.7765"/>
</g>
<!-- Node4 -->
<g id="node4" class="node"><title>Node4</title>
<g id="a_node4"><a xlink:href="../../d6/d7b/classcontroller_1_1_cell_society_controller.html#ada30fdc135cdf08b93065edf15ed3fcc" target="_top" xlink:title="controller.CellSocietyController.generate\lProbabilityRandomGrid">
<polygon fill="white" stroke="black" points="424.5,-180 424.5,-210 633.5,-210 633.5,-180 424.5,-180"/>
<text text-anchor="start" x="432.5" y="-198" font-family="Helvetica,sans-Serif" font-size="10.00">controller.CellSocietyController.generate</text>
<text text-anchor="middle" x="529" y="-187" font-family="Helvetica,sans-Serif" font-size="10.00">ProbabilityRandomGrid</text>
</a>
</g>
</g>
<!-- Node3&#45;&gt;Node4 -->
<g id="edge3" class="edge"><title>Node3&#45;&gt;Node4</title>
<path fill="none" stroke="midnightblue" d="M345.257,-166.54C368.414,-170.146 395.492,-174.363 421.6,-178.43"/>
<polygon fill="midnightblue" stroke="midnightblue" points="421.129,-181.898 431.549,-179.979 422.207,-174.982 421.129,-181.898"/>
</g>
<!-- Node16 -->
<g id="node16" class="node"><title>Node16</title>
<g id="a_node16"><a xlink:href="../../dd/d02/classview_1_1_splash_screen.html#a1e747e968477f14fbd6d6cd4a508e008" target="_top" xlink:title="view.SplashScreen.remove\lAskScreenNodes">
<polygon fill="white" stroke="black" points="456.5,-131 456.5,-161 601.5,-161 601.5,-131 456.5,-131"/>
<text text-anchor="start" x="464.5" y="-149" font-family="Helvetica,sans-Serif" font-size="10.00">view.SplashScreen.remove</text>
<text text-anchor="middle" x="529" y="-138" font-family="Helvetica,sans-Serif" font-size="10.00">AskScreenNodes</text>
</a>
</g>
</g>
<!-- Node3&#45;&gt;Node16 -->
<g id="edge15" class="edge"><title>Node3&#45;&gt;Node16</title>
<path fill="none" stroke="midnightblue" d="M380.085,-152.668C401.86,-151.687 424.79,-150.653 445.924,-149.7"/>
<polygon fill="midnightblue" stroke="midnightblue" points="446.309,-153.186 456.141,-149.24 445.994,-146.194 446.309,-153.186"/>
</g>
<!-- Node5 -->
<g id="node5" class="node"><title>Node5</title>
<g id="a_node5"><a xlink:href="../../d3/dc8/classcontroller_1_1_probability_sim_generator.html#a66a18a40b330a1650ff804385ed3abc2" target="_top" xlink:title="controller.ProbabilitySim\lGenerator.getGrid">
<polygon fill="white" stroke="black" points="709,-218 709,-248 841,-248 841,-218 709,-218"/>
<text text-anchor="start" x="717" y="-236" font-family="Helvetica,sans-Serif" font-size="10.00">controller.ProbabilitySim</text>
<text text-anchor="middle" x="775" y="-225" font-family="Helvetica,sans-Serif" font-size="10.00">Generator.getGrid</text>
</a>
</g>
</g>
<!-- Node4&#45;&gt;Node5 -->
<g id="edge4" class="edge"><title>Node4&#45;&gt;Node5</title>
<path fill="none" stroke="midnightblue" d="M626.435,-210.019C650.455,-213.759 675.858,-217.716 698.692,-221.272"/>
<polygon fill="midnightblue" stroke="midnightblue" points="698.228,-224.742 708.648,-222.822 699.305,-217.825 698.228,-224.742"/>
</g>
<!-- Node6 -->
<g id="node6" class="node"><title>Node6</title>
<g id="a_node6"><a xlink:href="../../d3/dc8/classcontroller_1_1_probability_sim_generator.html#aa5aa2ef09d94ff11c6912b34fafa1d4a" target="_top" xlink:title="controller.ProbabilitySim\lGenerator.getParameters">
<polygon fill="white" stroke="black" points="705.5,-169 705.5,-199 844.5,-199 844.5,-169 705.5,-169"/>
<text text-anchor="start" x="713.5" y="-187" font-family="Helvetica,sans-Serif" font-size="10.00">controller.ProbabilitySim</text>
<text text-anchor="middle" x="775" y="-176" font-family="Helvetica,sans-Serif" font-size="10.00">Generator.getParameters</text>
</a>
</g>
</g>
<!-- Node4&#45;&gt;Node6 -->
<g id="edge5" class="edge"><title>Node4&#45;&gt;Node6</title>
<path fill="none" stroke="midnightblue" d="M633.832,-190.319C654.376,-189.393 675.624,-188.435 695.174,-187.554"/>
<polygon fill="midnightblue" stroke="midnightblue" points="695.397,-191.047 705.229,-187.1 695.082,-184.054 695.397,-191.047"/>
</g>
<!-- Node7 -->
<g id="node7" class="node"><title>Node7</title>
<g id="a_node7"><a xlink:href="../../d6/d7b/classcontroller_1_1_cell_society_controller.html#a3d913ad3344ac48e887110e2fabb5746" target="_top" xlink:title="controller.CellSocietyController.transition\lToSimulation">
<polygon fill="white" stroke="black" points="670,-109 670,-139 880,-139 880,-109 670,-109"/>
<text text-anchor="start" x="678" y="-127" font-family="Helvetica,sans-Serif" font-size="10.00">controller.CellSocietyController.transition</text>
<text text-anchor="middle" x="775" y="-116" font-family="Helvetica,sans-Serif" font-size="10.00">ToSimulation</text>
</a>
</g>
</g>
<!-- Node4&#45;&gt;Node7 -->
<g id="edge6" class="edge"><title>Node4&#45;&gt;Node7</title>
<path fill="none" stroke="midnightblue" d="M596.231,-179.936C608.821,-176.83 621.853,-173.449 634,-170 663.243,-161.696 695.5,-151.191 721.673,-142.317"/>
<polygon fill="midnightblue" stroke="midnightblue" points="723.053,-145.544 731.388,-139.003 720.793,-138.919 723.053,-145.544"/>
</g>
<!-- Node8 -->
<g id="node8" class="node"><title>Node8</title>
<g id="a_node8"><a xlink:href="../../d6/d7b/classcontroller_1_1_cell_society_controller.html#a8af25de87ececa5ca913e7b5af486b3f" target="_top" xlink:title="controller.CellSocietyController.initialize\lSimulation">
<polygon fill="white" stroke="black" points="916.5,-158 916.5,-188 1119.5,-188 1119.5,-158 916.5,-158"/>
<text text-anchor="start" x="924.5" y="-176" font-family="Helvetica,sans-Serif" font-size="10.00">controller.CellSocietyController.initialize</text>
<text text-anchor="middle" x="1018" y="-165" font-family="Helvetica,sans-Serif" font-size="10.00">Simulation</text>
</a>
</g>
</g>
<!-- Node7&#45;&gt;Node8 -->
<g id="edge7" class="edge"><title>Node7&#45;&gt;Node8</title>
<path fill="none" stroke="midnightblue" d="M849.946,-139.035C876.317,-144.396 906.204,-150.473 933.335,-155.989"/>
<polygon fill="midnightblue" stroke="midnightblue" points="932.697,-159.431 943.194,-157.994 934.092,-152.571 932.697,-159.431"/>
</g>
<!-- Node9 -->
<g id="node9" class="node"><title>Node9</title>
<g id="a_node9"><a xlink:href="../../d6/d7b/classcontroller_1_1_cell_society_controller.html#af6b4eb647c4e76fef6f27cc61ced4d9a" target="_top" xlink:title="controller.CellSocietyController.initialize\lSimulationScreen">
<polygon fill="white" stroke="black" points="916.5,-109 916.5,-139 1119.5,-139 1119.5,-109 916.5,-109"/>
<text text-anchor="start" x="924.5" y="-127" font-family="Helvetica,sans-Serif" font-size="10.00">controller.CellSocietyController.initialize</text>
<text text-anchor="middle" x="1018" y="-116" font-family="Helvetica,sans-Serif" font-size="10.00">SimulationScreen</text>
</a>
</g>
</g>
<!-- Node7&#45;&gt;Node9 -->
<g id="edge8" class="edge"><title>Node7&#45;&gt;Node9</title>
<path fill="none" stroke="midnightblue" d="M880.304,-124C888.899,-124 897.606,-124 906.246,-124"/>
<polygon fill="midnightblue" stroke="midnightblue" points="906.346,-127.5 916.346,-124 906.346,-120.5 906.346,-127.5"/>
</g>
<!-- Node13 -->
<g id="node13" class="node"><title>Node13</title>
<g id="a_node13"><a xlink:href="../../d6/d7b/classcontroller_1_1_cell_society_controller.html#a7609d9a174ff7d2d00fc27e3574cdb21" target="_top" xlink:title="controller.CellSocietyController.stop\lOrStart">
<polygon fill="white" stroke="black" points="925,-60 925,-90 1111,-90 1111,-60 925,-60"/>
<text text-anchor="start" x="933" y="-78" font-family="Helvetica,sans-Serif" font-size="10.00">controller.CellSocietyController.stop</text>
<text text-anchor="middle" x="1018" y="-67" font-family="Helvetica,sans-Serif" font-size="10.00">OrStart</text>
</a>
</g>
</g>
<!-- Node7&#45;&gt;Node13 -->
<g id="edge12" class="edge"><title>Node7&#45;&gt;Node13</title>
<path fill="none" stroke="midnightblue" d="M849.946,-108.965C876.317,-103.604 906.204,-97.5269 933.335,-92.0108"/>
<polygon fill="midnightblue" stroke="midnightblue" points="934.092,-95.4285 943.194,-90.0062 932.697,-88.5689 934.092,-95.4285"/>
</g>
<!-- Node10 -->
<g id="node10" class="node"><title>Node10</title>
<g id="a_node10"><a xlink:href="../../d1/d3e/classview_1_1_simulation_screen.html#a482a021910f4b997fb7b798bdc363df4" target="_top" xlink:title="view.SimulationScreen.getNode">
<polygon fill="white" stroke="black" points="1171,-158.5 1171,-177.5 1339,-177.5 1339,-158.5 1171,-158.5"/>
<text text-anchor="middle" x="1255" y="-165.5" font-family="Helvetica,sans-Serif" font-size="10.00">view.SimulationScreen.getNode</text>
</a>
</g>
</g>
<!-- Node9&#45;&gt;Node10 -->
<g id="edge9" class="edge"><title>Node9&#45;&gt;Node10</title>
<path fill="none" stroke="midnightblue" d="M1099.22,-139.019C1130.02,-144.787 1164.64,-151.269 1193.32,-156.638"/>
<polygon fill="midnightblue" stroke="midnightblue" points="1192.72,-160.087 1203.2,-158.488 1194.01,-153.207 1192.72,-160.087"/>
</g>
<!-- Node11 -->
<g id="node11" class="node"><title>Node11</title>
<g id="a_node11"><a xlink:href="../../d1/d3e/classview_1_1_simulation_screen.html#a6c9f5c7e36be620d06e55709bc256d18" target="_top" xlink:title="view.SimulationScreen.init\lSimScreen">
<polygon fill="white" stroke="black" points="1184.5,-109 1184.5,-139 1325.5,-139 1325.5,-109 1184.5,-109"/>
<text text-anchor="start" x="1192.5" y="-127" font-family="Helvetica,sans-Serif" font-size="10.00">view.SimulationScreen.init</text>
<text text-anchor="middle" x="1255" y="-116" font-family="Helvetica,sans-Serif" font-size="10.00">SimScreen</text>
</a>
</g>
</g>
<!-- Node9&#45;&gt;Node11 -->
<g id="edge10" class="edge"><title>Node9&#45;&gt;Node11</title>
<path fill="none" stroke="midnightblue" d="M1119.68,-124C1137.91,-124 1156.68,-124 1174.21,-124"/>
<polygon fill="midnightblue" stroke="midnightblue" points="1174.37,-127.5 1184.37,-124 1174.37,-120.5 1174.37,-127.5"/>
</g>
<!-- Node12 -->
<g id="node12" class="node"><title>Node12</title>
<g id="a_node12"><a xlink:href="../../d1/d3e/classview_1_1_simulation_screen.html#a7144a80861195f360ade7612b479ff3e" target="_top" xlink:title="view.SimulationScreen.add\lButtons">
<polygon fill="white" stroke="black" points="1390.5,-109 1390.5,-139 1535.5,-139 1535.5,-109 1390.5,-109"/>
<text text-anchor="start" x="1398.5" y="-127" font-family="Helvetica,sans-Serif" font-size="10.00">view.SimulationScreen.add</text>
<text text-anchor="middle" x="1463" y="-116" font-family="Helvetica,sans-Serif" font-size="10.00">Buttons</text>
</a>
</g>
</g>
<!-- Node11&#45;&gt;Node12 -->
<g id="edge11" class="edge"><title>Node11&#45;&gt;Node12</title>
<path fill="none" stroke="midnightblue" d="M1325.74,-124C1343.19,-124 1362.07,-124 1380.05,-124"/>
<polygon fill="midnightblue" stroke="midnightblue" points="1380.22,-127.5 1390.22,-124 1380.22,-120.5 1380.22,-127.5"/>
</g>
<!-- Node14 -->
<g id="node14" class="node"><title>Node14</title>
<g id="a_node14"><a xlink:href="../../d6/d7b/classcontroller_1_1_cell_society_controller.html#a33e7a77467ceeb880526a1b405b3ee79" target="_top" xlink:title="controller.CellSocietyController.pause\lSimulation">
<polygon fill="white" stroke="black" points="1158,-60 1158,-90 1352,-90 1352,-60 1158,-60"/>
<text text-anchor="start" x="1166" y="-78" font-family="Helvetica,sans-Serif" font-size="10.00">controller.CellSocietyController.pause</text>
<text text-anchor="middle" x="1255" y="-67" font-family="Helvetica,sans-Serif" font-size="10.00">Simulation</text>
</a>
</g>
</g>
<!-- Node13&#45;&gt;Node14 -->
<g id="edge13" class="edge"><title>Node13&#45;&gt;Node14</title>
<path fill="none" stroke="midnightblue" d="M1111.2,-75C1123.16,-75 1135.48,-75 1147.64,-75"/>
<polygon fill="midnightblue" stroke="midnightblue" points="1147.81,-78.5001 1157.81,-75 1147.81,-71.5001 1147.81,-78.5001"/>
</g>
<!-- Node15 -->
<g id="node15" class="node"><title>Node15</title>
<g id="a_node15"><a xlink:href="../../d6/d7b/classcontroller_1_1_cell_society_controller.html#aec38c45810ee2665fe01832114fbc68d" target="_top" xlink:title="controller.CellSocietyController.restart\lSimulation">
<polygon fill="white" stroke="black" points="1156.5,-11 1156.5,-41 1353.5,-41 1353.5,-11 1156.5,-11"/>
<text text-anchor="start" x="1164.5" y="-29" font-family="Helvetica,sans-Serif" font-size="10.00">controller.CellSocietyController.restart</text>
<text text-anchor="middle" x="1255" y="-18" font-family="Helvetica,sans-Serif" font-size="10.00">Simulation</text>
</a>
</g>
</g>
<!-- Node13&#45;&gt;Node15 -->
<g id="edge14" class="edge"><title>Node13&#45;&gt;Node15</title>
<path fill="none" stroke="midnightblue" d="M1091.1,-59.9654C1116.71,-54.627 1145.71,-48.5802 1172.07,-43.0834"/>
<polygon fill="midnightblue" stroke="midnightblue" points="1172.96,-46.4738 1182.03,-41.0062 1171.53,-39.6212 1172.96,-46.4738"/>
</g>
<!-- Node18&#45;&gt;Node7 -->
<g id="edge20" class="edge"><title>Node18&#45;&gt;Node7</title>
<path fill="none" stroke="midnightblue" d="M387.567,-78.2718C399.842,-79.8993 412.198,-81.508 424,-83 502.678,-92.9462 591.415,-103.332 659.852,-111.162"/>
<polygon fill="midnightblue" stroke="midnightblue" points="659.465,-114.64 669.798,-112.298 660.26,-107.686 659.465,-114.64"/>
</g>
<!-- Node19 -->
<g id="node19" class="node"><title>Node19</title>
<g id="a_node19"><a xlink:href="../../d4/d2d/classcontroller_1_1_random_sim_generator.html#a807ccd4617ee16b3f28aadfa544c42cb" target="_top" xlink:title="controller.RandomSimGenerator.getGrid">
<polygon fill="white" stroke="black" points="424.5,-54.5 424.5,-73.5 633.5,-73.5 633.5,-54.5 424.5,-54.5"/>
<text text-anchor="middle" x="529" y="-61.5" font-family="Helvetica,sans-Serif" font-size="10.00">controller.RandomSimGenerator.getGrid</text>
</a>
</g>
</g>
<!-- Node18&#45;&gt;Node19 -->
<g id="edge18" class="edge"><title>Node18&#45;&gt;Node19</title>
<path fill="none" stroke="midnightblue" d="M387.832,-64C396.502,-64 405.297,-64 414.038,-64"/>
<polygon fill="midnightblue" stroke="midnightblue" points="414.262,-67.5001 424.262,-64 414.261,-60.5001 414.262,-67.5001"/>
</g>
<!-- Node20 -->
<g id="node20" class="node"><title>Node20</title>
<g id="a_node20"><a xlink:href="../../d4/d2d/classcontroller_1_1_random_sim_generator.html#a93fd8f4276dc3a0271fe51b37664f77a" target="_top" xlink:title="controller.RandomSimGenerator.get\lParameters">
<polygon fill="white" stroke="black" points="434.5,-5 434.5,-35 623.5,-35 623.5,-5 434.5,-5"/>
<text text-anchor="start" x="442.5" y="-23" font-family="Helvetica,sans-Serif" font-size="10.00">controller.RandomSimGenerator.get</text>
<text text-anchor="middle" x="529" y="-12" font-family="Helvetica,sans-Serif" font-size="10.00">Parameters</text>
</a>
</g>
</g>
<!-- Node18&#45;&gt;Node20 -->
<g id="edge19" class="edge"><title>Node18&#45;&gt;Node20</title>
<path fill="none" stroke="midnightblue" d="M367.289,-48.9808C388.958,-45.0731 412.445,-40.8377 434.599,-36.8428"/>
<polygon fill="midnightblue" stroke="midnightblue" points="435.453,-40.2454 444.673,-35.0262 434.21,-33.3565 435.453,-40.2454"/>
</g>
</g>
</svg>
