<?xml version="1.0" encoding="UTF-8" standalone="no"?>
<!DOCTYPE svg PUBLIC "-//W3C//DTD SVG 1.1//EN"
 "http://www.w3.org/Graphics/SVG/1.1/DTD/svg11.dtd">
<!-- Generated by graphviz version 2.36.0 (20140111.2315)
 -->
<!-- Title: view.SplashScreen.formatNode Pages: 1 -->
<svg width="1006pt" height="175pt"
 viewBox="0.00 0.00 1006.00 175.00" xmlns="http://www.w3.org/2000/svg" xmlns:xlink="http://www.w3.org/1999/xlink">
<g id="graph0" class="graph" transform="scale(1 1) rotate(0) translate(4 171)">
<title>view.SplashScreen.formatNode</title>
<polygon fill="white" stroke="none" points="-4,4 -4,-171 1002,-171 1002,4 -4,4"/>
<!-- Node1 -->
<g id="node1" class="node"><title>Node1</title>
<polygon fill="#bfbfbf" stroke="black" points="0,-68.5 0,-87.5 166,-87.5 166,-68.5 0,-68.5"/>
<text text-anchor="middle" x="83" y="-75.5" font-family="Helvetica,sans-Serif" font-size="10.00">view.SplashScreen.formatNode</text>
</g>
<!-- Node2 -->
<g id="node2" class="node"><title>Node2</title>
<g id="a_node2"><a xlink:href="../../dd/d02/classview_1_1_splash_screen.html#a652092fc5c5862cee4ff84bf231646ab" target="_top" xlink:title="view.SplashScreen.addLoad\lButton">
<polygon fill="white" stroke="black" points="214.5,-137 214.5,-167 363.5,-167 363.5,-137 214.5,-137"/>
<text text-anchor="start" x="222.5" y="-155" font-family="Helvetica,sans-Serif" font-size="10.00">view.SplashScreen.addLoad</text>
<text text-anchor="middle" x="289" y="-144" font-family="Helvetica,sans-Serif" font-size="10.00">Button</text>
</a>
</g>
</g>
<!-- Node1&#45;&gt;Node2 -->
<g id="edge1" class="edge"><title>Node1&#45;&gt;Node2</title>
<path fill="none" stroke="midnightblue" d="M114.193,-91.6239C137.823,-102.021 171.654,-116.325 202,-127 211.827,-130.457 222.401,-133.817 232.658,-136.894"/>
<polygon fill="midnightblue" stroke="midnightblue" points="115.603,-88.4206 105.042,-87.5689 112.767,-94.8204 115.603,-88.4206"/>
</g>
<!-- Node6 -->
<g id="node6" class="node"><title>Node6</title>
<g id="a_node6"><a xlink:href="../../dd/d02/classview_1_1_splash_screen.html#ad94d9edd23f270a5f480fd54a06d72f3" target="_top" xlink:title="view.SplashScreen.addProbablity\lButton">
<polygon fill="white" stroke="black" points="202.5,-88 202.5,-118 375.5,-118 375.5,-88 202.5,-88"/>
<text text-anchor="start" x="210.5" y="-106" font-family="Helvetica,sans-Serif" font-size="10.00">view.SplashScreen.addProbablity</text>
<text text-anchor="middle" x="289" y="-95" font-family="Helvetica,sans-Serif" font-size="10.00">Button</text>
</a>
</g>
</g>
<!-- Node1&#45;&gt;Node6 -->
<g id="edge5" class="edge"><title>Node1&#45;&gt;Node6</title>
<path fill="none" stroke="midnightblue" d="M171.765,-88.7555C181.903,-89.9979 192.233,-91.2638 202.342,-92.5027"/>
<polygon fill="midnightblue" stroke="midnightblue" points="172.057,-85.2652 161.706,-87.5227 171.206,-92.2132 172.057,-85.2652"/>
</g>
<!-- Node7 -->
<g id="node7" class="node"><title>Node7</title>
<g id="a_node7"><a xlink:href="../../dd/d02/classview_1_1_splash_screen.html#a17ba24f5ed477a37ea527710e54d65c8" target="_top" xlink:title="view.SplashScreen.addRandom\lButton">
<polygon fill="white" stroke="black" points="206,-39 206,-69 372,-69 372,-39 206,-39"/>
<text text-anchor="start" x="214" y="-57" font-family="Helvetica,sans-Serif" font-size="10.00">view.SplashScreen.addRandom</text>
<text text-anchor="middle" x="289" y="-46" font-family="Helvetica,sans-Serif" font-size="10.00">Button</text>
</a>
</g>
</g>
<!-- Node1&#45;&gt;Node7 -->
<g id="edge7" class="edge"><title>Node1&#45;&gt;Node7</title>
<path fill="none" stroke="midnightblue" d="M175.095,-67.283C185.335,-66.0782 195.724,-64.856 205.842,-63.6656"/>
<polygon fill="midnightblue" stroke="midnightblue" points="174.442,-63.8356 164.919,-68.4801 175.26,-70.7876 174.442,-63.8356"/>
</g>
<!-- Node8 -->
<g id="node8" class="node"><title>Node8</title>
<g id="a_node8"><a xlink:href="../../dd/d02/classview_1_1_splash_screen.html#a0a9ccd223a5668611f7fbbae36ea0796" target="_top" xlink:title="view.SplashScreen.addTitle">
<polygon fill="white" stroke="black" points="216,-0.5 216,-19.5 362,-19.5 362,-0.5 216,-0.5"/>
<text text-anchor="middle" x="289" y="-7.5" font-family="Helvetica,sans-Serif" font-size="10.00">view.SplashScreen.addTitle</text>
</a>
</g>
</g>
<!-- Node1&#45;&gt;Node8 -->
<g id="edge9" class="edge"><title>Node1&#45;&gt;Node8</title>
<path fill="none" stroke="midnightblue" d="M113.954,-64.28C137.522,-53.8629 171.382,-39.7206 202,-30 214.419,-26.0573 228.072,-22.5279 240.77,-19.572"/>
<polygon fill="midnightblue" stroke="midnightblue" points="112.227,-61.2184 104.524,-68.4927 115.082,-67.6097 112.227,-61.2184"/>
</g>
<!-- Node3 -->
<g id="node3" class="node"><title>Node3</title>
<g id="a_node3"><a xlink:href="../../dd/d02/classview_1_1_splash_screen.html#a6ff42b7dad4e546981a3266f9d694f5a" target="_top" xlink:title="view.SplashScreen.getNode">
<polygon fill="white" stroke="black" points="412.5,-68.5 412.5,-87.5 561.5,-87.5 561.5,-68.5 412.5,-68.5"/>
<text text-anchor="middle" x="487" y="-75.5" font-family="Helvetica,sans-Serif" font-size="10.00">view.SplashScreen.getNode</text>
</a>
</g>
</g>
<!-- Node2&#45;&gt;Node3 -->
<g id="edge2" class="edge"><title>Node2&#45;&gt;Node3</title>
<path fill="none" stroke="midnightblue" d="M355.876,-133.852C362.714,-131.67 369.526,-129.371 376,-127 408.392,-115.14 444.725,-98.2125 466.463,-87.6769"/>
<polygon fill="midnightblue" stroke="midnightblue" points="354.386,-130.65 345.874,-136.959 356.463,-137.334 354.386,-130.65"/>
</g>
<!-- Node4 -->
<g id="node4" class="node"><title>Node4</title>
<g id="a_node4"><a xlink:href="../../d6/d7b/classcontroller_1_1_cell_society_controller.html#a3f78125e5b809d88d3cf7ed20b3756c2" target="_top" xlink:title="controller.CellSocietyController.display\lSplashScreen">
<polygon fill="white" stroke="black" points="598,-63 598,-93 796,-93 796,-63 598,-63"/>
<text text-anchor="start" x="606" y="-81" font-family="Helvetica,sans-Serif" font-size="10.00">controller.CellSocietyController.display</text>
<text text-anchor="middle" x="697" y="-70" font-family="Helvetica,sans-Serif" font-size="10.00">SplashScreen</text>
</a>
</g>
</g>
<!-- Node3&#45;&gt;Node4 -->
<g id="edge3" class="edge"><title>Node3&#45;&gt;Node4</title>
<path fill="none" stroke="midnightblue" d="M571.885,-78C580.384,-78 589.07,-78 597.703,-78"/>
<polygon fill="midnightblue" stroke="midnightblue" points="571.626,-74.5001 561.626,-78 571.626,-81.5001 571.626,-74.5001"/>
</g>
<!-- Node5 -->
<g id="node5" class="node"><title>Node5</title>
<g id="a_node5"><a xlink:href="../../d6/d7b/classcontroller_1_1_cell_society_controller.html#a6a2310de67e415512149c94c9f36e356" target="_top" xlink:title="controller.CellSocietyController.\lCellSocietyController">
<polygon fill="white" stroke="black" points="832.5,-63 832.5,-93 997.5,-93 997.5,-63 832.5,-63"/>
<text text-anchor="start" x="840.5" y="-81" font-family="Helvetica,sans-Serif" font-size="10.00">controller.CellSocietyController.</text>
<text text-anchor="middle" x="915" y="-70" font-family="Helvetica,sans-Serif" font-size="10.00">CellSocietyController</text>
</a>
</g>
</g>
<!-- Node4&#45;&gt;Node5 -->
<g id="edge4" class="edge"><title>Node4&#45;&gt;Node5</title>
<path fill="none" stroke="midnightblue" d="M806.384,-78C815.067,-78 823.746,-78 832.198,-78"/>
<polygon fill="midnightblue" stroke="midnightblue" points="806.203,-74.5001 796.203,-78 806.203,-81.5001 806.203,-74.5001"/>
</g>
<!-- Node6&#45;&gt;Node3 -->
<g id="edge6" class="edge"><title>Node6&#45;&gt;Node3</title>
<path fill="none" stroke="midnightblue" d="M385.781,-90.783C394.749,-89.6392 403.741,-88.4922 412.458,-87.3804"/>
<polygon fill="midnightblue" stroke="midnightblue" points="385.16,-87.3338 375.683,-92.071 386.046,-94.2775 385.16,-87.3338"/>
</g>
<!-- Node7&#45;&gt;Node3 -->
<g id="edge8" class="edge"><title>Node7&#45;&gt;Node3</title>
<path fill="none" stroke="midnightblue" d="M382.307,-65.3029C392.387,-66.5371 402.547,-67.7813 412.359,-68.9828"/>
<polygon fill="midnightblue" stroke="midnightblue" points="382.621,-61.8153 372.27,-64.0738 381.77,-68.7634 382.621,-61.8153"/>
</g>
<!-- Node8&#45;&gt;Node3 -->
<g id="edge10" class="edge"><title>Node8&#45;&gt;Node3</title>
<path fill="none" stroke="midnightblue" d="M347.951,-21.9449C357.407,-24.331 367.036,-27.0298 376,-30 408.833,-40.8795 445.337,-57.8323 466.947,-68.4075"/>
<polygon fill="midnightblue" stroke="midnightblue" points="348.739,-18.5346 338.195,-19.5733 347.085,-25.3365 348.739,-18.5346"/>
</g>
</g>
</svg>
