<?xml version="1.0" encoding="UTF-8" standalone="no"?>
<!DOCTYPE svg PUBLIC "-//W3C//DTD SVG 1.1//EN"
 "http://www.w3.org/Graphics/SVG/1.1/DTD/svg11.dtd">
<!-- Generated by graphviz version 2.36.0 (20140111.2315)
 -->
<!-- Title: view.SplashScreen.addSimulationNameText Pages: 1 -->
<!--zoomable 87 -->
<svg id="main" version="1.1" xmlns="http://www.w3.org/2000/svg" xmlns:xlink="http://www.w3.org/1999/xlink" xml:space="preserve" onload="init(evt)">
<style type="text/css"><![CDATA[
.edge:hover path { stroke: red; }
.edge:hover polygon { stroke: red; fill: red; }
]]></style>
<script type="text/javascript"><![CDATA[
var edges = document.getElementsByTagName('g');
if (edges && edges.length) {
  for (var i=0;i<edges.length;i++) {
    if (edges[i].id.substr(0,4)=='edge') {
      edges[i].setAttribute('class','edge');
    }
  }
}
]]></script>
        <defs>
                <circle id="rim" cx="0" cy="0" r="7"/>
                <circle id="rim2" cx="0" cy="0" r="3.5"/>
                <g id="zoomPlus">
                        <use xlink:href="#rim" fill="#404040">
                                <set attributeName="fill" to="#808080" begin="zoomplus.mouseover" end="zoomplus.mouseout"/>
                        </use>
                        <path d="M-4,0h8M0,-4v8" fill="none" stroke="white" stroke-width="1.5" pointer-events="none"/>
                </g>
                <g id="zoomMin">
                        <use xlink:href="#rim" fill="#404040">
                                <set attributeName="fill" to="#808080" begin="zoomminus.mouseover" end="zoomminus.mouseout"/>
                        </use>
                        <path d="M-4,0h8" fill="none" stroke="white" stroke-width="1.5" pointer-events="none"/>
                </g>
                <g id="dirArrow">
                        <path fill="none" stroke="white" stroke-width="1.5" d="M0,-3.0v7 M-2.5,-0.5L0,-3.0L2.5,-0.5"/>
                </g>
               <g id="resetDef">
                       <use xlink:href="#rim2" fill="#404040">
                               <set attributeName="fill" to="#808080" begin="reset.mouseover" end="reset.mouseout"/>
                       </use>
               </g>
        </defs>

<script type="text/javascript">
var viewWidth = 1196;
var viewHeight = 87;
var sectionId = 'dynsection-10';
</script>
<script xlink:href="../../svgpan.js"/>
<svg id="graph" class="graph">
<g id="viewport">
<title>view.SplashScreen.addSimulationNameText</title>
<polygon fill="white" stroke="none" points="-4,4 -4,-83 1192,-83 1192,4 -4,4"/>
<!-- Node1 -->
<g id="node1" class="node"><title>Node1</title>
<polygon fill="#bfbfbf" stroke="black" points="0.5,-24 0.5,-54 177.5,-54 177.5,-24 0.5,-24"/>
<text text-anchor="start" x="8.5" y="-42" font-family="Helvetica,sans-Serif" font-size="10.00">view.SplashScreen.addSimulation</text>
<text text-anchor="middle" x="89" y="-31" font-family="Helvetica,sans-Serif" font-size="10.00">NameText</text>
</g>
<!-- Node2 -->
<g id="node2" class="node"><title>Node2</title>
<g id="a_node2"><a xlink:href="../../dd/d02/classview_1_1_splash_screen.html#a2f8c52e9a2a790459e51d5d42f16f7da" target="_top" xlink:title="view.SplashScreen.display\lAskInformatio">
<polygon fill="white" stroke="black" points="214.5,-24 214.5,-54 355.5,-54 355.5,-24 214.5,-24"/>
<text text-anchor="start" x="222.5" y="-42" font-family="Helvetica,sans-Serif" font-size="10.00">view.SplashScreen.display</text>
<text text-anchor="middle" x="285" y="-31" font-family="Helvetica,sans-Serif" font-size="10.00">AskInformatio</text>
</a>
</g>
</g>
<!-- Node1&#45;&gt;Node2 -->
<g id="edge1" class="edge"><title>Node1&#45;&gt;Node2</title>
<path fill="none" stroke="midnightblue" d="M187.796,-39C196.807,-39 205.808,-39 214.49,-39"/>
<polygon fill="midnightblue" stroke="midnightblue" points="187.635,-35.5001 177.635,-39 187.635,-42.5001 187.635,-35.5001"/>
</g>
<!-- Node3 -->
<g id="node3" class="node"><title>Node3</title>
<g id="a_node3"><a xlink:href="../../dd/d02/classview_1_1_splash_screen.html#ad94d9edd23f270a5f480fd54a06d72f3" target="_top" xlink:title="view.SplashScreen.addProbablity\lButton">
<polygon fill="white" stroke="black" points="392.5,-49 392.5,-79 565.5,-79 565.5,-49 392.5,-49"/>
<text text-anchor="start" x="400.5" y="-67" font-family="Helvetica,sans-Serif" font-size="10.00">view.SplashScreen.addProbablity</text>
<text text-anchor="middle" x="479" y="-56" font-family="Helvetica,sans-Serif" font-size="10.00">Button</text>
</a>
</g>
</g>
<!-- Node2&#45;&gt;Node3 -->
<g id="edge2" class="edge"><title>Node2&#45;&gt;Node3</title>
<path fill="none" stroke="midnightblue" d="M365.76,-49.3855C374.514,-50.5253 383.453,-51.6892 392.275,-52.8379"/>
<polygon fill="midnightblue" stroke="midnightblue" points="365.956,-45.8815 355.588,-48.0609 365.052,-52.8229 365.956,-45.8815"/>
</g>
<!-- Node7 -->
<g id="node7" class="node"><title>Node7</title>
<g id="a_node7"><a xlink:href="../../dd/d02/classview_1_1_splash_screen.html#a17ba24f5ed477a37ea527710e54d65c8" target="_top" xlink:title="view.SplashScreen.addRandom\lButton">
<polygon fill="white" stroke="black" points="396,-0 396,-30 562,-30 562,-0 396,-0"/>
<text text-anchor="start" x="404" y="-18" font-family="Helvetica,sans-Serif" font-size="10.00">view.SplashScreen.addRandom</text>
<text text-anchor="middle" x="479" y="-7" font-family="Helvetica,sans-Serif" font-size="10.00">Button</text>
</a>
</g>
</g>
<!-- Node2&#45;&gt;Node7 -->
<g id="edge6" class="edge"><title>Node2&#45;&gt;Node7</title>
<path fill="none" stroke="midnightblue" d="M365.524,-29.0595C375.559,-27.8051 385.842,-26.5197 395.917,-25.2604"/>
<polygon fill="midnightblue" stroke="midnightblue" points="365.076,-25.5881 355.588,-30.3015 365.945,-32.5341 365.076,-25.5881"/>
</g>
<!-- Node4 -->
<g id="node4" class="node"><title>Node4</title>
<g id="a_node4"><a xlink:href="../../dd/d02/classview_1_1_splash_screen.html#a6ff42b7dad4e546981a3266f9d694f5a" target="_top" xlink:title="view.SplashScreen.getNode">
<polygon fill="white" stroke="black" points="602.5,-29.5 602.5,-48.5 751.5,-48.5 751.5,-29.5 602.5,-29.5"/>
<text text-anchor="middle" x="677" y="-36.5" font-family="Helvetica,sans-Serif" font-size="10.00">view.SplashScreen.getNode</text>
</a>
</g>
</g>
<!-- Node3&#45;&gt;Node4 -->
<g id="edge3" class="edge"><title>Node3&#45;&gt;Node4</title>
<path fill="none" stroke="midnightblue" d="M575.781,-51.783C584.749,-50.6392 593.741,-49.4922 602.458,-48.3804"/>
<polygon fill="midnightblue" stroke="midnightblue" points="575.16,-48.3338 565.683,-53.071 576.046,-55.2775 575.16,-48.3338"/>
</g>
<!-- Node5 -->
<g id="node5" class="node"><title>Node5</title>
<g id="a_node5"><a xlink:href="../../d6/d7b/classcontroller_1_1_cell_society_controller.html#a3f78125e5b809d88d3cf7ed20b3756c2" target="_top" xlink:title="controller.CellSocietyController.display\lSplashScreen">
<polygon fill="white" stroke="black" points="788,-24 788,-54 986,-54 986,-24 788,-24"/>
<text text-anchor="start" x="796" y="-42" font-family="Helvetica,sans-Serif" font-size="10.00">controller.CellSocietyController.display</text>
<text text-anchor="middle" x="887" y="-31" font-family="Helvetica,sans-Serif" font-size="10.00">SplashScreen</text>
</a>
</g>
</g>
<!-- Node4&#45;&gt;Node5 -->
<g id="edge4" class="edge"><title>Node4&#45;&gt;Node5</title>
<path fill="none" stroke="midnightblue" d="M761.885,-39C770.384,-39 779.07,-39 787.703,-39"/>
<polygon fill="midnightblue" stroke="midnightblue" points="761.626,-35.5001 751.626,-39 761.626,-42.5001 761.626,-35.5001"/>
</g>
<!-- Node6 -->
<g id="node6" class="node"><title>Node6</title>
<g id="a_node6"><a xlink:href="../../d6/d7b/classcontroller_1_1_cell_society_controller.html#a6a2310de67e415512149c94c9f36e356" target="_top" xlink:title="controller.CellSocietyController.\lCellSocietyController">
<polygon fill="white" stroke="black" points="1022.5,-24 1022.5,-54 1187.5,-54 1187.5,-24 1022.5,-24"/>
<text text-anchor="start" x="1030.5" y="-42" font-family="Helvetica,sans-Serif" font-size="10.00">controller.CellSocietyController.</text>
<text text-anchor="middle" x="1105" y="-31" font-family="Helvetica,sans-Serif" font-size="10.00">CellSocietyController</text>
</a>
</g>
</g>
<!-- Node5&#45;&gt;Node6 -->
<g id="edge5" class="edge"><title>Node5&#45;&gt;Node6</title>
<path fill="none" stroke="midnightblue" d="M996.384,-39C1005.07,-39 1013.75,-39 1022.2,-39"/>
<polygon fill="midnightblue" stroke="midnightblue" points="996.203,-35.5001 986.203,-39 996.203,-42.5001 996.203,-35.5001"/>
</g>
<!-- Node7&#45;&gt;Node4 -->
<g id="edge7" class="edge"><title>Node7&#45;&gt;Node4</title>
<path fill="none" stroke="midnightblue" d="M572.307,-26.3029C582.387,-27.5371 592.547,-28.7813 602.359,-29.9828"/>
<polygon fill="midnightblue" stroke="midnightblue" points="572.621,-22.8153 562.27,-25.0738 571.77,-29.7634 572.621,-22.8153"/>
</g>
</g>
</svg>
        <g id="navigator" transform="translate(0 0)" fill="#404254">
                <rect fill="#f2f5e9" fill-opacity="0.5" stroke="#606060" stroke-width=".5" x="0" y="0" width="60" height="60"/>
                <use id="zoomplus" xlink:href="#zoomPlus" x="17" y="9" onmousedown="handleZoom(evt,'in')"/>
                <use id="zoomminus" xlink:href="#zoomMin" x="42" y="9" onmousedown="handleZoom(evt,'out')"/>
                <use id="reset" xlink:href="#resetDef" x="30" y="36" onmousedown="handleReset()"/>
                <g id="arrowUp" xlink:href="#dirArrow" transform="translate(30 24)" onmousedown="handlePan(0,-1)">
                  <use xlink:href="#rim" fill="#404040">
                        <set attributeName="fill" to="#808080" begin="arrowUp.mouseover" end="arrowUp.mouseout"/>
                  </use>
                  <path fill="none" stroke="white" stroke-width="1.5" d="M0,-3.0v7 M-2.5,-0.5L0,-3.0L2.5,-0.5"/>
                </g>
                <g id="arrowRight" xlink:href="#dirArrow" transform="rotate(90) translate(36 -43)" onmousedown="handlePan(1,0)">
                  <use xlink:href="#rim" fill="#404040">
                        <set attributeName="fill" to="#808080" begin="arrowRight.mouseover" end="arrowRight.mouseout"/>
                  </use>
                  <path fill="none" stroke="white" stroke-width="1.5" d="M0,-3.0v7 M-2.5,-0.5L0,-3.0L2.5,-0.5"/>
                </g>
                <g id="arrowDown" xlink:href="#dirArrow" transform="rotate(180) translate(-30 -48)" onmousedown="handlePan(0,1)">
                  <use xlink:href="#rim" fill="#404040">
                        <set attributeName="fill" to="#808080" begin="arrowDown.mouseover" end="arrowDown.mouseout"/>
                  </use>
                  <path fill="none" stroke="white" stroke-width="1.5" d="M0,-3.0v7 M-2.5,-0.5L0,-3.0L2.5,-0.5"/>
                </g>
                <g id="arrowLeft" xlink:href="#dirArrow" transform="rotate(270) translate(-36 17)" onmousedown="handlePan(-1,0)">
                  <use xlink:href="#rim" fill="#404040">
                        <set attributeName="fill" to="#808080" begin="arrowLeft.mouseover" end="arrowLeft.mouseout"/>
                  </use>
                  <path fill="none" stroke="white" stroke-width="1.5" d="M0,-3.0v7 M-2.5,-0.5L0,-3.0L2.5,-0.5"/>
                </g>
        </g>
        <svg viewBox="0 0 15 15" width="100%" height="30px" preserveAspectRatio="xMaxYMin meet">
         <g id="arrow_out" transform="scale(0.3 0.3)">
          <a xlink:href="classview_1_1_splash_screen_ae4427d4a548843b069b35328182187fa_icgraph_org.svg" target="_base">
           <rect id="button" ry="5" rx="5" y="6" x="6" height="38" width="38"
                fill="#f2f5e9" fill-opacity="0.5" stroke="#606060" stroke-width="1.0"/>
           <path id="arrow"
             d="M 11.500037,31.436501 C 11.940474,20.09759 22.043105,11.32322 32.158766,21.979434 L 37.068811,17.246167 C 37.068811,17.246167 37.088388,32 37.088388,32 L 22.160133,31.978069 C 22.160133,31.978069 26.997745,27.140456 26.997745,27.140456 C 18.528582,18.264221 13.291696,25.230495 11.500037,31.436501 z"
             style="fill:#404040;"/>
          </a>
         </g>
        </svg>
</svg>
