<?xml version="1.0" encoding="UTF-8" standalone="no"?>
<!DOCTYPE svg PUBLIC "-//W3C//DTD SVG 1.1//EN"
 "http://www.w3.org/Graphics/SVG/1.1/DTD/svg11.dtd">
<!-- Generated by graphviz version 2.36.0 (20140111.2315)
 -->
<!-- Title: view.SplashScreen.addProbabilityText Pages: 1 -->
<svg width="1350pt" height="234pt"
 viewBox="0.00 0.00 1350.00 234.00" xmlns="http://www.w3.org/2000/svg" xmlns:xlink="http://www.w3.org/1999/xlink">
<g id="graph0" class="graph" transform="scale(1 1) rotate(0) translate(4 230)">
<title>view.SplashScreen.addProbabilityText</title>
<polygon fill="white" stroke="none" points="-4,4 -4,-230 1346,-230 1346,4 -4,4"/>
<!-- Node1 -->
<g id="node1" class="node"><title>Node1</title>
<polygon fill="#bfbfbf" stroke="black" points="0,-127.5 0,-146.5 194,-146.5 194,-127.5 0,-127.5"/>
<text text-anchor="middle" x="97" y="-134.5" font-family="Helvetica,sans-Serif" font-size="10.00">view.SplashScreen.addProbabilityText</text>
</g>
<!-- Node2 -->
<g id="node2" class="node"><title>Node2</title>
<g id="a_node2"><a xlink:href="../../d6/d7b/classcontroller_1_1_cell_society_controller.html#ada30fdc135cdf08b93065edf15ed3fcc" target="_top" xlink:title="controller.CellSocietyController.generate\lProbabilityRandomGrid">
<polygon fill="white" stroke="black" points="230.5,-147 230.5,-177 439.5,-177 439.5,-147 230.5,-147"/>
<text text-anchor="start" x="238.5" y="-165" font-family="Helvetica,sans-Serif" font-size="10.00">controller.CellSocietyController.generate</text>
<text text-anchor="middle" x="335" y="-154" font-family="Helvetica,sans-Serif" font-size="10.00">ProbabilityRandomGrid</text>
</a>
</g>
</g>
<!-- Node1&#45;&gt;Node2 -->
<g id="edge1" class="edge"><title>Node1&#45;&gt;Node2</title>
<path fill="none" stroke="midnightblue" d="M187.895,-146.523C198.358,-147.631 209.135,-148.773 219.869,-149.91"/>
<polygon fill="midnightblue" stroke="midnightblue" points="219.822,-153.424 230.135,-150.997 220.56,-146.463 219.822,-153.424"/>
</g>
<!-- Node14 -->
<g id="node14" class="node"><title>Node14</title>
<g id="a_node14"><a xlink:href="../../dd/d02/classview_1_1_splash_screen.html#a1e747e968477f14fbd6d6cd4a508e008" target="_top" xlink:title="view.SplashScreen.remove\lAskScreenNodes">
<polygon fill="white" stroke="black" points="262.5,-98 262.5,-128 407.5,-128 407.5,-98 262.5,-98"/>
<text text-anchor="start" x="270.5" y="-116" font-family="Helvetica,sans-Serif" font-size="10.00">view.SplashScreen.remove</text>
<text text-anchor="middle" x="335" y="-105" font-family="Helvetica,sans-Serif" font-size="10.00">AskScreenNodes</text>
</a>
</g>
</g>
<!-- Node1&#45;&gt;Node14 -->
<g id="edge13" class="edge"><title>Node1&#45;&gt;Node14</title>
<path fill="none" stroke="midnightblue" d="M191.612,-127.48C211.667,-125.441 232.704,-123.301 252.269,-121.312"/>
<polygon fill="midnightblue" stroke="midnightblue" points="252.757,-124.78 262.352,-120.286 252.049,-117.816 252.757,-124.78"/>
</g>
<!-- Node3 -->
<g id="node3" class="node"><title>Node3</title>
<g id="a_node3"><a xlink:href="../../d3/dc8/classcontroller_1_1_probability_sim_generator.html#a66a18a40b330a1650ff804385ed3abc2" target="_top" xlink:title="controller.ProbabilitySim\lGenerator.getGrid">
<polygon fill="white" stroke="black" points="515,-196 515,-226 647,-226 647,-196 515,-196"/>
<text text-anchor="start" x="523" y="-214" font-family="Helvetica,sans-Serif" font-size="10.00">controller.ProbabilitySim</text>
<text text-anchor="middle" x="581" y="-203" font-family="Helvetica,sans-Serif" font-size="10.00">Generator.getGrid</text>
</a>
</g>
</g>
<!-- Node2&#45;&gt;Node3 -->
<g id="edge2" class="edge"><title>Node2&#45;&gt;Node3</title>
<path fill="none" stroke="midnightblue" d="M410.866,-177.035C440.695,-183.025 474.966,-189.907 504.825,-195.903"/>
<polygon fill="midnightblue" stroke="midnightblue" points="504.276,-199.363 514.77,-197.9 505.655,-192.5 504.276,-199.363"/>
</g>
<!-- Node4 -->
<g id="node4" class="node"><title>Node4</title>
<g id="a_node4"><a xlink:href="../../d3/dc8/classcontroller_1_1_probability_sim_generator.html#aa5aa2ef09d94ff11c6912b34fafa1d4a" target="_top" xlink:title="controller.ProbabilitySim\lGenerator.getParameters">
<polygon fill="white" stroke="black" points="511.5,-147 511.5,-177 650.5,-177 650.5,-147 511.5,-147"/>
<text text-anchor="start" x="519.5" y="-165" font-family="Helvetica,sans-Serif" font-size="10.00">controller.ProbabilitySim</text>
<text text-anchor="middle" x="581" y="-154" font-family="Helvetica,sans-Serif" font-size="10.00">Generator.getParameters</text>
</a>
</g>
</g>
<!-- Node2&#45;&gt;Node4 -->
<g id="edge3" class="edge"><title>Node2&#45;&gt;Node4</title>
<path fill="none" stroke="midnightblue" d="M439.832,-162C460.376,-162 481.624,-162 501.174,-162"/>
<polygon fill="midnightblue" stroke="midnightblue" points="501.229,-165.5 511.229,-162 501.229,-158.5 501.229,-165.5"/>
</g>
<!-- Node5 -->
<g id="node5" class="node"><title>Node5</title>
<g id="a_node5"><a xlink:href="../../d6/d7b/classcontroller_1_1_cell_society_controller.html#a3d913ad3344ac48e887110e2fabb5746" target="_top" xlink:title="controller.CellSocietyController.transition\lToSimulation">
<polygon fill="white" stroke="black" points="476,-98 476,-128 686,-128 686,-98 476,-98"/>
<text text-anchor="start" x="484" y="-116" font-family="Helvetica,sans-Serif" font-size="10.00">controller.CellSocietyController.transition</text>
<text text-anchor="middle" x="581" y="-105" font-family="Helvetica,sans-Serif" font-size="10.00">ToSimulation</text>
</a>
</g>
</g>
<!-- Node2&#45;&gt;Node5 -->
<g id="edge4" class="edge"><title>Node2&#45;&gt;Node5</title>
<path fill="none" stroke="midnightblue" d="M410.866,-146.965C437.566,-141.604 467.825,-135.527 495.293,-130.011"/>
<polygon fill="midnightblue" stroke="midnightblue" points="496.16,-133.407 505.275,-128.006 494.782,-126.544 496.16,-133.407"/>
</g>
<!-- Node6 -->
<g id="node6" class="node"><title>Node6</title>
<g id="a_node6"><a xlink:href="../../d6/d7b/classcontroller_1_1_cell_society_controller.html#a8af25de87ececa5ca913e7b5af486b3f" target="_top" xlink:title="controller.CellSocietyController.initialize\lSimulation">
<polygon fill="white" stroke="black" points="722.5,-147 722.5,-177 925.5,-177 925.5,-147 722.5,-147"/>
<text text-anchor="start" x="730.5" y="-165" font-family="Helvetica,sans-Serif" font-size="10.00">controller.CellSocietyController.initialize</text>
<text text-anchor="middle" x="824" y="-154" font-family="Helvetica,sans-Serif" font-size="10.00">Simulation</text>
</a>
</g>
</g>
<!-- Node5&#45;&gt;Node6 -->
<g id="edge5" class="edge"><title>Node5&#45;&gt;Node6</title>
<path fill="none" stroke="midnightblue" d="M655.946,-128.035C682.317,-133.396 712.204,-139.473 739.335,-144.989"/>
<polygon fill="midnightblue" stroke="midnightblue" points="738.697,-148.431 749.194,-146.994 740.092,-141.571 738.697,-148.431"/>
</g>
<!-- Node7 -->
<g id="node7" class="node"><title>Node7</title>
<g id="a_node7"><a xlink:href="../../d6/d7b/classcontroller_1_1_cell_society_controller.html#af6b4eb647c4e76fef6f27cc61ced4d9a" target="_top" xlink:title="controller.CellSocietyController.initialize\lSimulationScreen">
<polygon fill="white" stroke="black" points="722.5,-98 722.5,-128 925.5,-128 925.5,-98 722.5,-98"/>
<text text-anchor="start" x="730.5" y="-116" font-family="Helvetica,sans-Serif" font-size="10.00">controller.CellSocietyController.initialize</text>
<text text-anchor="middle" x="824" y="-105" font-family="Helvetica,sans-Serif" font-size="10.00">SimulationScreen</text>
</a>
</g>
</g>
<!-- Node5&#45;&gt;Node7 -->
<g id="edge6" class="edge"><title>Node5&#45;&gt;Node7</title>
<path fill="none" stroke="midnightblue" d="M686.304,-113C694.899,-113 703.606,-113 712.246,-113"/>
<polygon fill="midnightblue" stroke="midnightblue" points="712.346,-116.5 722.346,-113 712.346,-109.5 712.346,-116.5"/>
</g>
<!-- Node11 -->
<g id="node11" class="node"><title>Node11</title>
<g id="a_node11"><a xlink:href="../../d6/d7b/classcontroller_1_1_cell_society_controller.html#a7609d9a174ff7d2d00fc27e3574cdb21" target="_top" xlink:title="controller.CellSocietyController.stop\lOrStart">
<polygon fill="white" stroke="black" points="731,-49 731,-79 917,-79 917,-49 731,-49"/>
<text text-anchor="start" x="739" y="-67" font-family="Helvetica,sans-Serif" font-size="10.00">controller.CellSocietyController.stop</text>
<text text-anchor="middle" x="824" y="-56" font-family="Helvetica,sans-Serif" font-size="10.00">OrStart</text>
</a>
</g>
</g>
<!-- Node5&#45;&gt;Node11 -->
<g id="edge10" class="edge"><title>Node5&#45;&gt;Node11</title>
<path fill="none" stroke="midnightblue" d="M655.946,-97.9654C682.317,-92.6035 712.204,-86.5269 739.335,-81.0108"/>
<polygon fill="midnightblue" stroke="midnightblue" points="740.092,-84.4285 749.194,-79.0062 738.697,-77.5689 740.092,-84.4285"/>
</g>
<!-- Node8 -->
<g id="node8" class="node"><title>Node8</title>
<g id="a_node8"><a xlink:href="../../d1/d3e/classview_1_1_simulation_screen.html#a482a021910f4b997fb7b798bdc363df4" target="_top" xlink:title="view.SimulationScreen.getNode">
<polygon fill="white" stroke="black" points="977,-147.5 977,-166.5 1145,-166.5 1145,-147.5 977,-147.5"/>
<text text-anchor="middle" x="1061" y="-154.5" font-family="Helvetica,sans-Serif" font-size="10.00">view.SimulationScreen.getNode</text>
</a>
</g>
</g>
<!-- Node7&#45;&gt;Node8 -->
<g id="edge7" class="edge"><title>Node7&#45;&gt;Node8</title>
<path fill="none" stroke="midnightblue" d="M905.216,-128.019C936.022,-133.787 970.642,-140.269 999.316,-145.638"/>
<polygon fill="midnightblue" stroke="midnightblue" points="998.722,-149.087 1009.2,-147.488 1000.01,-142.207 998.722,-149.087"/>
</g>
<!-- Node9 -->
<g id="node9" class="node"><title>Node9</title>
<g id="a_node9"><a xlink:href="../../d1/d3e/classview_1_1_simulation_screen.html#a6c9f5c7e36be620d06e55709bc256d18" target="_top" xlink:title="view.SimulationScreen.init\lSimScreen">
<polygon fill="white" stroke="black" points="990.5,-98 990.5,-128 1131.5,-128 1131.5,-98 990.5,-98"/>
<text text-anchor="start" x="998.5" y="-116" font-family="Helvetica,sans-Serif" font-size="10.00">view.SimulationScreen.init</text>
<text text-anchor="middle" x="1061" y="-105" font-family="Helvetica,sans-Serif" font-size="10.00">SimScreen</text>
</a>
</g>
</g>
<!-- Node7&#45;&gt;Node9 -->
<g id="edge8" class="edge"><title>Node7&#45;&gt;Node9</title>
<path fill="none" stroke="midnightblue" d="M925.684,-113C943.908,-113 962.683,-113 980.207,-113"/>
<polygon fill="midnightblue" stroke="midnightblue" points="980.366,-116.5 990.366,-113 980.366,-109.5 980.366,-116.5"/>
</g>
<!-- Node10 -->
<g id="node10" class="node"><title>Node10</title>
<g id="a_node10"><a xlink:href="../../d1/d3e/classview_1_1_simulation_screen.html#a7144a80861195f360ade7612b479ff3e" target="_top" xlink:title="view.SimulationScreen.add\lButtons">
<polygon fill="white" stroke="black" points="1196.5,-98 1196.5,-128 1341.5,-128 1341.5,-98 1196.5,-98"/>
<text text-anchor="start" x="1204.5" y="-116" font-family="Helvetica,sans-Serif" font-size="10.00">view.SimulationScreen.add</text>
<text text-anchor="middle" x="1269" y="-105" font-family="Helvetica,sans-Serif" font-size="10.00">Buttons</text>
</a>
</g>
</g>
<!-- Node9&#45;&gt;Node10 -->
<g id="edge9" class="edge"><title>Node9&#45;&gt;Node10</title>
<path fill="none" stroke="midnightblue" d="M1131.74,-113C1149.19,-113 1168.07,-113 1186.05,-113"/>
<polygon fill="midnightblue" stroke="midnightblue" points="1186.22,-116.5 1196.22,-113 1186.22,-109.5 1186.22,-116.5"/>
</g>
<!-- Node12 -->
<g id="node12" class="node"><title>Node12</title>
<g id="a_node12"><a xlink:href="../../d6/d7b/classcontroller_1_1_cell_society_controller.html#a33e7a77467ceeb880526a1b405b3ee79" target="_top" xlink:title="controller.CellSocietyController.pause\lSimulation">
<polygon fill="white" stroke="black" points="964,-49 964,-79 1158,-79 1158,-49 964,-49"/>
<text text-anchor="start" x="972" y="-67" font-family="Helvetica,sans-Serif" font-size="10.00">controller.CellSocietyController.pause</text>
<text text-anchor="middle" x="1061" y="-56" font-family="Helvetica,sans-Serif" font-size="10.00">Simulation</text>
</a>
</g>
</g>
<!-- Node11&#45;&gt;Node12 -->
<g id="edge11" class="edge"><title>Node11&#45;&gt;Node12</title>
<path fill="none" stroke="midnightblue" d="M917.204,-64C929.158,-64 941.48,-64 953.64,-64"/>
<polygon fill="midnightblue" stroke="midnightblue" points="953.806,-67.5001 963.806,-64 953.806,-60.5001 953.806,-67.5001"/>
</g>
<!-- Node13 -->
<g id="node13" class="node"><title>Node13</title>
<g id="a_node13"><a xlink:href="../../d6/d7b/classcontroller_1_1_cell_society_controller.html#aec38c45810ee2665fe01832114fbc68d" target="_top" xlink:title="controller.CellSocietyController.restart\lSimulation">
<polygon fill="white" stroke="black" points="962.5,-0 962.5,-30 1159.5,-30 1159.5,-0 962.5,-0"/>
<text text-anchor="start" x="970.5" y="-18" font-family="Helvetica,sans-Serif" font-size="10.00">controller.CellSocietyController.restart</text>
<text text-anchor="middle" x="1061" y="-7" font-family="Helvetica,sans-Serif" font-size="10.00">Simulation</text>
</a>
</g>
</g>
<!-- Node11&#45;&gt;Node13 -->
<g id="edge12" class="edge"><title>Node11&#45;&gt;Node13</title>
<path fill="none" stroke="midnightblue" d="M897.105,-48.9654C922.707,-43.627 951.707,-37.5802 978.07,-32.0834"/>
<polygon fill="midnightblue" stroke="midnightblue" points="978.957,-35.4738 988.032,-30.0062 977.528,-28.6212 978.957,-35.4738"/>
</g>
</g>
</svg>
