<?xml version="1.0" encoding="UTF-8" standalone="no"?>
<!DOCTYPE svg PUBLIC "-//W3C//DTD SVG 1.1//EN"
 "http://www.w3.org/Graphics/SVG/1.1/DTD/svg11.dtd">
<!-- Generated by graphviz version 2.36.0 (20140111.2315)
 -->
<!-- Title: view.SplashScreen.addProbabilityText Pages: 1 -->
<svg width="1614pt" height="225pt"
 viewBox="0.00 0.00 1614.00 225.00" xmlns="http://www.w3.org/2000/svg" xmlns:xlink="http://www.w3.org/1999/xlink">
<g id="graph0" class="graph" transform="scale(1 1) rotate(0) translate(4 221)">
<title>view.SplashScreen.addProbabilityText</title>
<polygon fill="white" stroke="none" points="-4,4 -4,-221 1610,-221 1610,4 -4,4"/>
<!-- Node1 -->
<g id="node1" class="node"><title>Node1</title>
<polygon fill="#bfbfbf" stroke="black" points="0,-128.5 0,-147.5 194,-147.5 194,-128.5 0,-128.5"/>
<text text-anchor="middle" x="97" y="-135.5" font-family="Helvetica,sans-Serif" font-size="10.00">view.SplashScreen.addProbabilityText</text>
</g>
<!-- Node2 -->
<g id="node2" class="node"><title>Node2</title>
<g id="a_node2"><a xlink:href="../../d6/d7b/classcontroller_1_1_cell_society_controller.html#ada30fdc135cdf08b93065edf15ed3fcc" target="_top" xlink:title="controller.CellSocietyController.generate\lProbabilityRandomGrid">
<polygon fill="white" stroke="black" points="230.5,-148 230.5,-178 439.5,-178 439.5,-148 230.5,-148"/>
<text text-anchor="start" x="238.5" y="-166" font-family="Helvetica,sans-Serif" font-size="10.00">controller.CellSocietyController.generate</text>
<text text-anchor="middle" x="335" y="-155" font-family="Helvetica,sans-Serif" font-size="10.00">ProbabilityRandomGrid</text>
</a>
</g>
</g>
<!-- Node1&#45;&gt;Node2 -->
<g id="edge1" class="edge"><title>Node1&#45;&gt;Node2</title>
<path fill="none" stroke="midnightblue" d="M187.895,-147.523C198.358,-148.631 209.135,-149.773 219.869,-150.91"/>
<polygon fill="midnightblue" stroke="midnightblue" points="219.822,-154.424 230.135,-151.997 220.56,-147.463 219.822,-154.424"/>
</g>
<!-- Node15 -->
<g id="node15" class="node"><title>Node15</title>
<g id="a_node15"><a xlink:href="../../dd/d02/classview_1_1_splash_screen.html#a1e747e968477f14fbd6d6cd4a508e008" target="_top" xlink:title="view.SplashScreen.remove\lAskScreenNodes">
<polygon fill="white" stroke="black" points="262.5,-99 262.5,-129 407.5,-129 407.5,-99 262.5,-99"/>
<text text-anchor="start" x="270.5" y="-117" font-family="Helvetica,sans-Serif" font-size="10.00">view.SplashScreen.remove</text>
<text text-anchor="middle" x="335" y="-106" font-family="Helvetica,sans-Serif" font-size="10.00">AskScreenNodes</text>
</a>
</g>
</g>
<!-- Node1&#45;&gt;Node15 -->
<g id="edge14" class="edge"><title>Node1&#45;&gt;Node15</title>
<path fill="none" stroke="midnightblue" d="M191.612,-128.48C211.667,-126.441 232.704,-124.301 252.269,-122.312"/>
<polygon fill="midnightblue" stroke="midnightblue" points="252.757,-125.78 262.352,-121.286 252.049,-118.816 252.757,-125.78"/>
</g>
<!-- Node3 -->
<g id="node3" class="node"><title>Node3</title>
<g id="a_node3"><a xlink:href="../../d6/d7b/classcontroller_1_1_cell_society_controller.html#a41b6379d34f94114f5ada21e3bb8b52e" target="_top" xlink:title="controller.CellSocietyController.generateGrid">
<polygon fill="white" stroke="black" points="476,-153.5 476,-172.5 704,-172.5 704,-153.5 476,-153.5"/>
<text text-anchor="middle" x="590" y="-160.5" font-family="Helvetica,sans-Serif" font-size="10.00">controller.CellSocietyController.generateGrid</text>
</a>
</g>
</g>
<!-- Node2&#45;&gt;Node3 -->
<g id="edge2" class="edge"><title>Node2&#45;&gt;Node3</title>
<path fill="none" stroke="midnightblue" d="M439.635,-163C448.168,-163 456.845,-163 465.503,-163"/>
<polygon fill="midnightblue" stroke="midnightblue" points="465.648,-166.5 475.648,-163 465.648,-159.5 465.648,-166.5"/>
</g>
<!-- Node4 -->
<g id="node4" class="node"><title>Node4</title>
<g id="a_node4"><a xlink:href="../../d8/dd8/classcontroller_1_1_sim_generator.html#a56410ccebd07c1b6d1a3afb41d7997fc" target="_top" xlink:title="controller.SimGenerator.getGrid">
<polygon fill="white" stroke="black" points="760.5,-197.5 760.5,-216.5 929.5,-216.5 929.5,-197.5 760.5,-197.5"/>
<text text-anchor="middle" x="845" y="-204.5" font-family="Helvetica,sans-Serif" font-size="10.00">controller.SimGenerator.getGrid</text>
</a>
</g>
</g>
<!-- Node3&#45;&gt;Node4 -->
<g id="edge3" class="edge"><title>Node3&#45;&gt;Node4</title>
<path fill="none" stroke="midnightblue" d="M645.897,-172.547C685.101,-179.365 737.986,-188.563 779.253,-195.74"/>
<polygon fill="midnightblue" stroke="midnightblue" points="778.758,-199.206 789.21,-197.471 779.958,-192.31 778.758,-199.206"/>
</g>
<!-- Node5 -->
<g id="node5" class="node"><title>Node5</title>
<g id="a_node5"><a xlink:href="../../d8/dd8/classcontroller_1_1_sim_generator.html#a9fd6cebed37c16aad5e70dc966ac9fb5" target="_top" xlink:title="controller.SimGenerator.get\lParameters">
<polygon fill="white" stroke="black" points="770.5,-148 770.5,-178 919.5,-178 919.5,-148 770.5,-148"/>
<text text-anchor="start" x="778.5" y="-166" font-family="Helvetica,sans-Serif" font-size="10.00">controller.SimGenerator.get</text>
<text text-anchor="middle" x="845" y="-155" font-family="Helvetica,sans-Serif" font-size="10.00">Parameters</text>
</a>
</g>
</g>
<!-- Node3&#45;&gt;Node5 -->
<g id="edge4" class="edge"><title>Node3&#45;&gt;Node5</title>
<path fill="none" stroke="midnightblue" d="M704.18,-163C723.075,-163 742.371,-163 760.356,-163"/>
<polygon fill="midnightblue" stroke="midnightblue" points="760.49,-166.5 770.49,-163 760.49,-159.5 760.49,-166.5"/>
</g>
<!-- Node6 -->
<g id="node6" class="node"><title>Node6</title>
<g id="a_node6"><a xlink:href="../../d6/d7b/classcontroller_1_1_cell_society_controller.html#a3d913ad3344ac48e887110e2fabb5746" target="_top" xlink:title="controller.CellSocietyController.transition\lToSimulation">
<polygon fill="white" stroke="black" points="740,-99 740,-129 950,-129 950,-99 740,-99"/>
<text text-anchor="start" x="748" y="-117" font-family="Helvetica,sans-Serif" font-size="10.00">controller.CellSocietyController.transition</text>
<text text-anchor="middle" x="845" y="-106" font-family="Helvetica,sans-Serif" font-size="10.00">ToSimulation</text>
</a>
</g>
</g>
<!-- Node3&#45;&gt;Node6 -->
<g id="edge5" class="edge"><title>Node3&#45;&gt;Node6</title>
<path fill="none" stroke="midnightblue" d="M640.081,-153.494C672.927,-147.133 717.087,-138.58 755.914,-131.06"/>
<polygon fill="midnightblue" stroke="midnightblue" points="757.031,-134.409 766.183,-129.071 755.7,-127.537 757.031,-134.409"/>
</g>
<!-- Node7 -->
<g id="node7" class="node"><title>Node7</title>
<g id="a_node7"><a xlink:href="../../d6/d7b/classcontroller_1_1_cell_society_controller.html#a8af25de87ececa5ca913e7b5af486b3f" target="_top" xlink:title="controller.CellSocietyController.initialize\lSimulation">
<polygon fill="white" stroke="black" points="986.5,-148 986.5,-178 1189.5,-178 1189.5,-148 986.5,-148"/>
<text text-anchor="start" x="994.5" y="-166" font-family="Helvetica,sans-Serif" font-size="10.00">controller.CellSocietyController.initialize</text>
<text text-anchor="middle" x="1088" y="-155" font-family="Helvetica,sans-Serif" font-size="10.00">Simulation</text>
</a>
</g>
</g>
<!-- Node6&#45;&gt;Node7 -->
<g id="edge6" class="edge"><title>Node6&#45;&gt;Node7</title>
<path fill="none" stroke="midnightblue" d="M919.946,-129.035C946.317,-134.396 976.204,-140.473 1003.33,-145.989"/>
<polygon fill="midnightblue" stroke="midnightblue" points="1002.7,-149.431 1013.19,-147.994 1004.09,-142.571 1002.7,-149.431"/>
</g>
<!-- Node8 -->
<g id="node8" class="node"><title>Node8</title>
<g id="a_node8"><a xlink:href="../../d6/d7b/classcontroller_1_1_cell_society_controller.html#af6b4eb647c4e76fef6f27cc61ced4d9a" target="_top" xlink:title="controller.CellSocietyController.initialize\lSimulationScreen">
<polygon fill="white" stroke="black" points="986.5,-99 986.5,-129 1189.5,-129 1189.5,-99 986.5,-99"/>
<text text-anchor="start" x="994.5" y="-117" font-family="Helvetica,sans-Serif" font-size="10.00">controller.CellSocietyController.initialize</text>
<text text-anchor="middle" x="1088" y="-106" font-family="Helvetica,sans-Serif" font-size="10.00">SimulationScreen</text>
</a>
</g>
</g>
<!-- Node6&#45;&gt;Node8 -->
<g id="edge7" class="edge"><title>Node6&#45;&gt;Node8</title>
<path fill="none" stroke="midnightblue" d="M950.304,-114C958.899,-114 967.606,-114 976.246,-114"/>
<polygon fill="midnightblue" stroke="midnightblue" points="976.346,-117.5 986.346,-114 976.346,-110.5 976.346,-117.5"/>
</g>
<!-- Node12 -->
<g id="node12" class="node"><title>Node12</title>
<g id="a_node12"><a xlink:href="../../d6/d7b/classcontroller_1_1_cell_society_controller.html#a7609d9a174ff7d2d00fc27e3574cdb21" target="_top" xlink:title="controller.CellSocietyController.stop\lOrStart">
<polygon fill="white" stroke="black" points="995,-50 995,-80 1181,-80 1181,-50 995,-50"/>
<text text-anchor="start" x="1003" y="-68" font-family="Helvetica,sans-Serif" font-size="10.00">controller.CellSocietyController.stop</text>
<text text-anchor="middle" x="1088" y="-57" font-family="Helvetica,sans-Serif" font-size="10.00">OrStart</text>
</a>
</g>
</g>
<!-- Node6&#45;&gt;Node12 -->
<g id="edge11" class="edge"><title>Node6&#45;&gt;Node12</title>
<path fill="none" stroke="midnightblue" d="M919.946,-98.9654C946.317,-93.6035 976.204,-87.5269 1003.33,-82.0108"/>
<polygon fill="midnightblue" stroke="midnightblue" points="1004.09,-85.4285 1013.19,-80.0062 1002.7,-78.5689 1004.09,-85.4285"/>
</g>
<!-- Node9 -->
<g id="node9" class="node"><title>Node9</title>
<g id="a_node9"><a xlink:href="../../d1/d3e/classview_1_1_simulation_screen.html#a482a021910f4b997fb7b798bdc363df4" target="_top" xlink:title="view.SimulationScreen.getNode">
<polygon fill="white" stroke="black" points="1241,-148.5 1241,-167.5 1409,-167.5 1409,-148.5 1241,-148.5"/>
<text text-anchor="middle" x="1325" y="-155.5" font-family="Helvetica,sans-Serif" font-size="10.00">view.SimulationScreen.getNode</text>
</a>
</g>
</g>
<!-- Node8&#45;&gt;Node9 -->
<g id="edge8" class="edge"><title>Node8&#45;&gt;Node9</title>
<path fill="none" stroke="midnightblue" d="M1169.22,-129.019C1200.02,-134.787 1234.64,-141.269 1263.32,-146.638"/>
<polygon fill="midnightblue" stroke="midnightblue" points="1262.72,-150.087 1273.2,-148.488 1264.01,-143.207 1262.72,-150.087"/>
</g>
<!-- Node10 -->
<g id="node10" class="node"><title>Node10</title>
<g id="a_node10"><a xlink:href="../../d1/d3e/classview_1_1_simulation_screen.html#a6c9f5c7e36be620d06e55709bc256d18" target="_top" xlink:title="view.SimulationScreen.init\lSimScreen">
<polygon fill="white" stroke="black" points="1254.5,-99 1254.5,-129 1395.5,-129 1395.5,-99 1254.5,-99"/>
<text text-anchor="start" x="1262.5" y="-117" font-family="Helvetica,sans-Serif" font-size="10.00">view.SimulationScreen.init</text>
<text text-anchor="middle" x="1325" y="-106" font-family="Helvetica,sans-Serif" font-size="10.00">SimScreen</text>
</a>
</g>
</g>
<!-- Node8&#45;&gt;Node10 -->
<g id="edge9" class="edge"><title>Node8&#45;&gt;Node10</title>
<path fill="none" stroke="midnightblue" d="M1189.68,-114C1207.91,-114 1226.68,-114 1244.21,-114"/>
<polygon fill="midnightblue" stroke="midnightblue" points="1244.37,-117.5 1254.37,-114 1244.37,-110.5 1244.37,-117.5"/>
</g>
<!-- Node11 -->
<g id="node11" class="node"><title>Node11</title>
<g id="a_node11"><a xlink:href="../../d1/d3e/classview_1_1_simulation_screen.html#a7144a80861195f360ade7612b479ff3e" target="_top" xlink:title="view.SimulationScreen.add\lButtons">
<polygon fill="white" stroke="black" points="1460.5,-99 1460.5,-129 1605.5,-129 1605.5,-99 1460.5,-99"/>
<text text-anchor="start" x="1468.5" y="-117" font-family="Helvetica,sans-Serif" font-size="10.00">view.SimulationScreen.add</text>
<text text-anchor="middle" x="1533" y="-106" font-family="Helvetica,sans-Serif" font-size="10.00">Buttons</text>
</a>
</g>
</g>
<!-- Node10&#45;&gt;Node11 -->
<g id="edge10" class="edge"><title>Node10&#45;&gt;Node11</title>
<path fill="none" stroke="midnightblue" d="M1395.74,-114C1413.19,-114 1432.07,-114 1450.05,-114"/>
<polygon fill="midnightblue" stroke="midnightblue" points="1450.22,-117.5 1460.22,-114 1450.22,-110.5 1450.22,-117.5"/>
</g>
<!-- Node13 -->
<g id="node13" class="node"><title>Node13</title>
<g id="a_node13"><a xlink:href="../../d6/d7b/classcontroller_1_1_cell_society_controller.html#a33e7a77467ceeb880526a1b405b3ee79" target="_top" xlink:title="controller.CellSocietyController.pause\lSimulation">
<polygon fill="white" stroke="black" points="1228,-50 1228,-80 1422,-80 1422,-50 1228,-50"/>
<text text-anchor="start" x="1236" y="-68" font-family="Helvetica,sans-Serif" font-size="10.00">controller.CellSocietyController.pause</text>
<text text-anchor="middle" x="1325" y="-57" font-family="Helvetica,sans-Serif" font-size="10.00">Simulation</text>
</a>
</g>
</g>
<!-- Node12&#45;&gt;Node13 -->
<g id="edge12" class="edge"><title>Node12&#45;&gt;Node13</title>
<path fill="none" stroke="midnightblue" d="M1181.2,-65C1193.16,-65 1205.48,-65 1217.64,-65"/>
<polygon fill="midnightblue" stroke="midnightblue" points="1217.81,-68.5001 1227.81,-65 1217.81,-61.5001 1217.81,-68.5001"/>
</g>
<!-- Node14 -->
<g id="node14" class="node"><title>Node14</title>
<g id="a_node14"><a xlink:href="../../d6/d7b/classcontroller_1_1_cell_society_controller.html#aec38c45810ee2665fe01832114fbc68d" target="_top" xlink:title="controller.CellSocietyController.restart\lSimulation">
<polygon fill="white" stroke="black" points="1226.5,-1 1226.5,-31 1423.5,-31 1423.5,-1 1226.5,-1"/>
<text text-anchor="start" x="1234.5" y="-19" font-family="Helvetica,sans-Serif" font-size="10.00">controller.CellSocietyController.restart</text>
<text text-anchor="middle" x="1325" y="-8" font-family="Helvetica,sans-Serif" font-size="10.00">Simulation</text>
</a>
</g>
</g>
<!-- Node12&#45;&gt;Node14 -->
<g id="edge13" class="edge"><title>Node12&#45;&gt;Node14</title>
<path fill="none" stroke="midnightblue" d="M1161.1,-49.9654C1186.71,-44.627 1215.71,-38.5802 1242.07,-33.0834"/>
<polygon fill="midnightblue" stroke="midnightblue" points="1242.96,-36.4738 1252.03,-31.0062 1241.53,-29.6212 1242.96,-36.4738"/>
</g>
</g>
</svg>
