<?xml version="1.0" encoding="UTF-8" standalone="no"?>
<!DOCTYPE svg PUBLIC "-//W3C//DTD SVG 1.1//EN"
 "http://www.w3.org/Graphics/SVG/1.1/DTD/svg11.dtd">
<!-- Generated by graphviz version 2.36.0 (20140111.2315)
 -->
<!-- Title: model.simulations.SimulationSugarscape.updateGrid Pages: 1 -->
<svg width="1048pt" height="361pt"
 viewBox="0.00 0.00 1048.00 361.00" xmlns="http://www.w3.org/2000/svg" xmlns:xlink="http://www.w3.org/1999/xlink">
<g id="graph0" class="graph" transform="scale(1 1) rotate(0) translate(4 357)">
<title>model.simulations.SimulationSugarscape.updateGrid</title>
<polygon fill="white" stroke="none" points="-4,4 -4,-357 1044,-357 1044,4 -4,4"/>
<!-- Node1 -->
<g id="node1" class="node"><title>Node1</title>
<polygon fill="#bfbfbf" stroke="black" points="0,-140 0,-170 158,-170 158,-140 0,-140"/>
<text text-anchor="start" x="8" y="-158" font-family="Helvetica,sans-Serif" font-size="10.00">model.simulations.Simulation</text>
<text text-anchor="middle" x="79" y="-147" font-family="Helvetica,sans-Serif" font-size="10.00">Sugarscape.updateGrid</text>
</g>
<!-- Node2 -->
<g id="node2" class="node"><title>Node2</title>
<g id="a_node2"><a xlink:href="../../db/d90/classmodel_1_1patches_1_1_patch.html#a7ba5fbc8b51be9d83051c94820bf1083" target="_top" xlink:title="model.patches.Patch.getCell">
<polygon fill="white" stroke="black" points="673.5,-88.5 673.5,-107.5 826.5,-107.5 826.5,-88.5 673.5,-88.5"/>
<text text-anchor="middle" x="750" y="-95.5" font-family="Helvetica,sans-Serif" font-size="10.00">model.patches.Patch.getCell</text>
</a>
</g>
</g>
<!-- Node1&#45;&gt;Node2 -->
<g id="edge1" class="edge"><title>Node1&#45;&gt;Node2</title>
<path fill="none" stroke="midnightblue" d="M116.266,-139.935C138.327,-131.526 167.308,-121.802 194,-117 358.017,-87.4952 553.571,-89.172 663.298,-93.3736"/>
<polygon fill="midnightblue" stroke="midnightblue" points="663.188,-96.8719 673.32,-93.7737 663.467,-89.8775 663.188,-96.8719"/>
</g>
<!-- Node3 -->
<g id="node3" class="node"><title>Node3</title>
<g id="a_node3"><a xlink:href="../../dc/d41/classmodel_1_1cells_1_1_cell.html#a16ac8c4efc55531cf87c35c5eb987c56" target="_top" xlink:title="model.cells.Cell.getX">
<polygon fill="white" stroke="black" points="234,-240.5 234,-259.5 350,-259.5 350,-240.5 234,-240.5"/>
<text text-anchor="middle" x="292" y="-247.5" font-family="Helvetica,sans-Serif" font-size="10.00">model.cells.Cell.getX</text>
</a>
</g>
</g>
<!-- Node1&#45;&gt;Node3 -->
<g id="edge2" class="edge"><title>Node1&#45;&gt;Node3</title>
<path fill="none" stroke="midnightblue" d="M97.6713,-170.062C119.054,-187.473 156.83,-215.69 194,-231 203.499,-234.913 213.86,-238.034 224.161,-240.521"/>
<polygon fill="midnightblue" stroke="midnightblue" points="223.465,-243.952 233.988,-242.716 224.991,-237.12 223.465,-243.952"/>
</g>
<!-- Node4 -->
<g id="node4" class="node"><title>Node4</title>
<g id="a_node4"><a xlink:href="../../dc/d41/classmodel_1_1cells_1_1_cell.html#a1b6324942654788b14b240938158bbda" target="_top" xlink:title="model.cells.Cell.getY">
<polygon fill="white" stroke="black" points="234.5,-202.5 234.5,-221.5 349.5,-221.5 349.5,-202.5 234.5,-202.5"/>
<text text-anchor="middle" x="292" y="-209.5" font-family="Helvetica,sans-Serif" font-size="10.00">model.cells.Cell.getY</text>
</a>
</g>
</g>
<!-- Node1&#45;&gt;Node4 -->
<g id="edge3" class="edge"><title>Node1&#45;&gt;Node4</title>
<path fill="none" stroke="midnightblue" d="M120.775,-170.005C142.343,-177.582 169.388,-186.516 194,-193 204.186,-195.683 215.064,-198.172 225.717,-200.406"/>
<polygon fill="midnightblue" stroke="midnightblue" points="225.333,-203.9 235.831,-202.467 226.731,-197.041 225.333,-203.9"/>
</g>
<!-- Node5 -->
<g id="node5" class="node"><title>Node5</title>
<g id="a_node5"><a xlink:href="../../db/d90/classmodel_1_1patches_1_1_patch.html#ac89c81c8beb110fab65724ab24f2a1dd" target="_top" xlink:title="model.patches.Patch.setCell">
<polygon fill="white" stroke="black" points="216,-164.5 216,-183.5 368,-183.5 368,-164.5 216,-164.5"/>
<text text-anchor="middle" x="292" y="-171.5" font-family="Helvetica,sans-Serif" font-size="10.00">model.patches.Patch.setCell</text>
</a>
</g>
</g>
<!-- Node1&#45;&gt;Node5 -->
<g id="edge4" class="edge"><title>Node1&#45;&gt;Node5</title>
<path fill="none" stroke="midnightblue" d="M158.269,-162.048C173.662,-163.434 189.886,-164.895 205.502,-166.301"/>
<polygon fill="midnightblue" stroke="midnightblue" points="205.388,-169.805 215.662,-167.216 206.016,-162.833 205.388,-169.805"/>
</g>
<!-- Node6 -->
<g id="node6" class="node"><title>Node6</title>
<g id="a_node6"><a xlink:href="../../dc/d41/classmodel_1_1cells_1_1_cell.html#a5d644bc63cc518f83b1a597351148008" target="_top" xlink:title="model.cells.Cell.update">
<polygon fill="white" stroke="black" points="228,-126.5 228,-145.5 356,-145.5 356,-126.5 228,-126.5"/>
<text text-anchor="middle" x="292" y="-133.5" font-family="Helvetica,sans-Serif" font-size="10.00">model.cells.Cell.update</text>
</a>
</g>
</g>
<!-- Node1&#45;&gt;Node6 -->
<g id="edge5" class="edge"><title>Node1&#45;&gt;Node6</title>
<path fill="none" stroke="midnightblue" d="M158.269,-147.952C177.754,-146.197 198.57,-144.323 217.801,-142.591"/>
<polygon fill="midnightblue" stroke="midnightblue" points="218.353,-146.056 227.999,-141.673 217.725,-139.084 218.353,-146.056"/>
</g>
<!-- Node7 -->
<g id="node7" class="node"><title>Node7</title>
<g id="a_node7"><a xlink:href="../../d0/d56/classmodel_1_1simulations_1_1_simulation.html#a6efb6657ce3c803a99ccd41d8b8a2057" target="_top" xlink:title="model.simulations.Simulation.update\lColorGrid">
<polygon fill="white" stroke="black" points="194.5,-279 194.5,-309 389.5,-309 389.5,-279 194.5,-279"/>
<text text-anchor="start" x="202.5" y="-297" font-family="Helvetica,sans-Serif" font-size="10.00">model.simulations.Simulation.update</text>
<text text-anchor="middle" x="292" y="-286" font-family="Helvetica,sans-Serif" font-size="10.00">ColorGrid</text>
</a>
</g>
</g>
<!-- Node1&#45;&gt;Node7 -->
<g id="edge6" class="edge"><title>Node1&#45;&gt;Node7</title>
<path fill="none" stroke="midnightblue" d="M90.7686,-170.119C109.096,-194.703 148.79,-243.185 194,-269 197.929,-271.243 202.061,-273.289 206.314,-275.154"/>
<polygon fill="midnightblue" stroke="midnightblue" points="205.204,-278.479 215.788,-278.954 207.81,-271.983 205.204,-278.479"/>
</g>
<!-- Node13 -->
<g id="node13" class="node"><title>Node13</title>
<g id="a_node13"><a xlink:href="../../d0/d56/classmodel_1_1simulations_1_1_simulation.html#a79b103e987f93ecbd35ef416d4e01b13" target="_top" xlink:title="model.simulations.Simulation.update\lNeighbors">
<polygon fill="white" stroke="black" points="194.5,-39 194.5,-69 389.5,-69 389.5,-39 194.5,-39"/>
<text text-anchor="start" x="202.5" y="-57" font-family="Helvetica,sans-Serif" font-size="10.00">model.simulations.Simulation.update</text>
<text text-anchor="middle" x="292" y="-46" font-family="Helvetica,sans-Serif" font-size="10.00">Neighbors</text>
</a>
</g>
</g>
<!-- Node1&#45;&gt;Node13 -->
<g id="edge13" class="edge"><title>Node1&#45;&gt;Node13</title>
<path fill="none" stroke="midnightblue" d="M100.517,-139.95C122.666,-124.257 159.43,-99.791 194,-84 203.477,-79.6708 213.75,-75.7414 223.944,-72.258"/>
<polygon fill="midnightblue" stroke="midnightblue" points="225.263,-75.5088 233.666,-69.0564 223.073,-68.86 225.263,-75.5088"/>
</g>
<!-- Node16 -->
<g id="node16" class="node"><title>Node16</title>
<g id="a_node16"><a xlink:href="../../dc/d41/classmodel_1_1cells_1_1_cell.html#a7e5ee6b211415566a0c33b7af893ba9f" target="_top" xlink:title="model.cells.Cell.viewProperties">
<polygon fill="white" stroke="black" points="210.5,-0.5 210.5,-19.5 373.5,-19.5 373.5,-0.5 210.5,-0.5"/>
<text text-anchor="middle" x="292" y="-7.5" font-family="Helvetica,sans-Serif" font-size="10.00">model.cells.Cell.viewProperties</text>
</a>
</g>
</g>
<!-- Node1&#45;&gt;Node16 -->
<g id="edge17" class="edge"><title>Node1&#45;&gt;Node16</title>
<path fill="none" stroke="midnightblue" d="M89.1535,-139.862C106.195,-113.087 145.498,-57.6006 194,-30 198.81,-27.2627 203.944,-24.8976 209.245,-22.8543"/>
<polygon fill="midnightblue" stroke="midnightblue" points="210.619,-26.0827 218.931,-19.5131 208.336,-19.4653 210.619,-26.0827"/>
</g>
<!-- Node7&#45;&gt;Node2 -->
<g id="edge7" class="edge"><title>Node7&#45;&gt;Node2</title>
<path fill="none" stroke="midnightblue" d="M388.902,-278.938C482.292,-264.032 611.688,-242.647 622,-237 675.552,-207.674 718.567,-147.144 737.913,-116.557"/>
<polygon fill="midnightblue" stroke="midnightblue" points="741.071,-118.104 743.346,-107.756 735.115,-114.427 741.071,-118.104"/>
</g>
<!-- Node8 -->
<g id="node8" class="node"><title>Node8</title>
<g id="a_node8"><a xlink:href="../../dc/d41/classmodel_1_1cells_1_1_cell.html#ac50f3513c91c8934182ceb7fa8b192fb" target="_top" xlink:title="model.cells.Cell.getColor">
<polygon fill="white" stroke="black" points="457,-208.5 457,-227.5 591,-227.5 591,-208.5 457,-208.5"/>
<text text-anchor="middle" x="524" y="-215.5" font-family="Helvetica,sans-Serif" font-size="10.00">model.cells.Cell.getColor</text>
</a>
</g>
</g>
<!-- Node7&#45;&gt;Node8 -->
<g id="edge8" class="edge"><title>Node7&#45;&gt;Node8</title>
<path fill="none" stroke="midnightblue" d="M364.605,-278.97C373.347,-276.143 382.006,-272.841 390,-269 408.027,-260.339 407.931,-250.574 426,-242 436.122,-237.197 447.31,-233.29 458.383,-230.133"/>
<polygon fill="midnightblue" stroke="midnightblue" points="459.297,-233.511 468.053,-227.547 457.489,-226.749 459.297,-233.511"/>
</g>
<!-- Node9 -->
<g id="node9" class="node"><title>Node9</title>
<g id="a_node9"><a xlink:href="../../db/d90/classmodel_1_1patches_1_1_patch.html#af3d92d81282dcb3654b500c8fbebef06" target="_top" xlink:title="model.patches.Patch.getColor">
<polygon fill="white" stroke="black" points="443.5,-284.5 443.5,-303.5 604.5,-303.5 604.5,-284.5 443.5,-284.5"/>
<text text-anchor="middle" x="524" y="-291.5" font-family="Helvetica,sans-Serif" font-size="10.00">model.patches.Patch.getColor</text>
</a>
</g>
</g>
<!-- Node7&#45;&gt;Node9 -->
<g id="edge9" class="edge"><title>Node7&#45;&gt;Node9</title>
<path fill="none" stroke="midnightblue" d="M389.541,-294C403.984,-294 418.825,-294 433.122,-294"/>
<polygon fill="midnightblue" stroke="midnightblue" points="433.423,-297.5 443.423,-294 433.423,-290.5 433.423,-297.5"/>
</g>
<!-- Node10 -->
<g id="node10" class="node"><title>Node10</title>
<g id="a_node10"><a xlink:href="../../d1/d3e/classview_1_1_simulation_screen.html#a56d778b3e5756edd732a027e4d96a431" target="_top" xlink:title="view.SimulationScreen.update\lScreen">
<polygon fill="white" stroke="black" points="443.5,-323 443.5,-353 604.5,-353 604.5,-323 443.5,-323"/>
<text text-anchor="start" x="451.5" y="-341" font-family="Helvetica,sans-Serif" font-size="10.00">view.SimulationScreen.update</text>
<text text-anchor="middle" x="524" y="-330" font-family="Helvetica,sans-Serif" font-size="10.00">Screen</text>
</a>
</g>
</g>
<!-- Node7&#45;&gt;Node10 -->
<g id="edge10" class="edge"><title>Node7&#45;&gt;Node10</title>
<path fill="none" stroke="midnightblue" d="M371.51,-309.019C391.752,-312.892 413.677,-317.086 434.394,-321.049"/>
<polygon fill="midnightblue" stroke="midnightblue" points="433.974,-324.532 444.454,-322.974 435.29,-317.657 433.974,-324.532"/>
</g>
<!-- Node11 -->
<g id="node11" class="node"><title>Node11</title>
<g id="a_node11"><a xlink:href="../../d1/d3e/classview_1_1_simulation_screen.html#ac818b7465bc624b25a3aba98df571bdb" target="_top" xlink:title="view.SimulationScreen.updateData">
<polygon fill="white" stroke="black" points="658,-328.5 658,-347.5 842,-347.5 842,-328.5 658,-328.5"/>
<text text-anchor="middle" x="750" y="-335.5" font-family="Helvetica,sans-Serif" font-size="10.00">view.SimulationScreen.updateData</text>
</a>
</g>
</g>
<!-- Node10&#45;&gt;Node11 -->
<g id="edge11" class="edge"><title>Node10&#45;&gt;Node11</title>
<path fill="none" stroke="midnightblue" d="M604.605,-338C618.468,-338 633.055,-338 647.412,-338"/>
<polygon fill="midnightblue" stroke="midnightblue" points="647.812,-341.5 657.812,-338 647.812,-334.5 647.812,-341.5"/>
</g>
<!-- Node12 -->
<g id="node12" class="node"><title>Node12</title>
<g id="a_node12"><a xlink:href="../../d1/d3e/classview_1_1_simulation_screen.html#a903be669ef69338f95301aa617218a14" target="_top" xlink:title="view.SimulationScreen.update\lMapArrayList">
<polygon fill="white" stroke="black" points="878.5,-323 878.5,-353 1039.5,-353 1039.5,-323 878.5,-323"/>
<text text-anchor="start" x="886.5" y="-341" font-family="Helvetica,sans-Serif" font-size="10.00">view.SimulationScreen.update</text>
<text text-anchor="middle" x="959" y="-330" font-family="Helvetica,sans-Serif" font-size="10.00">MapArrayList</text>
</a>
</g>
</g>
<!-- Node11&#45;&gt;Node12 -->
<g id="edge12" class="edge"><title>Node11&#45;&gt;Node12</title>
<path fill="none" stroke="midnightblue" d="M842.094,-338C850.748,-338 859.519,-338 868.161,-338"/>
<polygon fill="midnightblue" stroke="midnightblue" points="868.232,-341.5 878.232,-338 868.232,-334.5 868.232,-341.5"/>
</g>
<!-- Node14 -->
<g id="node14" class="node"><title>Node14</title>
<g id="a_node14"><a xlink:href="../../d0/d56/classmodel_1_1simulations_1_1_simulation.html#ac71a6bcbcb42c8759d1e6a6aacafc802" target="_top" xlink:title="model.simulations.Simulation.update\lNeighborSquare">
<polygon fill="white" stroke="black" points="426.5,-39 426.5,-69 621.5,-69 621.5,-39 426.5,-39"/>
<text text-anchor="start" x="434.5" y="-57" font-family="Helvetica,sans-Serif" font-size="10.00">model.simulations.Simulation.update</text>
<text text-anchor="middle" x="524" y="-46" font-family="Helvetica,sans-Serif" font-size="10.00">NeighborSquare</text>
</a>
</g>
</g>
<!-- Node13&#45;&gt;Node14 -->
<g id="edge14" class="edge"><title>Node13&#45;&gt;Node14</title>
<path fill="none" stroke="midnightblue" d="M389.541,-54C398.384,-54 407.376,-54 416.301,-54"/>
<polygon fill="midnightblue" stroke="midnightblue" points="416.337,-57.5001 426.337,-54 416.337,-50.5001 416.337,-57.5001"/>
</g>
<!-- Node14&#45;&gt;Node2 -->
<g id="edge15" class="edge"><title>Node14&#45;&gt;Node2</title>
<path fill="none" stroke="midnightblue" d="M601.462,-69.0192C630.569,-74.7367 663.249,-81.156 690.44,-86.4971"/>
<polygon fill="midnightblue" stroke="midnightblue" points="690.086,-89.9944 700.573,-88.4876 691.435,-83.1257 690.086,-89.9944"/>
</g>
<!-- Node15 -->
<g id="node15" class="node"><title>Node15</title>
<g id="a_node15"><a xlink:href="../../dc/d41/classmodel_1_1cells_1_1_cell.html#a6d3a4c932aa68c9364b241effbb2ed50" target="_top" xlink:title="model.cells.Cell.setNeighbors">
<polygon fill="white" stroke="black" points="671,-44.5 671,-63.5 829,-63.5 829,-44.5 671,-44.5"/>
<text text-anchor="middle" x="750" y="-51.5" font-family="Helvetica,sans-Serif" font-size="10.00">model.cells.Cell.setNeighbors</text>
</a>
</g>
</g>
<!-- Node14&#45;&gt;Node15 -->
<g id="edge16" class="edge"><title>Node14&#45;&gt;Node15</title>
<path fill="none" stroke="midnightblue" d="M621.621,-54C634.609,-54 647.877,-54 660.71,-54"/>
<polygon fill="midnightblue" stroke="midnightblue" points="660.895,-57.5001 670.895,-54 660.895,-50.5001 660.895,-57.5001"/>
</g>
</g>
</svg>
