<?xml version="1.0" encoding="UTF-8" standalone="no"?>
<!DOCTYPE svg PUBLIC "-//W3C//DTD SVG 1.1//EN"
 "http://www.w3.org/Graphics/SVG/1.1/DTD/svg11.dtd">
<!-- Generated by graphviz version 2.36.0 (20140111.2315)
 -->
<!-- Title: model.simulations.SimulationSugarscape.setupParameterControl Pages: 1 -->
<svg width="1206pt" height="38pt"
 viewBox="0.00 0.00 1206.00 38.00" xmlns="http://www.w3.org/2000/svg" xmlns:xlink="http://www.w3.org/1999/xlink">
<g id="graph0" class="graph" transform="scale(1 1) rotate(0) translate(4 34)">
<title>model.simulations.SimulationSugarscape.setupParameterControl</title>
<polygon fill="white" stroke="none" points="-4,4 -4,-34 1202,-34 1202,4 -4,4"/>
<!-- Node1 -->
<g id="node1" class="node"><title>Node1</title>
<polygon fill="#bfbfbf" stroke="black" points="0,-0 0,-30 188,-30 188,-0 0,-0"/>
<text text-anchor="start" x="8" y="-18" font-family="Helvetica,sans-Serif" font-size="10.00">model.simulations.Simulation</text>
<text text-anchor="middle" x="94" y="-7" font-family="Helvetica,sans-Serif" font-size="10.00">Sugarscape.setupParameterControl</text>
</g>
<!-- Node2 -->
<g id="node2" class="node"><title>Node2</title>
<g id="a_node2"><a xlink:href="../../d1/d3e/classview_1_1_simulation_screen.html#a0b0bca3e7baf1004020e0c6bdce57e16" target="_top" xlink:title="view.SimulationScreen.create\lOptionsPanel">
<polygon fill="white" stroke="black" points="224,-0 224,-30 382,-30 382,-0 224,-0"/>
<text text-anchor="start" x="232" y="-18" font-family="Helvetica,sans-Serif" font-size="10.00">view.SimulationScreen.create</text>
<text text-anchor="middle" x="303" y="-7" font-family="Helvetica,sans-Serif" font-size="10.00">OptionsPanel</text>
</a>
</g>
</g>
<!-- Node1&#45;&gt;Node2 -->
<g id="edge1" class="edge"><title>Node1&#45;&gt;Node2</title>
<path fill="none" stroke="midnightblue" d="M188.206,-15C196.674,-15 205.235,-15 213.659,-15"/>
<polygon fill="midnightblue" stroke="midnightblue" points="213.852,-18.5001 223.852,-15 213.852,-11.5001 213.852,-18.5001"/>
</g>
<!-- Node3 -->
<g id="node3" class="node"><title>Node3</title>
<g id="a_node3"><a xlink:href="../../d4/d94/classview_1_1_side_menu.html#aa7edbecc8f707cf46ba943208bdfb6c6" target="_top" xlink:title="view.SideMenu.createOption\lWindow">
<polygon fill="white" stroke="black" points="418,-0 418,-30 570,-30 570,-0 418,-0"/>
<text text-anchor="start" x="426" y="-18" font-family="Helvetica,sans-Serif" font-size="10.00">view.SideMenu.createOption</text>
<text text-anchor="middle" x="494" y="-7" font-family="Helvetica,sans-Serif" font-size="10.00">Window</text>
</a>
</g>
</g>
<!-- Node2&#45;&gt;Node3 -->
<g id="edge2" class="edge"><title>Node2&#45;&gt;Node3</title>
<path fill="none" stroke="midnightblue" d="M382.238,-15C390.613,-15 399.163,-15 407.616,-15"/>
<polygon fill="midnightblue" stroke="midnightblue" points="407.859,-18.5001 417.859,-15 407.859,-11.5001 407.859,-18.5001"/>
</g>
<!-- Node4 -->
<g id="node4" class="node"><title>Node4</title>
<g id="a_node4"><a xlink:href="../../d4/d94/classview_1_1_side_menu.html#a21930f61c96e9858b9fabb0bdb6910bc" target="_top" xlink:title="view.SideMenu.addOptions\lPanel">
<polygon fill="white" stroke="black" points="606,-0 606,-30 750,-30 750,-0 606,-0"/>
<text text-anchor="start" x="614" y="-18" font-family="Helvetica,sans-Serif" font-size="10.00">view.SideMenu.addOptions</text>
<text text-anchor="middle" x="678" y="-7" font-family="Helvetica,sans-Serif" font-size="10.00">Panel</text>
</a>
</g>
</g>
<!-- Node3&#45;&gt;Node4 -->
<g id="edge3" class="edge"><title>Node3&#45;&gt;Node4</title>
<path fill="none" stroke="midnightblue" d="M570.077,-15C578.593,-15 587.301,-15 595.89,-15"/>
<polygon fill="midnightblue" stroke="midnightblue" points="595.899,-18.5001 605.899,-15 595.899,-11.5001 595.899,-18.5001"/>
</g>
<!-- Node5 -->
<g id="node5" class="node"><title>Node5</title>
<g id="a_node5"><a xlink:href="../../d6/d7b/classcontroller_1_1_cell_society_controller.html#a34f35d20fd1fcdf6ec1b959f71692068" target="_top" xlink:title="controller.CellSocietyController.change\lSimulationParameters">
<polygon fill="white" stroke="black" points="786,-0 786,-30 986,-30 986,-0 786,-0"/>
<text text-anchor="start" x="794" y="-18" font-family="Helvetica,sans-Serif" font-size="10.00">controller.CellSocietyController.change</text>
<text text-anchor="middle" x="886" y="-7" font-family="Helvetica,sans-Serif" font-size="10.00">SimulationParameters</text>
</a>
</g>
</g>
<!-- Node4&#45;&gt;Node5 -->
<g id="edge4" class="edge"><title>Node4&#45;&gt;Node5</title>
<path fill="none" stroke="midnightblue" d="M750.182,-15C758.457,-15 767.036,-15 775.675,-15"/>
<polygon fill="midnightblue" stroke="midnightblue" points="775.828,-18.5001 785.828,-15 775.828,-11.5001 775.828,-18.5001"/>
</g>
<!-- Node6 -->
<g id="node6" class="node"><title>Node6</title>
<g id="a_node6"><a xlink:href="../../d0/d56/classmodel_1_1simulations_1_1_simulation.html#a843485b5e61f708ef5c8f722faee5232" target="_top" xlink:title="model.simulations.Simulation.set\lParameter">
<polygon fill="white" stroke="black" points="1022,-0 1022,-30 1198,-30 1198,-0 1022,-0"/>
<text text-anchor="start" x="1030" y="-18" font-family="Helvetica,sans-Serif" font-size="10.00">model.simulations.Simulation.set</text>
<text text-anchor="middle" x="1110" y="-7" font-family="Helvetica,sans-Serif" font-size="10.00">Parameter</text>
</a>
</g>
</g>
<!-- Node5&#45;&gt;Node6 -->
<g id="edge5" class="edge"><title>Node5&#45;&gt;Node6</title>
<path fill="none" stroke="midnightblue" d="M986.312,-15C994.766,-15 1003.31,-15 1011.75,-15"/>
<polygon fill="midnightblue" stroke="midnightblue" points="1011.97,-18.5001 1021.97,-15 1011.97,-11.5001 1011.97,-18.5001"/>
</g>
</g>
</svg>
