<?xml version="1.0" encoding="UTF-8" standalone="no"?>
<!DOCTYPE svg PUBLIC "-//W3C//DTD SVG 1.1//EN"
 "http://www.w3.org/Graphics/SVG/1.1/DTD/svg11.dtd">
<!-- Generated by graphviz version 2.36.0 (20140111.2315)
 -->
<!-- Title: controller.RandomSimGenerator.getGrid Pages: 1 -->
<svg width="1474pt" height="87pt"
 viewBox="0.00 0.00 1474.00 87.00" xmlns="http://www.w3.org/2000/svg" xmlns:xlink="http://www.w3.org/1999/xlink">
<g id="graph0" class="graph" transform="scale(1 1) rotate(0) translate(4 83)">
<title>controller.RandomSimGenerator.getGrid</title>
<polygon fill="white" stroke="none" points="-4,4 -4,-83 1470,-83 1470,4 -4,4"/>
<!-- Node1 -->
<g id="node1" class="node"><title>Node1</title>
<polygon fill="#bfbfbf" stroke="black" points="0.5,-29.5 0.5,-48.5 209.5,-48.5 209.5,-29.5 0.5,-29.5"/>
<text text-anchor="middle" x="105" y="-36.5" font-family="Helvetica,sans-Serif" font-size="10.00">controller.RandomSimGenerator.getGrid</text>
</g>
<!-- Node2 -->
<g id="node2" class="node"><title>Node2</title>
<g id="a_node2"><a xlink:href="../../d6/d7b/classcontroller_1_1_cell_society_controller.html#ab65a8810efbc2b92e17ca77cdc591df9" target="_top" xlink:title="controller.CellSocietyController.generate\lRandomGrid">
<polygon fill="white" stroke="black" points="246.5,-24 246.5,-54 455.5,-54 455.5,-24 246.5,-24"/>
<text text-anchor="start" x="254.5" y="-42" font-family="Helvetica,sans-Serif" font-size="10.00">controller.CellSocietyController.generate</text>
<text text-anchor="middle" x="351" y="-31" font-family="Helvetica,sans-Serif" font-size="10.00">RandomGrid</text>
</a>
</g>
</g>
<!-- Node1&#45;&gt;Node2 -->
<g id="edge1" class="edge"><title>Node1&#45;&gt;Node2</title>
<path fill="none" stroke="midnightblue" d="M220.057,-39C228.797,-39 237.592,-39 246.262,-39"/>
<polygon fill="midnightblue" stroke="midnightblue" points="219.832,-35.5001 209.832,-39 219.832,-42.5001 219.832,-35.5001"/>
</g>
<!-- Node3 -->
<g id="node3" class="node"><title>Node3</title>
<g id="a_node3"><a xlink:href="../../dd/d02/classview_1_1_splash_screen.html#a2f8c52e9a2a790459e51d5d42f16f7da" target="_top" xlink:title="view.SplashScreen.display\lAskInformatio">
<polygon fill="white" stroke="black" points="492.5,-24 492.5,-54 633.5,-54 633.5,-24 492.5,-24"/>
<text text-anchor="start" x="500.5" y="-42" font-family="Helvetica,sans-Serif" font-size="10.00">view.SplashScreen.display</text>
<text text-anchor="middle" x="563" y="-31" font-family="Helvetica,sans-Serif" font-size="10.00">AskInformatio</text>
</a>
</g>
</g>
<!-- Node2&#45;&gt;Node3 -->
<g id="edge2" class="edge"><title>Node2&#45;&gt;Node3</title>
<path fill="none" stroke="midnightblue" d="M465.932,-39C474.913,-39 483.807,-39 492.347,-39"/>
<polygon fill="midnightblue" stroke="midnightblue" points="465.77,-35.5001 455.77,-39 465.77,-42.5001 465.77,-35.5001"/>
</g>
<!-- Node4 -->
<g id="node4" class="node"><title>Node4</title>
<g id="a_node4"><a xlink:href="../../dd/d02/classview_1_1_splash_screen.html#ad94d9edd23f270a5f480fd54a06d72f3" target="_top" xlink:title="view.SplashScreen.addProbablity\lButton">
<polygon fill="white" stroke="black" points="670.5,-49 670.5,-79 843.5,-79 843.5,-49 670.5,-49"/>
<text text-anchor="start" x="678.5" y="-67" font-family="Helvetica,sans-Serif" font-size="10.00">view.SplashScreen.addProbablity</text>
<text text-anchor="middle" x="757" y="-56" font-family="Helvetica,sans-Serif" font-size="10.00">Button</text>
</a>
</g>
</g>
<!-- Node3&#45;&gt;Node4 -->
<g id="edge3" class="edge"><title>Node3&#45;&gt;Node4</title>
<path fill="none" stroke="midnightblue" d="M643.76,-49.3855C652.514,-50.5253 661.453,-51.6892 670.275,-52.8379"/>
<polygon fill="midnightblue" stroke="midnightblue" points="643.956,-45.8815 633.588,-48.0609 643.052,-52.8229 643.956,-45.8815"/>
</g>
<!-- Node8 -->
<g id="node8" class="node"><title>Node8</title>
<g id="a_node8"><a xlink:href="../../dd/d02/classview_1_1_splash_screen.html#a17ba24f5ed477a37ea527710e54d65c8" target="_top" xlink:title="view.SplashScreen.addRandom\lButton">
<polygon fill="white" stroke="black" points="674,-0 674,-30 840,-30 840,-0 674,-0"/>
<text text-anchor="start" x="682" y="-18" font-family="Helvetica,sans-Serif" font-size="10.00">view.SplashScreen.addRandom</text>
<text text-anchor="middle" x="757" y="-7" font-family="Helvetica,sans-Serif" font-size="10.00">Button</text>
</a>
</g>
</g>
<!-- Node3&#45;&gt;Node8 -->
<g id="edge7" class="edge"><title>Node3&#45;&gt;Node8</title>
<path fill="none" stroke="midnightblue" d="M643.524,-29.0595C653.559,-27.8051 663.842,-26.5197 673.917,-25.2604"/>
<polygon fill="midnightblue" stroke="midnightblue" points="643.076,-25.5881 633.588,-30.3015 643.945,-32.5341 643.076,-25.5881"/>
</g>
<!-- Node5 -->
<g id="node5" class="node"><title>Node5</title>
<g id="a_node5"><a xlink:href="../../dd/d02/classview_1_1_splash_screen.html#a6ff42b7dad4e546981a3266f9d694f5a" target="_top" xlink:title="view.SplashScreen.getNode">
<polygon fill="white" stroke="black" points="880.5,-29.5 880.5,-48.5 1029.5,-48.5 1029.5,-29.5 880.5,-29.5"/>
<text text-anchor="middle" x="955" y="-36.5" font-family="Helvetica,sans-Serif" font-size="10.00">view.SplashScreen.getNode</text>
</a>
</g>
</g>
<!-- Node4&#45;&gt;Node5 -->
<g id="edge4" class="edge"><title>Node4&#45;&gt;Node5</title>
<path fill="none" stroke="midnightblue" d="M853.781,-51.783C862.749,-50.6392 871.741,-49.4922 880.458,-48.3804"/>
<polygon fill="midnightblue" stroke="midnightblue" points="853.16,-48.3338 843.683,-53.071 854.046,-55.2775 853.16,-48.3338"/>
</g>
<!-- Node6 -->
<g id="node6" class="node"><title>Node6</title>
<g id="a_node6"><a xlink:href="../../d6/d7b/classcontroller_1_1_cell_society_controller.html#a3f78125e5b809d88d3cf7ed20b3756c2" target="_top" xlink:title="controller.CellSocietyController.display\lSplashScreen">
<polygon fill="white" stroke="black" points="1066,-24 1066,-54 1264,-54 1264,-24 1066,-24"/>
<text text-anchor="start" x="1074" y="-42" font-family="Helvetica,sans-Serif" font-size="10.00">controller.CellSocietyController.display</text>
<text text-anchor="middle" x="1165" y="-31" font-family="Helvetica,sans-Serif" font-size="10.00">SplashScreen</text>
</a>
</g>
</g>
<!-- Node5&#45;&gt;Node6 -->
<g id="edge5" class="edge"><title>Node5&#45;&gt;Node6</title>
<path fill="none" stroke="midnightblue" d="M1039.88,-39C1048.38,-39 1057.07,-39 1065.7,-39"/>
<polygon fill="midnightblue" stroke="midnightblue" points="1039.63,-35.5001 1029.63,-39 1039.63,-42.5001 1039.63,-35.5001"/>
</g>
<!-- Node7 -->
<g id="node7" class="node"><title>Node7</title>
<g id="a_node7"><a xlink:href="../../d6/d7b/classcontroller_1_1_cell_society_controller.html#a6a2310de67e415512149c94c9f36e356" target="_top" xlink:title="controller.CellSocietyController.\lCellSocietyController">
<polygon fill="white" stroke="black" points="1300.5,-24 1300.5,-54 1465.5,-54 1465.5,-24 1300.5,-24"/>
<text text-anchor="start" x="1308.5" y="-42" font-family="Helvetica,sans-Serif" font-size="10.00">controller.CellSocietyController.</text>
<text text-anchor="middle" x="1383" y="-31" font-family="Helvetica,sans-Serif" font-size="10.00">CellSocietyController</text>
</a>
</g>
</g>
<!-- Node6&#45;&gt;Node7 -->
<g id="edge6" class="edge"><title>Node6&#45;&gt;Node7</title>
<path fill="none" stroke="midnightblue" d="M1274.38,-39C1283.07,-39 1291.75,-39 1300.2,-39"/>
<polygon fill="midnightblue" stroke="midnightblue" points="1274.2,-35.5001 1264.2,-39 1274.2,-42.5001 1274.2,-35.5001"/>
</g>
<!-- Node8&#45;&gt;Node5 -->
<g id="edge8" class="edge"><title>Node8&#45;&gt;Node5</title>
<path fill="none" stroke="midnightblue" d="M850.307,-26.3029C860.387,-27.5371 870.547,-28.7813 880.359,-29.9828"/>
<polygon fill="midnightblue" stroke="midnightblue" points="850.621,-22.8153 840.27,-25.0738 849.77,-29.7634 850.621,-22.8153"/>
</g>
</g>
</svg>
