<?xml version="1.0" encoding="UTF-8" standalone="no"?>
<!DOCTYPE svg PUBLIC "-//W3C//DTD SVG 1.1//EN"
 "http://www.w3.org/Graphics/SVG/1.1/DTD/svg11.dtd">
<!-- Generated by graphviz version 2.36.0 (20140111.2315)
 -->
<!-- Title: controller.RandomSimGenerator Pages: 1 -->
<svg width="356pt" height="154pt"
 viewBox="0.00 0.00 356.00 154.00" xmlns="http://www.w3.org/2000/svg" xmlns:xlink="http://www.w3.org/1999/xlink">
<g id="graph0" class="graph" transform="scale(1 1) rotate(0) translate(4 150)">
<title>controller.RandomSimGenerator</title>
<polygon fill="white" stroke="none" points="-4,4 -4,-150 352,-150 352,4 -4,4"/>
<!-- Node1 -->
<g id="node1" class="node"><title>Node1</title>
<polygon fill="#bfbfbf" stroke="black" points="125.5,-0.5 125.5,-19.5 296.5,-19.5 296.5,-0.5 125.5,-0.5"/>
<text text-anchor="middle" x="211" y="-7.5" font-family="Helvetica,sans-Serif" font-size="10.00">controller.RandomSimGenerator</text>
</g>
<!-- Node2 -->
<g id="node2" class="node"><title>Node2</title>
<g id="a_node2"><a xlink:href="../../d8/dd8/classcontroller_1_1_sim_generator.html" target="_top" xlink:title="controller.SimGenerator">
<polygon fill="white" stroke="black" points="145.5,-58.5 145.5,-77.5 276.5,-77.5 276.5,-58.5 145.5,-58.5"/>
<text text-anchor="middle" x="211" y="-65.5" font-family="Helvetica,sans-Serif" font-size="10.00">controller.SimGenerator</text>
</a>
</g>
</g>
<!-- Node2&#45;&gt;Node1 -->
<g id="edge1" class="edge"><title>Node2&#45;&gt;Node1</title>
<path fill="none" stroke="midnightblue" d="M211,-47.953C211,-38.2875 211,-27.0312 211,-19.5052"/>
<polygon fill="midnightblue" stroke="midnightblue" points="207.5,-48.25 211,-58.25 214.5,-48.25 207.5,-48.25"/>
</g>
<!-- Node3 -->
<g id="node3" class="node"><title>Node3</title>
<polygon fill="white" stroke="#bfbfbf" points="-0.5,-126.5 -0.5,-145.5 146.5,-145.5 146.5,-126.5 -0.5,-126.5"/>
<text text-anchor="middle" x="73" y="-133.5" font-family="Helvetica,sans-Serif" font-size="10.00">HashMap&lt; String, String &gt;</text>
</g>
<!-- Node3&#45;&gt;Node2 -->
<g id="edge2" class="edge"><title>Node3&#45;&gt;Node2</title>
<path fill="none" stroke="#9a32cd" stroke-dasharray="5,2" d="M92.7563,-120.41C104.124,-112.47 118.909,-102.89 133,-96 148.19,-88.5718 165.949,-82.255 180.682,-77.6032"/>
<polygon fill="#9a32cd" stroke="#9a32cd" points="90.5528,-117.683 84.4508,-126.344 94.6222,-123.379 90.5528,-117.683"/>
<text text-anchor="middle" x="170" y="-99.5" font-family="Helvetica,sans-Serif" font-size="10.00"> myParameters</text>
</g>
<!-- Node4 -->
<g id="node4" class="node"><title>Node4</title>
<polygon fill="white" stroke="#bfbfbf" points="164.5,-126.5 164.5,-145.5 257.5,-145.5 257.5,-126.5 164.5,-126.5"/>
<text text-anchor="middle" x="211" y="-133.5" font-family="Helvetica,sans-Serif" font-size="10.00">ResourceBundle</text>
</g>
<!-- Node4&#45;&gt;Node2 -->
<g id="edge3" class="edge"><title>Node4&#45;&gt;Node2</title>
<path fill="none" stroke="#9a32cd" stroke-dasharray="5,2" d="M211,-116.041C211,-103.472 211,-87.5631 211,-77.8411"/>
<polygon fill="#9a32cd" stroke="#9a32cd" points="207.5,-116.372 211,-126.372 214.5,-116.372 207.5,-116.372"/>
<text text-anchor="middle" x="244.5" y="-99.5" font-family="Helvetica,sans-Serif" font-size="10.00"> myProperties</text>
</g>
<!-- Node5 -->
<g id="node5" class="node"><title>Node5</title>
<polygon fill="white" stroke="#bfbfbf" points="275,-126.5 275,-145.5 331,-145.5 331,-126.5 275,-126.5"/>
<text text-anchor="middle" x="303" y="-133.5" font-family="Helvetica,sans-Serif" font-size="10.00">Random</text>
</g>
<!-- Node5&#45;&gt;Node2 -->
<g id="edge4" class="edge"><title>Node5&#45;&gt;Node2</title>
<path fill="none" stroke="#9a32cd" stroke-dasharray="5,2" d="M296.141,-117.143C292.566,-109.778 287.551,-101.661 281,-96 271.342,-87.6536 258.82,-81.7407 247.042,-77.6213"/>
<polygon fill="#9a32cd" stroke="#9a32cd" points="292.965,-118.616 300.134,-126.417 299.395,-115.848 292.965,-118.616"/>
<text text-anchor="middle" x="319" y="-99.5" font-family="Helvetica,sans-Serif" font-size="10.00"> myRandom</text>
</g>
</g>
</svg>
