<?xml version="1.0" encoding="UTF-8" standalone="no"?>
<!DOCTYPE svg PUBLIC "-//W3C//DTD SVG 1.1//EN"
 "http://www.w3.org/Graphics/SVG/1.1/DTD/svg11.dtd">
<!-- Generated by graphviz version 2.36.0 (20140111.2315)
 -->
<!-- Title: controller.RandomSimGenerator Pages: 1 -->
<svg width="356pt" height="96pt"
 viewBox="0.00 0.00 356.00 96.00" xmlns="http://www.w3.org/2000/svg" xmlns:xlink="http://www.w3.org/1999/xlink">
<g id="graph0" class="graph" transform="scale(1 1) rotate(0) translate(4 92)">
<title>controller.RandomSimGenerator</title>
<polygon fill="white" stroke="none" points="-4,4 -4,-92 352,-92 352,4 -4,4"/>
<!-- Node1 -->
<g id="node1" class="node"><title>Node1</title>
<polygon fill="#bfbfbf" stroke="black" points="125.5,-0.5 125.5,-19.5 296.5,-19.5 296.5,-0.5 125.5,-0.5"/>
<text text-anchor="middle" x="211" y="-7.5" font-family="Helvetica,sans-Serif" font-size="10.00">controller.RandomSimGenerator</text>
</g>
<!-- Node2 -->
<g id="node2" class="node"><title>Node2</title>
<polygon fill="white" stroke="#bfbfbf" points="-0.5,-68.5 -0.5,-87.5 146.5,-87.5 146.5,-68.5 -0.5,-68.5"/>
<text text-anchor="middle" x="73" y="-75.5" font-family="Helvetica,sans-Serif" font-size="10.00">HashMap&lt; String, String &gt;</text>
</g>
<!-- Node2&#45;&gt;Node1 -->
<g id="edge1" class="edge"><title>Node2&#45;&gt;Node1</title>
<path fill="none" stroke="#9a32cd" stroke-dasharray="5,2" d="M92.7563,-62.4101C104.124,-54.4697 118.909,-44.8903 133,-38 148.19,-30.5718 165.949,-24.255 180.682,-19.6032"/>
<polygon fill="#9a32cd" stroke="#9a32cd" points="90.5528,-59.6829 84.4508,-68.3441 94.6222,-65.3786 90.5528,-59.6829"/>
<text text-anchor="middle" x="170" y="-41.5" font-family="Helvetica,sans-Serif" font-size="10.00"> myParameters</text>
</g>
<!-- Node3 -->
<g id="node3" class="node"><title>Node3</title>
<polygon fill="white" stroke="#bfbfbf" points="164.5,-68.5 164.5,-87.5 257.5,-87.5 257.5,-68.5 164.5,-68.5"/>
<text text-anchor="middle" x="211" y="-75.5" font-family="Helvetica,sans-Serif" font-size="10.00">ResourceBundle</text>
</g>
<!-- Node3&#45;&gt;Node1 -->
<g id="edge2" class="edge"><title>Node3&#45;&gt;Node1</title>
<path fill="none" stroke="#9a32cd" stroke-dasharray="5,2" d="M211,-58.0413C211,-45.4724 211,-29.5631 211,-19.8411"/>
<polygon fill="#9a32cd" stroke="#9a32cd" points="207.5,-58.3716 211,-68.3717 214.5,-58.3717 207.5,-58.3716"/>
<text text-anchor="middle" x="244.5" y="-41.5" font-family="Helvetica,sans-Serif" font-size="10.00"> myProperties</text>
</g>
<!-- Node4 -->
<g id="node4" class="node"><title>Node4</title>
<polygon fill="white" stroke="#bfbfbf" points="275,-68.5 275,-87.5 331,-87.5 331,-68.5 275,-68.5"/>
<text text-anchor="middle" x="303" y="-75.5" font-family="Helvetica,sans-Serif" font-size="10.00">Random</text>
</g>
<!-- Node4&#45;&gt;Node1 -->
<g id="edge3" class="edge"><title>Node4&#45;&gt;Node1</title>
<path fill="none" stroke="#9a32cd" stroke-dasharray="5,2" d="M296.141,-59.1426C292.566,-51.7781 287.551,-43.6611 281,-38 271.342,-29.6536 258.82,-23.7407 247.042,-19.6213"/>
<polygon fill="#9a32cd" stroke="#9a32cd" points="292.965,-60.6162 300.134,-68.4174 299.395,-57.8484 292.965,-60.6162"/>
<text text-anchor="middle" x="319" y="-41.5" font-family="Helvetica,sans-Serif" font-size="10.00"> myRandom</text>
</g>
</g>
</svg>
