<?xml version="1.0" encoding="UTF-8" standalone="no"?>
<!DOCTYPE svg PUBLIC "-//W3C//DTD SVG 1.1//EN"
 "http://www.w3.org/Graphics/SVG/1.1/DTD/svg11.dtd">
<!-- Generated by graphviz version 2.36.0 (20140111.2315)
 -->
<!-- Title: view.ShapeGrid.addShape Pages: 1 -->
<svg width="706pt" height="38pt"
 viewBox="0.00 0.00 706.00 38.00" xmlns="http://www.w3.org/2000/svg" xmlns:xlink="http://www.w3.org/1999/xlink">
<g id="graph0" class="graph" transform="scale(1 1) rotate(0) translate(4 34)">
<title>view.ShapeGrid.addShape</title>
<polygon fill="white" stroke="none" points="-4,4 -4,-34 702,-34 702,4 -4,4"/>
<!-- Node1 -->
<g id="node1" class="node"><title>Node1</title>
<polygon fill="#bfbfbf" stroke="black" points="0.5,-5.5 0.5,-24.5 141.5,-24.5 141.5,-5.5 0.5,-5.5"/>
<text text-anchor="middle" x="71" y="-12.5" font-family="Helvetica,sans-Serif" font-size="10.00">view.ShapeGrid.addShape</text>
</g>
<!-- Node2 -->
<g id="node2" class="node"><title>Node2</title>
<g id="a_node2"><a xlink:href="../../d7/d7e/classview_1_1_shape_grid.html#ab80b31ff193c7351c2643fbf026e32b6" target="_top" xlink:title="view.ShapeGrid.createGrid">
<polygon fill="white" stroke="black" points="178.5,-5.5 178.5,-24.5 321.5,-24.5 321.5,-5.5 178.5,-5.5"/>
<text text-anchor="middle" x="250" y="-12.5" font-family="Helvetica,sans-Serif" font-size="10.00">view.ShapeGrid.createGrid</text>
</a>
</g>
</g>
<!-- Node1&#45;&gt;Node2 -->
<g id="edge1" class="edge"><title>Node1&#45;&gt;Node2</title>
<path fill="none" stroke="midnightblue" d="M151.711,-15C160.64,-15 169.69,-15 178.491,-15"/>
<polygon fill="midnightblue" stroke="midnightblue" points="151.701,-11.5001 141.701,-15 151.701,-18.5001 151.701,-11.5001"/>
</g>
<!-- Node3 -->
<g id="node3" class="node"><title>Node3</title>
<g id="a_node3"><a xlink:href="../../d1/d3e/classview_1_1_simulation_screen.html#a434336066f5798c69f3a1464a32e53e8" target="_top" xlink:title="view.SimulationScreen.init\lSimView">
<polygon fill="white" stroke="black" points="358.5,-0 358.5,-30 499.5,-30 499.5,-0 358.5,-0"/>
<text text-anchor="start" x="366.5" y="-18" font-family="Helvetica,sans-Serif" font-size="10.00">view.SimulationScreen.init</text>
<text text-anchor="middle" x="429" y="-7" font-family="Helvetica,sans-Serif" font-size="10.00">SimView</text>
</a>
</g>
</g>
<!-- Node2&#45;&gt;Node3 -->
<g id="edge2" class="edge"><title>Node2&#45;&gt;Node3</title>
<path fill="none" stroke="midnightblue" d="M331.962,-15C340.744,-15 349.627,-15 358.26,-15"/>
<polygon fill="midnightblue" stroke="midnightblue" points="331.718,-11.5001 321.718,-15 331.718,-18.5001 331.718,-11.5001"/>
</g>
<!-- Node4 -->
<g id="node4" class="node"><title>Node4</title>
<g id="a_node4"><a xlink:href="../../d0/d56/classmodel_1_1simulations_1_1_simulation.html#a49dab3d977f4447d538534885be2b64f" target="_top" xlink:title="model.simulations.Simulation.\lSimulation">
<polygon fill="white" stroke="black" points="536.5,-0 536.5,-30 697.5,-30 697.5,-0 536.5,-0"/>
<text text-anchor="start" x="544.5" y="-18" font-family="Helvetica,sans-Serif" font-size="10.00">model.simulations.Simulation.</text>
<text text-anchor="middle" x="617" y="-7" font-family="Helvetica,sans-Serif" font-size="10.00">Simulation</text>
</a>
</g>
</g>
<!-- Node3&#45;&gt;Node4 -->
<g id="edge3" class="edge"><title>Node3&#45;&gt;Node4</title>
<path fill="none" stroke="midnightblue" d="M509.736,-15C518.514,-15 527.453,-15 536.232,-15"/>
<polygon fill="midnightblue" stroke="midnightblue" points="509.524,-11.5001 499.524,-15 509.524,-18.5001 509.524,-11.5001"/>
</g>
</g>
</svg>
