<?xml version="1.0" encoding="UTF-8" standalone="no"?>
<!DOCTYPE svg PUBLIC "-//W3C//DTD SVG 1.1//EN"
 "http://www.w3.org/Graphics/SVG/1.1/DTD/svg11.dtd">
<!-- Generated by graphviz version 2.36.0 (20140111.2315)
 -->
<!-- Title: model.simulations.Simulation.fillPatchGrid Pages: 1 -->
<svg width="426pt" height="262pt"
 viewBox="0.00 0.00 426.00 262.00" xmlns="http://www.w3.org/2000/svg" xmlns:xlink="http://www.w3.org/1999/xlink">
<g id="graph0" class="graph" transform="scale(1 1) rotate(0) translate(4 258)">
<title>model.simulations.Simulation.fillPatchGrid</title>
<polygon fill="white" stroke="none" points="-4,4 -4,-258 422,-258 422,4 -4,4"/>
<!-- Node1 -->
<g id="node1" class="node"><title>Node1</title>
<polygon fill="#bfbfbf" stroke="black" points="0.5,-101 0.5,-131 171.5,-131 171.5,-101 0.5,-101"/>
<text text-anchor="start" x="8.5" y="-119" font-family="Helvetica,sans-Serif" font-size="10.00">model.simulations.Simulation.fill</text>
<text text-anchor="middle" x="86" y="-108" font-family="Helvetica,sans-Serif" font-size="10.00">PatchGrid</text>
</g>
<!-- Node2 -->
<g id="node2" class="node"><title>Node2</title>
<g id="a_node2"><a xlink:href="../../dc/de1/classmodel_1_1neighbors_1_1_neighbors.html#a14355f2b301023f431ca95bb34242d20" target="_top" xlink:title="model.neighbors.Neighbors.get\lAllNeighbors">
<polygon fill="white" stroke="black" points="229.5,-224 229.5,-254 396.5,-254 396.5,-224 229.5,-224"/>
<text text-anchor="start" x="237.5" y="-242" font-family="Helvetica,sans-Serif" font-size="10.00">model.neighbors.Neighbors.get</text>
<text text-anchor="middle" x="313" y="-231" font-family="Helvetica,sans-Serif" font-size="10.00">AllNeighbors</text>
</a>
</g>
</g>
<!-- Node1&#45;&gt;Node2 -->
<g id="edge1" class="edge"><title>Node1&#45;&gt;Node2</title>
<path fill="none" stroke="midnightblue" d="M101.123,-131.091C122.27,-152.767 164.363,-192.471 208,-214 212.892,-216.414 218.031,-218.602 223.295,-220.586"/>
<polygon fill="midnightblue" stroke="midnightblue" points="222.285,-223.941 232.88,-223.94 224.597,-217.334 222.285,-223.941"/>
</g>
<!-- Node3 -->
<g id="node3" class="node"><title>Node3</title>
<g id="a_node3"><a xlink:href="../../dc/de1/classmodel_1_1neighbors_1_1_neighbors.html#acab56f17299f27d7d9bb5732cdc15cc1" target="_top" xlink:title="model.neighbors.Neighbors.get\lCardinalNeighbors">
<polygon fill="white" stroke="black" points="229.5,-175 229.5,-205 396.5,-205 396.5,-175 229.5,-175"/>
<text text-anchor="start" x="237.5" y="-193" font-family="Helvetica,sans-Serif" font-size="10.00">model.neighbors.Neighbors.get</text>
<text text-anchor="middle" x="313" y="-182" font-family="Helvetica,sans-Serif" font-size="10.00">CardinalNeighbors</text>
</a>
</g>
</g>
<!-- Node1&#45;&gt;Node3 -->
<g id="edge2" class="edge"><title>Node1&#45;&gt;Node3</title>
<path fill="none" stroke="midnightblue" d="M120.406,-131.096C144.431,-141.564 177.786,-155.31 208,-165 216.158,-167.616 224.754,-170.102 233.364,-172.418"/>
<polygon fill="midnightblue" stroke="midnightblue" points="232.509,-175.812 243.069,-174.96 234.282,-169.041 232.509,-175.812"/>
</g>
<!-- Node4 -->
<g id="node4" class="node"><title>Node4</title>
<g id="a_node4"><a xlink:href="../../dc/de1/classmodel_1_1neighbors_1_1_neighbors.html#aef10db6206f614935759989d84d86067" target="_top" xlink:title="model.neighbors.Neighbors.get\lDiagonalNeighbors">
<polygon fill="white" stroke="black" points="229.5,-126 229.5,-156 396.5,-156 396.5,-126 229.5,-126"/>
<text text-anchor="start" x="237.5" y="-144" font-family="Helvetica,sans-Serif" font-size="10.00">model.neighbors.Neighbors.get</text>
<text text-anchor="middle" x="313" y="-133" font-family="Helvetica,sans-Serif" font-size="10.00">DiagonalNeighbors</text>
</a>
</g>
</g>
<!-- Node1&#45;&gt;Node4 -->
<g id="edge3" class="edge"><title>Node1&#45;&gt;Node4</title>
<path fill="none" stroke="midnightblue" d="M171.742,-125.416C187.173,-127.13 203.346,-128.927 219,-130.667"/>
<polygon fill="midnightblue" stroke="midnightblue" points="218.873,-134.174 229.199,-131.8 219.646,-127.217 218.873,-134.174"/>
</g>
<!-- Node5 -->
<g id="node5" class="node"><title>Node5</title>
<g id="a_node5"><a xlink:href="../../df/dd1/classmodel_1_1simulations_1_1_patch_factory.html#a2d533d449a97a6f55312952a9b9bfb8c" target="_top" xlink:title="model.simulations.PatchFactory.get\lPatch">
<polygon fill="white" stroke="black" points="220.5,-77 220.5,-107 405.5,-107 405.5,-77 220.5,-77"/>
<text text-anchor="start" x="228.5" y="-95" font-family="Helvetica,sans-Serif" font-size="10.00">model.simulations.PatchFactory.get</text>
<text text-anchor="middle" x="313" y="-84" font-family="Helvetica,sans-Serif" font-size="10.00">Patch</text>
</a>
</g>
</g>
<!-- Node1&#45;&gt;Node5 -->
<g id="edge4" class="edge"><title>Node1&#45;&gt;Node5</title>
<path fill="none" stroke="midnightblue" d="M171.742,-106.961C184.226,-105.629 197.195,-104.246 209.983,-102.882"/>
<polygon fill="midnightblue" stroke="midnightblue" points="210.614,-106.334 220.187,-101.793 209.872,-99.3739 210.614,-106.334"/>
</g>
<!-- Node6 -->
<g id="node6" class="node"><title>Node6</title>
<g id="a_node6"><a xlink:href="../../d0/d56/classmodel_1_1simulations_1_1_simulation.html#adf3cab27b491f0bf0503b583dbad5b5f" target="_top" xlink:title="model.simulations.Simulation.patchType">
<polygon fill="white" stroke="black" points="208.5,-38.5 208.5,-57.5 417.5,-57.5 417.5,-38.5 208.5,-38.5"/>
<text text-anchor="middle" x="313" y="-45.5" font-family="Helvetica,sans-Serif" font-size="10.00">model.simulations.Simulation.patchType</text>
</a>
</g>
</g>
<!-- Node1&#45;&gt;Node6 -->
<g id="edge5" class="edge"><title>Node1&#45;&gt;Node6</title>
<path fill="none" stroke="midnightblue" d="M120.052,-100.934C144.048,-90.4813 177.518,-76.8914 208,-68 218.921,-64.8143 230.639,-62.0001 242.13,-59.5641"/>
<polygon fill="midnightblue" stroke="midnightblue" points="243.045,-62.9495 252.144,-57.5208 241.646,-56.0908 243.045,-62.9495"/>
</g>
<!-- Node7 -->
<g id="node7" class="node"><title>Node7</title>
<g id="a_node7"><a xlink:href="../../db/d90/classmodel_1_1patches_1_1_patch.html#a0da84bb6065ba7d49e31c0dab414cb33" target="_top" xlink:title="model.patches.Patch.setNeighbors">
<polygon fill="white" stroke="black" points="221,-0.5 221,-19.5 405,-19.5 405,-0.5 221,-0.5"/>
<text text-anchor="middle" x="313" y="-7.5" font-family="Helvetica,sans-Serif" font-size="10.00">model.patches.Patch.setNeighbors</text>
</a>
</g>
</g>
<!-- Node1&#45;&gt;Node7 -->
<g id="edge6" class="edge"><title>Node1&#45;&gt;Node7</title>
<path fill="none" stroke="midnightblue" d="M103.161,-100.703C125.089,-80.8667 166.332,-46.717 208,-29 214.185,-26.3702 220.728,-24.104 227.401,-22.1511"/>
<polygon fill="midnightblue" stroke="midnightblue" points="228.493,-25.482 237.243,-19.5083 226.678,-18.7214 228.493,-25.482"/>
</g>
</g>
</svg>
