<?xml version="1.0" encoding="UTF-8" standalone="no"?>
<!DOCTYPE svg PUBLIC "-//W3C//DTD SVG 1.1//EN"
 "http://www.w3.org/Graphics/SVG/1.1/DTD/svg11.dtd">
<!-- Generated by graphviz version 2.36.0 (20140111.2315)
 -->
<!-- Title: model.simulations.Simulation.patchType Pages: 1 -->
<svg width="624pt" height="38pt"
 viewBox="0.00 0.00 624.00 38.00" xmlns="http://www.w3.org/2000/svg" xmlns:xlink="http://www.w3.org/1999/xlink">
<g id="graph0" class="graph" transform="scale(1 1) rotate(0) translate(4 34)">
<title>model.simulations.Simulation.patchType</title>
<polygon fill="white" stroke="none" points="-4,4 -4,-34 620,-34 620,4 -4,4"/>
<!-- Node1 -->
<g id="node1" class="node"><title>Node1</title>
<polygon fill="#bfbfbf" stroke="black" points="0.5,-5.5 0.5,-24.5 209.5,-24.5 209.5,-5.5 0.5,-5.5"/>
<text text-anchor="middle" x="105" y="-12.5" font-family="Helvetica,sans-Serif" font-size="10.00">model.simulations.Simulation.patchType</text>
</g>
<!-- Node2 -->
<g id="node2" class="node"><title>Node2</title>
<g id="a_node2"><a xlink:href="../../d0/d56/classmodel_1_1simulations_1_1_simulation.html#a89e0806fb8a9fa6d20e913a159ba2345" target="_top" xlink:title="model.simulations.Simulation.fill\lPatchGrid">
<polygon fill="white" stroke="black" points="246.5,-0 246.5,-30 417.5,-30 417.5,-0 246.5,-0"/>
<text text-anchor="start" x="254.5" y="-18" font-family="Helvetica,sans-Serif" font-size="10.00">model.simulations.Simulation.fill</text>
<text text-anchor="middle" x="332" y="-7" font-family="Helvetica,sans-Serif" font-size="10.00">PatchGrid</text>
</a>
</g>
</g>
<!-- Node1&#45;&gt;Node2 -->
<g id="edge1" class="edge"><title>Node1&#45;&gt;Node2</title>
<path fill="none" stroke="midnightblue" d="M219.753,-15C228.744,-15 237.724,-15 246.464,-15"/>
<polygon fill="midnightblue" stroke="midnightblue" points="219.609,-11.5001 209.609,-15 219.609,-18.5001 219.609,-11.5001"/>
</g>
<!-- Node3 -->
<g id="node3" class="node"><title>Node3</title>
<g id="a_node3"><a xlink:href="../../d0/d56/classmodel_1_1simulations_1_1_simulation.html#a49dab3d977f4447d538534885be2b64f" target="_top" xlink:title="model.simulations.Simulation.\lSimulation">
<polygon fill="white" stroke="black" points="454.5,-0 454.5,-30 615.5,-30 615.5,-0 454.5,-0"/>
<text text-anchor="start" x="462.5" y="-18" font-family="Helvetica,sans-Serif" font-size="10.00">model.simulations.Simulation.</text>
<text text-anchor="middle" x="535" y="-7" font-family="Helvetica,sans-Serif" font-size="10.00">Simulation</text>
</a>
</g>
</g>
<!-- Node2&#45;&gt;Node3 -->
<g id="edge2" class="edge"><title>Node2&#45;&gt;Node3</title>
<path fill="none" stroke="midnightblue" d="M427.661,-15C436.555,-15 445.51,-15 454.247,-15"/>
<polygon fill="midnightblue" stroke="midnightblue" points="427.66,-11.5001 417.66,-15 427.66,-18.5001 427.66,-11.5001"/>
</g>
</g>
</svg>
