<?xml version="1.0" encoding="UTF-8" standalone="no"?>
<!DOCTYPE svg PUBLIC "-//W3C//DTD SVG 1.1//EN"
 "http://www.w3.org/Graphics/SVG/1.1/DTD/svg11.dtd">
<!-- Generated by graphviz version 2.36.0 (20140111.2315)
 -->
<!-- Title: model.simulations.Simulation.updateGrid Pages: 1 -->
<svg width="1340pt" height="125pt"
 viewBox="0.00 0.00 1340.00 125.00" xmlns="http://www.w3.org/2000/svg" xmlns:xlink="http://www.w3.org/1999/xlink">
<g id="graph0" class="graph" transform="scale(1 1) rotate(0) translate(4 121)">
<title>model.simulations.Simulation.updateGrid</title>
<polygon fill="white" stroke="none" points="-4,4 -4,-121 1336,-121 1336,4 -4,4"/>
<!-- Node1 -->
<g id="node1" class="node"><title>Node1</title>
<polygon fill="#bfbfbf" stroke="black" points="0.5,-29.5 0.5,-48.5 215.5,-48.5 215.5,-29.5 0.5,-29.5"/>
<text text-anchor="middle" x="108" y="-36.5" font-family="Helvetica,sans-Serif" font-size="10.00">model.simulations.Simulation.updateGrid</text>
</g>
<!-- Node2 -->
<g id="node2" class="node"><title>Node2</title>
<g id="a_node2"><a xlink:href="../../d6/d7b/classcontroller_1_1_cell_society_controller.html#a7ce2131c45f721057c3275b01d6cb119" target="_top" xlink:title="controller.CellSocietyController.update">
<polygon fill="white" stroke="black" points="252.5,-29.5 252.5,-48.5 451.5,-48.5 451.5,-29.5 252.5,-29.5"/>
<text text-anchor="middle" x="352" y="-36.5" font-family="Helvetica,sans-Serif" font-size="10.00">controller.CellSocietyController.update</text>
</a>
</g>
</g>
<!-- Node1&#45;&gt;Node2 -->
<g id="edge1" class="edge"><title>Node1&#45;&gt;Node2</title>
<path fill="none" stroke="midnightblue" d="M225.853,-39C234.735,-39 243.646,-39 252.395,-39"/>
<polygon fill="midnightblue" stroke="midnightblue" points="225.849,-35.5001 215.849,-39 225.849,-42.5001 225.849,-35.5001"/>
</g>
<!-- Node3 -->
<g id="node3" class="node"><title>Node3</title>
<g id="a_node3"><a xlink:href="../../d6/d7b/classcontroller_1_1_cell_society_controller.html#a2c91c70640d8de017cd11a225f1e4764" target="_top" xlink:title="controller.CellSocietyController.get\lKeyFrame">
<polygon fill="white" stroke="black" points="488.5,-24 488.5,-54 669.5,-54 669.5,-24 488.5,-24"/>
<text text-anchor="start" x="496.5" y="-42" font-family="Helvetica,sans-Serif" font-size="10.00">controller.CellSocietyController.get</text>
<text text-anchor="middle" x="579" y="-31" font-family="Helvetica,sans-Serif" font-size="10.00">KeyFrame</text>
</a>
</g>
</g>
<!-- Node2&#45;&gt;Node3 -->
<g id="edge2" class="edge"><title>Node2&#45;&gt;Node3</title>
<path fill="none" stroke="midnightblue" d="M461.702,-39C470.594,-39 479.517,-39 488.249,-39"/>
<polygon fill="midnightblue" stroke="midnightblue" points="461.688,-35.5001 451.688,-39 461.688,-42.5001 461.688,-35.5001"/>
</g>
<!-- Node4 -->
<g id="node4" class="node"><title>Node4</title>
<g id="a_node4"><a xlink:href="../../d6/d7b/classcontroller_1_1_cell_society_controller.html#a6eb10259241f3932f29dcc2947477ac9" target="_top" xlink:title="controller.CellSocietyController.change\lSimulationSpeed">
<polygon fill="white" stroke="black" points="709,-49 709,-79 909,-79 909,-49 709,-49"/>
<text text-anchor="start" x="717" y="-67" font-family="Helvetica,sans-Serif" font-size="10.00">controller.CellSocietyController.change</text>
<text text-anchor="middle" x="809" y="-56" font-family="Helvetica,sans-Serif" font-size="10.00">SimulationSpeed</text>
</a>
</g>
</g>
<!-- Node3&#45;&gt;Node4 -->
<g id="edge3" class="edge"><title>Node3&#45;&gt;Node4</title>
<path fill="none" stroke="midnightblue" d="M679.785,-49.9414C689.442,-51.0002 699.237,-52.0742 708.886,-53.1323"/>
<polygon fill="midnightblue" stroke="midnightblue" points="680.106,-46.4557 669.784,-48.8448 679.343,-53.414 680.106,-46.4557"/>
</g>
<!-- Node8 -->
<g id="node8" class="node"><title>Node8</title>
<g id="a_node8"><a xlink:href="../../d6/d7b/classcontroller_1_1_cell_society_controller.html#ad1a5392e3462b9b781ef440951024055" target="_top" xlink:title="controller.CellSocietyController.manage\lTimeline">
<polygon fill="white" stroke="black" points="706.5,-0 706.5,-30 911.5,-30 911.5,-0 706.5,-0"/>
<text text-anchor="start" x="714.5" y="-18" font-family="Helvetica,sans-Serif" font-size="10.00">controller.CellSocietyController.manage</text>
<text text-anchor="middle" x="809" y="-7" font-family="Helvetica,sans-Serif" font-size="10.00">Timeline</text>
</a>
</g>
</g>
<!-- Node3&#45;&gt;Node8 -->
<g id="edge8" class="edge"><title>Node3&#45;&gt;Node8</title>
<path fill="none" stroke="midnightblue" d="M679.954,-28.4785C688.672,-27.5609 697.5,-26.6316 706.232,-25.7124"/>
<polygon fill="midnightblue" stroke="midnightblue" points="679.363,-25.0213 669.784,-29.549 680.096,-31.9828 679.363,-25.0213"/>
</g>
<!-- Node5 -->
<g id="node5" class="node"><title>Node5</title>
<g id="a_node5"><a xlink:href="../../d3/d48/classview_1_1_top_menu.html#a78433064a3b87ac12b25e253a8461563" target="_top" xlink:title="view.TopMenu.addSlowDown\lButton">
<polygon fill="white" stroke="black" points="963,-87 963,-117 1113,-117 1113,-87 963,-87"/>
<text text-anchor="start" x="971" y="-105" font-family="Helvetica,sans-Serif" font-size="10.00">view.TopMenu.addSlowDown</text>
<text text-anchor="middle" x="1038" y="-94" font-family="Helvetica,sans-Serif" font-size="10.00">Button</text>
</a>
</g>
</g>
<!-- Node4&#45;&gt;Node5 -->
<g id="edge4" class="edge"><title>Node4&#45;&gt;Node5</title>
<path fill="none" stroke="midnightblue" d="M909.605,-80.674C927.512,-83.6716 945.888,-86.7477 962.912,-89.5976"/>
<polygon fill="midnightblue" stroke="midnightblue" points="910.157,-77.2178 899.716,-79.0186 909.001,-84.1217 910.157,-77.2178"/>
</g>
<!-- Node7 -->
<g id="node7" class="node"><title>Node7</title>
<g id="a_node7"><a xlink:href="../../d3/d48/classview_1_1_top_menu.html#ae076a17bf4d52296bcc188a9bf23d57d" target="_top" xlink:title="view.TopMenu.addSpeedUpButton">
<polygon fill="white" stroke="black" points="948.5,-48.5 948.5,-67.5 1127.5,-67.5 1127.5,-48.5 948.5,-48.5"/>
<text text-anchor="middle" x="1038" y="-55.5" font-family="Helvetica,sans-Serif" font-size="10.00">view.TopMenu.addSpeedUpButton</text>
</a>
</g>
</g>
<!-- Node4&#45;&gt;Node7 -->
<g id="edge6" class="edge"><title>Node4&#45;&gt;Node7</title>
<path fill="none" stroke="midnightblue" d="M919.332,-61.1102C929.046,-60.8534 938.8,-60.5956 948.311,-60.3442"/>
<polygon fill="midnightblue" stroke="midnightblue" points="919.139,-57.6139 909.235,-61.377 919.324,-64.6115 919.139,-57.6139"/>
</g>
<!-- Node6 -->
<g id="node6" class="node"><title>Node6</title>
<g id="a_node6"><a xlink:href="../../d3/d48/classview_1_1_top_menu.html#a4442589b1733d6ad662c92700f27018e" target="_top" xlink:title="view.TopMenu.createTopButtons">
<polygon fill="white" stroke="black" points="1164,-70.5 1164,-89.5 1332,-89.5 1332,-70.5 1164,-70.5"/>
<text text-anchor="middle" x="1248" y="-77.5" font-family="Helvetica,sans-Serif" font-size="10.00">view.TopMenu.createTopButtons</text>
</a>
</g>
</g>
<!-- Node5&#45;&gt;Node6 -->
<g id="edge5" class="edge"><title>Node5&#45;&gt;Node6</title>
<path fill="none" stroke="midnightblue" d="M1123.36,-93.0778C1136.75,-91.6605 1150.61,-90.1955 1163.98,-88.7815"/>
<polygon fill="midnightblue" stroke="midnightblue" points="1122.79,-89.6182 1113.21,-94.1507 1123.52,-96.5793 1122.79,-89.6182"/>
</g>
<!-- Node7&#45;&gt;Node6 -->
<g id="edge7" class="edge"><title>Node7&#45;&gt;Node6</title>
<path fill="none" stroke="midnightblue" d="M1137.73,-68.443C1146.47,-69.3674 1155.26,-70.297 1163.85,-71.2057"/>
<polygon fill="midnightblue" stroke="midnightblue" points="1137.83,-64.9332 1127.51,-67.3619 1137.09,-71.8944 1137.83,-64.9332"/>
</g>
<!-- Node9 -->
<g id="node9" class="node"><title>Node9</title>
<g id="a_node9"><a xlink:href="../../d2/dbb/classcontroller_1_1_main.html#a2afd534b3ce4f00386c3e5e00b360b40" target="_top" xlink:title="controller.Main.start">
<polygon fill="white" stroke="black" points="982,-5.5 982,-24.5 1094,-24.5 1094,-5.5 982,-5.5"/>
<text text-anchor="middle" x="1038" y="-12.5" font-family="Helvetica,sans-Serif" font-size="10.00">controller.Main.start</text>
</a>
</g>
</g>
<!-- Node8&#45;&gt;Node9 -->
<g id="edge9" class="edge"><title>Node8&#45;&gt;Node9</title>
<path fill="none" stroke="midnightblue" d="M921.789,-15C942.687,-15 963.662,-15 981.88,-15"/>
<polygon fill="midnightblue" stroke="midnightblue" points="921.549,-11.5001 911.549,-15 921.549,-18.5001 921.549,-11.5001"/>
</g>
</g>
</svg>
