<?xml version="1.0" encoding="UTF-8" standalone="no"?>
<!DOCTYPE svg PUBLIC "-//W3C//DTD SVG 1.1//EN"
 "http://www.w3.org/Graphics/SVG/1.1/DTD/svg11.dtd">
<!-- Generated by graphviz version 2.36.0 (20140111.2315)
 -->
<!-- Title: model.simulations.Simulation.setupGrid Pages: 1 -->
<svg width="1064pt" height="227pt"
 viewBox="0.00 0.00 1064.00 227.00" xmlns="http://www.w3.org/2000/svg" xmlns:xlink="http://www.w3.org/1999/xlink">
<g id="graph0" class="graph" transform="scale(1 1) rotate(0) translate(4 223)">
<title>model.simulations.Simulation.setupGrid</title>
<polygon fill="white" stroke="none" points="-4,4 -4,-223 1060,-223 1060,4 -4,4"/>
<!-- Node1 -->
<g id="node1" class="node"><title>Node1</title>
<polygon fill="#bfbfbf" stroke="black" points="0,-131.5 0,-150.5 208,-150.5 208,-131.5 0,-131.5"/>
<text text-anchor="middle" x="104" y="-138.5" font-family="Helvetica,sans-Serif" font-size="10.00">model.simulations.Simulation.setupGrid</text>
</g>
<!-- Node2 -->
<g id="node2" class="node"><title>Node2</title>
<g id="a_node2"><a xlink:href="../../dc/d86/classmodel_1_1simulations_1_1_abstract_cell_factory.html#a24c7c98a1c5f44497c5abb0e9d1437a6" target="_top" xlink:title="model.simulations.Abstract\lCellFactory.getCell">
<polygon fill="white" stroke="black" points="268,-189 268,-219 416,-219 416,-189 268,-189"/>
<text text-anchor="start" x="276" y="-207" font-family="Helvetica,sans-Serif" font-size="10.00">model.simulations.Abstract</text>
<text text-anchor="middle" x="342" y="-196" font-family="Helvetica,sans-Serif" font-size="10.00">CellFactory.getCell</text>
</a>
</g>
</g>
<!-- Node1&#45;&gt;Node2 -->
<g id="edge1" class="edge"><title>Node1&#45;&gt;Node2</title>
<path fill="none" stroke="midnightblue" d="M139.236,-150.509C167.348,-158.282 208.214,-169.497 244,-179 253.107,-181.418 262.703,-183.933 272.175,-186.394"/>
<polygon fill="midnightblue" stroke="midnightblue" points="271.416,-189.813 281.974,-188.934 273.172,-183.037 271.416,-189.813"/>
</g>
<!-- Node3 -->
<g id="node3" class="node"><title>Node3</title>
<g id="a_node3"><a xlink:href="../../db/d90/classmodel_1_1patches_1_1_patch.html#ac89c81c8beb110fab65724ab24f2a1dd" target="_top" xlink:title="model.patches.Patch.setCell">
<polygon fill="white" stroke="black" points="266,-150.5 266,-169.5 418,-169.5 418,-150.5 266,-150.5"/>
<text text-anchor="middle" x="342" y="-157.5" font-family="Helvetica,sans-Serif" font-size="10.00">model.patches.Patch.setCell</text>
</a>
</g>
</g>
<!-- Node1&#45;&gt;Node3 -->
<g id="edge2" class="edge"><title>Node1&#45;&gt;Node3</title>
<path fill="none" stroke="midnightblue" d="M208.17,-149.306C224.042,-150.584 240.278,-151.891 255.704,-153.133"/>
<polygon fill="midnightblue" stroke="midnightblue" points="255.464,-156.625 265.712,-153.939 256.025,-149.647 255.464,-156.625"/>
</g>
<!-- Node4 -->
<g id="node4" class="node"><title>Node4</title>
<g id="a_node4"><a xlink:href="../../dc/d41/classmodel_1_1cells_1_1_cell.html#a7496d6597c0751355acde1694c61ea8e" target="_top" xlink:title="model.cells.Cell.setPatch">
<polygon fill="white" stroke="black" points="274.5,-112.5 274.5,-131.5 409.5,-131.5 409.5,-112.5 274.5,-112.5"/>
<text text-anchor="middle" x="342" y="-119.5" font-family="Helvetica,sans-Serif" font-size="10.00">model.cells.Cell.setPatch</text>
</a>
</g>
</g>
<!-- Node1&#45;&gt;Node4 -->
<g id="edge3" class="edge"><title>Node1&#45;&gt;Node4</title>
<path fill="none" stroke="midnightblue" d="M208.17,-132.694C227.024,-131.176 246.391,-129.617 264.305,-128.175"/>
<polygon fill="midnightblue" stroke="midnightblue" points="264.695,-131.655 274.382,-127.363 264.133,-124.677 264.695,-131.655"/>
</g>
<!-- Node5 -->
<g id="node5" class="node"><title>Node5</title>
<g id="a_node5"><a xlink:href="../../d0/d56/classmodel_1_1simulations_1_1_simulation.html#a6efb6657ce3c803a99ccd41d8b8a2057" target="_top" xlink:title="model.simulations.Simulation.update\lColorGrid">
<polygon fill="white" stroke="black" points="244.5,-63 244.5,-93 439.5,-93 439.5,-63 244.5,-63"/>
<text text-anchor="start" x="252.5" y="-81" font-family="Helvetica,sans-Serif" font-size="10.00">model.simulations.Simulation.update</text>
<text text-anchor="middle" x="342" y="-70" font-family="Helvetica,sans-Serif" font-size="10.00">ColorGrid</text>
</a>
</g>
</g>
<!-- Node1&#45;&gt;Node5 -->
<g id="edge4" class="edge"><title>Node1&#45;&gt;Node5</title>
<path fill="none" stroke="midnightblue" d="M139.236,-131.491C167.348,-123.718 208.214,-112.503 244,-103 253.107,-100.582 262.703,-98.0674 272.175,-95.6059"/>
<polygon fill="midnightblue" stroke="midnightblue" points="273.172,-98.9631 281.974,-93.066 271.416,-92.187 273.172,-98.9631"/>
</g>
<!-- Node6 -->
<g id="node6" class="node"><title>Node6</title>
<g id="a_node6"><a xlink:href="../../db/d90/classmodel_1_1patches_1_1_patch.html#a7ba5fbc8b51be9d83051c94820bf1083" target="_top" xlink:title="model.patches.Patch.getCell">
<polygon fill="white" stroke="black" points="480.5,-125.5 480.5,-144.5 633.5,-144.5 633.5,-125.5 480.5,-125.5"/>
<text text-anchor="middle" x="557" y="-132.5" font-family="Helvetica,sans-Serif" font-size="10.00">model.patches.Patch.getCell</text>
</a>
</g>
</g>
<!-- Node5&#45;&gt;Node6 -->
<g id="edge5" class="edge"><title>Node5&#45;&gt;Node6</title>
<path fill="none" stroke="midnightblue" d="M404.822,-93.0023C416.56,-96.1133 428.7,-99.5122 440,-103 456.255,-108.017 459.698,-111.138 476,-116 484.349,-118.49 493.264,-120.873 502.001,-123.058"/>
<polygon fill="midnightblue" stroke="midnightblue" points="501.204,-126.466 511.749,-125.436 502.863,-119.666 501.204,-126.466"/>
</g>
<!-- Node7 -->
<g id="node7" class="node"><title>Node7</title>
<g id="a_node7"><a xlink:href="../../dc/d41/classmodel_1_1cells_1_1_cell.html#ac50f3513c91c8934182ceb7fa8b192fb" target="_top" xlink:title="model.cells.Cell.getColor">
<polygon fill="white" stroke="black" points="490,-87.5 490,-106.5 624,-106.5 624,-87.5 490,-87.5"/>
<text text-anchor="middle" x="557" y="-94.5" font-family="Helvetica,sans-Serif" font-size="10.00">model.cells.Cell.getColor</text>
</a>
</g>
</g>
<!-- Node5&#45;&gt;Node7 -->
<g id="edge6" class="edge"><title>Node5&#45;&gt;Node7</title>
<path fill="none" stroke="midnightblue" d="M439.529,-86.6105C452.991,-87.8114 466.668,-89.0314 479.688,-90.1929"/>
<polygon fill="midnightblue" stroke="midnightblue" points="479.702,-93.7079 489.973,-91.1103 480.324,-86.7356 479.702,-93.7079"/>
</g>
<!-- Node8 -->
<g id="node8" class="node"><title>Node8</title>
<g id="a_node8"><a xlink:href="../../db/d90/classmodel_1_1patches_1_1_patch.html#af3d92d81282dcb3654b500c8fbebef06" target="_top" xlink:title="model.patches.Patch.getColor">
<polygon fill="white" stroke="black" points="476.5,-49.5 476.5,-68.5 637.5,-68.5 637.5,-49.5 476.5,-49.5"/>
<text text-anchor="middle" x="557" y="-56.5" font-family="Helvetica,sans-Serif" font-size="10.00">model.patches.Patch.getColor</text>
</a>
</g>
</g>
<!-- Node5&#45;&gt;Node8 -->
<g id="edge7" class="edge"><title>Node5&#45;&gt;Node8</title>
<path fill="none" stroke="midnightblue" d="M439.529,-69.3895C448.389,-68.5991 457.343,-67.8004 466.142,-67.0155"/>
<polygon fill="midnightblue" stroke="midnightblue" points="466.734,-70.4767 476.384,-66.1019 466.112,-63.5043 466.734,-70.4767"/>
</g>
<!-- Node9 -->
<g id="node9" class="node"><title>Node9</title>
<g id="a_node9"><a xlink:href="../../d1/d3e/classview_1_1_simulation_screen.html#a56d778b3e5756edd732a027e4d96a431" target="_top" xlink:title="view.SimulationScreen.update\lScreen">
<polygon fill="white" stroke="black" points="476.5,-0 476.5,-30 637.5,-30 637.5,-0 476.5,-0"/>
<text text-anchor="start" x="484.5" y="-18" font-family="Helvetica,sans-Serif" font-size="10.00">view.SimulationScreen.update</text>
<text text-anchor="middle" x="557" y="-7" font-family="Helvetica,sans-Serif" font-size="10.00">Screen</text>
</a>
</g>
</g>
<!-- Node5&#45;&gt;Node9 -->
<g id="edge8" class="edge"><title>Node5&#45;&gt;Node9</title>
<path fill="none" stroke="midnightblue" d="M393.748,-62.99C424.303,-53.9527 463.384,-42.3936 495.534,-32.8844"/>
<polygon fill="midnightblue" stroke="midnightblue" points="496.675,-36.1967 505.272,-30.0041 494.69,-29.4842 496.675,-36.1967"/>
</g>
<!-- Node10 -->
<g id="node10" class="node"><title>Node10</title>
<g id="a_node10"><a xlink:href="../../d1/d3e/classview_1_1_simulation_screen.html#ac818b7465bc624b25a3aba98df571bdb" target="_top" xlink:title="view.SimulationScreen.updateData">
<polygon fill="white" stroke="black" points="674,-5.5 674,-24.5 858,-24.5 858,-5.5 674,-5.5"/>
<text text-anchor="middle" x="766" y="-12.5" font-family="Helvetica,sans-Serif" font-size="10.00">view.SimulationScreen.updateData</text>
</a>
</g>
</g>
<!-- Node9&#45;&gt;Node10 -->
<g id="edge9" class="edge"><title>Node9&#45;&gt;Node10</title>
<path fill="none" stroke="midnightblue" d="M637.736,-15C646.249,-15 654.989,-15 663.708,-15"/>
<polygon fill="midnightblue" stroke="midnightblue" points="663.92,-18.5001 673.92,-15 663.92,-11.5001 663.92,-18.5001"/>
</g>
<!-- Node11 -->
<g id="node11" class="node"><title>Node11</title>
<g id="a_node11"><a xlink:href="../../d1/d3e/classview_1_1_simulation_screen.html#a903be669ef69338f95301aa617218a14" target="_top" xlink:title="view.SimulationScreen.update\lMapArrayList">
<polygon fill="white" stroke="black" points="894.5,-0 894.5,-30 1055.5,-30 1055.5,-0 894.5,-0"/>
<text text-anchor="start" x="902.5" y="-18" font-family="Helvetica,sans-Serif" font-size="10.00">view.SimulationScreen.update</text>
<text text-anchor="middle" x="975" y="-7" font-family="Helvetica,sans-Serif" font-size="10.00">MapArrayList</text>
</a>
</g>
</g>
<!-- Node10&#45;&gt;Node11 -->
<g id="edge10" class="edge"><title>Node10&#45;&gt;Node11</title>
<path fill="none" stroke="midnightblue" d="M858.094,-15C866.748,-15 875.519,-15 884.161,-15"/>
<polygon fill="midnightblue" stroke="midnightblue" points="884.232,-18.5001 894.232,-15 884.232,-11.5001 884.232,-18.5001"/>
</g>
</g>
</svg>
