<?xml version="1.0" encoding="UTF-8" standalone="no"?>
<!DOCTYPE svg PUBLIC "-//W3C//DTD SVG 1.1//EN"
 "http://www.w3.org/Graphics/SVG/1.1/DTD/svg11.dtd">
<!-- Generated by graphviz version 2.36.0 (20140111.2315)
 -->
<!-- Title: model.simulations.Simulation.updateNeighbors Pages: 1 -->
<svg width="630pt" height="66pt"
 viewBox="0.00 0.00 630.00 66.00" xmlns="http://www.w3.org/2000/svg" xmlns:xlink="http://www.w3.org/1999/xlink">
<g id="graph0" class="graph" transform="scale(1 1) rotate(0) translate(4 62)">
<title>model.simulations.Simulation.updateNeighbors</title>
<polygon fill="white" stroke="none" points="-4,4 -4,-62 626,-62 626,4 -4,4"/>
<!-- Node1 -->
<g id="node1" class="node"><title>Node1</title>
<polygon fill="#bfbfbf" stroke="black" points="0.5,-14 0.5,-44 195.5,-44 195.5,-14 0.5,-14"/>
<text text-anchor="start" x="8.5" y="-32" font-family="Helvetica,sans-Serif" font-size="10.00">model.simulations.Simulation.update</text>
<text text-anchor="middle" x="98" y="-21" font-family="Helvetica,sans-Serif" font-size="10.00">Neighbors</text>
</g>
<!-- Node2 -->
<g id="node2" class="node"><title>Node2</title>
<g id="a_node2"><a xlink:href="../../d0/d56/classmodel_1_1simulations_1_1_simulation.html#ac71a6bcbcb42c8759d1e6a6aacafc802" target="_top" xlink:title="model.simulations.Simulation.update\lNeighborSquare">
<polygon fill="white" stroke="black" points="232.5,-14 232.5,-44 427.5,-44 427.5,-14 232.5,-14"/>
<text text-anchor="start" x="240.5" y="-32" font-family="Helvetica,sans-Serif" font-size="10.00">model.simulations.Simulation.update</text>
<text text-anchor="middle" x="330" y="-21" font-family="Helvetica,sans-Serif" font-size="10.00">NeighborSquare</text>
</a>
</g>
</g>
<!-- Node1&#45;&gt;Node2 -->
<g id="edge1" class="edge"><title>Node1&#45;&gt;Node2</title>
<path fill="none" stroke="midnightblue" d="M195.541,-29C204.384,-29 213.376,-29 222.301,-29"/>
<polygon fill="midnightblue" stroke="midnightblue" points="222.337,-32.5001 232.337,-29 222.337,-25.5001 222.337,-32.5001"/>
</g>
<!-- Node3 -->
<g id="node3" class="node"><title>Node3</title>
<g id="a_node3"><a xlink:href="../../db/d90/classmodel_1_1patches_1_1_patch.html#a7ba5fbc8b51be9d83051c94820bf1083" target="_top" xlink:title="model.patches.Patch.getCell">
<polygon fill="white" stroke="black" points="466.5,-38.5 466.5,-57.5 619.5,-57.5 619.5,-38.5 466.5,-38.5"/>
<text text-anchor="middle" x="543" y="-45.5" font-family="Helvetica,sans-Serif" font-size="10.00">model.patches.Patch.getCell</text>
</a>
</g>
</g>
<!-- Node2&#45;&gt;Node3 -->
<g id="edge2" class="edge"><title>Node2&#45;&gt;Node3</title>
<path fill="none" stroke="midnightblue" d="M427.546,-37.6937C437.109,-38.5548 446.771,-39.4248 456.214,-40.2752"/>
<polygon fill="midnightblue" stroke="midnightblue" points="456.086,-43.7777 466.36,-41.1888 456.714,-36.806 456.086,-43.7777"/>
</g>
<!-- Node4 -->
<g id="node4" class="node"><title>Node4</title>
<g id="a_node4"><a xlink:href="../../dc/d41/classmodel_1_1cells_1_1_cell.html#a6d3a4c932aa68c9364b241effbb2ed50" target="_top" xlink:title="model.cells.Cell.setNeighbors">
<polygon fill="white" stroke="black" points="464,-0.5 464,-19.5 622,-19.5 622,-0.5 464,-0.5"/>
<text text-anchor="middle" x="543" y="-7.5" font-family="Helvetica,sans-Serif" font-size="10.00">model.cells.Cell.setNeighbors</text>
</a>
</g>
</g>
<!-- Node2&#45;&gt;Node4 -->
<g id="edge3" class="edge"><title>Node2&#45;&gt;Node4</title>
<path fill="none" stroke="midnightblue" d="M427.546,-20.3063C436.282,-19.5197 445.099,-18.7256 453.758,-17.946"/>
<polygon fill="midnightblue" stroke="midnightblue" points="454.188,-21.4215 463.834,-17.0386 453.561,-14.4497 454.188,-21.4215"/>
</g>
</g>
</svg>
