<?xml version="1.0" encoding="UTF-8" standalone="no"?>
<!DOCTYPE svg PUBLIC "-//W3C//DTD SVG 1.1//EN"
 "http://www.w3.org/Graphics/SVG/1.1/DTD/svg11.dtd">
<!-- Generated by graphviz version 2.36.0 (20140111.2315)
 -->
<!-- Title: model.simulations.Simulation.Simulation Pages: 1 -->
<!--zoomable 542 -->
<svg id="main" version="1.1" xmlns="http://www.w3.org/2000/svg" xmlns:xlink="http://www.w3.org/1999/xlink" xml:space="preserve" onload="init(evt)">
<style type="text/css"><![CDATA[
.edge:hover path { stroke: red; }
.edge:hover polygon { stroke: red; fill: red; }
]]></style>
<script type="text/javascript"><![CDATA[
var edges = document.getElementsByTagName('g');
if (edges && edges.length) {
  for (var i=0;i<edges.length;i++) {
    if (edges[i].id.substr(0,4)=='edge') {
      edges[i].setAttribute('class','edge');
    }
  }
}
]]></script>
        <defs>
                <circle id="rim" cx="0" cy="0" r="7"/>
                <circle id="rim2" cx="0" cy="0" r="3.5"/>
                <g id="zoomPlus">
                        <use xlink:href="#rim" fill="#404040">
                                <set attributeName="fill" to="#808080" begin="zoomplus.mouseover" end="zoomplus.mouseout"/>
                        </use>
                        <path d="M-4,0h8M0,-4v8" fill="none" stroke="white" stroke-width="1.5" pointer-events="none"/>
                </g>
                <g id="zoomMin">
                        <use xlink:href="#rim" fill="#404040">
                                <set attributeName="fill" to="#808080" begin="zoomminus.mouseover" end="zoomminus.mouseout"/>
                        </use>
                        <path d="M-4,0h8" fill="none" stroke="white" stroke-width="1.5" pointer-events="none"/>
                </g>
                <g id="dirArrow">
                        <path fill="none" stroke="white" stroke-width="1.5" d="M0,-3.0v7 M-2.5,-0.5L0,-3.0L2.5,-0.5"/>
                </g>
               <g id="resetDef">
                       <use xlink:href="#rim2" fill="#404040">
                               <set attributeName="fill" to="#808080" begin="reset.mouseover" end="reset.mouseout"/>
                       </use>
               </g>
        </defs>

<script type="text/javascript">
var viewWidth = 1278;
var viewHeight = 542;
var sectionId = 'dynsection-2';
</script>
<script xlink:href="../../svgpan.js"/>
<svg id="graph" class="graph">
<g id="viewport">
<title>model.simulations.Simulation.Simulation</title>
<polygon fill="white" stroke="none" points="-4,4 -4,-538 1274,-538 1274,4 -4,4"/>
<!-- Node1 -->
<g id="node1" class="node"><title>Node1</title>
<polygon fill="#bfbfbf" stroke="black" points="0.5,-214 0.5,-244 161.5,-244 161.5,-214 0.5,-214"/>
<text text-anchor="start" x="8.5" y="-232" font-family="Helvetica,sans-Serif" font-size="10.00">model.simulations.Simulation.</text>
<text text-anchor="middle" x="81" y="-221" font-family="Helvetica,sans-Serif" font-size="10.00">Simulation</text>
</g>
<!-- Node2 -->
<g id="node2" class="node"><title>Node2</title>
<g id="a_node2"><a xlink:href="../../d0/d56/classmodel_1_1simulations_1_1_simulation.html#a89e0806fb8a9fa6d20e913a159ba2345" target="_top" xlink:title="model.simulations.Simulation.fill\lPatchGrid">
<polygon fill="white" stroke="black" points="217.5,-378 217.5,-408 388.5,-408 388.5,-378 217.5,-378"/>
<text text-anchor="start" x="225.5" y="-396" font-family="Helvetica,sans-Serif" font-size="10.00">model.simulations.Simulation.fill</text>
<text text-anchor="middle" x="303" y="-385" font-family="Helvetica,sans-Serif" font-size="10.00">PatchGrid</text>
</a>
</g>
</g>
<!-- Node1&#45;&gt;Node2 -->
<g id="edge1" class="edge"><title>Node1&#45;&gt;Node2</title>
<path fill="none" stroke="midnightblue" d="M93.7895,-244.041C113.313,-268.154 154.538,-315.813 198,-346 213.928,-357.063 232.878,-366.537 250.212,-374.019"/>
<polygon fill="midnightblue" stroke="midnightblue" points="249.07,-377.335 259.646,-377.969 251.773,-370.879 249.07,-377.335"/>
</g>
<!-- Node9 -->
<g id="node9" class="node"><title>Node9</title>
<g id="a_node9"><a xlink:href="../../d0/d56/classmodel_1_1simulations_1_1_simulation.html#a2d21430c373d2383e27e5bca8ea33696" target="_top" xlink:title="model.simulations.Simulation.get\lCellFactory">
<polygon fill="white" stroke="black" points="214.5,-307 214.5,-337 391.5,-337 391.5,-307 214.5,-307"/>
<text text-anchor="start" x="222.5" y="-325" font-family="Helvetica,sans-Serif" font-size="10.00">model.simulations.Simulation.get</text>
<text text-anchor="middle" x="303" y="-314" font-family="Helvetica,sans-Serif" font-size="10.00">CellFactory</text>
</a>
</g>
</g>
<!-- Node1&#45;&gt;Node9 -->
<g id="edge8" class="edge"><title>Node1&#45;&gt;Node9</title>
<path fill="none" stroke="midnightblue" d="M103.246,-244.055C125.788,-259.389 162.923,-282.865 198,-297 204.307,-299.542 210.937,-301.867 217.67,-303.987"/>
<polygon fill="midnightblue" stroke="midnightblue" points="216.997,-307.439 227.581,-306.947 219.001,-300.732 216.997,-307.439"/>
</g>
<!-- Node10 -->
<g id="node10" class="node"><title>Node10</title>
<g id="a_node10"><a xlink:href="../../d1/d3e/classview_1_1_simulation_screen.html#a434336066f5798c69f3a1464a32e53e8" target="_top" xlink:title="view.SimulationScreen.init\lSimView">
<polygon fill="white" stroke="black" points="232.5,-258 232.5,-288 373.5,-288 373.5,-258 232.5,-258"/>
<text text-anchor="start" x="240.5" y="-276" font-family="Helvetica,sans-Serif" font-size="10.00">view.SimulationScreen.init</text>
<text text-anchor="middle" x="303" y="-265" font-family="Helvetica,sans-Serif" font-size="10.00">SimView</text>
</a>
</g>
</g>
<!-- Node1&#45;&gt;Node10 -->
<g id="edge9" class="edge"><title>Node1&#45;&gt;Node10</title>
<path fill="none" stroke="midnightblue" d="M157.096,-244.019C178.158,-248.232 201.125,-252.825 222.437,-257.087"/>
<polygon fill="midnightblue" stroke="midnightblue" points="221.931,-260.556 232.424,-259.085 223.304,-253.691 221.931,-260.556"/>
</g>
<!-- Node13 -->
<g id="node13" class="node"><title>Node13</title>
<g id="a_node13"><a xlink:href="../../d0/d56/classmodel_1_1simulations_1_1_simulation.html#a5ffd90a5123611f5c72278e84d595a83" target="_top" xlink:title="model.simulations.Simulation.parseMap">
<polygon fill="white" stroke="black" points="198.5,-219.5 198.5,-238.5 407.5,-238.5 407.5,-219.5 198.5,-219.5"/>
<text text-anchor="middle" x="303" y="-226.5" font-family="Helvetica,sans-Serif" font-size="10.00">model.simulations.Simulation.parseMap</text>
</a>
</g>
</g>
<!-- Node1&#45;&gt;Node13 -->
<g id="edge12" class="edge"><title>Node1&#45;&gt;Node13</title>
<path fill="none" stroke="midnightblue" d="M161.736,-229C170.403,-229 179.341,-229 188.312,-229"/>
<polygon fill="midnightblue" stroke="midnightblue" points="188.441,-232.5 198.441,-229 188.441,-225.5 188.441,-232.5"/>
</g>
<!-- Node14 -->
<g id="node14" class="node"><title>Node14</title>
<g id="a_node14"><a xlink:href="../../d0/d56/classmodel_1_1simulations_1_1_simulation.html#ace93280a0916a4bf933fd709bc61754f" target="_top" xlink:title="model.simulations.Simulation.parse\lStyleMap">
<polygon fill="white" stroke="black" points="209,-170 209,-200 397,-200 397,-170 209,-170"/>
<text text-anchor="start" x="217" y="-188" font-family="Helvetica,sans-Serif" font-size="10.00">model.simulations.Simulation.parse</text>
<text text-anchor="middle" x="303" y="-177" font-family="Helvetica,sans-Serif" font-size="10.00">StyleMap</text>
</a>
</g>
</g>
<!-- Node1&#45;&gt;Node14 -->
<g id="edge13" class="edge"><title>Node1&#45;&gt;Node14</title>
<path fill="none" stroke="midnightblue" d="M157.096,-213.981C176.37,-210.126 197.239,-205.952 216.976,-202.005"/>
<polygon fill="midnightblue" stroke="midnightblue" points="217.75,-205.419 226.869,-200.026 216.377,-198.555 217.75,-205.419"/>
</g>
<!-- Node15 -->
<g id="node15" class="node"><title>Node15</title>
<g id="a_node15"><a xlink:href="../../d0/d56/classmodel_1_1simulations_1_1_simulation.html#ad6b0af21d9f0a4d2bd0fc2ce13d40ab5" target="_top" xlink:title="model.simulations.Simulation.setupGrid">
<polygon fill="white" stroke="black" points="199,-131.5 199,-150.5 407,-150.5 407,-131.5 199,-131.5"/>
<text text-anchor="middle" x="303" y="-138.5" font-family="Helvetica,sans-Serif" font-size="10.00">model.simulations.Simulation.setupGrid</text>
</a>
</g>
</g>
<!-- Node1&#45;&gt;Node15 -->
<g id="edge14" class="edge"><title>Node1&#45;&gt;Node15</title>
<path fill="none" stroke="midnightblue" d="M102.234,-213.897C124.53,-198.013 162.016,-173.489 198,-160 205.251,-157.282 212.936,-154.944 220.715,-152.934"/>
<polygon fill="midnightblue" stroke="midnightblue" points="221.689,-156.3 230.595,-150.56 220.054,-149.494 221.689,-156.3"/>
</g>
<!-- Node26 -->
<g id="node26" class="node"><title>Node26</title>
<g id="a_node26"><a xlink:href="../../d0/d56/classmodel_1_1simulations_1_1_simulation.html#a376fad357b5c89f92d158ae2f8131028" target="_top" xlink:title="model.simulations.Simulation.setup\lParameterControl">
<polygon fill="white" stroke="black" points="209,-82 209,-112 397,-112 397,-82 209,-82"/>
<text text-anchor="start" x="217" y="-100" font-family="Helvetica,sans-Serif" font-size="10.00">model.simulations.Simulation.setup</text>
<text text-anchor="middle" x="303" y="-89" font-family="Helvetica,sans-Serif" font-size="10.00">ParameterControl</text>
</a>
</g>
</g>
<!-- Node1&#45;&gt;Node26 -->
<g id="edge25" class="edge"><title>Node1&#45;&gt;Node26</title>
<path fill="none" stroke="midnightblue" d="M94.1289,-213.622C113.5,-190.147 153.773,-145.618 198,-122 202.328,-119.689 206.871,-117.588 211.537,-115.68"/>
<polygon fill="midnightblue" stroke="midnightblue" points="213.132,-118.82 221.261,-112.026 210.669,-112.267 213.132,-118.82"/>
</g>
<!-- Node3 -->
<g id="node3" class="node"><title>Node3</title>
<g id="a_node3"><a xlink:href="../../df/dd1/classmodel_1_1simulations_1_1_patch_factory.html#a2d533d449a97a6f55312952a9b9bfb8c" target="_top" xlink:title="model.simulations.PatchFactory.get\lPatch">
<polygon fill="white" stroke="black" points="456.5,-504 456.5,-534 641.5,-534 641.5,-504 456.5,-504"/>
<text text-anchor="start" x="464.5" y="-522" font-family="Helvetica,sans-Serif" font-size="10.00">model.simulations.PatchFactory.get</text>
<text text-anchor="middle" x="549" y="-511" font-family="Helvetica,sans-Serif" font-size="10.00">Patch</text>
</a>
</g>
</g>
<!-- Node2&#45;&gt;Node3 -->
<g id="edge2" class="edge"><title>Node2&#45;&gt;Node3</title>
<path fill="none" stroke="midnightblue" d="M320.314,-408.099C345.129,-430.248 394.702,-471.365 444,-494 449.352,-496.457 454.973,-498.689 460.716,-500.714"/>
<polygon fill="midnightblue" stroke="midnightblue" points="459.875,-504.122 470.468,-503.93 462.067,-497.474 459.875,-504.122"/>
</g>
<!-- Node4 -->
<g id="node4" class="node"><title>Node4</title>
<g id="a_node4"><a xlink:href="../../d0/d56/classmodel_1_1simulations_1_1_simulation.html#adf3cab27b491f0bf0503b583dbad5b5f" target="_top" xlink:title="model.simulations.Simulation.patchType">
<polygon fill="white" stroke="black" points="444.5,-465.5 444.5,-484.5 653.5,-484.5 653.5,-465.5 444.5,-465.5"/>
<text text-anchor="middle" x="549" y="-472.5" font-family="Helvetica,sans-Serif" font-size="10.00">model.simulations.Simulation.patchType</text>
</a>
</g>
</g>
<!-- Node2&#45;&gt;Node4 -->
<g id="edge3" class="edge"><title>Node2&#45;&gt;Node4</title>
<path fill="none" stroke="midnightblue" d="M332.164,-408.126C359.886,-422.419 403.791,-443.484 444,-456 453.04,-458.814 462.659,-461.265 472.257,-463.386"/>
<polygon fill="midnightblue" stroke="midnightblue" points="471.721,-466.85 482.226,-465.477 473.158,-459.999 471.721,-466.85"/>
</g>
<!-- Node5 -->
<g id="node5" class="node"><title>Node5</title>
<g id="a_node5"><a xlink:href="../../db/d90/classmodel_1_1patches_1_1_patch.html#a0da84bb6065ba7d49e31c0dab414cb33" target="_top" xlink:title="model.patches.Patch.setNeighbors">
<polygon fill="white" stroke="black" points="457,-427.5 457,-446.5 641,-446.5 641,-427.5 457,-427.5"/>
<text text-anchor="middle" x="549" y="-434.5" font-family="Helvetica,sans-Serif" font-size="10.00">model.patches.Patch.setNeighbors</text>
</a>
</g>
</g>
<!-- Node2&#45;&gt;Node5 -->
<g id="edge4" class="edge"><title>Node2&#45;&gt;Node5</title>
<path fill="none" stroke="midnightblue" d="M387.289,-408.019C419.414,-413.812 455.534,-420.326 485.382,-425.708"/>
<polygon fill="midnightblue" stroke="midnightblue" points="484.787,-429.157 495.249,-427.488 486.029,-422.268 484.787,-429.157"/>
</g>
<!-- Node6 -->
<g id="node6" class="node"><title>Node6</title>
<g id="a_node6"><a xlink:href="../../dc/de1/classmodel_1_1neighbors_1_1_neighbors.html#a14355f2b301023f431ca95bb34242d20" target="_top" xlink:title="model.neighbors.Neighbors.get\lAllNeighbors">
<polygon fill="white" stroke="black" points="465.5,-378 465.5,-408 632.5,-408 632.5,-378 465.5,-378"/>
<text text-anchor="start" x="473.5" y="-396" font-family="Helvetica,sans-Serif" font-size="10.00">model.neighbors.Neighbors.get</text>
<text text-anchor="middle" x="549" y="-385" font-family="Helvetica,sans-Serif" font-size="10.00">AllNeighbors</text>
</a>
</g>
</g>
<!-- Node2&#45;&gt;Node6 -->
<g id="edge5" class="edge"><title>Node2&#45;&gt;Node6</title>
<path fill="none" stroke="midnightblue" d="M388.655,-393C410.043,-393 433.126,-393 454.905,-393"/>
<polygon fill="midnightblue" stroke="midnightblue" points="455.143,-396.5 465.143,-393 455.143,-389.5 455.143,-396.5"/>
</g>
<!-- Node7 -->
<g id="node7" class="node"><title>Node7</title>
<g id="a_node7"><a xlink:href="../../dc/de1/classmodel_1_1neighbors_1_1_neighbors.html#acab56f17299f27d7d9bb5732cdc15cc1" target="_top" xlink:title="model.neighbors.Neighbors.get\lCardinalNeighbors">
<polygon fill="white" stroke="black" points="465.5,-329 465.5,-359 632.5,-359 632.5,-329 465.5,-329"/>
<text text-anchor="start" x="473.5" y="-347" font-family="Helvetica,sans-Serif" font-size="10.00">model.neighbors.Neighbors.get</text>
<text text-anchor="middle" x="549" y="-336" font-family="Helvetica,sans-Serif" font-size="10.00">CardinalNeighbors</text>
</a>
</g>
</g>
<!-- Node2&#45;&gt;Node7 -->
<g id="edge6" class="edge"><title>Node2&#45;&gt;Node7</title>
<path fill="none" stroke="midnightblue" d="M378.866,-377.965C405.566,-372.604 435.825,-366.527 463.293,-361.011"/>
<polygon fill="midnightblue" stroke="midnightblue" points="464.16,-364.407 473.275,-359.006 462.782,-357.544 464.16,-364.407"/>
</g>
<!-- Node8 -->
<g id="node8" class="node"><title>Node8</title>
<g id="a_node8"><a xlink:href="../../dc/de1/classmodel_1_1neighbors_1_1_neighbors.html#aef10db6206f614935759989d84d86067" target="_top" xlink:title="model.neighbors.Neighbors.get\lDiagonalNeighbors">
<polygon fill="white" stroke="black" points="465.5,-280 465.5,-310 632.5,-310 632.5,-280 465.5,-280"/>
<text text-anchor="start" x="473.5" y="-298" font-family="Helvetica,sans-Serif" font-size="10.00">model.neighbors.Neighbors.get</text>
<text text-anchor="middle" x="549" y="-287" font-family="Helvetica,sans-Serif" font-size="10.00">DiagonalNeighbors</text>
</a>
</g>
</g>
<!-- Node2&#45;&gt;Node8 -->
<g id="edge7" class="edge"><title>Node2&#45;&gt;Node8</title>
<path fill="none" stroke="midnightblue" d="M342.46,-377.807C362.482,-369.357 387.082,-358.115 408,-346 425.079,-336.108 426.066,-328.24 444,-320 449.351,-317.541 454.972,-315.308 460.714,-313.283"/>
<polygon fill="midnightblue" stroke="midnightblue" points="462.065,-316.522 470.466,-310.066 459.873,-309.875 462.065,-316.522"/>
</g>
<!-- Node11 -->
<g id="node11" class="node"><title>Node11</title>
<g id="a_node11"><a xlink:href="../../d7/d7e/classview_1_1_shape_grid.html#ab80b31ff193c7351c2643fbf026e32b6" target="_top" xlink:title="view.ShapeGrid.createGrid">
<polygon fill="white" stroke="black" points="477.5,-241.5 477.5,-260.5 620.5,-260.5 620.5,-241.5 477.5,-241.5"/>
<text text-anchor="middle" x="549" y="-248.5" font-family="Helvetica,sans-Serif" font-size="10.00">view.ShapeGrid.createGrid</text>
</a>
</g>
</g>
<!-- Node10&#45;&gt;Node11 -->
<g id="edge10" class="edge"><title>Node10&#45;&gt;Node11</title>
<path fill="none" stroke="midnightblue" d="M373.594,-266.725C402.828,-264.089 437.018,-261.007 467.343,-258.272"/>
<polygon fill="midnightblue" stroke="midnightblue" points="467.821,-261.744 477.467,-257.36 467.193,-254.772 467.821,-261.744"/>
</g>
<!-- Node12 -->
<g id="node12" class="node"><title>Node12</title>
<g id="a_node12"><a xlink:href="../../d7/d7e/classview_1_1_shape_grid.html#a805fec014a380bf36e49c545dea327ba" target="_top" xlink:title="view.ShapeGrid.addShape">
<polygon fill="white" stroke="black" points="700.5,-241.5 700.5,-260.5 841.5,-260.5 841.5,-241.5 700.5,-241.5"/>
<text text-anchor="middle" x="771" y="-248.5" font-family="Helvetica,sans-Serif" font-size="10.00">view.ShapeGrid.addShape</text>
</a>
</g>
</g>
<!-- Node11&#45;&gt;Node12 -->
<g id="edge11" class="edge"><title>Node11&#45;&gt;Node12</title>
<path fill="none" stroke="midnightblue" d="M620.517,-251C642.642,-251 667.224,-251 689.958,-251"/>
<polygon fill="midnightblue" stroke="midnightblue" points="690.258,-254.5 700.258,-251 690.258,-247.5 690.258,-254.5"/>
</g>
<!-- Node16 -->
<g id="node16" class="node"><title>Node16</title>
<g id="a_node16"><a xlink:href="../../dc/d86/classmodel_1_1simulations_1_1_abstract_cell_factory.html#a24c7c98a1c5f44497c5abb0e9d1437a6" target="_top" xlink:title="model.simulations.Abstract\lCellFactory.getCell">
<polygon fill="white" stroke="black" points="475,-189 475,-219 623,-219 623,-189 475,-189"/>
<text text-anchor="start" x="483" y="-207" font-family="Helvetica,sans-Serif" font-size="10.00">model.simulations.Abstract</text>
<text text-anchor="middle" x="549" y="-196" font-family="Helvetica,sans-Serif" font-size="10.00">CellFactory.getCell</text>
</a>
</g>
</g>
<!-- Node15&#45;&gt;Node16 -->
<g id="edge15" class="edge"><title>Node15&#45;&gt;Node16</title>
<path fill="none" stroke="midnightblue" d="M373.017,-150.549C384.849,-153.05 396.899,-156.158 408,-160 425.097,-165.917 427.073,-172.614 444,-179 450.809,-181.569 457.97,-183.937 465.216,-186.106"/>
<polygon fill="midnightblue" stroke="midnightblue" points="464.548,-189.555 475.125,-188.939 466.472,-182.825 464.548,-189.555"/>
</g>
<!-- Node17 -->
<g id="node17" class="node"><title>Node17</title>
<g id="a_node17"><a xlink:href="../../db/d90/classmodel_1_1patches_1_1_patch.html#ac89c81c8beb110fab65724ab24f2a1dd" target="_top" xlink:title="model.patches.Patch.setCell">
<polygon fill="white" stroke="black" points="473,-150.5 473,-169.5 625,-169.5 625,-150.5 473,-150.5"/>
<text text-anchor="middle" x="549" y="-157.5" font-family="Helvetica,sans-Serif" font-size="10.00">model.patches.Patch.setCell</text>
</a>
</g>
</g>
<!-- Node15&#45;&gt;Node17 -->
<g id="edge16" class="edge"><title>Node15&#45;&gt;Node17</title>
<path fill="none" stroke="midnightblue" d="M407.124,-149.03C425.694,-150.476 444.862,-151.969 462.85,-153.369"/>
<polygon fill="midnightblue" stroke="midnightblue" points="462.758,-156.873 473,-154.16 463.302,-149.894 462.758,-156.873"/>
</g>
<!-- Node18 -->
<g id="node18" class="node"><title>Node18</title>
<g id="a_node18"><a xlink:href="../../dc/d41/classmodel_1_1cells_1_1_cell.html#a7496d6597c0751355acde1694c61ea8e" target="_top" xlink:title="model.cells.Cell.setPatch">
<polygon fill="white" stroke="black" points="481.5,-112.5 481.5,-131.5 616.5,-131.5 616.5,-112.5 481.5,-112.5"/>
<text text-anchor="middle" x="549" y="-119.5" font-family="Helvetica,sans-Serif" font-size="10.00">model.cells.Cell.setPatch</text>
</a>
</g>
</g>
<!-- Node15&#45;&gt;Node18 -->
<g id="edge17" class="edge"><title>Node15&#45;&gt;Node18</title>
<path fill="none" stroke="midnightblue" d="M407.124,-132.97C428.599,-131.298 450.873,-129.563 471.198,-127.981"/>
<polygon fill="midnightblue" stroke="midnightblue" points="471.621,-131.458 481.319,-127.192 471.077,-124.479 471.621,-131.458"/>
</g>
<!-- Node19 -->
<g id="node19" class="node"><title>Node19</title>
<g id="a_node19"><a xlink:href="../../d0/d56/classmodel_1_1simulations_1_1_simulation.html#a6efb6657ce3c803a99ccd41d8b8a2057" target="_top" xlink:title="model.simulations.Simulation.update\lColorGrid">
<polygon fill="white" stroke="black" points="451.5,-63 451.5,-93 646.5,-93 646.5,-63 451.5,-63"/>
<text text-anchor="start" x="459.5" y="-81" font-family="Helvetica,sans-Serif" font-size="10.00">model.simulations.Simulation.update</text>
<text text-anchor="middle" x="549" y="-70" font-family="Helvetica,sans-Serif" font-size="10.00">ColorGrid</text>
</a>
</g>
</g>
<!-- Node15&#45;&gt;Node19 -->
<g id="edge18" class="edge"><title>Node15&#45;&gt;Node19</title>
<path fill="none" stroke="midnightblue" d="M368.241,-131.5C381.56,-128.739 395.375,-125.279 408,-121 424.942,-115.257 427.195,-109.13 444,-103 451.176,-100.382 458.731,-97.9606 466.357,-95.7392"/>
<polygon fill="midnightblue" stroke="midnightblue" points="467.345,-99.0972 476.033,-93.033 465.46,-92.3559 467.345,-99.0972"/>
</g>
<!-- Node20 -->
<g id="node20" class="node"><title>Node20</title>
<g id="a_node20"><a xlink:href="../../db/d90/classmodel_1_1patches_1_1_patch.html#a7ba5fbc8b51be9d83051c94820bf1083" target="_top" xlink:title="model.patches.Patch.getCell">
<polygon fill="white" stroke="black" points="694.5,-125.5 694.5,-144.5 847.5,-144.5 847.5,-125.5 694.5,-125.5"/>
<text text-anchor="middle" x="771" y="-132.5" font-family="Helvetica,sans-Serif" font-size="10.00">model.patches.Patch.getCell</text>
</a>
</g>
</g>
<!-- Node19&#45;&gt;Node20 -->
<g id="edge19" class="edge"><title>Node19&#45;&gt;Node20</title>
<path fill="none" stroke="midnightblue" d="M617.426,-93.0565C629.661,-96.1147 642.26,-99.481 654,-103 670.295,-107.884 673.698,-111.138 690,-116 698.349,-118.49 707.264,-120.873 716.001,-123.058"/>
<polygon fill="midnightblue" stroke="midnightblue" points="715.204,-126.466 725.749,-125.436 716.863,-119.666 715.204,-126.466"/>
</g>
<!-- Node21 -->
<g id="node21" class="node"><title>Node21</title>
<g id="a_node21"><a xlink:href="../../dc/d41/classmodel_1_1cells_1_1_cell.html#ac50f3513c91c8934182ceb7fa8b192fb" target="_top" xlink:title="model.cells.Cell.getColor">
<polygon fill="white" stroke="black" points="704,-87.5 704,-106.5 838,-106.5 838,-87.5 704,-87.5"/>
<text text-anchor="middle" x="771" y="-94.5" font-family="Helvetica,sans-Serif" font-size="10.00">model.cells.Cell.getColor</text>
</a>
</g>
</g>
<!-- Node19&#45;&gt;Node21 -->
<g id="edge20" class="edge"><title>Node19&#45;&gt;Node21</title>
<path fill="none" stroke="midnightblue" d="M646.815,-86.3613C662.457,-87.7122 678.46,-89.0943 693.534,-90.3961"/>
<polygon fill="midnightblue" stroke="midnightblue" points="693.542,-93.9097 703.806,-91.2832 694.144,-86.9357 693.542,-93.9097"/>
</g>
<!-- Node22 -->
<g id="node22" class="node"><title>Node22</title>
<g id="a_node22"><a xlink:href="../../db/d90/classmodel_1_1patches_1_1_patch.html#af3d92d81282dcb3654b500c8fbebef06" target="_top" xlink:title="model.patches.Patch.getColor">
<polygon fill="white" stroke="black" points="690.5,-49.5 690.5,-68.5 851.5,-68.5 851.5,-49.5 690.5,-49.5"/>
<text text-anchor="middle" x="771" y="-56.5" font-family="Helvetica,sans-Serif" font-size="10.00">model.patches.Patch.getColor</text>
</a>
</g>
</g>
<!-- Node19&#45;&gt;Node22 -->
<g id="edge21" class="edge"><title>Node19&#45;&gt;Node22</title>
<path fill="none" stroke="midnightblue" d="M646.815,-69.6387C657.936,-68.6782 669.24,-67.702 680.262,-66.7501"/>
<polygon fill="midnightblue" stroke="midnightblue" points="680.63,-70.2314 690.292,-65.8839 680.028,-63.2574 680.63,-70.2314"/>
</g>
<!-- Node23 -->
<g id="node23" class="node"><title>Node23</title>
<g id="a_node23"><a xlink:href="../../d1/d3e/classview_1_1_simulation_screen.html#a56d778b3e5756edd732a027e4d96a431" target="_top" xlink:title="view.SimulationScreen.update\lScreen">
<polygon fill="white" stroke="black" points="690.5,-0 690.5,-30 851.5,-30 851.5,-0 690.5,-0"/>
<text text-anchor="start" x="698.5" y="-18" font-family="Helvetica,sans-Serif" font-size="10.00">view.SimulationScreen.update</text>
<text text-anchor="middle" x="771" y="-7" font-family="Helvetica,sans-Serif" font-size="10.00">Screen</text>
</a>
</g>
</g>
<!-- Node19&#45;&gt;Node23 -->
<g id="edge22" class="edge"><title>Node19&#45;&gt;Node23</title>
<path fill="none" stroke="midnightblue" d="M602.416,-62.99C634.111,-53.9138 674.688,-42.2939 707.976,-32.7615"/>
<polygon fill="midnightblue" stroke="midnightblue" points="708.955,-36.1219 717.605,-30.0041 707.028,-29.3924 708.955,-36.1219"/>
</g>
<!-- Node24 -->
<g id="node24" class="node"><title>Node24</title>
<g id="a_node24"><a xlink:href="../../d1/d3e/classview_1_1_simulation_screen.html#ac818b7465bc624b25a3aba98df571bdb" target="_top" xlink:title="view.SimulationScreen.updateData">
<polygon fill="white" stroke="black" points="888,-5.5 888,-24.5 1072,-24.5 1072,-5.5 888,-5.5"/>
<text text-anchor="middle" x="980" y="-12.5" font-family="Helvetica,sans-Serif" font-size="10.00">view.SimulationScreen.updateData</text>
</a>
</g>
</g>
<!-- Node23&#45;&gt;Node24 -->
<g id="edge23" class="edge"><title>Node23&#45;&gt;Node24</title>
<path fill="none" stroke="midnightblue" d="M851.736,-15C860.249,-15 868.989,-15 877.708,-15"/>
<polygon fill="midnightblue" stroke="midnightblue" points="877.92,-18.5001 887.92,-15 877.92,-11.5001 877.92,-18.5001"/>
</g>
<!-- Node25 -->
<g id="node25" class="node"><title>Node25</title>
<g id="a_node25"><a xlink:href="../../d1/d3e/classview_1_1_simulation_screen.html#a903be669ef69338f95301aa617218a14" target="_top" xlink:title="view.SimulationScreen.update\lMapArrayList">
<polygon fill="white" stroke="black" points="1108.5,-0 1108.5,-30 1269.5,-30 1269.5,-0 1108.5,-0"/>
<text text-anchor="start" x="1116.5" y="-18" font-family="Helvetica,sans-Serif" font-size="10.00">view.SimulationScreen.update</text>
<text text-anchor="middle" x="1189" y="-7" font-family="Helvetica,sans-Serif" font-size="10.00">MapArrayList</text>
</a>
</g>
</g>
<!-- Node24&#45;&gt;Node25 -->
<g id="edge24" class="edge"><title>Node24&#45;&gt;Node25</title>
<path fill="none" stroke="midnightblue" d="M1072.09,-15C1080.75,-15 1089.52,-15 1098.16,-15"/>
<polygon fill="midnightblue" stroke="midnightblue" points="1098.23,-18.5001 1108.23,-15 1098.23,-11.5001 1098.23,-18.5001"/>
</g>
</g>
</svg>
        <g id="navigator" transform="translate(0 0)" fill="#404254">
                <rect fill="#f2f5e9" fill-opacity="0.5" stroke="#606060" stroke-width=".5" x="0" y="0" width="60" height="60"/>
                <use id="zoomplus" xlink:href="#zoomPlus" x="17" y="9" onmousedown="handleZoom(evt,'in')"/>
                <use id="zoomminus" xlink:href="#zoomMin" x="42" y="9" onmousedown="handleZoom(evt,'out')"/>
                <use id="reset" xlink:href="#resetDef" x="30" y="36" onmousedown="handleReset()"/>
                <g id="arrowUp" xlink:href="#dirArrow" transform="translate(30 24)" onmousedown="handlePan(0,-1)">
                  <use xlink:href="#rim" fill="#404040">
                        <set attributeName="fill" to="#808080" begin="arrowUp.mouseover" end="arrowUp.mouseout"/>
                  </use>
                  <path fill="none" stroke="white" stroke-width="1.5" d="M0,-3.0v7 M-2.5,-0.5L0,-3.0L2.5,-0.5"/>
                </g>
                <g id="arrowRight" xlink:href="#dirArrow" transform="rotate(90) translate(36 -43)" onmousedown="handlePan(1,0)">
                  <use xlink:href="#rim" fill="#404040">
                        <set attributeName="fill" to="#808080" begin="arrowRight.mouseover" end="arrowRight.mouseout"/>
                  </use>
                  <path fill="none" stroke="white" stroke-width="1.5" d="M0,-3.0v7 M-2.5,-0.5L0,-3.0L2.5,-0.5"/>
                </g>
                <g id="arrowDown" xlink:href="#dirArrow" transform="rotate(180) translate(-30 -48)" onmousedown="handlePan(0,1)">
                  <use xlink:href="#rim" fill="#404040">
                        <set attributeName="fill" to="#808080" begin="arrowDown.mouseover" end="arrowDown.mouseout"/>
                  </use>
                  <path fill="none" stroke="white" stroke-width="1.5" d="M0,-3.0v7 M-2.5,-0.5L0,-3.0L2.5,-0.5"/>
                </g>
                <g id="arrowLeft" xlink:href="#dirArrow" transform="rotate(270) translate(-36 17)" onmousedown="handlePan(-1,0)">
                  <use xlink:href="#rim" fill="#404040">
                        <set attributeName="fill" to="#808080" begin="arrowLeft.mouseover" end="arrowLeft.mouseout"/>
                  </use>
                  <path fill="none" stroke="white" stroke-width="1.5" d="M0,-3.0v7 M-2.5,-0.5L0,-3.0L2.5,-0.5"/>
                </g>
        </g>
        <svg viewBox="0 0 15 15" width="100%" height="30px" preserveAspectRatio="xMaxYMin meet">
         <g id="arrow_out" transform="scale(0.3 0.3)">
          <a xlink:href="classmodel_1_1simulations_1_1_simulation_a49dab3d977f4447d538534885be2b64f_cgraph_org.svg" target="_base">
           <rect id="button" ry="5" rx="5" y="6" x="6" height="38" width="38"
                fill="#f2f5e9" fill-opacity="0.5" stroke="#606060" stroke-width="1.0"/>
           <path id="arrow"
             d="M 11.500037,31.436501 C 11.940474,20.09759 22.043105,11.32322 32.158766,21.979434 L 37.068811,17.246167 C 37.068811,17.246167 37.088388,32 37.088388,32 L 22.160133,31.978069 C 22.160133,31.978069 26.997745,27.140456 26.997745,27.140456 C 18.528582,18.264221 13.291696,25.230495 11.500037,31.436501 z"
             style="fill:#404040;"/>
          </a>
         </g>
        </svg>
</svg>
