<?xml version="1.0" encoding="UTF-8" standalone="no"?>
<!DOCTYPE svg PUBLIC "-//W3C//DTD SVG 1.1//EN"
 "http://www.w3.org/Graphics/SVG/1.1/DTD/svg11.dtd">
<!-- Generated by graphviz version 2.36.0 (20140111.2315)
 -->
<!-- Title: model.simulations.Simulation.updateNeighborSquare Pages: 1 -->
<svg width="398pt" height="66pt"
 viewBox="0.00 0.00 398.00 66.00" xmlns="http://www.w3.org/2000/svg" xmlns:xlink="http://www.w3.org/1999/xlink">
<g id="graph0" class="graph" transform="scale(1 1) rotate(0) translate(4 62)">
<title>model.simulations.Simulation.updateNeighborSquare</title>
<polygon fill="white" stroke="none" points="-4,4 -4,-62 394,-62 394,4 -4,4"/>
<!-- Node1 -->
<g id="node1" class="node"><title>Node1</title>
<polygon fill="#bfbfbf" stroke="black" points="0.5,-14 0.5,-44 195.5,-44 195.5,-14 0.5,-14"/>
<text text-anchor="start" x="8.5" y="-32" font-family="Helvetica,sans-Serif" font-size="10.00">model.simulations.Simulation.update</text>
<text text-anchor="middle" x="98" y="-21" font-family="Helvetica,sans-Serif" font-size="10.00">NeighborSquare</text>
</g>
<!-- Node2 -->
<g id="node2" class="node"><title>Node2</title>
<g id="a_node2"><a xlink:href="../../db/d90/classmodel_1_1patches_1_1_patch.html#a7ba5fbc8b51be9d83051c94820bf1083" target="_top" xlink:title="model.patches.Patch.getCell">
<polygon fill="white" stroke="black" points="234.5,-38.5 234.5,-57.5 387.5,-57.5 387.5,-38.5 234.5,-38.5"/>
<text text-anchor="middle" x="311" y="-45.5" font-family="Helvetica,sans-Serif" font-size="10.00">model.patches.Patch.getCell</text>
</a>
</g>
</g>
<!-- Node1&#45;&gt;Node2 -->
<g id="edge1" class="edge"><title>Node1&#45;&gt;Node2</title>
<path fill="none" stroke="midnightblue" d="M195.546,-37.6937C205.109,-38.5548 214.771,-39.4248 224.214,-40.2752"/>
<polygon fill="midnightblue" stroke="midnightblue" points="224.086,-43.7777 234.36,-41.1888 224.714,-36.806 224.086,-43.7777"/>
</g>
<!-- Node3 -->
<g id="node3" class="node"><title>Node3</title>
<g id="a_node3"><a xlink:href="../../dc/d41/classmodel_1_1cells_1_1_cell.html#a6d3a4c932aa68c9364b241effbb2ed50" target="_top" xlink:title="model.cells.Cell.setNeighbors">
<polygon fill="white" stroke="black" points="232,-0.5 232,-19.5 390,-19.5 390,-0.5 232,-0.5"/>
<text text-anchor="middle" x="311" y="-7.5" font-family="Helvetica,sans-Serif" font-size="10.00">model.cells.Cell.setNeighbors</text>
</a>
</g>
</g>
<!-- Node1&#45;&gt;Node3 -->
<g id="edge2" class="edge"><title>Node1&#45;&gt;Node3</title>
<path fill="none" stroke="midnightblue" d="M195.546,-20.3063C204.282,-19.5197 213.099,-18.7256 221.758,-17.946"/>
<polygon fill="midnightblue" stroke="midnightblue" points="222.188,-21.4215 231.834,-17.0386 221.561,-14.4497 222.188,-21.4215"/>
</g>
</g>
</svg>
