<?xml version="1.0" encoding="UTF-8" standalone="no"?>
<!DOCTYPE svg PUBLIC "-//W3C//DTD SVG 1.1//EN"
 "http://www.w3.org/Graphics/SVG/1.1/DTD/svg11.dtd">
<!-- Generated by graphviz version 2.36.0 (20140111.2315)
 -->
<!-- Title: model.cells.Cell Pages: 1 -->
<svg width="454pt" height="508pt"
 viewBox="0.00 0.00 454.00 508.00" xmlns="http://www.w3.org/2000/svg" xmlns:xlink="http://www.w3.org/1999/xlink">
<g id="graph0" class="graph" transform="scale(1 1) rotate(0) translate(4 504)">
<title>model.cells.Cell</title>
<polygon fill="white" stroke="none" points="-4,4 -4,-504 450,-504 450,4 -4,4"/>
<!-- Node1 -->
<g id="node1" class="node"><title>Node1</title>
<polygon fill="#bfbfbf" stroke="black" points="0.5,-233.5 0.5,-252.5 91.5,-252.5 91.5,-233.5 0.5,-233.5"/>
<text text-anchor="middle" x="46" y="-240.5" font-family="Helvetica,sans-Serif" font-size="10.00">model.cells.Cell</text>
</g>
<!-- Node2 -->
<g id="node2" class="node"><title>Node2</title>
<g id="a_node2"><a xlink:href="../../df/dce/classmodel_1_1cells_1_1_agent_cell.html" target="_top" xlink:title="model.cells.AgentCell">
<polygon fill="white" stroke="black" points="134.5,-423.5 134.5,-442.5 253.5,-442.5 253.5,-423.5 134.5,-423.5"/>
<text text-anchor="middle" x="194" y="-430.5" font-family="Helvetica,sans-Serif" font-size="10.00">model.cells.AgentCell</text>
</a>
</g>
</g>
<!-- Node1&#45;&gt;Node2 -->
<g id="edge1" class="edge"><title>Node1&#45;&gt;Node2</title>
<path fill="none" stroke="midnightblue" d="M60.8804,-261.063C91.108,-300.401 162.048,-392.719 185.399,-423.108"/>
<polygon fill="midnightblue" stroke="midnightblue" points="63.3093,-258.48 54.4409,-252.683 57.7587,-262.745 63.3093,-258.48"/>
</g>
<!-- Node6 -->
<g id="node6" class="node"><title>Node6</title>
<g id="a_node6"><a xlink:href="../../d4/d6f/classmodel_1_1cells_1_1_fire_cell.html" target="_top" xlink:title="model.cells.FireCell">
<polygon fill="white" stroke="black" points="140.5,-309.5 140.5,-328.5 247.5,-328.5 247.5,-309.5 140.5,-309.5"/>
<text text-anchor="middle" x="194" y="-316.5" font-family="Helvetica,sans-Serif" font-size="10.00">model.cells.FireCell</text>
</a>
</g>
</g>
<!-- Node1&#45;&gt;Node6 -->
<g id="edge5" class="edge"><title>Node1&#45;&gt;Node6</title>
<path fill="none" stroke="midnightblue" d="M74.3874,-257.256C103.705,-272.517 149.399,-296.303 174.659,-309.453"/>
<polygon fill="midnightblue" stroke="midnightblue" points="75.9773,-254.138 65.491,-252.625 72.7451,-260.347 75.9773,-254.138"/>
</g>
<!-- Node10 -->
<g id="node10" class="node"><title>Node10</title>
<g id="a_node10"><a xlink:href="../../d0/d2c/classmodel_1_1cells_1_1_life_cell.html" target="_top" xlink:title="model.cells.LifeCell">
<polygon fill="white" stroke="black" points="140.5,-233.5 140.5,-252.5 247.5,-252.5 247.5,-233.5 140.5,-233.5"/>
<text text-anchor="middle" x="194" y="-240.5" font-family="Helvetica,sans-Serif" font-size="10.00">model.cells.LifeCell</text>
</a>
</g>
</g>
<!-- Node1&#45;&gt;Node10 -->
<g id="edge9" class="edge"><title>Node1&#45;&gt;Node10</title>
<path fill="none" stroke="midnightblue" d="M101.976,-243C114.588,-243 127.966,-243 140.471,-243"/>
<polygon fill="midnightblue" stroke="midnightblue" points="101.598,-239.5 91.5981,-243 101.598,-246.5 101.598,-239.5"/>
</g>
<!-- Node13 -->
<g id="node13" class="node"><title>Node13</title>
<g id="a_node13"><a xlink:href="../../dc/d43/classmodel_1_1cells_1_1_predator_cell.html" target="_top" xlink:title="model.cells.PredatorCell">
<polygon fill="white" stroke="black" points="128,-148.5 128,-167.5 260,-167.5 260,-148.5 128,-148.5"/>
<text text-anchor="middle" x="194" y="-155.5" font-family="Helvetica,sans-Serif" font-size="10.00">model.cells.PredatorCell</text>
</a>
</g>
</g>
<!-- Node1&#45;&gt;Node13 -->
<g id="edge12" class="edge"><title>Node1&#45;&gt;Node13</title>
<path fill="none" stroke="midnightblue" d="M72.4463,-228.185C102.31,-210.799 150.969,-182.47 176.372,-167.681"/>
<polygon fill="midnightblue" stroke="midnightblue" points="70.3454,-225.359 63.4643,-233.415 73.8673,-231.408 70.3454,-225.359"/>
</g>
<!-- Node17 -->
<g id="node17" class="node"><title>Node17</title>
<g id="a_node17"><a xlink:href="../../d5/dbe/classmodel_1_1cells_1_1_sugar_cell.html" target="_top" xlink:title="model.cells.SugarCell">
<polygon fill="white" stroke="black" points="134.5,-38.5 134.5,-57.5 253.5,-57.5 253.5,-38.5 134.5,-38.5"/>
<text text-anchor="middle" x="194" y="-45.5" font-family="Helvetica,sans-Serif" font-size="10.00">model.cells.SugarCell</text>
</a>
</g>
</g>
<!-- Node1&#45;&gt;Node17 -->
<g id="edge16" class="edge"><title>Node1&#45;&gt;Node17</title>
<path fill="none" stroke="midnightblue" d="M60.2869,-225.254C90.3047,-185.162 162.545,-88.6757 185.716,-57.7284"/>
<polygon fill="midnightblue" stroke="midnightblue" points="57.4319,-223.227 54.2402,-233.33 63.0354,-227.423 57.4319,-223.227"/>
</g>
<!-- Node3 -->
<g id="node3" class="node"><title>Node3</title>
<g id="a_node3"><a xlink:href="../../d9/d51/classmodel_1_1cells_1_1_agent_cell_empty.html" target="_top" xlink:title="model.cells.AgentCellEmpty">
<polygon fill="white" stroke="black" points="296,-480.5 296,-499.5 446,-499.5 446,-480.5 296,-480.5"/>
<text text-anchor="middle" x="371" y="-487.5" font-family="Helvetica,sans-Serif" font-size="10.00">model.cells.AgentCellEmpty</text>
</a>
</g>
</g>
<!-- Node2&#45;&gt;Node3 -->
<g id="edge2" class="edge"><title>Node2&#45;&gt;Node3</title>
<path fill="none" stroke="midnightblue" d="M227.811,-446.377C247.417,-454.111 272.921,-463.719 296,-471 306.752,-474.392 318.522,-477.626 329.449,-480.433"/>
<polygon fill="midnightblue" stroke="midnightblue" points="229.005,-443.085 218.419,-442.639 226.416,-449.589 229.005,-443.085"/>
</g>
<!-- Node4 -->
<g id="node4" class="node"><title>Node4</title>
<g id="a_node4"><a xlink:href="../../da/de8/classmodel_1_1cells_1_1_agent_cell_o.html" target="_top" xlink:title="model.cells.AgentCellO">
<polygon fill="white" stroke="black" points="307.5,-442.5 307.5,-461.5 434.5,-461.5 434.5,-442.5 307.5,-442.5"/>
<text text-anchor="middle" x="371" y="-449.5" font-family="Helvetica,sans-Serif" font-size="10.00">model.cells.AgentCellO</text>
</a>
</g>
</g>
<!-- Node2&#45;&gt;Node4 -->
<g id="edge3" class="edge"><title>Node2&#45;&gt;Node4</title>
<path fill="none" stroke="midnightblue" d="M264.052,-440.497C278.387,-442.053 293.414,-443.685 307.499,-445.214"/>
<polygon fill="midnightblue" stroke="midnightblue" points="264.079,-436.979 253.759,-439.38 263.323,-443.939 264.079,-436.979"/>
</g>
<!-- Node5 -->
<g id="node5" class="node"><title>Node5</title>
<g id="a_node5"><a xlink:href="../../d4/d0c/classmodel_1_1cells_1_1_agent_cell_x.html" target="_top" xlink:title="model.cells.AgentCellX">
<polygon fill="white" stroke="black" points="308.5,-404.5 308.5,-423.5 433.5,-423.5 433.5,-404.5 308.5,-404.5"/>
<text text-anchor="middle" x="371" y="-411.5" font-family="Helvetica,sans-Serif" font-size="10.00">model.cells.AgentCellX</text>
</a>
</g>
</g>
<!-- Node2&#45;&gt;Node5 -->
<g id="edge4" class="edge"><title>Node2&#45;&gt;Node5</title>
<path fill="none" stroke="midnightblue" d="M263.807,-425.53C278.523,-423.932 293.979,-422.254 308.402,-420.688"/>
<polygon fill="midnightblue" stroke="midnightblue" points="263.323,-422.061 253.759,-426.62 264.079,-429.021 263.323,-422.061"/>
</g>
<!-- Node7 -->
<g id="node7" class="node"><title>Node7</title>
<g id="a_node7"><a xlink:href="../../d1/d8f/classmodel_1_1cells_1_1_fire_cell_burning.html" target="_top" xlink:title="model.cells.FireCellBurning">
<polygon fill="white" stroke="black" points="299,-366.5 299,-385.5 443,-385.5 443,-366.5 299,-366.5"/>
<text text-anchor="middle" x="371" y="-373.5" font-family="Helvetica,sans-Serif" font-size="10.00">model.cells.FireCellBurning</text>
</a>
</g>
</g>
<!-- Node6&#45;&gt;Node7 -->
<g id="edge6" class="edge"><title>Node6&#45;&gt;Node7</title>
<path fill="none" stroke="midnightblue" d="M227.811,-332.377C247.417,-340.111 272.921,-349.719 296,-357 306.752,-360.392 318.522,-363.626 329.449,-366.433"/>
<polygon fill="midnightblue" stroke="midnightblue" points="229.005,-329.085 218.419,-328.639 226.416,-335.589 229.005,-329.085"/>
</g>
<!-- Node8 -->
<g id="node8" class="node"><title>Node8</title>
<g id="a_node8"><a xlink:href="../../dc/d31/classmodel_1_1cells_1_1_fire_cell_empty.html" target="_top" xlink:title="model.cells.FireCellEmpty">
<polygon fill="white" stroke="black" points="302,-328.5 302,-347.5 440,-347.5 440,-328.5 302,-328.5"/>
<text text-anchor="middle" x="371" y="-335.5" font-family="Helvetica,sans-Serif" font-size="10.00">model.cells.FireCellEmpty</text>
</a>
</g>
</g>
<!-- Node6&#45;&gt;Node8 -->
<g id="edge7" class="edge"><title>Node6&#45;&gt;Node8</title>
<path fill="none" stroke="midnightblue" d="M257.754,-325.813C272.098,-327.371 287.407,-329.033 301.961,-330.613"/>
<polygon fill="midnightblue" stroke="midnightblue" points="257.825,-322.301 247.506,-324.701 257.07,-329.26 257.825,-322.301"/>
</g>
<!-- Node9 -->
<g id="node9" class="node"><title>Node9</title>
<g id="a_node9"><a xlink:href="../../dd/d69/classmodel_1_1cells_1_1_fire_cell_tree.html" target="_top" xlink:title="model.cells.FireCellTree">
<polygon fill="white" stroke="black" points="307.5,-290.5 307.5,-309.5 434.5,-309.5 434.5,-290.5 307.5,-290.5"/>
<text text-anchor="middle" x="371" y="-297.5" font-family="Helvetica,sans-Serif" font-size="10.00">model.cells.FireCellTree</text>
</a>
</g>
</g>
<!-- Node6&#45;&gt;Node9 -->
<g id="edge8" class="edge"><title>Node6&#45;&gt;Node9</title>
<path fill="none" stroke="midnightblue" d="M257.88,-312.173C273.97,-310.426 291.269,-308.548 307.348,-306.802"/>
<polygon fill="midnightblue" stroke="midnightblue" points="257.07,-308.74 247.506,-313.299 257.825,-315.699 257.07,-308.74"/>
</g>
<!-- Node11 -->
<g id="node11" class="node"><title>Node11</title>
<g id="a_node11"><a xlink:href="../../d2/dee/classmodel_1_1cells_1_1_life_cell_alive.html" target="_top" xlink:title="model.cells.LifeCellAlive">
<polygon fill="white" stroke="black" points="306,-252.5 306,-271.5 436,-271.5 436,-252.5 306,-252.5"/>
<text text-anchor="middle" x="371" y="-259.5" font-family="Helvetica,sans-Serif" font-size="10.00">model.cells.LifeCellAlive</text>
</a>
</g>
</g>
<!-- Node10&#45;&gt;Node11 -->
<g id="edge10" class="edge"><title>Node10&#45;&gt;Node11</title>
<path fill="none" stroke="midnightblue" d="M257.597,-249.796C273.243,-251.495 290.048,-253.32 305.772,-255.027"/>
<polygon fill="midnightblue" stroke="midnightblue" points="257.825,-246.301 247.506,-248.701 257.07,-253.26 257.825,-246.301"/>
</g>
<!-- Node12 -->
<g id="node12" class="node"><title>Node12</title>
<g id="a_node12"><a xlink:href="../../df/d3a/classmodel_1_1cells_1_1_life_cell_dead.html" target="_top" xlink:title="model.cells.LifeCellDead">
<polygon fill="white" stroke="black" points="304.5,-214.5 304.5,-233.5 437.5,-233.5 437.5,-214.5 304.5,-214.5"/>
<text text-anchor="middle" x="371" y="-221.5" font-family="Helvetica,sans-Serif" font-size="10.00">model.cells.LifeCellDead</text>
</a>
</g>
</g>
<!-- Node10&#45;&gt;Node12 -->
<g id="edge11" class="edge"><title>Node10&#45;&gt;Node12</title>
<path fill="none" stroke="midnightblue" d="M257.749,-236.187C272.828,-234.55 288.975,-232.797 304.189,-231.145"/>
<polygon fill="midnightblue" stroke="midnightblue" points="257.07,-232.74 247.506,-237.299 257.825,-239.699 257.07,-232.74"/>
</g>
<!-- Node14 -->
<g id="node14" class="node"><title>Node14</title>
<g id="a_node14"><a xlink:href="../../db/deb/classmodel_1_1cells_1_1_predator_cell_empty.html" target="_top" xlink:title="model.cells.PredatorCell\lEmpty">
<polygon fill="white" stroke="black" points="305,-165 305,-195 437,-195 437,-165 305,-165"/>
<text text-anchor="start" x="313" y="-183" font-family="Helvetica,sans-Serif" font-size="10.00">model.cells.PredatorCell</text>
<text text-anchor="middle" x="371" y="-172" font-family="Helvetica,sans-Serif" font-size="10.00">Empty</text>
</a>
</g>
</g>
<!-- Node13&#45;&gt;Node14 -->
<g id="edge13" class="edge"><title>Node13&#45;&gt;Node14</title>
<path fill="none" stroke="midnightblue" d="M270.187,-167.452C281.701,-168.9 293.506,-170.384 304.782,-171.801"/>
<polygon fill="midnightblue" stroke="midnightblue" points="270.522,-163.967 260.164,-166.192 269.649,-170.912 270.522,-163.967"/>
</g>
<!-- Node15 -->
<g id="node15" class="node"><title>Node15</title>
<g id="a_node15"><a xlink:href="../../df/dc2/classmodel_1_1cells_1_1_predator_cell_fish.html" target="_top" xlink:title="model.cells.PredatorCellFish">
<polygon fill="white" stroke="black" points="296,-126.5 296,-145.5 446,-145.5 446,-126.5 296,-126.5"/>
<text text-anchor="middle" x="371" y="-133.5" font-family="Helvetica,sans-Serif" font-size="10.00">model.cells.PredatorCellFish</text>
</a>
</g>
</g>
<!-- Node13&#45;&gt;Node15 -->
<g id="edge14" class="edge"><title>Node13&#45;&gt;Node15</title>
<path fill="none" stroke="midnightblue" d="M270.117,-148.557C278.677,-147.481 287.397,-146.384 295.943,-145.31"/>
<polygon fill="midnightblue" stroke="midnightblue" points="269.649,-145.088 260.164,-149.808 270.522,-152.033 269.649,-145.088"/>
</g>
<!-- Node16 -->
<g id="node16" class="node"><title>Node16</title>
<g id="a_node16"><a xlink:href="../../d0/dfb/classmodel_1_1cells_1_1_predator_cell_shark.html" target="_top" xlink:title="model.cells.PredatorCell\lShark">
<polygon fill="white" stroke="black" points="305,-77 305,-107 437,-107 437,-77 305,-77"/>
<text text-anchor="start" x="313" y="-95" font-family="Helvetica,sans-Serif" font-size="10.00">model.cells.PredatorCell</text>
<text text-anchor="middle" x="371" y="-84" font-family="Helvetica,sans-Serif" font-size="10.00">Shark</text>
</a>
</g>
</g>
<!-- Node13&#45;&gt;Node16 -->
<g id="edge15" class="edge"><title>Node13&#45;&gt;Node16</title>
<path fill="none" stroke="midnightblue" d="M226.768,-144.535C246.565,-136.287 272.629,-125.682 296,-117 305.025,-113.647 314.736,-110.231 324.059,-107.045"/>
<polygon fill="midnightblue" stroke="midnightblue" points="225.186,-141.403 217.314,-148.494 227.89,-147.86 225.186,-141.403"/>
</g>
<!-- Node18 -->
<g id="node18" class="node"><title>Node18</title>
<g id="a_node18"><a xlink:href="../../df/d26/classmodel_1_1cells_1_1_sugar_cell_agent.html" target="_top" xlink:title="model.cells.SugarCellAgent">
<polygon fill="white" stroke="black" points="297,-38.5 297,-57.5 445,-57.5 445,-38.5 297,-38.5"/>
<text text-anchor="middle" x="371" y="-45.5" font-family="Helvetica,sans-Serif" font-size="10.00">model.cells.SugarCellAgent</text>
</a>
</g>
</g>
<!-- Node17&#45;&gt;Node18 -->
<g id="edge17" class="edge"><title>Node17&#45;&gt;Node18</title>
<path fill="none" stroke="midnightblue" d="M263.954,-48C274.736,-48 285.912,-48 296.785,-48"/>
<polygon fill="midnightblue" stroke="midnightblue" points="263.759,-44.5001 253.759,-48 263.759,-51.5001 263.759,-44.5001"/>
</g>
<!-- Node19 -->
<g id="node19" class="node"><title>Node19</title>
<g id="a_node19"><a xlink:href="../../db/de8/classmodel_1_1cells_1_1_sugar_cell_empty.html" target="_top" xlink:title="model.cells.SugarCellEmpty">
<polygon fill="white" stroke="black" points="296,-0.5 296,-19.5 446,-19.5 446,-0.5 296,-0.5"/>
<text text-anchor="middle" x="371" y="-7.5" font-family="Helvetica,sans-Serif" font-size="10.00">model.cells.SugarCellEmpty</text>
</a>
</g>
</g>
<!-- Node17&#45;&gt;Node19 -->
<g id="edge18" class="edge"><title>Node17&#45;&gt;Node19</title>
<path fill="none" stroke="midnightblue" d="M249.124,-36.2474C273.869,-30.8742 302.803,-24.5914 326.158,-19.5201"/>
<polygon fill="midnightblue" stroke="midnightblue" points="248.189,-32.8686 239.16,-38.411 249.675,-39.7092 248.189,-32.8686"/>
</g>
</g>
</svg>
