<?xml version="1.0" encoding="UTF-8" standalone="no"?>
<!DOCTYPE svg PUBLIC "-//W3C//DTD SVG 1.1//EN"
 "http://www.w3.org/Graphics/SVG/1.1/DTD/svg11.dtd">
<!-- Generated by graphviz version 2.36.0 (20140111.2315)
 -->
<!-- Title: controller.ProbabilitySimGenerator Pages: 1 -->
<svg width="461pt" height="176pt"
 viewBox="0.00 0.00 461.00 176.00" xmlns="http://www.w3.org/2000/svg" xmlns:xlink="http://www.w3.org/1999/xlink">
<g id="graph0" class="graph" transform="scale(1 1) rotate(0) translate(4 172)">
<title>controller.ProbabilitySimGenerator</title>
<polygon fill="white" stroke="none" points="-4,4 -4,-172 457,-172 457,4 -4,4"/>
<!-- Node1 -->
<g id="node1" class="node"><title>Node1</title>
<polygon fill="#bfbfbf" stroke="black" points="267,-1 267,-31 399,-31 399,-1 267,-1"/>
<text text-anchor="start" x="275" y="-19" font-family="Helvetica,sans-Serif" font-size="10.00">controller.ProbabilitySim</text>
<text text-anchor="middle" x="333" y="-8" font-family="Helvetica,sans-Serif" font-size="10.00">Generator</text>
</g>
<!-- Node2 -->
<g id="node2" class="node"><title>Node2</title>
<g id="a_node2"><a xlink:href="../../d8/dd8/classcontroller_1_1_sim_generator.html" target="_top" xlink:title="controller.SimGenerator">
<polygon fill="white" stroke="black" points="145.5,-80.5 145.5,-99.5 276.5,-99.5 276.5,-80.5 145.5,-80.5"/>
<text text-anchor="middle" x="211" y="-87.5" font-family="Helvetica,sans-Serif" font-size="10.00">controller.SimGenerator</text>
</a>
</g>
</g>
<!-- Node2&#45;&gt;Node1 -->
<g id="edge1" class="edge"><title>Node2&#45;&gt;Node1</title>
<path fill="none" stroke="midnightblue" d="M234.233,-75.2887C255.621,-62.6663 287.222,-44.0164 308.885,-31.2316"/>
<polygon fill="midnightblue" stroke="midnightblue" points="232.307,-72.3611 225.474,-80.4579 235.865,-78.3896 232.307,-72.3611"/>
</g>
<!-- Node3 -->
<g id="node3" class="node"><title>Node3</title>
<polygon fill="white" stroke="#bfbfbf" points="-0.5,-148.5 -0.5,-167.5 146.5,-167.5 146.5,-148.5 -0.5,-148.5"/>
<text text-anchor="middle" x="73" y="-155.5" font-family="Helvetica,sans-Serif" font-size="10.00">HashMap&lt; String, String &gt;</text>
</g>
<!-- Node3&#45;&gt;Node2 -->
<g id="edge2" class="edge"><title>Node3&#45;&gt;Node2</title>
<path fill="none" stroke="#9a32cd" stroke-dasharray="5,2" d="M92.7563,-142.41C104.124,-134.47 118.909,-124.89 133,-118 148.19,-110.572 165.949,-104.255 180.682,-99.6032"/>
<polygon fill="#9a32cd" stroke="#9a32cd" points="90.5528,-139.683 84.4508,-148.344 94.6222,-145.379 90.5528,-139.683"/>
<text text-anchor="middle" x="170" y="-121.5" font-family="Helvetica,sans-Serif" font-size="10.00"> myParameters</text>
</g>
<!-- Node4 -->
<g id="node4" class="node"><title>Node4</title>
<polygon fill="white" stroke="#bfbfbf" points="164.5,-148.5 164.5,-167.5 257.5,-167.5 257.5,-148.5 164.5,-148.5"/>
<text text-anchor="middle" x="211" y="-155.5" font-family="Helvetica,sans-Serif" font-size="10.00">ResourceBundle</text>
</g>
<!-- Node4&#45;&gt;Node2 -->
<g id="edge3" class="edge"><title>Node4&#45;&gt;Node2</title>
<path fill="none" stroke="#9a32cd" stroke-dasharray="5,2" d="M211,-138.041C211,-125.472 211,-109.563 211,-99.8411"/>
<polygon fill="#9a32cd" stroke="#9a32cd" points="207.5,-138.372 211,-148.372 214.5,-138.372 207.5,-138.372"/>
<text text-anchor="middle" x="244.5" y="-121.5" font-family="Helvetica,sans-Serif" font-size="10.00"> myProperties</text>
</g>
<!-- Node5 -->
<g id="node5" class="node"><title>Node5</title>
<polygon fill="white" stroke="#bfbfbf" points="275,-148.5 275,-167.5 331,-167.5 331,-148.5 275,-148.5"/>
<text text-anchor="middle" x="303" y="-155.5" font-family="Helvetica,sans-Serif" font-size="10.00">Random</text>
</g>
<!-- Node5&#45;&gt;Node2 -->
<g id="edge4" class="edge"><title>Node5&#45;&gt;Node2</title>
<path fill="none" stroke="#9a32cd" stroke-dasharray="5,2" d="M296.141,-139.143C292.566,-131.778 287.551,-123.661 281,-118 271.342,-109.654 258.82,-103.741 247.042,-99.6213"/>
<polygon fill="#9a32cd" stroke="#9a32cd" points="292.965,-140.616 300.134,-148.417 299.395,-137.848 292.965,-140.616"/>
<text text-anchor="middle" x="320" y="-121.5" font-family="Helvetica,sans-Serif" font-size="10.00"> myRandom</text>
</g>
<!-- Node6 -->
<g id="node6" class="node"><title>Node6</title>
<polygon fill="white" stroke="#bfbfbf" points="295,-80.5 295,-99.5 453,-99.5 453,-80.5 295,-80.5"/>
<text text-anchor="middle" x="374" y="-87.5" font-family="Helvetica,sans-Serif" font-size="10.00">HashMap&lt; Integer, Integer &gt;</text>
</g>
<!-- Node6&#45;&gt;Node1 -->
<g id="edge5" class="edge"><title>Node6&#45;&gt;Node1</title>
<path fill="none" stroke="#9a32cd" stroke-dasharray="5,2" d="M364.076,-71.5723C357.034,-59.2058 347.699,-42.8125 341.104,-31.2316"/>
<polygon fill="#9a32cd" stroke="#9a32cd" points="361.146,-73.5 369.136,-80.4579 367.229,-70.0361 361.146,-73.5"/>
<text text-anchor="middle" x="397" y="-53.5" font-family="Helvetica,sans-Serif" font-size="10.00"> myProbabilities</text>
</g>
</g>
</svg>
