<?xml version="1.0" encoding="UTF-8" standalone="no"?>
<!DOCTYPE svg PUBLIC "-//W3C//DTD SVG 1.1//EN"
 "http://www.w3.org/Graphics/SVG/1.1/DTD/svg11.dtd">
<!-- Generated by graphviz version 2.36.0 (20140111.2315)
 -->
<!-- Title: controller.ProbabilitySimGenerator Pages: 1 -->
<svg width="406pt" height="108pt"
 viewBox="0.00 0.00 406.00 108.00" xmlns="http://www.w3.org/2000/svg" xmlns:xlink="http://www.w3.org/1999/xlink">
<g id="graph0" class="graph" transform="scale(1 1) rotate(0) translate(4 104)">
<title>controller.ProbabilitySimGenerator</title>
<polygon fill="white" stroke="none" points="-4,4 -4,-104 402,-104 402,4 -4,4"/>
<!-- Node1 -->
<g id="node1" class="node"><title>Node1</title>
<polygon fill="#bfbfbf" stroke="black" points="178,-1 178,-31 310,-31 310,-1 178,-1"/>
<text text-anchor="start" x="186" y="-19" font-family="Helvetica,sans-Serif" font-size="10.00">controller.ProbabilitySim</text>
<text text-anchor="middle" x="244" y="-8" font-family="Helvetica,sans-Serif" font-size="10.00">Generator</text>
</g>
<!-- Node2 -->
<g id="node2" class="node"><title>Node2</title>
<polygon fill="white" stroke="#bfbfbf" points="-0.5,-80.5 -0.5,-99.5 146.5,-99.5 146.5,-80.5 -0.5,-80.5"/>
<text text-anchor="middle" x="73" y="-87.5" font-family="Helvetica,sans-Serif" font-size="10.00">HashMap&lt; String, String &gt;</text>
</g>
<!-- Node2&#45;&gt;Node1 -->
<g id="edge1" class="edge"><title>Node2&#45;&gt;Node1</title>
<path fill="none" stroke="#9a32cd" stroke-dasharray="5,2" d="M102.816,-76.4461C132.882,-63.7863 179.209,-44.2805 210.52,-31.0968"/>
<polygon fill="#9a32cd" stroke="#9a32cd" points="101.146,-73.3516 93.2875,-80.4579 103.862,-79.803 101.146,-73.3516"/>
<text text-anchor="middle" x="201" y="-53.5" font-family="Helvetica,sans-Serif" font-size="10.00"> myParameters</text>
</g>
<!-- Node3 -->
<g id="node3" class="node"><title>Node3</title>
<polygon fill="white" stroke="#bfbfbf" points="165,-80.5 165,-99.5 323,-99.5 323,-80.5 165,-80.5"/>
<text text-anchor="middle" x="244" y="-87.5" font-family="Helvetica,sans-Serif" font-size="10.00">HashMap&lt; Integer, Integer &gt;</text>
</g>
<!-- Node3&#45;&gt;Node1 -->
<g id="edge2" class="edge"><title>Node3&#45;&gt;Node1</title>
<path fill="none" stroke="#9a32cd" stroke-dasharray="5,2" d="M244,-70.0846C244,-57.9148 244,-42.3538 244,-31.2316"/>
<polygon fill="#9a32cd" stroke="#9a32cd" points="240.5,-70.4579 244,-80.4579 247.5,-70.4579 240.5,-70.4579"/>
<text text-anchor="middle" x="282" y="-53.5" font-family="Helvetica,sans-Serif" font-size="10.00"> myProbabilities</text>
</g>
<!-- Node4 -->
<g id="node4" class="node"><title>Node4</title>
<polygon fill="white" stroke="#bfbfbf" points="341,-80.5 341,-99.5 397,-99.5 397,-80.5 341,-80.5"/>
<text text-anchor="middle" x="369" y="-87.5" font-family="Helvetica,sans-Serif" font-size="10.00">Random</text>
</g>
<!-- Node4&#45;&gt;Node1 -->
<g id="edge3" class="edge"><title>Node4&#45;&gt;Node1</title>
<path fill="none" stroke="#9a32cd" stroke-dasharray="5,2" d="M353.333,-73.1883C345.107,-65.4889 334.559,-56.5125 324,-50 311.98,-42.5862 298.001,-36.1676 285.122,-31.013"/>
<polygon fill="#9a32cd" stroke="#9a32cd" points="351.083,-75.8809 360.701,-80.3235 355.953,-70.8524 351.083,-75.8809"/>
<text text-anchor="middle" x="369" y="-53.5" font-family="Helvetica,sans-Serif" font-size="10.00"> myRandom</text>
</g>
</g>
</svg>
