<?xml version="1.0" encoding="UTF-8" standalone="no"?>
<!DOCTYPE svg PUBLIC "-//W3C//DTD SVG 1.1//EN"
 "http://www.w3.org/Graphics/SVG/1.1/DTD/svg11.dtd">
<!-- Generated by graphviz version 2.36.0 (20140111.2315)
 -->
<!-- Title: view.SimulationScreen.updateMapArrayList Pages: 1 -->
<!--zoomable 278 -->
<svg id="main" version="1.1" xmlns="http://www.w3.org/2000/svg" xmlns:xlink="http://www.w3.org/1999/xlink" xml:space="preserve" onload="init(evt)">
<style type="text/css"><![CDATA[
.edge:hover path { stroke: red; }
.edge:hover polygon { stroke: red; fill: red; }
]]></style>
<script type="text/javascript"><![CDATA[
var edges = document.getElementsByTagName('g');
if (edges && edges.length) {
  for (var i=0;i<edges.length;i++) {
    if (edges[i].id.substr(0,4)=='edge') {
      edges[i].setAttribute('class','edge');
    }
  }
}
]]></script>
        <defs>
                <circle id="rim" cx="0" cy="0" r="7"/>
                <circle id="rim2" cx="0" cy="0" r="3.5"/>
                <g id="zoomPlus">
                        <use xlink:href="#rim" fill="#404040">
                                <set attributeName="fill" to="#808080" begin="zoomplus.mouseover" end="zoomplus.mouseout"/>
                        </use>
                        <path d="M-4,0h8M0,-4v8" fill="none" stroke="white" stroke-width="1.5" pointer-events="none"/>
                </g>
                <g id="zoomMin">
                        <use xlink:href="#rim" fill="#404040">
                                <set attributeName="fill" to="#808080" begin="zoomminus.mouseover" end="zoomminus.mouseout"/>
                        </use>
                        <path d="M-4,0h8" fill="none" stroke="white" stroke-width="1.5" pointer-events="none"/>
                </g>
                <g id="dirArrow">
                        <path fill="none" stroke="white" stroke-width="1.5" d="M0,-3.0v7 M-2.5,-0.5L0,-3.0L2.5,-0.5"/>
                </g>
               <g id="resetDef">
                       <use xlink:href="#rim2" fill="#404040">
                               <set attributeName="fill" to="#808080" begin="reset.mouseover" end="reset.mouseout"/>
                       </use>
               </g>
        </defs>

<script type="text/javascript">
var viewWidth = 1262;
var viewHeight = 278;
var sectionId = 'dynsection-11';
</script>
<script xlink:href="../../svgpan.js"/>
<svg id="graph" class="graph">
<g id="viewport">
<title>view.SimulationScreen.updateMapArrayList</title>
<polygon fill="white" stroke="none" points="-4,4 -4,-274 1258,-274 1258,4 -4,4"/>
<!-- Node1 -->
<g id="node1" class="node"><title>Node1</title>
<polygon fill="#bfbfbf" stroke="black" points="0.5,-122 0.5,-152 161.5,-152 161.5,-122 0.5,-122"/>
<text text-anchor="start" x="8.5" y="-140" font-family="Helvetica,sans-Serif" font-size="10.00">view.SimulationScreen.update</text>
<text text-anchor="middle" x="81" y="-129" font-family="Helvetica,sans-Serif" font-size="10.00">MapArrayList</text>
</g>
<!-- Node2 -->
<g id="node2" class="node"><title>Node2</title>
<g id="a_node2"><a xlink:href="../../d1/d3e/classview_1_1_simulation_screen.html#ac818b7465bc624b25a3aba98df571bdb" target="_top" xlink:title="view.SimulationScreen.updateData">
<polygon fill="white" stroke="black" points="198,-127.5 198,-146.5 382,-146.5 382,-127.5 198,-127.5"/>
<text text-anchor="middle" x="290" y="-134.5" font-family="Helvetica,sans-Serif" font-size="10.00">view.SimulationScreen.updateData</text>
</a>
</g>
</g>
<!-- Node1&#45;&gt;Node2 -->
<g id="edge1" class="edge"><title>Node1&#45;&gt;Node2</title>
<path fill="none" stroke="midnightblue" d="M171.819,-137C180.472,-137 189.255,-137 197.92,-137"/>
<polygon fill="midnightblue" stroke="midnightblue" points="171.736,-133.5 161.736,-137 171.735,-140.5 171.736,-133.5"/>
</g>
<!-- Node3 -->
<g id="node3" class="node"><title>Node3</title>
<g id="a_node3"><a xlink:href="../../d1/d3e/classview_1_1_simulation_screen.html#a56d778b3e5756edd732a027e4d96a431" target="_top" xlink:title="view.SimulationScreen.update\lScreen">
<polygon fill="white" stroke="black" points="418.5,-122 418.5,-152 579.5,-152 579.5,-122 418.5,-122"/>
<text text-anchor="start" x="426.5" y="-140" font-family="Helvetica,sans-Serif" font-size="10.00">view.SimulationScreen.update</text>
<text text-anchor="middle" x="499" y="-129" font-family="Helvetica,sans-Serif" font-size="10.00">Screen</text>
</a>
</g>
</g>
<!-- Node2&#45;&gt;Node3 -->
<g id="edge2" class="edge"><title>Node2&#45;&gt;Node3</title>
<path fill="none" stroke="midnightblue" d="M392.292,-137C401,-137 409.729,-137 418.232,-137"/>
<polygon fill="midnightblue" stroke="midnightblue" points="392.094,-133.5 382.094,-137 392.094,-140.5 392.094,-133.5"/>
</g>
<!-- Node4 -->
<g id="node4" class="node"><title>Node4</title>
<g id="a_node4"><a xlink:href="../../d0/d56/classmodel_1_1simulations_1_1_simulation.html#a6efb6657ce3c803a99ccd41d8b8a2057" target="_top" xlink:title="model.simulations.Simulation.update\lColorGrid">
<polygon fill="white" stroke="black" points="616.5,-122 616.5,-152 811.5,-152 811.5,-122 616.5,-122"/>
<text text-anchor="start" x="624.5" y="-140" font-family="Helvetica,sans-Serif" font-size="10.00">model.simulations.Simulation.update</text>
<text text-anchor="middle" x="714" y="-129" font-family="Helvetica,sans-Serif" font-size="10.00">ColorGrid</text>
</a>
</g>
</g>
<!-- Node3&#45;&gt;Node4 -->
<g id="edge3" class="edge"><title>Node3&#45;&gt;Node4</title>
<path fill="none" stroke="midnightblue" d="M589.786,-137C598.521,-137 607.411,-137 616.211,-137"/>
<polygon fill="midnightblue" stroke="midnightblue" points="589.616,-133.5 579.616,-137 589.616,-140.5 589.616,-133.5"/>
</g>
<!-- Node5 -->
<g id="node5" class="node"><title>Node5</title>
<g id="a_node5"><a xlink:href="../../d0/d56/classmodel_1_1simulations_1_1_simulation.html#ad6b0af21d9f0a4d2bd0fc2ce13d40ab5" target="_top" xlink:title="model.simulations.Simulation.setupGrid">
<polygon fill="white" stroke="black" points="848,-245.5 848,-264.5 1056,-264.5 1056,-245.5 848,-245.5"/>
<text text-anchor="middle" x="952" y="-252.5" font-family="Helvetica,sans-Serif" font-size="10.00">model.simulations.Simulation.setupGrid</text>
</a>
</g>
</g>
<!-- Node4&#45;&gt;Node5 -->
<g id="edge4" class="edge"><title>Node4&#45;&gt;Node5</title>
<path fill="none" stroke="midnightblue" d="M738.221,-159.209C763.274,-181.869 805.339,-216.285 848,-235 857.925,-239.354 868.801,-242.765 879.649,-245.435"/>
<polygon fill="midnightblue" stroke="midnightblue" points="740.436,-156.491 730.705,-152.299 735.698,-161.644 740.436,-156.491"/>
</g>
<!-- Node7 -->
<g id="node7" class="node"><title>Node7</title>
<g id="a_node7"><a xlink:href="../../d7/d85/classmodel_1_1simulations_1_1_simulation_life.html#a835e84a7f9fc272a5cb373abb36bf628" target="_top" xlink:title="model.simulations.Simulation\lLife.updateGrid">
<polygon fill="white" stroke="black" points="873,-196 873,-226 1031,-226 1031,-196 873,-196"/>
<text text-anchor="start" x="881" y="-214" font-family="Helvetica,sans-Serif" font-size="10.00">model.simulations.Simulation</text>
<text text-anchor="middle" x="952" y="-203" font-family="Helvetica,sans-Serif" font-size="10.00">Life.updateGrid</text>
</a>
</g>
</g>
<!-- Node4&#45;&gt;Node7 -->
<g id="edge6" class="edge"><title>Node4&#45;&gt;Node7</title>
<path fill="none" stroke="midnightblue" d="M761.792,-155.736C787.08,-165.48 818.985,-177.166 848,-186 859.618,-189.537 872.092,-192.912 884.208,-195.974"/>
<polygon fill="midnightblue" stroke="midnightblue" points="763.033,-152.463 752.445,-152.107 760.5,-158.989 763.033,-152.463"/>
</g>
<!-- Node8 -->
<g id="node8" class="node"><title>Node8</title>
<g id="a_node8"><a xlink:href="../../d7/dc8/classmodel_1_1simulations_1_1_simulation_sugarscape.html#a6f5b4a3d8842dbe0fd7c4ac94e349fe3" target="_top" xlink:title="model.simulations.Simulation\lSugarscape.updateGrid">
<polygon fill="white" stroke="black" points="873,-147 873,-177 1031,-177 1031,-147 873,-147"/>
<text text-anchor="start" x="881" y="-165" font-family="Helvetica,sans-Serif" font-size="10.00">model.simulations.Simulation</text>
<text text-anchor="middle" x="952" y="-154" font-family="Helvetica,sans-Serif" font-size="10.00">Sugarscape.updateGrid</text>
</a>
</g>
</g>
<!-- Node4&#45;&gt;Node8 -->
<g id="edge7" class="edge"><title>Node4&#45;&gt;Node8</title>
<path fill="none" stroke="midnightblue" d="M821.755,-148.309C838.964,-150.132 856.495,-151.989 872.866,-153.723"/>
<polygon fill="midnightblue" stroke="midnightblue" points="821.984,-144.814 811.671,-147.241 821.247,-151.775 821.984,-144.814"/>
</g>
<!-- Node9 -->
<g id="node9" class="node"><title>Node9</title>
<g id="a_node9"><a xlink:href="../../d9/d70/classmodel_1_1simulations_1_1_simulation_predator.html#a1d05d28746dd1f641960ef401b28472e" target="_top" xlink:title="model.simulations.Simulation\lPredator.updateGrid">
<polygon fill="white" stroke="black" points="873,-98 873,-128 1031,-128 1031,-98 873,-98"/>
<text text-anchor="start" x="881" y="-116" font-family="Helvetica,sans-Serif" font-size="10.00">model.simulations.Simulation</text>
<text text-anchor="middle" x="952" y="-105" font-family="Helvetica,sans-Serif" font-size="10.00">Predator.updateGrid</text>
</a>
</g>
</g>
<!-- Node4&#45;&gt;Node9 -->
<g id="edge8" class="edge"><title>Node4&#45;&gt;Node9</title>
<path fill="none" stroke="midnightblue" d="M821.755,-126.144C838.964,-124.393 856.495,-122.611 872.866,-120.946"/>
<polygon fill="midnightblue" stroke="midnightblue" points="821.266,-122.675 811.671,-127.169 821.974,-129.639 821.266,-122.675"/>
</g>
<!-- Node10 -->
<g id="node10" class="node"><title>Node10</title>
<g id="a_node10"><a xlink:href="../../dd/d46/classmodel_1_1simulations_1_1_simulation_fire.html#afb98c9dd0a67eb041f8c635b0c18c709" target="_top" xlink:title="model.simulations.Simulation\lFire.updateGrid">
<polygon fill="white" stroke="black" points="873,-49 873,-79 1031,-79 1031,-49 873,-49"/>
<text text-anchor="start" x="881" y="-67" font-family="Helvetica,sans-Serif" font-size="10.00">model.simulations.Simulation</text>
<text text-anchor="middle" x="952" y="-56" font-family="Helvetica,sans-Serif" font-size="10.00">Fire.updateGrid</text>
</a>
</g>
</g>
<!-- Node4&#45;&gt;Node10 -->
<g id="edge9" class="edge"><title>Node4&#45;&gt;Node10</title>
<path fill="none" stroke="midnightblue" d="M762.98,-118.263C788.088,-108.82 819.465,-97.5846 848,-89 859.718,-85.4747 872.298,-82.0939 884.502,-79.0205"/>
<polygon fill="midnightblue" stroke="midnightblue" points="761.444,-115.101 753.333,-121.918 763.925,-121.647 761.444,-115.101"/>
</g>
<!-- Node11 -->
<g id="node11" class="node"><title>Node11</title>
<g id="a_node11"><a xlink:href="../../da/d76/classmodel_1_1simulations_1_1_simulation_segregation.html#a3aeb5a7dfb3094553814a23e70cd5676" target="_top" xlink:title="model.simulations.Simulation\lSegregation.updateGrid">
<polygon fill="white" stroke="black" points="873,-0 873,-30 1031,-30 1031,-0 873,-0"/>
<text text-anchor="start" x="881" y="-18" font-family="Helvetica,sans-Serif" font-size="10.00">model.simulations.Simulation</text>
<text text-anchor="middle" x="952" y="-7" font-family="Helvetica,sans-Serif" font-size="10.00">Segregation.updateGrid</text>
</a>
</g>
</g>
<!-- Node4&#45;&gt;Node11 -->
<g id="edge10" class="edge"><title>Node4&#45;&gt;Node11</title>
<path fill="none" stroke="midnightblue" d="M738.863,-115.049C764.144,-92.9452 806.121,-59.4159 848,-40 856.264,-36.1688 865.183,-32.8845 874.194,-30.0788"/>
<polygon fill="midnightblue" stroke="midnightblue" points="736.42,-112.538 731.263,-121.792 741.066,-117.774 736.42,-112.538"/>
</g>
<!-- Node6 -->
<g id="node6" class="node"><title>Node6</title>
<g id="a_node6"><a xlink:href="../../d0/d56/classmodel_1_1simulations_1_1_simulation.html#a49dab3d977f4447d538534885be2b64f" target="_top" xlink:title="model.simulations.Simulation.\lSimulation">
<polygon fill="white" stroke="black" points="1092.5,-240 1092.5,-270 1253.5,-270 1253.5,-240 1092.5,-240"/>
<text text-anchor="start" x="1100.5" y="-258" font-family="Helvetica,sans-Serif" font-size="10.00">model.simulations.Simulation.</text>
<text text-anchor="middle" x="1173" y="-247" font-family="Helvetica,sans-Serif" font-size="10.00">Simulation</text>
</a>
</g>
</g>
<!-- Node5&#45;&gt;Node6 -->
<g id="edge5" class="edge"><title>Node5&#45;&gt;Node6</title>
<path fill="none" stroke="midnightblue" d="M1066.11,-255C1074.99,-255 1083.83,-255 1092.41,-255"/>
<polygon fill="midnightblue" stroke="midnightblue" points="1066.09,-251.5 1056.09,-255 1066.09,-258.5 1066.09,-251.5"/>
</g>
</g>
</svg>
        <g id="navigator" transform="translate(0 0)" fill="#404254">
                <rect fill="#f2f5e9" fill-opacity="0.5" stroke="#606060" stroke-width=".5" x="0" y="0" width="60" height="60"/>
                <use id="zoomplus" xlink:href="#zoomPlus" x="17" y="9" onmousedown="handleZoom(evt,'in')"/>
                <use id="zoomminus" xlink:href="#zoomMin" x="42" y="9" onmousedown="handleZoom(evt,'out')"/>
                <use id="reset" xlink:href="#resetDef" x="30" y="36" onmousedown="handleReset()"/>
                <g id="arrowUp" xlink:href="#dirArrow" transform="translate(30 24)" onmousedown="handlePan(0,-1)">
                  <use xlink:href="#rim" fill="#404040">
                        <set attributeName="fill" to="#808080" begin="arrowUp.mouseover" end="arrowUp.mouseout"/>
                  </use>
                  <path fill="none" stroke="white" stroke-width="1.5" d="M0,-3.0v7 M-2.5,-0.5L0,-3.0L2.5,-0.5"/>
                </g>
                <g id="arrowRight" xlink:href="#dirArrow" transform="rotate(90) translate(36 -43)" onmousedown="handlePan(1,0)">
                  <use xlink:href="#rim" fill="#404040">
                        <set attributeName="fill" to="#808080" begin="arrowRight.mouseover" end="arrowRight.mouseout"/>
                  </use>
                  <path fill="none" stroke="white" stroke-width="1.5" d="M0,-3.0v7 M-2.5,-0.5L0,-3.0L2.5,-0.5"/>
                </g>
                <g id="arrowDown" xlink:href="#dirArrow" transform="rotate(180) translate(-30 -48)" onmousedown="handlePan(0,1)">
                  <use xlink:href="#rim" fill="#404040">
                        <set attributeName="fill" to="#808080" begin="arrowDown.mouseover" end="arrowDown.mouseout"/>
                  </use>
                  <path fill="none" stroke="white" stroke-width="1.5" d="M0,-3.0v7 M-2.5,-0.5L0,-3.0L2.5,-0.5"/>
                </g>
                <g id="arrowLeft" xlink:href="#dirArrow" transform="rotate(270) translate(-36 17)" onmousedown="handlePan(-1,0)">
                  <use xlink:href="#rim" fill="#404040">
                        <set attributeName="fill" to="#808080" begin="arrowLeft.mouseover" end="arrowLeft.mouseout"/>
                  </use>
                  <path fill="none" stroke="white" stroke-width="1.5" d="M0,-3.0v7 M-2.5,-0.5L0,-3.0L2.5,-0.5"/>
                </g>
        </g>
        <svg viewBox="0 0 15 15" width="100%" height="30px" preserveAspectRatio="xMaxYMin meet">
         <g id="arrow_out" transform="scale(0.3 0.3)">
          <a xlink:href="classview_1_1_simulation_screen_a903be669ef69338f95301aa617218a14_icgraph_org.svg" target="_base">
           <rect id="button" ry="5" rx="5" y="6" x="6" height="38" width="38"
                fill="#f2f5e9" fill-opacity="0.5" stroke="#606060" stroke-width="1.0"/>
           <path id="arrow"
             d="M 11.500037,31.436501 C 11.940474,20.09759 22.043105,11.32322 32.158766,21.979434 L 37.068811,17.246167 C 37.068811,17.246167 37.088388,32 37.088388,32 L 22.160133,31.978069 C 22.160133,31.978069 26.997745,27.140456 26.997745,27.140456 C 18.528582,18.264221 13.291696,25.230495 11.500037,31.436501 z"
             style="fill:#404040;"/>
          </a>
         </g>
        </svg>
</svg>
