<?xml version="1.0" encoding="UTF-8" standalone="no"?>
<!DOCTYPE svg PUBLIC "-//W3C//DTD SVG 1.1//EN"
 "http://www.w3.org/Graphics/SVG/1.1/DTD/svg11.dtd">
<!-- Generated by graphviz version 2.36.0 (20140111.2315)
 -->
<!-- Title: view.SimulationScreen.addButtons Pages: 1 -->
<svg width="2610pt" height="168pt"
 viewBox="0.00 0.00 2610.00 168.00" xmlns="http://www.w3.org/2000/svg" xmlns:xlink="http://www.w3.org/1999/xlink">
<g id="graph0" class="graph" transform="scale(1 1) rotate(0) translate(4 164)">
<title>view.SimulationScreen.addButtons</title>
<polygon fill="white" stroke="none" points="-4,4 -4,-164 2606,-164 2606,4 -4,4"/>
<!-- Node1 -->
<g id="node1" class="node"><title>Node1</title>
<polygon fill="#bfbfbf" stroke="black" points="0.5,-64 0.5,-94 145.5,-94 145.5,-64 0.5,-64"/>
<text text-anchor="start" x="8.5" y="-82" font-family="Helvetica,sans-Serif" font-size="10.00">view.SimulationScreen.add</text>
<text text-anchor="middle" x="73" y="-71" font-family="Helvetica,sans-Serif" font-size="10.00">Buttons</text>
</g>
<!-- Node2 -->
<g id="node2" class="node"><title>Node2</title>
<g id="a_node2"><a xlink:href="../../d1/d3e/classview_1_1_simulation_screen.html#a6c9f5c7e36be620d06e55709bc256d18" target="_top" xlink:title="view.SimulationScreen.init\lSimScreen">
<polygon fill="white" stroke="black" points="182.5,-64 182.5,-94 323.5,-94 323.5,-64 182.5,-64"/>
<text text-anchor="start" x="190.5" y="-82" font-family="Helvetica,sans-Serif" font-size="10.00">view.SimulationScreen.init</text>
<text text-anchor="middle" x="253" y="-71" font-family="Helvetica,sans-Serif" font-size="10.00">SimScreen</text>
</a>
</g>
</g>
<!-- Node1&#45;&gt;Node2 -->
<g id="edge1" class="edge"><title>Node1&#45;&gt;Node2</title>
<path fill="none" stroke="midnightblue" d="M155.903,-79C164.709,-79 173.608,-79 182.252,-79"/>
<polygon fill="midnightblue" stroke="midnightblue" points="155.63,-75.5001 145.63,-79 155.63,-82.5001 155.63,-75.5001"/>
</g>
<!-- Node3 -->
<g id="node3" class="node"><title>Node3</title>
<g id="a_node3"><a xlink:href="../../d6/d7b/classcontroller_1_1_cell_society_controller.html#af6b4eb647c4e76fef6f27cc61ced4d9a" target="_top" xlink:title="controller.CellSocietyController.initialize\lSimulationScreen">
<polygon fill="white" stroke="black" points="360.5,-64 360.5,-94 563.5,-94 563.5,-64 360.5,-64"/>
<text text-anchor="start" x="368.5" y="-82" font-family="Helvetica,sans-Serif" font-size="10.00">controller.CellSocietyController.initialize</text>
<text text-anchor="middle" x="462" y="-71" font-family="Helvetica,sans-Serif" font-size="10.00">SimulationScreen</text>
</a>
</g>
</g>
<!-- Node2&#45;&gt;Node3 -->
<g id="edge2" class="edge"><title>Node2&#45;&gt;Node3</title>
<path fill="none" stroke="midnightblue" d="M333.656,-79C342.412,-79 351.409,-79 360.377,-79"/>
<polygon fill="midnightblue" stroke="midnightblue" points="333.504,-75.5001 323.504,-79 333.504,-82.5001 333.504,-75.5001"/>
</g>
<!-- Node4 -->
<g id="node4" class="node"><title>Node4</title>
<g id="a_node4"><a xlink:href="../../d6/d7b/classcontroller_1_1_cell_society_controller.html#a3d913ad3344ac48e887110e2fabb5746" target="_top" xlink:title="controller.CellSocietyController.transition\lToSimulation">
<polygon fill="white" stroke="black" points="600,-64 600,-94 810,-94 810,-64 600,-64"/>
<text text-anchor="start" x="608" y="-82" font-family="Helvetica,sans-Serif" font-size="10.00">controller.CellSocietyController.transition</text>
<text text-anchor="middle" x="705" y="-71" font-family="Helvetica,sans-Serif" font-size="10.00">ToSimulation</text>
</a>
</g>
</g>
<!-- Node3&#45;&gt;Node4 -->
<g id="edge3" class="edge"><title>Node3&#45;&gt;Node4</title>
<path fill="none" stroke="midnightblue" d="M573.873,-79C582.481,-79 591.155,-79 599.717,-79"/>
<polygon fill="midnightblue" stroke="midnightblue" points="573.809,-75.5001 563.809,-79 573.809,-82.5001 573.809,-75.5001"/>
</g>
<!-- Node5 -->
<g id="node5" class="node"><title>Node5</title>
<g id="a_node5"><a xlink:href="../../d6/d7b/classcontroller_1_1_cell_society_controller.html#a41b6379d34f94114f5ada21e3bb8b52e" target="_top" xlink:title="controller.CellSocietyController.generateGrid">
<polygon fill="white" stroke="black" points="846,-91.5 846,-110.5 1074,-110.5 1074,-91.5 846,-91.5"/>
<text text-anchor="middle" x="960" y="-98.5" font-family="Helvetica,sans-Serif" font-size="10.00">controller.CellSocietyController.generateGrid</text>
</a>
</g>
</g>
<!-- Node4&#45;&gt;Node5 -->
<g id="edge4" class="edge"><title>Node4&#45;&gt;Node5</title>
<path fill="none" stroke="midnightblue" d="M820.176,-88.9283C829.985,-89.7813 839.893,-90.6429 849.663,-91.4924"/>
<polygon fill="midnightblue" stroke="midnightblue" points="820.266,-85.423 810,-88.0435 819.659,-92.3967 820.266,-85.423"/>
</g>
<!-- Node15 -->
<g id="node15" class="node"><title>Node15</title>
<g id="a_node15"><a xlink:href="../../d6/d7b/classcontroller_1_1_cell_society_controller.html#a643c7ac22f2822fa7e492dbf4267ed21" target="_top" xlink:title="controller.CellSocietyController.readXML">
<polygon fill="white" stroke="black" points="857,-47.5 857,-66.5 1063,-66.5 1063,-47.5 857,-47.5"/>
<text text-anchor="middle" x="960" y="-54.5" font-family="Helvetica,sans-Serif" font-size="10.00">controller.CellSocietyController.readXML</text>
</a>
</g>
</g>
<!-- Node4&#45;&gt;Node15 -->
<g id="edge16" class="edge"><title>Node4&#45;&gt;Node15</title>
<path fill="none" stroke="midnightblue" d="M820.163,-69.0728C832.316,-68.016 844.623,-66.9458 856.629,-65.9019"/>
<polygon fill="midnightblue" stroke="midnightblue" points="819.659,-65.6033 810,-69.9565 820.266,-72.577 819.659,-65.6033"/>
</g>
<!-- Node6 -->
<g id="node6" class="node"><title>Node6</title>
<g id="a_node6"><a xlink:href="../../d6/d7b/classcontroller_1_1_cell_society_controller.html#ada30fdc135cdf08b93065edf15ed3fcc" target="_top" xlink:title="controller.CellSocietyController.generate\lProbabilityRandomGrid">
<polygon fill="white" stroke="black" points="1110.5,-130 1110.5,-160 1319.5,-160 1319.5,-130 1110.5,-130"/>
<text text-anchor="start" x="1118.5" y="-148" font-family="Helvetica,sans-Serif" font-size="10.00">controller.CellSocietyController.generate</text>
<text text-anchor="middle" x="1215" y="-137" font-family="Helvetica,sans-Serif" font-size="10.00">ProbabilityRandomGrid</text>
</a>
</g>
</g>
<!-- Node5&#45;&gt;Node6 -->
<g id="edge5" class="edge"><title>Node5&#45;&gt;Node6</title>
<path fill="none" stroke="midnightblue" d="M1026.09,-112.32C1056.93,-117.683 1094.19,-124.163 1127.37,-129.935"/>
<polygon fill="midnightblue" stroke="midnightblue" points="1026.35,-108.813 1015.9,-110.547 1025.15,-115.709 1026.35,-108.813"/>
</g>
<!-- Node14 -->
<g id="node14" class="node"><title>Node14</title>
<g id="a_node14"><a xlink:href="../../d6/d7b/classcontroller_1_1_cell_society_controller.html#ab65a8810efbc2b92e17ca77cdc591df9" target="_top" xlink:title="controller.CellSocietyController.generate\lRandomGrid">
<polygon fill="white" stroke="black" points="1356.5,-86 1356.5,-116 1565.5,-116 1565.5,-86 1356.5,-86"/>
<text text-anchor="start" x="1364.5" y="-104" font-family="Helvetica,sans-Serif" font-size="10.00">controller.CellSocietyController.generate</text>
<text text-anchor="middle" x="1461" y="-93" font-family="Helvetica,sans-Serif" font-size="10.00">RandomGrid</text>
</a>
</g>
</g>
<!-- Node5&#45;&gt;Node14 -->
<g id="edge14" class="edge"><title>Node5&#45;&gt;Node14</title>
<path fill="none" stroke="midnightblue" d="M1084.29,-101C1167.84,-101 1277.03,-101 1356.15,-101"/>
<polygon fill="midnightblue" stroke="midnightblue" points="1084.23,-97.5001 1074.23,-101 1084.23,-104.5 1084.23,-97.5001"/>
</g>
<!-- Node7 -->
<g id="node7" class="node"><title>Node7</title>
<g id="a_node7"><a xlink:href="../../dd/d02/classview_1_1_splash_screen.html#a05478a56856d70fd9508d79ca484fbca" target="_top" xlink:title="view.SplashScreen.addProbabilityText">
<polygon fill="white" stroke="black" points="1364,-135.5 1364,-154.5 1558,-154.5 1558,-135.5 1364,-135.5"/>
<text text-anchor="middle" x="1461" y="-142.5" font-family="Helvetica,sans-Serif" font-size="10.00">view.SplashScreen.addProbabilityText</text>
</a>
</g>
</g>
<!-- Node6&#45;&gt;Node7 -->
<g id="edge6" class="edge"><title>Node6&#45;&gt;Node7</title>
<path fill="none" stroke="midnightblue" d="M1330.09,-145C1341.31,-145 1352.61,-145 1363.62,-145"/>
<polygon fill="midnightblue" stroke="midnightblue" points="1329.83,-141.5 1319.83,-145 1329.83,-148.5 1329.83,-141.5"/>
</g>
<!-- Node8 -->
<g id="node8" class="node"><title>Node8</title>
<g id="a_node8"><a xlink:href="../../dd/d02/classview_1_1_splash_screen.html#a2f8c52e9a2a790459e51d5d42f16f7da" target="_top" xlink:title="view.SplashScreen.display\lAskInformatio">
<polygon fill="white" stroke="black" points="1615.5,-90 1615.5,-120 1756.5,-120 1756.5,-90 1615.5,-90"/>
<text text-anchor="start" x="1623.5" y="-108" font-family="Helvetica,sans-Serif" font-size="10.00">view.SplashScreen.display</text>
<text text-anchor="middle" x="1686" y="-97" font-family="Helvetica,sans-Serif" font-size="10.00">AskInformatio</text>
</a>
</g>
</g>
<!-- Node7&#45;&gt;Node8 -->
<g id="edge7" class="edge"><title>Node7&#45;&gt;Node8</title>
<path fill="none" stroke="midnightblue" d="M1525.24,-133.656C1553.37,-128.611 1586.56,-122.657 1615.39,-117.486"/>
<polygon fill="midnightblue" stroke="midnightblue" points="1524.36,-130.259 1515.13,-135.47 1525.59,-137.149 1524.36,-130.259"/>
</g>
<!-- Node9 -->
<g id="node9" class="node"><title>Node9</title>
<g id="a_node9"><a xlink:href="../../dd/d02/classview_1_1_splash_screen.html#ad94d9edd23f270a5f480fd54a06d72f3" target="_top" xlink:title="view.SplashScreen.addProbablity\lButton">
<polygon fill="white" stroke="black" points="1806.5,-93 1806.5,-123 1979.5,-123 1979.5,-93 1806.5,-93"/>
<text text-anchor="start" x="1814.5" y="-111" font-family="Helvetica,sans-Serif" font-size="10.00">view.SplashScreen.addProbablity</text>
<text text-anchor="middle" x="1893" y="-100" font-family="Helvetica,sans-Serif" font-size="10.00">Button</text>
</a>
</g>
</g>
<!-- Node8&#45;&gt;Node9 -->
<g id="edge8" class="edge"><title>Node8&#45;&gt;Node9</title>
<path fill="none" stroke="midnightblue" d="M1766.89,-106.169C1779.77,-106.358 1793.15,-106.553 1806.16,-106.744"/>
<polygon fill="midnightblue" stroke="midnightblue" points="1766.74,-102.667 1756.69,-106.02 1766.64,-109.666 1766.74,-102.667"/>
</g>
<!-- Node13 -->
<g id="node13" class="node"><title>Node13</title>
<g id="a_node13"><a xlink:href="../../dd/d02/classview_1_1_splash_screen.html#a17ba24f5ed477a37ea527710e54d65c8" target="_top" xlink:title="view.SplashScreen.addRandom\lButton">
<polygon fill="white" stroke="black" points="1810,-44 1810,-74 1976,-74 1976,-44 1810,-44"/>
<text text-anchor="start" x="1818" y="-62" font-family="Helvetica,sans-Serif" font-size="10.00">view.SplashScreen.addRandom</text>
<text text-anchor="middle" x="1893" y="-51" font-family="Helvetica,sans-Serif" font-size="10.00">Button</text>
</a>
</g>
</g>
<!-- Node8&#45;&gt;Node13 -->
<g id="edge12" class="edge"><title>Node8&#45;&gt;Node13</title>
<path fill="none" stroke="midnightblue" d="M1764.15,-87.6887C1784.19,-83.1918 1805.61,-78.3853 1825.07,-74.0174"/>
<polygon fill="midnightblue" stroke="midnightblue" points="1763.12,-84.3333 1754.12,-89.9379 1764.65,-91.1634 1763.12,-84.3333"/>
</g>
<!-- Node10 -->
<g id="node10" class="node"><title>Node10</title>
<g id="a_node10"><a xlink:href="../../dd/d02/classview_1_1_splash_screen.html#a6ff42b7dad4e546981a3266f9d694f5a" target="_top" xlink:title="view.SplashScreen.getNode">
<polygon fill="white" stroke="black" points="2016.5,-49.5 2016.5,-68.5 2165.5,-68.5 2165.5,-49.5 2016.5,-49.5"/>
<text text-anchor="middle" x="2091" y="-56.5" font-family="Helvetica,sans-Serif" font-size="10.00">view.SplashScreen.getNode</text>
</a>
</g>
</g>
<!-- Node9&#45;&gt;Node10 -->
<g id="edge9" class="edge"><title>Node9&#45;&gt;Node10</title>
<path fill="none" stroke="midnightblue" d="M1964.02,-90.4952C1993.63,-83.0935 2026.95,-74.762 2051.89,-68.528"/>
<polygon fill="midnightblue" stroke="midnightblue" points="1962.99,-87.1445 1954.14,-92.9654 1964.69,-93.9355 1962.99,-87.1445"/>
</g>
<!-- Node11 -->
<g id="node11" class="node"><title>Node11</title>
<g id="a_node11"><a xlink:href="../../d6/d7b/classcontroller_1_1_cell_society_controller.html#a3f78125e5b809d88d3cf7ed20b3756c2" target="_top" xlink:title="controller.CellSocietyController.display\lSplashScreen">
<polygon fill="white" stroke="black" points="2202,-44 2202,-74 2400,-74 2400,-44 2202,-44"/>
<text text-anchor="start" x="2210" y="-62" font-family="Helvetica,sans-Serif" font-size="10.00">controller.CellSocietyController.display</text>
<text text-anchor="middle" x="2301" y="-51" font-family="Helvetica,sans-Serif" font-size="10.00">SplashScreen</text>
</a>
</g>
</g>
<!-- Node10&#45;&gt;Node11 -->
<g id="edge10" class="edge"><title>Node10&#45;&gt;Node11</title>
<path fill="none" stroke="midnightblue" d="M2175.88,-59C2184.38,-59 2193.07,-59 2201.7,-59"/>
<polygon fill="midnightblue" stroke="midnightblue" points="2175.63,-55.5001 2165.63,-59 2175.63,-62.5001 2175.63,-55.5001"/>
</g>
<!-- Node12 -->
<g id="node12" class="node"><title>Node12</title>
<g id="a_node12"><a xlink:href="../../d6/d7b/classcontroller_1_1_cell_society_controller.html#a6a2310de67e415512149c94c9f36e356" target="_top" xlink:title="controller.CellSocietyController.\lCellSocietyController">
<polygon fill="white" stroke="black" points="2436.5,-44 2436.5,-74 2601.5,-74 2601.5,-44 2436.5,-44"/>
<text text-anchor="start" x="2444.5" y="-62" font-family="Helvetica,sans-Serif" font-size="10.00">controller.CellSocietyController.</text>
<text text-anchor="middle" x="2519" y="-51" font-family="Helvetica,sans-Serif" font-size="10.00">CellSocietyController</text>
</a>
</g>
</g>
<!-- Node11&#45;&gt;Node12 -->
<g id="edge11" class="edge"><title>Node11&#45;&gt;Node12</title>
<path fill="none" stroke="midnightblue" d="M2410.38,-59C2419.07,-59 2427.75,-59 2436.2,-59"/>
<polygon fill="midnightblue" stroke="midnightblue" points="2410.2,-55.5001 2400.2,-59 2410.2,-62.5001 2410.2,-55.5001"/>
</g>
<!-- Node13&#45;&gt;Node10 -->
<g id="edge13" class="edge"><title>Node13&#45;&gt;Node10</title>
<path fill="none" stroke="midnightblue" d="M1986.31,-59C1996.39,-59 2006.55,-59 2016.36,-59"/>
<polygon fill="midnightblue" stroke="midnightblue" points="1986.27,-55.5001 1976.27,-59 1986.27,-62.5001 1986.27,-55.5001"/>
</g>
<!-- Node14&#45;&gt;Node8 -->
<g id="edge15" class="edge"><title>Node14&#45;&gt;Node8</title>
<path fill="none" stroke="midnightblue" d="M1575.94,-103.044C1589.38,-103.285 1602.78,-103.525 1615.34,-103.75"/>
<polygon fill="midnightblue" stroke="midnightblue" points="1575.73,-99.5395 1565.67,-102.859 1575.6,-106.538 1575.73,-99.5395"/>
</g>
<!-- Node16 -->
<g id="node16" class="node"><title>Node16</title>
<g id="a_node16"><a xlink:href="../../d6/d7b/classcontroller_1_1_cell_society_controller.html#afbdf9a63e15a2bfa878dcfe5ed3ef6dc" target="_top" xlink:title="controller.CellSocietyController.transition\lToFileLoaderScreen">
<polygon fill="white" stroke="black" points="1110,-42 1110,-72 1320,-72 1320,-42 1110,-42"/>
<text text-anchor="start" x="1118" y="-60" font-family="Helvetica,sans-Serif" font-size="10.00">controller.CellSocietyController.transition</text>
<text text-anchor="middle" x="1215" y="-49" font-family="Helvetica,sans-Serif" font-size="10.00">ToFileLoaderScreen</text>
</a>
</g>
</g>
<!-- Node15&#45;&gt;Node16 -->
<g id="edge17" class="edge"><title>Node15&#45;&gt;Node16</title>
<path fill="none" stroke="midnightblue" d="M1073.32,-50.2879C1085.45,-50.2228 1097.76,-50.2416 1109.79,-50.3441"/>
<polygon fill="midnightblue" stroke="midnightblue" points="1073.15,-46.7889 1063.18,-50.3622 1073.2,-53.7887 1073.15,-46.7889"/>
</g>
<!-- Node16&#45;&gt;Node15 -->
<g id="edge22" class="edge"><title>Node16&#45;&gt;Node15</title>
<path fill="none" stroke="midnightblue" d="M1099.63,-63.7223C1087.48,-63.7779 1075.18,-63.7497 1063.18,-63.6378"/>
<polygon fill="midnightblue" stroke="midnightblue" points="1099.82,-67.2213 1109.79,-63.6559 1099.77,-60.2214 1099.82,-67.2213"/>
</g>
<!-- Node17 -->
<g id="node17" class="node"><title>Node17</title>
<g id="a_node17"><a xlink:href="../../d3/d48/classview_1_1_top_menu.html#af56bae78812baf114a9ed49ad52694df" target="_top" xlink:title="view.TopMenu.addLoadButton">
<polygon fill="white" stroke="black" points="1382,-47.5 1382,-66.5 1540,-66.5 1540,-47.5 1382,-47.5"/>
<text text-anchor="middle" x="1461" y="-54.5" font-family="Helvetica,sans-Serif" font-size="10.00">view.TopMenu.addLoadButton</text>
</a>
</g>
</g>
<!-- Node16&#45;&gt;Node17 -->
<g id="edge18" class="edge"><title>Node16&#45;&gt;Node17</title>
<path fill="none" stroke="midnightblue" d="M1330.37,-57C1347.72,-57 1365.28,-57 1381.63,-57"/>
<polygon fill="midnightblue" stroke="midnightblue" points="1330.19,-53.5001 1320.19,-57 1330.19,-60.5001 1330.19,-53.5001"/>
</g>
<!-- Node19 -->
<g id="node19" class="node"><title>Node19</title>
<g id="a_node19"><a xlink:href="../../dd/d02/classview_1_1_splash_screen.html#a652092fc5c5862cee4ff84bf231646ab" target="_top" xlink:title="view.SplashScreen.addLoad\lButton">
<polygon fill="white" stroke="black" points="1611.5,-0 1611.5,-30 1760.5,-30 1760.5,-0 1611.5,-0"/>
<text text-anchor="start" x="1619.5" y="-18" font-family="Helvetica,sans-Serif" font-size="10.00">view.SplashScreen.addLoad</text>
<text text-anchor="middle" x="1686" y="-7" font-family="Helvetica,sans-Serif" font-size="10.00">Button</text>
</a>
</g>
</g>
<!-- Node16&#45;&gt;Node19 -->
<g id="edge20" class="edge"><title>Node16&#45;&gt;Node19</title>
<path fill="none" stroke="midnightblue" d="M1330.42,-40.8513C1339.07,-39.8208 1347.67,-38.8555 1356,-38 1443.57,-29.0061 1544.63,-22.5193 1611.38,-18.7722"/>
<polygon fill="midnightblue" stroke="midnightblue" points="1329.77,-37.4053 1320.26,-42.0884 1330.61,-44.3539 1329.77,-37.4053"/>
</g>
<!-- Node18 -->
<g id="node18" class="node"><title>Node18</title>
<g id="a_node18"><a xlink:href="../../d3/d48/classview_1_1_top_menu.html#a4442589b1733d6ad662c92700f27018e" target="_top" xlink:title="view.TopMenu.createTopButtons">
<polygon fill="white" stroke="black" points="1602,-49.5 1602,-68.5 1770,-68.5 1770,-49.5 1602,-49.5"/>
<text text-anchor="middle" x="1686" y="-56.5" font-family="Helvetica,sans-Serif" font-size="10.00">view.TopMenu.createTopButtons</text>
</a>
</g>
</g>
<!-- Node17&#45;&gt;Node18 -->
<g id="edge19" class="edge"><title>Node17&#45;&gt;Node18</title>
<path fill="none" stroke="midnightblue" d="M1550.72,-57.7957C1567.62,-57.9473 1585.25,-58.1053 1601.96,-58.2552"/>
<polygon fill="midnightblue" stroke="midnightblue" points="1550.34,-54.2922 1540.31,-57.7023 1550.28,-61.2919 1550.34,-54.2922"/>
</g>
<!-- Node19&#45;&gt;Node10 -->
<g id="edge21" class="edge"><title>Node19&#45;&gt;Node10</title>
<path fill="none" stroke="midnightblue" d="M1771.14,-16.9173C1829.9,-19.1192 1910.04,-23.8478 1980,-34 2005.2,-37.6564 2033.17,-44.0461 2054.6,-49.4502"/>
<polygon fill="midnightblue" stroke="midnightblue" points="1770.91,-13.4069 1760.79,-16.5473 1770.66,-20.4025 1770.91,-13.4069"/>
</g>
</g>
</svg>
