<?xml version="1.0" encoding="UTF-8" standalone="no"?>
<!DOCTYPE svg PUBLIC "-//W3C//DTD SVG 1.1//EN"
 "http://www.w3.org/Graphics/SVG/1.1/DTD/svg11.dtd">
<!-- Generated by graphviz version 2.36.0 (20140111.2315)
 -->
<!-- Title: view.SimulationScreen.getNode Pages: 1 -->
<svg width="2454pt" height="168pt"
 viewBox="0.00 0.00 2454.00 168.00" xmlns="http://www.w3.org/2000/svg" xmlns:xlink="http://www.w3.org/1999/xlink">
<g id="graph0" class="graph" transform="scale(1 1) rotate(0) translate(4 164)">
<title>view.SimulationScreen.getNode</title>
<polygon fill="white" stroke="none" points="-4,4 -4,-164 2450,-164 2450,4 -4,4"/>
<!-- Node1 -->
<g id="node1" class="node"><title>Node1</title>
<polygon fill="#bfbfbf" stroke="black" points="0,-69.5 0,-88.5 168,-88.5 168,-69.5 0,-69.5"/>
<text text-anchor="middle" x="84" y="-76.5" font-family="Helvetica,sans-Serif" font-size="10.00">view.SimulationScreen.getNode</text>
</g>
<!-- Node2 -->
<g id="node2" class="node"><title>Node2</title>
<g id="a_node2"><a xlink:href="../../d6/d7b/classcontroller_1_1_cell_society_controller.html#af6b4eb647c4e76fef6f27cc61ced4d9a" target="_top" xlink:title="controller.CellSocietyController.initialize\lSimulationScreen">
<polygon fill="white" stroke="black" points="204.5,-64 204.5,-94 407.5,-94 407.5,-64 204.5,-64"/>
<text text-anchor="start" x="212.5" y="-82" font-family="Helvetica,sans-Serif" font-size="10.00">controller.CellSocietyController.initialize</text>
<text text-anchor="middle" x="306" y="-71" font-family="Helvetica,sans-Serif" font-size="10.00">SimulationScreen</text>
</a>
</g>
</g>
<!-- Node1&#45;&gt;Node2 -->
<g id="edge1" class="edge"><title>Node1&#45;&gt;Node2</title>
<path fill="none" stroke="midnightblue" d="M178.222,-79C186.85,-79 195.618,-79 204.308,-79"/>
<polygon fill="midnightblue" stroke="midnightblue" points="178.173,-75.5001 168.173,-79 178.173,-82.5001 178.173,-75.5001"/>
</g>
<!-- Node3 -->
<g id="node3" class="node"><title>Node3</title>
<g id="a_node3"><a xlink:href="../../d6/d7b/classcontroller_1_1_cell_society_controller.html#a3d913ad3344ac48e887110e2fabb5746" target="_top" xlink:title="controller.CellSocietyController.transition\lToSimulation">
<polygon fill="white" stroke="black" points="444,-64 444,-94 654,-94 654,-64 444,-64"/>
<text text-anchor="start" x="452" y="-82" font-family="Helvetica,sans-Serif" font-size="10.00">controller.CellSocietyController.transition</text>
<text text-anchor="middle" x="549" y="-71" font-family="Helvetica,sans-Serif" font-size="10.00">ToSimulation</text>
</a>
</g>
</g>
<!-- Node2&#45;&gt;Node3 -->
<g id="edge2" class="edge"><title>Node2&#45;&gt;Node3</title>
<path fill="none" stroke="midnightblue" d="M417.873,-79C426.481,-79 435.155,-79 443.717,-79"/>
<polygon fill="midnightblue" stroke="midnightblue" points="417.809,-75.5001 407.809,-79 417.809,-82.5001 417.809,-75.5001"/>
</g>
<!-- Node4 -->
<g id="node4" class="node"><title>Node4</title>
<g id="a_node4"><a xlink:href="../../d6/d7b/classcontroller_1_1_cell_society_controller.html#a41b6379d34f94114f5ada21e3bb8b52e" target="_top" xlink:title="controller.CellSocietyController.generateGrid">
<polygon fill="white" stroke="black" points="690,-91.5 690,-110.5 918,-110.5 918,-91.5 690,-91.5"/>
<text text-anchor="middle" x="804" y="-98.5" font-family="Helvetica,sans-Serif" font-size="10.00">controller.CellSocietyController.generateGrid</text>
</a>
</g>
</g>
<!-- Node3&#45;&gt;Node4 -->
<g id="edge3" class="edge"><title>Node3&#45;&gt;Node4</title>
<path fill="none" stroke="midnightblue" d="M664.176,-88.9283C673.985,-89.7813 683.893,-90.6429 693.663,-91.4924"/>
<polygon fill="midnightblue" stroke="midnightblue" points="664.266,-85.423 654,-88.0435 663.659,-92.3967 664.266,-85.423"/>
</g>
<!-- Node14 -->
<g id="node14" class="node"><title>Node14</title>
<g id="a_node14"><a xlink:href="../../d6/d7b/classcontroller_1_1_cell_society_controller.html#a643c7ac22f2822fa7e492dbf4267ed21" target="_top" xlink:title="controller.CellSocietyController.readXML">
<polygon fill="white" stroke="black" points="701,-47.5 701,-66.5 907,-66.5 907,-47.5 701,-47.5"/>
<text text-anchor="middle" x="804" y="-54.5" font-family="Helvetica,sans-Serif" font-size="10.00">controller.CellSocietyController.readXML</text>
</a>
</g>
</g>
<!-- Node3&#45;&gt;Node14 -->
<g id="edge15" class="edge"><title>Node3&#45;&gt;Node14</title>
<path fill="none" stroke="midnightblue" d="M664.163,-69.0728C676.316,-68.016 688.623,-66.9458 700.629,-65.9019"/>
<polygon fill="midnightblue" stroke="midnightblue" points="663.659,-65.6033 654,-69.9565 664.266,-72.577 663.659,-65.6033"/>
</g>
<!-- Node5 -->
<g id="node5" class="node"><title>Node5</title>
<g id="a_node5"><a xlink:href="../../d6/d7b/classcontroller_1_1_cell_society_controller.html#ada30fdc135cdf08b93065edf15ed3fcc" target="_top" xlink:title="controller.CellSocietyController.generate\lProbabilityRandomGrid">
<polygon fill="white" stroke="black" points="954.5,-130 954.5,-160 1163.5,-160 1163.5,-130 954.5,-130"/>
<text text-anchor="start" x="962.5" y="-148" font-family="Helvetica,sans-Serif" font-size="10.00">controller.CellSocietyController.generate</text>
<text text-anchor="middle" x="1059" y="-137" font-family="Helvetica,sans-Serif" font-size="10.00">ProbabilityRandomGrid</text>
</a>
</g>
</g>
<!-- Node4&#45;&gt;Node5 -->
<g id="edge4" class="edge"><title>Node4&#45;&gt;Node5</title>
<path fill="none" stroke="midnightblue" d="M870.093,-112.32C900.928,-117.683 938.19,-124.163 971.374,-129.935"/>
<polygon fill="midnightblue" stroke="midnightblue" points="870.349,-108.813 859.897,-110.547 869.15,-115.709 870.349,-108.813"/>
</g>
<!-- Node13 -->
<g id="node13" class="node"><title>Node13</title>
<g id="a_node13"><a xlink:href="../../d6/d7b/classcontroller_1_1_cell_society_controller.html#ab65a8810efbc2b92e17ca77cdc591df9" target="_top" xlink:title="controller.CellSocietyController.generate\lRandomGrid">
<polygon fill="white" stroke="black" points="1200.5,-86 1200.5,-116 1409.5,-116 1409.5,-86 1200.5,-86"/>
<text text-anchor="start" x="1208.5" y="-104" font-family="Helvetica,sans-Serif" font-size="10.00">controller.CellSocietyController.generate</text>
<text text-anchor="middle" x="1305" y="-93" font-family="Helvetica,sans-Serif" font-size="10.00">RandomGrid</text>
</a>
</g>
</g>
<!-- Node4&#45;&gt;Node13 -->
<g id="edge13" class="edge"><title>Node4&#45;&gt;Node13</title>
<path fill="none" stroke="midnightblue" d="M928.289,-101C1011.84,-101 1121.03,-101 1200.15,-101"/>
<polygon fill="midnightblue" stroke="midnightblue" points="928.231,-97.5001 918.231,-101 928.231,-104.5 928.231,-97.5001"/>
</g>
<!-- Node6 -->
<g id="node6" class="node"><title>Node6</title>
<g id="a_node6"><a xlink:href="../../dd/d02/classview_1_1_splash_screen.html#a05478a56856d70fd9508d79ca484fbca" target="_top" xlink:title="view.SplashScreen.addProbabilityText">
<polygon fill="white" stroke="black" points="1208,-135.5 1208,-154.5 1402,-154.5 1402,-135.5 1208,-135.5"/>
<text text-anchor="middle" x="1305" y="-142.5" font-family="Helvetica,sans-Serif" font-size="10.00">view.SplashScreen.addProbabilityText</text>
</a>
</g>
</g>
<!-- Node5&#45;&gt;Node6 -->
<g id="edge5" class="edge"><title>Node5&#45;&gt;Node6</title>
<path fill="none" stroke="midnightblue" d="M1174.09,-145C1185.31,-145 1196.61,-145 1207.62,-145"/>
<polygon fill="midnightblue" stroke="midnightblue" points="1173.83,-141.5 1163.83,-145 1173.83,-148.5 1173.83,-141.5"/>
</g>
<!-- Node7 -->
<g id="node7" class="node"><title>Node7</title>
<g id="a_node7"><a xlink:href="../../dd/d02/classview_1_1_splash_screen.html#a2f8c52e9a2a790459e51d5d42f16f7da" target="_top" xlink:title="view.SplashScreen.display\lAskInformatio">
<polygon fill="white" stroke="black" points="1459.5,-90 1459.5,-120 1600.5,-120 1600.5,-90 1459.5,-90"/>
<text text-anchor="start" x="1467.5" y="-108" font-family="Helvetica,sans-Serif" font-size="10.00">view.SplashScreen.display</text>
<text text-anchor="middle" x="1530" y="-97" font-family="Helvetica,sans-Serif" font-size="10.00">AskInformatio</text>
</a>
</g>
</g>
<!-- Node6&#45;&gt;Node7 -->
<g id="edge6" class="edge"><title>Node6&#45;&gt;Node7</title>
<path fill="none" stroke="midnightblue" d="M1369.24,-133.656C1397.37,-128.611 1430.56,-122.657 1459.39,-117.486"/>
<polygon fill="midnightblue" stroke="midnightblue" points="1368.36,-130.259 1359.13,-135.47 1369.59,-137.149 1368.36,-130.259"/>
</g>
<!-- Node8 -->
<g id="node8" class="node"><title>Node8</title>
<g id="a_node8"><a xlink:href="../../dd/d02/classview_1_1_splash_screen.html#ad94d9edd23f270a5f480fd54a06d72f3" target="_top" xlink:title="view.SplashScreen.addProbablity\lButton">
<polygon fill="white" stroke="black" points="1650.5,-93 1650.5,-123 1823.5,-123 1823.5,-93 1650.5,-93"/>
<text text-anchor="start" x="1658.5" y="-111" font-family="Helvetica,sans-Serif" font-size="10.00">view.SplashScreen.addProbablity</text>
<text text-anchor="middle" x="1737" y="-100" font-family="Helvetica,sans-Serif" font-size="10.00">Button</text>
</a>
</g>
</g>
<!-- Node7&#45;&gt;Node8 -->
<g id="edge7" class="edge"><title>Node7&#45;&gt;Node8</title>
<path fill="none" stroke="midnightblue" d="M1610.89,-106.169C1623.77,-106.358 1637.15,-106.553 1650.16,-106.744"/>
<polygon fill="midnightblue" stroke="midnightblue" points="1610.74,-102.667 1600.69,-106.02 1610.64,-109.666 1610.74,-102.667"/>
</g>
<!-- Node12 -->
<g id="node12" class="node"><title>Node12</title>
<g id="a_node12"><a xlink:href="../../dd/d02/classview_1_1_splash_screen.html#a17ba24f5ed477a37ea527710e54d65c8" target="_top" xlink:title="view.SplashScreen.addRandom\lButton">
<polygon fill="white" stroke="black" points="1654,-44 1654,-74 1820,-74 1820,-44 1654,-44"/>
<text text-anchor="start" x="1662" y="-62" font-family="Helvetica,sans-Serif" font-size="10.00">view.SplashScreen.addRandom</text>
<text text-anchor="middle" x="1737" y="-51" font-family="Helvetica,sans-Serif" font-size="10.00">Button</text>
</a>
</g>
</g>
<!-- Node7&#45;&gt;Node12 -->
<g id="edge11" class="edge"><title>Node7&#45;&gt;Node12</title>
<path fill="none" stroke="midnightblue" d="M1608.15,-87.6887C1628.19,-83.1918 1649.61,-78.3853 1669.07,-74.0174"/>
<polygon fill="midnightblue" stroke="midnightblue" points="1607.12,-84.3333 1598.12,-89.9379 1608.65,-91.1634 1607.12,-84.3333"/>
</g>
<!-- Node9 -->
<g id="node9" class="node"><title>Node9</title>
<g id="a_node9"><a xlink:href="../../dd/d02/classview_1_1_splash_screen.html#a6ff42b7dad4e546981a3266f9d694f5a" target="_top" xlink:title="view.SplashScreen.getNode">
<polygon fill="white" stroke="black" points="1860.5,-49.5 1860.5,-68.5 2009.5,-68.5 2009.5,-49.5 1860.5,-49.5"/>
<text text-anchor="middle" x="1935" y="-56.5" font-family="Helvetica,sans-Serif" font-size="10.00">view.SplashScreen.getNode</text>
</a>
</g>
</g>
<!-- Node8&#45;&gt;Node9 -->
<g id="edge8" class="edge"><title>Node8&#45;&gt;Node9</title>
<path fill="none" stroke="midnightblue" d="M1808.02,-90.4952C1837.63,-83.0935 1870.95,-74.762 1895.89,-68.528"/>
<polygon fill="midnightblue" stroke="midnightblue" points="1806.99,-87.1445 1798.14,-92.9654 1808.69,-93.9355 1806.99,-87.1445"/>
</g>
<!-- Node10 -->
<g id="node10" class="node"><title>Node10</title>
<g id="a_node10"><a xlink:href="../../d6/d7b/classcontroller_1_1_cell_society_controller.html#a3f78125e5b809d88d3cf7ed20b3756c2" target="_top" xlink:title="controller.CellSocietyController.display\lSplashScreen">
<polygon fill="white" stroke="black" points="2046,-44 2046,-74 2244,-74 2244,-44 2046,-44"/>
<text text-anchor="start" x="2054" y="-62" font-family="Helvetica,sans-Serif" font-size="10.00">controller.CellSocietyController.display</text>
<text text-anchor="middle" x="2145" y="-51" font-family="Helvetica,sans-Serif" font-size="10.00">SplashScreen</text>
</a>
</g>
</g>
<!-- Node9&#45;&gt;Node10 -->
<g id="edge9" class="edge"><title>Node9&#45;&gt;Node10</title>
<path fill="none" stroke="midnightblue" d="M2019.88,-59C2028.38,-59 2037.07,-59 2045.7,-59"/>
<polygon fill="midnightblue" stroke="midnightblue" points="2019.63,-55.5001 2009.63,-59 2019.63,-62.5001 2019.63,-55.5001"/>
</g>
<!-- Node11 -->
<g id="node11" class="node"><title>Node11</title>
<g id="a_node11"><a xlink:href="../../d6/d7b/classcontroller_1_1_cell_society_controller.html#a6a2310de67e415512149c94c9f36e356" target="_top" xlink:title="controller.CellSocietyController.\lCellSocietyController">
<polygon fill="white" stroke="black" points="2280.5,-44 2280.5,-74 2445.5,-74 2445.5,-44 2280.5,-44"/>
<text text-anchor="start" x="2288.5" y="-62" font-family="Helvetica,sans-Serif" font-size="10.00">controller.CellSocietyController.</text>
<text text-anchor="middle" x="2363" y="-51" font-family="Helvetica,sans-Serif" font-size="10.00">CellSocietyController</text>
</a>
</g>
</g>
<!-- Node10&#45;&gt;Node11 -->
<g id="edge10" class="edge"><title>Node10&#45;&gt;Node11</title>
<path fill="none" stroke="midnightblue" d="M2254.38,-59C2263.07,-59 2271.75,-59 2280.2,-59"/>
<polygon fill="midnightblue" stroke="midnightblue" points="2254.2,-55.5001 2244.2,-59 2254.2,-62.5001 2254.2,-55.5001"/>
</g>
<!-- Node12&#45;&gt;Node9 -->
<g id="edge12" class="edge"><title>Node12&#45;&gt;Node9</title>
<path fill="none" stroke="midnightblue" d="M1830.31,-59C1840.39,-59 1850.55,-59 1860.36,-59"/>
<polygon fill="midnightblue" stroke="midnightblue" points="1830.27,-55.5001 1820.27,-59 1830.27,-62.5001 1830.27,-55.5001"/>
</g>
<!-- Node13&#45;&gt;Node7 -->
<g id="edge14" class="edge"><title>Node13&#45;&gt;Node7</title>
<path fill="none" stroke="midnightblue" d="M1419.94,-103.044C1433.38,-103.285 1446.78,-103.525 1459.34,-103.75"/>
<polygon fill="midnightblue" stroke="midnightblue" points="1419.73,-99.5395 1409.67,-102.859 1419.6,-106.538 1419.73,-99.5395"/>
</g>
<!-- Node15 -->
<g id="node15" class="node"><title>Node15</title>
<g id="a_node15"><a xlink:href="../../d6/d7b/classcontroller_1_1_cell_society_controller.html#afbdf9a63e15a2bfa878dcfe5ed3ef6dc" target="_top" xlink:title="controller.CellSocietyController.transition\lToFileLoaderScreen">
<polygon fill="white" stroke="black" points="954,-42 954,-72 1164,-72 1164,-42 954,-42"/>
<text text-anchor="start" x="962" y="-60" font-family="Helvetica,sans-Serif" font-size="10.00">controller.CellSocietyController.transition</text>
<text text-anchor="middle" x="1059" y="-49" font-family="Helvetica,sans-Serif" font-size="10.00">ToFileLoaderScreen</text>
</a>
</g>
</g>
<!-- Node14&#45;&gt;Node15 -->
<g id="edge16" class="edge"><title>Node14&#45;&gt;Node15</title>
<path fill="none" stroke="midnightblue" d="M917.317,-50.2879C929.451,-50.2228 941.762,-50.2416 953.794,-50.3441"/>
<polygon fill="midnightblue" stroke="midnightblue" points="917.15,-46.7889 907.176,-50.3622 917.201,-53.7887 917.15,-46.7889"/>
</g>
<!-- Node15&#45;&gt;Node14 -->
<g id="edge21" class="edge"><title>Node15&#45;&gt;Node14</title>
<path fill="none" stroke="midnightblue" d="M943.632,-63.7223C931.479,-63.7779 919.175,-63.7497 907.176,-63.6378"/>
<polygon fill="midnightblue" stroke="midnightblue" points="943.818,-67.2213 953.794,-63.6559 943.772,-60.2214 943.818,-67.2213"/>
</g>
<!-- Node16 -->
<g id="node16" class="node"><title>Node16</title>
<g id="a_node16"><a xlink:href="../../d3/d48/classview_1_1_top_menu.html#af56bae78812baf114a9ed49ad52694df" target="_top" xlink:title="view.TopMenu.addLoadButton">
<polygon fill="white" stroke="black" points="1226,-47.5 1226,-66.5 1384,-66.5 1384,-47.5 1226,-47.5"/>
<text text-anchor="middle" x="1305" y="-54.5" font-family="Helvetica,sans-Serif" font-size="10.00">view.TopMenu.addLoadButton</text>
</a>
</g>
</g>
<!-- Node15&#45;&gt;Node16 -->
<g id="edge17" class="edge"><title>Node15&#45;&gt;Node16</title>
<path fill="none" stroke="midnightblue" d="M1174.37,-57C1191.72,-57 1209.28,-57 1225.63,-57"/>
<polygon fill="midnightblue" stroke="midnightblue" points="1174.19,-53.5001 1164.19,-57 1174.19,-60.5001 1174.19,-53.5001"/>
</g>
<!-- Node18 -->
<g id="node18" class="node"><title>Node18</title>
<g id="a_node18"><a xlink:href="../../dd/d02/classview_1_1_splash_screen.html#a652092fc5c5862cee4ff84bf231646ab" target="_top" xlink:title="view.SplashScreen.addLoad\lButton">
<polygon fill="white" stroke="black" points="1455.5,-0 1455.5,-30 1604.5,-30 1604.5,-0 1455.5,-0"/>
<text text-anchor="start" x="1463.5" y="-18" font-family="Helvetica,sans-Serif" font-size="10.00">view.SplashScreen.addLoad</text>
<text text-anchor="middle" x="1530" y="-7" font-family="Helvetica,sans-Serif" font-size="10.00">Button</text>
</a>
</g>
</g>
<!-- Node15&#45;&gt;Node18 -->
<g id="edge19" class="edge"><title>Node15&#45;&gt;Node18</title>
<path fill="none" stroke="midnightblue" d="M1174.42,-40.8513C1183.07,-39.8208 1191.67,-38.8555 1200,-38 1287.57,-29.0061 1388.63,-22.5193 1455.38,-18.7722"/>
<polygon fill="midnightblue" stroke="midnightblue" points="1173.77,-37.4053 1164.26,-42.0884 1174.61,-44.3539 1173.77,-37.4053"/>
</g>
<!-- Node17 -->
<g id="node17" class="node"><title>Node17</title>
<g id="a_node17"><a xlink:href="../../d3/d48/classview_1_1_top_menu.html#a4442589b1733d6ad662c92700f27018e" target="_top" xlink:title="view.TopMenu.createTopButtons">
<polygon fill="white" stroke="black" points="1446,-49.5 1446,-68.5 1614,-68.5 1614,-49.5 1446,-49.5"/>
<text text-anchor="middle" x="1530" y="-56.5" font-family="Helvetica,sans-Serif" font-size="10.00">view.TopMenu.createTopButtons</text>
</a>
</g>
</g>
<!-- Node16&#45;&gt;Node17 -->
<g id="edge18" class="edge"><title>Node16&#45;&gt;Node17</title>
<path fill="none" stroke="midnightblue" d="M1394.72,-57.7957C1411.62,-57.9473 1429.25,-58.1053 1445.96,-58.2552"/>
<polygon fill="midnightblue" stroke="midnightblue" points="1394.34,-54.2922 1384.31,-57.7023 1394.28,-61.2919 1394.34,-54.2922"/>
</g>
<!-- Node18&#45;&gt;Node9 -->
<g id="edge20" class="edge"><title>Node18&#45;&gt;Node9</title>
<path fill="none" stroke="midnightblue" d="M1615.14,-16.9173C1673.9,-19.1192 1754.04,-23.8478 1824,-34 1849.2,-37.6564 1877.17,-44.0461 1898.6,-49.4502"/>
<polygon fill="midnightblue" stroke="midnightblue" points="1614.91,-13.4069 1604.79,-16.5473 1614.66,-20.4025 1614.91,-13.4069"/>
</g>
</g>
</svg>
