<?xml version="1.0" encoding="UTF-8" standalone="no"?>
<!DOCTYPE svg PUBLIC "-//W3C//DTD SVG 1.1//EN"
 "http://www.w3.org/Graphics/SVG/1.1/DTD/svg11.dtd">
<!-- Generated by graphviz version 2.36.0 (20140111.2315)
 -->
<!-- Title: view.SimulationScreen.createOptionsPanel Pages: 1 -->
<svg width="392pt" height="185pt"
 viewBox="0.00 0.00 392.00 185.00" xmlns="http://www.w3.org/2000/svg" xmlns:xlink="http://www.w3.org/1999/xlink">
<g id="graph0" class="graph" transform="scale(1 1) rotate(0) translate(4 181)">
<title>view.SimulationScreen.createOptionsPanel</title>
<polygon fill="white" stroke="none" points="-4,4 -4,-181 388,-181 388,4 -4,4"/>
<!-- Node1 -->
<g id="node1" class="node"><title>Node1</title>
<polygon fill="#bfbfbf" stroke="black" points="0,-73 0,-103 158,-103 158,-73 0,-73"/>
<text text-anchor="start" x="8" y="-91" font-family="Helvetica,sans-Serif" font-size="10.00">view.SimulationScreen.create</text>
<text text-anchor="middle" x="79" y="-80" font-family="Helvetica,sans-Serif" font-size="10.00">OptionsPanel</text>
</g>
<!-- Node2 -->
<g id="node2" class="node"><title>Node2</title>
<g id="a_node2"><a xlink:href="../../dd/d46/classmodel_1_1simulations_1_1_simulation_fire.html#a0f96ca474d40a8bed78969f4e8ca23da" target="_top" xlink:title="model.simulations.Simulation\lFire.setupParameterControl">
<polygon fill="white" stroke="black" points="210,-147 210,-177 368,-177 368,-147 210,-147"/>
<text text-anchor="start" x="218" y="-165" font-family="Helvetica,sans-Serif" font-size="10.00">model.simulations.Simulation</text>
<text text-anchor="middle" x="289" y="-154" font-family="Helvetica,sans-Serif" font-size="10.00">Fire.setupParameterControl</text>
</a>
</g>
</g>
<!-- Node1&#45;&gt;Node2 -->
<g id="edge1" class="edge"><title>Node1&#45;&gt;Node2</title>
<path fill="none" stroke="midnightblue" d="M121.075,-107.381C142.513,-117.053 169.348,-128.475 194,-137 204.294,-140.56 215.368,-143.913 226.175,-146.937"/>
<polygon fill="midnightblue" stroke="midnightblue" points="122.488,-104.178 111.937,-103.217 119.586,-110.548 122.488,-104.178"/>
</g>
<!-- Node3 -->
<g id="node3" class="node"><title>Node3</title>
<g id="a_node3"><a xlink:href="../../d9/d70/classmodel_1_1simulations_1_1_simulation_predator.html#a4d05983035767a892e5288ac90de6f55" target="_top" xlink:title="model.simulations.Simulation\lPredator.setupParameterControl">
<polygon fill="white" stroke="black" points="203,-98 203,-128 375,-128 375,-98 203,-98"/>
<text text-anchor="start" x="211" y="-116" font-family="Helvetica,sans-Serif" font-size="10.00">model.simulations.Simulation</text>
<text text-anchor="middle" x="289" y="-105" font-family="Helvetica,sans-Serif" font-size="10.00">Predator.setupParameterControl</text>
</a>
</g>
</g>
<!-- Node1&#45;&gt;Node3 -->
<g id="edge2" class="edge"><title>Node1&#45;&gt;Node3</title>
<path fill="none" stroke="midnightblue" d="M168.092,-98.588C179.622,-99.9738 191.419,-101.392 202.898,-102.771"/>
<polygon fill="midnightblue" stroke="midnightblue" points="168.39,-95.0986 158.043,-97.3802 167.554,-102.049 168.39,-95.0986"/>
</g>
<!-- Node4 -->
<g id="node4" class="node"><title>Node4</title>
<g id="a_node4"><a xlink:href="../../d7/dc8/classmodel_1_1simulations_1_1_simulation_sugarscape.html#aae9b3060c4fba2ae8ed7f35354031c91" target="_top" xlink:title="model.simulations.Simulation\lSugarscape.setupParameterControl">
<polygon fill="white" stroke="black" points="195,-49 195,-79 383,-79 383,-49 195,-49"/>
<text text-anchor="start" x="203" y="-67" font-family="Helvetica,sans-Serif" font-size="10.00">model.simulations.Simulation</text>
<text text-anchor="middle" x="289" y="-56" font-family="Helvetica,sans-Serif" font-size="10.00">Sugarscape.setupParameterControl</text>
</a>
</g>
</g>
<!-- Node1&#45;&gt;Node4 -->
<g id="edge3" class="edge"><title>Node1&#45;&gt;Node4</title>
<path fill="none" stroke="midnightblue" d="M168.26,-77.8162C177.036,-76.8035 185.965,-75.7732 194.79,-74.755"/>
<polygon fill="midnightblue" stroke="midnightblue" points="167.576,-74.3717 158.043,-78.995 168.379,-81.3256 167.576,-74.3717"/>
</g>
<!-- Node5 -->
<g id="node5" class="node"><title>Node5</title>
<g id="a_node5"><a xlink:href="../../da/d76/classmodel_1_1simulations_1_1_simulation_segregation.html#a7278b4d0b458eec0ed47188abd23f773" target="_top" xlink:title="model.simulations.Simulation\lSegregation.setupParameterControl">
<polygon fill="white" stroke="black" points="194,-0 194,-30 384,-30 384,-0 194,-0"/>
<text text-anchor="start" x="202" y="-18" font-family="Helvetica,sans-Serif" font-size="10.00">model.simulations.Simulation</text>
<text text-anchor="middle" x="289" y="-7" font-family="Helvetica,sans-Serif" font-size="10.00">Segregation.setupParameterControl</text>
</a>
</g>
</g>
<!-- Node1&#45;&gt;Node5 -->
<g id="edge4" class="edge"><title>Node1&#45;&gt;Node5</title>
<path fill="none" stroke="midnightblue" d="M121.865,-68.73C143.187,-59.3388 169.681,-48.3089 194,-40 204.387,-36.4512 215.559,-33.0928 226.448,-30.0569"/>
<polygon fill="midnightblue" stroke="midnightblue" points="120.174,-65.6517 112.459,-72.9139 123.019,-72.0475 120.174,-65.6517"/>
</g>
</g>
</svg>
