<?xml version="1.0" encoding="UTF-8" standalone="no"?>
<!DOCTYPE svg PUBLIC "-//W3C//DTD SVG 1.1//EN"
 "http://www.w3.org/Graphics/SVG/1.1/DTD/svg11.dtd">
<!-- Generated by graphviz version 2.36.0 (20140111.2315)
 -->
<!-- Title: view.SimulationScreen.initSimView Pages: 1 -->
<svg width="508pt" height="38pt"
 viewBox="0.00 0.00 508.00 38.00" xmlns="http://www.w3.org/2000/svg" xmlns:xlink="http://www.w3.org/1999/xlink">
<g id="graph0" class="graph" transform="scale(1 1) rotate(0) translate(4 34)">
<title>view.SimulationScreen.initSimView</title>
<polygon fill="white" stroke="none" points="-4,4 -4,-34 504,-34 504,4 -4,4"/>
<!-- Node1 -->
<g id="node1" class="node"><title>Node1</title>
<polygon fill="#bfbfbf" stroke="black" points="0.5,-0 0.5,-30 141.5,-30 141.5,-0 0.5,-0"/>
<text text-anchor="start" x="8.5" y="-18" font-family="Helvetica,sans-Serif" font-size="10.00">view.SimulationScreen.init</text>
<text text-anchor="middle" x="71" y="-7" font-family="Helvetica,sans-Serif" font-size="10.00">SimView</text>
</g>
<!-- Node2 -->
<g id="node2" class="node"><title>Node2</title>
<g id="a_node2"><a xlink:href="../../d7/d7e/classview_1_1_shape_grid.html#ab80b31ff193c7351c2643fbf026e32b6" target="_top" xlink:title="view.ShapeGrid.createGrid">
<polygon fill="white" stroke="black" points="178.5,-5.5 178.5,-24.5 321.5,-24.5 321.5,-5.5 178.5,-5.5"/>
<text text-anchor="middle" x="250" y="-12.5" font-family="Helvetica,sans-Serif" font-size="10.00">view.ShapeGrid.createGrid</text>
</a>
</g>
</g>
<!-- Node1&#45;&gt;Node2 -->
<g id="edge1" class="edge"><title>Node1&#45;&gt;Node2</title>
<path fill="none" stroke="midnightblue" d="M141.701,-15C150.487,-15 159.532,-15 168.468,-15"/>
<polygon fill="midnightblue" stroke="midnightblue" points="168.491,-18.5001 178.491,-15 168.491,-11.5001 168.491,-18.5001"/>
</g>
<!-- Node3 -->
<g id="node3" class="node"><title>Node3</title>
<g id="a_node3"><a xlink:href="../../d7/d7e/classview_1_1_shape_grid.html#a805fec014a380bf36e49c545dea327ba" target="_top" xlink:title="view.ShapeGrid.addShape">
<polygon fill="white" stroke="black" points="358.5,-5.5 358.5,-24.5 499.5,-24.5 499.5,-5.5 358.5,-5.5"/>
<text text-anchor="middle" x="429" y="-12.5" font-family="Helvetica,sans-Serif" font-size="10.00">view.ShapeGrid.addShape</text>
</a>
</g>
</g>
<!-- Node2&#45;&gt;Node3 -->
<g id="edge2" class="edge"><title>Node2&#45;&gt;Node3</title>
<path fill="none" stroke="midnightblue" d="M321.718,-15C330.369,-15 339.257,-15 348.032,-15"/>
<polygon fill="midnightblue" stroke="midnightblue" points="348.26,-18.5001 358.26,-15 348.26,-11.5001 348.26,-18.5001"/>
</g>
</g>
</svg>
