<?xml version="1.0" encoding="UTF-8" standalone="no"?>
<!DOCTYPE svg PUBLIC "-//W3C//DTD SVG 1.1//EN"
 "http://www.w3.org/Graphics/SVG/1.1/DTD/svg11.dtd">
<!-- Generated by graphviz version 2.36.0 (20140111.2315)
 -->
<!-- Title: view.SimulationScreen.addButtons Pages: 1 -->
<svg width="2336pt" height="173pt"
 viewBox="0.00 0.00 2336.00 173.00" xmlns="http://www.w3.org/2000/svg" xmlns:xlink="http://www.w3.org/1999/xlink">
<g id="graph0" class="graph" transform="scale(1 1) rotate(0) translate(4 169)">
<title>view.SimulationScreen.addButtons</title>
<polygon fill="white" stroke="none" points="-4,4 -4,-169 2332,-169 2332,4 -4,4"/>
<!-- Node1 -->
<g id="node1" class="node"><title>Node1</title>
<polygon fill="#bfbfbf" stroke="black" points="0.5,-68 0.5,-98 145.5,-98 145.5,-68 0.5,-68"/>
<text text-anchor="start" x="8.5" y="-86" font-family="Helvetica,sans-Serif" font-size="10.00">view.SimulationScreen.add</text>
<text text-anchor="middle" x="73" y="-75" font-family="Helvetica,sans-Serif" font-size="10.00">Buttons</text>
</g>
<!-- Node2 -->
<g id="node2" class="node"><title>Node2</title>
<g id="a_node2"><a xlink:href="../../d1/d3e/classview_1_1_simulation_screen.html#a6c9f5c7e36be620d06e55709bc256d18" target="_top" xlink:title="view.SimulationScreen.init\lSimScreen">
<polygon fill="white" stroke="black" points="182.5,-68 182.5,-98 323.5,-98 323.5,-68 182.5,-68"/>
<text text-anchor="start" x="190.5" y="-86" font-family="Helvetica,sans-Serif" font-size="10.00">view.SimulationScreen.init</text>
<text text-anchor="middle" x="253" y="-75" font-family="Helvetica,sans-Serif" font-size="10.00">SimScreen</text>
</a>
</g>
</g>
<!-- Node1&#45;&gt;Node2 -->
<g id="edge1" class="edge"><title>Node1&#45;&gt;Node2</title>
<path fill="none" stroke="midnightblue" d="M155.903,-83C164.709,-83 173.608,-83 182.252,-83"/>
<polygon fill="midnightblue" stroke="midnightblue" points="155.63,-79.5001 145.63,-83 155.63,-86.5001 155.63,-79.5001"/>
</g>
<!-- Node3 -->
<g id="node3" class="node"><title>Node3</title>
<g id="a_node3"><a xlink:href="../../d6/d7b/classcontroller_1_1_cell_society_controller.html#af6b4eb647c4e76fef6f27cc61ced4d9a" target="_top" xlink:title="controller.CellSocietyController.initialize\lSimulationScreen">
<polygon fill="white" stroke="black" points="360.5,-68 360.5,-98 563.5,-98 563.5,-68 360.5,-68"/>
<text text-anchor="start" x="368.5" y="-86" font-family="Helvetica,sans-Serif" font-size="10.00">controller.CellSocietyController.initialize</text>
<text text-anchor="middle" x="462" y="-75" font-family="Helvetica,sans-Serif" font-size="10.00">SimulationScreen</text>
</a>
</g>
</g>
<!-- Node2&#45;&gt;Node3 -->
<g id="edge2" class="edge"><title>Node2&#45;&gt;Node3</title>
<path fill="none" stroke="midnightblue" d="M333.656,-83C342.412,-83 351.409,-83 360.377,-83"/>
<polygon fill="midnightblue" stroke="midnightblue" points="333.504,-79.5001 323.504,-83 333.504,-86.5001 333.504,-79.5001"/>
</g>
<!-- Node4 -->
<g id="node4" class="node"><title>Node4</title>
<g id="a_node4"><a xlink:href="../../d6/d7b/classcontroller_1_1_cell_society_controller.html#a3d913ad3344ac48e887110e2fabb5746" target="_top" xlink:title="controller.CellSocietyController.transition\lToSimulation">
<polygon fill="white" stroke="black" points="600,-68 600,-98 810,-98 810,-68 600,-68"/>
<text text-anchor="start" x="608" y="-86" font-family="Helvetica,sans-Serif" font-size="10.00">controller.CellSocietyController.transition</text>
<text text-anchor="middle" x="705" y="-75" font-family="Helvetica,sans-Serif" font-size="10.00">ToSimulation</text>
</a>
</g>
</g>
<!-- Node3&#45;&gt;Node4 -->
<g id="edge3" class="edge"><title>Node3&#45;&gt;Node4</title>
<path fill="none" stroke="midnightblue" d="M573.873,-83C582.481,-83 591.155,-83 599.717,-83"/>
<polygon fill="midnightblue" stroke="midnightblue" points="573.809,-79.5001 563.809,-83 573.809,-86.5001 573.809,-79.5001"/>
</g>
<!-- Node5 -->
<g id="node5" class="node"><title>Node5</title>
<g id="a_node5"><a xlink:href="../../d6/d7b/classcontroller_1_1_cell_society_controller.html#ada30fdc135cdf08b93065edf15ed3fcc" target="_top" xlink:title="controller.CellSocietyController.generate\lProbabilityRandomGrid">
<polygon fill="white" stroke="black" points="846.5,-112 846.5,-142 1055.5,-142 1055.5,-112 846.5,-112"/>
<text text-anchor="start" x="854.5" y="-130" font-family="Helvetica,sans-Serif" font-size="10.00">controller.CellSocietyController.generate</text>
<text text-anchor="middle" x="951" y="-119" font-family="Helvetica,sans-Serif" font-size="10.00">ProbabilityRandomGrid</text>
</a>
</g>
</g>
<!-- Node4&#45;&gt;Node5 -->
<g id="edge4" class="edge"><title>Node4&#45;&gt;Node5</title>
<path fill="none" stroke="midnightblue" d="M799.361,-99.8357C821.514,-103.83 845.001,-108.066 866.673,-111.974"/>
<polygon fill="midnightblue" stroke="midnightblue" points="799.751,-96.3495 789.289,-98.0192 798.509,-103.238 799.751,-96.3495"/>
</g>
<!-- Node13 -->
<g id="node13" class="node"><title>Node13</title>
<g id="a_node13"><a xlink:href="../../d6/d7b/classcontroller_1_1_cell_society_controller.html#ab65a8810efbc2b92e17ca77cdc591df9" target="_top" xlink:title="controller.CellSocietyController.generate\lRandomGrid">
<polygon fill="white" stroke="black" points="1092.5,-68 1092.5,-98 1301.5,-98 1301.5,-68 1092.5,-68"/>
<text text-anchor="start" x="1100.5" y="-86" font-family="Helvetica,sans-Serif" font-size="10.00">controller.CellSocietyController.generate</text>
<text text-anchor="middle" x="1197" y="-75" font-family="Helvetica,sans-Serif" font-size="10.00">RandomGrid</text>
</a>
</g>
</g>
<!-- Node4&#45;&gt;Node13 -->
<g id="edge13" class="edge"><title>Node4&#45;&gt;Node13</title>
<path fill="none" stroke="midnightblue" d="M820.36,-83C902.624,-83 1012.66,-83 1092.36,-83"/>
<polygon fill="midnightblue" stroke="midnightblue" points="820.216,-79.5001 810.216,-83 820.216,-86.5001 820.216,-79.5001"/>
</g>
<!-- Node14 -->
<g id="node14" class="node"><title>Node14</title>
<g id="a_node14"><a xlink:href="../../d6/d7b/classcontroller_1_1_cell_society_controller.html#a643c7ac22f2822fa7e492dbf4267ed21" target="_top" xlink:title="controller.CellSocietyController.readXML">
<polygon fill="white" stroke="black" points="848,-24.5 848,-43.5 1054,-43.5 1054,-24.5 848,-24.5"/>
<text text-anchor="middle" x="951" y="-31.5" font-family="Helvetica,sans-Serif" font-size="10.00">controller.CellSocietyController.readXML</text>
</a>
</g>
</g>
<!-- Node4&#45;&gt;Node14 -->
<g id="edge15" class="edge"><title>Node4&#45;&gt;Node14</title>
<path fill="none" stroke="midnightblue" d="M790.77,-65.9766C828.216,-58.4567 870.837,-49.8975 902.555,-43.528"/>
<polygon fill="midnightblue" stroke="midnightblue" points="789.981,-62.5649 780.866,-67.9654 791.36,-69.4279 789.981,-62.5649"/>
</g>
<!-- Node6 -->
<g id="node6" class="node"><title>Node6</title>
<g id="a_node6"><a xlink:href="../../dd/d02/classview_1_1_splash_screen.html#a05478a56856d70fd9508d79ca484fbca" target="_top" xlink:title="view.SplashScreen.addProbabilityText">
<polygon fill="white" stroke="black" points="1100,-117.5 1100,-136.5 1294,-136.5 1294,-117.5 1100,-117.5"/>
<text text-anchor="middle" x="1197" y="-124.5" font-family="Helvetica,sans-Serif" font-size="10.00">view.SplashScreen.addProbabilityText</text>
</a>
</g>
</g>
<!-- Node5&#45;&gt;Node6 -->
<g id="edge5" class="edge"><title>Node5&#45;&gt;Node6</title>
<path fill="none" stroke="midnightblue" d="M1066.09,-127C1077.31,-127 1088.61,-127 1099.62,-127"/>
<polygon fill="midnightblue" stroke="midnightblue" points="1065.83,-123.5 1055.83,-127 1065.83,-130.5 1065.83,-123.5"/>
</g>
<!-- Node7 -->
<g id="node7" class="node"><title>Node7</title>
<g id="a_node7"><a xlink:href="../../dd/d02/classview_1_1_splash_screen.html#a2f8c52e9a2a790459e51d5d42f16f7da" target="_top" xlink:title="view.SplashScreen.display\lAskInformatio">
<polygon fill="white" stroke="black" points="1346.5,-100 1346.5,-130 1487.5,-130 1487.5,-100 1346.5,-100"/>
<text text-anchor="start" x="1354.5" y="-118" font-family="Helvetica,sans-Serif" font-size="10.00">view.SplashScreen.display</text>
<text text-anchor="middle" x="1417" y="-107" font-family="Helvetica,sans-Serif" font-size="10.00">AskInformatio</text>
</a>
</g>
</g>
<!-- Node6&#45;&gt;Node7 -->
<g id="edge6" class="edge"><title>Node6&#45;&gt;Node7</title>
<path fill="none" stroke="midnightblue" d="M1304.58,-121.133C1318.8,-120.35 1333.07,-119.565 1346.43,-118.829"/>
<polygon fill="midnightblue" stroke="midnightblue" points="1304.05,-117.657 1294.25,-121.702 1304.43,-124.647 1304.05,-117.657"/>
</g>
<!-- Node8 -->
<g id="node8" class="node"><title>Node8</title>
<g id="a_node8"><a xlink:href="../../dd/d02/classview_1_1_splash_screen.html#ad94d9edd23f270a5f480fd54a06d72f3" target="_top" xlink:title="view.SplashScreen.addProbablity\lButton">
<polygon fill="white" stroke="black" points="1532.5,-135 1532.5,-165 1705.5,-165 1705.5,-135 1532.5,-135"/>
<text text-anchor="start" x="1540.5" y="-153" font-family="Helvetica,sans-Serif" font-size="10.00">view.SplashScreen.addProbablity</text>
<text text-anchor="middle" x="1619" y="-142" font-family="Helvetica,sans-Serif" font-size="10.00">Button</text>
</a>
</g>
</g>
<!-- Node7&#45;&gt;Node8 -->
<g id="edge7" class="edge"><title>Node7&#45;&gt;Node8</title>
<path fill="none" stroke="midnightblue" d="M1497.6,-128.931C1509.04,-130.932 1520.84,-132.997 1532.38,-135.017"/>
<polygon fill="midnightblue" stroke="midnightblue" points="1498.12,-125.468 1487.67,-127.192 1496.92,-132.364 1498.12,-125.468"/>
</g>
<!-- Node12 -->
<g id="node12" class="node"><title>Node12</title>
<g id="a_node12"><a xlink:href="../../dd/d02/classview_1_1_splash_screen.html#a17ba24f5ed477a37ea527710e54d65c8" target="_top" xlink:title="view.SplashScreen.addRandom\lButton">
<polygon fill="white" stroke="black" points="1536,-86 1536,-116 1702,-116 1702,-86 1536,-86"/>
<text text-anchor="start" x="1544" y="-104" font-family="Helvetica,sans-Serif" font-size="10.00">view.SplashScreen.addRandom</text>
<text text-anchor="middle" x="1619" y="-93" font-family="Helvetica,sans-Serif" font-size="10.00">Button</text>
</a>
</g>
</g>
<!-- Node7&#45;&gt;Node12 -->
<g id="edge11" class="edge"><title>Node7&#45;&gt;Node12</title>
<path fill="none" stroke="midnightblue" d="M1498.02,-109.399C1510.48,-108.527 1523.37,-107.624 1535.87,-106.749"/>
<polygon fill="midnightblue" stroke="midnightblue" points="1497.4,-105.933 1487.67,-110.123 1497.89,-112.916 1497.4,-105.933"/>
</g>
<!-- Node9 -->
<g id="node9" class="node"><title>Node9</title>
<g id="a_node9"><a xlink:href="../../dd/d02/classview_1_1_splash_screen.html#a6ff42b7dad4e546981a3266f9d694f5a" target="_top" xlink:title="view.SplashScreen.getNode">
<polygon fill="white" stroke="black" points="1742.5,-91.5 1742.5,-110.5 1891.5,-110.5 1891.5,-91.5 1742.5,-91.5"/>
<text text-anchor="middle" x="1817" y="-98.5" font-family="Helvetica,sans-Serif" font-size="10.00">view.SplashScreen.getNode</text>
</a>
</g>
</g>
<!-- Node8&#45;&gt;Node9 -->
<g id="edge8" class="edge"><title>Node8&#45;&gt;Node9</title>
<path fill="none" stroke="midnightblue" d="M1690.02,-132.495C1719.63,-125.093 1752.95,-116.762 1777.89,-110.528"/>
<polygon fill="midnightblue" stroke="midnightblue" points="1688.99,-129.144 1680.14,-134.965 1690.69,-135.935 1688.99,-129.144"/>
</g>
<!-- Node10 -->
<g id="node10" class="node"><title>Node10</title>
<g id="a_node10"><a xlink:href="../../d6/d7b/classcontroller_1_1_cell_society_controller.html#a3f78125e5b809d88d3cf7ed20b3756c2" target="_top" xlink:title="controller.CellSocietyController.display\lSplashScreen">
<polygon fill="white" stroke="black" points="1928,-86 1928,-116 2126,-116 2126,-86 1928,-86"/>
<text text-anchor="start" x="1936" y="-104" font-family="Helvetica,sans-Serif" font-size="10.00">controller.CellSocietyController.display</text>
<text text-anchor="middle" x="2027" y="-93" font-family="Helvetica,sans-Serif" font-size="10.00">SplashScreen</text>
</a>
</g>
</g>
<!-- Node9&#45;&gt;Node10 -->
<g id="edge9" class="edge"><title>Node9&#45;&gt;Node10</title>
<path fill="none" stroke="midnightblue" d="M1901.88,-101C1910.38,-101 1919.07,-101 1927.7,-101"/>
<polygon fill="midnightblue" stroke="midnightblue" points="1901.63,-97.5001 1891.63,-101 1901.63,-104.5 1901.63,-97.5001"/>
</g>
<!-- Node11 -->
<g id="node11" class="node"><title>Node11</title>
<g id="a_node11"><a xlink:href="../../d6/d7b/classcontroller_1_1_cell_society_controller.html#a6a2310de67e415512149c94c9f36e356" target="_top" xlink:title="controller.CellSocietyController.\lCellSocietyController">
<polygon fill="white" stroke="black" points="2162.5,-86 2162.5,-116 2327.5,-116 2327.5,-86 2162.5,-86"/>
<text text-anchor="start" x="2170.5" y="-104" font-family="Helvetica,sans-Serif" font-size="10.00">controller.CellSocietyController.</text>
<text text-anchor="middle" x="2245" y="-93" font-family="Helvetica,sans-Serif" font-size="10.00">CellSocietyController</text>
</a>
</g>
</g>
<!-- Node10&#45;&gt;Node11 -->
<g id="edge10" class="edge"><title>Node10&#45;&gt;Node11</title>
<path fill="none" stroke="midnightblue" d="M2136.38,-101C2145.07,-101 2153.75,-101 2162.2,-101"/>
<polygon fill="midnightblue" stroke="midnightblue" points="2136.2,-97.5001 2126.2,-101 2136.2,-104.5 2136.2,-97.5001"/>
</g>
<!-- Node12&#45;&gt;Node9 -->
<g id="edge12" class="edge"><title>Node12&#45;&gt;Node9</title>
<path fill="none" stroke="midnightblue" d="M1712.31,-101C1722.39,-101 1732.55,-101 1742.36,-101"/>
<polygon fill="midnightblue" stroke="midnightblue" points="1712.27,-97.5001 1702.27,-101 1712.27,-104.5 1712.27,-97.5001"/>
</g>
<!-- Node13&#45;&gt;Node7 -->
<g id="edge14" class="edge"><title>Node13&#45;&gt;Node7</title>
<path fill="none" stroke="midnightblue" d="M1310.55,-99.5206C1322.75,-101.312 1334.89,-103.094 1346.36,-104.777"/>
<polygon fill="midnightblue" stroke="midnightblue" points="1310.7,-96.0057 1300.3,-98.0162 1309.68,-102.931 1310.7,-96.0057"/>
</g>
<!-- Node15 -->
<g id="node15" class="node"><title>Node15</title>
<g id="a_node15"><a xlink:href="../../d6/d7b/classcontroller_1_1_cell_society_controller.html#afbdf9a63e15a2bfa878dcfe5ed3ef6dc" target="_top" xlink:title="controller.CellSocietyController.transition\lToFileLoaderScreen">
<polygon fill="white" stroke="black" points="1092,-19 1092,-49 1302,-49 1302,-19 1092,-19"/>
<text text-anchor="start" x="1100" y="-37" font-family="Helvetica,sans-Serif" font-size="10.00">controller.CellSocietyController.transition</text>
<text text-anchor="middle" x="1197" y="-26" font-family="Helvetica,sans-Serif" font-size="10.00">ToFileLoaderScreen</text>
</a>
</g>
</g>
<!-- Node14&#45;&gt;Node15 -->
<g id="edge16" class="edge"><title>Node14&#45;&gt;Node15</title>
<path fill="none" stroke="midnightblue" d="M1064.11,-27.2698C1073.4,-27.2326 1082.76,-27.2479 1091.99,-27.3157"/>
<polygon fill="midnightblue" stroke="midnightblue" points="1064.04,-23.77 1054.06,-27.3307 1064.09,-30.7699 1064.04,-23.77"/>
</g>
<!-- Node15&#45;&gt;Node14 -->
<g id="edge21" class="edge"><title>Node15&#45;&gt;Node14</title>
<path fill="none" stroke="midnightblue" d="M1081.93,-40.7373C1072.63,-40.7671 1063.27,-40.7444 1054.06,-40.6693"/>
<polygon fill="midnightblue" stroke="midnightblue" points="1082.01,-44.237 1091.99,-40.6843 1081.97,-37.2371 1082.01,-44.237"/>
</g>
<!-- Node16 -->
<g id="node16" class="node"><title>Node16</title>
<g id="a_node16"><a xlink:href="../../d3/d48/classview_1_1_top_menu.html#af56bae78812baf114a9ed49ad52694df" target="_top" xlink:title="view.TopMenu.addLoadButton">
<polygon fill="white" stroke="black" points="1338,-49.5 1338,-68.5 1496,-68.5 1496,-49.5 1338,-49.5"/>
<text text-anchor="middle" x="1417" y="-56.5" font-family="Helvetica,sans-Serif" font-size="10.00">view.TopMenu.addLoadButton</text>
</a>
</g>
</g>
<!-- Node15&#45;&gt;Node16 -->
<g id="edge17" class="edge"><title>Node15&#45;&gt;Node16</title>
<path fill="none" stroke="midnightblue" d="M1312.38,-47.1166C1321.03,-48.1089 1329.64,-49.0961 1337.98,-50.0529"/>
<polygon fill="midnightblue" stroke="midnightblue" points="1312.55,-43.613 1302.21,-45.9508 1311.75,-50.5675 1312.55,-43.613"/>
</g>
<!-- Node18 -->
<g id="node18" class="node"><title>Node18</title>
<g id="a_node18"><a xlink:href="../../dd/d02/classview_1_1_splash_screen.html#a652092fc5c5862cee4ff84bf231646ab" target="_top" xlink:title="view.SplashScreen.addLoad\lButton">
<polygon fill="white" stroke="black" points="1342.5,-0 1342.5,-30 1491.5,-30 1491.5,-0 1342.5,-0"/>
<text text-anchor="start" x="1350.5" y="-18" font-family="Helvetica,sans-Serif" font-size="10.00">view.SplashScreen.addLoad</text>
<text text-anchor="middle" x="1417" y="-7" font-family="Helvetica,sans-Serif" font-size="10.00">Button</text>
</a>
</g>
</g>
<!-- Node15&#45;&gt;Node18 -->
<g id="edge19" class="edge"><title>Node15&#45;&gt;Node18</title>
<path fill="none" stroke="midnightblue" d="M1312.4,-24.0296C1322.58,-23.1425 1332.69,-22.2609 1342.39,-21.4158"/>
<polygon fill="midnightblue" stroke="midnightblue" points="1311.87,-20.5622 1302.21,-24.9174 1312.48,-27.5358 1311.87,-20.5622"/>
</g>
<!-- Node17 -->
<g id="node17" class="node"><title>Node17</title>
<g id="a_node17"><a xlink:href="../../d3/d48/classview_1_1_top_menu.html#a4442589b1733d6ad662c92700f27018e" target="_top" xlink:title="view.TopMenu.createTopButtons">
<polygon fill="white" stroke="black" points="1535,-47.5 1535,-66.5 1703,-66.5 1703,-47.5 1535,-47.5"/>
<text text-anchor="middle" x="1619" y="-54.5" font-family="Helvetica,sans-Serif" font-size="10.00">view.TopMenu.createTopButtons</text>
</a>
</g>
</g>
<!-- Node16&#45;&gt;Node17 -->
<g id="edge18" class="edge"><title>Node16&#45;&gt;Node17</title>
<path fill="none" stroke="midnightblue" d="M1506.4,-58.116C1515.88,-58.0212 1525.5,-57.925 1534.92,-57.8308"/>
<polygon fill="midnightblue" stroke="midnightblue" points="1506.15,-54.6182 1496.18,-58.2182 1506.22,-61.6179 1506.15,-54.6182"/>
</g>
<!-- Node18&#45;&gt;Node9 -->
<g id="edge20" class="edge"><title>Node18&#45;&gt;Node9</title>
<path fill="none" stroke="midnightblue" d="M1501.86,-12.1144C1560.31,-12.398 1639.43,-17.4154 1706,-38 1744.48,-49.8982 1784.15,-76.9788 1803.65,-91.4557"/>
<polygon fill="midnightblue" stroke="midnightblue" points="1501.56,-8.61447 1491.56,-12.1122 1501.56,-15.6145 1501.56,-8.61447"/>
</g>
</g>
</svg>
