<?xml version="1.0" encoding="UTF-8" standalone="no"?>
<!DOCTYPE svg PUBLIC "-//W3C//DTD SVG 1.1//EN"
 "http://www.w3.org/Graphics/SVG/1.1/DTD/svg11.dtd">
<!-- Generated by graphviz version 2.36.0 (20140111.2315)
 -->
<!-- Title: view.SimulationScreen.updateScreen Pages: 1 -->
<svg width="844pt" height="278pt"
 viewBox="0.00 0.00 844.00 278.00" xmlns="http://www.w3.org/2000/svg" xmlns:xlink="http://www.w3.org/1999/xlink">
<g id="graph0" class="graph" transform="scale(1 1) rotate(0) translate(4 274)">
<title>view.SimulationScreen.updateScreen</title>
<polygon fill="white" stroke="none" points="-4,4 -4,-274 840,-274 840,4 -4,4"/>
<!-- Node1 -->
<g id="node1" class="node"><title>Node1</title>
<polygon fill="#bfbfbf" stroke="black" points="0.5,-122 0.5,-152 161.5,-152 161.5,-122 0.5,-122"/>
<text text-anchor="start" x="8.5" y="-140" font-family="Helvetica,sans-Serif" font-size="10.00">view.SimulationScreen.update</text>
<text text-anchor="middle" x="81" y="-129" font-family="Helvetica,sans-Serif" font-size="10.00">Screen</text>
</g>
<!-- Node2 -->
<g id="node2" class="node"><title>Node2</title>
<g id="a_node2"><a xlink:href="../../d0/d56/classmodel_1_1simulations_1_1_simulation.html#a6efb6657ce3c803a99ccd41d8b8a2057" target="_top" xlink:title="model.simulations.Simulation.update\lColorGrid">
<polygon fill="white" stroke="black" points="198.5,-122 198.5,-152 393.5,-152 393.5,-122 198.5,-122"/>
<text text-anchor="start" x="206.5" y="-140" font-family="Helvetica,sans-Serif" font-size="10.00">model.simulations.Simulation.update</text>
<text text-anchor="middle" x="296" y="-129" font-family="Helvetica,sans-Serif" font-size="10.00">ColorGrid</text>
</a>
</g>
</g>
<!-- Node1&#45;&gt;Node2 -->
<g id="edge1" class="edge"><title>Node1&#45;&gt;Node2</title>
<path fill="none" stroke="midnightblue" d="M171.786,-137C180.521,-137 189.411,-137 198.211,-137"/>
<polygon fill="midnightblue" stroke="midnightblue" points="171.616,-133.5 161.616,-137 171.616,-140.5 171.616,-133.5"/>
</g>
<!-- Node3 -->
<g id="node3" class="node"><title>Node3</title>
<g id="a_node3"><a xlink:href="../../d0/d56/classmodel_1_1simulations_1_1_simulation.html#ad6b0af21d9f0a4d2bd0fc2ce13d40ab5" target="_top" xlink:title="model.simulations.Simulation.setupGrid">
<polygon fill="white" stroke="black" points="430,-245.5 430,-264.5 638,-264.5 638,-245.5 430,-245.5"/>
<text text-anchor="middle" x="534" y="-252.5" font-family="Helvetica,sans-Serif" font-size="10.00">model.simulations.Simulation.setupGrid</text>
</a>
</g>
</g>
<!-- Node2&#45;&gt;Node3 -->
<g id="edge2" class="edge"><title>Node2&#45;&gt;Node3</title>
<path fill="none" stroke="midnightblue" d="M320.221,-159.209C345.274,-181.869 387.339,-216.285 430,-235 439.925,-239.354 450.801,-242.765 461.649,-245.435"/>
<polygon fill="midnightblue" stroke="midnightblue" points="322.436,-156.491 312.705,-152.299 317.698,-161.644 322.436,-156.491"/>
</g>
<!-- Node5 -->
<g id="node5" class="node"><title>Node5</title>
<g id="a_node5"><a xlink:href="../../d7/d85/classmodel_1_1simulations_1_1_simulation_life.html#a835e84a7f9fc272a5cb373abb36bf628" target="_top" xlink:title="model.simulations.Simulation\lLife.updateGrid">
<polygon fill="white" stroke="black" points="455,-196 455,-226 613,-226 613,-196 455,-196"/>
<text text-anchor="start" x="463" y="-214" font-family="Helvetica,sans-Serif" font-size="10.00">model.simulations.Simulation</text>
<text text-anchor="middle" x="534" y="-203" font-family="Helvetica,sans-Serif" font-size="10.00">Life.updateGrid</text>
</a>
</g>
</g>
<!-- Node2&#45;&gt;Node5 -->
<g id="edge4" class="edge"><title>Node2&#45;&gt;Node5</title>
<path fill="none" stroke="midnightblue" d="M343.792,-155.736C369.08,-165.48 400.985,-177.166 430,-186 441.618,-189.537 454.092,-192.912 466.208,-195.974"/>
<polygon fill="midnightblue" stroke="midnightblue" points="345.033,-152.463 334.445,-152.107 342.5,-158.989 345.033,-152.463"/>
</g>
<!-- Node6 -->
<g id="node6" class="node"><title>Node6</title>
<g id="a_node6"><a xlink:href="../../d7/dc8/classmodel_1_1simulations_1_1_simulation_sugarscape.html#a6f5b4a3d8842dbe0fd7c4ac94e349fe3" target="_top" xlink:title="model.simulations.Simulation\lSugarscape.updateGrid">
<polygon fill="white" stroke="black" points="455,-147 455,-177 613,-177 613,-147 455,-147"/>
<text text-anchor="start" x="463" y="-165" font-family="Helvetica,sans-Serif" font-size="10.00">model.simulations.Simulation</text>
<text text-anchor="middle" x="534" y="-154" font-family="Helvetica,sans-Serif" font-size="10.00">Sugarscape.updateGrid</text>
</a>
</g>
</g>
<!-- Node2&#45;&gt;Node6 -->
<g id="edge5" class="edge"><title>Node2&#45;&gt;Node6</title>
<path fill="none" stroke="midnightblue" d="M403.755,-148.309C420.964,-150.132 438.495,-151.989 454.866,-153.723"/>
<polygon fill="midnightblue" stroke="midnightblue" points="403.984,-144.814 393.671,-147.241 403.247,-151.775 403.984,-144.814"/>
</g>
<!-- Node7 -->
<g id="node7" class="node"><title>Node7</title>
<g id="a_node7"><a xlink:href="../../d9/d70/classmodel_1_1simulations_1_1_simulation_predator.html#a1d05d28746dd1f641960ef401b28472e" target="_top" xlink:title="model.simulations.Simulation\lPredator.updateGrid">
<polygon fill="white" stroke="black" points="455,-98 455,-128 613,-128 613,-98 455,-98"/>
<text text-anchor="start" x="463" y="-116" font-family="Helvetica,sans-Serif" font-size="10.00">model.simulations.Simulation</text>
<text text-anchor="middle" x="534" y="-105" font-family="Helvetica,sans-Serif" font-size="10.00">Predator.updateGrid</text>
</a>
</g>
</g>
<!-- Node2&#45;&gt;Node7 -->
<g id="edge6" class="edge"><title>Node2&#45;&gt;Node7</title>
<path fill="none" stroke="midnightblue" d="M403.755,-126.144C420.964,-124.393 438.495,-122.611 454.866,-120.946"/>
<polygon fill="midnightblue" stroke="midnightblue" points="403.266,-122.675 393.671,-127.169 403.974,-129.639 403.266,-122.675"/>
</g>
<!-- Node8 -->
<g id="node8" class="node"><title>Node8</title>
<g id="a_node8"><a xlink:href="../../dd/d46/classmodel_1_1simulations_1_1_simulation_fire.html#afb98c9dd0a67eb041f8c635b0c18c709" target="_top" xlink:title="model.simulations.Simulation\lFire.updateGrid">
<polygon fill="white" stroke="black" points="455,-49 455,-79 613,-79 613,-49 455,-49"/>
<text text-anchor="start" x="463" y="-67" font-family="Helvetica,sans-Serif" font-size="10.00">model.simulations.Simulation</text>
<text text-anchor="middle" x="534" y="-56" font-family="Helvetica,sans-Serif" font-size="10.00">Fire.updateGrid</text>
</a>
</g>
</g>
<!-- Node2&#45;&gt;Node8 -->
<g id="edge7" class="edge"><title>Node2&#45;&gt;Node8</title>
<path fill="none" stroke="midnightblue" d="M344.98,-118.263C370.088,-108.82 401.465,-97.5846 430,-89 441.718,-85.4747 454.298,-82.0939 466.502,-79.0205"/>
<polygon fill="midnightblue" stroke="midnightblue" points="343.444,-115.101 335.333,-121.918 345.925,-121.647 343.444,-115.101"/>
</g>
<!-- Node9 -->
<g id="node9" class="node"><title>Node9</title>
<g id="a_node9"><a xlink:href="../../da/d76/classmodel_1_1simulations_1_1_simulation_segregation.html#a3aeb5a7dfb3094553814a23e70cd5676" target="_top" xlink:title="model.simulations.Simulation\lSegregation.updateGrid">
<polygon fill="white" stroke="black" points="455,-0 455,-30 613,-30 613,-0 455,-0"/>
<text text-anchor="start" x="463" y="-18" font-family="Helvetica,sans-Serif" font-size="10.00">model.simulations.Simulation</text>
<text text-anchor="middle" x="534" y="-7" font-family="Helvetica,sans-Serif" font-size="10.00">Segregation.updateGrid</text>
</a>
</g>
</g>
<!-- Node2&#45;&gt;Node9 -->
<g id="edge8" class="edge"><title>Node2&#45;&gt;Node9</title>
<path fill="none" stroke="midnightblue" d="M320.863,-115.049C346.144,-92.9452 388.121,-59.4159 430,-40 438.264,-36.1688 447.183,-32.8845 456.194,-30.0788"/>
<polygon fill="midnightblue" stroke="midnightblue" points="318.42,-112.538 313.263,-121.792 323.066,-117.774 318.42,-112.538"/>
</g>
<!-- Node4 -->
<g id="node4" class="node"><title>Node4</title>
<g id="a_node4"><a xlink:href="../../d0/d56/classmodel_1_1simulations_1_1_simulation.html#a49dab3d977f4447d538534885be2b64f" target="_top" xlink:title="model.simulations.Simulation.\lSimulation">
<polygon fill="white" stroke="black" points="674.5,-240 674.5,-270 835.5,-270 835.5,-240 674.5,-240"/>
<text text-anchor="start" x="682.5" y="-258" font-family="Helvetica,sans-Serif" font-size="10.00">model.simulations.Simulation.</text>
<text text-anchor="middle" x="755" y="-247" font-family="Helvetica,sans-Serif" font-size="10.00">Simulation</text>
</a>
</g>
</g>
<!-- Node3&#45;&gt;Node4 -->
<g id="edge3" class="edge"><title>Node3&#45;&gt;Node4</title>
<path fill="none" stroke="midnightblue" d="M648.109,-255C656.985,-255 665.83,-255 674.408,-255"/>
<polygon fill="midnightblue" stroke="midnightblue" points="648.087,-251.5 638.087,-255 648.087,-258.5 648.087,-251.5"/>
</g>
</g>
</svg>
