<?xml version="1.0" encoding="UTF-8" standalone="no"?>
<!DOCTYPE svg PUBLIC "-//W3C//DTD SVG 1.1//EN"
 "http://www.w3.org/Graphics/SVG/1.1/DTD/svg11.dtd">
<!-- Generated by graphviz version 2.36.0 (20140111.2315)
 -->
<!-- Title: view.SimulationScreen.initSimScreen Pages: 1 -->
<svg width="2154pt" height="173pt"
 viewBox="0.00 0.00 2154.00 173.00" xmlns="http://www.w3.org/2000/svg" xmlns:xlink="http://www.w3.org/1999/xlink">
<g id="graph0" class="graph" transform="scale(1 1) rotate(0) translate(4 169)">
<title>view.SimulationScreen.initSimScreen</title>
<polygon fill="white" stroke="none" points="-4,4 -4,-169 2150,-169 2150,4 -4,4"/>
<!-- Node1 -->
<g id="node1" class="node"><title>Node1</title>
<polygon fill="#bfbfbf" stroke="black" points="0.5,-68 0.5,-98 141.5,-98 141.5,-68 0.5,-68"/>
<text text-anchor="start" x="8.5" y="-86" font-family="Helvetica,sans-Serif" font-size="10.00">view.SimulationScreen.init</text>
<text text-anchor="middle" x="71" y="-75" font-family="Helvetica,sans-Serif" font-size="10.00">SimScreen</text>
</g>
<!-- Node2 -->
<g id="node2" class="node"><title>Node2</title>
<g id="a_node2"><a xlink:href="../../d6/d7b/classcontroller_1_1_cell_society_controller.html#af6b4eb647c4e76fef6f27cc61ced4d9a" target="_top" xlink:title="controller.CellSocietyController.initialize\lSimulationScreen">
<polygon fill="white" stroke="black" points="178.5,-68 178.5,-98 381.5,-98 381.5,-68 178.5,-68"/>
<text text-anchor="start" x="186.5" y="-86" font-family="Helvetica,sans-Serif" font-size="10.00">controller.CellSocietyController.initialize</text>
<text text-anchor="middle" x="280" y="-75" font-family="Helvetica,sans-Serif" font-size="10.00">SimulationScreen</text>
</a>
</g>
</g>
<!-- Node1&#45;&gt;Node2 -->
<g id="edge1" class="edge"><title>Node1&#45;&gt;Node2</title>
<path fill="none" stroke="midnightblue" d="M151.656,-83C160.412,-83 169.409,-83 178.377,-83"/>
<polygon fill="midnightblue" stroke="midnightblue" points="151.504,-79.5001 141.504,-83 151.504,-86.5001 151.504,-79.5001"/>
</g>
<!-- Node3 -->
<g id="node3" class="node"><title>Node3</title>
<g id="a_node3"><a xlink:href="../../d6/d7b/classcontroller_1_1_cell_society_controller.html#a3d913ad3344ac48e887110e2fabb5746" target="_top" xlink:title="controller.CellSocietyController.transition\lToSimulation">
<polygon fill="white" stroke="black" points="418,-68 418,-98 628,-98 628,-68 418,-68"/>
<text text-anchor="start" x="426" y="-86" font-family="Helvetica,sans-Serif" font-size="10.00">controller.CellSocietyController.transition</text>
<text text-anchor="middle" x="523" y="-75" font-family="Helvetica,sans-Serif" font-size="10.00">ToSimulation</text>
</a>
</g>
</g>
<!-- Node2&#45;&gt;Node3 -->
<g id="edge2" class="edge"><title>Node2&#45;&gt;Node3</title>
<path fill="none" stroke="midnightblue" d="M391.873,-83C400.481,-83 409.155,-83 417.717,-83"/>
<polygon fill="midnightblue" stroke="midnightblue" points="391.809,-79.5001 381.809,-83 391.809,-86.5001 391.809,-79.5001"/>
</g>
<!-- Node4 -->
<g id="node4" class="node"><title>Node4</title>
<g id="a_node4"><a xlink:href="../../d6/d7b/classcontroller_1_1_cell_society_controller.html#ada30fdc135cdf08b93065edf15ed3fcc" target="_top" xlink:title="controller.CellSocietyController.generate\lProbabilityRandomGrid">
<polygon fill="white" stroke="black" points="664.5,-112 664.5,-142 873.5,-142 873.5,-112 664.5,-112"/>
<text text-anchor="start" x="672.5" y="-130" font-family="Helvetica,sans-Serif" font-size="10.00">controller.CellSocietyController.generate</text>
<text text-anchor="middle" x="769" y="-119" font-family="Helvetica,sans-Serif" font-size="10.00">ProbabilityRandomGrid</text>
</a>
</g>
</g>
<!-- Node3&#45;&gt;Node4 -->
<g id="edge3" class="edge"><title>Node3&#45;&gt;Node4</title>
<path fill="none" stroke="midnightblue" d="M617.361,-99.8357C639.514,-103.83 663.001,-108.066 684.673,-111.974"/>
<polygon fill="midnightblue" stroke="midnightblue" points="617.751,-96.3495 607.289,-98.0192 616.509,-103.238 617.751,-96.3495"/>
</g>
<!-- Node12 -->
<g id="node12" class="node"><title>Node12</title>
<g id="a_node12"><a xlink:href="../../d6/d7b/classcontroller_1_1_cell_society_controller.html#ab65a8810efbc2b92e17ca77cdc591df9" target="_top" xlink:title="controller.CellSocietyController.generate\lRandomGrid">
<polygon fill="white" stroke="black" points="910.5,-68 910.5,-98 1119.5,-98 1119.5,-68 910.5,-68"/>
<text text-anchor="start" x="918.5" y="-86" font-family="Helvetica,sans-Serif" font-size="10.00">controller.CellSocietyController.generate</text>
<text text-anchor="middle" x="1015" y="-75" font-family="Helvetica,sans-Serif" font-size="10.00">RandomGrid</text>
</a>
</g>
</g>
<!-- Node3&#45;&gt;Node12 -->
<g id="edge12" class="edge"><title>Node3&#45;&gt;Node12</title>
<path fill="none" stroke="midnightblue" d="M638.36,-83C720.624,-83 830.66,-83 910.36,-83"/>
<polygon fill="midnightblue" stroke="midnightblue" points="638.216,-79.5001 628.216,-83 638.216,-86.5001 638.216,-79.5001"/>
</g>
<!-- Node13 -->
<g id="node13" class="node"><title>Node13</title>
<g id="a_node13"><a xlink:href="../../d6/d7b/classcontroller_1_1_cell_society_controller.html#a643c7ac22f2822fa7e492dbf4267ed21" target="_top" xlink:title="controller.CellSocietyController.readXML">
<polygon fill="white" stroke="black" points="666,-24.5 666,-43.5 872,-43.5 872,-24.5 666,-24.5"/>
<text text-anchor="middle" x="769" y="-31.5" font-family="Helvetica,sans-Serif" font-size="10.00">controller.CellSocietyController.readXML</text>
</a>
</g>
</g>
<!-- Node3&#45;&gt;Node13 -->
<g id="edge14" class="edge"><title>Node3&#45;&gt;Node13</title>
<path fill="none" stroke="midnightblue" d="M608.77,-65.9766C646.216,-58.4567 688.837,-49.8975 720.555,-43.528"/>
<polygon fill="midnightblue" stroke="midnightblue" points="607.981,-62.5649 598.866,-67.9654 609.36,-69.4279 607.981,-62.5649"/>
</g>
<!-- Node5 -->
<g id="node5" class="node"><title>Node5</title>
<g id="a_node5"><a xlink:href="../../dd/d02/classview_1_1_splash_screen.html#a05478a56856d70fd9508d79ca484fbca" target="_top" xlink:title="view.SplashScreen.addProbabilityText">
<polygon fill="white" stroke="black" points="918,-117.5 918,-136.5 1112,-136.5 1112,-117.5 918,-117.5"/>
<text text-anchor="middle" x="1015" y="-124.5" font-family="Helvetica,sans-Serif" font-size="10.00">view.SplashScreen.addProbabilityText</text>
</a>
</g>
</g>
<!-- Node4&#45;&gt;Node5 -->
<g id="edge4" class="edge"><title>Node4&#45;&gt;Node5</title>
<path fill="none" stroke="midnightblue" d="M884.093,-127C895.306,-127 906.609,-127 917.619,-127"/>
<polygon fill="midnightblue" stroke="midnightblue" points="883.832,-123.5 873.832,-127 883.832,-130.5 883.832,-123.5"/>
</g>
<!-- Node6 -->
<g id="node6" class="node"><title>Node6</title>
<g id="a_node6"><a xlink:href="../../dd/d02/classview_1_1_splash_screen.html#a2f8c52e9a2a790459e51d5d42f16f7da" target="_top" xlink:title="view.SplashScreen.display\lAskInformatio">
<polygon fill="white" stroke="black" points="1164.5,-100 1164.5,-130 1305.5,-130 1305.5,-100 1164.5,-100"/>
<text text-anchor="start" x="1172.5" y="-118" font-family="Helvetica,sans-Serif" font-size="10.00">view.SplashScreen.display</text>
<text text-anchor="middle" x="1235" y="-107" font-family="Helvetica,sans-Serif" font-size="10.00">AskInformatio</text>
</a>
</g>
</g>
<!-- Node5&#45;&gt;Node6 -->
<g id="edge5" class="edge"><title>Node5&#45;&gt;Node6</title>
<path fill="none" stroke="midnightblue" d="M1122.58,-121.133C1136.8,-120.35 1151.07,-119.565 1164.43,-118.829"/>
<polygon fill="midnightblue" stroke="midnightblue" points="1122.05,-117.657 1112.25,-121.702 1122.43,-124.647 1122.05,-117.657"/>
</g>
<!-- Node7 -->
<g id="node7" class="node"><title>Node7</title>
<g id="a_node7"><a xlink:href="../../dd/d02/classview_1_1_splash_screen.html#ad94d9edd23f270a5f480fd54a06d72f3" target="_top" xlink:title="view.SplashScreen.addProbablity\lButton">
<polygon fill="white" stroke="black" points="1350.5,-135 1350.5,-165 1523.5,-165 1523.5,-135 1350.5,-135"/>
<text text-anchor="start" x="1358.5" y="-153" font-family="Helvetica,sans-Serif" font-size="10.00">view.SplashScreen.addProbablity</text>
<text text-anchor="middle" x="1437" y="-142" font-family="Helvetica,sans-Serif" font-size="10.00">Button</text>
</a>
</g>
</g>
<!-- Node6&#45;&gt;Node7 -->
<g id="edge6" class="edge"><title>Node6&#45;&gt;Node7</title>
<path fill="none" stroke="midnightblue" d="M1315.6,-128.931C1327.04,-130.932 1338.84,-132.997 1350.38,-135.017"/>
<polygon fill="midnightblue" stroke="midnightblue" points="1316.12,-125.468 1305.67,-127.192 1314.92,-132.364 1316.12,-125.468"/>
</g>
<!-- Node11 -->
<g id="node11" class="node"><title>Node11</title>
<g id="a_node11"><a xlink:href="../../dd/d02/classview_1_1_splash_screen.html#a17ba24f5ed477a37ea527710e54d65c8" target="_top" xlink:title="view.SplashScreen.addRandom\lButton">
<polygon fill="white" stroke="black" points="1354,-86 1354,-116 1520,-116 1520,-86 1354,-86"/>
<text text-anchor="start" x="1362" y="-104" font-family="Helvetica,sans-Serif" font-size="10.00">view.SplashScreen.addRandom</text>
<text text-anchor="middle" x="1437" y="-93" font-family="Helvetica,sans-Serif" font-size="10.00">Button</text>
</a>
</g>
</g>
<!-- Node6&#45;&gt;Node11 -->
<g id="edge10" class="edge"><title>Node6&#45;&gt;Node11</title>
<path fill="none" stroke="midnightblue" d="M1316.02,-109.399C1328.48,-108.527 1341.37,-107.624 1353.87,-106.749"/>
<polygon fill="midnightblue" stroke="midnightblue" points="1315.4,-105.933 1305.67,-110.123 1315.89,-112.916 1315.4,-105.933"/>
</g>
<!-- Node8 -->
<g id="node8" class="node"><title>Node8</title>
<g id="a_node8"><a xlink:href="../../dd/d02/classview_1_1_splash_screen.html#a6ff42b7dad4e546981a3266f9d694f5a" target="_top" xlink:title="view.SplashScreen.getNode">
<polygon fill="white" stroke="black" points="1560.5,-91.5 1560.5,-110.5 1709.5,-110.5 1709.5,-91.5 1560.5,-91.5"/>
<text text-anchor="middle" x="1635" y="-98.5" font-family="Helvetica,sans-Serif" font-size="10.00">view.SplashScreen.getNode</text>
</a>
</g>
</g>
<!-- Node7&#45;&gt;Node8 -->
<g id="edge7" class="edge"><title>Node7&#45;&gt;Node8</title>
<path fill="none" stroke="midnightblue" d="M1508.02,-132.495C1537.63,-125.093 1570.95,-116.762 1595.89,-110.528"/>
<polygon fill="midnightblue" stroke="midnightblue" points="1506.99,-129.144 1498.14,-134.965 1508.69,-135.935 1506.99,-129.144"/>
</g>
<!-- Node9 -->
<g id="node9" class="node"><title>Node9</title>
<g id="a_node9"><a xlink:href="../../d6/d7b/classcontroller_1_1_cell_society_controller.html#a3f78125e5b809d88d3cf7ed20b3756c2" target="_top" xlink:title="controller.CellSocietyController.display\lSplashScreen">
<polygon fill="white" stroke="black" points="1746,-86 1746,-116 1944,-116 1944,-86 1746,-86"/>
<text text-anchor="start" x="1754" y="-104" font-family="Helvetica,sans-Serif" font-size="10.00">controller.CellSocietyController.display</text>
<text text-anchor="middle" x="1845" y="-93" font-family="Helvetica,sans-Serif" font-size="10.00">SplashScreen</text>
</a>
</g>
</g>
<!-- Node8&#45;&gt;Node9 -->
<g id="edge8" class="edge"><title>Node8&#45;&gt;Node9</title>
<path fill="none" stroke="midnightblue" d="M1719.88,-101C1728.38,-101 1737.07,-101 1745.7,-101"/>
<polygon fill="midnightblue" stroke="midnightblue" points="1719.63,-97.5001 1709.63,-101 1719.63,-104.5 1719.63,-97.5001"/>
</g>
<!-- Node10 -->
<g id="node10" class="node"><title>Node10</title>
<g id="a_node10"><a xlink:href="../../d6/d7b/classcontroller_1_1_cell_society_controller.html#a6a2310de67e415512149c94c9f36e356" target="_top" xlink:title="controller.CellSocietyController.\lCellSocietyController">
<polygon fill="white" stroke="black" points="1980.5,-86 1980.5,-116 2145.5,-116 2145.5,-86 1980.5,-86"/>
<text text-anchor="start" x="1988.5" y="-104" font-family="Helvetica,sans-Serif" font-size="10.00">controller.CellSocietyController.</text>
<text text-anchor="middle" x="2063" y="-93" font-family="Helvetica,sans-Serif" font-size="10.00">CellSocietyController</text>
</a>
</g>
</g>
<!-- Node9&#45;&gt;Node10 -->
<g id="edge9" class="edge"><title>Node9&#45;&gt;Node10</title>
<path fill="none" stroke="midnightblue" d="M1954.38,-101C1963.07,-101 1971.75,-101 1980.2,-101"/>
<polygon fill="midnightblue" stroke="midnightblue" points="1954.2,-97.5001 1944.2,-101 1954.2,-104.5 1954.2,-97.5001"/>
</g>
<!-- Node11&#45;&gt;Node8 -->
<g id="edge11" class="edge"><title>Node11&#45;&gt;Node8</title>
<path fill="none" stroke="midnightblue" d="M1530.31,-101C1540.39,-101 1550.55,-101 1560.36,-101"/>
<polygon fill="midnightblue" stroke="midnightblue" points="1530.27,-97.5001 1520.27,-101 1530.27,-104.5 1530.27,-97.5001"/>
</g>
<!-- Node12&#45;&gt;Node6 -->
<g id="edge13" class="edge"><title>Node12&#45;&gt;Node6</title>
<path fill="none" stroke="midnightblue" d="M1128.55,-99.5206C1140.75,-101.312 1152.89,-103.094 1164.36,-104.777"/>
<polygon fill="midnightblue" stroke="midnightblue" points="1128.7,-96.0057 1118.3,-98.0162 1127.68,-102.931 1128.7,-96.0057"/>
</g>
<!-- Node14 -->
<g id="node14" class="node"><title>Node14</title>
<g id="a_node14"><a xlink:href="../../d6/d7b/classcontroller_1_1_cell_society_controller.html#afbdf9a63e15a2bfa878dcfe5ed3ef6dc" target="_top" xlink:title="controller.CellSocietyController.transition\lToFileLoaderScreen">
<polygon fill="white" stroke="black" points="910,-19 910,-49 1120,-49 1120,-19 910,-19"/>
<text text-anchor="start" x="918" y="-37" font-family="Helvetica,sans-Serif" font-size="10.00">controller.CellSocietyController.transition</text>
<text text-anchor="middle" x="1015" y="-26" font-family="Helvetica,sans-Serif" font-size="10.00">ToFileLoaderScreen</text>
</a>
</g>
</g>
<!-- Node13&#45;&gt;Node14 -->
<g id="edge15" class="edge"><title>Node13&#45;&gt;Node14</title>
<path fill="none" stroke="midnightblue" d="M882.105,-27.2698C891.396,-27.2326 900.764,-27.2479 909.991,-27.3157"/>
<polygon fill="midnightblue" stroke="midnightblue" points="882.043,-23.77 872.064,-27.3307 882.085,-30.7699 882.043,-23.77"/>
</g>
<!-- Node14&#45;&gt;Node13 -->
<g id="edge20" class="edge"><title>Node14&#45;&gt;Node13</title>
<path fill="none" stroke="midnightblue" d="M899.934,-40.7373C890.633,-40.7671 881.271,-40.7444 872.064,-40.6693"/>
<polygon fill="midnightblue" stroke="midnightblue" points="900.01,-44.237 909.991,-40.6843 899.973,-37.2371 900.01,-44.237"/>
</g>
<!-- Node15 -->
<g id="node15" class="node"><title>Node15</title>
<g id="a_node15"><a xlink:href="../../d3/d48/classview_1_1_top_menu.html#af56bae78812baf114a9ed49ad52694df" target="_top" xlink:title="view.TopMenu.addLoadButton">
<polygon fill="white" stroke="black" points="1156,-49.5 1156,-68.5 1314,-68.5 1314,-49.5 1156,-49.5"/>
<text text-anchor="middle" x="1235" y="-56.5" font-family="Helvetica,sans-Serif" font-size="10.00">view.TopMenu.addLoadButton</text>
</a>
</g>
</g>
<!-- Node14&#45;&gt;Node15 -->
<g id="edge16" class="edge"><title>Node14&#45;&gt;Node15</title>
<path fill="none" stroke="midnightblue" d="M1130.38,-47.1166C1139.03,-48.1089 1147.64,-49.0961 1155.98,-50.0529"/>
<polygon fill="midnightblue" stroke="midnightblue" points="1130.55,-43.613 1120.21,-45.9508 1129.75,-50.5675 1130.55,-43.613"/>
</g>
<!-- Node17 -->
<g id="node17" class="node"><title>Node17</title>
<g id="a_node17"><a xlink:href="../../dd/d02/classview_1_1_splash_screen.html#a652092fc5c5862cee4ff84bf231646ab" target="_top" xlink:title="view.SplashScreen.addLoad\lButton">
<polygon fill="white" stroke="black" points="1160.5,-0 1160.5,-30 1309.5,-30 1309.5,-0 1160.5,-0"/>
<text text-anchor="start" x="1168.5" y="-18" font-family="Helvetica,sans-Serif" font-size="10.00">view.SplashScreen.addLoad</text>
<text text-anchor="middle" x="1235" y="-7" font-family="Helvetica,sans-Serif" font-size="10.00">Button</text>
</a>
</g>
</g>
<!-- Node14&#45;&gt;Node17 -->
<g id="edge18" class="edge"><title>Node14&#45;&gt;Node17</title>
<path fill="none" stroke="midnightblue" d="M1130.4,-24.0296C1140.58,-23.1425 1150.69,-22.2609 1160.39,-21.4158"/>
<polygon fill="midnightblue" stroke="midnightblue" points="1129.87,-20.5622 1120.21,-24.9174 1130.48,-27.5358 1129.87,-20.5622"/>
</g>
<!-- Node16 -->
<g id="node16" class="node"><title>Node16</title>
<g id="a_node16"><a xlink:href="../../d3/d48/classview_1_1_top_menu.html#a4442589b1733d6ad662c92700f27018e" target="_top" xlink:title="view.TopMenu.createTopButtons">
<polygon fill="white" stroke="black" points="1353,-47.5 1353,-66.5 1521,-66.5 1521,-47.5 1353,-47.5"/>
<text text-anchor="middle" x="1437" y="-54.5" font-family="Helvetica,sans-Serif" font-size="10.00">view.TopMenu.createTopButtons</text>
</a>
</g>
</g>
<!-- Node15&#45;&gt;Node16 -->
<g id="edge17" class="edge"><title>Node15&#45;&gt;Node16</title>
<path fill="none" stroke="midnightblue" d="M1324.4,-58.116C1333.88,-58.0212 1343.5,-57.925 1352.92,-57.8308"/>
<polygon fill="midnightblue" stroke="midnightblue" points="1324.15,-54.6182 1314.18,-58.2182 1324.22,-61.6179 1324.15,-54.6182"/>
</g>
<!-- Node17&#45;&gt;Node8 -->
<g id="edge19" class="edge"><title>Node17&#45;&gt;Node8</title>
<path fill="none" stroke="midnightblue" d="M1319.86,-12.1144C1378.31,-12.398 1457.43,-17.4154 1524,-38 1562.48,-49.8982 1602.15,-76.9788 1621.65,-91.4557"/>
<polygon fill="midnightblue" stroke="midnightblue" points="1319.56,-8.61447 1309.56,-12.1122 1319.56,-15.6145 1319.56,-8.61447"/>
</g>
</g>
</svg>
