<?xml version="1.0" encoding="UTF-8" standalone="no"?>
<!DOCTYPE svg PUBLIC "-//W3C//DTD SVG 1.1//EN"
 "http://www.w3.org/Graphics/SVG/1.1/DTD/svg11.dtd">
<!-- Generated by graphviz version 2.36.0 (20140111.2315)
 -->
<!-- Title: view.SimulationScreen.updateScreen Pages: 1 -->
<svg width="588pt" height="38pt"
 viewBox="0.00 0.00 588.00 38.00" xmlns="http://www.w3.org/2000/svg" xmlns:xlink="http://www.w3.org/1999/xlink">
<g id="graph0" class="graph" transform="scale(1 1) rotate(0) translate(4 34)">
<title>view.SimulationScreen.updateScreen</title>
<polygon fill="white" stroke="none" points="-4,4 -4,-34 584,-34 584,4 -4,4"/>
<!-- Node1 -->
<g id="node1" class="node"><title>Node1</title>
<polygon fill="#bfbfbf" stroke="black" points="0.5,-0 0.5,-30 161.5,-30 161.5,-0 0.5,-0"/>
<text text-anchor="start" x="8.5" y="-18" font-family="Helvetica,sans-Serif" font-size="10.00">view.SimulationScreen.update</text>
<text text-anchor="middle" x="81" y="-7" font-family="Helvetica,sans-Serif" font-size="10.00">Screen</text>
</g>
<!-- Node2 -->
<g id="node2" class="node"><title>Node2</title>
<g id="a_node2"><a xlink:href="../../d1/d3e/classview_1_1_simulation_screen.html#ac818b7465bc624b25a3aba98df571bdb" target="_top" xlink:title="view.SimulationScreen.updateData">
<polygon fill="white" stroke="black" points="198,-5.5 198,-24.5 382,-24.5 382,-5.5 198,-5.5"/>
<text text-anchor="middle" x="290" y="-12.5" font-family="Helvetica,sans-Serif" font-size="10.00">view.SimulationScreen.updateData</text>
</a>
</g>
</g>
<!-- Node1&#45;&gt;Node2 -->
<g id="edge1" class="edge"><title>Node1&#45;&gt;Node2</title>
<path fill="none" stroke="midnightblue" d="M161.736,-15C170.249,-15 178.989,-15 187.708,-15"/>
<polygon fill="midnightblue" stroke="midnightblue" points="187.92,-18.5001 197.92,-15 187.92,-11.5001 187.92,-18.5001"/>
</g>
<!-- Node3 -->
<g id="node3" class="node"><title>Node3</title>
<g id="a_node3"><a xlink:href="../../d1/d3e/classview_1_1_simulation_screen.html#a903be669ef69338f95301aa617218a14" target="_top" xlink:title="view.SimulationScreen.update\lMapArrayList">
<polygon fill="white" stroke="black" points="418.5,-0 418.5,-30 579.5,-30 579.5,-0 418.5,-0"/>
<text text-anchor="start" x="426.5" y="-18" font-family="Helvetica,sans-Serif" font-size="10.00">view.SimulationScreen.update</text>
<text text-anchor="middle" x="499" y="-7" font-family="Helvetica,sans-Serif" font-size="10.00">MapArrayList</text>
</a>
</g>
</g>
<!-- Node2&#45;&gt;Node3 -->
<g id="edge2" class="edge"><title>Node2&#45;&gt;Node3</title>
<path fill="none" stroke="midnightblue" d="M382.094,-15C390.748,-15 399.519,-15 408.161,-15"/>
<polygon fill="midnightblue" stroke="midnightblue" points="408.232,-18.5001 418.232,-15 408.232,-11.5001 408.232,-18.5001"/>
</g>
</g>
</svg>
