<?xml version="1.0" encoding="UTF-8" standalone="no"?>
<!DOCTYPE svg PUBLIC "-//W3C//DTD SVG 1.1//EN"
 "http://www.w3.org/Graphics/SVG/1.1/DTD/svg11.dtd">
<!-- Generated by graphviz version 2.36.0 (20140111.2315)
 -->
<!-- Title: model.cells.FireCellTree.checkStatus Pages: 1 -->
<svg width="376pt" height="77pt"
 viewBox="0.00 0.00 376.00 77.00" xmlns="http://www.w3.org/2000/svg" xmlns:xlink="http://www.w3.org/1999/xlink">
<g id="graph0" class="graph" transform="scale(1 1) rotate(0) translate(4 73)">
<title>model.cells.FireCellTree.checkStatus</title>
<polygon fill="white" stroke="none" points="-4,4 -4,-73 372,-73 372,4 -4,4"/>
<!-- Node1 -->
<g id="node1" class="node"><title>Node1</title>
<polygon fill="#bfbfbf" stroke="black" points="0,-17 0,-47 158,-47 158,-17 0,-17"/>
<text text-anchor="start" x="8" y="-35" font-family="Helvetica,sans-Serif" font-size="10.00">model.cells.FireCellTree.check</text>
<text text-anchor="middle" x="79" y="-24" font-family="Helvetica,sans-Serif" font-size="10.00">Status</text>
</g>
<!-- Node2 -->
<g id="node2" class="node"><title>Node2</title>
<g id="a_node2"><a xlink:href="../../dd/d69/classmodel_1_1cells_1_1_fire_cell_tree.html#aaafeb1b4f7c6070ead79f12b99df3f1c" target="_top" xlink:title="model.cells.FireCellTree.calculate\lProbability">
<polygon fill="white" stroke="black" points="194.5,-39 194.5,-69 367.5,-69 367.5,-39 194.5,-39"/>
<text text-anchor="start" x="202.5" y="-57" font-family="Helvetica,sans-Serif" font-size="10.00">model.cells.FireCellTree.calculate</text>
<text text-anchor="middle" x="281" y="-46" font-family="Helvetica,sans-Serif" font-size="10.00">Probability</text>
</a>
</g>
</g>
<!-- Node1&#45;&gt;Node2 -->
<g id="edge1" class="edge"><title>Node1&#45;&gt;Node2</title>
<path fill="none" stroke="midnightblue" d="M158.185,-40.6003C166.689,-41.5358 175.415,-42.4956 184.099,-43.4509"/>
<polygon fill="midnightblue" stroke="midnightblue" points="183.937,-46.9541 194.259,-44.5685 184.702,-39.996 183.937,-46.9541"/>
</g>
<!-- Node3 -->
<g id="node3" class="node"><title>Node3</title>
<g id="a_node3"><a xlink:href="../../dc/d41/classmodel_1_1cells_1_1_cell.html#a7e5ee6b211415566a0c33b7af893ba9f" target="_top" xlink:title="model.cells.Cell.viewProperties">
<polygon fill="white" stroke="black" points="199.5,-0.5 199.5,-19.5 362.5,-19.5 362.5,-0.5 199.5,-0.5"/>
<text text-anchor="middle" x="281" y="-7.5" font-family="Helvetica,sans-Serif" font-size="10.00">model.cells.Cell.viewProperties</text>
</a>
</g>
</g>
<!-- Node1&#45;&gt;Node3 -->
<g id="edge2" class="edge"><title>Node1&#45;&gt;Node3</title>
<path fill="none" stroke="midnightblue" d="M158.185,-23.3997C168.291,-22.288 178.711,-21.1418 189.002,-20.0098"/>
<polygon fill="midnightblue" stroke="midnightblue" points="189.677,-23.4568 199.234,-18.8843 188.911,-16.4987 189.677,-23.4568"/>
</g>
</g>
</svg>
