<?xml version="1.0" encoding="UTF-8" standalone="no"?>
<!DOCTYPE svg PUBLIC "-//W3C//DTD SVG 1.1//EN"
 "http://www.w3.org/Graphics/SVG/1.1/DTD/svg11.dtd">
<!-- Generated by graphviz version 2.36.0 (20140111.2315)
 -->
<!-- Title: model.simulations.AbstractCellFactory Pages: 1 -->
<svg width="346pt" height="234pt"
 viewBox="0.00 0.00 346.00 234.00" xmlns="http://www.w3.org/2000/svg" xmlns:xlink="http://www.w3.org/1999/xlink">
<g id="graph0" class="graph" transform="scale(1 1) rotate(0) translate(4 230)">
<title>model.simulations.AbstractCellFactory</title>
<polygon fill="white" stroke="none" points="-4,4 -4,-230 342,-230 342,4 -4,4"/>
<!-- Node1 -->
<g id="node1" class="node"><title>Node1</title>
<polygon fill="#bfbfbf" stroke="black" points="0,-98 0,-128 148,-128 148,-98 0,-98"/>
<text text-anchor="start" x="8" y="-116" font-family="Helvetica,sans-Serif" font-size="10.00">model.simulations.Abstract</text>
<text text-anchor="middle" x="74" y="-105" font-family="Helvetica,sans-Serif" font-size="10.00">CellFactory</text>
</g>
<!-- Node2 -->
<g id="node2" class="node"><title>Node2</title>
<g id="a_node2"><a xlink:href="../../de/d62/classmodel_1_1simulations_1_1_agent_cell_factory.html" target="_top" xlink:title="model.simulations.AgentCell\lFactory">
<polygon fill="white" stroke="black" points="184.5,-196 184.5,-226 337.5,-226 337.5,-196 184.5,-196"/>
<text text-anchor="start" x="192.5" y="-214" font-family="Helvetica,sans-Serif" font-size="10.00">model.simulations.AgentCell</text>
<text text-anchor="middle" x="261" y="-203" font-family="Helvetica,sans-Serif" font-size="10.00">Factory</text>
</a>
</g>
</g>
<!-- Node1&#45;&gt;Node2 -->
<g id="edge1" class="edge"><title>Node1&#45;&gt;Node2</title>
<path fill="none" stroke="midnightblue" d="M102.347,-134.387C123.661,-150.276 154.496,-171.604 184,-186 191.49,-189.655 199.644,-192.969 207.739,-195.903"/>
<polygon fill="midnightblue" stroke="midnightblue" points="104.196,-131.397 94.1078,-128.161 99.9762,-136.982 104.196,-131.397"/>
</g>
<!-- Node3 -->
<g id="node3" class="node"><title>Node3</title>
<g id="a_node3"><a xlink:href="../../dc/dd8/classmodel_1_1simulations_1_1_fire_cell_factory.html" target="_top" xlink:title="model.simulations.FireCell\lFactory">
<polygon fill="white" stroke="black" points="190.5,-147 190.5,-177 331.5,-177 331.5,-147 190.5,-147"/>
<text text-anchor="start" x="198.5" y="-165" font-family="Helvetica,sans-Serif" font-size="10.00">model.simulations.FireCell</text>
<text text-anchor="middle" x="261" y="-154" font-family="Helvetica,sans-Serif" font-size="10.00">Factory</text>
</a>
</g>
</g>
<!-- Node1&#45;&gt;Node3 -->
<g id="edge2" class="edge"><title>Node1&#45;&gt;Node3</title>
<path fill="none" stroke="midnightblue" d="M141.535,-130.623C161.775,-135.984 183.82,-141.823 203.344,-146.994"/>
<polygon fill="midnightblue" stroke="midnightblue" points="142.326,-127.212 131.763,-128.035 140.534,-133.978 142.326,-127.212"/>
</g>
<!-- Node4 -->
<g id="node4" class="node"><title>Node4</title>
<g id="a_node4"><a xlink:href="../../d3/d6d/classmodel_1_1simulations_1_1_life_cell_factory.html" target="_top" xlink:title="model.simulations.LifeCell\lFactory">
<polygon fill="white" stroke="black" points="190.5,-98 190.5,-128 331.5,-128 331.5,-98 190.5,-98"/>
<text text-anchor="start" x="198.5" y="-116" font-family="Helvetica,sans-Serif" font-size="10.00">model.simulations.LifeCell</text>
<text text-anchor="middle" x="261" y="-105" font-family="Helvetica,sans-Serif" font-size="10.00">Factory</text>
</a>
</g>
</g>
<!-- Node1&#45;&gt;Node4 -->
<g id="edge3" class="edge"><title>Node1&#45;&gt;Node4</title>
<path fill="none" stroke="midnightblue" d="M158.333,-113C169.061,-113 179.955,-113 190.43,-113"/>
<polygon fill="midnightblue" stroke="midnightblue" points="158.117,-109.5 148.117,-113 158.117,-116.5 158.117,-109.5"/>
</g>
<!-- Node5 -->
<g id="node5" class="node"><title>Node5</title>
<g id="a_node5"><a xlink:href="../../d6/d76/classmodel_1_1simulations_1_1_predator_cell_factory.html" target="_top" xlink:title="model.simulations.Predator\lCellFactory">
<polygon fill="white" stroke="black" points="186.5,-49 186.5,-79 335.5,-79 335.5,-49 186.5,-49"/>
<text text-anchor="start" x="194.5" y="-67" font-family="Helvetica,sans-Serif" font-size="10.00">model.simulations.Predator</text>
<text text-anchor="middle" x="261" y="-56" font-family="Helvetica,sans-Serif" font-size="10.00">CellFactory</text>
</a>
</g>
</g>
<!-- Node1&#45;&gt;Node5 -->
<g id="edge4" class="edge"><title>Node1&#45;&gt;Node5</title>
<path fill="none" stroke="midnightblue" d="M141.535,-95.3771C161.775,-90.0163 183.82,-84.1775 203.344,-79.0062"/>
<polygon fill="midnightblue" stroke="midnightblue" points="140.534,-92.0216 131.763,-97.9654 142.326,-98.7883 140.534,-92.0216"/>
</g>
<!-- Node6 -->
<g id="node6" class="node"><title>Node6</title>
<g id="a_node6"><a xlink:href="../../d1/da9/classmodel_1_1simulations_1_1_sugar_cell_factory.html" target="_top" xlink:title="model.simulations.SugarCell\lFactory">
<polygon fill="white" stroke="black" points="184.5,-0 184.5,-30 337.5,-30 337.5,-0 184.5,-0"/>
<text text-anchor="start" x="192.5" y="-18" font-family="Helvetica,sans-Serif" font-size="10.00">model.simulations.SugarCell</text>
<text text-anchor="middle" x="261" y="-7" font-family="Helvetica,sans-Serif" font-size="10.00">Factory</text>
</a>
</g>
</g>
<!-- Node1&#45;&gt;Node6 -->
<g id="edge5" class="edge"><title>Node1&#45;&gt;Node6</title>
<path fill="none" stroke="midnightblue" d="M102.347,-91.6132C123.661,-75.7237 154.496,-54.3962 184,-40 191.49,-36.3453 199.644,-33.0305 207.739,-30.097"/>
<polygon fill="midnightblue" stroke="midnightblue" points="99.9762,-89.0176 94.1078,-97.8388 104.196,-94.6026 99.9762,-89.0176"/>
</g>
</g>
</svg>
