<?xml version="1.0" encoding="UTF-8" standalone="no"?>
<!DOCTYPE svg PUBLIC "-//W3C//DTD SVG 1.1//EN"
 "http://www.w3.org/Graphics/SVG/1.1/DTD/svg11.dtd">
<!-- Generated by graphviz version 2.36.0 (20140111.2315)
 -->
<!-- Title: model.cells.SugarCellEmpty Pages: 1 -->
<svg width="438pt" height="222pt"
 viewBox="0.00 0.00 438.00 222.00" xmlns="http://www.w3.org/2000/svg" xmlns:xlink="http://www.w3.org/1999/xlink">
<g id="graph0" class="graph" transform="scale(1 1) rotate(0) translate(4 218)">
<title>model.cells.SugarCellEmpty</title>
<polygon fill="white" stroke="none" points="-4,4 -4,-218 434,-218 434,4 -4,4"/>
<!-- Node1 -->
<g id="node1" class="node"><title>Node1</title>
<polygon fill="#bfbfbf" stroke="black" points="0,-0.5 0,-19.5 150,-19.5 150,-0.5 0,-0.5"/>
<text text-anchor="middle" x="75" y="-7.5" font-family="Helvetica,sans-Serif" font-size="10.00">model.cells.SugarCellEmpty</text>
</g>
<!-- Node2 -->
<g id="node2" class="node"><title>Node2</title>
<g id="a_node2"><a xlink:href="../../d5/dbe/classmodel_1_1cells_1_1_sugar_cell.html" target="_top" xlink:title="model.cells.SugarCell">
<polygon fill="white" stroke="black" points="15.5,-58.5 15.5,-77.5 134.5,-77.5 134.5,-58.5 15.5,-58.5"/>
<text text-anchor="middle" x="75" y="-65.5" font-family="Helvetica,sans-Serif" font-size="10.00">model.cells.SugarCell</text>
</a>
</g>
</g>
<!-- Node2&#45;&gt;Node1 -->
<g id="edge1" class="edge"><title>Node2&#45;&gt;Node1</title>
<path fill="none" stroke="midnightblue" d="M75,-47.953C75,-38.2875 75,-27.0312 75,-19.5052"/>
<polygon fill="midnightblue" stroke="midnightblue" points="71.5001,-48.25 75,-58.25 78.5001,-48.25 71.5001,-48.25"/>
</g>
<!-- Node3 -->
<g id="node3" class="node"><title>Node3</title>
<g id="a_node3"><a xlink:href="../../dc/d41/classmodel_1_1cells_1_1_cell.html" target="_top" xlink:title="model.cells.Cell">
<polygon fill="white" stroke="black" points="47.5,-126.5 47.5,-145.5 138.5,-145.5 138.5,-126.5 47.5,-126.5"/>
<text text-anchor="middle" x="93" y="-133.5" font-family="Helvetica,sans-Serif" font-size="10.00">model.cells.Cell</text>
</a>
</g>
</g>
<!-- Node3&#45;&gt;Node2 -->
<g id="edge2" class="edge"><title>Node3&#45;&gt;Node2</title>
<path fill="none" stroke="midnightblue" d="M87.9341,-116.425C84.4903,-103.798 80.0897,-87.6623 77.4112,-77.8411"/>
<polygon fill="midnightblue" stroke="midnightblue" points="84.6389,-117.645 90.6468,-126.372 91.3922,-115.803 84.6389,-117.645"/>
</g>
<!-- Node5 -->
<g id="node5" class="node"><title>Node5</title>
<g id="a_node5"><a xlink:href="../../db/d90/classmodel_1_1patches_1_1_patch.html" target="_top" xlink:title="model.patches.Patch">
<polygon fill="white" stroke="black" points="164.5,-58.5 164.5,-77.5 281.5,-77.5 281.5,-58.5 164.5,-58.5"/>
<text text-anchor="middle" x="223" y="-65.5" font-family="Helvetica,sans-Serif" font-size="10.00">model.patches.Patch</text>
</a>
</g>
</g>
<!-- Node3&#45;&gt;Node5 -->
<g id="edge6" class="edge"><title>Node3&#45;&gt;Node5</title>
<path fill="none" stroke="#9a32cd" stroke-dasharray="5,2" d="M122.747,-122.528C132.773,-118.141 143.962,-113.043 154,-108 173.304,-98.3013 194.882,-85.8302 208.685,-77.6351"/>
<polygon fill="#9a32cd" stroke="#9a32cd" points="121.359,-119.315 113.565,-126.491 124.134,-125.741 121.359,-119.315"/>
<text text-anchor="middle" x="194" y="-99.5" font-family="Helvetica,sans-Serif" font-size="10.00"> myCell</text>
</g>
<!-- Node4 -->
<g id="node4" class="node"><title>Node4</title>
<polygon fill="white" stroke="#bfbfbf" points="28,-194.5 28,-213.5 158,-213.5 158,-194.5 28,-194.5"/>
<text text-anchor="middle" x="93" y="-201.5" font-family="Helvetica,sans-Serif" font-size="10.00">List&lt; model.cells.Cell &gt;</text>
</g>
<!-- Node4&#45;&gt;Node3 -->
<g id="edge3" class="edge"><title>Node4&#45;&gt;Node3</title>
<path fill="none" stroke="#9a32cd" stroke-dasharray="5,2" d="M93,-184.041C93,-171.472 93,-155.563 93,-145.841"/>
<polygon fill="#9a32cd" stroke="#9a32cd" points="89.5001,-184.372 93,-194.372 96.5001,-184.372 89.5001,-184.372"/>
<text text-anchor="middle" x="126.5" y="-167.5" font-family="Helvetica,sans-Serif" font-size="10.00"> myNeighbors</text>
</g>
<!-- Node5&#45;&gt;Node3 -->
<g id="edge4" class="edge"><title>Node5&#45;&gt;Node3</title>
<path fill="none" stroke="#9a32cd" stroke-dasharray="5,2" d="M156.018,-79.5406C135.699,-83.864 116.708,-89.4148 109,-96 99.9859,-103.701 95.973,-117.273 94.2414,-126.202"/>
<polygon fill="#9a32cd" stroke="#9a32cd" points="156.944,-82.9244 166.055,-77.5177 155.561,-76.0624 156.944,-82.9244"/>
<text text-anchor="middle" x="131.5" y="-99.5" font-family="Helvetica,sans-Serif" font-size="10.00"> myPatch</text>
</g>
<!-- Node6 -->
<g id="node6" class="node"><title>Node6</title>
<polygon fill="white" stroke="#bfbfbf" points="207,-194.5 207,-213.5 335,-213.5 335,-194.5 207,-194.5"/>
<text text-anchor="middle" x="271" y="-201.5" font-family="Helvetica,sans-Serif" font-size="10.00">Map&lt; String, Double &gt;</text>
</g>
<!-- Node6&#45;&gt;Node3 -->
<g id="edge8" class="edge"><title>Node6&#45;&gt;Node3</title>
<path fill="none" stroke="#9a32cd" stroke-dasharray="5,2" d="M238.299,-190.875C202.829,-177.723 147.117,-157.066 115.994,-145.526"/>
<polygon fill="#9a32cd" stroke="#9a32cd" points="237.137,-194.177 247.73,-194.372 239.57,-187.613 237.137,-194.177"/>
<text text-anchor="middle" x="237.5" y="-167.5" font-family="Helvetica,sans-Serif" font-size="10.00"> myPropertyMap</text>
</g>
<!-- Node6&#45;&gt;Node5 -->
<g id="edge5" class="edge"><title>Node6&#45;&gt;Node5</title>
<path fill="none" stroke="#9a32cd" stroke-dasharray="5,2" d="M291.451,-188.004C308.618,-173.418 329.267,-150.003 322,-126 317.356,-110.663 314.698,-105.775 302,-96 290.974,-87.5122 277.108,-81.5934 264.083,-77.5104"/>
<polygon fill="#9a32cd" stroke="#9a32cd" points="289.058,-185.436 283.44,-194.419 293.434,-190.9 289.058,-185.436"/>
<text text-anchor="middle" x="377" y="-133.5" font-family="Helvetica,sans-Serif" font-size="10.00"> myPatchPropertyMap</text>
</g>
<!-- Node7 -->
<g id="node7" class="node"><title>Node7</title>
<polygon fill="white" stroke="#bfbfbf" points="157,-126.5 157,-145.5 313,-145.5 313,-126.5 157,-126.5"/>
<text text-anchor="middle" x="235" y="-133.5" font-family="Helvetica,sans-Serif" font-size="10.00">List&lt; model.patches.Patch &gt;</text>
</g>
<!-- Node7&#45;&gt;Node5 -->
<g id="edge7" class="edge"><title>Node7&#45;&gt;Node5</title>
<path fill="none" stroke="#9a32cd" stroke-dasharray="5,2" d="M231.623,-116.425C229.327,-103.798 226.393,-87.6623 224.607,-77.8411"/>
<polygon fill="#9a32cd" stroke="#9a32cd" points="228.199,-117.159 233.431,-126.372 235.086,-115.907 228.199,-117.159"/>
<text text-anchor="middle" x="264.5" y="-99.5" font-family="Helvetica,sans-Serif" font-size="10.00"> myNeighbors</text>
</g>
</g>
</svg>
