<?xml version="1.0" encoding="UTF-8" standalone="no"?>
<!DOCTYPE svg PUBLIC "-//W3C//DTD SVG 1.1//EN"
 "http://www.w3.org/Graphics/SVG/1.1/DTD/svg11.dtd">
<!-- Generated by graphviz version 2.36.0 (20140111.2315)
 -->
<!-- Title: model.cells.LifeCell.update Pages: 1 -->
<svg width="352pt" height="77pt"
 viewBox="0.00 0.00 352.00 77.00" xmlns="http://www.w3.org/2000/svg" xmlns:xlink="http://www.w3.org/1999/xlink">
<g id="graph0" class="graph" transform="scale(1 1) rotate(0) translate(4 73)">
<title>model.cells.LifeCell.update</title>
<polygon fill="white" stroke="none" points="-4,4 -4,-73 348,-73 348,4 -4,4"/>
<!-- Node1 -->
<g id="node1" class="node"><title>Node1</title>
<polygon fill="#bfbfbf" stroke="black" points="0,-22.5 0,-41.5 144,-41.5 144,-22.5 0,-22.5"/>
<text text-anchor="middle" x="72" y="-29.5" font-family="Helvetica,sans-Serif" font-size="10.00">model.cells.LifeCell.update</text>
</g>
<!-- Node2 -->
<g id="node2" class="node"><title>Node2</title>
<g id="a_node2"><a xlink:href="../../d0/d2c/classmodel_1_1cells_1_1_life_cell.html#a2e6ac948967f315446ae2a318e125703" target="_top" xlink:title="model.cells.LifeCell.check\lStatus">
<polygon fill="white" stroke="black" points="193,-39 193,-69 331,-69 331,-39 193,-39"/>
<text text-anchor="start" x="201" y="-57" font-family="Helvetica,sans-Serif" font-size="10.00">model.cells.LifeCell.check</text>
<text text-anchor="middle" x="262" y="-46" font-family="Helvetica,sans-Serif" font-size="10.00">Status</text>
</a>
</g>
</g>
<!-- Node1&#45;&gt;Node2 -->
<g id="edge1" class="edge"><title>Node1&#45;&gt;Node2</title>
<path fill="none" stroke="midnightblue" d="M144.075,-40.3173C156.71,-41.7959 169.934,-43.3433 182.755,-44.8437"/>
<polygon fill="midnightblue" stroke="midnightblue" points="182.593,-48.3486 192.933,-46.0347 183.407,-41.396 182.593,-48.3486"/>
</g>
<!-- Node3 -->
<g id="node3" class="node"><title>Node3</title>
<g id="a_node3"><a xlink:href="../../dc/d41/classmodel_1_1cells_1_1_cell.html#a7e5ee6b211415566a0c33b7af893ba9f" target="_top" xlink:title="model.cells.Cell.viewProperties">
<polygon fill="white" stroke="black" points="180.5,-0.5 180.5,-19.5 343.5,-19.5 343.5,-0.5 180.5,-0.5"/>
<text text-anchor="middle" x="262" y="-7.5" font-family="Helvetica,sans-Serif" font-size="10.00">model.cells.Cell.viewProperties</text>
</a>
</g>
</g>
<!-- Node1&#45;&gt;Node3 -->
<g id="edge2" class="edge"><title>Node1&#45;&gt;Node3</title>
<path fill="none" stroke="midnightblue" d="M144.075,-23.6827C152.687,-22.6749 161.573,-21.635 170.419,-20.5999"/>
<polygon fill="midnightblue" stroke="midnightblue" points="170.847,-24.0738 180.372,-19.4352 170.033,-17.1213 170.847,-24.0738"/>
</g>
</g>
</svg>
