<?xml version="1.0" encoding="UTF-8" standalone="no"?>
<!DOCTYPE svg PUBLIC "-//W3C//DTD SVG 1.1//EN"
 "http://www.w3.org/Graphics/SVG/1.1/DTD/svg11.dtd">
<!-- Generated by graphviz version 2.36.0 (20140111.2315)
 -->
<!-- Title: model.cells.PredatorCell Pages: 1 -->
<svg width="454pt" height="126pt"
 viewBox="0.00 0.00 454.00 126.00" xmlns="http://www.w3.org/2000/svg" xmlns:xlink="http://www.w3.org/1999/xlink">
<g id="graph0" class="graph" transform="scale(1 1) rotate(0) translate(4 122)">
<title>model.cells.PredatorCell</title>
<polygon fill="white" stroke="none" points="-4,4 -4,-122 450,-122 450,4 -4,4"/>
<!-- Node1 -->
<g id="node1" class="node"><title>Node1</title>
<polygon fill="#bfbfbf" stroke="black" points="128,-49.5 128,-68.5 260,-68.5 260,-49.5 128,-49.5"/>
<text text-anchor="middle" x="194" y="-56.5" font-family="Helvetica,sans-Serif" font-size="10.00">model.cells.PredatorCell</text>
</g>
<!-- Node3 -->
<g id="node3" class="node"><title>Node3</title>
<g id="a_node3"><a xlink:href="../../db/deb/classmodel_1_1cells_1_1_predator_cell_empty.html" target="_top" xlink:title="model.cells.PredatorCell\lEmpty">
<polygon fill="white" stroke="black" points="305,-88 305,-118 437,-118 437,-88 305,-88"/>
<text text-anchor="start" x="313" y="-106" font-family="Helvetica,sans-Serif" font-size="10.00">model.cells.PredatorCell</text>
<text text-anchor="middle" x="371" y="-95" font-family="Helvetica,sans-Serif" font-size="10.00">Empty</text>
</a>
</g>
</g>
<!-- Node1&#45;&gt;Node3 -->
<g id="edge2" class="edge"><title>Node1&#45;&gt;Node3</title>
<path fill="none" stroke="midnightblue" d="M242.831,-71.0261C263.589,-76.2453 288.125,-82.4144 310.081,-87.9346"/>
<polygon fill="midnightblue" stroke="midnightblue" points="243.524,-67.5915 232.972,-68.5473 241.817,-74.3802 243.524,-67.5915"/>
</g>
<!-- Node4 -->
<g id="node4" class="node"><title>Node4</title>
<g id="a_node4"><a xlink:href="../../df/dc2/classmodel_1_1cells_1_1_predator_cell_fish.html" target="_top" xlink:title="model.cells.PredatorCellFish">
<polygon fill="white" stroke="black" points="296,-49.5 296,-68.5 446,-68.5 446,-49.5 296,-49.5"/>
<text text-anchor="middle" x="371" y="-56.5" font-family="Helvetica,sans-Serif" font-size="10.00">model.cells.PredatorCellFish</text>
</a>
</g>
</g>
<!-- Node1&#45;&gt;Node4 -->
<g id="edge3" class="edge"><title>Node1&#45;&gt;Node4</title>
<path fill="none" stroke="midnightblue" d="M270.396,-59C278.866,-59 287.49,-59 295.943,-59"/>
<polygon fill="midnightblue" stroke="midnightblue" points="270.164,-55.5001 260.164,-59 270.164,-62.5001 270.164,-55.5001"/>
</g>
<!-- Node5 -->
<g id="node5" class="node"><title>Node5</title>
<g id="a_node5"><a xlink:href="../../d0/dfb/classmodel_1_1cells_1_1_predator_cell_shark.html" target="_top" xlink:title="model.cells.PredatorCell\lShark">
<polygon fill="white" stroke="black" points="305,-0 305,-30 437,-30 437,-0 305,-0"/>
<text text-anchor="start" x="313" y="-18" font-family="Helvetica,sans-Serif" font-size="10.00">model.cells.PredatorCell</text>
<text text-anchor="middle" x="371" y="-7" font-family="Helvetica,sans-Serif" font-size="10.00">Shark</text>
</a>
</g>
</g>
<!-- Node1&#45;&gt;Node5 -->
<g id="edge4" class="edge"><title>Node1&#45;&gt;Node5</title>
<path fill="none" stroke="midnightblue" d="M242.831,-46.9739C263.589,-41.7547 288.125,-35.5856 310.081,-30.0654"/>
<polygon fill="midnightblue" stroke="midnightblue" points="241.817,-43.6198 232.972,-49.4527 243.524,-50.4085 241.817,-43.6198"/>
</g>
<!-- Node2 -->
<g id="node2" class="node"><title>Node2</title>
<g id="a_node2"><a xlink:href="../../dc/d41/classmodel_1_1cells_1_1_cell.html" target="_top" xlink:title="model.cells.Cell">
<polygon fill="white" stroke="black" points="0.5,-49.5 0.5,-68.5 91.5,-68.5 91.5,-49.5 0.5,-49.5"/>
<text text-anchor="middle" x="46" y="-56.5" font-family="Helvetica,sans-Serif" font-size="10.00">model.cells.Cell</text>
</a>
</g>
</g>
<!-- Node2&#45;&gt;Node1 -->
<g id="edge1" class="edge"><title>Node2&#45;&gt;Node1</title>
<path fill="none" stroke="midnightblue" d="M101.805,-59C110.346,-59 119.241,-59 127.982,-59"/>
<polygon fill="midnightblue" stroke="midnightblue" points="101.598,-55.5001 91.5981,-59 101.598,-62.5001 101.598,-55.5001"/>
</g>
</g>
</svg>
