<?xml version="1.0" encoding="UTF-8" standalone="no"?>
<!DOCTYPE svg PUBLIC "-//W3C//DTD SVG 1.1//EN"
 "http://www.w3.org/Graphics/SVG/1.1/DTD/svg11.dtd">
<!-- Generated by graphviz version 2.36.0 (20140111.2315)
 -->
<!-- Title: model.simulations.SimulationFire.updateGrid Pages: 1 -->
<svg width="1048pt" height="202pt"
 viewBox="0.00 0.00 1048.00 202.00" xmlns="http://www.w3.org/2000/svg" xmlns:xlink="http://www.w3.org/1999/xlink">
<g id="graph0" class="graph" transform="scale(1 1) rotate(0) translate(4 198)">
<title>model.simulations.SimulationFire.updateGrid</title>
<polygon fill="white" stroke="none" points="-4,4 -4,-198 1044,-198 1044,4 -4,4"/>
<!-- Node1 -->
<g id="node1" class="node"><title>Node1</title>
<polygon fill="#bfbfbf" stroke="black" points="0,-82 0,-112 158,-112 158,-82 0,-82"/>
<text text-anchor="start" x="8" y="-100" font-family="Helvetica,sans-Serif" font-size="10.00">model.simulations.Simulation</text>
<text text-anchor="middle" x="79" y="-89" font-family="Helvetica,sans-Serif" font-size="10.00">Fire.updateGrid</text>
</g>
<!-- Node2 -->
<g id="node2" class="node"><title>Node2</title>
<g id="a_node2"><a xlink:href="../../db/d90/classmodel_1_1patches_1_1_patch.html#ac89c81c8beb110fab65724ab24f2a1dd" target="_top" xlink:title="model.patches.Patch.setCell">
<polygon fill="white" stroke="black" points="216,-131.5 216,-150.5 368,-150.5 368,-131.5 216,-131.5"/>
<text text-anchor="middle" x="292" y="-138.5" font-family="Helvetica,sans-Serif" font-size="10.00">model.patches.Patch.setCell</text>
</a>
</g>
</g>
<!-- Node1&#45;&gt;Node2 -->
<g id="edge1" class="edge"><title>Node1&#45;&gt;Node2</title>
<path fill="none" stroke="midnightblue" d="M151.141,-112.025C165.336,-115.009 180.14,-118.112 194,-121 207.146,-123.739 221.297,-126.668 234.619,-129.416"/>
<polygon fill="midnightblue" stroke="midnightblue" points="234.112,-132.885 244.613,-131.477 235.525,-126.03 234.112,-132.885"/>
</g>
<!-- Node3 -->
<g id="node3" class="node"><title>Node3</title>
<g id="a_node3"><a xlink:href="../../d0/d56/classmodel_1_1simulations_1_1_simulation.html#a6efb6657ce3c803a99ccd41d8b8a2057" target="_top" xlink:title="model.simulations.Simulation.update\lColorGrid">
<polygon fill="white" stroke="black" points="194.5,-82 194.5,-112 389.5,-112 389.5,-82 194.5,-82"/>
<text text-anchor="start" x="202.5" y="-100" font-family="Helvetica,sans-Serif" font-size="10.00">model.simulations.Simulation.update</text>
<text text-anchor="middle" x="292" y="-89" font-family="Helvetica,sans-Serif" font-size="10.00">ColorGrid</text>
</a>
</g>
</g>
<!-- Node1&#45;&gt;Node3 -->
<g id="edge2" class="edge"><title>Node1&#45;&gt;Node3</title>
<path fill="none" stroke="midnightblue" d="M158.269,-97C166.698,-97 175.377,-97 184.069,-97"/>
<polygon fill="midnightblue" stroke="midnightblue" points="184.264,-100.5 194.264,-97 184.264,-93.5001 184.264,-100.5"/>
</g>
<!-- Node10 -->
<g id="node10" class="node"><title>Node10</title>
<g id="a_node10"><a xlink:href="../../d0/d56/classmodel_1_1simulations_1_1_simulation.html#a79b103e987f93ecbd35ef416d4e01b13" target="_top" xlink:title="model.simulations.Simulation.update\lNeighbors">
<polygon fill="white" stroke="black" points="194.5,-17 194.5,-47 389.5,-47 389.5,-17 194.5,-17"/>
<text text-anchor="start" x="202.5" y="-35" font-family="Helvetica,sans-Serif" font-size="10.00">model.simulations.Simulation.update</text>
<text text-anchor="middle" x="292" y="-24" font-family="Helvetica,sans-Serif" font-size="10.00">Neighbors</text>
</a>
</g>
</g>
<!-- Node1&#45;&gt;Node10 -->
<g id="edge9" class="edge"><title>Node1&#45;&gt;Node10</title>
<path fill="none" stroke="midnightblue" d="M128.938,-81.9243C159.72,-72.4419 199.622,-60.1497 232.129,-50.1355"/>
<polygon fill="midnightblue" stroke="midnightblue" points="233.436,-53.3954 241.962,-47.1064 231.375,-46.7056 233.436,-53.3954"/>
</g>
<!-- Node4 -->
<g id="node4" class="node"><title>Node4</title>
<g id="a_node4"><a xlink:href="../../db/d90/classmodel_1_1patches_1_1_patch.html#a7ba5fbc8b51be9d83051c94820bf1083" target="_top" xlink:title="model.patches.Patch.getCell">
<polygon fill="white" stroke="black" points="673.5,-84.5 673.5,-103.5 826.5,-103.5 826.5,-84.5 673.5,-84.5"/>
<text text-anchor="middle" x="750" y="-91.5" font-family="Helvetica,sans-Serif" font-size="10.00">model.patches.Patch.getCell</text>
</a>
</g>
</g>
<!-- Node3&#45;&gt;Node4 -->
<g id="edge3" class="edge"><title>Node3&#45;&gt;Node4</title>
<path fill="none" stroke="midnightblue" d="M386.195,-112.019C399.522,-113.67 413.087,-115.082 426,-116 512.892,-122.175 535.209,-123.462 622,-116 646.167,-113.922 672.638,-109.66 695.129,-105.435"/>
<polygon fill="midnightblue" stroke="midnightblue" points="696.002,-108.831 705.161,-103.504 694.679,-101.957 696.002,-108.831"/>
</g>
<!-- Node5 -->
<g id="node5" class="node"><title>Node5</title>
<g id="a_node5"><a xlink:href="../../dc/d41/classmodel_1_1cells_1_1_cell.html#ac50f3513c91c8934182ceb7fa8b192fb" target="_top" xlink:title="model.cells.Cell.getColor">
<polygon fill="white" stroke="black" points="457,-87.5 457,-106.5 591,-106.5 591,-87.5 457,-87.5"/>
<text text-anchor="middle" x="524" y="-94.5" font-family="Helvetica,sans-Serif" font-size="10.00">model.cells.Cell.getColor</text>
</a>
</g>
</g>
<!-- Node3&#45;&gt;Node5 -->
<g id="edge4" class="edge"><title>Node3&#45;&gt;Node5</title>
<path fill="none" stroke="midnightblue" d="M389.541,-97C408.626,-97 428.408,-97 446.71,-97"/>
<polygon fill="midnightblue" stroke="midnightblue" points="446.711,-100.5 456.711,-97 446.711,-93.5001 446.711,-100.5"/>
</g>
<!-- Node6 -->
<g id="node6" class="node"><title>Node6</title>
<g id="a_node6"><a xlink:href="../../db/d90/classmodel_1_1patches_1_1_patch.html#af3d92d81282dcb3654b500c8fbebef06" target="_top" xlink:title="model.patches.Patch.getColor">
<polygon fill="white" stroke="black" points="443.5,-49.5 443.5,-68.5 604.5,-68.5 604.5,-49.5 443.5,-49.5"/>
<text text-anchor="middle" x="524" y="-56.5" font-family="Helvetica,sans-Serif" font-size="10.00">model.patches.Patch.getColor</text>
</a>
</g>
</g>
<!-- Node3&#45;&gt;Node6 -->
<g id="edge5" class="edge"><title>Node3&#45;&gt;Node6</title>
<path fill="none" stroke="midnightblue" d="M383.902,-81.9814C407.749,-78.0415 433.042,-73.8626 455.429,-70.1639"/>
<polygon fill="midnightblue" stroke="midnightblue" points="456.199,-73.5843 465.494,-68.5009 455.058,-66.6779 456.199,-73.5843"/>
</g>
<!-- Node7 -->
<g id="node7" class="node"><title>Node7</title>
<g id="a_node7"><a xlink:href="../../d1/d3e/classview_1_1_simulation_screen.html#a56d778b3e5756edd732a027e4d96a431" target="_top" xlink:title="view.SimulationScreen.update\lScreen">
<polygon fill="white" stroke="black" points="443.5,-164 443.5,-194 604.5,-194 604.5,-164 443.5,-164"/>
<text text-anchor="start" x="451.5" y="-182" font-family="Helvetica,sans-Serif" font-size="10.00">view.SimulationScreen.update</text>
<text text-anchor="middle" x="524" y="-171" font-family="Helvetica,sans-Serif" font-size="10.00">Screen</text>
</a>
</g>
</g>
<!-- Node3&#45;&gt;Node7 -->
<g id="edge6" class="edge"><title>Node3&#45;&gt;Node7</title>
<path fill="none" stroke="midnightblue" d="M364.605,-112.03C373.347,-114.857 382.006,-118.159 390,-122 408.027,-130.661 408.184,-139.912 426,-149 434.566,-153.37 443.885,-157.239 453.249,-160.624"/>
<polygon fill="midnightblue" stroke="midnightblue" points="452.398,-164.032 462.992,-163.975 454.675,-157.413 452.398,-164.032"/>
</g>
<!-- Node8 -->
<g id="node8" class="node"><title>Node8</title>
<g id="a_node8"><a xlink:href="../../d1/d3e/classview_1_1_simulation_screen.html#ac818b7465bc624b25a3aba98df571bdb" target="_top" xlink:title="view.SimulationScreen.updateData">
<polygon fill="white" stroke="black" points="658,-169.5 658,-188.5 842,-188.5 842,-169.5 658,-169.5"/>
<text text-anchor="middle" x="750" y="-176.5" font-family="Helvetica,sans-Serif" font-size="10.00">view.SimulationScreen.updateData</text>
</a>
</g>
</g>
<!-- Node7&#45;&gt;Node8 -->
<g id="edge7" class="edge"><title>Node7&#45;&gt;Node8</title>
<path fill="none" stroke="midnightblue" d="M604.605,-179C618.468,-179 633.055,-179 647.412,-179"/>
<polygon fill="midnightblue" stroke="midnightblue" points="647.812,-182.5 657.812,-179 647.812,-175.5 647.812,-182.5"/>
</g>
<!-- Node9 -->
<g id="node9" class="node"><title>Node9</title>
<g id="a_node9"><a xlink:href="../../d1/d3e/classview_1_1_simulation_screen.html#a903be669ef69338f95301aa617218a14" target="_top" xlink:title="view.SimulationScreen.update\lMapArrayList">
<polygon fill="white" stroke="black" points="878.5,-164 878.5,-194 1039.5,-194 1039.5,-164 878.5,-164"/>
<text text-anchor="start" x="886.5" y="-182" font-family="Helvetica,sans-Serif" font-size="10.00">view.SimulationScreen.update</text>
<text text-anchor="middle" x="959" y="-171" font-family="Helvetica,sans-Serif" font-size="10.00">MapArrayList</text>
</a>
</g>
</g>
<!-- Node8&#45;&gt;Node9 -->
<g id="edge8" class="edge"><title>Node8&#45;&gt;Node9</title>
<path fill="none" stroke="midnightblue" d="M842.094,-179C850.748,-179 859.519,-179 868.161,-179"/>
<polygon fill="midnightblue" stroke="midnightblue" points="868.232,-182.5 878.232,-179 868.232,-175.5 868.232,-182.5"/>
</g>
<!-- Node11 -->
<g id="node11" class="node"><title>Node11</title>
<g id="a_node11"><a xlink:href="../../d0/d56/classmodel_1_1simulations_1_1_simulation.html#ac71a6bcbcb42c8759d1e6a6aacafc802" target="_top" xlink:title="model.simulations.Simulation.update\lNeighborSquare">
<polygon fill="white" stroke="black" points="426.5,-0 426.5,-30 621.5,-30 621.5,-0 426.5,-0"/>
<text text-anchor="start" x="434.5" y="-18" font-family="Helvetica,sans-Serif" font-size="10.00">model.simulations.Simulation.update</text>
<text text-anchor="middle" x="524" y="-7" font-family="Helvetica,sans-Serif" font-size="10.00">NeighborSquare</text>
</a>
</g>
</g>
<!-- Node10&#45;&gt;Node11 -->
<g id="edge10" class="edge"><title>Node10&#45;&gt;Node11</title>
<path fill="none" stroke="midnightblue" d="M389.541,-24.8644C398.384,-24.2108 407.376,-23.5461 416.301,-22.8865"/>
<polygon fill="midnightblue" stroke="midnightblue" points="416.623,-26.3723 426.337,-22.1446 416.107,-19.3914 416.623,-26.3723"/>
</g>
<!-- Node11&#45;&gt;Node4 -->
<g id="edge11" class="edge"><title>Node11&#45;&gt;Node4</title>
<path fill="none" stroke="midnightblue" d="M589.058,-30.0585C600.128,-33.0728 611.46,-36.4235 622,-40 656.402,-51.6737 694.605,-68.463 720.038,-80.2126"/>
<polygon fill="midnightblue" stroke="midnightblue" points="718.583,-83.3959 729.126,-84.4478 721.54,-77.0511 718.583,-83.3959"/>
</g>
<!-- Node12 -->
<g id="node12" class="node"><title>Node12</title>
<g id="a_node12"><a xlink:href="../../dc/d41/classmodel_1_1cells_1_1_cell.html#a6d3a4c932aa68c9364b241effbb2ed50" target="_top" xlink:title="model.cells.Cell.setNeighbors">
<polygon fill="white" stroke="black" points="671,-5.5 671,-24.5 829,-24.5 829,-5.5 671,-5.5"/>
<text text-anchor="middle" x="750" y="-12.5" font-family="Helvetica,sans-Serif" font-size="10.00">model.cells.Cell.setNeighbors</text>
</a>
</g>
</g>
<!-- Node11&#45;&gt;Node12 -->
<g id="edge12" class="edge"><title>Node11&#45;&gt;Node12</title>
<path fill="none" stroke="midnightblue" d="M621.621,-15C634.609,-15 647.877,-15 660.71,-15"/>
<polygon fill="midnightblue" stroke="midnightblue" points="660.895,-18.5001 670.895,-15 660.895,-11.5001 660.895,-18.5001"/>
</g>
</g>
</svg>
