<?xml version="1.0" encoding="UTF-8" standalone="no"?>
<!DOCTYPE svg PUBLIC "-//W3C//DTD SVG 1.1//EN"
 "http://www.w3.org/Graphics/SVG/1.1/DTD/svg11.dtd">
<!-- Generated by graphviz version 2.36.0 (20140111.2315)
 -->
<!-- Title: view.TopMenu.createTopButtons Pages: 1 -->
<svg width="1794pt" height="318pt"
 viewBox="0.00 0.00 1794.00 318.00" xmlns="http://www.w3.org/2000/svg" xmlns:xlink="http://www.w3.org/1999/xlink">
<g id="graph0" class="graph" transform="scale(1 1) rotate(0) translate(4 314)">
<title>view.TopMenu.createTopButtons</title>
<polygon fill="white" stroke="none" points="-4,4 -4,-314 1790,-314 1790,4 -4,4"/>
<!-- Node1 -->
<g id="node1" class="node"><title>Node1</title>
<polygon fill="#bfbfbf" stroke="black" points="0,-107.5 0,-126.5 168,-126.5 168,-107.5 0,-107.5"/>
<text text-anchor="middle" x="84" y="-114.5" font-family="Helvetica,sans-Serif" font-size="10.00">view.TopMenu.createTopButtons</text>
</g>
<!-- Node2 -->
<g id="node2" class="node"><title>Node2</title>
<g id="a_node2"><a xlink:href="../../d3/d48/classview_1_1_top_menu.html#a627df0a4fa1dd6030490c94c9fb883c7" target="_top" xlink:title="view.TopMenu.addGraphButton">
<polygon fill="white" stroke="black" points="212,-202.5 212,-221.5 376,-221.5 376,-202.5 212,-202.5"/>
<text text-anchor="middle" x="294" y="-209.5" font-family="Helvetica,sans-Serif" font-size="10.00">view.TopMenu.addGraphButton</text>
</a>
</g>
</g>
<!-- Node1&#45;&gt;Node2 -->
<g id="edge1" class="edge"><title>Node1&#45;&gt;Node2</title>
<path fill="none" stroke="midnightblue" d="M96.7034,-126.535C117.172,-142.719 161.363,-175.507 204,-193 210.285,-195.579 216.97,-197.827 223.743,-199.784"/>
<polygon fill="midnightblue" stroke="midnightblue" points="223.128,-203.242 233.693,-202.446 224.937,-196.48 223.128,-203.242"/>
</g>
<!-- Node3 -->
<g id="node3" class="node"><title>Node3</title>
<g id="a_node3"><a xlink:href="../../d3/d48/classview_1_1_top_menu.html#af56bae78812baf114a9ed49ad52694df" target="_top" xlink:title="view.TopMenu.addLoadButton">
<polygon fill="white" stroke="black" points="215,-164.5 215,-183.5 373,-183.5 373,-164.5 215,-164.5"/>
<text text-anchor="middle" x="294" y="-171.5" font-family="Helvetica,sans-Serif" font-size="10.00">view.TopMenu.addLoadButton</text>
</a>
</g>
</g>
<!-- Node1&#45;&gt;Node3 -->
<g id="edge2" class="edge"><title>Node1&#45;&gt;Node3</title>
<path fill="none" stroke="midnightblue" d="M119.094,-126.524C142.877,-133.15 175.358,-142.167 204,-150 218.161,-153.873 233.601,-158.052 247.585,-161.82"/>
<polygon fill="midnightblue" stroke="midnightblue" points="246.905,-165.262 257.472,-164.481 248.725,-158.502 246.905,-165.262"/>
</g>
<!-- Node20 -->
<g id="node20" class="node"><title>Node20</title>
<g id="a_node20"><a xlink:href="../../d3/d48/classview_1_1_top_menu.html#a78433064a3b87ac12b25e253a8461563" target="_top" xlink:title="view.TopMenu.addSlowDown\lButton">
<polygon fill="white" stroke="black" points="219,-39 219,-69 369,-69 369,-39 219,-39"/>
<text text-anchor="start" x="227" y="-57" font-family="Helvetica,sans-Serif" font-size="10.00">view.TopMenu.addSlowDown</text>
<text text-anchor="middle" x="294" y="-46" font-family="Helvetica,sans-Serif" font-size="10.00">Button</text>
</a>
</g>
</g>
<!-- Node1&#45;&gt;Node20 -->
<g id="edge20" class="edge"><title>Node1&#45;&gt;Node20</title>
<path fill="none" stroke="midnightblue" d="M114.253,-107.342C138.287,-99.483 173.256,-88.2235 204,-79 211.955,-76.6133 220.331,-74.17 228.632,-71.7904"/>
<polygon fill="midnightblue" stroke="midnightblue" points="229.655,-75.1386 238.314,-69.0335 227.737,-68.4062 229.655,-75.1386"/>
</g>
<!-- Node25 -->
<g id="node25" class="node"><title>Node25</title>
<g id="a_node25"><a xlink:href="../../d3/d48/classview_1_1_top_menu.html#ae076a17bf4d52296bcc188a9bf23d57d" target="_top" xlink:title="view.TopMenu.addSpeedUpButton">
<polygon fill="white" stroke="black" points="204.5,-0.5 204.5,-19.5 383.5,-19.5 383.5,-0.5 204.5,-0.5"/>
<text text-anchor="middle" x="294" y="-7.5" font-family="Helvetica,sans-Serif" font-size="10.00">view.TopMenu.addSpeedUpButton</text>
</a>
</g>
</g>
<!-- Node1&#45;&gt;Node25 -->
<g id="edge25" class="edge"><title>Node1&#45;&gt;Node25</title>
<path fill="none" stroke="midnightblue" d="M94.8596,-107.338C114.112,-89.0484 158.79,-49.3814 204,-29 209.671,-26.4432 215.704,-24.2235 221.852,-22.2976"/>
<polygon fill="midnightblue" stroke="midnightblue" points="222.927,-25.6304 231.573,-19.5068 220.995,-18.9021 222.927,-25.6304"/>
</g>
<!-- Node26 -->
<g id="node26" class="node"><title>Node26</title>
<g id="a_node26"><a xlink:href="../../d3/d48/classview_1_1_top_menu.html#a3f51a2491badcedde2d93f484951ddff" target="_top" xlink:title="view.TopMenu.addStepButton">
<polygon fill="white" stroke="black" points="215.5,-88.5 215.5,-107.5 372.5,-107.5 372.5,-88.5 215.5,-88.5"/>
<text text-anchor="middle" x="294" y="-95.5" font-family="Helvetica,sans-Serif" font-size="10.00">view.TopMenu.addStepButton</text>
</a>
</g>
</g>
<!-- Node1&#45;&gt;Node26 -->
<g id="edge27" class="edge"><title>Node1&#45;&gt;Node26</title>
<path fill="none" stroke="midnightblue" d="M168.104,-109.409C180.304,-108.294 192.903,-107.143 205.194,-106.021"/>
<polygon fill="midnightblue" stroke="midnightblue" points="205.789,-109.481 215.429,-105.086 205.153,-102.51 205.789,-109.481"/>
</g>
<!-- Node28 -->
<g id="node28" class="node"><title>Node28</title>
<g id="a_node28"><a xlink:href="../../d3/d48/classview_1_1_top_menu.html#a40539df58de6aa71c37c6f2a3072b478" target="_top" xlink:title="view.TopMenu.addStopStart\lButton">
<polygon fill="white" stroke="black" points="450.5,-121 450.5,-151 599.5,-151 599.5,-121 450.5,-121"/>
<text text-anchor="start" x="458.5" y="-139" font-family="Helvetica,sans-Serif" font-size="10.00">view.TopMenu.addStopStart</text>
<text text-anchor="middle" x="525" y="-128" font-family="Helvetica,sans-Serif" font-size="10.00">Button</text>
</a>
</g>
</g>
<!-- Node1&#45;&gt;Node28 -->
<g id="edge29" class="edge"><title>Node1&#45;&gt;Node28</title>
<path fill="none" stroke="midnightblue" d="M168.089,-120.596C245.999,-123.968 361.897,-128.984 440.078,-132.368"/>
<polygon fill="midnightblue" stroke="midnightblue" points="440.231,-135.878 450.373,-132.813 440.534,-128.884 440.231,-135.878"/>
</g>
<!-- Node4 -->
<g id="node4" class="node"><title>Node4</title>
<g id="a_node4"><a xlink:href="../../d6/d7b/classcontroller_1_1_cell_society_controller.html#afbdf9a63e15a2bfa878dcfe5ed3ef6dc" target="_top" xlink:title="controller.CellSocietyController.transition\lToFileLoaderScreen">
<polygon fill="white" stroke="black" points="420,-192 420,-222 630,-222 630,-192 420,-192"/>
<text text-anchor="start" x="428" y="-210" font-family="Helvetica,sans-Serif" font-size="10.00">controller.CellSocietyController.transition</text>
<text text-anchor="middle" x="525" y="-199" font-family="Helvetica,sans-Serif" font-size="10.00">ToFileLoaderScreen</text>
</a>
</g>
</g>
<!-- Node3&#45;&gt;Node4 -->
<g id="edge3" class="edge"><title>Node3&#45;&gt;Node4</title>
<path fill="none" stroke="midnightblue" d="M360.929,-183.501C376.139,-185.692 392.752,-188.086 409.369,-190.481"/>
<polygon fill="midnightblue" stroke="midnightblue" points="409.306,-194.008 419.703,-191.97 410.304,-187.08 409.306,-194.008"/>
</g>
<!-- Node5 -->
<g id="node5" class="node"><title>Node5</title>
<g id="a_node5"><a xlink:href="../../d3/d0a/classview_1_1_file_loader_screen.html#a196dd45848fbdf09ac100c343b6515cd" target="_top" xlink:title="view.FileLoaderScreen.getFile">
<polygon fill="white" stroke="black" points="691.5,-153.5 691.5,-172.5 846.5,-172.5 846.5,-153.5 691.5,-153.5"/>
<text text-anchor="middle" x="769" y="-160.5" font-family="Helvetica,sans-Serif" font-size="10.00">view.FileLoaderScreen.getFile</text>
</a>
</g>
</g>
<!-- Node4&#45;&gt;Node5 -->
<g id="edge4" class="edge"><title>Node4&#45;&gt;Node5</title>
<path fill="none" stroke="midnightblue" d="M608.606,-191.981C640.329,-186.213 675.98,-179.731 705.509,-174.362"/>
<polygon fill="midnightblue" stroke="midnightblue" points="706.469,-177.745 715.682,-172.512 705.217,-170.858 706.469,-177.745"/>
</g>
<!-- Node7 -->
<g id="node7" class="node"><title>Node7</title>
<g id="a_node7"><a xlink:href="../../d3/d0a/classview_1_1_file_loader_screen.html#a32abcb410ad28199e0bfcdce0255715b" target="_top" xlink:title="view.FileLoaderScreen.getNode">
<polygon fill="white" stroke="black" points="686.5,-235.5 686.5,-254.5 851.5,-254.5 851.5,-235.5 686.5,-235.5"/>
<text text-anchor="middle" x="769" y="-242.5" font-family="Helvetica,sans-Serif" font-size="10.00">view.FileLoaderScreen.getNode</text>
</a>
</g>
</g>
<!-- Node4&#45;&gt;Node7 -->
<g id="edge6" class="edge"><title>Node4&#45;&gt;Node7</title>
<path fill="none" stroke="midnightblue" d="M621.645,-222.019C646.961,-225.994 673.829,-230.213 697.539,-233.936"/>
<polygon fill="midnightblue" stroke="midnightblue" points="697.072,-237.405 707.494,-235.499 698.158,-230.49 697.072,-237.405"/>
</g>
<!-- Node8 -->
<g id="node8" class="node"><title>Node8</title>
<g id="a_node8"><a xlink:href="../../d6/d7b/classcontroller_1_1_cell_society_controller.html#a643c7ac22f2822fa7e492dbf4267ed21" target="_top" xlink:title="controller.CellSocietyController.readXML">
<polygon fill="white" stroke="black" points="666,-197.5 666,-216.5 872,-216.5 872,-197.5 666,-197.5"/>
<text text-anchor="middle" x="769" y="-204.5" font-family="Helvetica,sans-Serif" font-size="10.00">controller.CellSocietyController.readXML</text>
</a>
</g>
</g>
<!-- Node4&#45;&gt;Node8 -->
<g id="edge7" class="edge"><title>Node4&#45;&gt;Node8</title>
<path fill="none" stroke="midnightblue" d="M630.034,-200.309C638.597,-200.249 647.276,-200.235 655.894,-200.266"/>
<polygon fill="midnightblue" stroke="midnightblue" points="655.953,-203.767 665.973,-200.324 655.993,-196.767 655.953,-203.767"/>
</g>
<!-- Node6 -->
<g id="node6" class="node"><title>Node6</title>
<g id="a_node6"><a xlink:href="../../d3/d0a/classview_1_1_file_loader_screen.html#a97d7c0b9dc021069c17e7f778398f41e" target="_top" xlink:title="view.FileLoaderScreen.configure\lFileChooser">
<polygon fill="white" stroke="black" points="929,-143 929,-173 1097,-173 1097,-143 929,-143"/>
<text text-anchor="start" x="937" y="-161" font-family="Helvetica,sans-Serif" font-size="10.00">view.FileLoaderScreen.configure</text>
<text text-anchor="middle" x="1013" y="-150" font-family="Helvetica,sans-Serif" font-size="10.00">FileChooser</text>
</a>
</g>
</g>
<!-- Node5&#45;&gt;Node6 -->
<g id="edge5" class="edge"><title>Node5&#45;&gt;Node6</title>
<path fill="none" stroke="midnightblue" d="M846.57,-161.418C869.47,-160.945 894.836,-160.421 918.685,-159.928"/>
<polygon fill="midnightblue" stroke="midnightblue" points="918.876,-163.425 928.802,-159.719 918.732,-156.426 918.876,-163.425"/>
</g>
<!-- Node8&#45;&gt;Node4 -->
<g id="edge10" class="edge"><title>Node8&#45;&gt;Node4</title>
<path fill="none" stroke="midnightblue" d="M665.973,-213.676C657.429,-213.743 648.756,-213.765 640.129,-213.74"/>
<polygon fill="midnightblue" stroke="midnightblue" points="640.051,-210.24 630.034,-213.691 640.017,-217.24 640.051,-210.24"/>
</g>
<!-- Node9 -->
<g id="node9" class="node"><title>Node9</title>
<g id="a_node9"><a xlink:href="../../dc/d47/classcontroller_1_1_x_m_l_parser.html#a841cf5fa54e30325a444ba24fa26c50e" target="_top" xlink:title="controller.XMLParser.getGrid">
<polygon fill="white" stroke="black" points="937.5,-290.5 937.5,-309.5 1088.5,-309.5 1088.5,-290.5 937.5,-290.5"/>
<text text-anchor="middle" x="1013" y="-297.5" font-family="Helvetica,sans-Serif" font-size="10.00">controller.XMLParser.getGrid</text>
</a>
</g>
</g>
<!-- Node8&#45;&gt;Node9 -->
<g id="edge8" class="edge"><title>Node8&#45;&gt;Node9</title>
<path fill="none" stroke="midnightblue" d="M853.24,-216.566C859.859,-219.078 866.212,-222.179 872,-226 896.072,-241.891 883.974,-264.039 908,-280 914.054,-284.022 920.718,-287.279 927.66,-289.911"/>
<polygon fill="midnightblue" stroke="midnightblue" points="926.673,-293.271 937.267,-293.126 928.894,-286.633 926.673,-293.271"/>
</g>
<!-- Node10 -->
<g id="node10" class="node"><title>Node10</title>
<g id="a_node10"><a xlink:href="../../dc/d47/classcontroller_1_1_x_m_l_parser.html#a0ebd2f6df311d0e2f9f0cd7969ecbe73" target="_top" xlink:title="controller.XMLParser.get\lParameters">
<polygon fill="white" stroke="black" points="947.5,-241 947.5,-271 1078.5,-271 1078.5,-241 947.5,-241"/>
<text text-anchor="start" x="955.5" y="-259" font-family="Helvetica,sans-Serif" font-size="10.00">controller.XMLParser.get</text>
<text text-anchor="middle" x="1013" y="-248" font-family="Helvetica,sans-Serif" font-size="10.00">Parameters</text>
</a>
</g>
</g>
<!-- Node8&#45;&gt;Node10 -->
<g id="edge9" class="edge"><title>Node8&#45;&gt;Node10</title>
<path fill="none" stroke="midnightblue" d="M822.729,-216.542C838.585,-219.487 856.016,-222.799 872,-226 893.252,-230.255 916.267,-235.092 937.38,-239.621"/>
<polygon fill="midnightblue" stroke="midnightblue" points="936.741,-243.063 947.254,-241.746 938.214,-236.22 936.741,-243.063"/>
</g>
<!-- Node11 -->
<g id="node11" class="node"><title>Node11</title>
<g id="a_node11"><a xlink:href="../../d6/d7b/classcontroller_1_1_cell_society_controller.html#a3d913ad3344ac48e887110e2fabb5746" target="_top" xlink:title="controller.CellSocietyController.transition\lToSimulation">
<polygon fill="white" stroke="black" points="908,-192 908,-222 1118,-222 1118,-192 908,-192"/>
<text text-anchor="start" x="916" y="-210" font-family="Helvetica,sans-Serif" font-size="10.00">controller.CellSocietyController.transition</text>
<text text-anchor="middle" x="1013" y="-199" font-family="Helvetica,sans-Serif" font-size="10.00">ToSimulation</text>
</a>
</g>
</g>
<!-- Node8&#45;&gt;Node11 -->
<g id="edge11" class="edge"><title>Node8&#45;&gt;Node11</title>
<path fill="none" stroke="midnightblue" d="M872.279,-207C880.625,-207 889.092,-207 897.517,-207"/>
<polygon fill="midnightblue" stroke="midnightblue" points="897.762,-210.5 907.762,-207 897.762,-203.5 897.762,-210.5"/>
</g>
<!-- Node12 -->
<g id="node12" class="node"><title>Node12</title>
<g id="a_node12"><a xlink:href="../../d6/d7b/classcontroller_1_1_cell_society_controller.html#a8af25de87ececa5ca913e7b5af486b3f" target="_top" xlink:title="controller.CellSocietyController.initialize\lSimulation">
<polygon fill="white" stroke="black" points="1160.5,-230 1160.5,-260 1363.5,-260 1363.5,-230 1160.5,-230"/>
<text text-anchor="start" x="1168.5" y="-248" font-family="Helvetica,sans-Serif" font-size="10.00">controller.CellSocietyController.initialize</text>
<text text-anchor="middle" x="1262" y="-237" font-family="Helvetica,sans-Serif" font-size="10.00">Simulation</text>
</a>
</g>
</g>
<!-- Node11&#45;&gt;Node12 -->
<g id="edge12" class="edge"><title>Node11&#45;&gt;Node12</title>
<path fill="none" stroke="midnightblue" d="M1111.62,-222.019C1125.29,-224.122 1139.41,-226.294 1153.25,-228.424"/>
<polygon fill="midnightblue" stroke="midnightblue" points="1152.86,-231.905 1163.28,-229.966 1153.93,-224.986 1152.86,-231.905"/>
</g>
<!-- Node13 -->
<g id="node13" class="node"><title>Node13</title>
<g id="a_node13"><a xlink:href="../../d6/d7b/classcontroller_1_1_cell_society_controller.html#af6b4eb647c4e76fef6f27cc61ced4d9a" target="_top" xlink:title="controller.CellSocietyController.initialize\lSimulationScreen">
<polygon fill="white" stroke="black" points="1160.5,-181 1160.5,-211 1363.5,-211 1363.5,-181 1160.5,-181"/>
<text text-anchor="start" x="1168.5" y="-199" font-family="Helvetica,sans-Serif" font-size="10.00">controller.CellSocietyController.initialize</text>
<text text-anchor="middle" x="1262" y="-188" font-family="Helvetica,sans-Serif" font-size="10.00">SimulationScreen</text>
</a>
</g>
</g>
<!-- Node11&#45;&gt;Node13 -->
<g id="edge13" class="edge"><title>Node11&#45;&gt;Node13</title>
<path fill="none" stroke="midnightblue" d="M1118.03,-202.367C1128.63,-201.895 1139.41,-201.415 1150.07,-200.94"/>
<polygon fill="midnightblue" stroke="midnightblue" points="1150.41,-204.429 1160.24,-200.487 1150.1,-197.436 1150.41,-204.429"/>
</g>
<!-- Node17 -->
<g id="node17" class="node"><title>Node17</title>
<g id="a_node17"><a xlink:href="../../d6/d7b/classcontroller_1_1_cell_society_controller.html#a7609d9a174ff7d2d00fc27e3574cdb21" target="_top" xlink:title="controller.CellSocietyController.stop\lOrStart">
<polygon fill="white" stroke="black" points="1169,-121 1169,-151 1355,-151 1355,-121 1169,-121"/>
<text text-anchor="start" x="1177" y="-139" font-family="Helvetica,sans-Serif" font-size="10.00">controller.CellSocietyController.stop</text>
<text text-anchor="middle" x="1262" y="-128" font-family="Helvetica,sans-Serif" font-size="10.00">OrStart</text>
</a>
</g>
</g>
<!-- Node11&#45;&gt;Node17 -->
<g id="edge17" class="edge"><title>Node11&#45;&gt;Node17</title>
<path fill="none" stroke="midnightblue" d="M1079.94,-191.943C1092.61,-188.824 1105.75,-185.437 1118,-182 1147.85,-173.623 1180.82,-163.104 1207.58,-154.241"/>
<polygon fill="midnightblue" stroke="midnightblue" points="1208.75,-157.538 1217.13,-151.057 1206.54,-150.897 1208.75,-157.538"/>
</g>
<!-- Node14 -->
<g id="node14" class="node"><title>Node14</title>
<g id="a_node14"><a xlink:href="../../d1/d3e/classview_1_1_simulation_screen.html#a482a021910f4b997fb7b798bdc363df4" target="_top" xlink:title="view.SimulationScreen.getNode">
<polygon fill="white" stroke="black" points="1421,-225.5 1421,-244.5 1589,-244.5 1589,-225.5 1421,-225.5"/>
<text text-anchor="middle" x="1505" y="-232.5" font-family="Helvetica,sans-Serif" font-size="10.00">view.SimulationScreen.getNode</text>
</a>
</g>
</g>
<!-- Node13&#45;&gt;Node14 -->
<g id="edge14" class="edge"><title>Node13&#45;&gt;Node14</title>
<path fill="none" stroke="midnightblue" d="M1355.83,-211.023C1382.17,-215.285 1410.37,-219.849 1435.03,-223.839"/>
<polygon fill="midnightblue" stroke="midnightblue" points="1434.57,-227.311 1445.01,-225.453 1435.69,-220.4 1434.57,-227.311"/>
</g>
<!-- Node15 -->
<g id="node15" class="node"><title>Node15</title>
<g id="a_node15"><a xlink:href="../../d1/d3e/classview_1_1_simulation_screen.html#a6c9f5c7e36be620d06e55709bc256d18" target="_top" xlink:title="view.SimulationScreen.init\lSimScreen">
<polygon fill="white" stroke="black" points="1434.5,-176 1434.5,-206 1575.5,-206 1575.5,-176 1434.5,-176"/>
<text text-anchor="start" x="1442.5" y="-194" font-family="Helvetica,sans-Serif" font-size="10.00">view.SimulationScreen.init</text>
<text text-anchor="middle" x="1505" y="-183" font-family="Helvetica,sans-Serif" font-size="10.00">SimScreen</text>
</a>
</g>
</g>
<!-- Node13&#45;&gt;Node15 -->
<g id="edge15" class="edge"><title>Node13&#45;&gt;Node15</title>
<path fill="none" stroke="midnightblue" d="M1363.81,-193.909C1383.93,-193.491 1404.8,-193.058 1424.09,-192.658"/>
<polygon fill="midnightblue" stroke="midnightblue" points="1424.41,-196.152 1434.33,-192.445 1424.26,-189.154 1424.41,-196.152"/>
</g>
<!-- Node16 -->
<g id="node16" class="node"><title>Node16</title>
<g id="a_node16"><a xlink:href="../../d1/d3e/classview_1_1_simulation_screen.html#a7144a80861195f360ade7612b479ff3e" target="_top" xlink:title="view.SimulationScreen.add\lButtons">
<polygon fill="white" stroke="black" points="1640.5,-176 1640.5,-206 1785.5,-206 1785.5,-176 1640.5,-176"/>
<text text-anchor="start" x="1648.5" y="-194" font-family="Helvetica,sans-Serif" font-size="10.00">view.SimulationScreen.add</text>
<text text-anchor="middle" x="1713" y="-183" font-family="Helvetica,sans-Serif" font-size="10.00">Buttons</text>
</a>
</g>
</g>
<!-- Node15&#45;&gt;Node16 -->
<g id="edge16" class="edge"><title>Node15&#45;&gt;Node16</title>
<path fill="none" stroke="midnightblue" d="M1575.74,-191C1593.19,-191 1612.07,-191 1630.05,-191"/>
<polygon fill="midnightblue" stroke="midnightblue" points="1630.22,-194.5 1640.22,-191 1630.22,-187.5 1630.22,-194.5"/>
</g>
<!-- Node18 -->
<g id="node18" class="node"><title>Node18</title>
<g id="a_node18"><a xlink:href="../../d6/d7b/classcontroller_1_1_cell_society_controller.html#a33e7a77467ceeb880526a1b405b3ee79" target="_top" xlink:title="controller.CellSocietyController.pause\lSimulation">
<polygon fill="white" stroke="black" points="1408,-124 1408,-154 1602,-154 1602,-124 1408,-124"/>
<text text-anchor="start" x="1416" y="-142" font-family="Helvetica,sans-Serif" font-size="10.00">controller.CellSocietyController.pause</text>
<text text-anchor="middle" x="1505" y="-131" font-family="Helvetica,sans-Serif" font-size="10.00">Simulation</text>
</a>
</g>
</g>
<!-- Node17&#45;&gt;Node18 -->
<g id="edge18" class="edge"><title>Node17&#45;&gt;Node18</title>
<path fill="none" stroke="midnightblue" d="M1355.14,-137.147C1369.04,-137.32 1383.48,-137.5 1397.65,-137.676"/>
<polygon fill="midnightblue" stroke="midnightblue" points="1397.86,-141.179 1407.91,-137.804 1397.95,-134.18 1397.86,-141.179"/>
</g>
<!-- Node19 -->
<g id="node19" class="node"><title>Node19</title>
<g id="a_node19"><a xlink:href="../../d6/d7b/classcontroller_1_1_cell_society_controller.html#aec38c45810ee2665fe01832114fbc68d" target="_top" xlink:title="controller.CellSocietyController.restart\lSimulation">
<polygon fill="white" stroke="black" points="1406.5,-75 1406.5,-105 1603.5,-105 1603.5,-75 1406.5,-75"/>
<text text-anchor="start" x="1414.5" y="-93" font-family="Helvetica,sans-Serif" font-size="10.00">controller.CellSocietyController.restart</text>
<text text-anchor="middle" x="1505" y="-82" font-family="Helvetica,sans-Serif" font-size="10.00">Simulation</text>
</a>
</g>
</g>
<!-- Node17&#45;&gt;Node19 -->
<g id="edge19" class="edge"><title>Node17&#45;&gt;Node19</title>
<path fill="none" stroke="midnightblue" d="M1341.91,-120.938C1365.44,-116.447 1391.38,-111.496 1415.48,-106.896"/>
<polygon fill="midnightblue" stroke="midnightblue" points="1416.16,-110.33 1425.32,-105.017 1414.84,-103.454 1416.16,-110.33"/>
</g>
<!-- Node21 -->
<g id="node21" class="node"><title>Node21</title>
<g id="a_node21"><a xlink:href="../../d6/d7b/classcontroller_1_1_cell_society_controller.html#a6eb10259241f3932f29dcc2947477ac9" target="_top" xlink:title="controller.CellSocietyController.change\lSimulationSpeed">
<polygon fill="white" stroke="black" points="425,-9 425,-39 625,-39 625,-9 425,-9"/>
<text text-anchor="start" x="433" y="-27" font-family="Helvetica,sans-Serif" font-size="10.00">controller.CellSocietyController.change</text>
<text text-anchor="middle" x="525" y="-16" font-family="Helvetica,sans-Serif" font-size="10.00">SimulationSpeed</text>
</a>
</g>
</g>
<!-- Node20&#45;&gt;Node21 -->
<g id="edge21" class="edge"><title>Node20&#45;&gt;Node21</title>
<path fill="none" stroke="midnightblue" d="M369.033,-44.3013C383.612,-42.3915 399.195,-40.35 414.652,-38.325"/>
<polygon fill="midnightblue" stroke="midnightblue" points="415.319,-41.7676 424.78,-36.9983 414.41,-34.8269 415.319,-41.7676"/>
</g>
<!-- Node22 -->
<g id="node22" class="node"><title>Node22</title>
<g id="a_node22"><a xlink:href="../../d6/d7b/classcontroller_1_1_cell_society_controller.html#a2c91c70640d8de017cd11a225f1e4764" target="_top" xlink:title="controller.CellSocietyController.get\lKeyFrame">
<polygon fill="white" stroke="black" points="678.5,-9 678.5,-39 859.5,-39 859.5,-9 678.5,-9"/>
<text text-anchor="start" x="686.5" y="-27" font-family="Helvetica,sans-Serif" font-size="10.00">controller.CellSocietyController.get</text>
<text text-anchor="middle" x="769" y="-16" font-family="Helvetica,sans-Serif" font-size="10.00">KeyFrame</text>
</a>
</g>
</g>
<!-- Node21&#45;&gt;Node22 -->
<g id="edge22" class="edge"><title>Node21&#45;&gt;Node22</title>
<path fill="none" stroke="midnightblue" d="M625.129,-24C639.309,-24 653.903,-24 668.098,-24"/>
<polygon fill="midnightblue" stroke="midnightblue" points="668.352,-27.5001 678.352,-24 668.352,-20.5001 668.352,-27.5001"/>
</g>
<!-- Node23 -->
<g id="node23" class="node"><title>Node23</title>
<g id="a_node23"><a xlink:href="../../d6/d7b/classcontroller_1_1_cell_society_controller.html#a7ce2131c45f721057c3275b01d6cb119" target="_top" xlink:title="controller.CellSocietyController.update">
<polygon fill="white" stroke="black" points="913.5,-14.5 913.5,-33.5 1112.5,-33.5 1112.5,-14.5 913.5,-14.5"/>
<text text-anchor="middle" x="1013" y="-21.5" font-family="Helvetica,sans-Serif" font-size="10.00">controller.CellSocietyController.update</text>
</a>
</g>
</g>
<!-- Node22&#45;&gt;Node23 -->
<g id="edge23" class="edge"><title>Node22&#45;&gt;Node23</title>
<path fill="none" stroke="midnightblue" d="M859.768,-24C873.976,-24 888.801,-24 903.383,-24"/>
<polygon fill="midnightblue" stroke="midnightblue" points="903.429,-27.5001 913.429,-24 903.429,-20.5001 903.429,-27.5001"/>
</g>
<!-- Node24 -->
<g id="node24" class="node"><title>Node24</title>
<g id="a_node24"><a xlink:href="../../d0/d56/classmodel_1_1simulations_1_1_simulation.html#ab09457a4abc640d4b7ad57c3236d5778" target="_top" xlink:title="model.simulations.Simulation.updateGrid">
<polygon fill="white" stroke="black" points="1154.5,-14.5 1154.5,-33.5 1369.5,-33.5 1369.5,-14.5 1154.5,-14.5"/>
<text text-anchor="middle" x="1262" y="-21.5" font-family="Helvetica,sans-Serif" font-size="10.00">model.simulations.Simulation.updateGrid</text>
</a>
</g>
</g>
<!-- Node23&#45;&gt;Node24 -->
<g id="edge24" class="edge"><title>Node23&#45;&gt;Node24</title>
<path fill="none" stroke="midnightblue" d="M1112.69,-24C1123.07,-24 1133.7,-24 1144.27,-24"/>
<polygon fill="midnightblue" stroke="midnightblue" points="1144.37,-27.5001 1154.37,-24 1144.37,-20.5001 1144.37,-27.5001"/>
</g>
<!-- Node25&#45;&gt;Node21 -->
<g id="edge26" class="edge"><title>Node25&#45;&gt;Node21</title>
<path fill="none" stroke="midnightblue" d="M383.537,-15.4128C393.638,-16.0303 404.023,-16.6651 414.355,-17.2968"/>
<polygon fill="midnightblue" stroke="midnightblue" points="414.461,-20.8098 424.656,-17.9266 414.889,-13.8228 414.461,-20.8098"/>
</g>
<!-- Node27 -->
<g id="node27" class="node"><title>Node27</title>
<g id="a_node27"><a xlink:href="../../d6/d7b/classcontroller_1_1_cell_society_controller.html#a40fce40978d4d38773c6a8e13e1a3c09" target="_top" xlink:title="controller.CellSocietyController.step\lThroughSimulation">
<polygon fill="white" stroke="black" points="432,-72 432,-102 618,-102 618,-72 432,-72"/>
<text text-anchor="start" x="440" y="-90" font-family="Helvetica,sans-Serif" font-size="10.00">controller.CellSocietyController.step</text>
<text text-anchor="middle" x="525" y="-79" font-family="Helvetica,sans-Serif" font-size="10.00">ThroughSimulation</text>
</a>
</g>
</g>
<!-- Node26&#45;&gt;Node27 -->
<g id="edge28" class="edge"><title>Node26&#45;&gt;Node27</title>
<path fill="none" stroke="midnightblue" d="M372.529,-94.2759C388.325,-93.5172 405.172,-92.7079 421.678,-91.915"/>
<polygon fill="midnightblue" stroke="midnightblue" points="422.078,-95.4 431.898,-91.4241 421.742,-88.408 422.078,-95.4"/>
</g>
<!-- Node28&#45;&gt;Node17 -->
<g id="edge30" class="edge"><title>Node28&#45;&gt;Node17</title>
<path fill="none" stroke="midnightblue" d="M599.836,-134.889C711.857,-133.369 931.466,-131.044 1118,-133 1131.06,-133.137 1144.79,-133.344 1158.36,-133.587"/>
<polygon fill="midnightblue" stroke="midnightblue" points="1158.63,-137.093 1168.7,-133.779 1158.76,-130.094 1158.63,-137.093"/>
</g>
</g>
</svg>
