<?xml version="1.0" encoding="UTF-8" standalone="no"?>
<!DOCTYPE svg PUBLIC "-//W3C//DTD SVG 1.1//EN"
 "http://www.w3.org/Graphics/SVG/1.1/DTD/svg11.dtd">
<!-- Generated by graphviz version 2.36.0 (20140111.2315)
 -->
<!-- Title: view.TopMenu.addSlowDownButton Pages: 1 -->
<svg width="1100pt" height="38pt"
 viewBox="0.00 0.00 1100.00 38.00" xmlns="http://www.w3.org/2000/svg" xmlns:xlink="http://www.w3.org/1999/xlink">
<g id="graph0" class="graph" transform="scale(1 1) rotate(0) translate(4 34)">
<title>view.TopMenu.addSlowDownButton</title>
<polygon fill="white" stroke="none" points="-4,4 -4,-34 1096,-34 1096,4 -4,4"/>
<!-- Node1 -->
<g id="node1" class="node"><title>Node1</title>
<polygon fill="#bfbfbf" stroke="black" points="0,-0 0,-30 150,-30 150,-0 0,-0"/>
<text text-anchor="start" x="8" y="-18" font-family="Helvetica,sans-Serif" font-size="10.00">view.TopMenu.addSlowDown</text>
<text text-anchor="middle" x="75" y="-7" font-family="Helvetica,sans-Serif" font-size="10.00">Button</text>
</g>
<!-- Node2 -->
<g id="node2" class="node"><title>Node2</title>
<g id="a_node2"><a xlink:href="../../d6/d7b/classcontroller_1_1_cell_society_controller.html#a6eb10259241f3932f29dcc2947477ac9" target="_top" xlink:title="controller.CellSocietyController.change\lSimulationSpeed">
<polygon fill="white" stroke="black" points="186,-0 186,-30 386,-30 386,-0 186,-0"/>
<text text-anchor="start" x="194" y="-18" font-family="Helvetica,sans-Serif" font-size="10.00">controller.CellSocietyController.change</text>
<text text-anchor="middle" x="286" y="-7" font-family="Helvetica,sans-Serif" font-size="10.00">SimulationSpeed</text>
</a>
</g>
</g>
<!-- Node1&#45;&gt;Node2 -->
<g id="edge1" class="edge"><title>Node1&#45;&gt;Node2</title>
<path fill="none" stroke="midnightblue" d="M150.274,-15C158.538,-15 167.079,-15 175.663,-15"/>
<polygon fill="midnightblue" stroke="midnightblue" points="175.746,-18.5001 185.746,-15 175.746,-11.5001 175.746,-18.5001"/>
</g>
<!-- Node3 -->
<g id="node3" class="node"><title>Node3</title>
<g id="a_node3"><a xlink:href="../../d6/d7b/classcontroller_1_1_cell_society_controller.html#a2c91c70640d8de017cd11a225f1e4764" target="_top" xlink:title="controller.CellSocietyController.get\lKeyFrame">
<polygon fill="white" stroke="black" points="422.5,-0 422.5,-30 603.5,-30 603.5,-0 422.5,-0"/>
<text text-anchor="start" x="430.5" y="-18" font-family="Helvetica,sans-Serif" font-size="10.00">controller.CellSocietyController.get</text>
<text text-anchor="middle" x="513" y="-7" font-family="Helvetica,sans-Serif" font-size="10.00">KeyFrame</text>
</a>
</g>
</g>
<!-- Node2&#45;&gt;Node3 -->
<g id="edge2" class="edge"><title>Node2&#45;&gt;Node3</title>
<path fill="none" stroke="midnightblue" d="M386.016,-15C394.659,-15 403.411,-15 412.061,-15"/>
<polygon fill="midnightblue" stroke="midnightblue" points="412.158,-18.5001 422.158,-15 412.158,-11.5001 412.158,-18.5001"/>
</g>
<!-- Node4 -->
<g id="node4" class="node"><title>Node4</title>
<g id="a_node4"><a xlink:href="../../d6/d7b/classcontroller_1_1_cell_society_controller.html#a7ce2131c45f721057c3275b01d6cb119" target="_top" xlink:title="controller.CellSocietyController.update">
<polygon fill="white" stroke="black" points="640.5,-5.5 640.5,-24.5 839.5,-24.5 839.5,-5.5 640.5,-5.5"/>
<text text-anchor="middle" x="740" y="-12.5" font-family="Helvetica,sans-Serif" font-size="10.00">controller.CellSocietyController.update</text>
</a>
</g>
</g>
<!-- Node3&#45;&gt;Node4 -->
<g id="edge3" class="edge"><title>Node3&#45;&gt;Node4</title>
<path fill="none" stroke="midnightblue" d="M603.572,-15C612.387,-15 621.398,-15 630.377,-15"/>
<polygon fill="midnightblue" stroke="midnightblue" points="630.487,-18.5001 640.487,-15 630.487,-11.5001 630.487,-18.5001"/>
</g>
<!-- Node5 -->
<g id="node5" class="node"><title>Node5</title>
<g id="a_node5"><a xlink:href="../../d0/d56/classmodel_1_1simulations_1_1_simulation.html#ab09457a4abc640d4b7ad57c3236d5778" target="_top" xlink:title="model.simulations.Simulation.updateGrid">
<polygon fill="white" stroke="black" points="876.5,-5.5 876.5,-24.5 1091.5,-24.5 1091.5,-5.5 876.5,-5.5"/>
<text text-anchor="middle" x="984" y="-12.5" font-family="Helvetica,sans-Serif" font-size="10.00">model.simulations.Simulation.updateGrid</text>
</a>
</g>
</g>
<!-- Node4&#45;&gt;Node5 -->
<g id="edge4" class="edge"><title>Node4&#45;&gt;Node5</title>
<path fill="none" stroke="midnightblue" d="M839.78,-15C848.422,-15 857.221,-15 865.991,-15"/>
<polygon fill="midnightblue" stroke="midnightblue" points="866.264,-18.5001 876.264,-15 866.264,-11.5001 866.264,-18.5001"/>
</g>
</g>
</svg>
