<?xml version="1.0" encoding="UTF-8" standalone="no"?>
<!DOCTYPE svg PUBLIC "-//W3C//DTD SVG 1.1//EN"
 "http://www.w3.org/Graphics/SVG/1.1/DTD/svg11.dtd">
<!-- Generated by graphviz version 2.36.0 (20140111.2315)
 -->
<!-- Title: view.TopMenu.addSpeedUpButton Pages: 1 -->
<svg width="1130pt" height="38pt"
 viewBox="0.00 0.00 1130.00 38.00" xmlns="http://www.w3.org/2000/svg" xmlns:xlink="http://www.w3.org/1999/xlink">
<g id="graph0" class="graph" transform="scale(1 1) rotate(0) translate(4 34)">
<title>view.TopMenu.addSpeedUpButton</title>
<polygon fill="white" stroke="none" points="-4,4 -4,-34 1126,-34 1126,4 -4,4"/>
<!-- Node1 -->
<g id="node1" class="node"><title>Node1</title>
<polygon fill="#bfbfbf" stroke="black" points="0.5,-5.5 0.5,-24.5 179.5,-24.5 179.5,-5.5 0.5,-5.5"/>
<text text-anchor="middle" x="90" y="-12.5" font-family="Helvetica,sans-Serif" font-size="10.00">view.TopMenu.addSpeedUpButton</text>
</g>
<!-- Node2 -->
<g id="node2" class="node"><title>Node2</title>
<g id="a_node2"><a xlink:href="../../d6/d7b/classcontroller_1_1_cell_society_controller.html#a6eb10259241f3932f29dcc2947477ac9" target="_top" xlink:title="controller.CellSocietyController.change\lSimulationSpeed">
<polygon fill="white" stroke="black" points="216,-0 216,-30 416,-30 416,-0 216,-0"/>
<text text-anchor="start" x="224" y="-18" font-family="Helvetica,sans-Serif" font-size="10.00">controller.CellSocietyController.change</text>
<text text-anchor="middle" x="316" y="-7" font-family="Helvetica,sans-Serif" font-size="10.00">SimulationSpeed</text>
</a>
</g>
</g>
<!-- Node1&#45;&gt;Node2 -->
<g id="edge1" class="edge"><title>Node1&#45;&gt;Node2</title>
<path fill="none" stroke="midnightblue" d="M179.531,-15C188.057,-15 196.772,-15 205.468,-15"/>
<polygon fill="midnightblue" stroke="midnightblue" points="205.655,-18.5001 215.655,-15 205.655,-11.5001 205.655,-18.5001"/>
</g>
<!-- Node3 -->
<g id="node3" class="node"><title>Node3</title>
<g id="a_node3"><a xlink:href="../../d6/d7b/classcontroller_1_1_cell_society_controller.html#a2c91c70640d8de017cd11a225f1e4764" target="_top" xlink:title="controller.CellSocietyController.get\lKeyFrame">
<polygon fill="white" stroke="black" points="452.5,-0 452.5,-30 633.5,-30 633.5,-0 452.5,-0"/>
<text text-anchor="start" x="460.5" y="-18" font-family="Helvetica,sans-Serif" font-size="10.00">controller.CellSocietyController.get</text>
<text text-anchor="middle" x="543" y="-7" font-family="Helvetica,sans-Serif" font-size="10.00">KeyFrame</text>
</a>
</g>
</g>
<!-- Node2&#45;&gt;Node3 -->
<g id="edge2" class="edge"><title>Node2&#45;&gt;Node3</title>
<path fill="none" stroke="midnightblue" d="M416.016,-15C424.659,-15 433.411,-15 442.061,-15"/>
<polygon fill="midnightblue" stroke="midnightblue" points="442.158,-18.5001 452.158,-15 442.158,-11.5001 442.158,-18.5001"/>
</g>
<!-- Node4 -->
<g id="node4" class="node"><title>Node4</title>
<g id="a_node4"><a xlink:href="../../d6/d7b/classcontroller_1_1_cell_society_controller.html#a7ce2131c45f721057c3275b01d6cb119" target="_top" xlink:title="controller.CellSocietyController.update">
<polygon fill="white" stroke="black" points="670.5,-5.5 670.5,-24.5 869.5,-24.5 869.5,-5.5 670.5,-5.5"/>
<text text-anchor="middle" x="770" y="-12.5" font-family="Helvetica,sans-Serif" font-size="10.00">controller.CellSocietyController.update</text>
</a>
</g>
</g>
<!-- Node3&#45;&gt;Node4 -->
<g id="edge3" class="edge"><title>Node3&#45;&gt;Node4</title>
<path fill="none" stroke="midnightblue" d="M633.572,-15C642.387,-15 651.398,-15 660.377,-15"/>
<polygon fill="midnightblue" stroke="midnightblue" points="660.487,-18.5001 670.487,-15 660.487,-11.5001 660.487,-18.5001"/>
</g>
<!-- Node5 -->
<g id="node5" class="node"><title>Node5</title>
<g id="a_node5"><a xlink:href="../../d0/d56/classmodel_1_1simulations_1_1_simulation.html#ab09457a4abc640d4b7ad57c3236d5778" target="_top" xlink:title="model.simulations.Simulation.updateGrid">
<polygon fill="white" stroke="black" points="906.5,-5.5 906.5,-24.5 1121.5,-24.5 1121.5,-5.5 906.5,-5.5"/>
<text text-anchor="middle" x="1014" y="-12.5" font-family="Helvetica,sans-Serif" font-size="10.00">model.simulations.Simulation.updateGrid</text>
</a>
</g>
</g>
<!-- Node4&#45;&gt;Node5 -->
<g id="edge4" class="edge"><title>Node4&#45;&gt;Node5</title>
<path fill="none" stroke="midnightblue" d="M869.78,-15C878.422,-15 887.221,-15 895.991,-15"/>
<polygon fill="midnightblue" stroke="midnightblue" points="896.264,-18.5001 906.264,-15 896.264,-11.5001 896.264,-18.5001"/>
</g>
</g>
</svg>
