<?xml version="1.0" encoding="UTF-8" standalone="no"?>
<!DOCTYPE svg PUBLIC "-//W3C//DTD SVG 1.1//EN"
 "http://www.w3.org/Graphics/SVG/1.1/DTD/svg11.dtd">
<!-- Generated by graphviz version 2.36.0 (20140111.2315)
 -->
<!-- Title: view.SideMenu.addOptionsPanel Pages: 1 -->
<svg width="600pt" height="38pt"
 viewBox="0.00 0.00 600.00 38.00" xmlns="http://www.w3.org/2000/svg" xmlns:xlink="http://www.w3.org/1999/xlink">
<g id="graph0" class="graph" transform="scale(1 1) rotate(0) translate(4 34)">
<title>view.SideMenu.addOptionsPanel</title>
<polygon fill="white" stroke="none" points="-4,4 -4,-34 596,-34 596,4 -4,4"/>
<!-- Node1 -->
<g id="node1" class="node"><title>Node1</title>
<polygon fill="#bfbfbf" stroke="black" points="0,-0 0,-30 144,-30 144,-0 0,-0"/>
<text text-anchor="start" x="8" y="-18" font-family="Helvetica,sans-Serif" font-size="10.00">view.SideMenu.addOptions</text>
<text text-anchor="middle" x="72" y="-7" font-family="Helvetica,sans-Serif" font-size="10.00">Panel</text>
</g>
<!-- Node2 -->
<g id="node2" class="node"><title>Node2</title>
<g id="a_node2"><a xlink:href="../../d6/d7b/classcontroller_1_1_cell_society_controller.html#a34f35d20fd1fcdf6ec1b959f71692068" target="_top" xlink:title="controller.CellSocietyController.change\lSimulationParameters">
<polygon fill="white" stroke="black" points="180,-0 180,-30 380,-30 380,-0 180,-0"/>
<text text-anchor="start" x="188" y="-18" font-family="Helvetica,sans-Serif" font-size="10.00">controller.CellSocietyController.change</text>
<text text-anchor="middle" x="280" y="-7" font-family="Helvetica,sans-Serif" font-size="10.00">SimulationParameters</text>
</a>
</g>
</g>
<!-- Node1&#45;&gt;Node2 -->
<g id="edge1" class="edge"><title>Node1&#45;&gt;Node2</title>
<path fill="none" stroke="midnightblue" d="M144.182,-15C152.457,-15 161.036,-15 169.675,-15"/>
<polygon fill="midnightblue" stroke="midnightblue" points="169.828,-18.5001 179.828,-15 169.828,-11.5001 169.828,-18.5001"/>
</g>
<!-- Node3 -->
<g id="node3" class="node"><title>Node3</title>
<g id="a_node3"><a xlink:href="../../d0/d56/classmodel_1_1simulations_1_1_simulation.html#a843485b5e61f708ef5c8f722faee5232" target="_top" xlink:title="model.simulations.Simulation.set\lParameter">
<polygon fill="white" stroke="black" points="416,-0 416,-30 592,-30 592,-0 416,-0"/>
<text text-anchor="start" x="424" y="-18" font-family="Helvetica,sans-Serif" font-size="10.00">model.simulations.Simulation.set</text>
<text text-anchor="middle" x="504" y="-7" font-family="Helvetica,sans-Serif" font-size="10.00">Parameter</text>
</a>
</g>
</g>
<!-- Node2&#45;&gt;Node3 -->
<g id="edge2" class="edge"><title>Node2&#45;&gt;Node3</title>
<path fill="none" stroke="midnightblue" d="M380.312,-15C388.766,-15 397.311,-15 405.749,-15"/>
<polygon fill="midnightblue" stroke="midnightblue" points="405.974,-18.5001 415.974,-15 405.974,-11.5001 405.974,-18.5001"/>
</g>
</g>
</svg>
