<?xml version="1.0" encoding="UTF-8" standalone="no"?>
<!DOCTYPE svg PUBLIC "-//W3C//DTD SVG 1.1//EN"
 "http://www.w3.org/Graphics/SVG/1.1/DTD/svg11.dtd">
<!-- Generated by graphviz version 2.36.0 (20140111.2315)
 -->
<!-- Title: model.cells.Cell Pages: 1 -->
<svg width="450pt" height="164pt"
 viewBox="0.00 0.00 450.00 164.00" xmlns="http://www.w3.org/2000/svg" xmlns:xlink="http://www.w3.org/1999/xlink">
<g id="graph0" class="graph" transform="scale(1 1) rotate(0) translate(4 160)">
<title>model.cells.Cell</title>
<polygon fill="white" stroke="none" points="-4,4 -4,-160 446,-160 446,4 -4,4"/>
<!-- Node1 -->
<g id="node1" class="node"><title>Node1</title>
<polygon fill="#bfbfbf" stroke="black" points="176.5,-68.5 176.5,-87.5 267.5,-87.5 267.5,-68.5 176.5,-68.5"/>
<text text-anchor="middle" x="222" y="-75.5" font-family="Helvetica,sans-Serif" font-size="10.00">model.cells.Cell</text>
</g>
<!-- Node3 -->
<g id="node3" class="node"><title>Node3</title>
<g id="a_node3"><a xlink:href="../../db/d90/classmodel_1_1patches_1_1_patch.html" target="_top" xlink:title="model.patches.Patch">
<polygon fill="white" stroke="black" points="162.5,-0.5 162.5,-19.5 279.5,-19.5 279.5,-0.5 162.5,-0.5"/>
<text text-anchor="middle" x="221" y="-7.5" font-family="Helvetica,sans-Serif" font-size="10.00">model.patches.Patch</text>
</a>
</g>
</g>
<!-- Node1&#45;&gt;Node3 -->
<g id="edge4" class="edge"><title>Node1&#45;&gt;Node3</title>
<path fill="none" stroke="#9a32cd" stroke-dasharray="5,2" d="M198.184,-62.0146C194.464,-58.5489 191.146,-54.5279 189,-50 183.449,-38.2863 195.012,-27.0817 205.756,-19.7125"/>
<polygon fill="#9a32cd" stroke="#9a32cd" points="196.132,-64.8542 206.139,-68.3329 200.485,-59.3728 196.132,-64.8542"/>
<text text-anchor="middle" x="207" y="-41.5" font-family="Helvetica,sans-Serif" font-size="10.00"> myCell</text>
</g>
<!-- Node2 -->
<g id="node2" class="node"><title>Node2</title>
<polygon fill="white" stroke="#bfbfbf" points="157,-136.5 157,-155.5 287,-155.5 287,-136.5 157,-136.5"/>
<text text-anchor="middle" x="222" y="-143.5" font-family="Helvetica,sans-Serif" font-size="10.00">List&lt; model.cells.Cell &gt;</text>
</g>
<!-- Node2&#45;&gt;Node1 -->
<g id="edge1" class="edge"><title>Node2&#45;&gt;Node1</title>
<path fill="none" stroke="#9a32cd" stroke-dasharray="5,2" d="M222,-126.041C222,-113.472 222,-97.5631 222,-87.8411"/>
<polygon fill="#9a32cd" stroke="#9a32cd" points="218.5,-126.372 222,-136.372 225.5,-126.372 218.5,-126.372"/>
<text text-anchor="middle" x="255.5" y="-109.5" font-family="Helvetica,sans-Serif" font-size="10.00"> myNeighbors</text>
</g>
<!-- Node3&#45;&gt;Node1 -->
<g id="edge2" class="edge"><title>Node3&#45;&gt;Node1</title>
<path fill="none" stroke="#9a32cd" stroke-dasharray="5,2" d="M227.224,-29.4341C227.96,-32.2732 228.593,-35.1938 229,-38 230.521,-48.484 227.679,-60.4677 225.172,-68.3528"/>
<polygon fill="#9a32cd" stroke="#9a32cd" points="230.572,-28.4136 224.326,-19.8552 223.872,-30.4403 230.572,-28.4136"/>
<text text-anchor="middle" x="252.5" y="-41.5" font-family="Helvetica,sans-Serif" font-size="10.00"> myPatch</text>
</g>
<!-- Node4 -->
<g id="node4" class="node"><title>Node4</title>
<polygon fill="white" stroke="#bfbfbf" points="0,-136.5 0,-155.5 128,-155.5 128,-136.5 0,-136.5"/>
<text text-anchor="middle" x="64" y="-143.5" font-family="Helvetica,sans-Serif" font-size="10.00">Map&lt; String, Double &gt;</text>
</g>
<!-- Node4&#45;&gt;Node1 -->
<g id="edge6" class="edge"><title>Node4&#45;&gt;Node1</title>
<path fill="none" stroke="#9a32cd" stroke-dasharray="5,2" d="M87.417,-131.548C101.973,-123.51 121.236,-113.448 139,-106 156.049,-98.8519 175.698,-92.3848 191.598,-87.5731"/>
<polygon fill="#9a32cd" stroke="#9a32cd" points="85.6085,-128.55 78.5946,-136.491 89.0296,-134.657 85.6085,-128.55"/>
<text text-anchor="middle" x="178.5" y="-109.5" font-family="Helvetica,sans-Serif" font-size="10.00"> myPropertyMap</text>
</g>
<!-- Node4&#45;&gt;Node3 -->
<g id="edge3" class="edge"><title>Node4&#45;&gt;Node3</title>
<path fill="none" stroke="#9a32cd" stroke-dasharray="5,2" d="M57.4651,-126.693C52.7097,-109.872 48.982,-85.0393 61,-68 83.7746,-35.7099 126.545,-21.6063 162.138,-15.4972"/>
<polygon fill="#9a32cd" stroke="#9a32cd" points="54.1994,-127.971 60.5833,-136.427 60.8657,-125.836 54.1994,-127.971"/>
<text text-anchor="middle" x="114" y="-75.5" font-family="Helvetica,sans-Serif" font-size="10.00"> myPatchPropertyMap</text>
</g>
<!-- Node5 -->
<g id="node5" class="node"><title>Node5</title>
<polygon fill="white" stroke="#bfbfbf" points="286,-68.5 286,-87.5 442,-87.5 442,-68.5 286,-68.5"/>
<text text-anchor="middle" x="364" y="-75.5" font-family="Helvetica,sans-Serif" font-size="10.00">List&lt; model.patches.Patch &gt;</text>
</g>
<!-- Node5&#45;&gt;Node3 -->
<g id="edge5" class="edge"><title>Node5&#45;&gt;Node3</title>
<path fill="none" stroke="#9a32cd" stroke-dasharray="5,2" d="M335.908,-64.0346C307.446,-50.898 264.217,-30.9463 239.699,-19.6305"/>
<polygon fill="#9a32cd" stroke="#9a32cd" points="334.759,-67.3589 345.305,-68.3717 337.692,-61.0032 334.759,-67.3589"/>
<text text-anchor="middle" x="338.5" y="-41.5" font-family="Helvetica,sans-Serif" font-size="10.00"> myNeighbors</text>
</g>
</g>
</svg>
