<?xml version="1.0" encoding="UTF-8" standalone="no"?>
<!DOCTYPE svg PUBLIC "-//W3C//DTD SVG 1.1//EN"
 "http://www.w3.org/Graphics/SVG/1.1/DTD/svg11.dtd">
<!-- Generated by graphviz version 2.36.0 (20140111.2315)
 -->
<!-- Title: /tmp/git/duke&#45;compsci308&#45;spring2015/cellsociety_team15/repository/src Pages: 1 -->
<svg width="334pt" height="111pt"
 viewBox="0.00 0.00 334.00 111.00" xmlns="http://www.w3.org/2000/svg" xmlns:xlink="http://www.w3.org/1999/xlink">
<g id="graph0" class="graph" transform="scale(1 1) rotate(0) translate(4 107)">
<title>/tmp/git/duke&#45;compsci308&#45;spring2015/cellsociety_team15/repository/src</title>
<polygon fill="white" stroke="none" points="-4,4 -4,-107 330,-107 330,4 -4,4"/>
<g id="clust1" class="cluster"><title>clusterdir_52d47c7cdab3247101b253294a4656c7</title>
<g id="a_clust1"><a xlink:href="dir_52d47c7cdab3247101b253294a4656c7.html" target="_top" xlink:title="repository">
<polygon fill="#ddddee" stroke="black" points="8,-8 8,-95 318,-95 318,-8 8,-8"/>
<text text-anchor="middle" x="163" y="-83" font-family="Helvetica,sans-Serif" font-size="10.00">repository</text>
</a>
</g>
</g>
<g id="clust2" class="cluster"><title>clusterdir_b69dbb1f02b8e25abc6d0dc867ac3040</title>
<g id="a_clust2"><a xlink:href="dir_b69dbb1f02b8e25abc6d0dc867ac3040.html" target="_top">
<polygon fill="#eeeeff" stroke="black" points="16,-16 16,-68 310,-68 310,-16 16,-16"/>
</a>
</g>
</g>
<!-- dir_b69dbb1f02b8e25abc6d0dc867ac3040 -->
<g id="node1" class="node"><title>dir_b69dbb1f02b8e25abc6d0dc867ac3040</title>
<text text-anchor="middle" x="275" y="-39.5" font-family="Helvetica,sans-Serif" font-size="10.00">src</text>
</g>
<!-- dir_861a22e970d9a1ca201fc448ef48d739 -->
<g id="node2" class="node"><title>dir_861a22e970d9a1ca201fc448ef48d739</title>
<g id="a_node2"><a xlink:href="dir_861a22e970d9a1ca201fc448ef48d739.html" target="_top" xlink:title="controller">
<polygon fill="white" stroke="black" points="229.5,-60 168.5,-60 168.5,-24 229.5,-24 229.5,-60"/>
<text text-anchor="middle" x="199" y="-39.5" font-family="Helvetica,sans-Serif" font-size="10.00">controller</text>
</a>
</g>
</g>
<!-- dir_e90059bb7b627013d221c99462c35bee -->
<g id="node3" class="node"><title>dir_e90059bb7b627013d221c99462c35bee</title>
<g id="a_node3"><a xlink:href="dir_e90059bb7b627013d221c99462c35bee.html" target="_top" xlink:title="model">
<polygon fill="white" stroke="red" points="150,-60 96,-60 96,-24 150,-24 150,-60"/>
<text text-anchor="middle" x="123" y="-39.5" font-family="Helvetica,sans-Serif" font-size="10.00">model</text>
</a>
</g>
</g>
<!-- dir_bf2d26cc9ed287fb3485508e0c0addd6 -->
<g id="node4" class="node"><title>dir_bf2d26cc9ed287fb3485508e0c0addd6</title>
<g id="a_node4"><a xlink:href="dir_bf2d26cc9ed287fb3485508e0c0addd6.html" target="_top" xlink:title="view">
<polygon fill="white" stroke="black" points="78,-60 24,-60 24,-24 78,-24 78,-60"/>
<text text-anchor="middle" x="51" y="-39.5" font-family="Helvetica,sans-Serif" font-size="10.00">view</text>
</a>
</g>
</g>
</g>
</svg>
