<?xml version="1.0" encoding="UTF-8" standalone="no"?>
<!DOCTYPE svg PUBLIC "-//W3C//DTD SVG 1.1//EN"
 "http://www.w3.org/Graphics/SVG/1.1/DTD/svg11.dtd">
<!-- Generated by graphviz version 2.36.0 (20140111.2315)
 -->
<!-- Title: /tmp/git/duke&#45;compsci308&#45;spring2015/cellsociety_team15/repository/src/model Pages: 1 -->
<svg width="576pt" height="111pt"
 viewBox="0.00 0.00 576.00 111.00" xmlns="http://www.w3.org/2000/svg" xmlns:xlink="http://www.w3.org/1999/xlink">
<g id="graph0" class="graph" transform="scale(1 1) rotate(0) translate(4 107)">
<title>/tmp/git/duke&#45;compsci308&#45;spring2015/cellsociety_team15/repository/src/model</title>
<polygon fill="white" stroke="none" points="-4,4 -4,-107 572,-107 572,4 -4,4"/>
<g id="clust1" class="cluster"><title>clusterdir_b69dbb1f02b8e25abc6d0dc867ac3040</title>
<g id="a_clust1"><a xlink:href="dir_b69dbb1f02b8e25abc6d0dc867ac3040.html" target="_top" xlink:title="src">
<polygon fill="#ddddee" stroke="black" points="8,-8 8,-95 560,-95 560,-8 8,-8"/>
<text text-anchor="middle" x="284" y="-83" font-family="Helvetica,sans-Serif" font-size="10.00">src</text>
</a>
</g>
</g>
<g id="clust2" class="cluster"><title>clusterdir_e90059bb7b627013d221c99462c35bee</title>
<g id="a_clust2"><a xlink:href="dir_e90059bb7b627013d221c99462c35bee.html" target="_top">
<polygon fill="#eeeeff" stroke="black" points="16,-16 16,-68 552,-68 552,-16 16,-16"/>
</a>
</g>
</g>
<!-- dir_e90059bb7b627013d221c99462c35bee -->
<g id="node1" class="node"><title>dir_e90059bb7b627013d221c99462c35bee</title>
<text text-anchor="middle" x="517" y="-39.5" font-family="Helvetica,sans-Serif" font-size="10.00">model</text>
</g>
<!-- dir_96e9ad9704afb0c6efcd0c73a15ce4e2 -->
<g id="node2" class="node"><title>dir_96e9ad9704afb0c6efcd0c73a15ce4e2</title>
<g id="a_node2"><a xlink:href="dir_96e9ad9704afb0c6efcd0c73a15ce4e2.html" target="_top" xlink:title="cells">
<polygon fill="white" stroke="black" points="472,-60 418,-60 418,-24 472,-24 472,-60"/>
<text text-anchor="middle" x="445" y="-39.5" font-family="Helvetica,sans-Serif" font-size="10.00">cells</text>
</a>
</g>
</g>
<!-- dir_0e44483269ea2b26715e8cbfba4233fd -->
<g id="node3" class="node"><title>dir_0e44483269ea2b26715e8cbfba4233fd</title>
<g id="a_node3"><a xlink:href="dir_0e44483269ea2b26715e8cbfba4233fd.html" target="_top" xlink:title="gridrules">
<polygon fill="white" stroke="black" points="399.5,-60 342.5,-60 342.5,-24 399.5,-24 399.5,-60"/>
<text text-anchor="middle" x="371" y="-39.5" font-family="Helvetica,sans-Serif" font-size="10.00">gridrules</text>
</a>
</g>
</g>
<!-- dir_b0a1e7eec97bf1f969a8892bb1b8ddb9 -->
<g id="node4" class="node"><title>dir_b0a1e7eec97bf1f969a8892bb1b8ddb9</title>
<g id="a_node4"><a xlink:href="dir_b0a1e7eec97bf1f969a8892bb1b8ddb9.html" target="_top" xlink:title="neighbors">
<polygon fill="white" stroke="black" points="324,-60 260,-60 260,-24 324,-24 324,-60"/>
<text text-anchor="middle" x="292" y="-39.5" font-family="Helvetica,sans-Serif" font-size="10.00">neighbors</text>
</a>
</g>
</g>
<!-- dir_7c6a75e485269e00edf7572ad433dce2 -->
<g id="node5" class="node"><title>dir_7c6a75e485269e00edf7572ad433dce2</title>
<g id="a_node5"><a xlink:href="dir_7c6a75e485269e00edf7572ad433dce2.html" target="_top" xlink:title="patches">
<polygon fill="white" stroke="black" points="241.25,-60 186.75,-60 186.75,-24 241.25,-24 241.25,-60"/>
<text text-anchor="middle" x="214" y="-39.5" font-family="Helvetica,sans-Serif" font-size="10.00">patches</text>
</a>
</g>
</g>
<!-- dir_2f339377120b9b3759495851385cd665 -->
<g id="node6" class="node"><title>dir_2f339377120b9b3759495851385cd665</title>
<g id="a_node6"><a xlink:href="dir_2f339377120b9b3759495851385cd665.html" target="_top" xlink:title="shapes">
<polygon fill="white" stroke="black" points="168,-60 114,-60 114,-24 168,-24 168,-60"/>
<text text-anchor="middle" x="141" y="-39.5" font-family="Helvetica,sans-Serif" font-size="10.00">shapes</text>
</a>
</g>
</g>
<!-- dir_4a7bd4c52b737f197f3b88ee26a36075 -->
<g id="node7" class="node"><title>dir_4a7bd4c52b737f197f3b88ee26a36075</title>
<g id="a_node7"><a xlink:href="dir_4a7bd4c52b737f197f3b88ee26a36075.html" target="_top" xlink:title="simulations">
<polygon fill="white" stroke="black" points="95.25,-60 24.75,-60 24.75,-24 95.25,-24 95.25,-60"/>
<text text-anchor="middle" x="60" y="-39.5" font-family="Helvetica,sans-Serif" font-size="10.00">simulations</text>
</a>
</g>
</g>
</g>
</svg>
