<?xml version="1.0" encoding="UTF-8" standalone="no"?>
<!DOCTYPE svg PUBLIC "-//W3C//DTD SVG 1.1//EN"
 "http://www.w3.org/Graphics/SVG/1.1/DTD/svg11.dtd">
<!-- Generated by graphviz version 2.36.0 (20140111.2315)
 -->
<!-- Title: Graphical Class Hierarchy Pages: 1 -->
<svg width="320pt" height="136pt"
 viewBox="0.00 0.00 320.00 136.00" xmlns="http://www.w3.org/2000/svg" xmlns:xlink="http://www.w3.org/1999/xlink">
<g id="graph0" class="graph" transform="scale(1 1) rotate(0) translate(4 132)">
<title>Graphical Class Hierarchy</title>
<polygon fill="white" stroke="none" points="-4,4 -4,-132 316,-132 316,4 -4,4"/>
<!-- Node1 -->
<g id="node1" class="node"><title>Node1</title>
<g id="a_node1"><a xlink:href="da/d6d/classmodel_1_1gridrules_1_1_grid_rules.html" target="_top" xlink:title="model.gridrules.GridRules">
<polygon fill="white" stroke="black" points="0,-54.5 0,-73.5 138,-73.5 138,-54.5 0,-54.5"/>
<text text-anchor="middle" x="69" y="-61.5" font-family="Helvetica,sans-Serif" font-size="10.00">model.gridrules.GridRules</text>
</a>
</g>
</g>
<!-- Node2 -->
<g id="node2" class="node"><title>Node2</title>
<g id="a_node2"><a xlink:href="dd/dcf/classmodel_1_1gridrules_1_1_finite_grid_rules.html" target="_top" xlink:title="model.gridrules.FiniteGrid\lRules">
<polygon fill="white" stroke="black" points="174,-98 174,-128 312,-128 312,-98 174,-98"/>
<text text-anchor="start" x="182" y="-116" font-family="Helvetica,sans-Serif" font-size="10.00">model.gridrules.FiniteGrid</text>
<text text-anchor="middle" x="243" y="-105" font-family="Helvetica,sans-Serif" font-size="10.00">Rules</text>
</a>
</g>
</g>
<!-- Node1&#45;&gt;Node2 -->
<g id="edge1" class="edge"><title>Node1&#45;&gt;Node2</title>
<path fill="none" stroke="midnightblue" d="M113.406,-76.3657C136.436,-82.9265 164.917,-91.0403 189.217,-97.963"/>
<polygon fill="midnightblue" stroke="midnightblue" points="114.148,-72.9378 103.572,-73.564 112.23,-79.67 114.148,-72.9378"/>
</g>
<!-- Node3 -->
<g id="node3" class="node"><title>Node3</title>
<g id="a_node3"><a xlink:href="de/dfc/classmodel_1_1gridrules_1_1_infinite_grid_rules.html" target="_top" xlink:title="model.gridrules.Infinite\lGridRules">
<polygon fill="white" stroke="black" points="180.5,-49 180.5,-79 305.5,-79 305.5,-49 180.5,-49"/>
<text text-anchor="start" x="188.5" y="-67" font-family="Helvetica,sans-Serif" font-size="10.00">model.gridrules.Infinite</text>
<text text-anchor="middle" x="243" y="-56" font-family="Helvetica,sans-Serif" font-size="10.00">GridRules</text>
</a>
</g>
</g>
<!-- Node1&#45;&gt;Node3 -->
<g id="edge2" class="edge"><title>Node1&#45;&gt;Node3</title>
<path fill="none" stroke="midnightblue" d="M148.637,-64C159.309,-64 170.134,-64 180.447,-64"/>
<polygon fill="midnightblue" stroke="midnightblue" points="148.473,-60.5001 138.473,-64 148.473,-67.5001 148.473,-60.5001"/>
</g>
<!-- Node4 -->
<g id="node4" class="node"><title>Node4</title>
<g id="a_node4"><a xlink:href="da/d6e/classmodel_1_1gridrules_1_1_toroidal_grid_rules.html" target="_top" xlink:title="model.gridrules.Toroidal\lGridRules">
<polygon fill="white" stroke="black" points="178,-0 178,-30 308,-30 308,-0 178,-0"/>
<text text-anchor="start" x="186" y="-18" font-family="Helvetica,sans-Serif" font-size="10.00">model.gridrules.Toroidal</text>
<text text-anchor="middle" x="243" y="-7" font-family="Helvetica,sans-Serif" font-size="10.00">GridRules</text>
</a>
</g>
</g>
<!-- Node1&#45;&gt;Node4 -->
<g id="edge3" class="edge"><title>Node1&#45;&gt;Node4</title>
<path fill="none" stroke="midnightblue" d="M113.406,-51.6343C136.436,-45.0735 164.917,-36.9597 189.217,-30.037"/>
<polygon fill="midnightblue" stroke="midnightblue" points="112.23,-48.33 103.572,-54.436 114.148,-55.0622 112.23,-48.33"/>
</g>
</g>
</svg>
