<?xml version="1.0" encoding="UTF-8" standalone="no"?>
<!DOCTYPE svg PUBLIC "-//W3C//DTD SVG 1.1//EN"
 "http://www.w3.org/Graphics/SVG/1.1/DTD/svg11.dtd">
<!-- Generated by graphviz version 2.36.0 (20140111.2315)
 -->
<!-- Title: Graphical Class Hierarchy Pages: 1 -->
<svg width="230pt" height="66pt"
 viewBox="0.00 0.00 230.00 66.00" xmlns="http://www.w3.org/2000/svg" xmlns:xlink="http://www.w3.org/1999/xlink">
<g id="graph0" class="graph" transform="scale(1 1) rotate(0) translate(4 62)">
<title>Graphical Class Hierarchy</title>
<polygon fill="white" stroke="none" points="-4,4 -4,-62 226,-62 226,4 -4,4"/>
<!-- Node1 -->
<g id="node1" class="node"><title>Node1</title>
<g id="a_node1"><a xlink:href="d7/d7e/classview_1_1_shape_grid.html" target="_top" xlink:title="view.ShapeGrid">
<polygon fill="white" stroke="black" points="0.5,-19.5 0.5,-38.5 89.5,-38.5 89.5,-19.5 0.5,-19.5"/>
<text text-anchor="middle" x="45" y="-26.5" font-family="Helvetica,sans-Serif" font-size="10.00">view.ShapeGrid</text>
</a>
</g>
</g>
<!-- Node2 -->
<g id="node2" class="node"><title>Node2</title>
<g id="a_node2"><a xlink:href="de/da2/classview_1_1_square_grid.html" target="_top" xlink:title="view.SquareGrid">
<polygon fill="white" stroke="black" points="127.5,-38.5 127.5,-57.5 220.5,-57.5 220.5,-38.5 127.5,-38.5"/>
<text text-anchor="middle" x="174" y="-45.5" font-family="Helvetica,sans-Serif" font-size="10.00">view.SquareGrid</text>
</a>
</g>
</g>
<!-- Node1&#45;&gt;Node2 -->
<g id="edge1" class="edge"><title>Node1&#45;&gt;Node2</title>
<path fill="none" stroke="midnightblue" d="M99.6167,-37.0214C108.89,-38.4087 118.451,-39.8392 127.484,-41.1905"/>
<polygon fill="midnightblue" stroke="midnightblue" points="100.114,-33.5569 89.7062,-35.5387 99.0782,-40.4799 100.114,-33.5569"/>
</g>
<!-- Node3 -->
<g id="node3" class="node"><title>Node3</title>
<g id="a_node3"><a xlink:href="d2/dd5/classview_1_1_triangle_grid.html" target="_top" xlink:title="view.TriangleGrid">
<polygon fill="white" stroke="black" points="126.5,-0.5 126.5,-19.5 221.5,-19.5 221.5,-0.5 126.5,-0.5"/>
<text text-anchor="middle" x="174" y="-7.5" font-family="Helvetica,sans-Serif" font-size="10.00">view.TriangleGrid</text>
</a>
</g>
</g>
<!-- Node1&#45;&gt;Node3 -->
<g id="edge2" class="edge"><title>Node1&#45;&gt;Node3</title>
<path fill="none" stroke="midnightblue" d="M99.8326,-20.9463C108.592,-19.6358 117.603,-18.2877 126.178,-17.0049"/>
<polygon fill="midnightblue" stroke="midnightblue" points="99.0782,-17.5201 89.7062,-22.4613 100.114,-24.4431 99.0782,-17.5201"/>
</g>
</g>
</svg>
