<?xml version="1.0" encoding="UTF-8" standalone="no"?>
<!DOCTYPE svg PUBLIC "-//W3C//DTD SVG 1.1//EN"
 "http://www.w3.org/Graphics/SVG/1.1/DTD/svg11.dtd">
<!-- Generated by graphviz version 2.36.0 (20140111.2315)
 -->
<!-- Title: Graphical Class Hierarchy Pages: 1 -->
<svg width="364pt" height="87pt"
 viewBox="0.00 0.00 364.00 87.00" xmlns="http://www.w3.org/2000/svg" xmlns:xlink="http://www.w3.org/1999/xlink">
<g id="graph0" class="graph" transform="scale(1 1) rotate(0) translate(4 83)">
<title>Graphical Class Hierarchy</title>
<polygon fill="white" stroke="none" points="-4,4 -4,-83 360,-83 360,4 -4,4"/>
<!-- Node1 -->
<g id="node1" class="node"><title>Node1</title>
<g id="a_node1"><a xlink:href="dc/de1/classmodel_1_1neighbors_1_1_neighbors.html" target="_top" xlink:title="model.neighbors.Neighbors">
<polygon fill="white" stroke="black" points="0.5,-29.5 0.5,-48.5 149.5,-48.5 149.5,-29.5 0.5,-29.5"/>
<text text-anchor="middle" x="75" y="-36.5" font-family="Helvetica,sans-Serif" font-size="10.00">model.neighbors.Neighbors</text>
</a>
</g>
</g>
<!-- Node2 -->
<g id="node2" class="node"><title>Node2</title>
<g id="a_node2"><a xlink:href="dd/d12/classmodel_1_1neighbors_1_1_hexagonal_neighbors.html" target="_top" xlink:title="model.neighbors.Hexagonal\lNeighbors">
<polygon fill="white" stroke="black" points="195.5,-49 195.5,-79 346.5,-79 346.5,-49 195.5,-49"/>
<text text-anchor="start" x="203.5" y="-67" font-family="Helvetica,sans-Serif" font-size="10.00">model.neighbors.Hexagonal</text>
<text text-anchor="middle" x="271" y="-56" font-family="Helvetica,sans-Serif" font-size="10.00">Neighbors</text>
</a>
</g>
</g>
<!-- Node1&#45;&gt;Node2 -->
<g id="edge1" class="edge"><title>Node1&#45;&gt;Node2</title>
<path fill="none" stroke="midnightblue" d="M159.565,-49.7687C171.502,-51.307 183.716,-52.881 195.465,-54.395"/>
<polygon fill="midnightblue" stroke="midnightblue" points="159.985,-46.294 149.62,-48.4871 159.09,-53.2365 159.985,-46.294"/>
</g>
<!-- Node3 -->
<g id="node3" class="node"><title>Node3</title>
<g id="a_node3"><a xlink:href="d6/d9c/classmodel_1_1neighbors_1_1_square_triangle_neighbors.html" target="_top" xlink:title="model.neighbors.SquareTriangle\lNeighbors">
<polygon fill="white" stroke="black" points="186,-0 186,-30 356,-30 356,-0 186,-0"/>
<text text-anchor="start" x="194" y="-18" font-family="Helvetica,sans-Serif" font-size="10.00">model.neighbors.SquareTriangle</text>
<text text-anchor="middle" x="271" y="-7" font-family="Helvetica,sans-Serif" font-size="10.00">Neighbors</text>
</a>
</g>
</g>
<!-- Node1&#45;&gt;Node3 -->
<g id="edge2" class="edge"><title>Node1&#45;&gt;Node3</title>
<path fill="none" stroke="midnightblue" d="M159.668,-28.6493C168.298,-27.5817 177.071,-26.4964 185.708,-25.4279"/>
<polygon fill="midnightblue" stroke="midnightblue" points="159.114,-25.191 149.62,-29.8924 159.974,-32.1381 159.114,-25.191"/>
</g>
</g>
</svg>
