<?xml version="1.0" encoding="UTF-8" standalone="no"?>
<!DOCTYPE svg PUBLIC "-//W3C//DTD SVG 1.1//EN"
 "http://www.w3.org/Graphics/SVG/1.1/DTD/svg11.dtd">
<!-- Generated by graphviz version 2.36.0 (20140111.2315)
 -->
<!-- Title: Graphical Class Hierarchy Pages: 1 -->
<svg width="348pt" height="77pt"
 viewBox="0.00 0.00 348.00 77.00" xmlns="http://www.w3.org/2000/svg" xmlns:xlink="http://www.w3.org/1999/xlink">
<g id="graph0" class="graph" transform="scale(1 1) rotate(0) translate(4 73)">
<title>Graphical Class Hierarchy</title>
<polygon fill="white" stroke="none" points="-4,4 -4,-73 344,-73 344,4 -4,4"/>
<!-- Node1 -->
<g id="node1" class="node"><title>Node1</title>
<g id="a_node1"><a xlink:href="d8/dd8/classcontroller_1_1_sim_generator.html" target="_top" xlink:title="controller.SimGenerator">
<polygon fill="white" stroke="black" points="0.5,-22.5 0.5,-41.5 131.5,-41.5 131.5,-22.5 0.5,-22.5"/>
<text text-anchor="middle" x="66" y="-29.5" font-family="Helvetica,sans-Serif" font-size="10.00">controller.SimGenerator</text>
</a>
</g>
</g>
<!-- Node2 -->
<g id="node2" class="node"><title>Node2</title>
<g id="a_node2"><a xlink:href="d3/dc8/classcontroller_1_1_probability_sim_generator.html" target="_top" xlink:title="controller.ProbabilitySim\lGenerator">
<polygon fill="white" stroke="black" points="188,-39 188,-69 320,-69 320,-39 188,-39"/>
<text text-anchor="start" x="196" y="-57" font-family="Helvetica,sans-Serif" font-size="10.00">controller.ProbabilitySim</text>
<text text-anchor="middle" x="254" y="-46" font-family="Helvetica,sans-Serif" font-size="10.00">Generator</text>
</a>
</g>
</g>
<!-- Node1&#45;&gt;Node2 -->
<g id="edge1" class="edge"><title>Node1&#45;&gt;Node2</title>
<path fill="none" stroke="midnightblue" d="M141.512,-40.8132C156.88,-42.631 172.951,-44.5319 187.952,-46.3062"/>
<polygon fill="midnightblue" stroke="midnightblue" points="141.874,-37.3317 131.532,-39.6328 141.051,-44.2833 141.874,-37.3317"/>
</g>
<!-- Node3 -->
<g id="node3" class="node"><title>Node3</title>
<g id="a_node3"><a xlink:href="d4/d2d/classcontroller_1_1_random_sim_generator.html" target="_top" xlink:title="controller.RandomSimGenerator">
<polygon fill="white" stroke="black" points="168.5,-0.5 168.5,-19.5 339.5,-19.5 339.5,-0.5 168.5,-0.5"/>
<text text-anchor="middle" x="254" y="-7.5" font-family="Helvetica,sans-Serif" font-size="10.00">controller.RandomSimGenerator</text>
</a>
</g>
</g>
<!-- Node1&#45;&gt;Node3 -->
<g id="edge2" class="edge"><title>Node1&#45;&gt;Node3</title>
<path fill="none" stroke="midnightblue" d="M141.587,-23.1778C151.764,-21.9741 162.247,-20.7342 172.523,-19.5188"/>
<polygon fill="midnightblue" stroke="midnightblue" points="141.051,-19.7167 131.532,-24.3672 141.874,-26.6683 141.051,-19.7167"/>
</g>
</g>
</svg>
