<?xml version="1.0" encoding="UTF-8" standalone="no"?>
<!DOCTYPE svg PUBLIC "-//W3C//DTD SVG 1.1//EN"
 "http://www.w3.org/Graphics/SVG/1.1/DTD/svg11.dtd">
<!-- Generated by graphviz version 2.36.0 (20140111.2315)
 -->
<!-- Title: controller.XMLParser.getGrid Pages: 1 -->
<svg width="1482pt" height="77pt"
 viewBox="0.00 0.00 1482.00 77.00" xmlns="http://www.w3.org/2000/svg" xmlns:xlink="http://www.w3.org/1999/xlink">
<g id="graph0" class="graph" transform="scale(1 1) rotate(0) translate(4 73)">
<title>controller.XMLParser.getGrid</title>
<polygon fill="white" stroke="none" points="-4,4 -4,-73 1478,-73 1478,4 -4,4"/>
<!-- Node1 -->
<g id="node1" class="node"><title>Node1</title>
<polygon fill="#bfbfbf" stroke="black" points="0.5,-27.5 0.5,-46.5 151.5,-46.5 151.5,-27.5 0.5,-27.5"/>
<text text-anchor="middle" x="76" y="-34.5" font-family="Helvetica,sans-Serif" font-size="10.00">controller.XMLParser.getGrid</text>
</g>
<!-- Node2 -->
<g id="node2" class="node"><title>Node2</title>
<g id="a_node2"><a xlink:href="../../d6/d7b/classcontroller_1_1_cell_society_controller.html#a643c7ac22f2822fa7e492dbf4267ed21" target="_top" xlink:title="controller.CellSocietyController.readXML">
<polygon fill="white" stroke="black" points="188,-27.5 188,-46.5 394,-46.5 394,-27.5 188,-27.5"/>
<text text-anchor="middle" x="291" y="-34.5" font-family="Helvetica,sans-Serif" font-size="10.00">controller.CellSocietyController.readXML</text>
</a>
</g>
</g>
<!-- Node1&#45;&gt;Node2 -->
<g id="edge1" class="edge"><title>Node1&#45;&gt;Node2</title>
<path fill="none" stroke="midnightblue" d="M162.003,-37C170.461,-37 179.106,-37 187.715,-37"/>
<polygon fill="midnightblue" stroke="midnightblue" points="161.796,-33.5001 151.796,-37 161.796,-40.5001 161.796,-33.5001"/>
</g>
<!-- Node3 -->
<g id="node3" class="node"><title>Node3</title>
<g id="a_node3"><a xlink:href="../../d6/d7b/classcontroller_1_1_cell_society_controller.html#afbdf9a63e15a2bfa878dcfe5ed3ef6dc" target="_top" xlink:title="controller.CellSocietyController.transition\lToFileLoaderScreen">
<polygon fill="white" stroke="black" points="430,-22 430,-52 640,-52 640,-22 430,-22"/>
<text text-anchor="start" x="438" y="-40" font-family="Helvetica,sans-Serif" font-size="10.00">controller.CellSocietyController.transition</text>
<text text-anchor="middle" x="535" y="-29" font-family="Helvetica,sans-Serif" font-size="10.00">ToFileLoaderScreen</text>
</a>
</g>
</g>
<!-- Node2&#45;&gt;Node3 -->
<g id="edge2" class="edge"><title>Node2&#45;&gt;Node3</title>
<path fill="none" stroke="midnightblue" d="M404.508,-30.2648C412.926,-30.2354 421.398,-30.2498 429.762,-30.3079"/>
<polygon fill="midnightblue" stroke="midnightblue" points="404.259,-26.766 394.279,-30.3223 404.299,-33.7659 404.259,-26.766"/>
</g>
<!-- Node3&#45;&gt;Node2 -->
<g id="edge9" class="edge"><title>Node3&#45;&gt;Node2</title>
<path fill="none" stroke="midnightblue" d="M419.517,-43.7413C411.092,-43.7638 402.625,-43.7426 394.279,-43.6777"/>
<polygon fill="midnightblue" stroke="midnightblue" points="419.779,-47.2402 429.762,-43.6921 419.745,-40.2403 419.779,-47.2402"/>
</g>
<!-- Node4 -->
<g id="node4" class="node"><title>Node4</title>
<g id="a_node4"><a xlink:href="../../d3/d48/classview_1_1_top_menu.html#af56bae78812baf114a9ed49ad52694df" target="_top" xlink:title="view.TopMenu.addLoadButton">
<polygon fill="white" stroke="black" points="676,-49.5 676,-68.5 834,-68.5 834,-49.5 676,-49.5"/>
<text text-anchor="middle" x="755" y="-56.5" font-family="Helvetica,sans-Serif" font-size="10.00">view.TopMenu.addLoadButton</text>
</a>
</g>
</g>
<!-- Node3&#45;&gt;Node4 -->
<g id="edge3" class="edge"><title>Node3&#45;&gt;Node4</title>
<path fill="none" stroke="midnightblue" d="M650.377,-48.5426C659.03,-49.4159 667.638,-50.2845 675.981,-51.1265"/>
<polygon fill="midnightblue" stroke="midnightblue" points="650.512,-45.0386 640.211,-47.5167 649.809,-52.0032 650.512,-45.0386"/>
</g>
<!-- Node6 -->
<g id="node6" class="node"><title>Node6</title>
<g id="a_node6"><a xlink:href="../../dd/d02/classview_1_1_splash_screen.html#a652092fc5c5862cee4ff84bf231646ab" target="_top" xlink:title="view.SplashScreen.addLoad\lButton">
<polygon fill="white" stroke="black" points="680.5,-0 680.5,-30 829.5,-30 829.5,-0 680.5,-0"/>
<text text-anchor="start" x="688.5" y="-18" font-family="Helvetica,sans-Serif" font-size="10.00">view.SplashScreen.addLoad</text>
<text text-anchor="middle" x="755" y="-7" font-family="Helvetica,sans-Serif" font-size="10.00">Button</text>
</a>
</g>
</g>
<!-- Node3&#45;&gt;Node6 -->
<g id="edge5" class="edge"><title>Node3&#45;&gt;Node6</title>
<path fill="none" stroke="midnightblue" d="M650.397,-25.4553C660.576,-24.4281 670.691,-23.4073 680.387,-22.4288"/>
<polygon fill="midnightblue" stroke="midnightblue" points="649.809,-21.9968 640.211,-26.4833 650.512,-28.9614 649.809,-21.9968"/>
</g>
<!-- Node5 -->
<g id="node5" class="node"><title>Node5</title>
<g id="a_node5"><a xlink:href="../../d3/d48/classview_1_1_top_menu.html#a4442589b1733d6ad662c92700f27018e" target="_top" xlink:title="view.TopMenu.createTopButtons">
<polygon fill="white" stroke="black" points="870,-49.5 870,-68.5 1038,-68.5 1038,-49.5 870,-49.5"/>
<text text-anchor="middle" x="954" y="-56.5" font-family="Helvetica,sans-Serif" font-size="10.00">view.TopMenu.createTopButtons</text>
</a>
</g>
</g>
<!-- Node4&#45;&gt;Node5 -->
<g id="edge4" class="edge"><title>Node4&#45;&gt;Node5</title>
<path fill="none" stroke="midnightblue" d="M844.38,-59C852.828,-59 861.376,-59 869.773,-59"/>
<polygon fill="midnightblue" stroke="midnightblue" points="844.143,-55.5001 834.143,-59 844.143,-62.5001 844.143,-55.5001"/>
</g>
<!-- Node7 -->
<g id="node7" class="node"><title>Node7</title>
<g id="a_node7"><a xlink:href="../../dd/d02/classview_1_1_splash_screen.html#a6ff42b7dad4e546981a3266f9d694f5a" target="_top" xlink:title="view.SplashScreen.getNode">
<polygon fill="white" stroke="black" points="879.5,-5.5 879.5,-24.5 1028.5,-24.5 1028.5,-5.5 879.5,-5.5"/>
<text text-anchor="middle" x="954" y="-12.5" font-family="Helvetica,sans-Serif" font-size="10.00">view.SplashScreen.getNode</text>
</a>
</g>
</g>
<!-- Node6&#45;&gt;Node7 -->
<g id="edge6" class="edge"><title>Node6&#45;&gt;Node7</title>
<path fill="none" stroke="midnightblue" d="M839.662,-15C852.889,-15 866.48,-15 879.454,-15"/>
<polygon fill="midnightblue" stroke="midnightblue" points="839.636,-11.5001 829.636,-15 839.636,-18.5001 839.636,-11.5001"/>
</g>
<!-- Node8 -->
<g id="node8" class="node"><title>Node8</title>
<g id="a_node8"><a xlink:href="../../d6/d7b/classcontroller_1_1_cell_society_controller.html#a3f78125e5b809d88d3cf7ed20b3756c2" target="_top" xlink:title="controller.CellSocietyController.display\lSplashScreen">
<polygon fill="white" stroke="black" points="1074,-0 1074,-30 1272,-30 1272,-0 1074,-0"/>
<text text-anchor="start" x="1082" y="-18" font-family="Helvetica,sans-Serif" font-size="10.00">controller.CellSocietyController.display</text>
<text text-anchor="middle" x="1173" y="-7" font-family="Helvetica,sans-Serif" font-size="10.00">SplashScreen</text>
</a>
</g>
</g>
<!-- Node7&#45;&gt;Node8 -->
<g id="edge7" class="edge"><title>Node7&#45;&gt;Node8</title>
<path fill="none" stroke="midnightblue" d="M1039.1,-15C1050.48,-15 1062.24,-15 1073.84,-15"/>
<polygon fill="midnightblue" stroke="midnightblue" points="1038.77,-11.5001 1028.77,-15 1038.77,-18.5001 1038.77,-11.5001"/>
</g>
<!-- Node9 -->
<g id="node9" class="node"><title>Node9</title>
<g id="a_node9"><a xlink:href="../../d6/d7b/classcontroller_1_1_cell_society_controller.html#a6a2310de67e415512149c94c9f36e356" target="_top" xlink:title="controller.CellSocietyController.\lCellSocietyController">
<polygon fill="white" stroke="black" points="1308.5,-0 1308.5,-30 1473.5,-30 1473.5,-0 1308.5,-0"/>
<text text-anchor="start" x="1316.5" y="-18" font-family="Helvetica,sans-Serif" font-size="10.00">controller.CellSocietyController.</text>
<text text-anchor="middle" x="1391" y="-7" font-family="Helvetica,sans-Serif" font-size="10.00">CellSocietyController</text>
</a>
</g>
</g>
<!-- Node8&#45;&gt;Node9 -->
<g id="edge8" class="edge"><title>Node8&#45;&gt;Node9</title>
<path fill="none" stroke="midnightblue" d="M1282.38,-15C1291.07,-15 1299.75,-15 1308.2,-15"/>
<polygon fill="midnightblue" stroke="midnightblue" points="1282.2,-11.5001 1272.2,-15 1282.2,-18.5001 1282.2,-11.5001"/>
</g>
</g>
</svg>
