<?xml version="1.0" encoding="UTF-8" standalone="no"?>
<!DOCTYPE svg PUBLIC "-//W3C//DTD SVG 1.1//EN"
 "http://www.w3.org/Graphics/SVG/1.1/DTD/svg11.dtd">
<!-- Generated by graphviz version 2.36.0 (20140111.2315)
 -->
<!-- Title: controller.XMLParser.createGrid Pages: 1 -->
<svg width="550pt" height="38pt"
 viewBox="0.00 0.00 550.00 38.00" xmlns="http://www.w3.org/2000/svg" xmlns:xlink="http://www.w3.org/1999/xlink">
<g id="graph0" class="graph" transform="scale(1 1) rotate(0) translate(4 34)">
<title>controller.XMLParser.createGrid</title>
<polygon fill="white" stroke="none" points="-4,4 -4,-34 546,-34 546,4 -4,4"/>
<!-- Node1 -->
<g id="node1" class="node"><title>Node1</title>
<polygon fill="#bfbfbf" stroke="black" points="0,-5.5 0,-24.5 166,-24.5 166,-5.5 0,-5.5"/>
<text text-anchor="middle" x="83" y="-12.5" font-family="Helvetica,sans-Serif" font-size="10.00">controller.XMLParser.createGrid</text>
</g>
<!-- Node2 -->
<g id="node2" class="node"><title>Node2</title>
<g id="a_node2"><a xlink:href="../../dc/d47/classcontroller_1_1_x_m_l_parser.html#a52c65552523ed5358e311b47a5c211f4" target="_top" xlink:title="controller.XMLParser.read\lSimFile">
<polygon fill="white" stroke="black" points="202.5,-0 202.5,-30 339.5,-30 339.5,-0 202.5,-0"/>
<text text-anchor="start" x="210.5" y="-18" font-family="Helvetica,sans-Serif" font-size="10.00">controller.XMLParser.read</text>
<text text-anchor="middle" x="271" y="-7" font-family="Helvetica,sans-Serif" font-size="10.00">SimFile</text>
</a>
</g>
</g>
<!-- Node1&#45;&gt;Node2 -->
<g id="edge1" class="edge"><title>Node1&#45;&gt;Node2</title>
<path fill="none" stroke="midnightblue" d="M176.346,-15C185.073,-15 193.807,-15 202.241,-15"/>
<polygon fill="midnightblue" stroke="midnightblue" points="176.124,-11.5001 166.124,-15 176.124,-18.5001 176.124,-11.5001"/>
</g>
<!-- Node3 -->
<g id="node3" class="node"><title>Node3</title>
<g id="a_node3"><a xlink:href="../../dc/d47/classcontroller_1_1_x_m_l_parser.html#a6513df7eb83a60a3a6f5ed3ef018de99" target="_top" xlink:title="controller.XMLParser.XMLParser">
<polygon fill="white" stroke="black" points="376.5,-5.5 376.5,-24.5 541.5,-24.5 541.5,-5.5 376.5,-5.5"/>
<text text-anchor="middle" x="459" y="-12.5" font-family="Helvetica,sans-Serif" font-size="10.00">controller.XMLParser.XMLParser</text>
</a>
</g>
</g>
<!-- Node2&#45;&gt;Node3 -->
<g id="edge2" class="edge"><title>Node2&#45;&gt;Node3</title>
<path fill="none" stroke="midnightblue" d="M349.879,-15C358.659,-15 367.623,-15 376.448,-15"/>
<polygon fill="midnightblue" stroke="midnightblue" points="349.676,-11.5001 339.676,-15 349.676,-18.5001 349.676,-11.5001"/>
</g>
</g>
</svg>
