<?xml version="1.0" encoding="UTF-8" standalone="no"?>
<!DOCTYPE svg PUBLIC "-//W3C//DTD SVG 1.1//EN"
 "http://www.w3.org/Graphics/SVG/1.1/DTD/svg11.dtd">
<!-- Generated by graphviz version 2.36.0 (20140111.2315)
 -->
<!-- Title: controller.XMLParser.XMLParser Pages: 1 -->
<!--zoomable 268 -->
<svg id="main" version="1.1" xmlns="http://www.w3.org/2000/svg" xmlns:xlink="http://www.w3.org/1999/xlink" xml:space="preserve" onload="init(evt)">
<style type="text/css"><![CDATA[
.edge:hover path { stroke: red; }
.edge:hover polygon { stroke: red; fill: red; }
]]></style>
<script type="text/javascript"><![CDATA[
var edges = document.getElementsByTagName('g');
if (edges && edges.length) {
  for (var i=0;i<edges.length;i++) {
    if (edges[i].id.substr(0,4)=='edge') {
      edges[i].setAttribute('class','edge');
    }
  }
}
]]></script>
        <defs>
                <circle id="rim" cx="0" cy="0" r="7"/>
                <circle id="rim2" cx="0" cy="0" r="3.5"/>
                <g id="zoomPlus">
                        <use xlink:href="#rim" fill="#404040">
                                <set attributeName="fill" to="#808080" begin="zoomplus.mouseover" end="zoomplus.mouseout"/>
                        </use>
                        <path d="M-4,0h8M0,-4v8" fill="none" stroke="white" stroke-width="1.5" pointer-events="none"/>
                </g>
                <g id="zoomMin">
                        <use xlink:href="#rim" fill="#404040">
                                <set attributeName="fill" to="#808080" begin="zoomminus.mouseover" end="zoomminus.mouseout"/>
                        </use>
                        <path d="M-4,0h8" fill="none" stroke="white" stroke-width="1.5" pointer-events="none"/>
                </g>
                <g id="dirArrow">
                        <path fill="none" stroke="white" stroke-width="1.5" d="M0,-3.0v7 M-2.5,-0.5L0,-3.0L2.5,-0.5"/>
                </g>
               <g id="resetDef">
                       <use xlink:href="#rim2" fill="#404040">
                               <set attributeName="fill" to="#808080" begin="reset.mouseover" end="reset.mouseout"/>
                       </use>
               </g>
        </defs>

<script type="text/javascript">
var viewWidth = 586;
var viewHeight = 268;
var sectionId = 'dynsection-1';
</script>
<script xlink:href="../../svgpan.js"/>
<svg id="graph" class="graph">
<g id="viewport">
<title>controller.XMLParser.XMLParser</title>
<polygon fill="white" stroke="none" points="-4,4 -4,-264 582,-264 582,4 -4,4"/>
<!-- Node1 -->
<g id="node1" class="node"><title>Node1</title>
<polygon fill="#bfbfbf" stroke="black" points="0.5,-153.5 0.5,-172.5 165.5,-172.5 165.5,-153.5 0.5,-153.5"/>
<text text-anchor="middle" x="83" y="-160.5" font-family="Helvetica,sans-Serif" font-size="10.00">controller.XMLParser.XMLParser</text>
</g>
<!-- Node2 -->
<g id="node2" class="node"><title>Node2</title>
<g id="a_node2"><a xlink:href="../../dc/d47/classcontroller_1_1_x_m_l_parser.html#a01b36d7e3c6b6f734ce62ab541b13f0e" target="_top" xlink:title="controller.XMLParser.check\lFileExtension">
<polygon fill="white" stroke="black" points="217.5,-230 217.5,-260 360.5,-260 360.5,-230 217.5,-230"/>
<text text-anchor="start" x="225.5" y="-248" font-family="Helvetica,sans-Serif" font-size="10.00">controller.XMLParser.check</text>
<text text-anchor="middle" x="289" y="-237" font-family="Helvetica,sans-Serif" font-size="10.00">FileExtension</text>
</a>
</g>
</g>
<!-- Node1&#45;&gt;Node2 -->
<g id="edge1" class="edge"><title>Node1&#45;&gt;Node2</title>
<path fill="none" stroke="midnightblue" d="M101.581,-172.643C124.284,-184.825 165.254,-205.897 202,-220 208.242,-222.396 214.813,-224.692 221.428,-226.854"/>
<polygon fill="midnightblue" stroke="midnightblue" points="220.525,-230.24 231.115,-229.923 222.639,-223.567 220.525,-230.24"/>
</g>
<!-- Node3 -->
<g id="node3" class="node"><title>Node3</title>
<g id="a_node3"><a xlink:href="../../dc/d47/classcontroller_1_1_x_m_l_parser.html#a2ebb90e28a0bcca8e9f7b812f8e9fb5c" target="_top" xlink:title="controller.XMLParser.clean">
<polygon fill="white" stroke="black" points="218.5,-191.5 218.5,-210.5 359.5,-210.5 359.5,-191.5 218.5,-191.5"/>
<text text-anchor="middle" x="289" y="-198.5" font-family="Helvetica,sans-Serif" font-size="10.00">controller.XMLParser.clean</text>
</a>
</g>
</g>
<!-- Node1&#45;&gt;Node3 -->
<g id="edge2" class="edge"><title>Node1&#45;&gt;Node3</title>
<path fill="none" stroke="midnightblue" d="M135.214,-172.54C162.981,-177.712 197.489,-184.14 226.681,-189.578"/>
<polygon fill="midnightblue" stroke="midnightblue" points="226.293,-193.066 236.764,-191.456 227.574,-186.184 226.293,-193.066"/>
</g>
<!-- Node4 -->
<g id="node4" class="node"><title>Node4</title>
<g id="a_node4"><a xlink:href="../../dc/d47/classcontroller_1_1_x_m_l_parser.html#a265f63f6abdc16ca80ac4a8a64d2b2d0" target="_top" xlink:title="controller.XMLParser.initializeDoc">
<polygon fill="white" stroke="black" points="202.5,-153.5 202.5,-172.5 375.5,-172.5 375.5,-153.5 202.5,-153.5"/>
<text text-anchor="middle" x="289" y="-160.5" font-family="Helvetica,sans-Serif" font-size="10.00">controller.XMLParser.initializeDoc</text>
</a>
</g>
</g>
<!-- Node1&#45;&gt;Node4 -->
<g id="edge3" class="edge"><title>Node1&#45;&gt;Node4</title>
<path fill="none" stroke="midnightblue" d="M165.506,-163C174.295,-163 183.296,-163 192.233,-163"/>
<polygon fill="midnightblue" stroke="midnightblue" points="192.281,-166.5 202.281,-163 192.281,-159.5 192.281,-166.5"/>
</g>
<!-- Node5 -->
<g id="node5" class="node"><title>Node5</title>
<g id="a_node5"><a xlink:href="../../dc/d47/classcontroller_1_1_x_m_l_parser.html#a52c65552523ed5358e311b47a5c211f4" target="_top" xlink:title="controller.XMLParser.read\lSimFile">
<polygon fill="white" stroke="black" points="220.5,-55 220.5,-85 357.5,-85 357.5,-55 220.5,-55"/>
<text text-anchor="start" x="228.5" y="-73" font-family="Helvetica,sans-Serif" font-size="10.00">controller.XMLParser.read</text>
<text text-anchor="middle" x="289" y="-62" font-family="Helvetica,sans-Serif" font-size="10.00">SimFile</text>
</a>
</g>
</g>
<!-- Node1&#45;&gt;Node5 -->
<g id="edge4" class="edge"><title>Node1&#45;&gt;Node5</title>
<path fill="none" stroke="midnightblue" d="M97.9555,-153.468C119.472,-139.123 162.412,-111.87 202,-95 207.498,-92.657 213.284,-90.454 219.147,-88.4017"/>
<polygon fill="midnightblue" stroke="midnightblue" points="220.675,-91.5813 229.05,-85.0922 218.457,-84.9423 220.675,-91.5813"/>
</g>
<!-- Node10 -->
<g id="node10" class="node"><title>Node10</title>
<g id="a_node10"><a xlink:href="../../dc/d47/classcontroller_1_1_x_m_l_parser.html#a2667f66c4fab0628e38356255e983ce6" target="_top" xlink:title="controller.XMLParser.read\lStyleFile">
<polygon fill="white" stroke="black" points="220.5,-104 220.5,-134 357.5,-134 357.5,-104 220.5,-104"/>
<text text-anchor="start" x="228.5" y="-122" font-family="Helvetica,sans-Serif" font-size="10.00">controller.XMLParser.read</text>
<text text-anchor="middle" x="289" y="-111" font-family="Helvetica,sans-Serif" font-size="10.00">StyleFile</text>
</a>
</g>
</g>
<!-- Node1&#45;&gt;Node10 -->
<g id="edge9" class="edge"><title>Node1&#45;&gt;Node10</title>
<path fill="none" stroke="midnightblue" d="M128.265,-153.453C152.165,-148.298 182.371,-141.783 210.066,-135.809"/>
<polygon fill="midnightblue" stroke="midnightblue" points="211.102,-139.166 220.14,-133.637 209.626,-132.324 211.102,-139.166"/>
</g>
<!-- Node6 -->
<g id="node6" class="node"><title>Node6</title>
<g id="a_node6"><a xlink:href="../../dc/d47/classcontroller_1_1_x_m_l_parser.html#af39d761c375e7381ce78fb5069f2209c" target="_top" xlink:title="controller.XMLParser.initialize\lNodeList">
<polygon fill="white" stroke="black" points="418,-126 418,-156 572,-156 572,-126 418,-126"/>
<text text-anchor="start" x="426" y="-144" font-family="Helvetica,sans-Serif" font-size="10.00">controller.XMLParser.initialize</text>
<text text-anchor="middle" x="495" y="-133" font-family="Helvetica,sans-Serif" font-size="10.00">NodeList</text>
</a>
</g>
</g>
<!-- Node5&#45;&gt;Node6 -->
<g id="edge5" class="edge"><title>Node5&#45;&gt;Node6</title>
<path fill="none" stroke="midnightblue" d="M348.967,-85.0523C358.149,-87.9916 367.427,-91.32 376,-95 393.021,-102.307 395.027,-108.582 412,-116 417.329,-118.329 422.942,-120.529 428.628,-122.586"/>
<polygon fill="midnightblue" stroke="midnightblue" points="427.634,-125.946 438.229,-125.91 429.924,-119.331 427.634,-125.946"/>
</g>
<!-- Node7 -->
<g id="node7" class="node"><title>Node7</title>
<g id="a_node7"><a xlink:href="../../dc/d47/classcontroller_1_1_x_m_l_parser.html#a3d671c7e6a166fb5915eb6277f6a94c3" target="_top" xlink:title="controller.XMLParser.read\lParameters">
<polygon fill="white" stroke="black" points="426.5,-77 426.5,-107 563.5,-107 563.5,-77 426.5,-77"/>
<text text-anchor="start" x="434.5" y="-95" font-family="Helvetica,sans-Serif" font-size="10.00">controller.XMLParser.read</text>
<text text-anchor="middle" x="495" y="-84" font-family="Helvetica,sans-Serif" font-size="10.00">Parameters</text>
</a>
</g>
</g>
<!-- Node5&#45;&gt;Node7 -->
<g id="edge6" class="edge"><title>Node5&#45;&gt;Node7</title>
<path fill="none" stroke="midnightblue" d="M357.646,-77.2951C376.411,-79.3188 396.933,-81.532 416.227,-83.6128"/>
<polygon fill="midnightblue" stroke="midnightblue" points="415.872,-87.0946 426.189,-84.6871 416.622,-80.135 415.872,-87.0946"/>
</g>
<!-- Node8 -->
<g id="node8" class="node"><title>Node8</title>
<g id="a_node8"><a xlink:href="../../dc/d47/classcontroller_1_1_x_m_l_parser.html#ae0d3afc18158ee3e58343da494e5aae3" target="_top" xlink:title="controller.XMLParser.createGrid">
<polygon fill="white" stroke="black" points="412,-38.5 412,-57.5 578,-57.5 578,-38.5 412,-38.5"/>
<text text-anchor="middle" x="495" y="-45.5" font-family="Helvetica,sans-Serif" font-size="10.00">controller.XMLParser.createGrid</text>
</a>
</g>
</g>
<!-- Node5&#45;&gt;Node8 -->
<g id="edge7" class="edge"><title>Node5&#45;&gt;Node8</title>
<path fill="none" stroke="midnightblue" d="M357.646,-62.7049C371.781,-61.1805 386.913,-59.5486 401.766,-57.9468"/>
<polygon fill="midnightblue" stroke="midnightblue" points="402.422,-61.3965 411.989,-56.8444 401.671,-54.4368 402.422,-61.3965"/>
</g>
<!-- Node9 -->
<g id="node9" class="node"><title>Node9</title>
<g id="a_node9"><a xlink:href="../../dc/d47/classcontroller_1_1_x_m_l_parser.html#a89a2937a35436ef062ef6a5184cad868" target="_top" xlink:title="controller.XMLParser.readGrid">
<polygon fill="white" stroke="black" points="416.5,-0.5 416.5,-19.5 573.5,-19.5 573.5,-0.5 416.5,-0.5"/>
<text text-anchor="middle" x="495" y="-7.5" font-family="Helvetica,sans-Serif" font-size="10.00">controller.XMLParser.readGrid</text>
</a>
</g>
</g>
<!-- Node5&#45;&gt;Node9 -->
<g id="edge8" class="edge"><title>Node5&#45;&gt;Node9</title>
<path fill="none" stroke="midnightblue" d="M331.473,-54.9539C354.933,-46.7229 384.911,-36.6709 412,-29 420.777,-26.5147 430.149,-24.1117 439.304,-21.8987"/>
<polygon fill="midnightblue" stroke="midnightblue" points="440.189,-25.2859 449.114,-19.577 438.577,-18.474 440.189,-25.2859"/>
</g>
<!-- Node10&#45;&gt;Node6 -->
<g id="edge10" class="edge"><title>Node10&#45;&gt;Node6</title>
<path fill="none" stroke="midnightblue" d="M357.646,-126.295C373.59,-128.015 390.801,-129.871 407.451,-131.666"/>
<polygon fill="midnightblue" stroke="midnightblue" points="407.411,-135.182 417.729,-132.775 408.162,-128.223 407.411,-135.182"/>
</g>
<!-- Node10&#45;&gt;Node7 -->
<g id="edge11" class="edge"><title>Node10&#45;&gt;Node7</title>
<path fill="none" stroke="midnightblue" d="M357.646,-110.047C376.411,-107.563 396.933,-104.847 416.227,-102.293"/>
<polygon fill="midnightblue" stroke="midnightblue" points="416.735,-105.757 426.189,-100.975 415.817,-98.8174 416.735,-105.757"/>
</g>
</g>
</svg>
        <g id="navigator" transform="translate(0 0)" fill="#404254">
                <rect fill="#f2f5e9" fill-opacity="0.5" stroke="#606060" stroke-width=".5" x="0" y="0" width="60" height="60"/>
                <use id="zoomplus" xlink:href="#zoomPlus" x="17" y="9" onmousedown="handleZoom(evt,'in')"/>
                <use id="zoomminus" xlink:href="#zoomMin" x="42" y="9" onmousedown="handleZoom(evt,'out')"/>
                <use id="reset" xlink:href="#resetDef" x="30" y="36" onmousedown="handleReset()"/>
                <g id="arrowUp" xlink:href="#dirArrow" transform="translate(30 24)" onmousedown="handlePan(0,-1)">
                  <use xlink:href="#rim" fill="#404040">
                        <set attributeName="fill" to="#808080" begin="arrowUp.mouseover" end="arrowUp.mouseout"/>
                  </use>
                  <path fill="none" stroke="white" stroke-width="1.5" d="M0,-3.0v7 M-2.5,-0.5L0,-3.0L2.5,-0.5"/>
                </g>
                <g id="arrowRight" xlink:href="#dirArrow" transform="rotate(90) translate(36 -43)" onmousedown="handlePan(1,0)">
                  <use xlink:href="#rim" fill="#404040">
                        <set attributeName="fill" to="#808080" begin="arrowRight.mouseover" end="arrowRight.mouseout"/>
                  </use>
                  <path fill="none" stroke="white" stroke-width="1.5" d="M0,-3.0v7 M-2.5,-0.5L0,-3.0L2.5,-0.5"/>
                </g>
                <g id="arrowDown" xlink:href="#dirArrow" transform="rotate(180) translate(-30 -48)" onmousedown="handlePan(0,1)">
                  <use xlink:href="#rim" fill="#404040">
                        <set attributeName="fill" to="#808080" begin="arrowDown.mouseover" end="arrowDown.mouseout"/>
                  </use>
                  <path fill="none" stroke="white" stroke-width="1.5" d="M0,-3.0v7 M-2.5,-0.5L0,-3.0L2.5,-0.5"/>
                </g>
                <g id="arrowLeft" xlink:href="#dirArrow" transform="rotate(270) translate(-36 17)" onmousedown="handlePan(-1,0)">
                  <use xlink:href="#rim" fill="#404040">
                        <set attributeName="fill" to="#808080" begin="arrowLeft.mouseover" end="arrowLeft.mouseout"/>
                  </use>
                  <path fill="none" stroke="white" stroke-width="1.5" d="M0,-3.0v7 M-2.5,-0.5L0,-3.0L2.5,-0.5"/>
                </g>
        </g>
        <svg viewBox="0 0 15 15" width="100%" height="30px" preserveAspectRatio="xMaxYMin meet">
         <g id="arrow_out" transform="scale(0.3 0.3)">
          <a xlink:href="classcontroller_1_1_x_m_l_parser_a6513df7eb83a60a3a6f5ed3ef018de99_cgraph_org.svg" target="_base">
           <rect id="button" ry="5" rx="5" y="6" x="6" height="38" width="38"
                fill="#f2f5e9" fill-opacity="0.5" stroke="#606060" stroke-width="1.0"/>
           <path id="arrow"
             d="M 11.500037,31.436501 C 11.940474,20.09759 22.043105,11.32322 32.158766,21.979434 L 37.068811,17.246167 C 37.068811,17.246167 37.088388,32 37.088388,32 L 22.160133,31.978069 C 22.160133,31.978069 26.997745,27.140456 26.997745,27.140456 C 18.528582,18.264221 13.291696,25.230495 11.500037,31.436501 z"
             style="fill:#404040;"/>
          </a>
         </g>
        </svg>
</svg>
