<?xml version="1.0" encoding="UTF-8" standalone="no"?>
<!DOCTYPE svg PUBLIC "-//W3C//DTD SVG 1.1//EN"
 "http://www.w3.org/Graphics/SVG/1.1/DTD/svg11.dtd">
<!-- Generated by graphviz version 2.36.0 (20140111.2315)
 -->
<!-- Title: controller.XMLParser.readGrid Pages: 1 -->
<svg width="542pt" height="38pt"
 viewBox="0.00 0.00 542.00 38.00" xmlns="http://www.w3.org/2000/svg" xmlns:xlink="http://www.w3.org/1999/xlink">
<g id="graph0" class="graph" transform="scale(1 1) rotate(0) translate(4 34)">
<title>controller.XMLParser.readGrid</title>
<polygon fill="white" stroke="none" points="-4,4 -4,-34 538,-34 538,4 -4,4"/>
<!-- Node1 -->
<g id="node1" class="node"><title>Node1</title>
<polygon fill="#bfbfbf" stroke="black" points="0.5,-5.5 0.5,-24.5 157.5,-24.5 157.5,-5.5 0.5,-5.5"/>
<text text-anchor="middle" x="79" y="-12.5" font-family="Helvetica,sans-Serif" font-size="10.00">controller.XMLParser.readGrid</text>
</g>
<!-- Node2 -->
<g id="node2" class="node"><title>Node2</title>
<g id="a_node2"><a xlink:href="../../dc/d47/classcontroller_1_1_x_m_l_parser.html#a52c65552523ed5358e311b47a5c211f4" target="_top" xlink:title="controller.XMLParser.read\lSimFile">
<polygon fill="white" stroke="black" points="194.5,-0 194.5,-30 331.5,-30 331.5,-0 194.5,-0"/>
<text text-anchor="start" x="202.5" y="-18" font-family="Helvetica,sans-Serif" font-size="10.00">controller.XMLParser.read</text>
<text text-anchor="middle" x="263" y="-7" font-family="Helvetica,sans-Serif" font-size="10.00">SimFile</text>
</a>
</g>
</g>
<!-- Node1&#45;&gt;Node2 -->
<g id="edge1" class="edge"><title>Node1&#45;&gt;Node2</title>
<path fill="none" stroke="midnightblue" d="M167.753,-15C176.678,-15 185.644,-15 194.309,-15"/>
<polygon fill="midnightblue" stroke="midnightblue" points="167.712,-11.5001 157.712,-15 167.712,-18.5001 167.712,-11.5001"/>
</g>
<!-- Node3 -->
<g id="node3" class="node"><title>Node3</title>
<g id="a_node3"><a xlink:href="../../dc/d47/classcontroller_1_1_x_m_l_parser.html#a6513df7eb83a60a3a6f5ed3ef018de99" target="_top" xlink:title="controller.XMLParser.XMLParser">
<polygon fill="white" stroke="black" points="368.5,-5.5 368.5,-24.5 533.5,-24.5 533.5,-5.5 368.5,-5.5"/>
<text text-anchor="middle" x="451" y="-12.5" font-family="Helvetica,sans-Serif" font-size="10.00">controller.XMLParser.XMLParser</text>
</a>
</g>
</g>
<!-- Node2&#45;&gt;Node3 -->
<g id="edge2" class="edge"><title>Node2&#45;&gt;Node3</title>
<path fill="none" stroke="midnightblue" d="M341.879,-15C350.659,-15 359.623,-15 368.448,-15"/>
<polygon fill="midnightblue" stroke="midnightblue" points="341.676,-11.5001 331.676,-15 341.676,-18.5001 341.676,-11.5001"/>
</g>
</g>
</svg>
