<?xml version="1.0" encoding="UTF-8" standalone="no"?>
<!DOCTYPE svg PUBLIC "-//W3C//DTD SVG 1.1//EN"
 "http://www.w3.org/Graphics/SVG/1.1/DTD/svg11.dtd">
<!-- Generated by graphviz version 2.36.0 (20140111.2315)
 -->
<!-- Title: controller.XMLParser.getParameters Pages: 1 -->
<!--zoomable 77 -->
<svg id="main" version="1.1" xmlns="http://www.w3.org/2000/svg" xmlns:xlink="http://www.w3.org/1999/xlink" xml:space="preserve" onload="init(evt)">
<style type="text/css"><![CDATA[
.edge:hover path { stroke: red; }
.edge:hover polygon { stroke: red; fill: red; }
]]></style>
<script type="text/javascript"><![CDATA[
var edges = document.getElementsByTagName('g');
if (edges && edges.length) {
  for (var i=0;i<edges.length;i++) {
    if (edges[i].id.substr(0,4)=='edge') {
      edges[i].setAttribute('class','edge');
    }
  }
}
]]></script>
        <defs>
                <circle id="rim" cx="0" cy="0" r="7"/>
                <circle id="rim2" cx="0" cy="0" r="3.5"/>
                <g id="zoomPlus">
                        <use xlink:href="#rim" fill="#404040">
                                <set attributeName="fill" to="#808080" begin="zoomplus.mouseover" end="zoomplus.mouseout"/>
                        </use>
                        <path d="M-4,0h8M0,-4v8" fill="none" stroke="white" stroke-width="1.5" pointer-events="none"/>
                </g>
                <g id="zoomMin">
                        <use xlink:href="#rim" fill="#404040">
                                <set attributeName="fill" to="#808080" begin="zoomminus.mouseover" end="zoomminus.mouseout"/>
                        </use>
                        <path d="M-4,0h8" fill="none" stroke="white" stroke-width="1.5" pointer-events="none"/>
                </g>
                <g id="dirArrow">
                        <path fill="none" stroke="white" stroke-width="1.5" d="M0,-3.0v7 M-2.5,-0.5L0,-3.0L2.5,-0.5"/>
                </g>
               <g id="resetDef">
                       <use xlink:href="#rim2" fill="#404040">
                               <set attributeName="fill" to="#808080" begin="reset.mouseover" end="reset.mouseout"/>
                       </use>
               </g>
        </defs>

<script type="text/javascript">
var viewWidth = 1462;
var viewHeight = 77;
var sectionId = 'dynsection-6';
</script>
<script xlink:href="../../svgpan.js"/>
<svg id="graph" class="graph">
<g id="viewport">
<title>controller.XMLParser.getParameters</title>
<polygon fill="white" stroke="none" points="-4,4 -4,-73 1458,-73 1458,4 -4,4"/>
<!-- Node1 -->
<g id="node1" class="node"><title>Node1</title>
<polygon fill="#bfbfbf" stroke="black" points="0.5,-22 0.5,-52 131.5,-52 131.5,-22 0.5,-22"/>
<text text-anchor="start" x="8.5" y="-40" font-family="Helvetica,sans-Serif" font-size="10.00">controller.XMLParser.get</text>
<text text-anchor="middle" x="66" y="-29" font-family="Helvetica,sans-Serif" font-size="10.00">Parameters</text>
</g>
<!-- Node2 -->
<g id="node2" class="node"><title>Node2</title>
<g id="a_node2"><a xlink:href="../../d6/d7b/classcontroller_1_1_cell_society_controller.html#a643c7ac22f2822fa7e492dbf4267ed21" target="_top" xlink:title="controller.CellSocietyController.readXML">
<polygon fill="white" stroke="black" points="168,-27.5 168,-46.5 374,-46.5 374,-27.5 168,-27.5"/>
<text text-anchor="middle" x="271" y="-34.5" font-family="Helvetica,sans-Serif" font-size="10.00">controller.CellSocietyController.readXML</text>
</a>
</g>
</g>
<!-- Node1&#45;&gt;Node2 -->
<g id="edge1" class="edge"><title>Node1&#45;&gt;Node2</title>
<path fill="none" stroke="midnightblue" d="M141.747,-37C150.264,-37 159.053,-37 167.847,-37"/>
<polygon fill="midnightblue" stroke="midnightblue" points="141.509,-33.5001 131.509,-37 141.509,-40.5001 141.509,-33.5001"/>
</g>
<!-- Node3 -->
<g id="node3" class="node"><title>Node3</title>
<g id="a_node3"><a xlink:href="../../d6/d7b/classcontroller_1_1_cell_society_controller.html#afbdf9a63e15a2bfa878dcfe5ed3ef6dc" target="_top" xlink:title="controller.CellSocietyController.transition\lToFileLoaderScreen">
<polygon fill="white" stroke="black" points="410,-22 410,-52 620,-52 620,-22 410,-22"/>
<text text-anchor="start" x="418" y="-40" font-family="Helvetica,sans-Serif" font-size="10.00">controller.CellSocietyController.transition</text>
<text text-anchor="middle" x="515" y="-29" font-family="Helvetica,sans-Serif" font-size="10.00">ToFileLoaderScreen</text>
</a>
</g>
</g>
<!-- Node2&#45;&gt;Node3 -->
<g id="edge2" class="edge"><title>Node2&#45;&gt;Node3</title>
<path fill="none" stroke="midnightblue" d="M384.508,-30.2648C392.926,-30.2354 401.398,-30.2498 409.762,-30.3079"/>
<polygon fill="midnightblue" stroke="midnightblue" points="384.259,-26.766 374.279,-30.3223 384.299,-33.7659 384.259,-26.766"/>
</g>
<!-- Node3&#45;&gt;Node2 -->
<g id="edge9" class="edge"><title>Node3&#45;&gt;Node2</title>
<path fill="none" stroke="midnightblue" d="M399.517,-43.7413C391.092,-43.7638 382.625,-43.7426 374.279,-43.6777"/>
<polygon fill="midnightblue" stroke="midnightblue" points="399.779,-47.2402 409.762,-43.6921 399.745,-40.2403 399.779,-47.2402"/>
</g>
<!-- Node4 -->
<g id="node4" class="node"><title>Node4</title>
<g id="a_node4"><a xlink:href="../../d3/d48/classview_1_1_top_menu.html#af56bae78812baf114a9ed49ad52694df" target="_top" xlink:title="view.TopMenu.addLoadButton">
<polygon fill="white" stroke="black" points="656,-49.5 656,-68.5 814,-68.5 814,-49.5 656,-49.5"/>
<text text-anchor="middle" x="735" y="-56.5" font-family="Helvetica,sans-Serif" font-size="10.00">view.TopMenu.addLoadButton</text>
</a>
</g>
</g>
<!-- Node3&#45;&gt;Node4 -->
<g id="edge3" class="edge"><title>Node3&#45;&gt;Node4</title>
<path fill="none" stroke="midnightblue" d="M630.377,-48.5426C639.03,-49.4159 647.638,-50.2845 655.981,-51.1265"/>
<polygon fill="midnightblue" stroke="midnightblue" points="630.512,-45.0386 620.211,-47.5167 629.809,-52.0032 630.512,-45.0386"/>
</g>
<!-- Node6 -->
<g id="node6" class="node"><title>Node6</title>
<g id="a_node6"><a xlink:href="../../dd/d02/classview_1_1_splash_screen.html#a652092fc5c5862cee4ff84bf231646ab" target="_top" xlink:title="view.SplashScreen.addLoad\lButton">
<polygon fill="white" stroke="black" points="660.5,-0 660.5,-30 809.5,-30 809.5,-0 660.5,-0"/>
<text text-anchor="start" x="668.5" y="-18" font-family="Helvetica,sans-Serif" font-size="10.00">view.SplashScreen.addLoad</text>
<text text-anchor="middle" x="735" y="-7" font-family="Helvetica,sans-Serif" font-size="10.00">Button</text>
</a>
</g>
</g>
<!-- Node3&#45;&gt;Node6 -->
<g id="edge5" class="edge"><title>Node3&#45;&gt;Node6</title>
<path fill="none" stroke="midnightblue" d="M630.397,-25.4553C640.576,-24.4281 650.691,-23.4073 660.387,-22.4288"/>
<polygon fill="midnightblue" stroke="midnightblue" points="629.809,-21.9968 620.211,-26.4833 630.512,-28.9614 629.809,-21.9968"/>
</g>
<!-- Node5 -->
<g id="node5" class="node"><title>Node5</title>
<g id="a_node5"><a xlink:href="../../d3/d48/classview_1_1_top_menu.html#a4442589b1733d6ad662c92700f27018e" target="_top" xlink:title="view.TopMenu.createTopButtons">
<polygon fill="white" stroke="black" points="850,-49.5 850,-68.5 1018,-68.5 1018,-49.5 850,-49.5"/>
<text text-anchor="middle" x="934" y="-56.5" font-family="Helvetica,sans-Serif" font-size="10.00">view.TopMenu.createTopButtons</text>
</a>
</g>
</g>
<!-- Node4&#45;&gt;Node5 -->
<g id="edge4" class="edge"><title>Node4&#45;&gt;Node5</title>
<path fill="none" stroke="midnightblue" d="M824.38,-59C832.828,-59 841.376,-59 849.773,-59"/>
<polygon fill="midnightblue" stroke="midnightblue" points="824.143,-55.5001 814.143,-59 824.143,-62.5001 824.143,-55.5001"/>
</g>
<!-- Node7 -->
<g id="node7" class="node"><title>Node7</title>
<g id="a_node7"><a xlink:href="../../dd/d02/classview_1_1_splash_screen.html#a6ff42b7dad4e546981a3266f9d694f5a" target="_top" xlink:title="view.SplashScreen.getNode">
<polygon fill="white" stroke="black" points="859.5,-5.5 859.5,-24.5 1008.5,-24.5 1008.5,-5.5 859.5,-5.5"/>
<text text-anchor="middle" x="934" y="-12.5" font-family="Helvetica,sans-Serif" font-size="10.00">view.SplashScreen.getNode</text>
</a>
</g>
</g>
<!-- Node6&#45;&gt;Node7 -->
<g id="edge6" class="edge"><title>Node6&#45;&gt;Node7</title>
<path fill="none" stroke="midnightblue" d="M819.662,-15C832.889,-15 846.48,-15 859.454,-15"/>
<polygon fill="midnightblue" stroke="midnightblue" points="819.636,-11.5001 809.636,-15 819.636,-18.5001 819.636,-11.5001"/>
</g>
<!-- Node8 -->
<g id="node8" class="node"><title>Node8</title>
<g id="a_node8"><a xlink:href="../../d6/d7b/classcontroller_1_1_cell_society_controller.html#a3f78125e5b809d88d3cf7ed20b3756c2" target="_top" xlink:title="controller.CellSocietyController.display\lSplashScreen">
<polygon fill="white" stroke="black" points="1054,-0 1054,-30 1252,-30 1252,-0 1054,-0"/>
<text text-anchor="start" x="1062" y="-18" font-family="Helvetica,sans-Serif" font-size="10.00">controller.CellSocietyController.display</text>
<text text-anchor="middle" x="1153" y="-7" font-family="Helvetica,sans-Serif" font-size="10.00">SplashScreen</text>
</a>
</g>
</g>
<!-- Node7&#45;&gt;Node8 -->
<g id="edge7" class="edge"><title>Node7&#45;&gt;Node8</title>
<path fill="none" stroke="midnightblue" d="M1019.1,-15C1030.48,-15 1042.24,-15 1053.84,-15"/>
<polygon fill="midnightblue" stroke="midnightblue" points="1018.77,-11.5001 1008.77,-15 1018.77,-18.5001 1018.77,-11.5001"/>
</g>
<!-- Node9 -->
<g id="node9" class="node"><title>Node9</title>
<g id="a_node9"><a xlink:href="../../d6/d7b/classcontroller_1_1_cell_society_controller.html#a6a2310de67e415512149c94c9f36e356" target="_top" xlink:title="controller.CellSocietyController.\lCellSocietyController">
<polygon fill="white" stroke="black" points="1288.5,-0 1288.5,-30 1453.5,-30 1453.5,-0 1288.5,-0"/>
<text text-anchor="start" x="1296.5" y="-18" font-family="Helvetica,sans-Serif" font-size="10.00">controller.CellSocietyController.</text>
<text text-anchor="middle" x="1371" y="-7" font-family="Helvetica,sans-Serif" font-size="10.00">CellSocietyController</text>
</a>
</g>
</g>
<!-- Node8&#45;&gt;Node9 -->
<g id="edge8" class="edge"><title>Node8&#45;&gt;Node9</title>
<path fill="none" stroke="midnightblue" d="M1262.38,-15C1271.07,-15 1279.75,-15 1288.2,-15"/>
<polygon fill="midnightblue" stroke="midnightblue" points="1262.2,-11.5001 1252.2,-15 1262.2,-18.5001 1262.2,-11.5001"/>
</g>
</g>
</svg>
        <g id="navigator" transform="translate(0 0)" fill="#404254">
                <rect fill="#f2f5e9" fill-opacity="0.5" stroke="#606060" stroke-width=".5" x="0" y="0" width="60" height="60"/>
                <use id="zoomplus" xlink:href="#zoomPlus" x="17" y="9" onmousedown="handleZoom(evt,'in')"/>
                <use id="zoomminus" xlink:href="#zoomMin" x="42" y="9" onmousedown="handleZoom(evt,'out')"/>
                <use id="reset" xlink:href="#resetDef" x="30" y="36" onmousedown="handleReset()"/>
                <g id="arrowUp" xlink:href="#dirArrow" transform="translate(30 24)" onmousedown="handlePan(0,-1)">
                  <use xlink:href="#rim" fill="#404040">
                        <set attributeName="fill" to="#808080" begin="arrowUp.mouseover" end="arrowUp.mouseout"/>
                  </use>
                  <path fill="none" stroke="white" stroke-width="1.5" d="M0,-3.0v7 M-2.5,-0.5L0,-3.0L2.5,-0.5"/>
                </g>
                <g id="arrowRight" xlink:href="#dirArrow" transform="rotate(90) translate(36 -43)" onmousedown="handlePan(1,0)">
                  <use xlink:href="#rim" fill="#404040">
                        <set attributeName="fill" to="#808080" begin="arrowRight.mouseover" end="arrowRight.mouseout"/>
                  </use>
                  <path fill="none" stroke="white" stroke-width="1.5" d="M0,-3.0v7 M-2.5,-0.5L0,-3.0L2.5,-0.5"/>
                </g>
                <g id="arrowDown" xlink:href="#dirArrow" transform="rotate(180) translate(-30 -48)" onmousedown="handlePan(0,1)">
                  <use xlink:href="#rim" fill="#404040">
                        <set attributeName="fill" to="#808080" begin="arrowDown.mouseover" end="arrowDown.mouseout"/>
                  </use>
                  <path fill="none" stroke="white" stroke-width="1.5" d="M0,-3.0v7 M-2.5,-0.5L0,-3.0L2.5,-0.5"/>
                </g>
                <g id="arrowLeft" xlink:href="#dirArrow" transform="rotate(270) translate(-36 17)" onmousedown="handlePan(-1,0)">
                  <use xlink:href="#rim" fill="#404040">
                        <set attributeName="fill" to="#808080" begin="arrowLeft.mouseover" end="arrowLeft.mouseout"/>
                  </use>
                  <path fill="none" stroke="white" stroke-width="1.5" d="M0,-3.0v7 M-2.5,-0.5L0,-3.0L2.5,-0.5"/>
                </g>
        </g>
        <svg viewBox="0 0 15 15" width="100%" height="30px" preserveAspectRatio="xMaxYMin meet">
         <g id="arrow_out" transform="scale(0.3 0.3)">
          <a xlink:href="classcontroller_1_1_x_m_l_parser_a0ebd2f6df311d0e2f9f0cd7969ecbe73_icgraph_org.svg" target="_base">
           <rect id="button" ry="5" rx="5" y="6" x="6" height="38" width="38"
                fill="#f2f5e9" fill-opacity="0.5" stroke="#606060" stroke-width="1.0"/>
           <path id="arrow"
             d="M 11.500037,31.436501 C 11.940474,20.09759 22.043105,11.32322 32.158766,21.979434 L 37.068811,17.246167 C 37.068811,17.246167 37.088388,32 37.088388,32 L 22.160133,31.978069 C 22.160133,31.978069 26.997745,27.140456 26.997745,27.140456 C 18.528582,18.264221 13.291696,25.230495 11.500037,31.436501 z"
             style="fill:#404040;"/>
          </a>
         </g>
        </svg>
</svg>
