<?xml version="1.0" encoding="UTF-8" standalone="no"?>
<!DOCTYPE svg PUBLIC "-//W3C//DTD SVG 1.1//EN"
 "http://www.w3.org/Graphics/SVG/1.1/DTD/svg11.dtd">
<!-- Generated by graphviz version 2.36.0 (20140111.2315)
 -->
<!-- Title: controller.XMLParser.readSimFile Pages: 1 -->
<svg width="348pt" height="165pt"
 viewBox="0.00 0.00 348.00 165.00" xmlns="http://www.w3.org/2000/svg" xmlns:xlink="http://www.w3.org/1999/xlink">
<g id="graph0" class="graph" transform="scale(1 1) rotate(0) translate(4 161)">
<title>controller.XMLParser.readSimFile</title>
<polygon fill="white" stroke="none" points="-4,4 -4,-161 344,-161 344,4 -4,4"/>
<!-- Node1 -->
<g id="node1" class="node"><title>Node1</title>
<polygon fill="#bfbfbf" stroke="black" points="0.5,-66 0.5,-96 137.5,-96 137.5,-66 0.5,-66"/>
<text text-anchor="start" x="8.5" y="-84" font-family="Helvetica,sans-Serif" font-size="10.00">controller.XMLParser.read</text>
<text text-anchor="middle" x="69" y="-73" font-family="Helvetica,sans-Serif" font-size="10.00">SimFile</text>
</g>
<!-- Node2 -->
<g id="node2" class="node"><title>Node2</title>
<g id="a_node2"><a xlink:href="../../dc/d47/classcontroller_1_1_x_m_l_parser.html#ae0d3afc18158ee3e58343da494e5aae3" target="_top" xlink:title="controller.XMLParser.createGrid">
<polygon fill="white" stroke="black" points="174,-137.5 174,-156.5 340,-156.5 340,-137.5 174,-137.5"/>
<text text-anchor="middle" x="257" y="-144.5" font-family="Helvetica,sans-Serif" font-size="10.00">controller.XMLParser.createGrid</text>
</a>
</g>
</g>
<!-- Node1&#45;&gt;Node2 -->
<g id="edge1" class="edge"><title>Node1&#45;&gt;Node2</title>
<path fill="none" stroke="midnightblue" d="M100.375,-96.1475C120.817,-105.912 148.58,-118.354 174,-127 182.467,-129.88 191.557,-132.523 200.493,-134.879"/>
<polygon fill="midnightblue" stroke="midnightblue" points="199.92,-138.345 210.474,-137.414 201.643,-131.56 199.92,-138.345"/>
</g>
<!-- Node3 -->
<g id="node3" class="node"><title>Node3</title>
<g id="a_node3"><a xlink:href="../../dc/d47/classcontroller_1_1_x_m_l_parser.html#af39d761c375e7381ce78fb5069f2209c" target="_top" xlink:title="controller.XMLParser.initialize\lNodeList">
<polygon fill="white" stroke="black" points="180,-88 180,-118 334,-118 334,-88 180,-88"/>
<text text-anchor="start" x="188" y="-106" font-family="Helvetica,sans-Serif" font-size="10.00">controller.XMLParser.initialize</text>
<text text-anchor="middle" x="257" y="-95" font-family="Helvetica,sans-Serif" font-size="10.00">NodeList</text>
</a>
</g>
</g>
<!-- Node1&#45;&gt;Node3 -->
<g id="edge2" class="edge"><title>Node1&#45;&gt;Node3</title>
<path fill="none" stroke="midnightblue" d="M137.676,-89.0047C148.067,-90.2337 158.914,-91.5167 169.642,-92.7856"/>
<polygon fill="midnightblue" stroke="midnightblue" points="169.531,-96.2968 179.873,-93.9957 170.353,-89.3453 169.531,-96.2968"/>
</g>
<!-- Node4 -->
<g id="node4" class="node"><title>Node4</title>
<g id="a_node4"><a xlink:href="../../dc/d47/classcontroller_1_1_x_m_l_parser.html#a89a2937a35436ef062ef6a5184cad868" target="_top" xlink:title="controller.XMLParser.readGrid">
<polygon fill="white" stroke="black" points="178.5,-49.5 178.5,-68.5 335.5,-68.5 335.5,-49.5 178.5,-49.5"/>
<text text-anchor="middle" x="257" y="-56.5" font-family="Helvetica,sans-Serif" font-size="10.00">controller.XMLParser.readGrid</text>
</a>
</g>
</g>
<!-- Node1&#45;&gt;Node4 -->
<g id="edge3" class="edge"><title>Node1&#45;&gt;Node4</title>
<path fill="none" stroke="midnightblue" d="M137.676,-72.9953C147.57,-71.825 157.878,-70.6059 168.103,-69.3964"/>
<polygon fill="midnightblue" stroke="midnightblue" points="168.763,-72.8429 178.282,-68.1924 167.94,-65.8914 168.763,-72.8429"/>
</g>
<!-- Node5 -->
<g id="node5" class="node"><title>Node5</title>
<g id="a_node5"><a xlink:href="../../dc/d47/classcontroller_1_1_x_m_l_parser.html#a3d671c7e6a166fb5915eb6277f6a94c3" target="_top" xlink:title="controller.XMLParser.read\lParameters">
<polygon fill="white" stroke="black" points="188.5,-0 188.5,-30 325.5,-30 325.5,-0 188.5,-0"/>
<text text-anchor="start" x="196.5" y="-18" font-family="Helvetica,sans-Serif" font-size="10.00">controller.XMLParser.read</text>
<text text-anchor="middle" x="257" y="-7" font-family="Helvetica,sans-Serif" font-size="10.00">Parameters</text>
</a>
</g>
</g>
<!-- Node1&#45;&gt;Node5 -->
<g id="edge4" class="edge"><title>Node1&#45;&gt;Node5</title>
<path fill="none" stroke="midnightblue" d="M106.313,-65.8633C126.167,-57.7957 151.278,-47.9286 174,-40 180.514,-37.7269 187.359,-35.4572 194.199,-33.2642"/>
<polygon fill="midnightblue" stroke="midnightblue" points="195.698,-36.4617 204.181,-30.1147 193.591,-29.7861 195.698,-36.4617"/>
</g>
</g>
</svg>
