<?xml version="1.0" encoding="UTF-8" standalone="no"?>
<!DOCTYPE svg PUBLIC "-//W3C//DTD SVG 1.1//EN"
 "http://www.w3.org/Graphics/SVG/1.1/DTD/svg11.dtd">
<!-- Generated by graphviz version 2.36.0 (20140111.2315)
 -->
<!-- Title: controller.XMLParser.readParameters Pages: 1 -->
<svg width="522pt" height="87pt"
 viewBox="0.00 0.00 522.00 87.00" xmlns="http://www.w3.org/2000/svg" xmlns:xlink="http://www.w3.org/1999/xlink">
<g id="graph0" class="graph" transform="scale(1 1) rotate(0) translate(4 83)">
<title>controller.XMLParser.readParameters</title>
<polygon fill="white" stroke="none" points="-4,4 -4,-83 518,-83 518,4 -4,4"/>
<!-- Node1 -->
<g id="node1" class="node"><title>Node1</title>
<polygon fill="#bfbfbf" stroke="black" points="0.5,-24 0.5,-54 137.5,-54 137.5,-24 0.5,-24"/>
<text text-anchor="start" x="8.5" y="-42" font-family="Helvetica,sans-Serif" font-size="10.00">controller.XMLParser.read</text>
<text text-anchor="middle" x="69" y="-31" font-family="Helvetica,sans-Serif" font-size="10.00">Parameters</text>
</g>
<!-- Node2 -->
<g id="node2" class="node"><title>Node2</title>
<g id="a_node2"><a xlink:href="../../dc/d47/classcontroller_1_1_x_m_l_parser.html#a52c65552523ed5358e311b47a5c211f4" target="_top" xlink:title="controller.XMLParser.read\lSimFile">
<polygon fill="white" stroke="black" points="174.5,-49 174.5,-79 311.5,-79 311.5,-49 174.5,-49"/>
<text text-anchor="start" x="182.5" y="-67" font-family="Helvetica,sans-Serif" font-size="10.00">controller.XMLParser.read</text>
<text text-anchor="middle" x="243" y="-56" font-family="Helvetica,sans-Serif" font-size="10.00">SimFile</text>
</a>
</g>
</g>
<!-- Node1&#45;&gt;Node2 -->
<g id="edge1" class="edge"><title>Node1&#45;&gt;Node2</title>
<path fill="none" stroke="midnightblue" d="M148.134,-50.3567C156.846,-51.6229 165.666,-52.9049 174.233,-54.1502"/>
<polygon fill="midnightblue" stroke="midnightblue" points="148.378,-46.8555 137.979,-48.8807 147.372,-53.7827 148.378,-46.8555"/>
</g>
<!-- Node4 -->
<g id="node4" class="node"><title>Node4</title>
<g id="a_node4"><a xlink:href="../../dc/d47/classcontroller_1_1_x_m_l_parser.html#a2667f66c4fab0628e38356255e983ce6" target="_top" xlink:title="controller.XMLParser.read\lStyleFile">
<polygon fill="white" stroke="black" points="174.5,-0 174.5,-30 311.5,-30 311.5,-0 174.5,-0"/>
<text text-anchor="start" x="182.5" y="-18" font-family="Helvetica,sans-Serif" font-size="10.00">controller.XMLParser.read</text>
<text text-anchor="middle" x="243" y="-7" font-family="Helvetica,sans-Serif" font-size="10.00">StyleFile</text>
</a>
</g>
</g>
<!-- Node1&#45;&gt;Node4 -->
<g id="edge3" class="edge"><title>Node1&#45;&gt;Node4</title>
<path fill="none" stroke="midnightblue" d="M148.134,-28.0976C156.846,-26.882 165.666,-25.6512 174.233,-24.4558"/>
<polygon fill="midnightblue" stroke="midnightblue" points="147.399,-24.6661 137.979,-29.5146 148.367,-31.5989 147.399,-24.6661"/>
</g>
<!-- Node3 -->
<g id="node3" class="node"><title>Node3</title>
<g id="a_node3"><a xlink:href="../../dc/d47/classcontroller_1_1_x_m_l_parser.html#a6513df7eb83a60a3a6f5ed3ef018de99" target="_top" xlink:title="controller.XMLParser.XMLParser">
<polygon fill="white" stroke="black" points="348.5,-29.5 348.5,-48.5 513.5,-48.5 513.5,-29.5 348.5,-29.5"/>
<text text-anchor="middle" x="431" y="-36.5" font-family="Helvetica,sans-Serif" font-size="10.00">controller.XMLParser.XMLParser</text>
</a>
</g>
</g>
<!-- Node2&#45;&gt;Node3 -->
<g id="edge2" class="edge"><title>Node2&#45;&gt;Node3</title>
<path fill="none" stroke="midnightblue" d="M321.588,-53.5715C334.07,-51.8938 346.934,-50.1648 359.245,-48.5101"/>
<polygon fill="midnightblue" stroke="midnightblue" points="321.121,-50.1027 311.676,-54.9037 322.054,-57.0403 321.121,-50.1027"/>
</g>
<!-- Node4&#45;&gt;Node3 -->
<g id="edge4" class="edge"><title>Node4&#45;&gt;Node3</title>
<path fill="none" stroke="midnightblue" d="M321.608,-25.0139C333.022,-26.4867 344.755,-28.0007 356.092,-29.4635"/>
<polygon fill="midnightblue" stroke="midnightblue" points="322.042,-21.541 311.676,-23.7324 321.146,-28.4835 322.042,-21.541"/>
</g>
</g>
</svg>
