<?xml version="1.0" encoding="UTF-8" standalone="no"?>
<!DOCTYPE svg PUBLIC "-//W3C//DTD SVG 1.1//EN"
 "http://www.w3.org/Graphics/SVG/1.1/DTD/svg11.dtd">
<!-- Generated by graphviz version 2.36.0 (20140111.2315)
 -->
<!-- Title: controller.XMLParser.initializeNodeList Pages: 1 -->
<svg width="538pt" height="87pt"
 viewBox="0.00 0.00 538.00 87.00" xmlns="http://www.w3.org/2000/svg" xmlns:xlink="http://www.w3.org/1999/xlink">
<g id="graph0" class="graph" transform="scale(1 1) rotate(0) translate(4 83)">
<title>controller.XMLParser.initializeNodeList</title>
<polygon fill="white" stroke="none" points="-4,4 -4,-83 534,-83 534,4 -4,4"/>
<!-- Node1 -->
<g id="node1" class="node"><title>Node1</title>
<polygon fill="#bfbfbf" stroke="black" points="0,-24 0,-54 154,-54 154,-24 0,-24"/>
<text text-anchor="start" x="8" y="-42" font-family="Helvetica,sans-Serif" font-size="10.00">controller.XMLParser.initialize</text>
<text text-anchor="middle" x="77" y="-31" font-family="Helvetica,sans-Serif" font-size="10.00">NodeList</text>
</g>
<!-- Node2 -->
<g id="node2" class="node"><title>Node2</title>
<g id="a_node2"><a xlink:href="../../dc/d47/classcontroller_1_1_x_m_l_parser.html#a52c65552523ed5358e311b47a5c211f4" target="_top" xlink:title="controller.XMLParser.read\lSimFile">
<polygon fill="white" stroke="black" points="190.5,-49 190.5,-79 327.5,-79 327.5,-49 190.5,-49"/>
<text text-anchor="start" x="198.5" y="-67" font-family="Helvetica,sans-Serif" font-size="10.00">controller.XMLParser.read</text>
<text text-anchor="middle" x="259" y="-56" font-family="Helvetica,sans-Serif" font-size="10.00">SimFile</text>
</a>
</g>
</g>
<!-- Node1&#45;&gt;Node2 -->
<g id="edge1" class="edge"><title>Node1&#45;&gt;Node2</title>
<path fill="none" stroke="midnightblue" d="M164.051,-50.9516C172.923,-52.1837 181.845,-53.423 190.474,-54.6213"/>
<polygon fill="midnightblue" stroke="midnightblue" points="164.462,-47.4751 154.075,-49.566 163.499,-54.4085 164.462,-47.4751"/>
</g>
<!-- Node4 -->
<g id="node4" class="node"><title>Node4</title>
<g id="a_node4"><a xlink:href="../../dc/d47/classcontroller_1_1_x_m_l_parser.html#a2667f66c4fab0628e38356255e983ce6" target="_top" xlink:title="controller.XMLParser.read\lStyleFile">
<polygon fill="white" stroke="black" points="190.5,-0 190.5,-30 327.5,-30 327.5,-0 190.5,-0"/>
<text text-anchor="start" x="198.5" y="-18" font-family="Helvetica,sans-Serif" font-size="10.00">controller.XMLParser.read</text>
<text text-anchor="middle" x="259" y="-7" font-family="Helvetica,sans-Serif" font-size="10.00">StyleFile</text>
</a>
</g>
</g>
<!-- Node1&#45;&gt;Node4 -->
<g id="edge3" class="edge"><title>Node1&#45;&gt;Node4</title>
<path fill="none" stroke="midnightblue" d="M164.051,-27.5265C172.923,-26.3437 181.845,-25.154 190.474,-24.0035"/>
<polygon fill="midnightblue" stroke="midnightblue" points="163.525,-24.0656 154.075,-28.8566 164.45,-31.0042 163.525,-24.0656"/>
</g>
<!-- Node3 -->
<g id="node3" class="node"><title>Node3</title>
<g id="a_node3"><a xlink:href="../../dc/d47/classcontroller_1_1_x_m_l_parser.html#a6513df7eb83a60a3a6f5ed3ef018de99" target="_top" xlink:title="controller.XMLParser.XMLParser">
<polygon fill="white" stroke="black" points="364.5,-29.5 364.5,-48.5 529.5,-48.5 529.5,-29.5 364.5,-29.5"/>
<text text-anchor="middle" x="447" y="-36.5" font-family="Helvetica,sans-Serif" font-size="10.00">controller.XMLParser.XMLParser</text>
</a>
</g>
</g>
<!-- Node2&#45;&gt;Node3 -->
<g id="edge2" class="edge"><title>Node2&#45;&gt;Node3</title>
<path fill="none" stroke="midnightblue" d="M337.588,-53.5715C350.07,-51.8938 362.934,-50.1648 375.245,-48.5101"/>
<polygon fill="midnightblue" stroke="midnightblue" points="337.121,-50.1027 327.676,-54.9037 338.054,-57.0403 337.121,-50.1027"/>
</g>
<!-- Node4&#45;&gt;Node3 -->
<g id="edge4" class="edge"><title>Node4&#45;&gt;Node3</title>
<path fill="none" stroke="midnightblue" d="M337.608,-25.0139C349.022,-26.4867 360.755,-28.0007 372.092,-29.4635"/>
<polygon fill="midnightblue" stroke="midnightblue" points="338.042,-21.541 327.676,-23.7324 337.146,-28.4835 338.042,-21.541"/>
</g>
</g>
</svg>
