<?xml version="1.0" encoding="UTF-8" standalone="no"?>
<!DOCTYPE svg PUBLIC "-//W3C//DTD SVG 1.1//EN"
 "http://www.w3.org/Graphics/SVG/1.1/DTD/svg11.dtd">
<!-- Generated by graphviz version 2.36.0 (20140111.2315)
 -->
<!-- Title: controller.XMLParser.readStyleFile Pages: 1 -->
<svg width="336pt" height="87pt"
 viewBox="0.00 0.00 336.00 87.00" xmlns="http://www.w3.org/2000/svg" xmlns:xlink="http://www.w3.org/1999/xlink">
<g id="graph0" class="graph" transform="scale(1 1) rotate(0) translate(4 83)">
<title>controller.XMLParser.readStyleFile</title>
<polygon fill="white" stroke="none" points="-4,4 -4,-83 332,-83 332,4 -4,4"/>
<!-- Node1 -->
<g id="node1" class="node"><title>Node1</title>
<polygon fill="#bfbfbf" stroke="black" points="0.5,-24 0.5,-54 137.5,-54 137.5,-24 0.5,-24"/>
<text text-anchor="start" x="8.5" y="-42" font-family="Helvetica,sans-Serif" font-size="10.00">controller.XMLParser.read</text>
<text text-anchor="middle" x="69" y="-31" font-family="Helvetica,sans-Serif" font-size="10.00">StyleFile</text>
</g>
<!-- Node2 -->
<g id="node2" class="node"><title>Node2</title>
<g id="a_node2"><a xlink:href="../../dc/d47/classcontroller_1_1_x_m_l_parser.html#af39d761c375e7381ce78fb5069f2209c" target="_top" xlink:title="controller.XMLParser.initialize\lNodeList">
<polygon fill="white" stroke="black" points="174,-49 174,-79 328,-79 328,-49 174,-49"/>
<text text-anchor="start" x="182" y="-67" font-family="Helvetica,sans-Serif" font-size="10.00">controller.XMLParser.initialize</text>
<text text-anchor="middle" x="251" y="-56" font-family="Helvetica,sans-Serif" font-size="10.00">NodeList</text>
</a>
</g>
</g>
<!-- Node1&#45;&gt;Node2 -->
<g id="edge1" class="edge"><title>Node1&#45;&gt;Node2</title>
<path fill="none" stroke="midnightblue" d="M137.537,-48.3802C146.163,-49.5781 155.082,-50.8169 163.95,-52.0486"/>
<polygon fill="midnightblue" stroke="midnightblue" points="163.535,-55.5245 173.922,-53.4336 164.498,-48.5911 163.535,-55.5245"/>
</g>
<!-- Node3 -->
<g id="node3" class="node"><title>Node3</title>
<g id="a_node3"><a xlink:href="../../dc/d47/classcontroller_1_1_x_m_l_parser.html#a3d671c7e6a166fb5915eb6277f6a94c3" target="_top" xlink:title="controller.XMLParser.read\lParameters">
<polygon fill="white" stroke="black" points="182.5,-0 182.5,-30 319.5,-30 319.5,-0 182.5,-0"/>
<text text-anchor="start" x="190.5" y="-18" font-family="Helvetica,sans-Serif" font-size="10.00">controller.XMLParser.read</text>
<text text-anchor="middle" x="251" y="-7" font-family="Helvetica,sans-Serif" font-size="10.00">Parameters</text>
</a>
</g>
</g>
<!-- Node1&#45;&gt;Node3 -->
<g id="edge2" class="edge"><title>Node1&#45;&gt;Node3</title>
<path fill="none" stroke="midnightblue" d="M137.537,-29.995C148.879,-28.4827 160.73,-26.9027 172.304,-25.3595"/>
<polygon fill="midnightblue" stroke="midnightblue" points="172.934,-28.8066 182.383,-24.0155 172.009,-21.868 172.934,-28.8066"/>
</g>
</g>
</svg>
