<?xml version="1.0" encoding="UTF-8" standalone="no"?>
<!DOCTYPE svg PUBLIC "-//W3C//DTD SVG 1.1//EN"
 "http://www.w3.org/Graphics/SVG/1.1/DTD/svg11.dtd">
<!-- Generated by graphviz version 2.36.0 (20140111.2315)
 -->
<!-- Title: view.SimScreenButton Pages: 1 -->
<!--zoomable 505 -->
<svg id="main" version="1.1" xmlns="http://www.w3.org/2000/svg" xmlns:xlink="http://www.w3.org/1999/xlink" xml:space="preserve" onload="init(evt)">
<style type="text/css"><![CDATA[
.edge:hover path { stroke: red; }
.edge:hover polygon { stroke: red; fill: red; }
]]></style>
<script type="text/javascript"><![CDATA[
var edges = document.getElementsByTagName('g');
if (edges && edges.length) {
  for (var i=0;i<edges.length;i++) {
    if (edges[i].id.substr(0,4)=='edge') {
      edges[i].setAttribute('class','edge');
    }
  }
}
]]></script>
        <defs>
                <circle id="rim" cx="0" cy="0" r="7"/>
                <circle id="rim2" cx="0" cy="0" r="3.5"/>
                <g id="zoomPlus">
                        <use xlink:href="#rim" fill="#404040">
                                <set attributeName="fill" to="#808080" begin="zoomplus.mouseover" end="zoomplus.mouseout"/>
                        </use>
                        <path d="M-4,0h8M0,-4v8" fill="none" stroke="white" stroke-width="1.5" pointer-events="none"/>
                </g>
                <g id="zoomMin">
                        <use xlink:href="#rim" fill="#404040">
                                <set attributeName="fill" to="#808080" begin="zoomminus.mouseover" end="zoomminus.mouseout"/>
                        </use>
                        <path d="M-4,0h8" fill="none" stroke="white" stroke-width="1.5" pointer-events="none"/>
                </g>
                <g id="dirArrow">
                        <path fill="none" stroke="white" stroke-width="1.5" d="M0,-3.0v7 M-2.5,-0.5L0,-3.0L2.5,-0.5"/>
                </g>
               <g id="resetDef">
                       <use xlink:href="#rim2" fill="#404040">
                               <set attributeName="fill" to="#808080" begin="reset.mouseover" end="reset.mouseout"/>
                       </use>
               </g>
        </defs>

<script type="text/javascript">
var viewWidth = 1020;
var viewHeight = 505;
var sectionId = 'dynsection-1';
</script>
<script xlink:href="../../svgpan.js"/>
<svg id="graph" class="graph">
<g id="viewport">
<title>view.SimScreenButton</title>
<polygon fill="white" stroke="none" points="-4,4 -4,-500.589 1016,-500.589 1016,4 -4,4"/>
<!-- Node1 -->
<g id="node1" class="node"><title>Node1</title>
<polygon fill="#bfbfbf" stroke="black" points="611,-330.089 611,-349.089 735,-349.089 735,-330.089 611,-330.089"/>
<text text-anchor="middle" x="673" y="-337.089" font-family="Helvetica,sans-Serif" font-size="10.00">view.SimScreenButton</text>
</g>
<!-- Node2 -->
<g id="node2" class="node"><title>Node2</title>
<polygon fill="white" stroke="#bfbfbf" points="315.5,-340.089 315.5,-359.089 364.5,-359.089 364.5,-340.089 315.5,-340.089"/>
<text text-anchor="middle" x="340" y="-347.089" font-family="Helvetica,sans-Serif" font-size="10.00">Button</text>
</g>
<!-- Node2&#45;&gt;Node1 -->
<g id="edge1" class="edge"><title>Node2&#45;&gt;Node1</title>
<path fill="none" stroke="midnightblue" d="M374.863,-348.566C430.328,-346.89 541.309,-343.537 610.825,-341.437"/>
<polygon fill="midnightblue" stroke="midnightblue" points="374.429,-345.077 364.539,-348.878 374.641,-352.074 374.429,-345.077"/>
</g>
<!-- Node3 -->
<g id="node3" class="node"><title>Node3</title>
<g id="a_node3"><a xlink:href="../../d6/d7b/classcontroller_1_1_cell_society_controller.html" target="_top" xlink:title="controller.CellSocietyController">
<polygon fill="white" stroke="black" points="258.5,-255.089 258.5,-274.089 421.5,-274.089 421.5,-255.089 258.5,-255.089"/>
<text text-anchor="middle" x="340" y="-262.089" font-family="Helvetica,sans-Serif" font-size="10.00">controller.CellSocietyController</text>
</a>
</g>
</g>
<!-- Node3&#45;&gt;Node1 -->
<g id="edge2" class="edge"><title>Node3&#45;&gt;Node1</title>
<path fill="none" stroke="#9a32cd" stroke-dasharray="5,2" d="M372.459,-278.147C391.667,-285.969 416.897,-295.443 440,-301.589 471.357,-309.931 553.258,-322.569 610.822,-330.949"/>
<polygon fill="#9a32cd" stroke="#9a32cd" points="373.585,-274.825 363.007,-274.233 370.907,-281.292 373.585,-274.825"/>
<text text-anchor="middle" x="510" y="-329.589" font-family="Helvetica,sans-Serif" font-size="10.00"> myController</text>
</g>
<!-- Node15 -->
<g id="node15" class="node"><title>Node15</title>
<g id="a_node15"><a xlink:href="../../d1/d3e/classview_1_1_simulation_screen.html" target="_top" xlink:title="view.SimulationScreen">
<polygon fill="white" stroke="black" points="611,-109.089 611,-128.089 735,-128.089 735,-109.089 611,-109.089"/>
<text text-anchor="middle" x="673" y="-116.089" font-family="Helvetica,sans-Serif" font-size="10.00">view.SimulationScreen</text>
</a>
</g>
</g>
<!-- Node3&#45;&gt;Node15 -->
<g id="edge19" class="edge"><title>Node3&#45;&gt;Node15</title>
<path fill="none" stroke="#9a32cd" stroke-dasharray="5,2" d="M375.535,-251.576C394.375,-244.859 418.233,-236.969 440,-231.589 501.214,-216.46 533.549,-251.231 580,-208.589 603.981,-186.574 575.016,-160.643 598,-137.589 601.84,-133.738 606.347,-130.633 611.211,-128.134"/>
<polygon fill="#9a32cd" stroke="#9a32cd" points="374.116,-248.367 365.904,-255.062 376.498,-254.949 374.116,-248.367"/>
<text text-anchor="middle" x="510" y="-234.589" font-family="Helvetica,sans-Serif" font-size="10.00"> myController</text>
</g>
<!-- Node4 -->
<g id="node4" class="node"><title>Node4</title>
<polygon fill="white" stroke="#bfbfbf" points="46,-312.089 46,-331.089 102,-331.089 102,-312.089 46,-312.089"/>
<text text-anchor="middle" x="74" y="-319.089" font-family="Helvetica,sans-Serif" font-size="10.00">Timeline</text>
</g>
<!-- Node4&#45;&gt;Node3 -->
<g id="edge3" class="edge"><title>Node4&#45;&gt;Node3</title>
<path fill="none" stroke="#9a32cd" stroke-dasharray="5,2" d="M112.308,-316.141C145.893,-310.974 196.507,-302.535 240,-292.589 263.158,-287.293 288.975,-279.943 308.437,-274.102"/>
<polygon fill="#9a32cd" stroke="#9a32cd" points="111.394,-312.739 102.033,-317.701 112.445,-319.66 111.394,-312.739"/>
<text text-anchor="middle" x="203" y="-310.589" font-family="Helvetica,sans-Serif" font-size="10.00"> myTimeline</text>
</g>
<!-- Node5 -->
<g id="node5" class="node"><title>Node5</title>
<polygon fill="white" stroke="#bfbfbf" points="0.5,-274.089 0.5,-293.089 147.5,-293.089 147.5,-274.089 0.5,-274.089"/>
<text text-anchor="middle" x="74" y="-281.089" font-family="Helvetica,sans-Serif" font-size="10.00">HashMap&lt; String, String &gt;</text>
</g>
<!-- Node5&#45;&gt;Node3 -->
<g id="edge4" class="edge"><title>Node5&#45;&gt;Node3</title>
<path fill="none" stroke="#9a32cd" stroke-dasharray="5,2" d="M158.033,-277.613C189.952,-275.316 226.321,-272.699 258.042,-270.416"/>
<polygon fill="#9a32cd" stroke="#9a32cd" points="157.561,-274.138 147.838,-278.347 158.063,-281.12 157.561,-274.138"/>
<text text-anchor="middle" x="203" y="-280.589" font-family="Helvetica,sans-Serif" font-size="10.00"> myParameters</text>
</g>
<!-- Node6 -->
<g id="node6" class="node"><title>Node6</title>
<polygon fill="white" stroke="#bfbfbf" points="51.5,-236.089 51.5,-255.089 96.5,-255.089 96.5,-236.089 51.5,-236.089"/>
<text text-anchor="middle" x="74" y="-243.089" font-family="Helvetica,sans-Serif" font-size="10.00">Stage</text>
</g>
<!-- Node6&#45;&gt;Node3 -->
<g id="edge5" class="edge"><title>Node6&#45;&gt;Node3</title>
<path fill="none" stroke="#9a32cd" stroke-dasharray="5,2" d="M106.861,-247.882C144.173,-250.567 207.371,-255.116 258.413,-258.789"/>
<polygon fill="#9a32cd" stroke="#9a32cd" points="106.83,-244.371 96.6042,-247.144 106.327,-251.353 106.83,-244.371"/>
<text text-anchor="middle" x="203" y="-260.589" font-family="Helvetica,sans-Serif" font-size="10.00"> myStage</text>
</g>
<!-- Node7 -->
<g id="node7" class="node"><title>Node7</title>
<g id="a_node7"><a xlink:href="../../d0/d56/classmodel_1_1simulations_1_1_simulation.html" target="_top" xlink:title="model.simulations.Simulation">
<polygon fill="white" stroke="black" points="854,-207.089 854,-226.089 1012,-226.089 1012,-207.089 854,-207.089"/>
<text text-anchor="middle" x="933" y="-214.089" font-family="Helvetica,sans-Serif" font-size="10.00">model.simulations.Simulation</text>
</a>
</g>
</g>
<!-- Node7&#45;&gt;Node3 -->
<g id="edge6" class="edge"><title>Node7&#45;&gt;Node3</title>
<path fill="none" stroke="#9a32cd" stroke-dasharray="5,2" d="M893.412,-229.233C875.988,-234.686 855.075,-240.879 836,-245.589 664.61,-287.913 616.217,-287.23 440,-276.589 430.495,-276.015 420.505,-275.134 410.676,-274.104"/>
<polygon fill="#9a32cd" stroke="#9a32cd" points="894.75,-232.48 903.227,-226.124 892.637,-225.807 894.75,-232.48"/>
<text text-anchor="middle" x="673" y="-286.589" font-family="Helvetica,sans-Serif" font-size="10.00"> myCurrentSimulation</text>
</g>
<!-- Node8 -->
<g id="node8" class="node"><title>Node8</title>
<g id="a_node8"><a xlink:href="../../dc/d86/classmodel_1_1simulations_1_1_abstract_cell_factory.html" target="_top" xlink:title="model.simulations.Abstract\lCellFactory">
<polygon fill="white" stroke="black" points="599,-223.589 599,-253.589 747,-253.589 747,-223.589 599,-223.589"/>
<text text-anchor="start" x="607" y="-241.589" font-family="Helvetica,sans-Serif" font-size="10.00">model.simulations.Abstract</text>
<text text-anchor="middle" x="673" y="-230.589" font-family="Helvetica,sans-Serif" font-size="10.00">CellFactory</text>
</a>
</g>
</g>
<!-- Node8&#45;&gt;Node7 -->
<g id="edge7" class="edge"><title>Node8&#45;&gt;Node7</title>
<path fill="none" stroke="#9a32cd" stroke-dasharray="5,2" d="M757.541,-231.465C788.396,-228.834 823.23,-225.864 853.612,-223.273"/>
<polygon fill="#9a32cd" stroke="#9a32cd" points="756.909,-228.007 747.242,-232.344 757.504,-234.981 756.909,-228.007"/>
<text text-anchor="middle" x="801" y="-233.589" font-family="Helvetica,sans-Serif" font-size="10.00"> myCellFactory</text>
</g>
<!-- Node9 -->
<g id="node9" class="node"><title>Node9</title>
<g id="a_node9"><a xlink:href="../../da/d6d/classmodel_1_1gridrules_1_1_grid_rules.html" target="_top" xlink:title="model.gridrules.GridRules">
<polygon fill="white" stroke="black" points="604,-185.089 604,-204.089 742,-204.089 742,-185.089 604,-185.089"/>
<text text-anchor="middle" x="673" y="-192.089" font-family="Helvetica,sans-Serif" font-size="10.00">model.gridrules.GridRules</text>
</a>
</g>
</g>
<!-- Node9&#45;&gt;Node7 -->
<g id="edge8" class="edge"><title>Node9&#45;&gt;Node7</title>
<path fill="none" stroke="#9a32cd" stroke-dasharray="5,2" d="M752.385,-201.273C784.567,-204.017 821.745,-207.187 853.898,-209.929"/>
<polygon fill="#9a32cd" stroke="#9a32cd" points="752.385,-197.76 742.124,-200.398 751.79,-204.735 752.385,-197.76"/>
<text text-anchor="middle" x="801" y="-211.589" font-family="Helvetica,sans-Serif" font-size="10.00"> myGridRules</text>
</g>
<!-- Node10 -->
<g id="node10" class="node"><title>Node10</title>
<g id="a_node10"><a xlink:href="../../db/d90/classmodel_1_1patches_1_1_patch.html" target="_top" xlink:title="model.patches.Patch">
<polygon fill="white" stroke="black" points="614.5,-378.089 614.5,-397.089 731.5,-397.089 731.5,-378.089 614.5,-378.089"/>
<text text-anchor="middle" x="673" y="-385.089" font-family="Helvetica,sans-Serif" font-size="10.00">model.patches.Patch</text>
</a>
</g>
</g>
<!-- Node10&#45;&gt;Node7 -->
<g id="edge9" class="edge"><title>Node10&#45;&gt;Node7</title>
<path fill="none" stroke="#9a32cd" stroke-dasharray="5,2" d="M711.541,-374.356C723.397,-369.786 736.42,-364.355 748,-358.589 789.078,-338.138 799.363,-332.219 836,-304.589 870.117,-278.859 906.184,-243.156 922.726,-226.23"/>
<polygon fill="#9a32cd" stroke="#9a32cd" points="710.04,-371.181 701.914,-377.98 712.506,-377.732 710.04,-371.181"/>
<text text-anchor="middle" x="801" y="-352.589" font-family="Helvetica,sans-Serif" font-size="10.00"> myPatchGrid</text>
</g>
<!-- Node12 -->
<g id="node12" class="node"><title>Node12</title>
<g id="a_node12"><a xlink:href="../../dc/d41/classmodel_1_1cells_1_1_cell.html" target="_top" xlink:title="model.cells.Cell">
<polygon fill="white" stroke="black" points="887.5,-425.089 887.5,-444.089 978.5,-444.089 978.5,-425.089 887.5,-425.089"/>
<text text-anchor="middle" x="933" y="-432.089" font-family="Helvetica,sans-Serif" font-size="10.00">model.cells.Cell</text>
</a>
</g>
</g>
<!-- Node10&#45;&gt;Node12 -->
<g id="edge13" class="edge"><title>Node10&#45;&gt;Node12</title>
<path fill="none" stroke="#9a32cd" stroke-dasharray="5,2" d="M741.804,-382.705C771.106,-382.165 805.578,-383.654 836,-390.589 866.03,-397.435 897.99,-414.245 916.413,-424.993"/>
<polygon fill="#9a32cd" stroke="#9a32cd" points="741.573,-379.21 731.67,-382.976 741.76,-386.208 741.573,-379.21"/>
<text text-anchor="middle" x="801" y="-393.589" font-family="Helvetica,sans-Serif" font-size="10.00"> myPatch</text>
</g>
<!-- Node11 -->
<g id="node11" class="node"><title>Node11</title>
<polygon fill="white" stroke="#bfbfbf" points="276,-427.089 276,-446.089 404,-446.089 404,-427.089 276,-427.089"/>
<text text-anchor="middle" x="340" y="-434.089" font-family="Helvetica,sans-Serif" font-size="10.00">Map&lt; String, Double &gt;</text>
</g>
<!-- Node11&#45;&gt;Node10 -->
<g id="edge10" class="edge"><title>Node11&#45;&gt;Node10</title>
<path fill="none" stroke="#9a32cd" stroke-dasharray="5,2" d="M414.254,-425.745C474.571,-416.816 558.906,-404.331 614.456,-396.108"/>
<polygon fill="#9a32cd" stroke="#9a32cd" points="413.417,-422.33 404.038,-427.257 414.442,-429.255 413.417,-422.33"/>
<text text-anchor="middle" x="510" y="-424.589" font-family="Helvetica,sans-Serif" font-size="10.00"> myPatchPropertyMap</text>
</g>
<!-- Node11&#45;&gt;Node12 -->
<g id="edge14" class="edge"><title>Node11&#45;&gt;Node12</title>
<path fill="none" stroke="#9a32cd" stroke-dasharray="5,2" d="M414.408,-436.341C538.424,-435.921 785.797,-435.084 887.132,-434.741"/>
<polygon fill="#9a32cd" stroke="#9a32cd" points="414.235,-432.841 404.247,-436.375 414.259,-439.841 414.235,-432.841"/>
<text text-anchor="middle" x="673" y="-439.589" font-family="Helvetica,sans-Serif" font-size="10.00"> myPropertyMap</text>
</g>
<!-- Node12&#45;&gt;Node10 -->
<g id="edge11" class="edge"><title>Node12&#45;&gt;Node10</title>
<path fill="none" stroke="#9a32cd" stroke-dasharray="5,2" d="M877.107,-424.589C832.52,-416.467 770.059,-405.088 726.21,-397.1"/>
<polygon fill="#9a32cd" stroke="#9a32cd" points="876.719,-428.076 887.184,-426.425 877.973,-421.189 876.719,-428.076"/>
<text text-anchor="middle" x="801" y="-420.589" font-family="Helvetica,sans-Serif" font-size="10.00"> myCell</text>
</g>
<!-- Node13 -->
<g id="node13" class="node"><title>Node13</title>
<polygon fill="white" stroke="#bfbfbf" points="608,-477.089 608,-496.089 738,-496.089 738,-477.089 608,-477.089"/>
<text text-anchor="middle" x="673" y="-484.089" font-family="Helvetica,sans-Serif" font-size="10.00">List&lt; model.cells.Cell &gt;</text>
</g>
<!-- Node13&#45;&gt;Node12 -->
<g id="edge12" class="edge"><title>Node13&#45;&gt;Node12</title>
<path fill="none" stroke="#9a32cd" stroke-dasharray="5,2" d="M748.202,-477.064C775.892,-473.005 807.516,-467.769 836,-461.589 858.165,-456.78 882.783,-449.823 901.541,-444.175"/>
<polygon fill="#9a32cd" stroke="#9a32cd" points="747.59,-473.616 738.191,-478.506 748.588,-480.545 747.59,-473.616"/>
<text text-anchor="middle" x="801" y="-477.589" font-family="Helvetica,sans-Serif" font-size="10.00"> myNeighbors</text>
</g>
<!-- Node14 -->
<g id="node14" class="node"><title>Node14</title>
<polygon fill="white" stroke="#bfbfbf" points="262,-378.089 262,-397.089 418,-397.089 418,-378.089 262,-378.089"/>
<text text-anchor="middle" x="340" y="-385.089" font-family="Helvetica,sans-Serif" font-size="10.00">List&lt; model.patches.Patch &gt;</text>
</g>
<!-- Node14&#45;&gt;Node10 -->
<g id="edge15" class="edge"><title>Node14&#45;&gt;Node10</title>
<path fill="none" stroke="#9a32cd" stroke-dasharray="5,2" d="M428.216,-387.589C487.043,-387.589 563.016,-387.589 614.396,-387.589"/>
<polygon fill="#9a32cd" stroke="#9a32cd" points="428.187,-384.089 418.187,-387.589 428.187,-391.089 428.187,-384.089"/>
<text text-anchor="middle" x="510" y="-390.589" font-family="Helvetica,sans-Serif" font-size="10.00"> myNeighbors</text>
</g>
<!-- Node15&#45;&gt;Node3 -->
<g id="edge27" class="edge"><title>Node15&#45;&gt;Node3</title>
<path fill="none" stroke="#9a32cd" stroke-dasharray="5,2" d="M602.432,-133.417C600.865,-134.701 599.382,-136.089 598,-137.589 565.913,-172.406 614.759,-210.44 580,-242.589 568.376,-253.34 486.298,-259.08 421.529,-261.97"/>
<polygon fill="#9a32cd" stroke="#9a32cd" points="604.478,-136.26 610.885,-127.821 600.614,-130.423 604.478,-136.26"/>
<text text-anchor="middle" x="510" y="-264.589" font-family="Helvetica,sans-Serif" font-size="10.00"> myCurrentSimulationScreen</text>
</g>
<!-- Node15&#45;&gt;Node7 -->
<g id="edge16" class="edge"><title>Node15&#45;&gt;Node7</title>
<path fill="none" stroke="#9a32cd" stroke-dasharray="5,2" d="M737.828,-130.295C768.222,-136.982 804.683,-146.649 836,-159.589 867.349,-172.543 900.699,-194.423 918.665,-206.971"/>
<polygon fill="#9a32cd" stroke="#9a32cd" points="738.281,-126.813 727.77,-128.141 736.815,-133.657 738.281,-126.813"/>
<text text-anchor="middle" x="801" y="-162.589" font-family="Helvetica,sans-Serif" font-size="10.00"> myView</text>
</g>
<!-- Node16 -->
<g id="node16" class="node"><title>Node16</title>
<polygon fill="white" stroke="#bfbfbf" points="279.5,-103.589 279.5,-133.589 400.5,-133.589 400.5,-103.589 279.5,-103.589"/>
<text text-anchor="start" x="287.5" y="-121.589" font-family="Helvetica,sans-Serif" font-size="10.00">Map&lt; Color, ArrayList</text>
<text text-anchor="middle" x="340" y="-110.589" font-family="Helvetica,sans-Serif" font-size="10.00">&lt; Integer &gt; &gt;</text>
</g>
<!-- Node16&#45;&gt;Node15 -->
<g id="edge17" class="edge"><title>Node16&#45;&gt;Node15</title>
<path fill="none" stroke="#9a32cd" stroke-dasharray="5,2" d="M410.587,-118.589C469.881,-118.589 554.256,-118.589 610.96,-118.589"/>
<polygon fill="#9a32cd" stroke="#9a32cd" points="410.558,-115.089 400.558,-118.589 410.558,-122.089 410.558,-115.089"/>
<text text-anchor="middle" x="510" y="-121.589" font-family="Helvetica,sans-Serif" font-size="10.00"> myData</text>
</g>
<!-- Node17 -->
<g id="node17" class="node"><title>Node17</title>
<polygon fill="white" stroke="#bfbfbf" points="316.5,-65.0891 316.5,-84.0891 363.5,-84.0891 363.5,-65.0891 316.5,-65.0891"/>
<text text-anchor="middle" x="340" y="-72.0891" font-family="Helvetica,sans-Serif" font-size="10.00">Shape</text>
</g>
<!-- Node17&#45;&gt;Node15 -->
<g id="edge18" class="edge"><title>Node17&#45;&gt;Node15</title>
<path fill="none" stroke="#9a32cd" stroke-dasharray="5,2" d="M373.791,-78.1384C419.898,-83.2269 506.481,-93.1398 580,-103.589 591.536,-105.229 603.86,-107.133 615.617,-109.022"/>
<polygon fill="#9a32cd" stroke="#9a32cd" points="374.101,-74.6515 363.779,-77.0392 373.337,-81.6097 374.101,-74.6515"/>
<text text-anchor="middle" x="510" y="-106.589" font-family="Helvetica,sans-Serif" font-size="10.00"> myColorGrid</text>
</g>
<!-- Node18 -->
<g id="node18" class="node"><title>Node18</title>
<polygon fill="white" stroke="#bfbfbf" points="283.5,-27.0891 283.5,-46.0891 396.5,-46.0891 396.5,-27.0891 283.5,-27.0891"/>
<text text-anchor="middle" x="340" y="-34.0891" font-family="Helvetica,sans-Serif" font-size="10.00">ArrayList&lt; Button &gt;</text>
</g>
<!-- Node18&#45;&gt;Node15 -->
<g id="edge20" class="edge"><title>Node18&#45;&gt;Node15</title>
<path fill="none" stroke="#9a32cd" stroke-dasharray="5,2" d="M406.839,-40.4276C455.585,-44.653 523.12,-53.4405 580,-71.5891 608.706,-80.7483 639.357,-98.1273 657.037,-108.993"/>
<polygon fill="#9a32cd" stroke="#9a32cd" points="406.987,-36.928 396.733,-39.5935 406.412,-43.9043 406.987,-36.928"/>
<text text-anchor="middle" x="510" y="-74.5891" font-family="Helvetica,sans-Serif" font-size="10.00"> myButtons</text>
</g>
<!-- Node19 -->
<g id="node19" class="node"><title>Node19</title>
<polygon fill="white" stroke="#bfbfbf" points="13,-45.0891 13,-64.0891 135,-64.0891 135,-45.0891 13,-45.0891"/>
<text text-anchor="middle" x="74" y="-52.0891" font-family="Helvetica,sans-Serif" font-size="10.00">Map&lt; String, String &gt;</text>
</g>
<!-- Node19&#45;&gt;Node3 -->
<g id="edge28" class="edge"><title>Node19&#45;&gt;Node3</title>
<path fill="none" stroke="#9a32cd" stroke-dasharray="5,2" d="M104.948,-68.7689C141.571,-87.5158 203.213,-123.834 240,-171.589 253.904,-189.639 243.127,-202.329 258,-219.589 272.176,-236.041 293.927,-247.656 311.32,-254.959"/>
<polygon fill="#9a32cd" stroke="#9a32cd" points="106.273,-65.5182 95.7648,-64.1684 103.138,-71.7768 106.273,-65.5182"/>
<text text-anchor="middle" x="203" y="-174.589" font-family="Helvetica,sans-Serif" font-size="10.00"> myStyles</text>
</g>
<!-- Node19&#45;&gt;Node15 -->
<g id="edge21" class="edge"><title>Node19&#45;&gt;Node15</title>
<path fill="none" stroke="#9a32cd" stroke-dasharray="5,2" d="M112.201,-41.8201C148.788,-29.9835 206.487,-13.2325 258,-6.58905 330.29,2.73394 349.52,1.12117 422,-6.58905 493.427,-14.1872 515.56,-8.85533 580,-40.5891 615.505,-58.0737 648.73,-92.2558 663.689,-108.95"/>
<polygon fill="#9a32cd" stroke="#9a32cd" points="110.874,-38.5719 102.464,-45.0159 113.057,-45.2229 110.874,-38.5719"/>
<text text-anchor="middle" x="340" y="-9.58905" font-family="Helvetica,sans-Serif" font-size="10.00"> myStyles</text>
</g>
<!-- Node20 -->
<g id="node20" class="node"><title>Node20</title>
<polygon fill="white" stroke="#bfbfbf" points="319,-191.089 319,-210.089 361,-210.089 361,-191.089 319,-191.089"/>
<text text-anchor="middle" x="340" y="-198.089" font-family="Helvetica,sans-Serif" font-size="10.00">HBox</text>
</g>
<!-- Node20&#45;&gt;Node15 -->
<g id="edge22" class="edge"><title>Node20&#45;&gt;Node15</title>
<path fill="none" stroke="#9a32cd" stroke-dasharray="5,2" d="M371.095,-199.444C427.419,-196.799 546.123,-188.703 580,-166.589 592.703,-158.297 585.772,-146.567 598,-137.589 603.239,-133.743 609.183,-130.673 615.371,-128.223"/>
<polygon fill="#9a32cd" stroke="#9a32cd" points="370.858,-195.951 361.022,-199.89 371.167,-202.944 370.858,-195.951"/>
<text text-anchor="middle" x="510" y="-197.589" font-family="Helvetica,sans-Serif" font-size="10.00"> myTop</text>
</g>
<!-- Node21 -->
<g id="node21" class="node"><title>Node21</title>
<polygon fill="white" stroke="#bfbfbf" points="304,-153.089 304,-172.089 376,-172.089 376,-153.089 304,-153.089"/>
<text text-anchor="middle" x="340" y="-160.089" font-family="Helvetica,sans-Serif" font-size="10.00">BorderPane</text>
</g>
<!-- Node21&#45;&gt;Node15 -->
<g id="edge23" class="edge"><title>Node21&#45;&gt;Node15</title>
<path fill="none" stroke="#9a32cd" stroke-dasharray="5,2" d="M386.382,-157.641C434.511,-152.263 512.726,-143.151 580,-133.589 591.536,-131.949 603.86,-130.046 615.617,-128.156"/>
<polygon fill="#9a32cd" stroke="#9a32cd" points="385.842,-154.18 376.29,-158.763 386.616,-161.137 385.842,-154.18"/>
<text text-anchor="middle" x="510" y="-154.589" font-family="Helvetica,sans-Serif" font-size="10.00"> root</text>
</g>
<!-- Node22 -->
<g id="node22" class="node"><title>Node22</title>
<g id="a_node22"><a xlink:href="../../dc/de1/classmodel_1_1neighbors_1_1_neighbors.html" target="_top" xlink:title="model.neighbors.Neighbors">
<polygon fill="white" stroke="black" points="598.5,-147.089 598.5,-166.089 747.5,-166.089 747.5,-147.089 598.5,-147.089"/>
<text text-anchor="middle" x="673" y="-154.089" font-family="Helvetica,sans-Serif" font-size="10.00">model.neighbors.Neighbors</text>
</a>
</g>
</g>
<!-- Node22&#45;&gt;Node7 -->
<g id="edge24" class="edge"><title>Node22&#45;&gt;Node7</title>
<path fill="none" stroke="#9a32cd" stroke-dasharray="5,2" d="M738.499,-167.969C768.308,-173.576 804.097,-180.802 836,-188.589 858.263,-194.023 883.091,-201.298 901.919,-207.07"/>
<polygon fill="#9a32cd" stroke="#9a32cd" points="739.106,-164.522 728.634,-166.131 737.824,-171.404 739.106,-164.522"/>
<text text-anchor="middle" x="801" y="-191.589" font-family="Helvetica,sans-Serif" font-size="10.00"> myNeighbors</text>
</g>
<!-- Node23 -->
<g id="node23" class="node"><title>Node23</title>
<polygon fill="white" stroke="#bfbfbf" points="27.5,-198.089 27.5,-217.089 120.5,-217.089 120.5,-198.089 27.5,-198.089"/>
<text text-anchor="middle" x="74" y="-205.089" font-family="Helvetica,sans-Serif" font-size="10.00">ResourceBundle</text>
</g>
<!-- Node23&#45;&gt;Node3 -->
<g id="edge25" class="edge"><title>Node23&#45;&gt;Node3</title>
<path fill="none" stroke="#9a32cd" stroke-dasharray="5,2" d="M130.823,-216.504C162.901,-221.935 203.874,-229.395 240,-237.589 262.412,-242.673 287.375,-249.489 306.628,-255.001"/>
<polygon fill="#9a32cd" stroke="#9a32cd" points="131.179,-213.015 120.737,-214.814 130.021,-219.919 131.179,-213.015"/>
<text text-anchor="middle" x="203" y="-240.589" font-family="Helvetica,sans-Serif" font-size="10.00"> myProperties</text>
</g>
<!-- Node24 -->
<g id="node24" class="node"><title>Node24</title>
<polygon fill="white" stroke="#bfbfbf" points="50.5,-160.089 50.5,-179.089 97.5,-179.089 97.5,-160.089 50.5,-160.089"/>
<text text-anchor="middle" x="74" y="-167.089" font-family="Helvetica,sans-Serif" font-size="10.00">Scene</text>
</g>
<!-- Node24&#45;&gt;Node3 -->
<g id="edge26" class="edge"><title>Node24&#45;&gt;Node3</title>
<path fill="none" stroke="#9a32cd" stroke-dasharray="5,2" d="M107.868,-174.212C141.863,-179.711 196.032,-190.499 240,-208.589 248.67,-212.156 249.9,-214.867 258,-219.589 279.541,-232.148 304.691,-245.995 321.183,-254.967"/>
<polygon fill="#9a32cd" stroke="#9a32cd" points="107.997,-170.69 97.5779,-172.61 106.92,-177.607 107.997,-170.69"/>
<text text-anchor="middle" x="203" y="-211.589" font-family="Helvetica,sans-Serif" font-size="10.00"> myScene</text>
</g>
<!-- Node25 -->
<g id="node25" class="node"><title>Node25</title>
<polygon fill="white" stroke="#bfbfbf" points="51,-350.089 51,-369.089 97,-369.089 97,-350.089 51,-350.089"/>
<text text-anchor="middle" x="74" y="-357.089" font-family="Helvetica,sans-Serif" font-size="10.00">Group</text>
</g>
<!-- Node25&#45;&gt;Node3 -->
<g id="edge29" class="edge"><title>Node25&#45;&gt;Node3</title>
<path fill="none" stroke="#9a32cd" stroke-dasharray="5,2" d="M107.523,-355.335C141.45,-350.203 195.759,-340.018 240,-322.589 272.619,-309.739 307.18,-287.144 325.595,-274.277"/>
<polygon fill="#9a32cd" stroke="#9a32cd" points="106.655,-351.924 97.262,-356.826 107.661,-358.851 106.655,-351.924"/>
<text text-anchor="middle" x="203" y="-347.589" font-family="Helvetica,sans-Serif" font-size="10.00"> myGroup</text>
</g>
</g>
</svg>
        <g id="navigator" transform="translate(0 0)" fill="#404254">
                <rect fill="#f2f5e9" fill-opacity="0.5" stroke="#606060" stroke-width=".5" x="0" y="0" width="60" height="60"/>
                <use id="zoomplus" xlink:href="#zoomPlus" x="17" y="9" onmousedown="handleZoom(evt,'in')"/>
                <use id="zoomminus" xlink:href="#zoomMin" x="42" y="9" onmousedown="handleZoom(evt,'out')"/>
                <use id="reset" xlink:href="#resetDef" x="30" y="36" onmousedown="handleReset()"/>
                <g id="arrowUp" xlink:href="#dirArrow" transform="translate(30 24)" onmousedown="handlePan(0,-1)">
                  <use xlink:href="#rim" fill="#404040">
                        <set attributeName="fill" to="#808080" begin="arrowUp.mouseover" end="arrowUp.mouseout"/>
                  </use>
                  <path fill="none" stroke="white" stroke-width="1.5" d="M0,-3.0v7 M-2.5,-0.5L0,-3.0L2.5,-0.5"/>
                </g>
                <g id="arrowRight" xlink:href="#dirArrow" transform="rotate(90) translate(36 -43)" onmousedown="handlePan(1,0)">
                  <use xlink:href="#rim" fill="#404040">
                        <set attributeName="fill" to="#808080" begin="arrowRight.mouseover" end="arrowRight.mouseout"/>
                  </use>
                  <path fill="none" stroke="white" stroke-width="1.5" d="M0,-3.0v7 M-2.5,-0.5L0,-3.0L2.5,-0.5"/>
                </g>
                <g id="arrowDown" xlink:href="#dirArrow" transform="rotate(180) translate(-30 -48)" onmousedown="handlePan(0,1)">
                  <use xlink:href="#rim" fill="#404040">
                        <set attributeName="fill" to="#808080" begin="arrowDown.mouseover" end="arrowDown.mouseout"/>
                  </use>
                  <path fill="none" stroke="white" stroke-width="1.5" d="M0,-3.0v7 M-2.5,-0.5L0,-3.0L2.5,-0.5"/>
                </g>
                <g id="arrowLeft" xlink:href="#dirArrow" transform="rotate(270) translate(-36 17)" onmousedown="handlePan(-1,0)">
                  <use xlink:href="#rim" fill="#404040">
                        <set attributeName="fill" to="#808080" begin="arrowLeft.mouseover" end="arrowLeft.mouseout"/>
                  </use>
                  <path fill="none" stroke="white" stroke-width="1.5" d="M0,-3.0v7 M-2.5,-0.5L0,-3.0L2.5,-0.5"/>
                </g>
        </g>
        <svg viewBox="0 0 15 15" width="100%" height="30px" preserveAspectRatio="xMaxYMin meet">
         <g id="arrow_out" transform="scale(0.3 0.3)">
          <a xlink:href="classview_1_1_sim_screen_button__coll__graph_org.svg" target="_base">
           <rect id="button" ry="5" rx="5" y="6" x="6" height="38" width="38"
                fill="#f2f5e9" fill-opacity="0.5" stroke="#606060" stroke-width="1.0"/>
           <path id="arrow"
             d="M 11.500037,31.436501 C 11.940474,20.09759 22.043105,11.32322 32.158766,21.979434 L 37.068811,17.246167 C 37.068811,17.246167 37.088388,32 37.088388,32 L 22.160133,31.978069 C 22.160133,31.978069 26.997745,27.140456 26.997745,27.140456 C 18.528582,18.264221 13.291696,25.230495 11.500037,31.436501 z"
             style="fill:#404040;"/>
          </a>
         </g>
        </svg>
</svg>
