<?xml version="1.0" encoding="UTF-8" standalone="no"?>
<!DOCTYPE svg PUBLIC "-//W3C//DTD SVG 1.1//EN"
 "http://www.w3.org/Graphics/SVG/1.1/DTD/svg11.dtd">
<!-- Generated by graphviz version 2.36.0 (20140111.2315)
 -->
<!-- Title: view.TriangleGrid Pages: 1 -->
<svg width="118pt" height="154pt"
 viewBox="0.00 0.00 118.00 154.00" xmlns="http://www.w3.org/2000/svg" xmlns:xlink="http://www.w3.org/1999/xlink">
<g id="graph0" class="graph" transform="scale(1 1) rotate(0) translate(4 150)">
<title>view.TriangleGrid</title>
<polygon fill="white" stroke="none" points="-4,4 -4,-150 114,-150 114,4 -4,4"/>
<!-- Node1 -->
<g id="node1" class="node"><title>Node1</title>
<polygon fill="#bfbfbf" stroke="black" points="-0.5,-0.5 -0.5,-19.5 94.5,-19.5 94.5,-0.5 -0.5,-0.5"/>
<text text-anchor="middle" x="47" y="-7.5" font-family="Helvetica,sans-Serif" font-size="10.00">view.TriangleGrid</text>
</g>
<!-- Node2 -->
<g id="node2" class="node"><title>Node2</title>
<g id="a_node2"><a xlink:href="../../d7/d7e/classview_1_1_shape_grid.html" target="_top" xlink:title="view.ShapeGrid">
<polygon fill="white" stroke="black" points="2.5,-58.5 2.5,-77.5 91.5,-77.5 91.5,-58.5 2.5,-58.5"/>
<text text-anchor="middle" x="47" y="-65.5" font-family="Helvetica,sans-Serif" font-size="10.00">view.ShapeGrid</text>
</a>
</g>
</g>
<!-- Node2&#45;&gt;Node1 -->
<g id="edge1" class="edge"><title>Node2&#45;&gt;Node1</title>
<path fill="none" stroke="midnightblue" d="M47,-47.953C47,-38.2875 47,-27.0312 47,-19.5052"/>
<polygon fill="midnightblue" stroke="midnightblue" points="43.5001,-48.25 47,-58.25 50.5001,-48.25 43.5001,-48.25"/>
</g>
<!-- Node3 -->
<g id="node3" class="node"><title>Node3</title>
<polygon fill="white" stroke="#bfbfbf" points="23.5,-126.5 23.5,-145.5 70.5,-145.5 70.5,-126.5 23.5,-126.5"/>
<text text-anchor="middle" x="47" y="-133.5" font-family="Helvetica,sans-Serif" font-size="10.00">Shape</text>
</g>
<!-- Node3&#45;&gt;Node2 -->
<g id="edge2" class="edge"><title>Node3&#45;&gt;Node2</title>
<path fill="none" stroke="#9a32cd" stroke-dasharray="5,2" d="M47,-116.041C47,-103.472 47,-87.5631 47,-77.8411"/>
<polygon fill="#9a32cd" stroke="#9a32cd" points="43.5001,-116.372 47,-126.372 50.5001,-116.372 43.5001,-116.372"/>
<text text-anchor="middle" x="78.5" y="-99.5" font-family="Helvetica,sans-Serif" font-size="10.00"> myColorGrid</text>
</g>
</g>
</svg>
