<?xml version="1.0" encoding="UTF-8" standalone="no"?>
<!DOCTYPE svg PUBLIC "-//W3C//DTD SVG 1.1//EN"
 "http://www.w3.org/Graphics/SVG/1.1/DTD/svg11.dtd">
<!-- Generated by graphviz version 2.36.0 (20140111.2315)
 -->
<!-- Title: model.simulations.Simulation Pages: 1 -->
<!--zoomable 495 -->
<svg id="main" version="1.1" xmlns="http://www.w3.org/2000/svg" xmlns:xlink="http://www.w3.org/1999/xlink" xml:space="preserve" onload="init(evt)">
<style type="text/css"><![CDATA[
.edge:hover path { stroke: red; }
.edge:hover polygon { stroke: red; fill: red; }
]]></style>
<script type="text/javascript"><![CDATA[
var edges = document.getElementsByTagName('g');
if (edges && edges.length) {
  for (var i=0;i<edges.length;i++) {
    if (edges[i].id.substr(0,4)=='edge') {
      edges[i].setAttribute('class','edge');
    }
  }
}
]]></script>
        <defs>
                <circle id="rim" cx="0" cy="0" r="7"/>
                <circle id="rim2" cx="0" cy="0" r="3.5"/>
                <g id="zoomPlus">
                        <use xlink:href="#rim" fill="#404040">
                                <set attributeName="fill" to="#808080" begin="zoomplus.mouseover" end="zoomplus.mouseout"/>
                        </use>
                        <path d="M-4,0h8M0,-4v8" fill="none" stroke="white" stroke-width="1.5" pointer-events="none"/>
                </g>
                <g id="zoomMin">
                        <use xlink:href="#rim" fill="#404040">
                                <set attributeName="fill" to="#808080" begin="zoomminus.mouseover" end="zoomminus.mouseout"/>
                        </use>
                        <path d="M-4,0h8" fill="none" stroke="white" stroke-width="1.5" pointer-events="none"/>
                </g>
                <g id="dirArrow">
                        <path fill="none" stroke="white" stroke-width="1.5" d="M0,-3.0v7 M-2.5,-0.5L0,-3.0L2.5,-0.5"/>
                </g>
               <g id="resetDef">
                       <use xlink:href="#rim2" fill="#404040">
                               <set attributeName="fill" to="#808080" begin="reset.mouseover" end="reset.mouseout"/>
                       </use>
               </g>
        </defs>

<script type="text/javascript">
var viewWidth = 1326;
var viewHeight = 495;
var sectionId = 'dynsection-1';
</script>
<script xlink:href="../../svgpan.js"/>
<svg id="graph" class="graph">
<g id="viewport">
<title>model.simulations.Simulation</title>
<polygon fill="white" stroke="none" points="-4,4 -4,-491.07 1322,-491.07 1322,4 -4,4"/>
<!-- Node1 -->
<g id="node1" class="node"><title>Node1</title>
<polygon fill="#bfbfbf" stroke="black" points="554,-417.57 554,-436.57 712,-436.57 712,-417.57 554,-417.57"/>
<text text-anchor="middle" x="633" y="-424.57" font-family="Helvetica,sans-Serif" font-size="10.00">model.simulations.Simulation</text>
</g>
<!-- Node12 -->
<g id="node12" class="node"><title>Node12</title>
<g id="a_node12"><a xlink:href="../../d6/d7b/classcontroller_1_1_cell_society_controller.html" target="_top" xlink:title="controller.CellSocietyController">
<polygon fill="white" stroke="black" points="854.5,-267.57 854.5,-286.57 1017.5,-286.57 1017.5,-267.57 854.5,-267.57"/>
<text text-anchor="middle" x="936" y="-274.57" font-family="Helvetica,sans-Serif" font-size="10.00">controller.CellSocietyController</text>
</a>
</g>
</g>
<!-- Node1&#45;&gt;Node12 -->
<g id="edge17" class="edge"><title>Node1&#45;&gt;Node12</title>
<path fill="none" stroke="#9a32cd" stroke-dasharray="5,2" d="M720.518,-416.23C770.544,-409.458 825.625,-400.941 836,-395.07 883.246,-368.337 917.814,-309.802 930.102,-286.711"/>
<polygon fill="#9a32cd" stroke="#9a32cd" points="720.042,-412.763 710.595,-417.56 720.972,-419.701 720.042,-412.763"/>
<text text-anchor="middle" x="783" y="-418.07" font-family="Helvetica,sans-Serif" font-size="10.00"> myCurrentSimulation</text>
</g>
<!-- Node2 -->
<g id="node2" class="node"><title>Node2</title>
<g id="a_node2"><a xlink:href="../../dc/d86/classmodel_1_1simulations_1_1_abstract_cell_factory.html" target="_top" xlink:title="model.simulations.Abstract\lCellFactory">
<polygon fill="white" stroke="black" points="299,-456.07 299,-486.07 447,-486.07 447,-456.07 299,-456.07"/>
<text text-anchor="start" x="307" y="-474.07" font-family="Helvetica,sans-Serif" font-size="10.00">model.simulations.Abstract</text>
<text text-anchor="middle" x="373" y="-463.07" font-family="Helvetica,sans-Serif" font-size="10.00">CellFactory</text>
</a>
</g>
</g>
<!-- Node2&#45;&gt;Node1 -->
<g id="edge1" class="edge"><title>Node2&#45;&gt;Node1</title>
<path fill="none" stroke="#9a32cd" stroke-dasharray="5,2" d="M457.5,-456.83C496.372,-450.2 541.567,-442.493 576.221,-436.583"/>
<polygon fill="#9a32cd" stroke="#9a32cd" points="456.512,-453.448 447.242,-458.579 457.688,-460.348 456.512,-453.448"/>
<text text-anchor="middle" x="501" y="-458.07" font-family="Helvetica,sans-Serif" font-size="10.00"> myCellFactory</text>
</g>
<!-- Node3 -->
<g id="node3" class="node"><title>Node3</title>
<g id="a_node3"><a xlink:href="../../da/d6d/classmodel_1_1gridrules_1_1_grid_rules.html" target="_top" xlink:title="model.gridrules.GridRules">
<polygon fill="white" stroke="black" points="304,-417.57 304,-436.57 442,-436.57 442,-417.57 304,-417.57"/>
<text text-anchor="middle" x="373" y="-424.57" font-family="Helvetica,sans-Serif" font-size="10.00">model.gridrules.GridRules</text>
</a>
</g>
</g>
<!-- Node3&#45;&gt;Node1 -->
<g id="edge2" class="edge"><title>Node3&#45;&gt;Node1</title>
<path fill="none" stroke="#9a32cd" stroke-dasharray="5,2" d="M452.385,-427.07C484.567,-427.07 521.745,-427.07 553.898,-427.07"/>
<polygon fill="#9a32cd" stroke="#9a32cd" points="452.124,-423.57 442.124,-427.07 452.124,-430.57 452.124,-423.57"/>
<text text-anchor="middle" x="501" y="-430.07" font-family="Helvetica,sans-Serif" font-size="10.00"> myGridRules</text>
</g>
<!-- Node4 -->
<g id="node4" class="node"><title>Node4</title>
<g id="a_node4"><a xlink:href="../../db/d90/classmodel_1_1patches_1_1_patch.html" target="_top" xlink:title="model.patches.Patch">
<polygon fill="white" stroke="black" points="314.5,-137.57 314.5,-156.57 431.5,-156.57 431.5,-137.57 314.5,-137.57"/>
<text text-anchor="middle" x="373" y="-144.57" font-family="Helvetica,sans-Serif" font-size="10.00">model.patches.Patch</text>
</a>
</g>
</g>
<!-- Node4&#45;&gt;Node1 -->
<g id="edge3" class="edge"><title>Node4&#45;&gt;Node1</title>
<path fill="none" stroke="#9a32cd" stroke-dasharray="5,2" d="M432.788,-160.857C438.297,-163.656 443.495,-167.022 448,-171.07 490.918,-209.627 509.672,-371.142 554,-408.07 558.605,-411.906 563.863,-414.989 569.426,-417.465"/>
<polygon fill="#9a32cd" stroke="#9a32cd" points="433.851,-157.501 423.289,-156.662 431.023,-163.904 433.851,-157.501"/>
<text text-anchor="middle" x="501" y="-385.07" font-family="Helvetica,sans-Serif" font-size="10.00"> myPatchGrid</text>
</g>
<!-- Node6 -->
<g id="node6" class="node"><title>Node6</title>
<g id="a_node6"><a xlink:href="../../dc/d41/classmodel_1_1cells_1_1_cell.html" target="_top" xlink:title="model.cells.Cell">
<polygon fill="white" stroke="black" points="587.5,-113.57 587.5,-132.57 678.5,-132.57 678.5,-113.57 587.5,-113.57"/>
<text text-anchor="middle" x="633" y="-120.57" font-family="Helvetica,sans-Serif" font-size="10.00">model.cells.Cell</text>
</a>
</g>
</g>
<!-- Node4&#45;&gt;Node6 -->
<g id="edge7" class="edge"><title>Node4&#45;&gt;Node6</title>
<path fill="none" stroke="#9a32cd" stroke-dasharray="5,2" d="M411.597,-134.429C428.086,-129.52 447.794,-124.5 466,-122.07 506.85,-116.619 553.86,-117.569 587.401,-119.471"/>
<polygon fill="#9a32cd" stroke="#9a32cd" points="410.318,-131.161 401.789,-137.447 412.377,-137.851 410.318,-131.161"/>
<text text-anchor="middle" x="501" y="-125.07" font-family="Helvetica,sans-Serif" font-size="10.00"> myPatch</text>
</g>
<!-- Node5 -->
<g id="node5" class="node"><title>Node5</title>
<polygon fill="white" stroke="#bfbfbf" points="14,-172.57 14,-191.57 142,-191.57 142,-172.57 14,-172.57"/>
<text text-anchor="middle" x="78" y="-179.57" font-family="Helvetica,sans-Serif" font-size="10.00">Map&lt; String, Double &gt;</text>
</g>
<!-- Node5&#45;&gt;Node4 -->
<g id="edge4" class="edge"><title>Node5&#45;&gt;Node4</title>
<path fill="none" stroke="#9a32cd" stroke-dasharray="5,2" d="M151.136,-171.126C158.849,-170.049 166.583,-169.01 174,-168.07 221.154,-162.097 274.775,-156.482 314.312,-152.564"/>
<polygon fill="#9a32cd" stroke="#9a32cd" points="150.449,-167.688 141.039,-172.557 151.431,-174.619 150.449,-167.688"/>
<text text-anchor="middle" x="227" y="-171.07" font-family="Helvetica,sans-Serif" font-size="10.00"> myPatchPropertyMap</text>
</g>
<!-- Node5&#45;&gt;Node6 -->
<g id="edge8" class="edge"><title>Node5&#45;&gt;Node6</title>
<path fill="none" stroke="#9a32cd" stroke-dasharray="5,2" d="M152.185,-192.047C245.175,-201.614 408.859,-207.901 536,-156.07 545.385,-152.244 544.874,-146.478 554,-142.07 564.291,-137.099 575.992,-133.363 587.144,-130.581"/>
<polygon fill="#9a32cd" stroke="#9a32cd" points="152.347,-188.545 142.031,-190.961 151.602,-195.505 152.347,-188.545"/>
<text text-anchor="middle" x="373" y="-202.07" font-family="Helvetica,sans-Serif" font-size="10.00"> myPropertyMap</text>
</g>
<!-- Node6&#45;&gt;Node4 -->
<g id="edge5" class="edge"><title>Node6&#45;&gt;Node4</title>
<path fill="none" stroke="#9a32cd" stroke-dasharray="5,2" d="M577.068,-130.42C563.648,-132.082 549.319,-133.745 536,-135.07 501.482,-138.504 462.736,-141.408 431.793,-143.499"/>
<polygon fill="#9a32cd" stroke="#9a32cd" points="577.636,-133.877 587.121,-129.155 576.762,-126.931 577.636,-133.877"/>
<text text-anchor="middle" x="501" y="-144.07" font-family="Helvetica,sans-Serif" font-size="10.00"> myCell</text>
</g>
<!-- Node7 -->
<g id="node7" class="node"><title>Node7</title>
<polygon fill="white" stroke="#bfbfbf" points="308,-79.57 308,-98.57 438,-98.57 438,-79.57 308,-79.57"/>
<text text-anchor="middle" x="373" y="-86.57" font-family="Helvetica,sans-Serif" font-size="10.00">List&lt; model.cells.Cell &gt;</text>
</g>
<!-- Node7&#45;&gt;Node6 -->
<g id="edge6" class="edge"><title>Node7&#45;&gt;Node6</title>
<path fill="none" stroke="#9a32cd" stroke-dasharray="5,2" d="M448.07,-93.6048C475.746,-95.7889 507.393,-98.8693 536,-103.07 554.36,-105.766 574.489,-109.792 591.552,-113.527"/>
<polygon fill="#9a32cd" stroke="#9a32cd" points="448.303,-90.1126 438.066,-92.8403 447.77,-97.0922 448.303,-90.1126"/>
<text text-anchor="middle" x="501" y="-106.07" font-family="Helvetica,sans-Serif" font-size="10.00"> myNeighbors</text>
</g>
<!-- Node8 -->
<g id="node8" class="node"><title>Node8</title>
<polygon fill="white" stroke="#bfbfbf" points="0,-123.57 0,-142.57 156,-142.57 156,-123.57 0,-123.57"/>
<text text-anchor="middle" x="78" y="-130.57" font-family="Helvetica,sans-Serif" font-size="10.00">List&lt; model.patches.Patch &gt;</text>
</g>
<!-- Node8&#45;&gt;Node4 -->
<g id="edge9" class="edge"><title>Node8&#45;&gt;Node4</title>
<path fill="none" stroke="#9a32cd" stroke-dasharray="5,2" d="M166.672,-130.934C201.93,-130.745 242.938,-131.372 280,-134.07 291.101,-134.878 302.901,-136.195 314.218,-137.688"/>
<polygon fill="#9a32cd" stroke="#9a32cd" points="166.381,-127.436 156.408,-131.012 166.434,-134.436 166.381,-127.436"/>
<text text-anchor="middle" x="227" y="-137.07" font-family="Helvetica,sans-Serif" font-size="10.00"> myNeighbors</text>
</g>
<!-- Node9 -->
<g id="node9" class="node"><title>Node9</title>
<g id="a_node9"><a xlink:href="../../d1/d3e/classview_1_1_simulation_screen.html" target="_top" xlink:title="view.SimulationScreen">
<polygon fill="white" stroke="black" points="1194,-167.57 1194,-186.57 1318,-186.57 1318,-167.57 1194,-167.57"/>
<text text-anchor="middle" x="1256" y="-174.57" font-family="Helvetica,sans-Serif" font-size="10.00">view.SimulationScreen</text>
</a>
</g>
</g>
<!-- Node9&#45;&gt;Node1 -->
<g id="edge10" class="edge"><title>Node9&#45;&gt;Node1</title>
<path fill="none" stroke="#9a32cd" stroke-dasharray="5,2" d="M1247.25,-196.127C1235.55,-222.686 1210.97,-270.752 1176,-299.07 1050.27,-400.881 995.091,-399.693 836,-429.07 795.649,-436.521 749.988,-436.744 712.299,-434.789"/>
<polygon fill="#9a32cd" stroke="#9a32cd" points="1250.53,-197.355 1251.23,-186.783 1244.09,-194.617 1250.53,-197.355"/>
<text text-anchor="middle" x="936" y="-429.07" font-family="Helvetica,sans-Serif" font-size="10.00"> myView</text>
</g>
<!-- Node9&#45;&gt;Node12 -->
<g id="edge20" class="edge"><title>Node9&#45;&gt;Node12</title>
<path fill="none" stroke="#9a32cd" stroke-dasharray="5,2" d="M1243.21,-195.036C1229.56,-214.134 1205.17,-243.422 1176,-257.07 1126.78,-280.096 1065.64,-284.843 1017.51,-283.964"/>
<polygon fill="#9a32cd" stroke="#9a32cd" points="1246.23,-196.814 1249.02,-186.592 1240.47,-192.844 1246.23,-196.814"/>
<text text-anchor="middle" x="1106" y="-287.07" font-family="Helvetica,sans-Serif" font-size="10.00"> myCurrentSimulationScreen</text>
</g>
<!-- Node10 -->
<g id="node10" class="node"><title>Node10</title>
<polygon fill="white" stroke="#bfbfbf" points="875.5,-206.07 875.5,-236.07 996.5,-236.07 996.5,-206.07 875.5,-206.07"/>
<text text-anchor="start" x="883.5" y="-224.07" font-family="Helvetica,sans-Serif" font-size="10.00">Map&lt; Color, ArrayList</text>
<text text-anchor="middle" x="936" y="-213.07" font-family="Helvetica,sans-Serif" font-size="10.00">&lt; Integer &gt; &gt;</text>
</g>
<!-- Node10&#45;&gt;Node9 -->
<g id="edge11" class="edge"><title>Node10&#45;&gt;Node9</title>
<path fill="none" stroke="#9a32cd" stroke-dasharray="5,2" d="M1007.16,-212.007C1054.81,-205.77 1119.24,-197.179 1176,-189.07 1181.77,-188.246 1187.77,-187.369 1193.77,-186.479"/>
<polygon fill="#9a32cd" stroke="#9a32cd" points="1006.42,-208.574 996.955,-213.34 1007.32,-215.515 1006.42,-208.574"/>
<text text-anchor="middle" x="1106" y="-211.07" font-family="Helvetica,sans-Serif" font-size="10.00"> myData</text>
</g>
<!-- Node11 -->
<g id="node11" class="node"><title>Node11</title>
<polygon fill="white" stroke="#bfbfbf" points="912.5,-167.57 912.5,-186.57 959.5,-186.57 959.5,-167.57 912.5,-167.57"/>
<text text-anchor="middle" x="936" y="-174.57" font-family="Helvetica,sans-Serif" font-size="10.00">Shape</text>
</g>
<!-- Node11&#45;&gt;Node9 -->
<g id="edge12" class="edge"><title>Node11&#45;&gt;Node9</title>
<path fill="none" stroke="#9a32cd" stroke-dasharray="5,2" d="M969.739,-177.07C1022.43,-177.07 1126.89,-177.07 1193.72,-177.07"/>
<polygon fill="#9a32cd" stroke="#9a32cd" points="969.615,-173.57 959.615,-177.07 969.615,-180.57 969.615,-173.57"/>
<text text-anchor="middle" x="1106" y="-180.07" font-family="Helvetica,sans-Serif" font-size="10.00"> myColorGrid</text>
</g>
<!-- Node12&#45;&gt;Node9 -->
<g id="edge13" class="edge"><title>Node12&#45;&gt;Node9</title>
<path fill="none" stroke="#9a32cd" stroke-dasharray="5,2" d="M973.554,-264.272C992.09,-258.13 1015.06,-251.043 1036,-246.07 1097.35,-231.502 1116.66,-244.399 1176,-223.07 1200.94,-214.105 1226.96,-197.261 1242.04,-186.633"/>
<polygon fill="#9a32cd" stroke="#9a32cd" points="972.391,-260.971 964.027,-267.475 974.621,-267.606 972.391,-260.971"/>
<text text-anchor="middle" x="1106" y="-249.07" font-family="Helvetica,sans-Serif" font-size="10.00"> myController</text>
</g>
<!-- Node13 -->
<g id="node13" class="node"><title>Node13</title>
<polygon fill="white" stroke="#bfbfbf" points="605,-379.57 605,-398.57 661,-398.57 661,-379.57 605,-379.57"/>
<text text-anchor="middle" x="633" y="-386.57" font-family="Helvetica,sans-Serif" font-size="10.00">Timeline</text>
</g>
<!-- Node13&#45;&gt;Node12 -->
<g id="edge14" class="edge"><title>Node13&#45;&gt;Node12</title>
<path fill="none" stroke="#9a32cd" stroke-dasharray="5,2" d="M671.053,-388.588C712.825,-386.804 781.956,-380.057 836,-356.07 874.187,-339.121 910.223,-303.814 926.267,-286.736"/>
<polygon fill="#9a32cd" stroke="#9a32cd" points="670.918,-385.09 661.049,-388.942 671.166,-392.086 670.918,-385.09"/>
<text text-anchor="middle" x="783" y="-386.07" font-family="Helvetica,sans-Serif" font-size="10.00"> myTimeline</text>
</g>
<!-- Node14 -->
<g id="node14" class="node"><title>Node14</title>
<polygon fill="white" stroke="#bfbfbf" points="559.5,-341.57 559.5,-360.57 706.5,-360.57 706.5,-341.57 559.5,-341.57"/>
<text text-anchor="middle" x="633" y="-348.57" font-family="Helvetica,sans-Serif" font-size="10.00">HashMap&lt; String, String &gt;</text>
</g>
<!-- Node14&#45;&gt;Node12 -->
<g id="edge15" class="edge"><title>Node14&#45;&gt;Node12</title>
<path fill="none" stroke="#9a32cd" stroke-dasharray="5,2" d="M717.129,-342.544C753.996,-337.58 797.625,-330.07 836,-319.07 864.895,-310.787 896.603,-296.31 916.156,-286.707"/>
<polygon fill="#9a32cd" stroke="#9a32cd" points="716.383,-339.112 706.92,-343.878 717.289,-346.053 716.383,-339.112"/>
<text text-anchor="middle" x="783" y="-344.07" font-family="Helvetica,sans-Serif" font-size="10.00"> myParameters</text>
</g>
<!-- Node15 -->
<g id="node15" class="node"><title>Node15</title>
<polygon fill="white" stroke="#bfbfbf" points="610.5,-303.57 610.5,-322.57 655.5,-322.57 655.5,-303.57 610.5,-303.57"/>
<text text-anchor="middle" x="633" y="-310.57" font-family="Helvetica,sans-Serif" font-size="10.00">Stage</text>
</g>
<!-- Node15&#45;&gt;Node12 -->
<g id="edge16" class="edge"><title>Node15&#45;&gt;Node12</title>
<path fill="none" stroke="#9a32cd" stroke-dasharray="5,2" d="M665.698,-309.935C705.506,-305.924 775.88,-298.593 836,-291.07 846.937,-289.701 858.54,-288.15 869.805,-286.592"/>
<polygon fill="#9a32cd" stroke="#9a32cd" points="665.152,-306.472 655.551,-310.952 665.85,-313.437 665.152,-306.472"/>
<text text-anchor="middle" x="783" y="-307.07" font-family="Helvetica,sans-Serif" font-size="10.00"> myStage</text>
</g>
<!-- Node16 -->
<g id="node16" class="node"><title>Node16</title>
<polygon fill="white" stroke="#bfbfbf" points="586.5,-265.57 586.5,-284.57 679.5,-284.57 679.5,-265.57 586.5,-265.57"/>
<text text-anchor="middle" x="633" y="-272.57" font-family="Helvetica,sans-Serif" font-size="10.00">ResourceBundle</text>
</g>
<!-- Node16&#45;&gt;Node12 -->
<g id="edge18" class="edge"><title>Node16&#45;&gt;Node12</title>
<path fill="none" stroke="#9a32cd" stroke-dasharray="5,2" d="M689.837,-275.441C736.026,-275.748 802.242,-276.188 854.217,-276.533"/>
<polygon fill="#9a32cd" stroke="#9a32cd" points="689.738,-271.94 679.715,-275.374 689.692,-278.94 689.738,-271.94"/>
<text text-anchor="middle" x="783" y="-280.07" font-family="Helvetica,sans-Serif" font-size="10.00"> myProperties</text>
</g>
<!-- Node17 -->
<g id="node17" class="node"><title>Node17</title>
<polygon fill="white" stroke="#bfbfbf" points="609.5,-227.57 609.5,-246.57 656.5,-246.57 656.5,-227.57 609.5,-227.57"/>
<text text-anchor="middle" x="633" y="-234.57" font-family="Helvetica,sans-Serif" font-size="10.00">Scene</text>
</g>
<!-- Node17&#45;&gt;Node12 -->
<g id="edge19" class="edge"><title>Node17&#45;&gt;Node12</title>
<path fill="none" stroke="#9a32cd" stroke-dasharray="5,2" d="M666.744,-240.533C706.743,-244.862 776.445,-252.723 836,-261.07 849.88,-263.015 864.82,-265.319 878.781,-267.564"/>
<polygon fill="#9a32cd" stroke="#9a32cd" points="667.077,-237.049 656.76,-239.459 666.329,-244.009 667.077,-237.049"/>
<text text-anchor="middle" x="783" y="-264.07" font-family="Helvetica,sans-Serif" font-size="10.00"> myScene</text>
</g>
<!-- Node18 -->
<g id="node18" class="node"><title>Node18</title>
<polygon fill="white" stroke="#bfbfbf" points="572,-151.57 572,-170.57 694,-170.57 694,-151.57 572,-151.57"/>
<text text-anchor="middle" x="633" y="-158.57" font-family="Helvetica,sans-Serif" font-size="10.00">Map&lt; String, String &gt;</text>
</g>
<!-- Node18&#45;&gt;Node9 -->
<g id="edge24" class="edge"><title>Node18&#45;&gt;Node9</title>
<path fill="none" stroke="#9a32cd" stroke-dasharray="5,2" d="M704.26,-154.932C712.925,-154.258 721.664,-153.619 730,-153.07 857.751,-144.659 890.226,-139.015 1018,-147.07 1079.05,-150.919 1148.43,-160.292 1196.27,-167.545"/>
<polygon fill="#9a32cd" stroke="#9a32cd" points="703.84,-151.454 694.148,-155.735 704.394,-158.432 703.84,-151.454"/>
<text text-anchor="middle" x="936" y="-150.07" font-family="Helvetica,sans-Serif" font-size="10.00"> myStyles</text>
</g>
<!-- Node18&#45;&gt;Node12 -->
<g id="edge21" class="edge"><title>Node18&#45;&gt;Node12</title>
<path fill="none" stroke="#9a32cd" stroke-dasharray="5,2" d="M704.16,-155.131C746.812,-155.308 799.841,-162.778 836,-193.07 854.747,-208.775 837.082,-227.409 854,-245.07 864.041,-255.552 877.942,-262.673 891.396,-267.479"/>
<polygon fill="#9a32cd" stroke="#9a32cd" points="704.084,-151.632 694.116,-155.221 704.147,-158.631 704.084,-151.632"/>
<text text-anchor="middle" x="783" y="-196.07" font-family="Helvetica,sans-Serif" font-size="10.00"> myStyles</text>
</g>
<!-- Node19 -->
<g id="node19" class="node"><title>Node19</title>
<polygon fill="white" stroke="#bfbfbf" points="610,-189.57 610,-208.57 656,-208.57 656,-189.57 610,-189.57"/>
<text text-anchor="middle" x="633" y="-196.57" font-family="Helvetica,sans-Serif" font-size="10.00">Group</text>
</g>
<!-- Node19&#45;&gt;Node12 -->
<g id="edge22" class="edge"><title>Node19&#45;&gt;Node12</title>
<path fill="none" stroke="#9a32cd" stroke-dasharray="5,2" d="M666.195,-200.344C707.015,-202.879 778.945,-210.455 836,-233.07 844.938,-236.613 845.481,-240.612 854,-245.07 870.88,-253.903 890.766,-261.793 906.609,-267.529"/>
<polygon fill="#9a32cd" stroke="#9a32cd" points="666.209,-196.839 656.03,-199.778 665.82,-203.828 666.209,-196.839"/>
<text text-anchor="middle" x="783" y="-236.07" font-family="Helvetica,sans-Serif" font-size="10.00"> myGroup</text>
</g>
<!-- Node20 -->
<g id="node20" class="node"><title>Node20</title>
<polygon fill="white" stroke="#bfbfbf" points="879.5,-82.57 879.5,-101.57 992.5,-101.57 992.5,-82.57 879.5,-82.57"/>
<text text-anchor="middle" x="936" y="-89.57" font-family="Helvetica,sans-Serif" font-size="10.00">ArrayList&lt; Button &gt;</text>
</g>
<!-- Node20&#45;&gt;Node9 -->
<g id="edge23" class="edge"><title>Node20&#45;&gt;Node9</title>
<path fill="none" stroke="#9a32cd" stroke-dasharray="5,2" d="M1003,-87.6867C1052.38,-86.7883 1120.66,-90.6931 1176,-113.07 1205.78,-125.113 1233.15,-152.38 1246.48,-167.137"/>
<polygon fill="#9a32cd" stroke="#9a32cd" points="1002.66,-84.194 992.755,-87.9464 1002.84,-91.1917 1002.66,-84.194"/>
<text text-anchor="middle" x="1106" y="-116.07" font-family="Helvetica,sans-Serif" font-size="10.00"> myButtons</text>
</g>
<!-- Node21 -->
<g id="node21" class="node"><title>Node21</title>
<polygon fill="white" stroke="#bfbfbf" points="915,-44.57 915,-63.57 957,-63.57 957,-44.57 915,-44.57"/>
<text text-anchor="middle" x="936" y="-51.57" font-family="Helvetica,sans-Serif" font-size="10.00">HBox</text>
</g>
<!-- Node21&#45;&gt;Node9 -->
<g id="edge25" class="edge"><title>Node21&#45;&gt;Node9</title>
<path fill="none" stroke="#9a32cd" stroke-dasharray="5,2" d="M967.073,-49.0242C1014.65,-42.5964 1108.77,-36.3193 1176,-73.07 1215.79,-94.821 1241.63,-146.063 1251.03,-167.44"/>
<polygon fill="#9a32cd" stroke="#9a32cd" points="966.504,-45.57 957.109,-50.4666 967.507,-52.4978 966.504,-45.57"/>
<text text-anchor="middle" x="1106" y="-76.07" font-family="Helvetica,sans-Serif" font-size="10.00"> myTop</text>
</g>
<!-- Node22 -->
<g id="node22" class="node"><title>Node22</title>
<polygon fill="white" stroke="#bfbfbf" points="900,-6.57001 900,-25.57 972,-25.57 972,-6.57001 900,-6.57001"/>
<text text-anchor="middle" x="936" y="-13.57" font-family="Helvetica,sans-Serif" font-size="10.00">BorderPane</text>
</g>
<!-- Node22&#45;&gt;Node9 -->
<g id="edge26" class="edge"><title>Node22&#45;&gt;Node9</title>
<path fill="none" stroke="#9a32cd" stroke-dasharray="5,2" d="M982.364,-6.42787C1033.62,1.85468 1117.49,7.27417 1176,-30.07 1227.04,-62.6489 1247.4,-140.011 1253.15,-167.319"/>
<polygon fill="#9a32cd" stroke="#9a32cd" points="981.516,-3.02219 972.255,-8.16743 982.704,-9.9208 981.516,-3.02219"/>
<text text-anchor="middle" x="1106" y="-33.07" font-family="Helvetica,sans-Serif" font-size="10.00"> root</text>
</g>
<!-- Node23 -->
<g id="node23" class="node"><title>Node23</title>
<g id="a_node23"><a xlink:href="../../dc/de1/classmodel_1_1neighbors_1_1_neighbors.html" target="_top" xlink:title="model.neighbors.Neighbors">
<polygon fill="white" stroke="black" points="298.5,-379.57 298.5,-398.57 447.5,-398.57 447.5,-379.57 298.5,-379.57"/>
<text text-anchor="middle" x="373" y="-386.57" font-family="Helvetica,sans-Serif" font-size="10.00">model.neighbors.Neighbors</text>
</a>
</g>
</g>
<!-- Node23&#45;&gt;Node1 -->
<g id="edge27" class="edge"><title>Node23&#45;&gt;Node1</title>
<path fill="none" stroke="#9a32cd" stroke-dasharray="5,2" d="M452.597,-400.004C479.102,-403.751 508.844,-408.021 536,-412.07 547.596,-413.799 559.971,-415.695 571.848,-417.539"/>
<polygon fill="#9a32cd" stroke="#9a32cd" points="453,-396.526 442.609,-398.595 452.022,-403.457 453,-396.526"/>
<text text-anchor="middle" x="501" y="-415.07" font-family="Helvetica,sans-Serif" font-size="10.00"> myNeighbors</text>
</g>
</g>
</svg>
        <g id="navigator" transform="translate(0 0)" fill="#404254">
                <rect fill="#f2f5e9" fill-opacity="0.5" stroke="#606060" stroke-width=".5" x="0" y="0" width="60" height="60"/>
                <use id="zoomplus" xlink:href="#zoomPlus" x="17" y="9" onmousedown="handleZoom(evt,'in')"/>
                <use id="zoomminus" xlink:href="#zoomMin" x="42" y="9" onmousedown="handleZoom(evt,'out')"/>
                <use id="reset" xlink:href="#resetDef" x="30" y="36" onmousedown="handleReset()"/>
                <g id="arrowUp" xlink:href="#dirArrow" transform="translate(30 24)" onmousedown="handlePan(0,-1)">
                  <use xlink:href="#rim" fill="#404040">
                        <set attributeName="fill" to="#808080" begin="arrowUp.mouseover" end="arrowUp.mouseout"/>
                  </use>
                  <path fill="none" stroke="white" stroke-width="1.5" d="M0,-3.0v7 M-2.5,-0.5L0,-3.0L2.5,-0.5"/>
                </g>
                <g id="arrowRight" xlink:href="#dirArrow" transform="rotate(90) translate(36 -43)" onmousedown="handlePan(1,0)">
                  <use xlink:href="#rim" fill="#404040">
                        <set attributeName="fill" to="#808080" begin="arrowRight.mouseover" end="arrowRight.mouseout"/>
                  </use>
                  <path fill="none" stroke="white" stroke-width="1.5" d="M0,-3.0v7 M-2.5,-0.5L0,-3.0L2.5,-0.5"/>
                </g>
                <g id="arrowDown" xlink:href="#dirArrow" transform="rotate(180) translate(-30 -48)" onmousedown="handlePan(0,1)">
                  <use xlink:href="#rim" fill="#404040">
                        <set attributeName="fill" to="#808080" begin="arrowDown.mouseover" end="arrowDown.mouseout"/>
                  </use>
                  <path fill="none" stroke="white" stroke-width="1.5" d="M0,-3.0v7 M-2.5,-0.5L0,-3.0L2.5,-0.5"/>
                </g>
                <g id="arrowLeft" xlink:href="#dirArrow" transform="rotate(270) translate(-36 17)" onmousedown="handlePan(-1,0)">
                  <use xlink:href="#rim" fill="#404040">
                        <set attributeName="fill" to="#808080" begin="arrowLeft.mouseover" end="arrowLeft.mouseout"/>
                  </use>
                  <path fill="none" stroke="white" stroke-width="1.5" d="M0,-3.0v7 M-2.5,-0.5L0,-3.0L2.5,-0.5"/>
                </g>
        </g>
        <svg viewBox="0 0 15 15" width="100%" height="30px" preserveAspectRatio="xMaxYMin meet">
         <g id="arrow_out" transform="scale(0.3 0.3)">
          <a xlink:href="classmodel_1_1simulations_1_1_simulation__coll__graph_org.svg" target="_base">
           <rect id="button" ry="5" rx="5" y="6" x="6" height="38" width="38"
                fill="#f2f5e9" fill-opacity="0.5" stroke="#606060" stroke-width="1.0"/>
           <path id="arrow"
             d="M 11.500037,31.436501 C 11.940474,20.09759 22.043105,11.32322 32.158766,21.979434 L 37.068811,17.246167 C 37.068811,17.246167 37.088388,32 37.088388,32 L 22.160133,31.978069 C 22.160133,31.978069 26.997745,27.140456 26.997745,27.140456 C 18.528582,18.264221 13.291696,25.230495 11.500037,31.436501 z"
             style="fill:#404040;"/>
          </a>
         </g>
        </svg>
</svg>
