<?xml version="1.0" encoding="UTF-8" standalone="no"?>
<!DOCTYPE svg PUBLIC "-//W3C//DTD SVG 1.1//EN"
 "http://www.w3.org/Graphics/SVG/1.1/DTD/svg11.dtd">
<!-- Generated by graphviz version 2.36.0 (20140111.2315)
 -->
<!-- Title: view.FileLoaderScreen Pages: 1 -->
<svg width="324pt" height="96pt"
 viewBox="0.00 0.00 324.00 96.00" xmlns="http://www.w3.org/2000/svg" xmlns:xlink="http://www.w3.org/1999/xlink">
<g id="graph0" class="graph" transform="scale(1 1) rotate(0) translate(4 92)">
<title>view.FileLoaderScreen</title>
<polygon fill="white" stroke="none" points="-4,4 -4,-92 320,-92 320,4 -4,4"/>
<!-- Node1 -->
<g id="node1" class="node"><title>Node1</title>
<polygon fill="#bfbfbf" stroke="black" points="96.5,-0.5 96.5,-19.5 217.5,-19.5 217.5,-0.5 96.5,-0.5"/>
<text text-anchor="middle" x="157" y="-7.5" font-family="Helvetica,sans-Serif" font-size="10.00">view.FileLoaderScreen</text>
</g>
<!-- Node2 -->
<g id="node2" class="node"><title>Node2</title>
<polygon fill="white" stroke="#bfbfbf" points="-0.5,-68.5 -0.5,-87.5 44.5,-87.5 44.5,-68.5 -0.5,-68.5"/>
<text text-anchor="middle" x="22" y="-75.5" font-family="Helvetica,sans-Serif" font-size="10.00">Stage</text>
</g>
<!-- Node2&#45;&gt;Node1 -->
<g id="edge1" class="edge"><title>Node2&#45;&gt;Node1</title>
<path fill="none" stroke="#9a32cd" stroke-dasharray="5,2" d="M35.1107,-60.388C42.0536,-52.5856 51.1699,-43.7568 61,-38 75.3423,-29.6008 92.4279,-23.7041 108.182,-19.6142"/>
<polygon fill="#9a32cd" stroke="#9a32cd" points="32.2519,-58.3496 28.499,-68.2575 37.6114,-62.8525 32.2519,-58.3496"/>
<text text-anchor="middle" x="84.5" y="-41.5" font-family="Helvetica,sans-Serif" font-size="10.00"> myStage</text>
</g>
<!-- Node3 -->
<g id="node3" class="node"><title>Node3</title>
<polygon fill="white" stroke="#bfbfbf" points="62.5,-68.5 62.5,-87.5 155.5,-87.5 155.5,-68.5 62.5,-68.5"/>
<text text-anchor="middle" x="109" y="-75.5" font-family="Helvetica,sans-Serif" font-size="10.00">ResourceBundle</text>
</g>
<!-- Node3&#45;&gt;Node1 -->
<g id="edge2" class="edge"><title>Node3&#45;&gt;Node1</title>
<path fill="none" stroke="#9a32cd" stroke-dasharray="5,2" d="M110.562,-57.8528C111.819,-51.1354 114.052,-43.8207 118,-38 123.27,-30.2307 131.58,-24.0268 139.178,-19.5347"/>
<polygon fill="#9a32cd" stroke="#9a32cd" points="107.032,-57.8617 109.237,-68.2245 113.976,-58.7483 107.032,-57.8617"/>
<text text-anchor="middle" x="151.5" y="-41.5" font-family="Helvetica,sans-Serif" font-size="10.00"> myProperties</text>
</g>
<!-- Node4 -->
<g id="node4" class="node"><title>Node4</title>
<polygon fill="white" stroke="#bfbfbf" points="173.5,-68.5 173.5,-87.5 244.5,-87.5 244.5,-68.5 173.5,-68.5"/>
<text text-anchor="middle" x="209" y="-75.5" font-family="Helvetica,sans-Serif" font-size="10.00">FileChooser</text>
</g>
<!-- Node4&#45;&gt;Node1 -->
<g id="edge3" class="edge"><title>Node4&#45;&gt;Node1</title>
<path fill="none" stroke="#9a32cd" stroke-dasharray="5,2" d="M199.241,-59.0519C195.194,-52.2053 190.224,-44.4918 185,-38 179.666,-31.3711 172.799,-24.7268 167.201,-19.6881"/>
<polygon fill="#9a32cd" stroke="#9a32cd" points="196.46,-61.2434 204.434,-68.2194 202.551,-57.7933 196.46,-61.2434"/>
<text text-anchor="middle" x="221.5" y="-41.5" font-family="Helvetica,sans-Serif" font-size="10.00"> fileChooser</text>
</g>
<!-- Node5 -->
<g id="node5" class="node"><title>Node5</title>
<polygon fill="white" stroke="#bfbfbf" points="263.5,-68.5 263.5,-87.5 310.5,-87.5 310.5,-68.5 263.5,-68.5"/>
<text text-anchor="middle" x="287" y="-75.5" font-family="Helvetica,sans-Serif" font-size="10.00">Scene</text>
</g>
<!-- Node5&#45;&gt;Node1 -->
<g id="edge4" class="edge"><title>Node5&#45;&gt;Node1</title>
<path fill="none" stroke="#9a32cd" stroke-dasharray="5,2" d="M276.023,-59.834C270.307,-52.1446 262.695,-43.5731 254,-38 240.681,-29.463 224.657,-23.5876 209.504,-19.559"/>
<polygon fill="#9a32cd" stroke="#9a32cd" points="273.252,-61.981 281.813,-68.2231 279.013,-58.0048 273.252,-61.981"/>
<text text-anchor="middle" x="291.5" y="-41.5" font-family="Helvetica,sans-Serif" font-size="10.00"> myScene</text>
</g>
</g>
</svg>
