<?xml version="1.0" encoding="UTF-8" standalone="no"?>
<!DOCTYPE svg PUBLIC "-//W3C//DTD SVG 1.1//EN"
 "http://www.w3.org/Graphics/SVG/1.1/DTD/svg11.dtd">
<!-- Generated by graphviz version 2.36.0 (20140111.2315)
 -->
<!-- Title: model.simulations.SimulationSegregation Pages: 1 -->
<svg width="1326pt" height="477pt"
 viewBox="0.00 0.00 1326.00 477.07" xmlns="http://www.w3.org/2000/svg" xmlns:xlink="http://www.w3.org/1999/xlink">
<g id="graph0" class="graph" transform="scale(1 1) rotate(0) translate(4 473.07)">
<title>model.simulations.SimulationSegregation</title>
<polygon fill="white" stroke="none" points="-4,4 -4,-473.07 1322,-473.07 1322,4 -4,4"/>
<!-- Node1 -->
<g id="node1" class="node"><title>Node1</title>
<polygon fill="#bfbfbf" stroke="black" points="857,-437.07 857,-467.07 1015,-467.07 1015,-437.07 857,-437.07"/>
<text text-anchor="start" x="865" y="-455.07" font-family="Helvetica,sans-Serif" font-size="10.00">model.simulations.Simulation</text>
<text text-anchor="middle" x="936" y="-444.07" font-family="Helvetica,sans-Serif" font-size="10.00">Segregation</text>
</g>
<!-- Node2 -->
<g id="node2" class="node"><title>Node2</title>
<g id="a_node2"><a xlink:href="../../d0/d56/classmodel_1_1simulations_1_1_simulation.html" target="_top" xlink:title="model.simulations.Simulation">
<polygon fill="white" stroke="black" points="554,-384.57 554,-403.57 712,-403.57 712,-384.57 554,-384.57"/>
<text text-anchor="middle" x="633" y="-391.57" font-family="Helvetica,sans-Serif" font-size="10.00">model.simulations.Simulation</text>
</a>
</g>
</g>
<!-- Node2&#45;&gt;Node1 -->
<g id="edge1" class="edge"><title>Node2&#45;&gt;Node1</title>
<path fill="none" stroke="midnightblue" d="M693.361,-405.508C740.211,-414.536 805.961,-427.205 857.05,-437.05"/>
<polygon fill="midnightblue" stroke="midnightblue" points="693.849,-402.038 683.367,-403.583 692.524,-408.912 693.849,-402.038"/>
</g>
<!-- Node13 -->
<g id="node13" class="node"><title>Node13</title>
<g id="a_node13"><a xlink:href="../../d6/d7b/classcontroller_1_1_cell_society_controller.html" target="_top" xlink:title="controller.CellSocietyController">
<polygon fill="white" stroke="black" points="854.5,-259.57 854.5,-278.57 1017.5,-278.57 1017.5,-259.57 854.5,-259.57"/>
<text text-anchor="middle" x="936" y="-266.57" font-family="Helvetica,sans-Serif" font-size="10.00">controller.CellSocietyController</text>
</a>
</g>
</g>
<!-- Node2&#45;&gt;Node13 -->
<g id="edge18" class="edge"><title>Node2&#45;&gt;Node13</title>
<path fill="none" stroke="#9a32cd" stroke-dasharray="5,2" d="M694.047,-382.638C751.22,-371.636 829.518,-356.217 836,-353.07 874.933,-334.17 911.154,-296.37 926.831,-278.651"/>
<polygon fill="#9a32cd" stroke="#9a32cd" points="693.157,-379.244 683.997,-384.568 694.478,-386.119 693.157,-379.244"/>
<text text-anchor="middle" x="783" y="-379.07" font-family="Helvetica,sans-Serif" font-size="10.00"> myCurrentSimulation</text>
</g>
<!-- Node3 -->
<g id="node3" class="node"><title>Node3</title>
<g id="a_node3"><a xlink:href="../../dc/d86/classmodel_1_1simulations_1_1_abstract_cell_factory.html" target="_top" xlink:title="model.simulations.Abstract\lCellFactory">
<polygon fill="white" stroke="black" points="299,-423.07 299,-453.07 447,-453.07 447,-423.07 299,-423.07"/>
<text text-anchor="start" x="307" y="-441.07" font-family="Helvetica,sans-Serif" font-size="10.00">model.simulations.Abstract</text>
<text text-anchor="middle" x="373" y="-430.07" font-family="Helvetica,sans-Serif" font-size="10.00">CellFactory</text>
</a>
</g>
</g>
<!-- Node3&#45;&gt;Node2 -->
<g id="edge2" class="edge"><title>Node3&#45;&gt;Node2</title>
<path fill="none" stroke="#9a32cd" stroke-dasharray="5,2" d="M457.5,-423.83C496.372,-417.2 541.567,-409.493 576.221,-403.583"/>
<polygon fill="#9a32cd" stroke="#9a32cd" points="456.512,-420.448 447.242,-425.579 457.688,-427.348 456.512,-420.448"/>
<text text-anchor="middle" x="501" y="-425.07" font-family="Helvetica,sans-Serif" font-size="10.00"> myCellFactory</text>
</g>
<!-- Node4 -->
<g id="node4" class="node"><title>Node4</title>
<g id="a_node4"><a xlink:href="../../da/d6d/classmodel_1_1gridrules_1_1_grid_rules.html" target="_top" xlink:title="model.gridrules.GridRules">
<polygon fill="white" stroke="black" points="304,-384.57 304,-403.57 442,-403.57 442,-384.57 304,-384.57"/>
<text text-anchor="middle" x="373" y="-391.57" font-family="Helvetica,sans-Serif" font-size="10.00">model.gridrules.GridRules</text>
</a>
</g>
</g>
<!-- Node4&#45;&gt;Node2 -->
<g id="edge3" class="edge"><title>Node4&#45;&gt;Node2</title>
<path fill="none" stroke="#9a32cd" stroke-dasharray="5,2" d="M452.385,-394.07C484.567,-394.07 521.745,-394.07 553.898,-394.07"/>
<polygon fill="#9a32cd" stroke="#9a32cd" points="452.124,-390.57 442.124,-394.07 452.124,-397.57 452.124,-390.57"/>
<text text-anchor="middle" x="501" y="-397.07" font-family="Helvetica,sans-Serif" font-size="10.00"> myGridRules</text>
</g>
<!-- Node5 -->
<g id="node5" class="node"><title>Node5</title>
<g id="a_node5"><a xlink:href="../../db/d90/classmodel_1_1patches_1_1_patch.html" target="_top" xlink:title="model.patches.Patch">
<polygon fill="white" stroke="black" points="314.5,-98.57 314.5,-117.57 431.5,-117.57 431.5,-98.57 314.5,-98.57"/>
<text text-anchor="middle" x="373" y="-105.57" font-family="Helvetica,sans-Serif" font-size="10.00">model.patches.Patch</text>
</a>
</g>
</g>
<!-- Node5&#45;&gt;Node2 -->
<g id="edge4" class="edge"><title>Node5&#45;&gt;Node2</title>
<path fill="none" stroke="#9a32cd" stroke-dasharray="5,2" d="M412.189,-121.879C424.764,-127.839 438.056,-135.834 448,-146.07 524.186,-224.493 472.056,-295.684 554,-368.07 562.344,-375.441 572.845,-380.734 583.413,-384.531"/>
<polygon fill="#9a32cd" stroke="#9a32cd" points="413.342,-118.562 402.781,-117.715 410.509,-124.963 413.342,-118.562"/>
<text text-anchor="middle" x="501" y="-350.07" font-family="Helvetica,sans-Serif" font-size="10.00"> myPatchGrid</text>
</g>
<!-- Node7 -->
<g id="node7" class="node"><title>Node7</title>
<g id="a_node7"><a xlink:href="../../dc/d41/classmodel_1_1cells_1_1_cell.html" target="_top" xlink:title="model.cells.Cell">
<polygon fill="white" stroke="black" points="587.5,-64.57 587.5,-83.57 678.5,-83.57 678.5,-64.57 587.5,-64.57"/>
<text text-anchor="middle" x="633" y="-71.57" font-family="Helvetica,sans-Serif" font-size="10.00">model.cells.Cell</text>
</a>
</g>
</g>
<!-- Node5&#45;&gt;Node7 -->
<g id="edge8" class="edge"><title>Node5&#45;&gt;Node7</title>
<path fill="none" stroke="#9a32cd" stroke-dasharray="5,2" d="M402.381,-94.1924C420.182,-86.2735 443.877,-77.136 466,-73.07 506.534,-65.6203 553.58,-66.8053 587.216,-69.303"/>
<polygon fill="#9a32cd" stroke="#9a32cd" points="400.776,-91.0776 393.145,-98.4266 403.693,-97.4409 400.776,-91.0776"/>
<text text-anchor="middle" x="501" y="-76.07" font-family="Helvetica,sans-Serif" font-size="10.00"> myPatch</text>
</g>
<!-- Node6 -->
<g id="node6" class="node"><title>Node6</title>
<polygon fill="white" stroke="#bfbfbf" points="14,-147.57 14,-166.57 142,-166.57 142,-147.57 14,-147.57"/>
<text text-anchor="middle" x="78" y="-154.57" font-family="Helvetica,sans-Serif" font-size="10.00">Map&lt; String, Double &gt;</text>
</g>
<!-- Node6&#45;&gt;Node5 -->
<g id="edge5" class="edge"><title>Node6&#45;&gt;Node5</title>
<path fill="none" stroke="#9a32cd" stroke-dasharray="5,2" d="M145.785,-145.901C196.798,-137.37 266.353,-125.738 314.818,-117.633"/>
<polygon fill="#9a32cd" stroke="#9a32cd" points="145.126,-142.463 135.841,-147.564 146.281,-149.367 145.126,-142.463"/>
<text text-anchor="middle" x="227" y="-143.07" font-family="Helvetica,sans-Serif" font-size="10.00"> myPatchPropertyMap</text>
</g>
<!-- Node6&#45;&gt;Node7 -->
<g id="edge9" class="edge"><title>Node6&#45;&gt;Node7</title>
<path fill="none" stroke="#9a32cd" stroke-dasharray="5,2" d="M114.88,-169.769C198.365,-196.835 408.229,-250.24 536,-154.07 558.584,-137.071 533.538,-112.572 554,-93.07 562.979,-84.5117 575.143,-79.6077 587.191,-76.8515"/>
<polygon fill="#9a32cd" stroke="#9a32cd" points="115.933,-166.431 105.339,-166.611 113.733,-173.077 115.933,-166.431"/>
<text text-anchor="middle" x="373" y="-213.07" font-family="Helvetica,sans-Serif" font-size="10.00"> myPropertyMap</text>
</g>
<!-- Node7&#45;&gt;Node5 -->
<g id="edge6" class="edge"><title>Node7&#45;&gt;Node5</title>
<path fill="none" stroke="#9a32cd" stroke-dasharray="5,2" d="M577.454,-81.2582C534.631,-86.9016 475.164,-94.7384 431.579,-100.482"/>
<polygon fill="#9a32cd" stroke="#9a32cd" points="577.959,-84.7221 587.416,-79.9454 577.044,-77.7821 577.959,-84.7221"/>
<text text-anchor="middle" x="501" y="-99.07" font-family="Helvetica,sans-Serif" font-size="10.00"> myCell</text>
</g>
<!-- Node8 -->
<g id="node8" class="node"><title>Node8</title>
<polygon fill="white" stroke="#bfbfbf" points="308,-30.57 308,-49.57 438,-49.57 438,-30.57 308,-30.57"/>
<text text-anchor="middle" x="373" y="-37.57" font-family="Helvetica,sans-Serif" font-size="10.00">List&lt; model.cells.Cell &gt;</text>
</g>
<!-- Node8&#45;&gt;Node7 -->
<g id="edge7" class="edge"><title>Node8&#45;&gt;Node7</title>
<path fill="none" stroke="#9a32cd" stroke-dasharray="5,2" d="M448.295,-35.4978C475.996,-35.109 507.602,-36.2352 536,-41.07 562.582,-45.5956 591.681,-56.4991 610.793,-64.5404"/>
<polygon fill="#9a32cd" stroke="#9a32cd" points="448.204,-31.9988 438.279,-35.7055 448.349,-38.9973 448.204,-31.9988"/>
<text text-anchor="middle" x="501" y="-44.07" font-family="Helvetica,sans-Serif" font-size="10.00"> myNeighbors</text>
</g>
<!-- Node9 -->
<g id="node9" class="node"><title>Node9</title>
<polygon fill="white" stroke="#bfbfbf" points="0,-98.57 0,-117.57 156,-117.57 156,-98.57 0,-98.57"/>
<text text-anchor="middle" x="78" y="-105.57" font-family="Helvetica,sans-Serif" font-size="10.00">List&lt; model.patches.Patch &gt;</text>
</g>
<!-- Node9&#45;&gt;Node5 -->
<g id="edge10" class="edge"><title>Node9&#45;&gt;Node5</title>
<path fill="none" stroke="#9a32cd" stroke-dasharray="5,2" d="M166.4,-108.07C214.184,-108.07 272.046,-108.07 314.197,-108.07"/>
<polygon fill="#9a32cd" stroke="#9a32cd" points="166.366,-104.57 156.366,-108.07 166.366,-111.57 166.366,-104.57"/>
<text text-anchor="middle" x="227" y="-111.07" font-family="Helvetica,sans-Serif" font-size="10.00"> myNeighbors</text>
</g>
<!-- Node10 -->
<g id="node10" class="node"><title>Node10</title>
<g id="a_node10"><a xlink:href="../../d1/d3e/classview_1_1_simulation_screen.html" target="_top" xlink:title="view.SimulationScreen">
<polygon fill="white" stroke="black" points="1194,-167.57 1194,-186.57 1318,-186.57 1318,-167.57 1194,-167.57"/>
<text text-anchor="middle" x="1256" y="-174.57" font-family="Helvetica,sans-Serif" font-size="10.00">view.SimulationScreen</text>
</a>
</g>
</g>
<!-- Node10&#45;&gt;Node2 -->
<g id="edge11" class="edge"><title>Node10&#45;&gt;Node2</title>
<path fill="none" stroke="#9a32cd" stroke-dasharray="5,2" d="M1247.46,-195.986C1236.01,-222.255 1211.72,-269.434 1176,-295.07 1036.32,-395.329 825.579,-403.603 712.432,-399.637"/>
<polygon fill="#9a32cd" stroke="#9a32cd" points="1250.7,-197.306 1251.34,-186.73 1244.25,-194.6 1250.7,-197.306"/>
<text text-anchor="middle" x="936" y="-399.07" font-family="Helvetica,sans-Serif" font-size="10.00"> myView</text>
</g>
<!-- Node10&#45;&gt;Node13 -->
<g id="edge21" class="edge"><title>Node10&#45;&gt;Node13</title>
<path fill="none" stroke="#9a32cd" stroke-dasharray="5,2" d="M1233.82,-192.394C1218.5,-202.708 1196.9,-215.721 1176,-223.07 1116.64,-243.939 1097.69,-231.686 1036,-244.07 1014.27,-248.431 990.162,-254.494 971.173,-259.557"/>
<polygon fill="#9a32cd" stroke="#9a32cd" points="1235.83,-195.262 1242.06,-186.696 1231.84,-189.504 1235.83,-195.262"/>
<text text-anchor="middle" x="1106" y="-247.07" font-family="Helvetica,sans-Serif" font-size="10.00"> myCurrentSimulationScreen</text>
</g>
<!-- Node11 -->
<g id="node11" class="node"><title>Node11</title>
<polygon fill="white" stroke="#bfbfbf" points="875.5,-206.07 875.5,-236.07 996.5,-236.07 996.5,-206.07 875.5,-206.07"/>
<text text-anchor="start" x="883.5" y="-224.07" font-family="Helvetica,sans-Serif" font-size="10.00">Map&lt; Color, ArrayList</text>
<text text-anchor="middle" x="936" y="-213.07" font-family="Helvetica,sans-Serif" font-size="10.00">&lt; Integer &gt; &gt;</text>
</g>
<!-- Node11&#45;&gt;Node10 -->
<g id="edge12" class="edge"><title>Node11&#45;&gt;Node10</title>
<path fill="none" stroke="#9a32cd" stroke-dasharray="5,2" d="M1007.16,-212.007C1054.81,-205.77 1119.24,-197.179 1176,-189.07 1181.77,-188.246 1187.77,-187.369 1193.77,-186.479"/>
<polygon fill="#9a32cd" stroke="#9a32cd" points="1006.42,-208.574 996.955,-213.34 1007.32,-215.515 1006.42,-208.574"/>
<text text-anchor="middle" x="1106" y="-211.07" font-family="Helvetica,sans-Serif" font-size="10.00"> myData</text>
</g>
<!-- Node12 -->
<g id="node12" class="node"><title>Node12</title>
<polygon fill="white" stroke="#bfbfbf" points="912.5,-167.57 912.5,-186.57 959.5,-186.57 959.5,-167.57 912.5,-167.57"/>
<text text-anchor="middle" x="936" y="-174.57" font-family="Helvetica,sans-Serif" font-size="10.00">Shape</text>
</g>
<!-- Node12&#45;&gt;Node10 -->
<g id="edge13" class="edge"><title>Node12&#45;&gt;Node10</title>
<path fill="none" stroke="#9a32cd" stroke-dasharray="5,2" d="M969.739,-177.07C1022.43,-177.07 1126.89,-177.07 1193.72,-177.07"/>
<polygon fill="#9a32cd" stroke="#9a32cd" points="969.615,-173.57 959.615,-177.07 969.615,-180.57 969.615,-173.57"/>
<text text-anchor="middle" x="1106" y="-180.07" font-family="Helvetica,sans-Serif" font-size="10.00"> myColorGrid</text>
</g>
<!-- Node13&#45;&gt;Node10 -->
<g id="edge14" class="edge"><title>Node13&#45;&gt;Node10</title>
<path fill="none" stroke="#9a32cd" stroke-dasharray="5,2" d="M1017.61,-279.234C1065.62,-281.898 1126.62,-279.179 1176,-257.07 1210.21,-241.756 1237.54,-204.413 1249.07,-186.699"/>
<polygon fill="#9a32cd" stroke="#9a32cd" points="1017.78,-275.738 1007.57,-278.589 1017.33,-282.723 1017.78,-275.738"/>
<text text-anchor="middle" x="1106" y="-283.07" font-family="Helvetica,sans-Serif" font-size="10.00"> myController</text>
</g>
<!-- Node14 -->
<g id="node14" class="node"><title>Node14</title>
<polygon fill="white" stroke="#bfbfbf" points="605,-339.57 605,-358.57 661,-358.57 661,-339.57 605,-339.57"/>
<text text-anchor="middle" x="633" y="-346.57" font-family="Helvetica,sans-Serif" font-size="10.00">Timeline</text>
</g>
<!-- Node14&#45;&gt;Node13 -->
<g id="edge15" class="edge"><title>Node14&#45;&gt;Node13</title>
<path fill="none" stroke="#9a32cd" stroke-dasharray="5,2" d="M671.088,-345.837C712.139,-341.571 779.914,-332.472 836,-315.07 866.048,-305.747 898.754,-289.173 918.037,-278.672"/>
<polygon fill="#9a32cd" stroke="#9a32cd" points="670.604,-342.368 661.001,-346.844 671.299,-349.334 670.604,-342.368"/>
<text text-anchor="middle" x="783" y="-341.07" font-family="Helvetica,sans-Serif" font-size="10.00"> myTimeline</text>
</g>
<!-- Node15 -->
<g id="node15" class="node"><title>Node15</title>
<polygon fill="white" stroke="#bfbfbf" points="559.5,-301.57 559.5,-320.57 706.5,-320.57 706.5,-301.57 559.5,-301.57"/>
<text text-anchor="middle" x="633" y="-308.57" font-family="Helvetica,sans-Serif" font-size="10.00">HashMap&lt; String, String &gt;</text>
</g>
<!-- Node15&#45;&gt;Node13 -->
<g id="edge16" class="edge"><title>Node15&#45;&gt;Node13</title>
<path fill="none" stroke="#9a32cd" stroke-dasharray="5,2" d="M716.665,-301.041C753.267,-296.442 796.818,-290.756 836,-285.07 849.612,-283.095 864.25,-280.815 877.986,-278.606"/>
<polygon fill="#9a32cd" stroke="#9a32cd" points="716.023,-297.594 706.535,-302.308 716.892,-304.539 716.023,-297.594"/>
<text text-anchor="middle" x="783" y="-303.07" font-family="Helvetica,sans-Serif" font-size="10.00"> myParameters</text>
</g>
<!-- Node16 -->
<g id="node16" class="node"><title>Node16</title>
<polygon fill="white" stroke="#bfbfbf" points="610.5,-263.57 610.5,-282.57 655.5,-282.57 655.5,-263.57 610.5,-263.57"/>
<text text-anchor="middle" x="633" y="-270.57" font-family="Helvetica,sans-Serif" font-size="10.00">Stage</text>
</g>
<!-- Node16&#45;&gt;Node13 -->
<g id="edge17" class="edge"><title>Node16&#45;&gt;Node13</title>
<path fill="none" stroke="#9a32cd" stroke-dasharray="5,2" d="M665.846,-272.647C710.32,-272.056 792.529,-270.963 854.436,-270.141"/>
<polygon fill="#9a32cd" stroke="#9a32cd" points="665.6,-269.15 655.647,-272.782 665.693,-276.149 665.6,-269.15"/>
<text text-anchor="middle" x="783" y="-275.07" font-family="Helvetica,sans-Serif" font-size="10.00"> myStage</text>
</g>
<!-- Node17 -->
<g id="node17" class="node"><title>Node17</title>
<polygon fill="white" stroke="#bfbfbf" points="586.5,-225.57 586.5,-244.57 679.5,-244.57 679.5,-225.57 586.5,-225.57"/>
<text text-anchor="middle" x="633" y="-232.57" font-family="Helvetica,sans-Serif" font-size="10.00">ResourceBundle</text>
</g>
<!-- Node17&#45;&gt;Node13 -->
<g id="edge19" class="edge"><title>Node17&#45;&gt;Node13</title>
<path fill="none" stroke="#9a32cd" stroke-dasharray="5,2" d="M689.735,-240.456C730.324,-244.478 786.61,-250.261 836,-256.07 845.211,-257.153 854.895,-258.352 864.454,-259.57"/>
<polygon fill="#9a32cd" stroke="#9a32cd" points="690.063,-236.972 679.768,-239.473 689.376,-243.938 690.063,-236.972"/>
<text text-anchor="middle" x="783" y="-259.07" font-family="Helvetica,sans-Serif" font-size="10.00"> myProperties</text>
</g>
<!-- Node18 -->
<g id="node18" class="node"><title>Node18</title>
<polygon fill="white" stroke="#bfbfbf" points="609.5,-187.57 609.5,-206.57 656.5,-206.57 656.5,-187.57 609.5,-187.57"/>
<text text-anchor="middle" x="633" y="-194.57" font-family="Helvetica,sans-Serif" font-size="10.00">Scene</text>
</g>
<!-- Node18&#45;&gt;Node13 -->
<g id="edge20" class="edge"><title>Node18&#45;&gt;Node13</title>
<path fill="none" stroke="#9a32cd" stroke-dasharray="5,2" d="M666.666,-197.187C707.921,-198.479 780.246,-204.612 836,-230.07 845.473,-234.395 844.819,-240.156 854,-245.07 865.38,-251.16 878.507,-255.899 890.836,-259.497"/>
<polygon fill="#9a32cd" stroke="#9a32cd" points="666.71,-193.687 656.63,-196.95 666.545,-200.685 666.71,-193.687"/>
<text text-anchor="middle" x="783" y="-233.07" font-family="Helvetica,sans-Serif" font-size="10.00"> myScene</text>
</g>
<!-- Node19 -->
<g id="node19" class="node"><title>Node19</title>
<polygon fill="white" stroke="#bfbfbf" points="572,-144.57 572,-163.57 694,-163.57 694,-144.57 572,-144.57"/>
<text text-anchor="middle" x="633" y="-151.57" font-family="Helvetica,sans-Serif" font-size="10.00">Map&lt; String, String &gt;</text>
</g>
<!-- Node19&#45;&gt;Node10 -->
<g id="edge25" class="edge"><title>Node19&#45;&gt;Node10</title>
<path fill="none" stroke="#9a32cd" stroke-dasharray="5,2" d="M704.334,-151.262C747.513,-149.68 803.947,-147.866 854,-147.07 926.88,-145.911 945.256,-142.484 1018,-147.07 1079.05,-150.919 1148.43,-160.292 1196.27,-167.545"/>
<polygon fill="#9a32cd" stroke="#9a32cd" points="704.079,-147.769 694.215,-151.638 704.338,-154.765 704.079,-147.769"/>
<text text-anchor="middle" x="936" y="-150.07" font-family="Helvetica,sans-Serif" font-size="10.00"> myStyles</text>
</g>
<!-- Node19&#45;&gt;Node13 -->
<g id="edge22" class="edge"><title>Node19&#45;&gt;Node13</title>
<path fill="none" stroke="#9a32cd" stroke-dasharray="5,2" d="M704.514,-148.58C747.303,-149.084 800.352,-157.066 836,-188.07 856.046,-205.504 835.048,-226.453 854,-245.07 860.382,-251.34 868.322,-255.984 876.715,-259.422"/>
<polygon fill="#9a32cd" stroke="#9a32cd" points="704.43,-145.08 694.435,-148.595 704.44,-152.08 704.43,-145.08"/>
<text text-anchor="middle" x="783" y="-191.07" font-family="Helvetica,sans-Serif" font-size="10.00"> myStyles</text>
</g>
<!-- Node20 -->
<g id="node20" class="node"><title>Node20</title>
<polygon fill="white" stroke="#bfbfbf" points="610,-102.57 610,-121.57 656,-121.57 656,-102.57 610,-102.57"/>
<text text-anchor="middle" x="633" y="-109.57" font-family="Helvetica,sans-Serif" font-size="10.00">Group</text>
</g>
<!-- Node20&#45;&gt;Node13 -->
<g id="edge23" class="edge"><title>Node20&#45;&gt;Node13</title>
<path fill="none" stroke="#9a32cd" stroke-dasharray="5,2" d="M666.013,-105.327C710.455,-98.0146 790.497,-92.5879 836,-136.07 871.499,-169.992 821.506,-208.26 854,-245.07 859.533,-251.337 866.617,-256.004 874.288,-259.471"/>
<polygon fill="#9a32cd" stroke="#9a32cd" points="665.281,-101.902 656.048,-107.098 666.506,-108.794 665.281,-101.902"/>
<text text-anchor="middle" x="783" y="-139.07" font-family="Helvetica,sans-Serif" font-size="10.00"> myGroup</text>
</g>
<!-- Node21 -->
<g id="node21" class="node"><title>Node21</title>
<polygon fill="white" stroke="#bfbfbf" points="879.5,-82.57 879.5,-101.57 992.5,-101.57 992.5,-82.57 879.5,-82.57"/>
<text text-anchor="middle" x="936" y="-89.57" font-family="Helvetica,sans-Serif" font-size="10.00">ArrayList&lt; Button &gt;</text>
</g>
<!-- Node21&#45;&gt;Node10 -->
<g id="edge24" class="edge"><title>Node21&#45;&gt;Node10</title>
<path fill="none" stroke="#9a32cd" stroke-dasharray="5,2" d="M1003,-87.6867C1052.38,-86.7883 1120.66,-90.6931 1176,-113.07 1205.78,-125.113 1233.15,-152.38 1246.48,-167.137"/>
<polygon fill="#9a32cd" stroke="#9a32cd" points="1002.66,-84.194 992.755,-87.9464 1002.84,-91.1917 1002.66,-84.194"/>
<text text-anchor="middle" x="1106" y="-116.07" font-family="Helvetica,sans-Serif" font-size="10.00"> myButtons</text>
</g>
<!-- Node22 -->
<g id="node22" class="node"><title>Node22</title>
<polygon fill="white" stroke="#bfbfbf" points="915,-44.57 915,-63.57 957,-63.57 957,-44.57 915,-44.57"/>
<text text-anchor="middle" x="936" y="-51.57" font-family="Helvetica,sans-Serif" font-size="10.00">HBox</text>
</g>
<!-- Node22&#45;&gt;Node10 -->
<g id="edge26" class="edge"><title>Node22&#45;&gt;Node10</title>
<path fill="none" stroke="#9a32cd" stroke-dasharray="5,2" d="M967.073,-49.0242C1014.65,-42.5964 1108.77,-36.3193 1176,-73.07 1215.79,-94.821 1241.63,-146.063 1251.03,-167.44"/>
<polygon fill="#9a32cd" stroke="#9a32cd" points="966.504,-45.57 957.109,-50.4666 967.507,-52.4978 966.504,-45.57"/>
<text text-anchor="middle" x="1106" y="-76.07" font-family="Helvetica,sans-Serif" font-size="10.00"> myTop</text>
</g>
<!-- Node23 -->
<g id="node23" class="node"><title>Node23</title>
<polygon fill="white" stroke="#bfbfbf" points="900,-6.57001 900,-25.57 972,-25.57 972,-6.57001 900,-6.57001"/>
<text text-anchor="middle" x="936" y="-13.57" font-family="Helvetica,sans-Serif" font-size="10.00">BorderPane</text>
</g>
<!-- Node23&#45;&gt;Node10 -->
<g id="edge27" class="edge"><title>Node23&#45;&gt;Node10</title>
<path fill="none" stroke="#9a32cd" stroke-dasharray="5,2" d="M982.364,-6.42787C1033.62,1.85468 1117.49,7.27417 1176,-30.07 1227.04,-62.6489 1247.4,-140.011 1253.15,-167.319"/>
<polygon fill="#9a32cd" stroke="#9a32cd" points="981.516,-3.02219 972.255,-8.16743 982.704,-9.9208 981.516,-3.02219"/>
<text text-anchor="middle" x="1106" y="-33.07" font-family="Helvetica,sans-Serif" font-size="10.00"> root</text>
</g>
<!-- Node24 -->
<g id="node24" class="node"><title>Node24</title>
<g id="a_node24"><a xlink:href="../../dc/de1/classmodel_1_1neighbors_1_1_neighbors.html" target="_top" xlink:title="model.neighbors.Neighbors">
<polygon fill="white" stroke="black" points="298.5,-346.57 298.5,-365.57 447.5,-365.57 447.5,-346.57 298.5,-346.57"/>
<text text-anchor="middle" x="373" y="-353.57" font-family="Helvetica,sans-Serif" font-size="10.00">model.neighbors.Neighbors</text>
</a>
</g>
</g>
<!-- Node24&#45;&gt;Node2 -->
<g id="edge28" class="edge"><title>Node24&#45;&gt;Node2</title>
<path fill="none" stroke="#9a32cd" stroke-dasharray="5,2" d="M452.597,-367.004C479.102,-370.751 508.844,-375.021 536,-379.07 547.596,-380.799 559.971,-382.695 571.848,-384.539"/>
<polygon fill="#9a32cd" stroke="#9a32cd" points="453,-363.526 442.609,-365.595 452.022,-370.457 453,-363.526"/>
<text text-anchor="middle" x="501" y="-382.07" font-family="Helvetica,sans-Serif" font-size="10.00"> myNeighbors</text>
</g>
<!-- Node25 -->
<g id="node25" class="node"><title>Node25</title>
<polygon fill="white" stroke="#bfbfbf" points="605,-449.57 605,-468.57 661,-468.57 661,-449.57 605,-449.57"/>
<text text-anchor="middle" x="633" y="-456.57" font-family="Helvetica,sans-Serif" font-size="10.00">Random</text>
</g>
<!-- Node25&#45;&gt;Node1 -->
<g id="edge29" class="edge"><title>Node25&#45;&gt;Node1</title>
<path fill="none" stroke="#9a32cd" stroke-dasharray="5,2" d="M671.395,-458.2C717.56,-457.127 797.279,-455.273 856.993,-453.884"/>
<polygon fill="#9a32cd" stroke="#9a32cd" points="671.159,-454.705 661.243,-458.436 671.321,-461.703 671.159,-454.705"/>
<text text-anchor="middle" x="783" y="-459.07" font-family="Helvetica,sans-Serif" font-size="10.00"> myRandom</text>
</g>
</g>
</svg>
