<?xml version="1.0" encoding="UTF-8" standalone="no"?>
<!DOCTYPE svg PUBLIC "-//W3C//DTD SVG 1.1//EN"
 "http://www.w3.org/Graphics/SVG/1.1/DTD/svg11.dtd">
<!-- Generated by graphviz version 2.36.0 (20140111.2315)
 -->
<!-- Title: view.FileLoaderScreen.getFile Pages: 1 -->
<svg width="1292pt" height="116pt"
 viewBox="0.00 0.00 1292.00 116.00" xmlns="http://www.w3.org/2000/svg" xmlns:xlink="http://www.w3.org/1999/xlink">
<g id="graph0" class="graph" transform="scale(1 1) rotate(0) translate(4 112)">
<title>view.FileLoaderScreen.getFile</title>
<polygon fill="white" stroke="none" points="-4,4 -4,-112 1288,-112 1288,4 -4,4"/>
<!-- Node1 -->
<g id="node1" class="node"><title>Node1</title>
<polygon fill="#bfbfbf" stroke="black" points="0.5,-22.5 0.5,-41.5 155.5,-41.5 155.5,-22.5 0.5,-22.5"/>
<text text-anchor="middle" x="78" y="-29.5" font-family="Helvetica,sans-Serif" font-size="10.00">view.FileLoaderScreen.getFile</text>
</g>
<!-- Node2 -->
<g id="node2" class="node"><title>Node2</title>
<g id="a_node2"><a xlink:href="../../d6/d7b/classcontroller_1_1_cell_society_controller.html#afbdf9a63e15a2bfa878dcfe5ed3ef6dc" target="_top" xlink:title="controller.CellSocietyController.transition\lToFileLoaderScreen">
<polygon fill="white" stroke="black" points="192,-17 192,-47 402,-47 402,-17 192,-17"/>
<text text-anchor="start" x="200" y="-35" font-family="Helvetica,sans-Serif" font-size="10.00">controller.CellSocietyController.transition</text>
<text text-anchor="middle" x="297" y="-24" font-family="Helvetica,sans-Serif" font-size="10.00">ToFileLoaderScreen</text>
</a>
</g>
</g>
<!-- Node1&#45;&gt;Node2 -->
<g id="edge1" class="edge"><title>Node1&#45;&gt;Node2</title>
<path fill="none" stroke="midnightblue" d="M165.787,-32C174.303,-32 183.005,-32 191.671,-32"/>
<polygon fill="midnightblue" stroke="midnightblue" points="165.506,-28.5001 155.506,-32 165.506,-35.5001 165.506,-28.5001"/>
</g>
<!-- Node3 -->
<g id="node3" class="node"><title>Node3</title>
<g id="a_node3"><a xlink:href="../../d3/d48/classview_1_1_top_menu.html#af56bae78812baf114a9ed49ad52694df" target="_top" xlink:title="view.TopMenu.addLoadButton">
<polygon fill="white" stroke="black" points="462,-88.5 462,-107.5 620,-107.5 620,-88.5 462,-88.5"/>
<text text-anchor="middle" x="541" y="-95.5" font-family="Helvetica,sans-Serif" font-size="10.00">view.TopMenu.addLoadButton</text>
</a>
</g>
</g>
<!-- Node2&#45;&gt;Node3 -->
<g id="edge2" class="edge"><title>Node2&#45;&gt;Node3</title>
<path fill="none" stroke="midnightblue" d="M349.015,-50.4486C375.355,-59.5425 408.149,-70.2014 438,-78 453.103,-81.9456 469.644,-85.5082 484.929,-88.4962"/>
<polygon fill="midnightblue" stroke="midnightblue" points="349.85,-47.0334 339.255,-47.0492 347.547,-53.6438 349.85,-47.0334"/>
</g>
<!-- Node5 -->
<g id="node5" class="node"><title>Node5</title>
<g id="a_node5"><a xlink:href="../../dd/d02/classview_1_1_splash_screen.html#a652092fc5c5862cee4ff84bf231646ab" target="_top" xlink:title="view.SplashScreen.addLoad\lButton">
<polygon fill="white" stroke="black" points="466.5,-39 466.5,-69 615.5,-69 615.5,-39 466.5,-39"/>
<text text-anchor="start" x="474.5" y="-57" font-family="Helvetica,sans-Serif" font-size="10.00">view.SplashScreen.addLoad</text>
<text text-anchor="middle" x="541" y="-46" font-family="Helvetica,sans-Serif" font-size="10.00">Button</text>
</a>
</g>
</g>
<!-- Node2&#45;&gt;Node5 -->
<g id="edge4" class="edge"><title>Node2&#45;&gt;Node5</title>
<path fill="none" stroke="midnightblue" d="M412.226,-42.3842C430.629,-44.0572 449.242,-45.7493 466.355,-47.305"/>
<polygon fill="midnightblue" stroke="midnightblue" points="412.31,-38.8775 402.034,-41.4577 411.676,-45.8487 412.31,-38.8775"/>
</g>
<!-- Node9 -->
<g id="node9" class="node"><title>Node9</title>
<g id="a_node9"><a xlink:href="../../d6/d7b/classcontroller_1_1_cell_society_controller.html#a643c7ac22f2822fa7e492dbf4267ed21" target="_top" xlink:title="controller.CellSocietyController.readXML">
<polygon fill="white" stroke="black" points="438,-0.5 438,-19.5 644,-19.5 644,-0.5 438,-0.5"/>
<text text-anchor="middle" x="541" y="-7.5" font-family="Helvetica,sans-Serif" font-size="10.00">controller.CellSocietyController.readXML</text>
</a>
</g>
</g>
<!-- Node2&#45;&gt;Node9 -->
<g id="edge8" class="edge"><title>Node2&#45;&gt;Node9</title>
<path fill="none" stroke="midnightblue" d="M401.011,-15.9521C413.165,-14.7564 425.566,-13.6309 437.71,-12.6213"/>
<polygon fill="midnightblue" stroke="midnightblue" points="400.471,-12.4887 390.871,-16.9719 401.172,-19.4535 400.471,-12.4887"/>
</g>
<!-- Node4 -->
<g id="node4" class="node"><title>Node4</title>
<g id="a_node4"><a xlink:href="../../d3/d48/classview_1_1_top_menu.html#a4442589b1733d6ad662c92700f27018e" target="_top" xlink:title="view.TopMenu.createTopButtons">
<polygon fill="white" stroke="black" points="680,-88.5 680,-107.5 848,-107.5 848,-88.5 680,-88.5"/>
<text text-anchor="middle" x="764" y="-95.5" font-family="Helvetica,sans-Serif" font-size="10.00">view.TopMenu.createTopButtons</text>
</a>
</g>
</g>
<!-- Node3&#45;&gt;Node4 -->
<g id="edge3" class="edge"><title>Node3&#45;&gt;Node4</title>
<path fill="none" stroke="midnightblue" d="M630.265,-98C646.546,-98 663.5,-98 679.631,-98"/>
<polygon fill="midnightblue" stroke="midnightblue" points="630.227,-94.5001 620.227,-98 630.227,-101.5 630.227,-94.5001"/>
</g>
<!-- Node6 -->
<g id="node6" class="node"><title>Node6</title>
<g id="a_node6"><a xlink:href="../../dd/d02/classview_1_1_splash_screen.html#a6ff42b7dad4e546981a3266f9d694f5a" target="_top" xlink:title="view.SplashScreen.getNode">
<polygon fill="white" stroke="black" points="689.5,-44.5 689.5,-63.5 838.5,-63.5 838.5,-44.5 689.5,-44.5"/>
<text text-anchor="middle" x="764" y="-51.5" font-family="Helvetica,sans-Serif" font-size="10.00">view.SplashScreen.getNode</text>
</a>
</g>
</g>
<!-- Node5&#45;&gt;Node6 -->
<g id="edge5" class="edge"><title>Node5&#45;&gt;Node6</title>
<path fill="none" stroke="midnightblue" d="M625.74,-54C646.667,-54 668.957,-54 689.355,-54"/>
<polygon fill="midnightblue" stroke="midnightblue" points="625.59,-50.5001 615.59,-54 625.59,-57.5001 625.59,-50.5001"/>
</g>
<!-- Node7 -->
<g id="node7" class="node"><title>Node7</title>
<g id="a_node7"><a xlink:href="../../d6/d7b/classcontroller_1_1_cell_society_controller.html#a3f78125e5b809d88d3cf7ed20b3756c2" target="_top" xlink:title="controller.CellSocietyController.display\lSplashScreen">
<polygon fill="white" stroke="black" points="884,-39 884,-69 1082,-69 1082,-39 884,-39"/>
<text text-anchor="start" x="892" y="-57" font-family="Helvetica,sans-Serif" font-size="10.00">controller.CellSocietyController.display</text>
<text text-anchor="middle" x="983" y="-46" font-family="Helvetica,sans-Serif" font-size="10.00">SplashScreen</text>
</a>
</g>
</g>
<!-- Node6&#45;&gt;Node7 -->
<g id="edge6" class="edge"><title>Node6&#45;&gt;Node7</title>
<path fill="none" stroke="midnightblue" d="M849.1,-54C860.482,-54 872.242,-54 883.843,-54"/>
<polygon fill="midnightblue" stroke="midnightblue" points="848.769,-50.5001 838.769,-54 848.769,-57.5001 848.769,-50.5001"/>
</g>
<!-- Node8 -->
<g id="node8" class="node"><title>Node8</title>
<g id="a_node8"><a xlink:href="../../d6/d7b/classcontroller_1_1_cell_society_controller.html#a6a2310de67e415512149c94c9f36e356" target="_top" xlink:title="controller.CellSocietyController.\lCellSocietyController">
<polygon fill="white" stroke="black" points="1118.5,-39 1118.5,-69 1283.5,-69 1283.5,-39 1118.5,-39"/>
<text text-anchor="start" x="1126.5" y="-57" font-family="Helvetica,sans-Serif" font-size="10.00">controller.CellSocietyController.</text>
<text text-anchor="middle" x="1201" y="-46" font-family="Helvetica,sans-Serif" font-size="10.00">CellSocietyController</text>
</a>
</g>
</g>
<!-- Node7&#45;&gt;Node8 -->
<g id="edge7" class="edge"><title>Node7&#45;&gt;Node8</title>
<path fill="none" stroke="midnightblue" d="M1092.38,-54C1101.07,-54 1109.75,-54 1118.2,-54"/>
<polygon fill="midnightblue" stroke="midnightblue" points="1092.2,-50.5001 1082.2,-54 1092.2,-57.5001 1092.2,-50.5001"/>
</g>
<!-- Node9&#45;&gt;Node2 -->
<g id="edge9" class="edge"><title>Node9&#45;&gt;Node2</title>
<path fill="none" stroke="midnightblue" d="M484.519,-20.8233C460.022,-23.8573 430.394,-26.8544 402.034,-29.233"/>
<polygon fill="midnightblue" stroke="midnightblue" points="485.211,-24.2635 494.686,-19.5225 484.322,-17.3201 485.211,-24.2635"/>
</g>
</g>
</svg>
