<?xml version="1.0" encoding="UTF-8" standalone="no"?>
<!DOCTYPE svg PUBLIC "-//W3C//DTD SVG 1.1//EN"
 "http://www.w3.org/Graphics/SVG/1.1/DTD/svg11.dtd">
<!-- Generated by graphviz version 2.36.0 (20140111.2315)
 -->
<!-- Title: view.FileLoaderScreen.getNode Pages: 1 -->
<svg width="1302pt" height="116pt"
 viewBox="0.00 0.00 1302.00 116.00" xmlns="http://www.w3.org/2000/svg" xmlns:xlink="http://www.w3.org/1999/xlink">
<g id="graph0" class="graph" transform="scale(1 1) rotate(0) translate(4 112)">
<title>view.FileLoaderScreen.getNode</title>
<polygon fill="white" stroke="none" points="-4,4 -4,-112 1298,-112 1298,4 -4,4"/>
<!-- Node1 -->
<g id="node1" class="node"><title>Node1</title>
<polygon fill="#bfbfbf" stroke="black" points="0.5,-22.5 0.5,-41.5 165.5,-41.5 165.5,-22.5 0.5,-22.5"/>
<text text-anchor="middle" x="83" y="-29.5" font-family="Helvetica,sans-Serif" font-size="10.00">view.FileLoaderScreen.getNode</text>
</g>
<!-- Node2 -->
<g id="node2" class="node"><title>Node2</title>
<g id="a_node2"><a xlink:href="../../d6/d7b/classcontroller_1_1_cell_society_controller.html#afbdf9a63e15a2bfa878dcfe5ed3ef6dc" target="_top" xlink:title="controller.CellSocietyController.transition\lToFileLoaderScreen">
<polygon fill="white" stroke="black" points="202,-17 202,-47 412,-47 412,-17 202,-17"/>
<text text-anchor="start" x="210" y="-35" font-family="Helvetica,sans-Serif" font-size="10.00">controller.CellSocietyController.transition</text>
<text text-anchor="middle" x="307" y="-24" font-family="Helvetica,sans-Serif" font-size="10.00">ToFileLoaderScreen</text>
</a>
</g>
</g>
<!-- Node1&#45;&gt;Node2 -->
<g id="edge1" class="edge"><title>Node1&#45;&gt;Node2</title>
<path fill="none" stroke="midnightblue" d="M175.728,-32C184.327,-32 193.085,-32 201.788,-32"/>
<polygon fill="midnightblue" stroke="midnightblue" points="175.719,-28.5001 165.719,-32 175.719,-35.5001 175.719,-28.5001"/>
</g>
<!-- Node3 -->
<g id="node3" class="node"><title>Node3</title>
<g id="a_node3"><a xlink:href="../../d3/d48/classview_1_1_top_menu.html#af56bae78812baf114a9ed49ad52694df" target="_top" xlink:title="view.TopMenu.addLoadButton">
<polygon fill="white" stroke="black" points="472,-88.5 472,-107.5 630,-107.5 630,-88.5 472,-88.5"/>
<text text-anchor="middle" x="551" y="-95.5" font-family="Helvetica,sans-Serif" font-size="10.00">view.TopMenu.addLoadButton</text>
</a>
</g>
</g>
<!-- Node2&#45;&gt;Node3 -->
<g id="edge2" class="edge"><title>Node2&#45;&gt;Node3</title>
<path fill="none" stroke="midnightblue" d="M359.015,-50.4486C385.355,-59.5425 418.149,-70.2014 448,-78 463.103,-81.9456 479.644,-85.5082 494.929,-88.4962"/>
<polygon fill="midnightblue" stroke="midnightblue" points="359.85,-47.0334 349.255,-47.0492 357.547,-53.6438 359.85,-47.0334"/>
</g>
<!-- Node5 -->
<g id="node5" class="node"><title>Node5</title>
<g id="a_node5"><a xlink:href="../../dd/d02/classview_1_1_splash_screen.html#a652092fc5c5862cee4ff84bf231646ab" target="_top" xlink:title="view.SplashScreen.addLoad\lButton">
<polygon fill="white" stroke="black" points="476.5,-39 476.5,-69 625.5,-69 625.5,-39 476.5,-39"/>
<text text-anchor="start" x="484.5" y="-57" font-family="Helvetica,sans-Serif" font-size="10.00">view.SplashScreen.addLoad</text>
<text text-anchor="middle" x="551" y="-46" font-family="Helvetica,sans-Serif" font-size="10.00">Button</text>
</a>
</g>
</g>
<!-- Node2&#45;&gt;Node5 -->
<g id="edge4" class="edge"><title>Node2&#45;&gt;Node5</title>
<path fill="none" stroke="midnightblue" d="M422.226,-42.3842C440.629,-44.0572 459.242,-45.7493 476.355,-47.305"/>
<polygon fill="midnightblue" stroke="midnightblue" points="422.31,-38.8775 412.034,-41.4577 421.676,-45.8487 422.31,-38.8775"/>
</g>
<!-- Node9 -->
<g id="node9" class="node"><title>Node9</title>
<g id="a_node9"><a xlink:href="../../d6/d7b/classcontroller_1_1_cell_society_controller.html#a643c7ac22f2822fa7e492dbf4267ed21" target="_top" xlink:title="controller.CellSocietyController.readXML">
<polygon fill="white" stroke="black" points="448,-0.5 448,-19.5 654,-19.5 654,-0.5 448,-0.5"/>
<text text-anchor="middle" x="551" y="-7.5" font-family="Helvetica,sans-Serif" font-size="10.00">controller.CellSocietyController.readXML</text>
</a>
</g>
</g>
<!-- Node2&#45;&gt;Node9 -->
<g id="edge8" class="edge"><title>Node2&#45;&gt;Node9</title>
<path fill="none" stroke="midnightblue" d="M411.011,-15.9521C423.165,-14.7564 435.566,-13.6309 447.71,-12.6213"/>
<polygon fill="midnightblue" stroke="midnightblue" points="410.471,-12.4887 400.871,-16.9719 411.172,-19.4535 410.471,-12.4887"/>
</g>
<!-- Node4 -->
<g id="node4" class="node"><title>Node4</title>
<g id="a_node4"><a xlink:href="../../d3/d48/classview_1_1_top_menu.html#a4442589b1733d6ad662c92700f27018e" target="_top" xlink:title="view.TopMenu.createTopButtons">
<polygon fill="white" stroke="black" points="690,-88.5 690,-107.5 858,-107.5 858,-88.5 690,-88.5"/>
<text text-anchor="middle" x="774" y="-95.5" font-family="Helvetica,sans-Serif" font-size="10.00">view.TopMenu.createTopButtons</text>
</a>
</g>
</g>
<!-- Node3&#45;&gt;Node4 -->
<g id="edge3" class="edge"><title>Node3&#45;&gt;Node4</title>
<path fill="none" stroke="midnightblue" d="M640.265,-98C656.546,-98 673.5,-98 689.631,-98"/>
<polygon fill="midnightblue" stroke="midnightblue" points="640.227,-94.5001 630.227,-98 640.227,-101.5 640.227,-94.5001"/>
</g>
<!-- Node6 -->
<g id="node6" class="node"><title>Node6</title>
<g id="a_node6"><a xlink:href="../../dd/d02/classview_1_1_splash_screen.html#a6ff42b7dad4e546981a3266f9d694f5a" target="_top" xlink:title="view.SplashScreen.getNode">
<polygon fill="white" stroke="black" points="699.5,-44.5 699.5,-63.5 848.5,-63.5 848.5,-44.5 699.5,-44.5"/>
<text text-anchor="middle" x="774" y="-51.5" font-family="Helvetica,sans-Serif" font-size="10.00">view.SplashScreen.getNode</text>
</a>
</g>
</g>
<!-- Node5&#45;&gt;Node6 -->
<g id="edge5" class="edge"><title>Node5&#45;&gt;Node6</title>
<path fill="none" stroke="midnightblue" d="M635.74,-54C656.667,-54 678.957,-54 699.355,-54"/>
<polygon fill="midnightblue" stroke="midnightblue" points="635.59,-50.5001 625.59,-54 635.59,-57.5001 635.59,-50.5001"/>
</g>
<!-- Node7 -->
<g id="node7" class="node"><title>Node7</title>
<g id="a_node7"><a xlink:href="../../d6/d7b/classcontroller_1_1_cell_society_controller.html#a3f78125e5b809d88d3cf7ed20b3756c2" target="_top" xlink:title="controller.CellSocietyController.display\lSplashScreen">
<polygon fill="white" stroke="black" points="894,-39 894,-69 1092,-69 1092,-39 894,-39"/>
<text text-anchor="start" x="902" y="-57" font-family="Helvetica,sans-Serif" font-size="10.00">controller.CellSocietyController.display</text>
<text text-anchor="middle" x="993" y="-46" font-family="Helvetica,sans-Serif" font-size="10.00">SplashScreen</text>
</a>
</g>
</g>
<!-- Node6&#45;&gt;Node7 -->
<g id="edge6" class="edge"><title>Node6&#45;&gt;Node7</title>
<path fill="none" stroke="midnightblue" d="M859.1,-54C870.482,-54 882.242,-54 893.843,-54"/>
<polygon fill="midnightblue" stroke="midnightblue" points="858.769,-50.5001 848.769,-54 858.769,-57.5001 858.769,-50.5001"/>
</g>
<!-- Node8 -->
<g id="node8" class="node"><title>Node8</title>
<g id="a_node8"><a xlink:href="../../d6/d7b/classcontroller_1_1_cell_society_controller.html#a6a2310de67e415512149c94c9f36e356" target="_top" xlink:title="controller.CellSocietyController.\lCellSocietyController">
<polygon fill="white" stroke="black" points="1128.5,-39 1128.5,-69 1293.5,-69 1293.5,-39 1128.5,-39"/>
<text text-anchor="start" x="1136.5" y="-57" font-family="Helvetica,sans-Serif" font-size="10.00">controller.CellSocietyController.</text>
<text text-anchor="middle" x="1211" y="-46" font-family="Helvetica,sans-Serif" font-size="10.00">CellSocietyController</text>
</a>
</g>
</g>
<!-- Node7&#45;&gt;Node8 -->
<g id="edge7" class="edge"><title>Node7&#45;&gt;Node8</title>
<path fill="none" stroke="midnightblue" d="M1102.38,-54C1111.07,-54 1119.75,-54 1128.2,-54"/>
<polygon fill="midnightblue" stroke="midnightblue" points="1102.2,-50.5001 1092.2,-54 1102.2,-57.5001 1102.2,-50.5001"/>
</g>
<!-- Node9&#45;&gt;Node2 -->
<g id="edge9" class="edge"><title>Node9&#45;&gt;Node2</title>
<path fill="none" stroke="midnightblue" d="M494.519,-20.8233C470.022,-23.8573 440.394,-26.8544 412.034,-29.233"/>
<polygon fill="midnightblue" stroke="midnightblue" points="495.211,-24.2635 504.686,-19.5225 494.322,-17.3201 495.211,-24.2635"/>
</g>
</g>
</svg>
