<?xml version="1.0" encoding="UTF-8" standalone="no"?>
<!DOCTYPE svg PUBLIC "-//W3C//DTD SVG 1.1//EN"
 "http://www.w3.org/Graphics/SVG/1.1/DTD/svg11.dtd">
<!-- Generated by graphviz version 2.36.0 (20140111.2315)
 -->
<!-- Title: view.FileLoaderScreen.configureFileChooser Pages: 1 -->
<svg width="1496pt" height="116pt"
 viewBox="0.00 0.00 1496.00 116.00" xmlns="http://www.w3.org/2000/svg" xmlns:xlink="http://www.w3.org/1999/xlink">
<g id="graph0" class="graph" transform="scale(1 1) rotate(0) translate(4 112)">
<title>view.FileLoaderScreen.configureFileChooser</title>
<polygon fill="white" stroke="none" points="-4,4 -4,-112 1492,-112 1492,4 -4,4"/>
<!-- Node1 -->
<g id="node1" class="node"><title>Node1</title>
<polygon fill="#bfbfbf" stroke="black" points="0,-17 0,-47 168,-47 168,-17 0,-17"/>
<text text-anchor="start" x="8" y="-35" font-family="Helvetica,sans-Serif" font-size="10.00">view.FileLoaderScreen.configure</text>
<text text-anchor="middle" x="84" y="-24" font-family="Helvetica,sans-Serif" font-size="10.00">FileChooser</text>
</g>
<!-- Node2 -->
<g id="node2" class="node"><title>Node2</title>
<g id="a_node2"><a xlink:href="../../d3/d0a/classview_1_1_file_loader_screen.html#a196dd45848fbdf09ac100c343b6515cd" target="_top" xlink:title="view.FileLoaderScreen.getFile">
<polygon fill="white" stroke="black" points="204.5,-22.5 204.5,-41.5 359.5,-41.5 359.5,-22.5 204.5,-22.5"/>
<text text-anchor="middle" x="282" y="-29.5" font-family="Helvetica,sans-Serif" font-size="10.00">view.FileLoaderScreen.getFile</text>
</a>
</g>
</g>
<!-- Node1&#45;&gt;Node2 -->
<g id="edge1" class="edge"><title>Node1&#45;&gt;Node2</title>
<path fill="none" stroke="midnightblue" d="M178.301,-32C187.006,-32 195.761,-32 204.289,-32"/>
<polygon fill="midnightblue" stroke="midnightblue" points="178.122,-28.5001 168.122,-32 178.122,-35.5001 178.122,-28.5001"/>
</g>
<!-- Node3 -->
<g id="node3" class="node"><title>Node3</title>
<g id="a_node3"><a xlink:href="../../d6/d7b/classcontroller_1_1_cell_society_controller.html#afbdf9a63e15a2bfa878dcfe5ed3ef6dc" target="_top" xlink:title="controller.CellSocietyController.transition\lToFileLoaderScreen">
<polygon fill="white" stroke="black" points="396,-17 396,-47 606,-47 606,-17 396,-17"/>
<text text-anchor="start" x="404" y="-35" font-family="Helvetica,sans-Serif" font-size="10.00">controller.CellSocietyController.transition</text>
<text text-anchor="middle" x="501" y="-24" font-family="Helvetica,sans-Serif" font-size="10.00">ToFileLoaderScreen</text>
</a>
</g>
</g>
<!-- Node2&#45;&gt;Node3 -->
<g id="edge2" class="edge"><title>Node2&#45;&gt;Node3</title>
<path fill="none" stroke="midnightblue" d="M369.787,-32C378.303,-32 387.005,-32 395.671,-32"/>
<polygon fill="midnightblue" stroke="midnightblue" points="369.506,-28.5001 359.506,-32 369.506,-35.5001 369.506,-28.5001"/>
</g>
<!-- Node4 -->
<g id="node4" class="node"><title>Node4</title>
<g id="a_node4"><a xlink:href="../../d3/d48/classview_1_1_top_menu.html#af56bae78812baf114a9ed49ad52694df" target="_top" xlink:title="view.TopMenu.addLoadButton">
<polygon fill="white" stroke="black" points="666,-88.5 666,-107.5 824,-107.5 824,-88.5 666,-88.5"/>
<text text-anchor="middle" x="745" y="-95.5" font-family="Helvetica,sans-Serif" font-size="10.00">view.TopMenu.addLoadButton</text>
</a>
</g>
</g>
<!-- Node3&#45;&gt;Node4 -->
<g id="edge3" class="edge"><title>Node3&#45;&gt;Node4</title>
<path fill="none" stroke="midnightblue" d="M553.015,-50.4486C579.355,-59.5425 612.149,-70.2014 642,-78 657.103,-81.9456 673.644,-85.5082 688.929,-88.4962"/>
<polygon fill="midnightblue" stroke="midnightblue" points="553.85,-47.0334 543.255,-47.0492 551.547,-53.6438 553.85,-47.0334"/>
</g>
<!-- Node6 -->
<g id="node6" class="node"><title>Node6</title>
<g id="a_node6"><a xlink:href="../../dd/d02/classview_1_1_splash_screen.html#a652092fc5c5862cee4ff84bf231646ab" target="_top" xlink:title="view.SplashScreen.addLoad\lButton">
<polygon fill="white" stroke="black" points="670.5,-39 670.5,-69 819.5,-69 819.5,-39 670.5,-39"/>
<text text-anchor="start" x="678.5" y="-57" font-family="Helvetica,sans-Serif" font-size="10.00">view.SplashScreen.addLoad</text>
<text text-anchor="middle" x="745" y="-46" font-family="Helvetica,sans-Serif" font-size="10.00">Button</text>
</a>
</g>
</g>
<!-- Node3&#45;&gt;Node6 -->
<g id="edge5" class="edge"><title>Node3&#45;&gt;Node6</title>
<path fill="none" stroke="midnightblue" d="M616.226,-42.3842C634.629,-44.0572 653.242,-45.7493 670.355,-47.305"/>
<polygon fill="midnightblue" stroke="midnightblue" points="616.31,-38.8775 606.034,-41.4577 615.676,-45.8487 616.31,-38.8775"/>
</g>
<!-- Node10 -->
<g id="node10" class="node"><title>Node10</title>
<g id="a_node10"><a xlink:href="../../d6/d7b/classcontroller_1_1_cell_society_controller.html#a643c7ac22f2822fa7e492dbf4267ed21" target="_top" xlink:title="controller.CellSocietyController.readXML">
<polygon fill="white" stroke="black" points="642,-0.5 642,-19.5 848,-19.5 848,-0.5 642,-0.5"/>
<text text-anchor="middle" x="745" y="-7.5" font-family="Helvetica,sans-Serif" font-size="10.00">controller.CellSocietyController.readXML</text>
</a>
</g>
</g>
<!-- Node3&#45;&gt;Node10 -->
<g id="edge9" class="edge"><title>Node3&#45;&gt;Node10</title>
<path fill="none" stroke="midnightblue" d="M605.011,-15.9521C617.165,-14.7564 629.566,-13.6309 641.71,-12.6213"/>
<polygon fill="midnightblue" stroke="midnightblue" points="604.471,-12.4887 594.871,-16.9719 605.172,-19.4535 604.471,-12.4887"/>
</g>
<!-- Node5 -->
<g id="node5" class="node"><title>Node5</title>
<g id="a_node5"><a xlink:href="../../d3/d48/classview_1_1_top_menu.html#a4442589b1733d6ad662c92700f27018e" target="_top" xlink:title="view.TopMenu.createTopButtons">
<polygon fill="white" stroke="black" points="884,-88.5 884,-107.5 1052,-107.5 1052,-88.5 884,-88.5"/>
<text text-anchor="middle" x="968" y="-95.5" font-family="Helvetica,sans-Serif" font-size="10.00">view.TopMenu.createTopButtons</text>
</a>
</g>
</g>
<!-- Node4&#45;&gt;Node5 -->
<g id="edge4" class="edge"><title>Node4&#45;&gt;Node5</title>
<path fill="none" stroke="midnightblue" d="M834.265,-98C850.546,-98 867.5,-98 883.631,-98"/>
<polygon fill="midnightblue" stroke="midnightblue" points="834.227,-94.5001 824.227,-98 834.227,-101.5 834.227,-94.5001"/>
</g>
<!-- Node7 -->
<g id="node7" class="node"><title>Node7</title>
<g id="a_node7"><a xlink:href="../../dd/d02/classview_1_1_splash_screen.html#a6ff42b7dad4e546981a3266f9d694f5a" target="_top" xlink:title="view.SplashScreen.getNode">
<polygon fill="white" stroke="black" points="893.5,-44.5 893.5,-63.5 1042.5,-63.5 1042.5,-44.5 893.5,-44.5"/>
<text text-anchor="middle" x="968" y="-51.5" font-family="Helvetica,sans-Serif" font-size="10.00">view.SplashScreen.getNode</text>
</a>
</g>
</g>
<!-- Node6&#45;&gt;Node7 -->
<g id="edge6" class="edge"><title>Node6&#45;&gt;Node7</title>
<path fill="none" stroke="midnightblue" d="M829.74,-54C850.667,-54 872.957,-54 893.355,-54"/>
<polygon fill="midnightblue" stroke="midnightblue" points="829.59,-50.5001 819.59,-54 829.59,-57.5001 829.59,-50.5001"/>
</g>
<!-- Node8 -->
<g id="node8" class="node"><title>Node8</title>
<g id="a_node8"><a xlink:href="../../d6/d7b/classcontroller_1_1_cell_society_controller.html#a3f78125e5b809d88d3cf7ed20b3756c2" target="_top" xlink:title="controller.CellSocietyController.display\lSplashScreen">
<polygon fill="white" stroke="black" points="1088,-39 1088,-69 1286,-69 1286,-39 1088,-39"/>
<text text-anchor="start" x="1096" y="-57" font-family="Helvetica,sans-Serif" font-size="10.00">controller.CellSocietyController.display</text>
<text text-anchor="middle" x="1187" y="-46" font-family="Helvetica,sans-Serif" font-size="10.00">SplashScreen</text>
</a>
</g>
</g>
<!-- Node7&#45;&gt;Node8 -->
<g id="edge7" class="edge"><title>Node7&#45;&gt;Node8</title>
<path fill="none" stroke="midnightblue" d="M1053.1,-54C1064.48,-54 1076.24,-54 1087.84,-54"/>
<polygon fill="midnightblue" stroke="midnightblue" points="1052.77,-50.5001 1042.77,-54 1052.77,-57.5001 1052.77,-50.5001"/>
</g>
<!-- Node9 -->
<g id="node9" class="node"><title>Node9</title>
<g id="a_node9"><a xlink:href="../../d6/d7b/classcontroller_1_1_cell_society_controller.html#a6a2310de67e415512149c94c9f36e356" target="_top" xlink:title="controller.CellSocietyController.\lCellSocietyController">
<polygon fill="white" stroke="black" points="1322.5,-39 1322.5,-69 1487.5,-69 1487.5,-39 1322.5,-39"/>
<text text-anchor="start" x="1330.5" y="-57" font-family="Helvetica,sans-Serif" font-size="10.00">controller.CellSocietyController.</text>
<text text-anchor="middle" x="1405" y="-46" font-family="Helvetica,sans-Serif" font-size="10.00">CellSocietyController</text>
</a>
</g>
</g>
<!-- Node8&#45;&gt;Node9 -->
<g id="edge8" class="edge"><title>Node8&#45;&gt;Node9</title>
<path fill="none" stroke="midnightblue" d="M1296.38,-54C1305.07,-54 1313.75,-54 1322.2,-54"/>
<polygon fill="midnightblue" stroke="midnightblue" points="1296.2,-50.5001 1286.2,-54 1296.2,-57.5001 1296.2,-50.5001"/>
</g>
<!-- Node10&#45;&gt;Node3 -->
<g id="edge10" class="edge"><title>Node10&#45;&gt;Node3</title>
<path fill="none" stroke="midnightblue" d="M688.519,-20.8233C664.022,-23.8573 634.394,-26.8544 606.034,-29.233"/>
<polygon fill="midnightblue" stroke="midnightblue" points="689.211,-24.2635 698.686,-19.5225 688.322,-17.3201 689.211,-24.2635"/>
</g>
</g>
</svg>
