<?xml version="1.0" encoding="UTF-8" standalone="no"?>
<!DOCTYPE svg PUBLIC "-//W3C//DTD SVG 1.1//EN"
 "http://www.w3.org/Graphics/SVG/1.1/DTD/svg11.dtd">
<!-- Generated by graphviz version 2.36.0 (20140111.2315)
 -->
<!-- Title: model.simulations.SimulationSegregation.setupParameterControl Pages: 1 -->
<svg width="1208pt" height="38pt"
 viewBox="0.00 0.00 1208.00 38.00" xmlns="http://www.w3.org/2000/svg" xmlns:xlink="http://www.w3.org/1999/xlink">
<g id="graph0" class="graph" transform="scale(1 1) rotate(0) translate(4 34)">
<title>model.simulations.SimulationSegregation.setupParameterControl</title>
<polygon fill="white" stroke="none" points="-4,4 -4,-34 1204,-34 1204,4 -4,4"/>
<!-- Node1 -->
<g id="node1" class="node"><title>Node1</title>
<polygon fill="#bfbfbf" stroke="black" points="0,-0 0,-30 190,-30 190,-0 0,-0"/>
<text text-anchor="start" x="8" y="-18" font-family="Helvetica,sans-Serif" font-size="10.00">model.simulations.Simulation</text>
<text text-anchor="middle" x="95" y="-7" font-family="Helvetica,sans-Serif" font-size="10.00">Segregation.setupParameterControl</text>
</g>
<!-- Node2 -->
<g id="node2" class="node"><title>Node2</title>
<g id="a_node2"><a xlink:href="../../d1/d3e/classview_1_1_simulation_screen.html#a0b0bca3e7baf1004020e0c6bdce57e16" target="_top" xlink:title="view.SimulationScreen.create\lOptionsPanel">
<polygon fill="white" stroke="black" points="226,-0 226,-30 384,-30 384,-0 226,-0"/>
<text text-anchor="start" x="234" y="-18" font-family="Helvetica,sans-Serif" font-size="10.00">view.SimulationScreen.create</text>
<text text-anchor="middle" x="305" y="-7" font-family="Helvetica,sans-Serif" font-size="10.00">OptionsPanel</text>
</a>
</g>
</g>
<!-- Node1&#45;&gt;Node2 -->
<g id="edge1" class="edge"><title>Node1&#45;&gt;Node2</title>
<path fill="none" stroke="midnightblue" d="M190.263,-15C198.745,-15 207.315,-15 215.743,-15"/>
<polygon fill="midnightblue" stroke="midnightblue" points="215.938,-18.5001 225.938,-15 215.938,-11.5001 215.938,-18.5001"/>
</g>
<!-- Node3 -->
<g id="node3" class="node"><title>Node3</title>
<g id="a_node3"><a xlink:href="../../d4/d94/classview_1_1_side_menu.html#aa7edbecc8f707cf46ba943208bdfb6c6" target="_top" xlink:title="view.SideMenu.createOption\lWindow">
<polygon fill="white" stroke="black" points="420,-0 420,-30 572,-30 572,-0 420,-0"/>
<text text-anchor="start" x="428" y="-18" font-family="Helvetica,sans-Serif" font-size="10.00">view.SideMenu.createOption</text>
<text text-anchor="middle" x="496" y="-7" font-family="Helvetica,sans-Serif" font-size="10.00">Window</text>
</a>
</g>
</g>
<!-- Node2&#45;&gt;Node3 -->
<g id="edge2" class="edge"><title>Node2&#45;&gt;Node3</title>
<path fill="none" stroke="midnightblue" d="M384.238,-15C392.613,-15 401.163,-15 409.616,-15"/>
<polygon fill="midnightblue" stroke="midnightblue" points="409.859,-18.5001 419.859,-15 409.859,-11.5001 409.859,-18.5001"/>
</g>
<!-- Node4 -->
<g id="node4" class="node"><title>Node4</title>
<g id="a_node4"><a xlink:href="../../d4/d94/classview_1_1_side_menu.html#a21930f61c96e9858b9fabb0bdb6910bc" target="_top" xlink:title="view.SideMenu.addOptions\lPanel">
<polygon fill="white" stroke="black" points="608,-0 608,-30 752,-30 752,-0 608,-0"/>
<text text-anchor="start" x="616" y="-18" font-family="Helvetica,sans-Serif" font-size="10.00">view.SideMenu.addOptions</text>
<text text-anchor="middle" x="680" y="-7" font-family="Helvetica,sans-Serif" font-size="10.00">Panel</text>
</a>
</g>
</g>
<!-- Node3&#45;&gt;Node4 -->
<g id="edge3" class="edge"><title>Node3&#45;&gt;Node4</title>
<path fill="none" stroke="midnightblue" d="M572.077,-15C580.593,-15 589.301,-15 597.89,-15"/>
<polygon fill="midnightblue" stroke="midnightblue" points="597.899,-18.5001 607.899,-15 597.899,-11.5001 597.899,-18.5001"/>
</g>
<!-- Node5 -->
<g id="node5" class="node"><title>Node5</title>
<g id="a_node5"><a xlink:href="../../d6/d7b/classcontroller_1_1_cell_society_controller.html#a34f35d20fd1fcdf6ec1b959f71692068" target="_top" xlink:title="controller.CellSocietyController.change\lSimulationParameters">
<polygon fill="white" stroke="black" points="788,-0 788,-30 988,-30 988,-0 788,-0"/>
<text text-anchor="start" x="796" y="-18" font-family="Helvetica,sans-Serif" font-size="10.00">controller.CellSocietyController.change</text>
<text text-anchor="middle" x="888" y="-7" font-family="Helvetica,sans-Serif" font-size="10.00">SimulationParameters</text>
</a>
</g>
</g>
<!-- Node4&#45;&gt;Node5 -->
<g id="edge4" class="edge"><title>Node4&#45;&gt;Node5</title>
<path fill="none" stroke="midnightblue" d="M752.182,-15C760.457,-15 769.036,-15 777.675,-15"/>
<polygon fill="midnightblue" stroke="midnightblue" points="777.828,-18.5001 787.828,-15 777.828,-11.5001 777.828,-18.5001"/>
</g>
<!-- Node6 -->
<g id="node6" class="node"><title>Node6</title>
<g id="a_node6"><a xlink:href="../../d0/d56/classmodel_1_1simulations_1_1_simulation.html#a843485b5e61f708ef5c8f722faee5232" target="_top" xlink:title="model.simulations.Simulation.set\lParameter">
<polygon fill="white" stroke="black" points="1024,-0 1024,-30 1200,-30 1200,-0 1024,-0"/>
<text text-anchor="start" x="1032" y="-18" font-family="Helvetica,sans-Serif" font-size="10.00">model.simulations.Simulation.set</text>
<text text-anchor="middle" x="1112" y="-7" font-family="Helvetica,sans-Serif" font-size="10.00">Parameter</text>
</a>
</g>
</g>
<!-- Node5&#45;&gt;Node6 -->
<g id="edge5" class="edge"><title>Node5&#45;&gt;Node6</title>
<path fill="none" stroke="midnightblue" d="M988.312,-15C996.766,-15 1005.31,-15 1013.75,-15"/>
<polygon fill="midnightblue" stroke="midnightblue" points="1013.97,-18.5001 1023.97,-15 1013.97,-11.5001 1013.97,-18.5001"/>
</g>
</g>
</svg>
