<?xml version="1.0" encoding="UTF-8" standalone="no"?>
<!DOCTYPE svg PUBLIC "-//W3C//DTD SVG 1.1//EN"
 "http://www.w3.org/Graphics/SVG/1.1/DTD/svg11.dtd">
<!-- Generated by graphviz version 2.36.0 (20140111.2315)
 -->
<!-- Title: model.simulations.SimulationSegregation.updateGrid Pages: 1 -->
<!--zoomable 279 -->
<svg id="main" version="1.1" xmlns="http://www.w3.org/2000/svg" xmlns:xlink="http://www.w3.org/1999/xlink" xml:space="preserve" onload="init(evt)">
<style type="text/css"><![CDATA[
.edge:hover path { stroke: red; }
.edge:hover polygon { stroke: red; fill: red; }
]]></style>
<script type="text/javascript"><![CDATA[
var edges = document.getElementsByTagName('g');
if (edges && edges.length) {
  for (var i=0;i<edges.length;i++) {
    if (edges[i].id.substr(0,4)=='edge') {
      edges[i].setAttribute('class','edge');
    }
  }
}
]]></script>
        <defs>
                <circle id="rim" cx="0" cy="0" r="7"/>
                <circle id="rim2" cx="0" cy="0" r="3.5"/>
                <g id="zoomPlus">
                        <use xlink:href="#rim" fill="#404040">
                                <set attributeName="fill" to="#808080" begin="zoomplus.mouseover" end="zoomplus.mouseout"/>
                        </use>
                        <path d="M-4,0h8M0,-4v8" fill="none" stroke="white" stroke-width="1.5" pointer-events="none"/>
                </g>
                <g id="zoomMin">
                        <use xlink:href="#rim" fill="#404040">
                                <set attributeName="fill" to="#808080" begin="zoomminus.mouseover" end="zoomminus.mouseout"/>
                        </use>
                        <path d="M-4,0h8" fill="none" stroke="white" stroke-width="1.5" pointer-events="none"/>
                </g>
                <g id="dirArrow">
                        <path fill="none" stroke="white" stroke-width="1.5" d="M0,-3.0v7 M-2.5,-0.5L0,-3.0L2.5,-0.5"/>
                </g>
               <g id="resetDef">
                       <use xlink:href="#rim2" fill="#404040">
                               <set attributeName="fill" to="#808080" begin="reset.mouseover" end="reset.mouseout"/>
                       </use>
               </g>
        </defs>

<script type="text/javascript">
var viewWidth = 1048;
var viewHeight = 279;
var sectionId = 'dynsection-6';
</script>
<script xlink:href="../../svgpan.js"/>
<svg id="graph" class="graph">
<g id="viewport">
<title>model.simulations.SimulationSegregation.updateGrid</title>
<polygon fill="white" stroke="none" points="-4,4 -4,-275 1044,-275 1044,4 -4,4"/>
<!-- Node1 -->
<g id="node1" class="node"><title>Node1</title>
<polygon fill="#bfbfbf" stroke="black" points="0,-82 0,-112 158,-112 158,-82 0,-82"/>
<text text-anchor="start" x="8" y="-100" font-family="Helvetica,sans-Serif" font-size="10.00">model.simulations.Simulation</text>
<text text-anchor="middle" x="79" y="-89" font-family="Helvetica,sans-Serif" font-size="10.00">Segregation.updateGrid</text>
</g>
<!-- Node2 -->
<g id="node2" class="node"><title>Node2</title>
<g id="a_node2"><a xlink:href="../../db/d90/classmodel_1_1patches_1_1_patch.html#a7ba5fbc8b51be9d83051c94820bf1083" target="_top" xlink:title="model.patches.Patch.getCell">
<polygon fill="white" stroke="black" points="673.5,-49.5 673.5,-68.5 826.5,-68.5 826.5,-49.5 673.5,-49.5"/>
<text text-anchor="middle" x="750" y="-56.5" font-family="Helvetica,sans-Serif" font-size="10.00">model.patches.Patch.getCell</text>
</a>
</g>
</g>
<!-- Node1&#45;&gt;Node2 -->
<g id="edge1" class="edge"><title>Node1&#45;&gt;Node2</title>
<path fill="none" stroke="midnightblue" d="M158.007,-82.6089C170.026,-80.7946 182.32,-79.1681 194,-78 359.423,-61.455 553.805,-58.5783 663.079,-58.4631"/>
<polygon fill="midnightblue" stroke="midnightblue" points="663.385,-61.9631 673.384,-58.4602 663.383,-54.9632 663.385,-61.9631"/>
</g>
<!-- Node3 -->
<g id="node3" class="node"><title>Node3</title>
<g id="a_node3"><a xlink:href="../../da/d76/classmodel_1_1simulations_1_1_simulation_segregation.html#a4fcb2d48be4d851031592698dd78c1e6" target="_top" xlink:title="model.simulations.Simulation\lSegregation.moveAgent">
<polygon fill="white" stroke="black" points="213,-210 213,-240 371,-240 371,-210 213,-210"/>
<text text-anchor="start" x="221" y="-228" font-family="Helvetica,sans-Serif" font-size="10.00">model.simulations.Simulation</text>
<text text-anchor="middle" x="292" y="-217" font-family="Helvetica,sans-Serif" font-size="10.00">Segregation.moveAgent</text>
</a>
</g>
</g>
<!-- Node1&#45;&gt;Node3 -->
<g id="edge2" class="edge"><title>Node1&#45;&gt;Node3</title>
<path fill="none" stroke="midnightblue" d="M105.033,-112.186C142.945,-135.185 214.99,-178.89 257.418,-204.628"/>
<polygon fill="midnightblue" stroke="midnightblue" points="255.634,-207.64 266,-209.834 259.265,-201.655 255.634,-207.64"/>
</g>
<!-- Node5 -->
<g id="node5" class="node"><title>Node5</title>
<g id="a_node5"><a xlink:href="../../dc/d41/classmodel_1_1cells_1_1_cell.html#a5d644bc63cc518f83b1a597351148008" target="_top" xlink:title="model.cells.Cell.update">
<polygon fill="white" stroke="black" points="228,-87.5 228,-106.5 356,-106.5 356,-87.5 228,-87.5"/>
<text text-anchor="middle" x="292" y="-94.5" font-family="Helvetica,sans-Serif" font-size="10.00">model.cells.Cell.update</text>
</a>
</g>
</g>
<!-- Node1&#45;&gt;Node5 -->
<g id="edge4" class="edge"><title>Node1&#45;&gt;Node5</title>
<path fill="none" stroke="midnightblue" d="M158.269,-97C177.754,-97 198.57,-97 217.801,-97"/>
<polygon fill="midnightblue" stroke="midnightblue" points="217.999,-100.5 227.999,-97 217.999,-93.5001 217.999,-100.5"/>
</g>
<!-- Node6 -->
<g id="node6" class="node"><title>Node6</title>
<g id="a_node6"><a xlink:href="../../d0/d56/classmodel_1_1simulations_1_1_simulation.html#a6efb6657ce3c803a99ccd41d8b8a2057" target="_top" xlink:title="model.simulations.Simulation.update\lColorGrid">
<polygon fill="white" stroke="black" points="194.5,-126 194.5,-156 389.5,-156 389.5,-126 194.5,-126"/>
<text text-anchor="start" x="202.5" y="-144" font-family="Helvetica,sans-Serif" font-size="10.00">model.simulations.Simulation.update</text>
<text text-anchor="middle" x="292" y="-133" font-family="Helvetica,sans-Serif" font-size="10.00">ColorGrid</text>
</a>
</g>
</g>
<!-- Node1&#45;&gt;Node6 -->
<g id="edge5" class="edge"><title>Node1&#45;&gt;Node6</title>
<path fill="none" stroke="midnightblue" d="M152.024,-112.019C170.341,-115.839 190.159,-119.972 208.935,-123.887"/>
<polygon fill="midnightblue" stroke="midnightblue" points="208.439,-127.359 218.943,-125.974 209.868,-120.506 208.439,-127.359"/>
</g>
<!-- Node12 -->
<g id="node12" class="node"><title>Node12</title>
<g id="a_node12"><a xlink:href="../../d0/d56/classmodel_1_1simulations_1_1_simulation.html#a79b103e987f93ecbd35ef416d4e01b13" target="_top" xlink:title="model.simulations.Simulation.update\lNeighbors">
<polygon fill="white" stroke="black" points="194.5,-0 194.5,-30 389.5,-30 389.5,-0 194.5,-0"/>
<text text-anchor="start" x="202.5" y="-18" font-family="Helvetica,sans-Serif" font-size="10.00">model.simulations.Simulation.update</text>
<text text-anchor="middle" x="292" y="-7" font-family="Helvetica,sans-Serif" font-size="10.00">Neighbors</text>
</a>
</g>
</g>
<!-- Node1&#45;&gt;Node12 -->
<g id="edge12" class="edge"><title>Node1&#45;&gt;Node12</title>
<path fill="none" stroke="midnightblue" d="M110.513,-81.7901C133.215,-70.7923 165.133,-55.9957 194,-45 205.003,-40.8087 216.868,-36.7621 228.397,-33.0702"/>
<polygon fill="midnightblue" stroke="midnightblue" points="229.486,-36.3967 237.975,-30.0569 227.385,-29.7193 229.486,-36.3967"/>
</g>
<!-- Node4 -->
<g id="node4" class="node"><title>Node4</title>
<g id="a_node4"><a xlink:href="../../db/d90/classmodel_1_1patches_1_1_patch.html#ac89c81c8beb110fab65724ab24f2a1dd" target="_top" xlink:title="model.patches.Patch.setCell">
<polygon fill="white" stroke="black" points="448,-251.5 448,-270.5 600,-270.5 600,-251.5 448,-251.5"/>
<text text-anchor="middle" x="524" y="-258.5" font-family="Helvetica,sans-Serif" font-size="10.00">model.patches.Patch.setCell</text>
</a>
</g>
</g>
<!-- Node3&#45;&gt;Node4 -->
<g id="edge3" class="edge"><title>Node3&#45;&gt;Node4</title>
<path fill="none" stroke="midnightblue" d="M371.188,-237.238C397.401,-241.341 426.466,-245.89 452.09,-249.901"/>
<polygon fill="midnightblue" stroke="midnightblue" points="451.677,-253.379 462.098,-251.467 452.759,-246.463 451.677,-253.379"/>
</g>
<!-- Node6&#45;&gt;Node2 -->
<g id="edge6" class="edge"><title>Node6&#45;&gt;Node2</title>
<path fill="none" stroke="midnightblue" d="M372.092,-125.983C389.823,-122.659 408.549,-119.18 426,-116 515.202,-99.7461 618.4,-81.6597 683.672,-70.3088"/>
<polygon fill="midnightblue" stroke="midnightblue" points="684.561,-73.7068 693.814,-68.5462 683.363,-66.8102 684.561,-73.7068"/>
</g>
<!-- Node7 -->
<g id="node7" class="node"><title>Node7</title>
<g id="a_node7"><a xlink:href="../../dc/d41/classmodel_1_1cells_1_1_cell.html#ac50f3513c91c8934182ceb7fa8b192fb" target="_top" xlink:title="model.cells.Cell.getColor">
<polygon fill="white" stroke="black" points="457,-163.5 457,-182.5 591,-182.5 591,-163.5 457,-163.5"/>
<text text-anchor="middle" x="524" y="-170.5" font-family="Helvetica,sans-Serif" font-size="10.00">model.cells.Cell.getColor</text>
</a>
</g>
</g>
<!-- Node6&#45;&gt;Node7 -->
<g id="edge7" class="edge"><title>Node6&#45;&gt;Node7</title>
<path fill="none" stroke="midnightblue" d="M389.541,-154.432C408.626,-157.087 428.408,-159.839 446.71,-162.386"/>
<polygon fill="midnightblue" stroke="midnightblue" points="446.324,-165.866 456.711,-163.777 447.288,-158.932 446.324,-165.866"/>
</g>
<!-- Node8 -->
<g id="node8" class="node"><title>Node8</title>
<g id="a_node8"><a xlink:href="../../db/d90/classmodel_1_1patches_1_1_patch.html#af3d92d81282dcb3654b500c8fbebef06" target="_top" xlink:title="model.patches.Patch.getColor">
<polygon fill="white" stroke="black" points="443.5,-125.5 443.5,-144.5 604.5,-144.5 604.5,-125.5 443.5,-125.5"/>
<text text-anchor="middle" x="524" y="-132.5" font-family="Helvetica,sans-Serif" font-size="10.00">model.patches.Patch.getColor</text>
</a>
</g>
</g>
<!-- Node6&#45;&gt;Node8 -->
<g id="edge8" class="edge"><title>Node6&#45;&gt;Node8</title>
<path fill="none" stroke="midnightblue" d="M389.541,-138.482C403.984,-138.105 418.825,-137.718 433.122,-137.345"/>
<polygon fill="midnightblue" stroke="midnightblue" points="433.518,-140.836 443.423,-137.076 433.335,-133.838 433.518,-140.836"/>
</g>
<!-- Node9 -->
<g id="node9" class="node"><title>Node9</title>
<g id="a_node9"><a xlink:href="../../d1/d3e/classview_1_1_simulation_screen.html#a56d778b3e5756edd732a027e4d96a431" target="_top" xlink:title="view.SimulationScreen.update\lScreen">
<polygon fill="white" stroke="black" points="443.5,-202 443.5,-232 604.5,-232 604.5,-202 443.5,-202"/>
<text text-anchor="start" x="451.5" y="-220" font-family="Helvetica,sans-Serif" font-size="10.00">view.SimulationScreen.update</text>
<text text-anchor="middle" x="524" y="-209" font-family="Helvetica,sans-Serif" font-size="10.00">Screen</text>
</a>
</g>
</g>
<!-- Node6&#45;&gt;Node9 -->
<g id="edge9" class="edge"><title>Node6&#45;&gt;Node9</title>
<path fill="none" stroke="midnightblue" d="M329.014,-156.09C355.549,-166.894 392.667,-181.352 426,-192 433.918,-194.529 442.261,-196.986 450.593,-199.308"/>
<polygon fill="midnightblue" stroke="midnightblue" points="449.776,-202.713 460.345,-201.969 451.619,-195.96 449.776,-202.713"/>
</g>
<!-- Node10 -->
<g id="node10" class="node"><title>Node10</title>
<g id="a_node10"><a xlink:href="../../d1/d3e/classview_1_1_simulation_screen.html#ac818b7465bc624b25a3aba98df571bdb" target="_top" xlink:title="view.SimulationScreen.updateData">
<polygon fill="white" stroke="black" points="658,-207.5 658,-226.5 842,-226.5 842,-207.5 658,-207.5"/>
<text text-anchor="middle" x="750" y="-214.5" font-family="Helvetica,sans-Serif" font-size="10.00">view.SimulationScreen.updateData</text>
</a>
</g>
</g>
<!-- Node9&#45;&gt;Node10 -->
<g id="edge10" class="edge"><title>Node9&#45;&gt;Node10</title>
<path fill="none" stroke="midnightblue" d="M604.605,-217C618.468,-217 633.055,-217 647.412,-217"/>
<polygon fill="midnightblue" stroke="midnightblue" points="647.812,-220.5 657.812,-217 647.812,-213.5 647.812,-220.5"/>
</g>
<!-- Node11 -->
<g id="node11" class="node"><title>Node11</title>
<g id="a_node11"><a xlink:href="../../d1/d3e/classview_1_1_simulation_screen.html#a903be669ef69338f95301aa617218a14" target="_top" xlink:title="view.SimulationScreen.update\lMapArrayList">
<polygon fill="white" stroke="black" points="878.5,-202 878.5,-232 1039.5,-232 1039.5,-202 878.5,-202"/>
<text text-anchor="start" x="886.5" y="-220" font-family="Helvetica,sans-Serif" font-size="10.00">view.SimulationScreen.update</text>
<text text-anchor="middle" x="959" y="-209" font-family="Helvetica,sans-Serif" font-size="10.00">MapArrayList</text>
</a>
</g>
</g>
<!-- Node10&#45;&gt;Node11 -->
<g id="edge11" class="edge"><title>Node10&#45;&gt;Node11</title>
<path fill="none" stroke="midnightblue" d="M842.094,-217C850.748,-217 859.519,-217 868.161,-217"/>
<polygon fill="midnightblue" stroke="midnightblue" points="868.232,-220.5 878.232,-217 868.232,-213.5 868.232,-220.5"/>
</g>
<!-- Node13 -->
<g id="node13" class="node"><title>Node13</title>
<g id="a_node13"><a xlink:href="../../d0/d56/classmodel_1_1simulations_1_1_simulation.html#ac71a6bcbcb42c8759d1e6a6aacafc802" target="_top" xlink:title="model.simulations.Simulation.update\lNeighborSquare">
<polygon fill="white" stroke="black" points="426.5,-0 426.5,-30 621.5,-30 621.5,-0 426.5,-0"/>
<text text-anchor="start" x="434.5" y="-18" font-family="Helvetica,sans-Serif" font-size="10.00">model.simulations.Simulation.update</text>
<text text-anchor="middle" x="524" y="-7" font-family="Helvetica,sans-Serif" font-size="10.00">NeighborSquare</text>
</a>
</g>
</g>
<!-- Node12&#45;&gt;Node13 -->
<g id="edge13" class="edge"><title>Node12&#45;&gt;Node13</title>
<path fill="none" stroke="midnightblue" d="M389.541,-15C398.384,-15 407.376,-15 416.301,-15"/>
<polygon fill="midnightblue" stroke="midnightblue" points="416.337,-18.5001 426.337,-15 416.337,-11.5001 416.337,-18.5001"/>
</g>
<!-- Node13&#45;&gt;Node2 -->
<g id="edge14" class="edge"><title>Node13&#45;&gt;Node2</title>
<path fill="none" stroke="midnightblue" d="M601.462,-30.0192C630.569,-35.7367 663.249,-42.156 690.44,-47.4971"/>
<polygon fill="midnightblue" stroke="midnightblue" points="690.086,-50.9944 700.573,-49.4876 691.435,-44.1257 690.086,-50.9944"/>
</g>
<!-- Node14 -->
<g id="node14" class="node"><title>Node14</title>
<g id="a_node14"><a xlink:href="../../dc/d41/classmodel_1_1cells_1_1_cell.html#a6d3a4c932aa68c9364b241effbb2ed50" target="_top" xlink:title="model.cells.Cell.setNeighbors">
<polygon fill="white" stroke="black" points="671,-5.5 671,-24.5 829,-24.5 829,-5.5 671,-5.5"/>
<text text-anchor="middle" x="750" y="-12.5" font-family="Helvetica,sans-Serif" font-size="10.00">model.cells.Cell.setNeighbors</text>
</a>
</g>
</g>
<!-- Node13&#45;&gt;Node14 -->
<g id="edge15" class="edge"><title>Node13&#45;&gt;Node14</title>
<path fill="none" stroke="midnightblue" d="M621.621,-15C634.609,-15 647.877,-15 660.71,-15"/>
<polygon fill="midnightblue" stroke="midnightblue" points="660.895,-18.5001 670.895,-15 660.895,-11.5001 660.895,-18.5001"/>
</g>
</g>
</svg>
        <g id="navigator" transform="translate(0 0)" fill="#404254">
                <rect fill="#f2f5e9" fill-opacity="0.5" stroke="#606060" stroke-width=".5" x="0" y="0" width="60" height="60"/>
                <use id="zoomplus" xlink:href="#zoomPlus" x="17" y="9" onmousedown="handleZoom(evt,'in')"/>
                <use id="zoomminus" xlink:href="#zoomMin" x="42" y="9" onmousedown="handleZoom(evt,'out')"/>
                <use id="reset" xlink:href="#resetDef" x="30" y="36" onmousedown="handleReset()"/>
                <g id="arrowUp" xlink:href="#dirArrow" transform="translate(30 24)" onmousedown="handlePan(0,-1)">
                  <use xlink:href="#rim" fill="#404040">
                        <set attributeName="fill" to="#808080" begin="arrowUp.mouseover" end="arrowUp.mouseout"/>
                  </use>
                  <path fill="none" stroke="white" stroke-width="1.5" d="M0,-3.0v7 M-2.5,-0.5L0,-3.0L2.5,-0.5"/>
                </g>
                <g id="arrowRight" xlink:href="#dirArrow" transform="rotate(90) translate(36 -43)" onmousedown="handlePan(1,0)">
                  <use xlink:href="#rim" fill="#404040">
                        <set attributeName="fill" to="#808080" begin="arrowRight.mouseover" end="arrowRight.mouseout"/>
                  </use>
                  <path fill="none" stroke="white" stroke-width="1.5" d="M0,-3.0v7 M-2.5,-0.5L0,-3.0L2.5,-0.5"/>
                </g>
                <g id="arrowDown" xlink:href="#dirArrow" transform="rotate(180) translate(-30 -48)" onmousedown="handlePan(0,1)">
                  <use xlink:href="#rim" fill="#404040">
                        <set attributeName="fill" to="#808080" begin="arrowDown.mouseover" end="arrowDown.mouseout"/>
                  </use>
                  <path fill="none" stroke="white" stroke-width="1.5" d="M0,-3.0v7 M-2.5,-0.5L0,-3.0L2.5,-0.5"/>
                </g>
                <g id="arrowLeft" xlink:href="#dirArrow" transform="rotate(270) translate(-36 17)" onmousedown="handlePan(-1,0)">
                  <use xlink:href="#rim" fill="#404040">
                        <set attributeName="fill" to="#808080" begin="arrowLeft.mouseover" end="arrowLeft.mouseout"/>
                  </use>
                  <path fill="none" stroke="white" stroke-width="1.5" d="M0,-3.0v7 M-2.5,-0.5L0,-3.0L2.5,-0.5"/>
                </g>
        </g>
        <svg viewBox="0 0 15 15" width="100%" height="30px" preserveAspectRatio="xMaxYMin meet">
         <g id="arrow_out" transform="scale(0.3 0.3)">
          <a xlink:href="classmodel_1_1simulations_1_1_simulation_segregation_a3aeb5a7dfb3094553814a23e70cd5676_cgraph_org.svg" target="_base">
           <rect id="button" ry="5" rx="5" y="6" x="6" height="38" width="38"
                fill="#f2f5e9" fill-opacity="0.5" stroke="#606060" stroke-width="1.0"/>
           <path id="arrow"
             d="M 11.500037,31.436501 C 11.940474,20.09759 22.043105,11.32322 32.158766,21.979434 L 37.068811,17.246167 C 37.068811,17.246167 37.088388,32 37.088388,32 L 22.160133,31.978069 C 22.160133,31.978069 26.997745,27.140456 26.997745,27.140456 C 18.528582,18.264221 13.291696,25.230495 11.500037,31.436501 z"
             style="fill:#404040;"/>
          </a>
         </g>
        </svg>
</svg>
