<?xml version="1.0" encoding="UTF-8" standalone="no"?>
<!DOCTYPE svg PUBLIC "-//W3C//DTD SVG 1.1//EN"
 "http://www.w3.org/Graphics/SVG/1.1/DTD/svg11.dtd">
<!-- Generated by graphviz version 2.36.0 (20140111.2315)
 -->
<!-- Title: model.simulations.SimulationPredator.SimulationPredator Pages: 1 -->
<svg width="356pt" height="66pt"
 viewBox="0.00 0.00 356.00 66.00" xmlns="http://www.w3.org/2000/svg" xmlns:xlink="http://www.w3.org/1999/xlink">
<g id="graph0" class="graph" transform="scale(1 1) rotate(0) translate(4 62)">
<title>model.simulations.SimulationPredator.SimulationPredator</title>
<polygon fill="white" stroke="none" points="-4,4 -4,-62 352,-62 352,4 -4,4"/>
<!-- Node1 -->
<g id="node1" class="node"><title>Node1</title>
<polygon fill="#bfbfbf" stroke="black" points="0,-14 0,-44 158,-44 158,-14 0,-14"/>
<text text-anchor="start" x="8" y="-32" font-family="Helvetica,sans-Serif" font-size="10.00">model.simulations.Simulation</text>
<text text-anchor="middle" x="79" y="-21" font-family="Helvetica,sans-Serif" font-size="10.00">Predator.SimulationPredator</text>
</g>
<!-- Node2 -->
<g id="node2" class="node"><title>Node2</title>
<g id="a_node2"><a xlink:href="../../db/d90/classmodel_1_1patches_1_1_patch.html#a7ba5fbc8b51be9d83051c94820bf1083" target="_top" xlink:title="model.patches.Patch.getCell">
<polygon fill="white" stroke="black" points="194.5,-38.5 194.5,-57.5 347.5,-57.5 347.5,-38.5 194.5,-38.5"/>
<text text-anchor="middle" x="271" y="-45.5" font-family="Helvetica,sans-Serif" font-size="10.00">model.patches.Patch.getCell</text>
</a>
</g>
</g>
<!-- Node1&#45;&gt;Node2 -->
<g id="edge1" class="edge"><title>Node1&#45;&gt;Node2</title>
<path fill="none" stroke="midnightblue" d="M158.103,-36.8103C166.71,-37.671 175.508,-38.5508 184.203,-39.4203"/>
<polygon fill="midnightblue" stroke="midnightblue" points="184.046,-42.922 194.344,-40.4344 184.742,-35.9567 184.046,-42.922"/>
</g>
<!-- Node3 -->
<g id="node3" class="node"><title>Node3</title>
<g id="a_node3"><a xlink:href="../../dc/d41/classmodel_1_1cells_1_1_cell.html#a23537f07ee3443bae1d362a68a9bc171" target="_top" xlink:title="model.cells.Cell.setCoords">
<polygon fill="white" stroke="black" points="199.5,-0.5 199.5,-19.5 342.5,-19.5 342.5,-0.5 199.5,-0.5"/>
<text text-anchor="middle" x="271" y="-7.5" font-family="Helvetica,sans-Serif" font-size="10.00">model.cells.Cell.setCoords</text>
</a>
</g>
</g>
<!-- Node1&#45;&gt;Node3 -->
<g id="edge2" class="edge"><title>Node1&#45;&gt;Node3</title>
<path fill="none" stroke="midnightblue" d="M158.103,-21.1897C168.312,-20.1688 178.791,-19.1209 189.047,-18.0953"/>
<polygon fill="midnightblue" stroke="midnightblue" points="189.607,-21.5568 199.209,-17.0791 188.911,-14.5916 189.607,-21.5568"/>
</g>
</g>
</svg>
