<?xml version="1.0" encoding="UTF-8" standalone="no"?>
<!DOCTYPE svg PUBLIC "-//W3C//DTD SVG 1.1//EN"
 "http://www.w3.org/Graphics/SVG/1.1/DTD/svg11.dtd">
<!-- Generated by graphviz version 2.36.0 (20140111.2315)
 -->
<!-- Title: view.TopMenu Pages: 1 -->
<svg width="1020pt" height="528pt"
 viewBox="0.00 0.00 1020.00 528.00" xmlns="http://www.w3.org/2000/svg" xmlns:xlink="http://www.w3.org/1999/xlink">
<g id="graph0" class="graph" transform="scale(1 1) rotate(0) translate(4 524)">
<title>view.TopMenu</title>
<polygon fill="white" stroke="none" points="-4,4 -4,-524 1016,-524 1016,4 -4,4"/>
<!-- Node1 -->
<g id="node1" class="node"><title>Node1</title>
<polygon fill="#bfbfbf" stroke="black" points="632.5,-448.5 632.5,-467.5 713.5,-467.5 713.5,-448.5 632.5,-448.5"/>
<text text-anchor="middle" x="673" y="-455.5" font-family="Helvetica,sans-Serif" font-size="10.00">view.TopMenu</text>
</g>
<!-- Node2 -->
<g id="node2" class="node"><title>Node2</title>
<polygon fill="white" stroke="#bfbfbf" points="296,-500.5 296,-519.5 384,-519.5 384,-500.5 296,-500.5"/>
<text text-anchor="middle" x="340" y="-507.5" font-family="Helvetica,sans-Serif" font-size="10.00">List&lt; Button &gt;</text>
</g>
<!-- Node2&#45;&gt;Node1 -->
<g id="edge1" class="edge"><title>Node2&#45;&gt;Node1</title>
<path fill="none" stroke="#9a32cd" stroke-dasharray="5,2" d="M394.088,-507.212C442.795,-504.003 516.759,-497.48 580,-485 601.883,-480.681 626.064,-473.486 644.142,-467.609"/>
<polygon fill="#9a32cd" stroke="#9a32cd" points="393.849,-503.72 384.091,-507.848 394.293,-510.706 393.849,-503.72"/>
<text text-anchor="middle" x="510" y="-507" font-family="Helvetica,sans-Serif" font-size="10.00"> myButtons</text>
</g>
<!-- Node3 -->
<g id="node3" class="node"><title>Node3</title>
<polygon fill="white" stroke="#bfbfbf" points="27.5,-436.5 27.5,-455.5 120.5,-455.5 120.5,-436.5 27.5,-436.5"/>
<text text-anchor="middle" x="74" y="-443.5" font-family="Helvetica,sans-Serif" font-size="10.00">ResourceBundle</text>
</g>
<!-- Node3&#45;&gt;Node1 -->
<g id="edge2" class="edge"><title>Node3&#45;&gt;Node1</title>
<path fill="none" stroke="#9a32cd" stroke-dasharray="5,2" d="M130.653,-448.124C202.215,-450.752 330.345,-455.112 440,-457 507.456,-458.162 585.96,-458.231 632.176,-458.141"/>
<polygon fill="#9a32cd" stroke="#9a32cd" points="130.636,-444.621 120.514,-447.749 130.378,-451.616 130.636,-444.621"/>
<text text-anchor="middle" x="340" y="-460" font-family="Helvetica,sans-Serif" font-size="10.00"> myProperties</text>
</g>
<!-- Node5 -->
<g id="node5" class="node"><title>Node5</title>
<g id="a_node5"><a xlink:href="../../d6/d7b/classcontroller_1_1_cell_society_controller.html" target="_top" xlink:title="controller.CellSocietyController">
<polygon fill="white" stroke="black" points="258.5,-294.5 258.5,-313.5 421.5,-313.5 421.5,-294.5 258.5,-294.5"/>
<text text-anchor="middle" x="340" y="-301.5" font-family="Helvetica,sans-Serif" font-size="10.00">controller.CellSocietyController</text>
</a>
</g>
</g>
<!-- Node3&#45;&gt;Node5 -->
<g id="edge27" class="edge"><title>Node3&#45;&gt;Node5</title>
<path fill="none" stroke="#9a32cd" stroke-dasharray="5,2" d="M123.85,-433.495C158.628,-422.929 205.178,-405.265 240,-379 250.363,-371.183 248.403,-364.74 258,-356 277.273,-338.446 303.136,-322.977 320.4,-313.569"/>
<polygon fill="#9a32cd" stroke="#9a32cd" points="122.523,-430.237 113.918,-436.418 124.499,-436.952 122.523,-430.237"/>
<text text-anchor="middle" x="203" y="-422" font-family="Helvetica,sans-Serif" font-size="10.00"> myProperties</text>
</g>
<!-- Node4 -->
<g id="node4" class="node"><title>Node4</title>
<polygon fill="white" stroke="#bfbfbf" points="279.5,-404 279.5,-434 400.5,-434 400.5,-404 279.5,-404"/>
<text text-anchor="start" x="287.5" y="-422" font-family="Helvetica,sans-Serif" font-size="10.00">Map&lt; Color, ArrayList</text>
<text text-anchor="middle" x="340" y="-411" font-family="Helvetica,sans-Serif" font-size="10.00">&lt; Integer &gt; &gt;</text>
</g>
<!-- Node4&#45;&gt;Node1 -->
<g id="edge3" class="edge"><title>Node4&#45;&gt;Node1</title>
<path fill="none" stroke="#9a32cd" stroke-dasharray="5,2" d="M411.156,-426.604C458.803,-431.848 523.232,-439.092 580,-446 597.109,-448.082 615.988,-450.52 632.169,-452.653"/>
<polygon fill="#9a32cd" stroke="#9a32cd" points="411.271,-423.096 400.948,-425.483 410.506,-430.054 411.271,-423.096"/>
<text text-anchor="middle" x="510" y="-449" font-family="Helvetica,sans-Serif" font-size="10.00"> myData</text>
</g>
<!-- Node17 -->
<g id="node17" class="node"><title>Node17</title>
<g id="a_node17"><a xlink:href="../../d1/d3e/classview_1_1_simulation_screen.html" target="_top" xlink:title="view.SimulationScreen">
<polygon fill="white" stroke="black" points="611,-247.5 611,-266.5 735,-266.5 735,-247.5 611,-247.5"/>
<text text-anchor="middle" x="673" y="-254.5" font-family="Helvetica,sans-Serif" font-size="10.00">view.SimulationScreen</text>
</a>
</g>
</g>
<!-- Node4&#45;&gt;Node17 -->
<g id="edge19" class="edge"><title>Node4&#45;&gt;Node17</title>
<path fill="none" stroke="#9a32cd" stroke-dasharray="5,2" d="M410.987,-414.407C477.072,-409.405 567.84,-400.55 580,-389 613.061,-357.599 569.499,-323.591 598,-288 606.01,-277.997 617.82,-271.18 629.664,-266.551"/>
<polygon fill="#9a32cd" stroke="#9a32cd" points="410.323,-410.946 400.609,-415.176 410.84,-417.927 410.323,-410.946"/>
<text text-anchor="middle" x="510" y="-415" font-family="Helvetica,sans-Serif" font-size="10.00"> myData</text>
</g>
<!-- Node5&#45;&gt;Node1 -->
<g id="edge4" class="edge"><title>Node5&#45;&gt;Node1</title>
<path fill="none" stroke="#9a32cd" stroke-dasharray="5,2" d="M405.216,-315.231C416.788,-317.196 428.747,-319.19 440,-321 471.06,-325.996 556.406,-321.191 580,-342 602.161,-361.545 580.923,-381.887 598,-406 611.522,-425.093 634.372,-439.576 651.11,-448.347"/>
<polygon fill="#9a32cd" stroke="#9a32cd" points="405.62,-311.749 395.173,-313.516 404.441,-318.649 405.62,-311.749"/>
<text text-anchor="middle" x="510" y="-345" font-family="Helvetica,sans-Serif" font-size="10.00"> myController</text>
</g>
<!-- Node5&#45;&gt;Node17 -->
<g id="edge21" class="edge"><title>Node5&#45;&gt;Node17</title>
<path fill="none" stroke="#9a32cd" stroke-dasharray="5,2" d="M362.207,-288.639C381.434,-275.725 411.106,-258.248 440,-251 499.402,-236.1 570.054,-241.009 617.654,-247.457"/>
<polygon fill="#9a32cd" stroke="#9a32cd" points="360.143,-285.81 353.903,-294.372 364.12,-291.571 360.143,-285.81"/>
<text text-anchor="middle" x="510" y="-254" font-family="Helvetica,sans-Serif" font-size="10.00"> myController</text>
</g>
<!-- Node6 -->
<g id="node6" class="node"><title>Node6</title>
<polygon fill="white" stroke="#bfbfbf" points="46,-294.5 46,-313.5 102,-313.5 102,-294.5 46,-294.5"/>
<text text-anchor="middle" x="74" y="-301.5" font-family="Helvetica,sans-Serif" font-size="10.00">Timeline</text>
</g>
<!-- Node6&#45;&gt;Node5 -->
<g id="edge5" class="edge"><title>Node6&#45;&gt;Node5</title>
<path fill="none" stroke="#9a32cd" stroke-dasharray="5,2" d="M112.3,-304C150.049,-304 209.621,-304 258.225,-304"/>
<polygon fill="#9a32cd" stroke="#9a32cd" points="112.258,-300.5 102.258,-304 112.258,-307.5 112.258,-300.5"/>
<text text-anchor="middle" x="203" y="-307" font-family="Helvetica,sans-Serif" font-size="10.00"> myTimeline</text>
</g>
<!-- Node7 -->
<g id="node7" class="node"><title>Node7</title>
<polygon fill="white" stroke="#bfbfbf" points="0.5,-256.5 0.5,-275.5 147.5,-275.5 147.5,-256.5 0.5,-256.5"/>
<text text-anchor="middle" x="74" y="-263.5" font-family="Helvetica,sans-Serif" font-size="10.00">HashMap&lt; String, String &gt;</text>
</g>
<!-- Node7&#45;&gt;Node5 -->
<g id="edge6" class="edge"><title>Node7&#45;&gt;Node5</title>
<path fill="none" stroke="#9a32cd" stroke-dasharray="5,2" d="M155.047,-276.963C182.042,-280.712 212.337,-284.976 240,-289 251.956,-290.739 264.717,-292.639 276.964,-294.485"/>
<polygon fill="#9a32cd" stroke="#9a32cd" points="155.26,-273.46 144.874,-275.553 154.299,-280.393 155.26,-273.46"/>
<text text-anchor="middle" x="203" y="-292" font-family="Helvetica,sans-Serif" font-size="10.00"> myParameters</text>
</g>
<!-- Node8 -->
<g id="node8" class="node"><title>Node8</title>
<polygon fill="white" stroke="#bfbfbf" points="51.5,-218.5 51.5,-237.5 96.5,-237.5 96.5,-218.5 51.5,-218.5"/>
<text text-anchor="middle" x="74" y="-225.5" font-family="Helvetica,sans-Serif" font-size="10.00">Stage</text>
</g>
<!-- Node8&#45;&gt;Node5 -->
<g id="edge7" class="edge"><title>Node8&#45;&gt;Node5</title>
<path fill="none" stroke="#9a32cd" stroke-dasharray="5,2" d="M106.783,-233.284C140.315,-239.24 194.497,-249.954 240,-264 267.632,-272.529 298.35,-285.517 318.132,-294.362"/>
<polygon fill="#9a32cd" stroke="#9a32cd" points="107.111,-229.788 96.659,-231.519 105.909,-236.684 107.111,-229.788"/>
<text text-anchor="middle" x="203" y="-267" font-family="Helvetica,sans-Serif" font-size="10.00"> myStage</text>
</g>
<!-- Node9 -->
<g id="node9" class="node"><title>Node9</title>
<g id="a_node9"><a xlink:href="../../d0/d56/classmodel_1_1simulations_1_1_simulation.html" target="_top" xlink:title="model.simulations.Simulation">
<polygon fill="white" stroke="black" points="854,-280.5 854,-299.5 1012,-299.5 1012,-280.5 854,-280.5"/>
<text text-anchor="middle" x="933" y="-287.5" font-family="Helvetica,sans-Serif" font-size="10.00">model.simulations.Simulation</text>
</a>
</g>
</g>
<!-- Node9&#45;&gt;Node5 -->
<g id="edge8" class="edge"><title>Node9&#45;&gt;Node5</title>
<path fill="none" stroke="#9a32cd" stroke-dasharray="5,2" d="M843.758,-292.788C841.143,-292.861 838.552,-292.932 836,-293 689.922,-296.905 519.569,-300.475 421.599,-302.432"/>
<polygon fill="#9a32cd" stroke="#9a32cd" points="844.04,-296.282 853.936,-292.498 843.841,-289.284 844.04,-296.282"/>
<text text-anchor="middle" x="673" y="-302" font-family="Helvetica,sans-Serif" font-size="10.00"> myCurrentSimulation</text>
</g>
<!-- Node10 -->
<g id="node10" class="node"><title>Node10</title>
<g id="a_node10"><a xlink:href="../../dc/d86/classmodel_1_1simulations_1_1_abstract_cell_factory.html" target="_top" xlink:title="model.simulations.Abstract\lCellFactory">
<polygon fill="white" stroke="black" points="599,-198 599,-228 747,-228 747,-198 599,-198"/>
<text text-anchor="start" x="607" y="-216" font-family="Helvetica,sans-Serif" font-size="10.00">model.simulations.Abstract</text>
<text text-anchor="middle" x="673" y="-205" font-family="Helvetica,sans-Serif" font-size="10.00">CellFactory</text>
</a>
</g>
</g>
<!-- Node10&#45;&gt;Node9 -->
<g id="edge9" class="edge"><title>Node10&#45;&gt;Node9</title>
<path fill="none" stroke="#9a32cd" stroke-dasharray="5,2" d="M747.916,-230.574C775.701,-237.596 807.462,-246.121 836,-255 860.731,-262.695 888.478,-272.997 907.756,-280.429"/>
<polygon fill="#9a32cd" stroke="#9a32cd" points="748.423,-227.093 737.872,-228.057 746.721,-233.883 748.423,-227.093"/>
<text text-anchor="middle" x="801" y="-258" font-family="Helvetica,sans-Serif" font-size="10.00"> myCellFactory</text>
</g>
<!-- Node11 -->
<g id="node11" class="node"><title>Node11</title>
<g id="a_node11"><a xlink:href="../../da/d6d/classmodel_1_1gridrules_1_1_grid_rules.html" target="_top" xlink:title="model.gridrules.GridRules">
<polygon fill="white" stroke="black" points="604,-377.5 604,-396.5 742,-396.5 742,-377.5 604,-377.5"/>
<text text-anchor="middle" x="673" y="-384.5" font-family="Helvetica,sans-Serif" font-size="10.00">model.gridrules.GridRules</text>
</a>
</g>
</g>
<!-- Node11&#45;&gt;Node9 -->
<g id="edge10" class="edge"><title>Node11&#45;&gt;Node9</title>
<path fill="none" stroke="#9a32cd" stroke-dasharray="5,2" d="M752.161,-376.687C779.362,-371.521 809.647,-363.95 836,-353 869.136,-339.231 903.136,-313.678 920.402,-299.72"/>
<polygon fill="#9a32cd" stroke="#9a32cd" points="751.504,-373.249 742.293,-378.483 752.758,-380.136 751.504,-373.249"/>
<text text-anchor="middle" x="801" y="-377" font-family="Helvetica,sans-Serif" font-size="10.00"> myGridRules</text>
</g>
<!-- Node12 -->
<g id="node12" class="node"><title>Node12</title>
<g id="a_node12"><a xlink:href="../../db/d90/classmodel_1_1patches_1_1_patch.html" target="_top" xlink:title="model.patches.Patch">
<polygon fill="white" stroke="black" points="614.5,-52.5 614.5,-71.5 731.5,-71.5 731.5,-52.5 614.5,-52.5"/>
<text text-anchor="middle" x="673" y="-59.5" font-family="Helvetica,sans-Serif" font-size="10.00">model.patches.Patch</text>
</a>
</g>
</g>
<!-- Node12&#45;&gt;Node9 -->
<g id="edge11" class="edge"><title>Node12&#45;&gt;Node9</title>
<path fill="none" stroke="#9a32cd" stroke-dasharray="5,2" d="M741.669,-69.7295C779.165,-75.168 821.137,-83.5324 836,-95 900.233,-144.558 924.287,-248.415 930.344,-280.41"/>
<polygon fill="#9a32cd" stroke="#9a32cd" points="742.135,-66.2607 731.747,-68.3415 741.166,-73.1932 742.135,-66.2607"/>
<text text-anchor="middle" x="801" y="-98" font-family="Helvetica,sans-Serif" font-size="10.00"> myPatchGrid</text>
</g>
<!-- Node14 -->
<g id="node14" class="node"><title>Node14</title>
<g id="a_node14"><a xlink:href="../../dc/d41/classmodel_1_1cells_1_1_cell.html" target="_top" xlink:title="model.cells.Cell">
<polygon fill="white" stroke="black" points="887.5,-35.5 887.5,-54.5 978.5,-54.5 978.5,-35.5 887.5,-35.5"/>
<text text-anchor="middle" x="933" y="-42.5" font-family="Helvetica,sans-Serif" font-size="10.00">model.cells.Cell</text>
</a>
</g>
</g>
<!-- Node12&#45;&gt;Node14 -->
<g id="edge15" class="edge"><title>Node12&#45;&gt;Node14</title>
<path fill="none" stroke="#9a32cd" stroke-dasharray="5,2" d="M711.597,-49.3592C728.086,-44.4502 747.794,-39.4295 766,-37 806.897,-31.5423 853.901,-34.6781 887.428,-38.5098"/>
<polygon fill="#9a32cd" stroke="#9a32cd" points="710.318,-46.0909 701.789,-52.3771 712.377,-52.7813 710.318,-46.0909"/>
<text text-anchor="middle" x="801" y="-40" font-family="Helvetica,sans-Serif" font-size="10.00"> myPatch</text>
</g>
<!-- Node13 -->
<g id="node13" class="node"><title>Node13</title>
<polygon fill="white" stroke="#bfbfbf" points="276,-0.5 276,-19.5 404,-19.5 404,-0.5 276,-0.5"/>
<text text-anchor="middle" x="340" y="-7.5" font-family="Helvetica,sans-Serif" font-size="10.00">Map&lt; String, Double &gt;</text>
</g>
<!-- Node13&#45;&gt;Node12 -->
<g id="edge12" class="edge"><title>Node13&#45;&gt;Node12</title>
<path fill="none" stroke="#9a32cd" stroke-dasharray="5,2" d="M413.587,-21.0825C460.972,-28.3554 524.176,-38.1282 580,-47 591.028,-48.7526 602.795,-50.6502 614.101,-52.4872"/>
<polygon fill="#9a32cd" stroke="#9a32cd" points="413.836,-17.5798 403.421,-19.5232 412.775,-24.4989 413.836,-17.5798"/>
<text text-anchor="middle" x="510" y="-50" font-family="Helvetica,sans-Serif" font-size="10.00"> myPatchPropertyMap</text>
</g>
<!-- Node13&#45;&gt;Node14 -->
<g id="edge16" class="edge"><title>Node13&#45;&gt;Node14</title>
<path fill="none" stroke="#9a32cd" stroke-dasharray="5,2" d="M414.301,-10.7671C511.066,-12.3155 686.651,-16.9791 836,-31 852.769,-32.5743 871.086,-35.0549 887.182,-37.4935"/>
<polygon fill="#9a32cd" stroke="#9a32cd" points="414.095,-7.26361 404.042,-10.6099 413.987,-14.2628 414.095,-7.26361"/>
<text text-anchor="middle" x="673" y="-27" font-family="Helvetica,sans-Serif" font-size="10.00"> myPropertyMap</text>
</g>
<!-- Node14&#45;&gt;Node12 -->
<g id="edge13" class="edge"><title>Node14&#45;&gt;Node12</title>
<path fill="none" stroke="#9a32cd" stroke-dasharray="5,2" d="M877.183,-48.612C834.38,-51.4323 775.072,-55.3402 731.579,-58.206"/>
<polygon fill="#9a32cd" stroke="#9a32cd" points="877.668,-52.0877 887.416,-47.9377 877.207,-45.1029 877.668,-52.0877"/>
<text text-anchor="middle" x="801" y="-59" font-family="Helvetica,sans-Serif" font-size="10.00"> myCell</text>
</g>
<!-- Node15 -->
<g id="node15" class="node"><title>Node15</title>
<polygon fill="white" stroke="#bfbfbf" points="608,-120.5 608,-139.5 738,-139.5 738,-120.5 608,-120.5"/>
<text text-anchor="middle" x="673" y="-127.5" font-family="Helvetica,sans-Serif" font-size="10.00">List&lt; model.cells.Cell &gt;</text>
</g>
<!-- Node15&#45;&gt;Node14 -->
<g id="edge14" class="edge"><title>Node15&#45;&gt;Node14</title>
<path fill="none" stroke="#9a32cd" stroke-dasharray="5,2" d="M748.47,-126.857C776.58,-123.883 808.416,-118.316 836,-108 869.983,-95.2913 904.168,-68.8106 921.092,-54.5633"/>
<polygon fill="#9a32cd" stroke="#9a32cd" points="747.914,-123.394 738.297,-127.839 748.587,-130.362 747.914,-123.394"/>
<text text-anchor="middle" x="801" y="-128" font-family="Helvetica,sans-Serif" font-size="10.00"> myNeighbors</text>
</g>
<!-- Node16 -->
<g id="node16" class="node"><title>Node16</title>
<polygon fill="white" stroke="#bfbfbf" points="262,-52.5 262,-71.5 418,-71.5 418,-52.5 262,-52.5"/>
<text text-anchor="middle" x="340" y="-59.5" font-family="Helvetica,sans-Serif" font-size="10.00">List&lt; model.patches.Patch &gt;</text>
</g>
<!-- Node16&#45;&gt;Node12 -->
<g id="edge17" class="edge"><title>Node16&#45;&gt;Node12</title>
<path fill="none" stroke="#9a32cd" stroke-dasharray="5,2" d="M428.216,-62C487.043,-62 563.016,-62 614.396,-62"/>
<polygon fill="#9a32cd" stroke="#9a32cd" points="428.187,-58.5001 418.187,-62 428.187,-65.5001 428.187,-58.5001"/>
<text text-anchor="middle" x="510" y="-65" font-family="Helvetica,sans-Serif" font-size="10.00"> myNeighbors</text>
</g>
<!-- Node17&#45;&gt;Node5 -->
<g id="edge29" class="edge"><title>Node17&#45;&gt;Node5</title>
<path fill="none" stroke="#9a32cd" stroke-dasharray="5,2" d="M600.618,-264.317C554.647,-269.35 493.663,-276.623 440,-285 422.708,-287.699 403.819,-291.189 387.22,-294.44"/>
<polygon fill="#9a32cd" stroke="#9a32cd" points="601.218,-267.773 610.782,-263.214 600.462,-260.814 601.218,-267.773"/>
<text text-anchor="middle" x="510" y="-288" font-family="Helvetica,sans-Serif" font-size="10.00"> myCurrentSimulationScreen</text>
</g>
<!-- Node17&#45;&gt;Node9 -->
<g id="edge18" class="edge"><title>Node17&#45;&gt;Node9</title>
<path fill="none" stroke="#9a32cd" stroke-dasharray="5,2" d="M745.257,-266.114C780.157,-270.578 822.163,-275.951 857.489,-280.47"/>
<polygon fill="#9a32cd" stroke="#9a32cd" points="745.506,-262.618 735.142,-264.821 744.618,-269.561 745.506,-262.618"/>
<text text-anchor="middle" x="801" y="-281" font-family="Helvetica,sans-Serif" font-size="10.00"> myView</text>
</g>
<!-- Node18 -->
<g id="node18" class="node"><title>Node18</title>
<polygon fill="white" stroke="#bfbfbf" points="316.5,-213.5 316.5,-232.5 363.5,-232.5 363.5,-213.5 316.5,-213.5"/>
<text text-anchor="middle" x="340" y="-220.5" font-family="Helvetica,sans-Serif" font-size="10.00">Shape</text>
</g>
<!-- Node18&#45;&gt;Node17 -->
<g id="edge20" class="edge"><title>Node18&#45;&gt;Node17</title>
<path fill="none" stroke="#9a32cd" stroke-dasharray="5,2" d="M373.424,-213.744C421.046,-201.966 511.648,-186.559 580,-217 590.924,-221.865 587.811,-230.739 598,-237 605.03,-241.32 612.995,-244.72 621.031,-247.393"/>
<polygon fill="#9a32cd" stroke="#9a32cd" points="372.472,-210.375 363.662,-216.259 374.219,-217.154 372.472,-210.375"/>
<text text-anchor="middle" x="510" y="-220" font-family="Helvetica,sans-Serif" font-size="10.00"> myColorGrid</text>
</g>
<!-- Node19 -->
<g id="node19" class="node"><title>Node19</title>
<polygon fill="white" stroke="#bfbfbf" points="283.5,-175.5 283.5,-194.5 396.5,-194.5 396.5,-175.5 283.5,-175.5"/>
<text text-anchor="middle" x="340" y="-182.5" font-family="Helvetica,sans-Serif" font-size="10.00">ArrayList&lt; Button &gt;</text>
</g>
<!-- Node19&#45;&gt;Node17 -->
<g id="edge22" class="edge"><title>Node19&#45;&gt;Node17</title>
<path fill="none" stroke="#9a32cd" stroke-dasharray="5,2" d="M406.474,-176.748C467.545,-170.495 553.145,-165.878 580,-185 599.922,-199.186 580.118,-220.316 598,-237 602.671,-241.358 608.191,-244.785 614.079,-247.476"/>
<polygon fill="#9a32cd" stroke="#9a32cd" points="406.092,-173.268 396.517,-177.803 406.83,-180.229 406.092,-173.268"/>
<text text-anchor="middle" x="510" y="-188" font-family="Helvetica,sans-Serif" font-size="10.00"> myButtons</text>
</g>
<!-- Node20 -->
<g id="node20" class="node"><title>Node20</title>
<polygon fill="white" stroke="#bfbfbf" points="13,-159.5 13,-178.5 135,-178.5 135,-159.5 13,-159.5"/>
<text text-anchor="middle" x="74" y="-166.5" font-family="Helvetica,sans-Serif" font-size="10.00">Map&lt; String, String &gt;</text>
</g>
<!-- Node20&#45;&gt;Node5 -->
<g id="edge30" class="edge"><title>Node20&#45;&gt;Node5</title>
<path fill="none" stroke="#9a32cd" stroke-dasharray="5,2" d="M118.089,-181.577C152.237,-192.388 200.592,-209.604 240,-231 258.017,-240.782 304.696,-276.953 326.909,-294.428"/>
<polygon fill="#9a32cd" stroke="#9a32cd" points="119.003,-178.196 108.415,-178.565 116.922,-184.88 119.003,-178.196"/>
<text text-anchor="middle" x="203" y="-234" font-family="Helvetica,sans-Serif" font-size="10.00"> myStyles</text>
</g>
<!-- Node20&#45;&gt;Node17 -->
<g id="edge23" class="edge"><title>Node20&#45;&gt;Node17</title>
<path fill="none" stroke="#9a32cd" stroke-dasharray="5,2" d="M145.375,-158.192C268.544,-140.965 516.183,-114.373 580,-168 604.264,-188.389 575.688,-214.492 598,-237 602.31,-241.348 607.46,-244.779 613.009,-247.482"/>
<polygon fill="#9a32cd" stroke="#9a32cd" points="144.7,-154.753 135.29,-159.621 145.682,-161.684 144.7,-154.753"/>
<text text-anchor="middle" x="340" y="-148" font-family="Helvetica,sans-Serif" font-size="10.00"> myStyles</text>
</g>
<!-- Node21 -->
<g id="node21" class="node"><title>Node21</title>
<polygon fill="white" stroke="#bfbfbf" points="319,-90.5 319,-109.5 361,-109.5 361,-90.5 319,-90.5"/>
<text text-anchor="middle" x="340" y="-97.5" font-family="Helvetica,sans-Serif" font-size="10.00">HBox</text>
</g>
<!-- Node21&#45;&gt;Node17 -->
<g id="edge24" class="edge"><title>Node21&#45;&gt;Node17</title>
<path fill="none" stroke="#9a32cd" stroke-dasharray="5,2" d="M371.183,-92.1881C421.614,-81.1316 523.071,-67.7258 580,-121 618.094,-156.648 563.193,-198.136 598,-237 601.818,-241.263 606.441,-244.658 611.491,-247.356"/>
<polygon fill="#9a32cd" stroke="#9a32cd" points="370.187,-88.8261 361.231,-94.487 371.762,-95.6466 370.187,-88.8261"/>
<text text-anchor="middle" x="510" y="-124" font-family="Helvetica,sans-Serif" font-size="10.00"> myTop</text>
</g>
<!-- Node22 -->
<g id="node22" class="node"><title>Node22</title>
<polygon fill="white" stroke="#bfbfbf" points="304,-365.5 304,-384.5 376,-384.5 376,-365.5 304,-365.5"/>
<text text-anchor="middle" x="340" y="-372.5" font-family="Helvetica,sans-Serif" font-size="10.00">BorderPane</text>
</g>
<!-- Node22&#45;&gt;Node17 -->
<g id="edge25" class="edge"><title>Node22&#45;&gt;Node17</title>
<path fill="none" stroke="#9a32cd" stroke-dasharray="5,2" d="M386.41,-377.187C447.452,-379.145 551.604,-378.72 580,-355 603.664,-335.233 577.709,-311.216 598,-288 606.708,-278.037 619.144,-271.199 631.341,-266.539"/>
<polygon fill="#9a32cd" stroke="#9a32cd" points="386.39,-373.684 376.272,-376.827 386.142,-380.68 386.39,-373.684"/>
<text text-anchor="middle" x="510" y="-381" font-family="Helvetica,sans-Serif" font-size="10.00"> root</text>
</g>
<!-- Node23 -->
<g id="node23" class="node"><title>Node23</title>
<g id="a_node23"><a xlink:href="../../dc/de1/classmodel_1_1neighbors_1_1_neighbors.html" target="_top" xlink:title="model.neighbors.Neighbors">
<polygon fill="white" stroke="black" points="598.5,-339.5 598.5,-358.5 747.5,-358.5 747.5,-339.5 598.5,-339.5"/>
<text text-anchor="middle" x="673" y="-346.5" font-family="Helvetica,sans-Serif" font-size="10.00">model.neighbors.Neighbors</text>
</a>
</g>
</g>
<!-- Node23&#45;&gt;Node9 -->
<g id="edge26" class="edge"><title>Node23&#45;&gt;Node9</title>
<path fill="none" stroke="#9a32cd" stroke-dasharray="5,2" d="M757.537,-339.16C782.932,-335.353 810.785,-330.351 836,-324 861.375,-317.608 889.496,-307.243 908.707,-299.635"/>
<polygon fill="#9a32cd" stroke="#9a32cd" points="756.956,-335.708 747.565,-340.614 757.966,-342.635 756.956,-335.708"/>
<text text-anchor="middle" x="801" y="-341" font-family="Helvetica,sans-Serif" font-size="10.00"> myNeighbors</text>
</g>
<!-- Node24 -->
<g id="node24" class="node"><title>Node24</title>
<polygon fill="white" stroke="#bfbfbf" points="50.5,-370.5 50.5,-389.5 97.5,-389.5 97.5,-370.5 50.5,-370.5"/>
<text text-anchor="middle" x="74" y="-377.5" font-family="Helvetica,sans-Serif" font-size="10.00">Scene</text>
</g>
<!-- Node24&#45;&gt;Node5 -->
<g id="edge28" class="edge"><title>Node24&#45;&gt;Node5</title>
<path fill="none" stroke="#9a32cd" stroke-dasharray="5,2" d="M107.94,-374.849C141.574,-369.163 195.078,-358.937 240,-345 268.073,-336.29 299.204,-322.714 318.926,-313.596"/>
<polygon fill="#9a32cd" stroke="#9a32cd" points="107.049,-371.448 97.754,-376.534 108.191,-378.354 107.049,-371.448"/>
<text text-anchor="middle" x="203" y="-367" font-family="Helvetica,sans-Serif" font-size="10.00"> myScene</text>
</g>
<!-- Node25 -->
<g id="node25" class="node"><title>Node25</title>
<polygon fill="white" stroke="#bfbfbf" points="51,-332.5 51,-351.5 97,-351.5 97,-332.5 51,-332.5"/>
<text text-anchor="middle" x="74" y="-339.5" font-family="Helvetica,sans-Serif" font-size="10.00">Group</text>
</g>
<!-- Node25&#45;&gt;Node5 -->
<g id="edge31" class="edge"><title>Node25&#45;&gt;Node5</title>
<path fill="none" stroke="#9a32cd" stroke-dasharray="5,2" d="M107.223,-337.624C140.493,-333.078 193.9,-325.705 240,-319 251.956,-317.261 264.717,-315.361 276.964,-313.515"/>
<polygon fill="#9a32cd" stroke="#9a32cd" points="106.598,-334.176 97.1632,-338.996 107.544,-341.112 106.598,-334.176"/>
<text text-anchor="middle" x="203" y="-333" font-family="Helvetica,sans-Serif" font-size="10.00"> myGroup</text>
</g>
</g>
</svg>
