<?xml version="1.0" encoding="UTF-8" standalone="no"?>
<!DOCTYPE svg PUBLIC "-//W3C//DTD SVG 1.1//EN"
 "http://www.w3.org/Graphics/SVG/1.1/DTD/svg11.dtd">
<!-- Generated by graphviz version 2.36.0 (20140111.2315)
 -->
<!-- Title: model.cells.PredatorCellEmpty Pages: 1 -->
<svg width="429pt" height="234pt"
 viewBox="0.00 0.00 429.00 234.00" xmlns="http://www.w3.org/2000/svg" xmlns:xlink="http://www.w3.org/1999/xlink">
<g id="graph0" class="graph" transform="scale(1 1) rotate(0) translate(4 230)">
<title>model.cells.PredatorCellEmpty</title>
<polygon fill="white" stroke="none" points="-4,4 -4,-230 425,-230 425,4 -4,4"/>
<!-- Node1 -->
<g id="node1" class="node"><title>Node1</title>
<polygon fill="#bfbfbf" stroke="black" points="0,-1 0,-31 132,-31 132,-1 0,-1"/>
<text text-anchor="start" x="8" y="-19" font-family="Helvetica,sans-Serif" font-size="10.00">model.cells.PredatorCell</text>
<text text-anchor="middle" x="66" y="-8" font-family="Helvetica,sans-Serif" font-size="10.00">Empty</text>
</g>
<!-- Node2 -->
<g id="node2" class="node"><title>Node2</title>
<g id="a_node2"><a xlink:href="../../dc/d43/classmodel_1_1cells_1_1_predator_cell.html" target="_top" xlink:title="model.cells.PredatorCell">
<polygon fill="white" stroke="black" points="0,-70.5 0,-89.5 132,-89.5 132,-70.5 0,-70.5"/>
<text text-anchor="middle" x="66" y="-77.5" font-family="Helvetica,sans-Serif" font-size="10.00">model.cells.PredatorCell</text>
</a>
</g>
</g>
<!-- Node2&#45;&gt;Node1 -->
<g id="edge1" class="edge"><title>Node2&#45;&gt;Node1</title>
<path fill="none" stroke="midnightblue" d="M66,-60.1826C66,-50.8859 66,-39.8507 66,-31.263"/>
<polygon fill="midnightblue" stroke="midnightblue" points="62.5001,-60.3791 66,-70.3792 69.5001,-60.3792 62.5001,-60.3791"/>
</g>
<!-- Node3 -->
<g id="node3" class="node"><title>Node3</title>
<g id="a_node3"><a xlink:href="../../dc/d41/classmodel_1_1cells_1_1_cell.html" target="_top" xlink:title="model.cells.Cell">
<polygon fill="white" stroke="black" points="38.5,-138.5 38.5,-157.5 129.5,-157.5 129.5,-138.5 38.5,-138.5"/>
<text text-anchor="middle" x="84" y="-145.5" font-family="Helvetica,sans-Serif" font-size="10.00">model.cells.Cell</text>
</a>
</g>
</g>
<!-- Node3&#45;&gt;Node2 -->
<g id="edge2" class="edge"><title>Node3&#45;&gt;Node2</title>
<path fill="none" stroke="midnightblue" d="M78.9341,-128.425C75.4903,-115.798 71.0897,-99.6623 68.4112,-89.8411"/>
<polygon fill="midnightblue" stroke="midnightblue" points="75.6389,-129.645 81.6468,-138.372 82.3922,-127.803 75.6389,-129.645"/>
</g>
<!-- Node5 -->
<g id="node5" class="node"><title>Node5</title>
<g id="a_node5"><a xlink:href="../../db/d90/classmodel_1_1patches_1_1_patch.html" target="_top" xlink:title="model.patches.Patch">
<polygon fill="white" stroke="black" points="158.5,-70.5 158.5,-89.5 275.5,-89.5 275.5,-70.5 158.5,-70.5"/>
<text text-anchor="middle" x="217" y="-77.5" font-family="Helvetica,sans-Serif" font-size="10.00">model.patches.Patch</text>
</a>
</g>
</g>
<!-- Node3&#45;&gt;Node5 -->
<g id="edge6" class="edge"><title>Node3&#45;&gt;Node5</title>
<path fill="none" stroke="#9a32cd" stroke-dasharray="5,2" d="M114.005,-134.287C123.948,-129.924 135.021,-124.902 145,-120 165.033,-110.16 187.574,-97.7212 202.013,-89.5718"/>
<polygon fill="#9a32cd" stroke="#9a32cd" points="112.302,-131.211 104.521,-138.402 115.088,-137.632 112.302,-131.211"/>
<text text-anchor="middle" x="186" y="-111.5" font-family="Helvetica,sans-Serif" font-size="10.00"> myCell</text>
</g>
<!-- Node4 -->
<g id="node4" class="node"><title>Node4</title>
<polygon fill="white" stroke="#bfbfbf" points="19,-206.5 19,-225.5 149,-225.5 149,-206.5 19,-206.5"/>
<text text-anchor="middle" x="84" y="-213.5" font-family="Helvetica,sans-Serif" font-size="10.00">List&lt; model.cells.Cell &gt;</text>
</g>
<!-- Node4&#45;&gt;Node3 -->
<g id="edge3" class="edge"><title>Node4&#45;&gt;Node3</title>
<path fill="none" stroke="#9a32cd" stroke-dasharray="5,2" d="M84,-196.041C84,-183.472 84,-167.563 84,-157.841"/>
<polygon fill="#9a32cd" stroke="#9a32cd" points="80.5001,-196.372 84,-206.372 87.5001,-196.372 80.5001,-196.372"/>
<text text-anchor="middle" x="117.5" y="-179.5" font-family="Helvetica,sans-Serif" font-size="10.00"> myNeighbors</text>
</g>
<!-- Node5&#45;&gt;Node3 -->
<g id="edge4" class="edge"><title>Node5&#45;&gt;Node3</title>
<path fill="none" stroke="#9a32cd" stroke-dasharray="5,2" d="M148.278,-91.3797C127.421,-95.6889 107.921,-101.272 100,-108 90.9638,-115.675 86.9568,-129.254 85.2325,-138.191"/>
<polygon fill="#9a32cd" stroke="#9a32cd" points="149.108,-94.7838 158.249,-89.4286 147.763,-87.9141 149.108,-94.7838"/>
<text text-anchor="middle" x="122.5" y="-111.5" font-family="Helvetica,sans-Serif" font-size="10.00"> myPatch</text>
</g>
<!-- Node6 -->
<g id="node6" class="node"><title>Node6</title>
<polygon fill="white" stroke="#bfbfbf" points="198,-206.5 198,-225.5 326,-225.5 326,-206.5 198,-206.5"/>
<text text-anchor="middle" x="262" y="-213.5" font-family="Helvetica,sans-Serif" font-size="10.00">Map&lt; String, Double &gt;</text>
</g>
<!-- Node6&#45;&gt;Node3 -->
<g id="edge8" class="edge"><title>Node6&#45;&gt;Node3</title>
<path fill="none" stroke="#9a32cd" stroke-dasharray="5,2" d="M229.299,-202.875C193.829,-189.723 138.117,-169.066 106.994,-157.526"/>
<polygon fill="#9a32cd" stroke="#9a32cd" points="228.137,-206.177 238.73,-206.372 230.57,-199.613 228.137,-206.177"/>
<text text-anchor="middle" x="228.5" y="-179.5" font-family="Helvetica,sans-Serif" font-size="10.00"> myPropertyMap</text>
</g>
<!-- Node6&#45;&gt;Node5 -->
<g id="edge5" class="edge"><title>Node6&#45;&gt;Node5</title>
<path fill="none" stroke="#9a32cd" stroke-dasharray="5,2" d="M282.323,-200.042C299.398,-185.483 319.986,-162.086 313,-138 308.604,-122.842 306.354,-117.822 294,-108 283.355,-99.5364 269.866,-93.6236 257.162,-89.5388"/>
<polygon fill="#9a32cd" stroke="#9a32cd" points="279.96,-197.451 274.358,-206.444 284.345,-202.907 279.96,-197.451"/>
<text text-anchor="middle" x="368" y="-145.5" font-family="Helvetica,sans-Serif" font-size="10.00"> myPatchPropertyMap</text>
</g>
<!-- Node7 -->
<g id="node7" class="node"><title>Node7</title>
<polygon fill="white" stroke="#bfbfbf" points="148,-138.5 148,-157.5 304,-157.5 304,-138.5 148,-138.5"/>
<text text-anchor="middle" x="226" y="-145.5" font-family="Helvetica,sans-Serif" font-size="10.00">List&lt; model.patches.Patch &gt;</text>
</g>
<!-- Node7&#45;&gt;Node5 -->
<g id="edge7" class="edge"><title>Node7&#45;&gt;Node5</title>
<path fill="none" stroke="#9a32cd" stroke-dasharray="5,2" d="M223.467,-128.425C221.745,-115.798 219.545,-99.6623 218.206,-89.8411"/>
<polygon fill="#9a32cd" stroke="#9a32cd" points="220.004,-128.936 224.823,-138.372 226.94,-127.99 220.004,-128.936"/>
<text text-anchor="middle" x="256.5" y="-111.5" font-family="Helvetica,sans-Serif" font-size="10.00"> myNeighbors</text>
</g>
</g>
</svg>
