<?xml version="1.0" encoding="UTF-8" standalone="no"?>
<!DOCTYPE svg PUBLIC "-//W3C//DTD SVG 1.1//EN"
 "http://www.w3.org/Graphics/SVG/1.1/DTD/svg11.dtd">
<!-- Generated by graphviz version 2.36.0 (20140111.2315)
 -->
<!-- Title: model.patches.Patch Pages: 1 -->
<svg width="434pt" height="164pt"
 viewBox="0.00 0.00 434.00 164.00" xmlns="http://www.w3.org/2000/svg" xmlns:xlink="http://www.w3.org/1999/xlink">
<g id="graph0" class="graph" transform="scale(1 1) rotate(0) translate(4 160)">
<title>model.patches.Patch</title>
<polygon fill="white" stroke="none" points="-4,4 -4,-160 430,-160 430,4 -4,4"/>
<!-- Node1 -->
<g id="node1" class="node"><title>Node1</title>
<polygon fill="#bfbfbf" stroke="black" points="160.5,-68.5 160.5,-87.5 277.5,-87.5 277.5,-68.5 160.5,-68.5"/>
<text text-anchor="middle" x="219" y="-75.5" font-family="Helvetica,sans-Serif" font-size="10.00">model.patches.Patch</text>
</g>
<!-- Node3 -->
<g id="node3" class="node"><title>Node3</title>
<g id="a_node3"><a xlink:href="../../dc/d41/classmodel_1_1cells_1_1_cell.html" target="_top" xlink:title="model.cells.Cell">
<polygon fill="white" stroke="black" points="173.5,-0.5 173.5,-19.5 264.5,-19.5 264.5,-0.5 173.5,-0.5"/>
<text text-anchor="middle" x="219" y="-7.5" font-family="Helvetica,sans-Serif" font-size="10.00">model.cells.Cell</text>
</a>
</g>
</g>
<!-- Node1&#45;&gt;Node3 -->
<g id="edge4" class="edge"><title>Node1&#45;&gt;Node3</title>
<path fill="none" stroke="#9a32cd" stroke-dasharray="5,2" d="M192.229,-62.3517C188.102,-58.8665 184.415,-54.7519 182,-50 175.784,-37.7692 188.907,-26.7254 201.208,-19.5381"/>
<polygon fill="#9a32cd" stroke="#9a32cd" points="190.325,-65.2932 200.49,-68.2802 194.407,-59.6061 190.325,-65.2932"/>
<text text-anchor="middle" x="204.5" y="-41.5" font-family="Helvetica,sans-Serif" font-size="10.00"> myPatch</text>
</g>
<!-- Node2 -->
<g id="node2" class="node"><title>Node2</title>
<polygon fill="white" stroke="#bfbfbf" points="0,-136.5 0,-155.5 128,-155.5 128,-136.5 0,-136.5"/>
<text text-anchor="middle" x="64" y="-143.5" font-family="Helvetica,sans-Serif" font-size="10.00">Map&lt; String, Double &gt;</text>
</g>
<!-- Node2&#45;&gt;Node1 -->
<g id="edge1" class="edge"><title>Node2&#45;&gt;Node1</title>
<path fill="none" stroke="#9a32cd" stroke-dasharray="5,2" d="M79.6248,-129.352C88.4585,-121.309 100.095,-111.969 112,-106 128.784,-97.5849 148.398,-91.6559 166.216,-87.5427"/>
<polygon fill="#9a32cd" stroke="#9a32cd" points="77.2131,-126.815 72.373,-136.24 82.0339,-131.891 77.2131,-126.815"/>
<text text-anchor="middle" x="165" y="-109.5" font-family="Helvetica,sans-Serif" font-size="10.00"> myPatchPropertyMap</text>
</g>
<!-- Node2&#45;&gt;Node3 -->
<g id="edge5" class="edge"><title>Node2&#45;&gt;Node3</title>
<path fill="none" stroke="#9a32cd" stroke-dasharray="5,2" d="M60.8278,-126.027C59.0928,-109.092 59.4072,-84.4894 72,-68 96.0063,-36.5655 139.747,-22.457 173.295,-16.1303"/>
<polygon fill="#9a32cd" stroke="#9a32cd" points="57.4136,-126.895 62.2305,-136.332 64.3496,-125.951 57.4136,-126.895"/>
<text text-anchor="middle" x="111.5" y="-75.5" font-family="Helvetica,sans-Serif" font-size="10.00"> myPropertyMap</text>
</g>
<!-- Node3&#45;&gt;Node1 -->
<g id="edge2" class="edge"><title>Node3&#45;&gt;Node1</title>
<path fill="none" stroke="#9a32cd" stroke-dasharray="5,2" d="M228.499,-28.8688C230.929,-35.4447 232.486,-42.9966 231,-50 229.637,-56.4229 226.637,-63.1729 223.978,-68.3172"/>
<polygon fill="#9a32cd" stroke="#9a32cd" points="231.594,-27.2187 224.276,-19.5578 225.219,-30.1105 231.594,-27.2187"/>
<text text-anchor="middle" x="249" y="-41.5" font-family="Helvetica,sans-Serif" font-size="10.00"> myCell</text>
</g>
<!-- Node4 -->
<g id="node4" class="node"><title>Node4</title>
<polygon fill="white" stroke="#bfbfbf" points="296,-68.5 296,-87.5 426,-87.5 426,-68.5 296,-68.5"/>
<text text-anchor="middle" x="361" y="-75.5" font-family="Helvetica,sans-Serif" font-size="10.00">List&lt; model.cells.Cell &gt;</text>
</g>
<!-- Node4&#45;&gt;Node3 -->
<g id="edge3" class="edge"><title>Node4&#45;&gt;Node3</title>
<path fill="none" stroke="#9a32cd" stroke-dasharray="5,2" d="M333.105,-64.0346C304.841,-50.898 261.915,-30.9463 237.569,-19.6305"/>
<polygon fill="#9a32cd" stroke="#9a32cd" points="331.892,-67.3307 342.436,-68.3717 334.843,-60.9828 331.892,-67.3307"/>
<text text-anchor="middle" x="335.5" y="-41.5" font-family="Helvetica,sans-Serif" font-size="10.00"> myNeighbors</text>
</g>
<!-- Node5 -->
<g id="node5" class="node"><title>Node5</title>
<polygon fill="white" stroke="#bfbfbf" points="147,-136.5 147,-155.5 303,-155.5 303,-136.5 147,-136.5"/>
<text text-anchor="middle" x="225" y="-143.5" font-family="Helvetica,sans-Serif" font-size="10.00">List&lt; model.patches.Patch &gt;</text>
</g>
<!-- Node5&#45;&gt;Node1 -->
<g id="edge6" class="edge"><title>Node5&#45;&gt;Node1</title>
<path fill="none" stroke="#9a32cd" stroke-dasharray="5,2" d="M223.276,-126.041C222.134,-113.472 220.688,-97.5631 219.804,-87.8411"/>
<polygon fill="#9a32cd" stroke="#9a32cd" points="219.825,-126.73 224.216,-136.372 226.796,-126.096 219.825,-126.73"/>
<text text-anchor="middle" x="256.5" y="-109.5" font-family="Helvetica,sans-Serif" font-size="10.00"> myNeighbors</text>
</g>
</g>
</svg>
