<?xml version="1.0" encoding="UTF-8" standalone="no"?>
<!DOCTYPE svg PUBLIC "-//W3C//DTD SVG 1.1//EN"
 "http://www.w3.org/Graphics/SVG/1.1/DTD/svg11.dtd">
<!-- Generated by graphviz version 2.36.0 (20140111.2315)
 -->
<!-- Title: model.neighbors.HexagonalNeighbors.getAllNeighbors Pages: 1 -->
<svg width="372pt" height="87pt"
 viewBox="0.00 0.00 372.00 87.00" xmlns="http://www.w3.org/2000/svg" xmlns:xlink="http://www.w3.org/1999/xlink">
<g id="graph0" class="graph" transform="scale(1 1) rotate(0) translate(4 83)">
<title>model.neighbors.HexagonalNeighbors.getAllNeighbors</title>
<polygon fill="white" stroke="none" points="-4,4 -4,-83 368,-83 368,4 -4,4"/>
<!-- Node1 -->
<g id="node1" class="node"><title>Node1</title>
<polygon fill="#bfbfbf" stroke="black" points="0.5,-24 0.5,-54 151.5,-54 151.5,-24 0.5,-24"/>
<text text-anchor="start" x="8.5" y="-42" font-family="Helvetica,sans-Serif" font-size="10.00">model.neighbors.Hexagonal</text>
<text text-anchor="middle" x="76" y="-31" font-family="Helvetica,sans-Serif" font-size="10.00">Neighbors.getAllNeighbors</text>
</g>
<!-- Node2 -->
<g id="node2" class="node"><title>Node2</title>
<g id="a_node2"><a xlink:href="../../dd/d12/classmodel_1_1neighbors_1_1_hexagonal_neighbors.html#aa5b2987e61b3abb40f9ad64e99ac8f3b" target="_top" xlink:title="model.neighbors.Hexagonal\lNeighbors.getCardinalNeighbors">
<polygon fill="white" stroke="black" points="190,-49 190,-79 362,-79 362,-49 190,-49"/>
<text text-anchor="start" x="198" y="-67" font-family="Helvetica,sans-Serif" font-size="10.00">model.neighbors.Hexagonal</text>
<text text-anchor="middle" x="276" y="-56" font-family="Helvetica,sans-Serif" font-size="10.00">Neighbors.getCardinalNeighbors</text>
</a>
</g>
</g>
<!-- Node1&#45;&gt;Node2 -->
<g id="edge1" class="edge"><title>Node1&#45;&gt;Node2</title>
<path fill="none" stroke="midnightblue" d="M161.633,-49.686C170.981,-50.8663 180.505,-52.0688 189.86,-53.25"/>
<polygon fill="midnightblue" stroke="midnightblue" points="161.933,-46.1961 151.573,-48.4158 161.056,-53.141 161.933,-46.1961"/>
</g>
<!-- Node3 -->
<g id="node3" class="node"><title>Node3</title>
<g id="a_node3"><a xlink:href="../../dd/d12/classmodel_1_1neighbors_1_1_hexagonal_neighbors.html#a278e173ecc8cc08ae079e7f29f5c7cb4" target="_top" xlink:title="model.neighbors.Hexagonal\lNeighbors.getDiagonalNeighbors">
<polygon fill="white" stroke="black" points="188.5,-0 188.5,-30 363.5,-30 363.5,-0 188.5,-0"/>
<text text-anchor="start" x="196.5" y="-18" font-family="Helvetica,sans-Serif" font-size="10.00">model.neighbors.Hexagonal</text>
<text text-anchor="middle" x="276" y="-7" font-family="Helvetica,sans-Serif" font-size="10.00">Neighbors.getDiagonalNeighbors</text>
</a>
</g>
</g>
<!-- Node1&#45;&gt;Node3 -->
<g id="edge2" class="edge"><title>Node1&#45;&gt;Node3</title>
<path fill="none" stroke="midnightblue" d="M161.758,-28.7263C170.508,-27.6657 179.41,-26.5867 188.182,-25.5234"/>
<polygon fill="midnightblue" stroke="midnightblue" points="161.079,-25.2829 151.573,-29.9608 161.922,-32.232 161.079,-25.2829"/>
</g>
</g>
</svg>
