<?xml version="1.0" encoding="UTF-8" standalone="no"?>
<!DOCTYPE svg PUBLIC "-//W3C//DTD SVG 1.1//EN"
 "http://www.w3.org/Graphics/SVG/1.1/DTD/svg11.dtd">
<!-- Generated by graphviz version 2.36.0 (20140111.2315)
 -->
<!-- Title: model.neighbors.HexagonalNeighbors.getCardinalNeighbors Pages: 1 -->
<svg width="820pt" height="253pt"
 viewBox="0.00 0.00 820.00 253.00" xmlns="http://www.w3.org/2000/svg" xmlns:xlink="http://www.w3.org/1999/xlink">
<g id="graph0" class="graph" transform="scale(1 1) rotate(0) translate(4 249)">
<title>model.neighbors.HexagonalNeighbors.getCardinalNeighbors</title>
<polygon fill="white" stroke="none" points="-4,4 -4,-249 816,-249 816,4 -4,4"/>
<!-- Node1 -->
<g id="node1" class="node"><title>Node1</title>
<polygon fill="#bfbfbf" stroke="black" points="0,-110 0,-140 172,-140 172,-110 0,-110"/>
<text text-anchor="start" x="8" y="-128" font-family="Helvetica,sans-Serif" font-size="10.00">model.neighbors.Hexagonal</text>
<text text-anchor="middle" x="86" y="-117" font-family="Helvetica,sans-Serif" font-size="10.00">Neighbors.getCardinalNeighbors</text>
</g>
<!-- Node2 -->
<g id="node2" class="node"><title>Node2</title>
<g id="a_node2"><a xlink:href="../../dd/d12/classmodel_1_1neighbors_1_1_hexagonal_neighbors.html#a8aa7f140ef710bd48182610f29bc95e9" target="_top" xlink:title="model.neighbors.Hexagonal\lNeighbors.getAllNeighbors">
<polygon fill="white" stroke="black" points="208.5,-110 208.5,-140 359.5,-140 359.5,-110 208.5,-110"/>
<text text-anchor="start" x="216.5" y="-128" font-family="Helvetica,sans-Serif" font-size="10.00">model.neighbors.Hexagonal</text>
<text text-anchor="middle" x="284" y="-117" font-family="Helvetica,sans-Serif" font-size="10.00">Neighbors.getAllNeighbors</text>
</a>
</g>
</g>
<!-- Node1&#45;&gt;Node2 -->
<g id="edge1" class="edge"><title>Node1&#45;&gt;Node2</title>
<path fill="none" stroke="midnightblue" d="M172.113,-125C180.801,-125 189.626,-125 198.31,-125"/>
<polygon fill="midnightblue" stroke="midnightblue" points="198.421,-128.5 208.421,-125 198.421,-121.5 198.421,-128.5"/>
</g>
<!-- Node3 -->
<g id="node3" class="node"><title>Node3</title>
<g id="a_node3"><a xlink:href="../../dc/de1/classmodel_1_1neighbors_1_1_neighbors.html#ad0ebeba79aaf13dce7951d4c23ad990f" target="_top" xlink:title="model.neighbors.Neighbors.bottomLeft">
<polygon fill="white" stroke="black" points="396.5,-225.5 396.5,-244.5 601.5,-244.5 601.5,-225.5 396.5,-225.5"/>
<text text-anchor="middle" x="499" y="-232.5" font-family="Helvetica,sans-Serif" font-size="10.00">model.neighbors.Neighbors.bottomLeft</text>
</a>
</g>
</g>
<!-- Node2&#45;&gt;Node3 -->
<g id="edge2" class="edge"><title>Node2&#45;&gt;Node3</title>
<path fill="none" stroke="midnightblue" d="M298.824,-140.108C318.387,-160.495 356.223,-196.397 396,-215 402.26,-217.928 408.93,-220.427 415.747,-222.561"/>
<polygon fill="midnightblue" stroke="midnightblue" points="415.232,-226.054 425.809,-225.432 417.153,-219.322 415.232,-226.054"/>
</g>
<!-- Node5 -->
<g id="node5" class="node"><title>Node5</title>
<g id="a_node5"><a xlink:href="../../dc/de1/classmodel_1_1neighbors_1_1_neighbors.html#a7943b721335bdaa80fd9ea617993392c" target="_top" xlink:title="model.neighbors.Neighbors.bottom\lRight">
<polygon fill="white" stroke="black" points="405.5,-176 405.5,-206 592.5,-206 592.5,-176 405.5,-176"/>
<text text-anchor="start" x="413.5" y="-194" font-family="Helvetica,sans-Serif" font-size="10.00">model.neighbors.Neighbors.bottom</text>
<text text-anchor="middle" x="499" y="-183" font-family="Helvetica,sans-Serif" font-size="10.00">Right</text>
</a>
</g>
</g>
<!-- Node2&#45;&gt;Node5 -->
<g id="edge4" class="edge"><title>Node2&#45;&gt;Node5</title>
<path fill="none" stroke="midnightblue" d="M322.399,-140.02C343.756,-148.292 371.151,-158.392 396,-166 404.36,-168.559 413.167,-171.037 421.96,-173.374"/>
<polygon fill="midnightblue" stroke="midnightblue" points="421.298,-176.818 431.858,-175.95 423.061,-170.044 421.298,-176.818"/>
</g>
<!-- Node6 -->
<g id="node6" class="node"><title>Node6</title>
<g id="a_node6"><a xlink:href="../../dc/de1/classmodel_1_1neighbors_1_1_neighbors.html#a1d91d30ce6289d9bb71da5d34c505582" target="_top" xlink:title="model.neighbors.Neighbors.Left">
<polygon fill="white" stroke="black" points="414,-137.5 414,-156.5 584,-156.5 584,-137.5 414,-137.5"/>
<text text-anchor="middle" x="499" y="-144.5" font-family="Helvetica,sans-Serif" font-size="10.00">model.neighbors.Neighbors.Left</text>
</a>
</g>
</g>
<!-- Node2&#45;&gt;Node6 -->
<g id="edge6" class="edge"><title>Node2&#45;&gt;Node6</title>
<path fill="none" stroke="midnightblue" d="M359.796,-132.725C374.016,-134.194 389.065,-135.749 403.797,-137.27"/>
<polygon fill="midnightblue" stroke="midnightblue" points="403.624,-140.771 413.93,-138.317 404.343,-133.808 403.624,-140.771"/>
</g>
<!-- Node7 -->
<g id="node7" class="node"><title>Node7</title>
<g id="a_node7"><a xlink:href="../../dc/de1/classmodel_1_1neighbors_1_1_neighbors.html#a6f65a87269275d8978c35c6765f531c1" target="_top" xlink:title="model.neighbors.Neighbors.\lRight">
<polygon fill="white" stroke="black" points="423,-88 423,-118 575,-118 575,-88 423,-88"/>
<text text-anchor="start" x="431" y="-106" font-family="Helvetica,sans-Serif" font-size="10.00">model.neighbors.Neighbors.</text>
<text text-anchor="middle" x="499" y="-95" font-family="Helvetica,sans-Serif" font-size="10.00">Right</text>
</a>
</g>
</g>
<!-- Node2&#45;&gt;Node7 -->
<g id="edge8" class="edge"><title>Node2&#45;&gt;Node7</title>
<path fill="none" stroke="midnightblue" d="M359.796,-117.275C376.831,-115.515 395.057,-113.633 412.499,-111.831"/>
<polygon fill="midnightblue" stroke="midnightblue" points="413.077,-115.29 422.664,-110.781 412.357,-108.327 413.077,-115.29"/>
</g>
<!-- Node8 -->
<g id="node8" class="node"><title>Node8</title>
<g id="a_node8"><a xlink:href="../../dc/de1/classmodel_1_1neighbors_1_1_neighbors.html#af8de37f6b70ac9ab8008b6629f22886a" target="_top" xlink:title="model.neighbors.Neighbors.topLeft">
<polygon fill="white" stroke="black" points="406.5,-49.5 406.5,-68.5 591.5,-68.5 591.5,-49.5 406.5,-49.5"/>
<text text-anchor="middle" x="499" y="-56.5" font-family="Helvetica,sans-Serif" font-size="10.00">model.neighbors.Neighbors.topLeft</text>
</a>
</g>
</g>
<!-- Node2&#45;&gt;Node8 -->
<g id="edge10" class="edge"><title>Node2&#45;&gt;Node8</title>
<path fill="none" stroke="midnightblue" d="M316.444,-109.994C338.34,-100.038 368.442,-87.3212 396,-79 406.449,-75.845 417.654,-73.0644 428.675,-70.6574"/>
<polygon fill="midnightblue" stroke="midnightblue" points="429.648,-74.0294 438.717,-68.5519 428.212,-67.1784 429.648,-74.0294"/>
</g>
<!-- Node9 -->
<g id="node9" class="node"><title>Node9</title>
<g id="a_node9"><a xlink:href="../../dc/de1/classmodel_1_1neighbors_1_1_neighbors.html#ae82e69e25fdf465f6dee196c82b1f6af" target="_top" xlink:title="model.neighbors.Neighbors.top\lRight">
<polygon fill="white" stroke="black" points="415.5,-0 415.5,-30 582.5,-30 582.5,-0 415.5,-0"/>
<text text-anchor="start" x="423.5" y="-18" font-family="Helvetica,sans-Serif" font-size="10.00">model.neighbors.Neighbors.top</text>
<text text-anchor="middle" x="499" y="-7" font-family="Helvetica,sans-Serif" font-size="10.00">Right</text>
</a>
</g>
</g>
<!-- Node2&#45;&gt;Node9 -->
<g id="edge12" class="edge"><title>Node2&#45;&gt;Node9</title>
<path fill="none" stroke="midnightblue" d="M300.497,-109.712C320.755,-90.5861 358.134,-58.1486 396,-40 401.035,-37.5867 406.325,-35.393 411.738,-33.4009"/>
<polygon fill="midnightblue" stroke="midnightblue" points="413.256,-36.5805 421.583,-30.0291 410.988,-29.9582 413.256,-36.5805"/>
</g>
<!-- Node4 -->
<g id="node4" class="node"><title>Node4</title>
<g id="a_node4"><a xlink:href="../../da/d6d/classmodel_1_1gridrules_1_1_grid_rules.html#a667e0098e66a7b398962d78c830f6c4a" target="_top" xlink:title="model.gridrules.GridRules.handle\lEdges">
<polygon fill="white" stroke="black" points="638.5,-110 638.5,-140 811.5,-140 811.5,-110 638.5,-110"/>
<text text-anchor="start" x="646.5" y="-128" font-family="Helvetica,sans-Serif" font-size="10.00">model.gridrules.GridRules.handle</text>
<text text-anchor="middle" x="725" y="-117" font-family="Helvetica,sans-Serif" font-size="10.00">Edges</text>
</a>
</g>
</g>
<!-- Node3&#45;&gt;Node4 -->
<g id="edge3" class="edge"><title>Node3&#45;&gt;Node4</title>
<path fill="none" stroke="midnightblue" d="M570.39,-225.451C581.222,-222.777 592.09,-219.362 602,-215 640.143,-198.213 677.772,-167.764 700.932,-146.974"/>
<polygon fill="midnightblue" stroke="midnightblue" points="703.476,-149.39 708.498,-140.061 698.755,-144.222 703.476,-149.39"/>
</g>
<!-- Node5&#45;&gt;Node4 -->
<g id="edge5" class="edge"><title>Node5&#45;&gt;Node4</title>
<path fill="none" stroke="midnightblue" d="M564.968,-175.942C577.314,-172.836 590.093,-169.453 602,-166 625.356,-159.226 650.902,-150.802 672.556,-143.355"/>
<polygon fill="midnightblue" stroke="midnightblue" points="673.906,-146.591 682.209,-140.011 671.615,-139.977 673.906,-146.591"/>
</g>
<!-- Node6&#45;&gt;Node4 -->
<g id="edge7" class="edge"><title>Node6&#45;&gt;Node4</title>
<path fill="none" stroke="midnightblue" d="M584.047,-138.745C598.47,-137.329 613.555,-135.847 628.258,-134.403"/>
<polygon fill="midnightblue" stroke="midnightblue" points="628.753,-137.872 638.363,-133.411 628.068,-130.905 628.753,-137.872"/>
</g>
<!-- Node7&#45;&gt;Node4 -->
<g id="edge9" class="edge"><title>Node7&#45;&gt;Node4</title>
<path fill="none" stroke="midnightblue" d="M575.212,-110.387C592.105,-112.046 610.254,-113.829 627.869,-115.559"/>
<polygon fill="midnightblue" stroke="midnightblue" points="627.871,-119.076 638.165,-116.57 628.555,-112.109 627.871,-119.076"/>
</g>
<!-- Node8&#45;&gt;Node4 -->
<g id="edge11" class="edge"><title>Node8&#45;&gt;Node4</title>
<path fill="none" stroke="midnightblue" d="M557.583,-68.5484C572.187,-71.4453 587.767,-74.952 602,-79 628.1,-86.4231 656.508,-96.9807 679.339,-106.11"/>
<polygon fill="midnightblue" stroke="midnightblue" points="678.176,-109.415 688.759,-109.921 680.802,-102.926 678.176,-109.415"/>
</g>
<!-- Node9&#45;&gt;Node4 -->
<g id="edge13" class="edge"><title>Node9&#45;&gt;Node4</title>
<path fill="none" stroke="midnightblue" d="M575.167,-30.0522C584.381,-32.875 593.527,-36.1707 602,-40 638.404,-56.4514 675.377,-84.0743 698.929,-103.35"/>
<polygon fill="midnightblue" stroke="midnightblue" points="696.748,-106.089 706.676,-109.788 701.222,-100.705 696.748,-106.089"/>
</g>
</g>
</svg>
