<?xml version="1.0" encoding="UTF-8" standalone="no"?>
<!DOCTYPE svg PUBLIC "-//W3C//DTD SVG 1.1//EN"
 "http://www.w3.org/Graphics/SVG/1.1/DTD/svg11.dtd">
<!-- Generated by graphviz version 2.36.0 (20140111.2315)
 -->
<!-- Title: model.neighbors.HexagonalNeighbors.getAllNeighbors Pages: 1 -->
<svg width="612pt" height="253pt"
 viewBox="0.00 0.00 612.00 253.00" xmlns="http://www.w3.org/2000/svg" xmlns:xlink="http://www.w3.org/1999/xlink">
<g id="graph0" class="graph" transform="scale(1 1) rotate(0) translate(4 249)">
<title>model.neighbors.HexagonalNeighbors.getAllNeighbors</title>
<polygon fill="white" stroke="none" points="-4,4 -4,-249 608,-249 608,4 -4,4"/>
<!-- Node1 -->
<g id="node1" class="node"><title>Node1</title>
<polygon fill="#bfbfbf" stroke="black" points="0.5,-110 0.5,-140 151.5,-140 151.5,-110 0.5,-110"/>
<text text-anchor="start" x="8.5" y="-128" font-family="Helvetica,sans-Serif" font-size="10.00">model.neighbors.Hexagonal</text>
<text text-anchor="middle" x="76" y="-117" font-family="Helvetica,sans-Serif" font-size="10.00">Neighbors.getAllNeighbors</text>
</g>
<!-- Node2 -->
<g id="node2" class="node"><title>Node2</title>
<g id="a_node2"><a xlink:href="../../dc/de1/classmodel_1_1neighbors_1_1_neighbors.html#ad0ebeba79aaf13dce7951d4c23ad990f" target="_top" xlink:title="model.neighbors.Neighbors.bottomLeft">
<polygon fill="white" stroke="black" points="188.5,-225.5 188.5,-244.5 393.5,-244.5 393.5,-225.5 188.5,-225.5"/>
<text text-anchor="middle" x="291" y="-232.5" font-family="Helvetica,sans-Serif" font-size="10.00">model.neighbors.Neighbors.bottomLeft</text>
</a>
</g>
</g>
<!-- Node1&#45;&gt;Node2 -->
<g id="edge1" class="edge"><title>Node1&#45;&gt;Node2</title>
<path fill="none" stroke="midnightblue" d="M90.8236,-140.108C110.387,-160.495 148.223,-196.397 188,-215 194.26,-217.928 200.93,-220.427 207.747,-222.561"/>
<polygon fill="midnightblue" stroke="midnightblue" points="207.232,-226.054 217.809,-225.432 209.153,-219.322 207.232,-226.054"/>
</g>
<!-- Node4 -->
<g id="node4" class="node"><title>Node4</title>
<g id="a_node4"><a xlink:href="../../dc/de1/classmodel_1_1neighbors_1_1_neighbors.html#a7943b721335bdaa80fd9ea617993392c" target="_top" xlink:title="model.neighbors.Neighbors.bottom\lRight">
<polygon fill="white" stroke="black" points="197.5,-176 197.5,-206 384.5,-206 384.5,-176 197.5,-176"/>
<text text-anchor="start" x="205.5" y="-194" font-family="Helvetica,sans-Serif" font-size="10.00">model.neighbors.Neighbors.bottom</text>
<text text-anchor="middle" x="291" y="-183" font-family="Helvetica,sans-Serif" font-size="10.00">Right</text>
</a>
</g>
</g>
<!-- Node1&#45;&gt;Node4 -->
<g id="edge3" class="edge"><title>Node1&#45;&gt;Node4</title>
<path fill="none" stroke="midnightblue" d="M114.399,-140.02C135.756,-148.292 163.151,-158.392 188,-166 196.36,-168.559 205.167,-171.037 213.96,-173.374"/>
<polygon fill="midnightblue" stroke="midnightblue" points="213.298,-176.818 223.858,-175.95 215.061,-170.044 213.298,-176.818"/>
</g>
<!-- Node5 -->
<g id="node5" class="node"><title>Node5</title>
<g id="a_node5"><a xlink:href="../../dc/de1/classmodel_1_1neighbors_1_1_neighbors.html#a1d91d30ce6289d9bb71da5d34c505582" target="_top" xlink:title="model.neighbors.Neighbors.Left">
<polygon fill="white" stroke="black" points="206,-137.5 206,-156.5 376,-156.5 376,-137.5 206,-137.5"/>
<text text-anchor="middle" x="291" y="-144.5" font-family="Helvetica,sans-Serif" font-size="10.00">model.neighbors.Neighbors.Left</text>
</a>
</g>
</g>
<!-- Node1&#45;&gt;Node5 -->
<g id="edge5" class="edge"><title>Node1&#45;&gt;Node5</title>
<path fill="none" stroke="midnightblue" d="M151.796,-132.725C166.016,-134.194 181.065,-135.749 195.797,-137.27"/>
<polygon fill="midnightblue" stroke="midnightblue" points="195.624,-140.771 205.93,-138.317 196.343,-133.808 195.624,-140.771"/>
</g>
<!-- Node6 -->
<g id="node6" class="node"><title>Node6</title>
<g id="a_node6"><a xlink:href="../../dc/de1/classmodel_1_1neighbors_1_1_neighbors.html#a6f65a87269275d8978c35c6765f531c1" target="_top" xlink:title="model.neighbors.Neighbors.\lRight">
<polygon fill="white" stroke="black" points="215,-88 215,-118 367,-118 367,-88 215,-88"/>
<text text-anchor="start" x="223" y="-106" font-family="Helvetica,sans-Serif" font-size="10.00">model.neighbors.Neighbors.</text>
<text text-anchor="middle" x="291" y="-95" font-family="Helvetica,sans-Serif" font-size="10.00">Right</text>
</a>
</g>
</g>
<!-- Node1&#45;&gt;Node6 -->
<g id="edge7" class="edge"><title>Node1&#45;&gt;Node6</title>
<path fill="none" stroke="midnightblue" d="M151.796,-117.275C168.831,-115.515 187.057,-113.633 204.499,-111.831"/>
<polygon fill="midnightblue" stroke="midnightblue" points="205.077,-115.29 214.664,-110.781 204.357,-108.327 205.077,-115.29"/>
</g>
<!-- Node7 -->
<g id="node7" class="node"><title>Node7</title>
<g id="a_node7"><a xlink:href="../../dc/de1/classmodel_1_1neighbors_1_1_neighbors.html#af8de37f6b70ac9ab8008b6629f22886a" target="_top" xlink:title="model.neighbors.Neighbors.topLeft">
<polygon fill="white" stroke="black" points="198.5,-49.5 198.5,-68.5 383.5,-68.5 383.5,-49.5 198.5,-49.5"/>
<text text-anchor="middle" x="291" y="-56.5" font-family="Helvetica,sans-Serif" font-size="10.00">model.neighbors.Neighbors.topLeft</text>
</a>
</g>
</g>
<!-- Node1&#45;&gt;Node7 -->
<g id="edge9" class="edge"><title>Node1&#45;&gt;Node7</title>
<path fill="none" stroke="midnightblue" d="M108.444,-109.994C130.34,-100.038 160.442,-87.3212 188,-79 198.449,-75.845 209.654,-73.0644 220.675,-70.6574"/>
<polygon fill="midnightblue" stroke="midnightblue" points="221.648,-74.0294 230.717,-68.5519 220.212,-67.1784 221.648,-74.0294"/>
</g>
<!-- Node8 -->
<g id="node8" class="node"><title>Node8</title>
<g id="a_node8"><a xlink:href="../../dc/de1/classmodel_1_1neighbors_1_1_neighbors.html#ae82e69e25fdf465f6dee196c82b1f6af" target="_top" xlink:title="model.neighbors.Neighbors.top\lRight">
<polygon fill="white" stroke="black" points="207.5,-0 207.5,-30 374.5,-30 374.5,-0 207.5,-0"/>
<text text-anchor="start" x="215.5" y="-18" font-family="Helvetica,sans-Serif" font-size="10.00">model.neighbors.Neighbors.top</text>
<text text-anchor="middle" x="291" y="-7" font-family="Helvetica,sans-Serif" font-size="10.00">Right</text>
</a>
</g>
</g>
<!-- Node1&#45;&gt;Node8 -->
<g id="edge11" class="edge"><title>Node1&#45;&gt;Node8</title>
<path fill="none" stroke="midnightblue" d="M92.497,-109.712C112.755,-90.5861 150.134,-58.1486 188,-40 193.035,-37.5867 198.325,-35.393 203.738,-33.4009"/>
<polygon fill="midnightblue" stroke="midnightblue" points="205.256,-36.5805 213.583,-30.0291 202.988,-29.9582 205.256,-36.5805"/>
</g>
<!-- Node3 -->
<g id="node3" class="node"><title>Node3</title>
<g id="a_node3"><a xlink:href="../../da/d6d/classmodel_1_1gridrules_1_1_grid_rules.html#a667e0098e66a7b398962d78c830f6c4a" target="_top" xlink:title="model.gridrules.GridRules.handle\lEdges">
<polygon fill="white" stroke="black" points="430.5,-110 430.5,-140 603.5,-140 603.5,-110 430.5,-110"/>
<text text-anchor="start" x="438.5" y="-128" font-family="Helvetica,sans-Serif" font-size="10.00">model.gridrules.GridRules.handle</text>
<text text-anchor="middle" x="517" y="-117" font-family="Helvetica,sans-Serif" font-size="10.00">Edges</text>
</a>
</g>
</g>
<!-- Node2&#45;&gt;Node3 -->
<g id="edge2" class="edge"><title>Node2&#45;&gt;Node3</title>
<path fill="none" stroke="midnightblue" d="M362.39,-225.451C373.222,-222.777 384.09,-219.362 394,-215 432.143,-198.213 469.772,-167.764 492.932,-146.974"/>
<polygon fill="midnightblue" stroke="midnightblue" points="495.476,-149.39 500.498,-140.061 490.755,-144.222 495.476,-149.39"/>
</g>
<!-- Node4&#45;&gt;Node3 -->
<g id="edge4" class="edge"><title>Node4&#45;&gt;Node3</title>
<path fill="none" stroke="midnightblue" d="M356.968,-175.942C369.314,-172.836 382.093,-169.453 394,-166 417.356,-159.226 442.902,-150.802 464.556,-143.355"/>
<polygon fill="midnightblue" stroke="midnightblue" points="465.906,-146.591 474.209,-140.011 463.615,-139.977 465.906,-146.591"/>
</g>
<!-- Node5&#45;&gt;Node3 -->
<g id="edge6" class="edge"><title>Node5&#45;&gt;Node3</title>
<path fill="none" stroke="midnightblue" d="M376.047,-138.745C390.47,-137.329 405.555,-135.847 420.258,-134.403"/>
<polygon fill="midnightblue" stroke="midnightblue" points="420.753,-137.872 430.363,-133.411 420.068,-130.905 420.753,-137.872"/>
</g>
<!-- Node6&#45;&gt;Node3 -->
<g id="edge8" class="edge"><title>Node6&#45;&gt;Node3</title>
<path fill="none" stroke="midnightblue" d="M367.212,-110.387C384.105,-112.046 402.254,-113.829 419.869,-115.559"/>
<polygon fill="midnightblue" stroke="midnightblue" points="419.871,-119.076 430.165,-116.57 420.555,-112.109 419.871,-119.076"/>
</g>
<!-- Node7&#45;&gt;Node3 -->
<g id="edge10" class="edge"><title>Node7&#45;&gt;Node3</title>
<path fill="none" stroke="midnightblue" d="M349.583,-68.5484C364.187,-71.4453 379.767,-74.952 394,-79 420.1,-86.4231 448.508,-96.9807 471.339,-106.11"/>
<polygon fill="midnightblue" stroke="midnightblue" points="470.176,-109.415 480.759,-109.921 472.802,-102.926 470.176,-109.415"/>
</g>
<!-- Node8&#45;&gt;Node3 -->
<g id="edge12" class="edge"><title>Node8&#45;&gt;Node3</title>
<path fill="none" stroke="midnightblue" d="M367.167,-30.0522C376.381,-32.875 385.527,-36.1707 394,-40 430.404,-56.4514 467.377,-84.0743 490.929,-103.35"/>
<polygon fill="midnightblue" stroke="midnightblue" points="488.748,-106.089 498.676,-109.788 493.222,-100.705 488.748,-106.089"/>
</g>
</g>
</svg>
