<?xml version="1.0" encoding="UTF-8" standalone="no"?>
<!DOCTYPE svg PUBLIC "-//W3C//DTD SVG 1.1//EN"
 "http://www.w3.org/Graphics/SVG/1.1/DTD/svg11.dtd">
<!-- Generated by graphviz version 2.36.0 (20140111.2315)
 -->
<!-- Title: model.neighbors.HexagonalNeighbors.getDiagonalNeighbors Pages: 1 -->
<svg width="824pt" height="253pt"
 viewBox="0.00 0.00 824.00 253.00" xmlns="http://www.w3.org/2000/svg" xmlns:xlink="http://www.w3.org/1999/xlink">
<g id="graph0" class="graph" transform="scale(1 1) rotate(0) translate(4 249)">
<title>model.neighbors.HexagonalNeighbors.getDiagonalNeighbors</title>
<polygon fill="white" stroke="none" points="-4,4 -4,-249 820,-249 820,4 -4,4"/>
<!-- Node1 -->
<g id="node1" class="node"><title>Node1</title>
<polygon fill="#bfbfbf" stroke="black" points="0.5,-110 0.5,-140 175.5,-140 175.5,-110 0.5,-110"/>
<text text-anchor="start" x="8.5" y="-128" font-family="Helvetica,sans-Serif" font-size="10.00">model.neighbors.Hexagonal</text>
<text text-anchor="middle" x="88" y="-117" font-family="Helvetica,sans-Serif" font-size="10.00">Neighbors.getDiagonalNeighbors</text>
</g>
<!-- Node2 -->
<g id="node2" class="node"><title>Node2</title>
<g id="a_node2"><a xlink:href="../../dd/d12/classmodel_1_1neighbors_1_1_hexagonal_neighbors.html#a8aa7f140ef710bd48182610f29bc95e9" target="_top" xlink:title="model.neighbors.Hexagonal\lNeighbors.getAllNeighbors">
<polygon fill="white" stroke="black" points="212.5,-110 212.5,-140 363.5,-140 363.5,-110 212.5,-110"/>
<text text-anchor="start" x="220.5" y="-128" font-family="Helvetica,sans-Serif" font-size="10.00">model.neighbors.Hexagonal</text>
<text text-anchor="middle" x="288" y="-117" font-family="Helvetica,sans-Serif" font-size="10.00">Neighbors.getAllNeighbors</text>
</a>
</g>
</g>
<!-- Node1&#45;&gt;Node2 -->
<g id="edge1" class="edge"><title>Node1&#45;&gt;Node2</title>
<path fill="none" stroke="midnightblue" d="M175.558,-125C184.383,-125 193.343,-125 202.15,-125"/>
<polygon fill="midnightblue" stroke="midnightblue" points="202.402,-128.5 212.401,-125 202.401,-121.5 202.402,-128.5"/>
</g>
<!-- Node3 -->
<g id="node3" class="node"><title>Node3</title>
<g id="a_node3"><a xlink:href="../../dc/de1/classmodel_1_1neighbors_1_1_neighbors.html#ad0ebeba79aaf13dce7951d4c23ad990f" target="_top" xlink:title="model.neighbors.Neighbors.bottomLeft">
<polygon fill="white" stroke="black" points="400.5,-225.5 400.5,-244.5 605.5,-244.5 605.5,-225.5 400.5,-225.5"/>
<text text-anchor="middle" x="503" y="-232.5" font-family="Helvetica,sans-Serif" font-size="10.00">model.neighbors.Neighbors.bottomLeft</text>
</a>
</g>
</g>
<!-- Node2&#45;&gt;Node3 -->
<g id="edge2" class="edge"><title>Node2&#45;&gt;Node3</title>
<path fill="none" stroke="midnightblue" d="M302.824,-140.108C322.387,-160.495 360.223,-196.397 400,-215 406.26,-217.928 412.93,-220.427 419.747,-222.561"/>
<polygon fill="midnightblue" stroke="midnightblue" points="419.232,-226.054 429.809,-225.432 421.153,-219.322 419.232,-226.054"/>
</g>
<!-- Node5 -->
<g id="node5" class="node"><title>Node5</title>
<g id="a_node5"><a xlink:href="../../dc/de1/classmodel_1_1neighbors_1_1_neighbors.html#a7943b721335bdaa80fd9ea617993392c" target="_top" xlink:title="model.neighbors.Neighbors.bottom\lRight">
<polygon fill="white" stroke="black" points="409.5,-176 409.5,-206 596.5,-206 596.5,-176 409.5,-176"/>
<text text-anchor="start" x="417.5" y="-194" font-family="Helvetica,sans-Serif" font-size="10.00">model.neighbors.Neighbors.bottom</text>
<text text-anchor="middle" x="503" y="-183" font-family="Helvetica,sans-Serif" font-size="10.00">Right</text>
</a>
</g>
</g>
<!-- Node2&#45;&gt;Node5 -->
<g id="edge4" class="edge"><title>Node2&#45;&gt;Node5</title>
<path fill="none" stroke="midnightblue" d="M326.399,-140.02C347.756,-148.292 375.151,-158.392 400,-166 408.36,-168.559 417.167,-171.037 425.96,-173.374"/>
<polygon fill="midnightblue" stroke="midnightblue" points="425.298,-176.818 435.858,-175.95 427.061,-170.044 425.298,-176.818"/>
</g>
<!-- Node6 -->
<g id="node6" class="node"><title>Node6</title>
<g id="a_node6"><a xlink:href="../../dc/de1/classmodel_1_1neighbors_1_1_neighbors.html#a1d91d30ce6289d9bb71da5d34c505582" target="_top" xlink:title="model.neighbors.Neighbors.Left">
<polygon fill="white" stroke="black" points="418,-137.5 418,-156.5 588,-156.5 588,-137.5 418,-137.5"/>
<text text-anchor="middle" x="503" y="-144.5" font-family="Helvetica,sans-Serif" font-size="10.00">model.neighbors.Neighbors.Left</text>
</a>
</g>
</g>
<!-- Node2&#45;&gt;Node6 -->
<g id="edge6" class="edge"><title>Node2&#45;&gt;Node6</title>
<path fill="none" stroke="midnightblue" d="M363.796,-132.725C378.016,-134.194 393.065,-135.749 407.797,-137.27"/>
<polygon fill="midnightblue" stroke="midnightblue" points="407.624,-140.771 417.93,-138.317 408.343,-133.808 407.624,-140.771"/>
</g>
<!-- Node7 -->
<g id="node7" class="node"><title>Node7</title>
<g id="a_node7"><a xlink:href="../../dc/de1/classmodel_1_1neighbors_1_1_neighbors.html#a6f65a87269275d8978c35c6765f531c1" target="_top" xlink:title="model.neighbors.Neighbors.\lRight">
<polygon fill="white" stroke="black" points="427,-88 427,-118 579,-118 579,-88 427,-88"/>
<text text-anchor="start" x="435" y="-106" font-family="Helvetica,sans-Serif" font-size="10.00">model.neighbors.Neighbors.</text>
<text text-anchor="middle" x="503" y="-95" font-family="Helvetica,sans-Serif" font-size="10.00">Right</text>
</a>
</g>
</g>
<!-- Node2&#45;&gt;Node7 -->
<g id="edge8" class="edge"><title>Node2&#45;&gt;Node7</title>
<path fill="none" stroke="midnightblue" d="M363.796,-117.275C380.831,-115.515 399.057,-113.633 416.499,-111.831"/>
<polygon fill="midnightblue" stroke="midnightblue" points="417.077,-115.29 426.664,-110.781 416.357,-108.327 417.077,-115.29"/>
</g>
<!-- Node8 -->
<g id="node8" class="node"><title>Node8</title>
<g id="a_node8"><a xlink:href="../../dc/de1/classmodel_1_1neighbors_1_1_neighbors.html#af8de37f6b70ac9ab8008b6629f22886a" target="_top" xlink:title="model.neighbors.Neighbors.topLeft">
<polygon fill="white" stroke="black" points="410.5,-49.5 410.5,-68.5 595.5,-68.5 595.5,-49.5 410.5,-49.5"/>
<text text-anchor="middle" x="503" y="-56.5" font-family="Helvetica,sans-Serif" font-size="10.00">model.neighbors.Neighbors.topLeft</text>
</a>
</g>
</g>
<!-- Node2&#45;&gt;Node8 -->
<g id="edge10" class="edge"><title>Node2&#45;&gt;Node8</title>
<path fill="none" stroke="midnightblue" d="M320.444,-109.994C342.34,-100.038 372.442,-87.3212 400,-79 410.449,-75.845 421.654,-73.0644 432.675,-70.6574"/>
<polygon fill="midnightblue" stroke="midnightblue" points="433.648,-74.0294 442.717,-68.5519 432.212,-67.1784 433.648,-74.0294"/>
</g>
<!-- Node9 -->
<g id="node9" class="node"><title>Node9</title>
<g id="a_node9"><a xlink:href="../../dc/de1/classmodel_1_1neighbors_1_1_neighbors.html#ae82e69e25fdf465f6dee196c82b1f6af" target="_top" xlink:title="model.neighbors.Neighbors.top\lRight">
<polygon fill="white" stroke="black" points="419.5,-0 419.5,-30 586.5,-30 586.5,-0 419.5,-0"/>
<text text-anchor="start" x="427.5" y="-18" font-family="Helvetica,sans-Serif" font-size="10.00">model.neighbors.Neighbors.top</text>
<text text-anchor="middle" x="503" y="-7" font-family="Helvetica,sans-Serif" font-size="10.00">Right</text>
</a>
</g>
</g>
<!-- Node2&#45;&gt;Node9 -->
<g id="edge12" class="edge"><title>Node2&#45;&gt;Node9</title>
<path fill="none" stroke="midnightblue" d="M304.497,-109.712C324.755,-90.5861 362.134,-58.1486 400,-40 405.035,-37.5867 410.325,-35.393 415.738,-33.4009"/>
<polygon fill="midnightblue" stroke="midnightblue" points="417.256,-36.5805 425.583,-30.0291 414.988,-29.9582 417.256,-36.5805"/>
</g>
<!-- Node4 -->
<g id="node4" class="node"><title>Node4</title>
<g id="a_node4"><a xlink:href="../../da/d6d/classmodel_1_1gridrules_1_1_grid_rules.html#a667e0098e66a7b398962d78c830f6c4a" target="_top" xlink:title="model.gridrules.GridRules.handle\lEdges">
<polygon fill="white" stroke="black" points="642.5,-110 642.5,-140 815.5,-140 815.5,-110 642.5,-110"/>
<text text-anchor="start" x="650.5" y="-128" font-family="Helvetica,sans-Serif" font-size="10.00">model.gridrules.GridRules.handle</text>
<text text-anchor="middle" x="729" y="-117" font-family="Helvetica,sans-Serif" font-size="10.00">Edges</text>
</a>
</g>
</g>
<!-- Node3&#45;&gt;Node4 -->
<g id="edge3" class="edge"><title>Node3&#45;&gt;Node4</title>
<path fill="none" stroke="midnightblue" d="M574.39,-225.451C585.222,-222.777 596.09,-219.362 606,-215 644.143,-198.213 681.772,-167.764 704.932,-146.974"/>
<polygon fill="midnightblue" stroke="midnightblue" points="707.476,-149.39 712.498,-140.061 702.755,-144.222 707.476,-149.39"/>
</g>
<!-- Node5&#45;&gt;Node4 -->
<g id="edge5" class="edge"><title>Node5&#45;&gt;Node4</title>
<path fill="none" stroke="midnightblue" d="M568.968,-175.942C581.314,-172.836 594.093,-169.453 606,-166 629.356,-159.226 654.902,-150.802 676.556,-143.355"/>
<polygon fill="midnightblue" stroke="midnightblue" points="677.906,-146.591 686.209,-140.011 675.615,-139.977 677.906,-146.591"/>
</g>
<!-- Node6&#45;&gt;Node4 -->
<g id="edge7" class="edge"><title>Node6&#45;&gt;Node4</title>
<path fill="none" stroke="midnightblue" d="M588.047,-138.745C602.47,-137.329 617.555,-135.847 632.258,-134.403"/>
<polygon fill="midnightblue" stroke="midnightblue" points="632.753,-137.872 642.363,-133.411 632.068,-130.905 632.753,-137.872"/>
</g>
<!-- Node7&#45;&gt;Node4 -->
<g id="edge9" class="edge"><title>Node7&#45;&gt;Node4</title>
<path fill="none" stroke="midnightblue" d="M579.212,-110.387C596.105,-112.046 614.254,-113.829 631.869,-115.559"/>
<polygon fill="midnightblue" stroke="midnightblue" points="631.871,-119.076 642.165,-116.57 632.555,-112.109 631.871,-119.076"/>
</g>
<!-- Node8&#45;&gt;Node4 -->
<g id="edge11" class="edge"><title>Node8&#45;&gt;Node4</title>
<path fill="none" stroke="midnightblue" d="M561.583,-68.5484C576.187,-71.4453 591.767,-74.952 606,-79 632.1,-86.4231 660.508,-96.9807 683.339,-106.11"/>
<polygon fill="midnightblue" stroke="midnightblue" points="682.176,-109.415 692.759,-109.921 684.802,-102.926 682.176,-109.415"/>
</g>
<!-- Node9&#45;&gt;Node4 -->
<g id="edge13" class="edge"><title>Node9&#45;&gt;Node4</title>
<path fill="none" stroke="midnightblue" d="M579.167,-30.0522C588.381,-32.875 597.527,-36.1707 606,-40 642.404,-56.4514 679.377,-84.0743 702.929,-103.35"/>
<polygon fill="midnightblue" stroke="midnightblue" points="700.748,-106.089 710.676,-109.788 705.222,-100.705 700.748,-106.089"/>
</g>
</g>
</svg>
