<?xml version="1.0" encoding="UTF-8" standalone="no"?>
<!DOCTYPE svg PUBLIC "-//W3C//DTD SVG 1.1//EN"
 "http://www.w3.org/Graphics/SVG/1.1/DTD/svg11.dtd">
<!-- Generated by graphviz version 2.36.0 (20140111.2315)
 -->
<!-- Title: controller.CellSocietyController Pages: 1 -->
<!--zoomable 531 -->
<svg id="main" version="1.1" xmlns="http://www.w3.org/2000/svg" xmlns:xlink="http://www.w3.org/1999/xlink" xml:space="preserve" onload="init(evt)">
<style type="text/css"><![CDATA[
.edge:hover path { stroke: red; }
.edge:hover polygon { stroke: red; fill: red; }
]]></style>
<script type="text/javascript"><![CDATA[
var edges = document.getElementsByTagName('g');
if (edges && edges.length) {
  for (var i=0;i<edges.length;i++) {
    if (edges[i].id.substr(0,4)=='edge') {
      edges[i].setAttribute('class','edge');
    }
  }
}
]]></script>
        <defs>
                <circle id="rim" cx="0" cy="0" r="7"/>
                <circle id="rim2" cx="0" cy="0" r="3.5"/>
                <g id="zoomPlus">
                        <use xlink:href="#rim" fill="#404040">
                                <set attributeName="fill" to="#808080" begin="zoomplus.mouseover" end="zoomplus.mouseout"/>
                        </use>
                        <path d="M-4,0h8M0,-4v8" fill="none" stroke="white" stroke-width="1.5" pointer-events="none"/>
                </g>
                <g id="zoomMin">
                        <use xlink:href="#rim" fill="#404040">
                                <set attributeName="fill" to="#808080" begin="zoomminus.mouseover" end="zoomminus.mouseout"/>
                        </use>
                        <path d="M-4,0h8" fill="none" stroke="white" stroke-width="1.5" pointer-events="none"/>
                </g>
                <g id="dirArrow">
                        <path fill="none" stroke="white" stroke-width="1.5" d="M0,-3.0v7 M-2.5,-0.5L0,-3.0L2.5,-0.5"/>
                </g>
               <g id="resetDef">
                       <use xlink:href="#rim2" fill="#404040">
                               <set attributeName="fill" to="#808080" begin="reset.mouseover" end="reset.mouseout"/>
                       </use>
               </g>
        </defs>

<script type="text/javascript">
var viewWidth = 1020;
var viewHeight = 531;
var sectionId = 'dynsection-0';
</script>
<script xlink:href="../../svgpan.js"/>
<svg id="graph" class="graph">
<g id="viewport">
<title>controller.CellSocietyController</title>
<polygon fill="white" stroke="none" points="-4,4 -4,-526.774 1016,-526.774 1016,4 -4,4"/>
<!-- Node1 -->
<g id="node1" class="node"><title>Node1</title>
<polygon fill="#bfbfbf" stroke="black" points="258.5,-393.274 258.5,-412.274 421.5,-412.274 421.5,-393.274 258.5,-393.274"/>
<text text-anchor="middle" x="340" y="-400.274" font-family="Helvetica,sans-Serif" font-size="10.00">controller.CellSocietyController</text>
</g>
<!-- Node13 -->
<g id="node13" class="node"><title>Node13</title>
<g id="a_node13"><a xlink:href="../../d1/d3e/classview_1_1_simulation_screen.html" target="_top" xlink:title="view.SimulationScreen">
<polygon fill="white" stroke="black" points="611,-283.274 611,-302.274 735,-302.274 735,-283.274 611,-283.274"/>
<text text-anchor="middle" x="673" y="-290.274" font-family="Helvetica,sans-Serif" font-size="10.00">view.SimulationScreen</text>
</a>
</g>
</g>
<!-- Node1&#45;&gt;Node13 -->
<g id="edge17" class="edge"><title>Node1&#45;&gt;Node13</title>
<path fill="none" stroke="#9a32cd" stroke-dasharray="5,2" d="M431.679,-402.415C487.905,-400.955 554.18,-396.625 580,-384.774 620.237,-366.307 652.79,-322.189 665.839,-302.523"/>
<polygon fill="#9a32cd" stroke="#9a32cd" points="431.586,-398.916 421.67,-402.648 431.749,-405.914 431.586,-398.916"/>
<text text-anchor="middle" x="510" y="-405.774" font-family="Helvetica,sans-Serif" font-size="10.00"> myController</text>
</g>
<!-- Node2 -->
<g id="node2" class="node"><title>Node2</title>
<polygon fill="white" stroke="#bfbfbf" points="46,-465.274 46,-484.274 102,-484.274 102,-465.274 46,-465.274"/>
<text text-anchor="middle" x="74" y="-472.274" font-family="Helvetica,sans-Serif" font-size="10.00">Timeline</text>
</g>
<!-- Node2&#45;&gt;Node1 -->
<g id="edge1" class="edge"><title>Node2&#45;&gt;Node1</title>
<path fill="none" stroke="#9a32cd" stroke-dasharray="5,2" d="M112.081,-468.918C145.803,-463.173 196.756,-453.437 240,-440.774 267.032,-432.859 297.115,-420.832 316.946,-412.435"/>
<polygon fill="#9a32cd" stroke="#9a32cd" points="111.482,-465.47 102.197,-470.572 112.637,-472.374 111.482,-465.47"/>
<text text-anchor="middle" x="203" y="-461.774" font-family="Helvetica,sans-Serif" font-size="10.00"> myTimeline</text>
</g>
<!-- Node3 -->
<g id="node3" class="node"><title>Node3</title>
<polygon fill="white" stroke="#bfbfbf" points="0.5,-427.274 0.5,-446.274 147.5,-446.274 147.5,-427.274 0.5,-427.274"/>
<text text-anchor="middle" x="74" y="-434.274" font-family="Helvetica,sans-Serif" font-size="10.00">HashMap&lt; String, String &gt;</text>
</g>
<!-- Node3&#45;&gt;Node1 -->
<g id="edge2" class="edge"><title>Node3&#45;&gt;Node1</title>
<path fill="none" stroke="#9a32cd" stroke-dasharray="5,2" d="M157.843,-426.105C192.175,-421.684 231.682,-416.596 265.024,-412.302"/>
<polygon fill="#9a32cd" stroke="#9a32cd" points="157.309,-422.645 147.838,-427.394 158.203,-429.588 157.309,-422.645"/>
<text text-anchor="middle" x="203" y="-428.774" font-family="Helvetica,sans-Serif" font-size="10.00"> myParameters</text>
</g>
<!-- Node4 -->
<g id="node4" class="node"><title>Node4</title>
<polygon fill="white" stroke="#bfbfbf" points="51.5,-389.274 51.5,-408.274 96.5,-408.274 96.5,-389.274 51.5,-389.274"/>
<text text-anchor="middle" x="74" y="-396.274" font-family="Helvetica,sans-Serif" font-size="10.00">Stage</text>
</g>
<!-- Node4&#45;&gt;Node1 -->
<g id="edge3" class="edge"><title>Node4&#45;&gt;Node1</title>
<path fill="none" stroke="#9a32cd" stroke-dasharray="5,2" d="M106.861,-399.257C144.173,-399.823 207.371,-400.78 258.413,-401.553"/>
<polygon fill="#9a32cd" stroke="#9a32cd" points="106.656,-395.754 96.6042,-399.102 106.55,-402.753 106.656,-395.754"/>
<text text-anchor="middle" x="203" y="-404.774" font-family="Helvetica,sans-Serif" font-size="10.00"> myStage</text>
</g>
<!-- Node5 -->
<g id="node5" class="node"><title>Node5</title>
<g id="a_node5"><a xlink:href="../../d0/d56/classmodel_1_1simulations_1_1_simulation.html" target="_top" xlink:title="model.simulations.Simulation">
<polygon fill="white" stroke="black" points="854,-217.274 854,-236.274 1012,-236.274 1012,-217.274 854,-217.274"/>
<text text-anchor="middle" x="933" y="-224.274" font-family="Helvetica,sans-Serif" font-size="10.00">model.simulations.Simulation</text>
</a>
</g>
</g>
<!-- Node5&#45;&gt;Node1 -->
<g id="edge4" class="edge"><title>Node5&#45;&gt;Node1</title>
<path fill="none" stroke="#9a32cd" stroke-dasharray="5,2" d="M912.259,-242.468C861.135,-281.943 718.707,-384.574 580,-417.774 511.265,-434.227 428.424,-422.214 380.523,-412.286"/>
<polygon fill="#9a32cd" stroke="#9a32cd" points="914.464,-245.187 920.197,-236.277 910.159,-239.667 914.464,-245.187"/>
<text text-anchor="middle" x="673" y="-414.774" font-family="Helvetica,sans-Serif" font-size="10.00"> myCurrentSimulation</text>
</g>
<!-- Node6 -->
<g id="node6" class="node"><title>Node6</title>
<g id="a_node6"><a xlink:href="../../dc/d86/classmodel_1_1simulations_1_1_abstract_cell_factory.html" target="_top" xlink:title="model.simulations.Abstract\lCellFactory">
<polygon fill="white" stroke="black" points="599,-233.774 599,-263.774 747,-263.774 747,-233.774 599,-233.774"/>
<text text-anchor="start" x="607" y="-251.774" font-family="Helvetica,sans-Serif" font-size="10.00">model.simulations.Abstract</text>
<text text-anchor="middle" x="673" y="-240.774" font-family="Helvetica,sans-Serif" font-size="10.00">CellFactory</text>
</a>
</g>
</g>
<!-- Node6&#45;&gt;Node5 -->
<g id="edge5" class="edge"><title>Node6&#45;&gt;Node5</title>
<path fill="none" stroke="#9a32cd" stroke-dasharray="5,2" d="M757.541,-241.651C788.396,-239.02 823.23,-236.049 853.612,-233.459"/>
<polygon fill="#9a32cd" stroke="#9a32cd" points="756.909,-238.192 747.242,-242.529 757.504,-245.167 756.909,-238.192"/>
<text text-anchor="middle" x="801" y="-243.774" font-family="Helvetica,sans-Serif" font-size="10.00"> myCellFactory</text>
</g>
<!-- Node7 -->
<g id="node7" class="node"><title>Node7</title>
<g id="a_node7"><a xlink:href="../../da/d6d/classmodel_1_1gridrules_1_1_grid_rules.html" target="_top" xlink:title="model.gridrules.GridRules">
<polygon fill="white" stroke="black" points="604,-195.274 604,-214.274 742,-214.274 742,-195.274 604,-195.274"/>
<text text-anchor="middle" x="673" y="-202.274" font-family="Helvetica,sans-Serif" font-size="10.00">model.gridrules.GridRules</text>
</a>
</g>
</g>
<!-- Node7&#45;&gt;Node5 -->
<g id="edge6" class="edge"><title>Node7&#45;&gt;Node5</title>
<path fill="none" stroke="#9a32cd" stroke-dasharray="5,2" d="M752.385,-211.458C784.567,-214.203 821.745,-217.373 853.898,-220.115"/>
<polygon fill="#9a32cd" stroke="#9a32cd" points="752.385,-207.946 742.124,-210.583 751.79,-214.921 752.385,-207.946"/>
<text text-anchor="middle" x="801" y="-221.774" font-family="Helvetica,sans-Serif" font-size="10.00"> myGridRules</text>
</g>
<!-- Node8 -->
<g id="node8" class="node"><title>Node8</title>
<g id="a_node8"><a xlink:href="../../db/d90/classmodel_1_1patches_1_1_patch.html" target="_top" xlink:title="model.patches.Patch">
<polygon fill="white" stroke="black" points="614.5,-18.2745 614.5,-37.2745 731.5,-37.2745 731.5,-18.2745 614.5,-18.2745"/>
<text text-anchor="middle" x="673" y="-25.2745" font-family="Helvetica,sans-Serif" font-size="10.00">model.patches.Patch</text>
</a>
</g>
</g>
<!-- Node8&#45;&gt;Node5 -->
<g id="edge7" class="edge"><title>Node8&#45;&gt;Node5</title>
<path fill="none" stroke="#9a32cd" stroke-dasharray="5,2" d="M741.873,-33.6398C779.148,-37.9869 820.819,-45.0467 836,-55.7745 851.084,-66.4338 909.574,-181.889 927.045,-216.82"/>
<polygon fill="#9a32cd" stroke="#9a32cd" points="741.828,-30.1132 731.502,-32.4848 741.053,-37.0701 741.828,-30.1132"/>
<text text-anchor="middle" x="801" y="-58.7745" font-family="Helvetica,sans-Serif" font-size="10.00"> myPatchGrid</text>
</g>
<!-- Node10 -->
<g id="node10" class="node"><title>Node10</title>
<g id="a_node10"><a xlink:href="../../dc/d41/classmodel_1_1cells_1_1_cell.html" target="_top" xlink:title="model.cells.Cell">
<polygon fill="white" stroke="black" points="887.5,-47.2745 887.5,-66.2745 978.5,-66.2745 978.5,-47.2745 887.5,-47.2745"/>
<text text-anchor="middle" x="933" y="-54.2745" font-family="Helvetica,sans-Serif" font-size="10.00">model.cells.Cell</text>
</a>
</g>
</g>
<!-- Node8&#45;&gt;Node10 -->
<g id="edge11" class="edge"><title>Node8&#45;&gt;Node10</title>
<path fill="none" stroke="#9a32cd" stroke-dasharray="5,2" d="M708.973,-15.0684C742.07,-4.8559 792.953,6.13532 836,-4.77446 868.338,-12.9701 901.586,-34.4748 919.208,-47.115"/>
<polygon fill="#9a32cd" stroke="#9a32cd" points="707.744,-11.7872 699.301,-18.1877 709.893,-18.4493 707.744,-11.7872"/>
<text text-anchor="middle" x="801" y="-7.77446" font-family="Helvetica,sans-Serif" font-size="10.00"> myPatch</text>
</g>
<!-- Node9 -->
<g id="node9" class="node"><title>Node9</title>
<polygon fill="white" stroke="#bfbfbf" points="276,-67.2745 276,-86.2745 404,-86.2745 404,-67.2745 276,-67.2745"/>
<text text-anchor="middle" x="340" y="-74.2745" font-family="Helvetica,sans-Serif" font-size="10.00">Map&lt; String, Double &gt;</text>
</g>
<!-- Node9&#45;&gt;Node8 -->
<g id="edge8" class="edge"><title>Node9&#45;&gt;Node8</title>
<path fill="none" stroke="#9a32cd" stroke-dasharray="5,2" d="M414.359,-66.7312C461.674,-60.1565 524.514,-51.2435 580,-42.7745 591.198,-41.0652 603.151,-39.1691 614.609,-37.3163"/>
<polygon fill="#9a32cd" stroke="#9a32cd" points="413.628,-63.299 404.204,-68.1396 414.59,-70.2326 413.628,-63.299"/>
<text text-anchor="middle" x="510" y="-65.7745" font-family="Helvetica,sans-Serif" font-size="10.00"> myPatchPropertyMap</text>
</g>
<!-- Node9&#45;&gt;Node10 -->
<g id="edge12" class="edge"><title>Node9&#45;&gt;Node10</title>
<path fill="none" stroke="#9a32cd" stroke-dasharray="5,2" d="M414.081,-86.7562C511.223,-98.0928 687.867,-111.971 836,-86.7745 860.961,-82.5288 888.444,-73.4682 907.584,-66.4092"/>
<polygon fill="#9a32cd" stroke="#9a32cd" points="414.415,-83.2713 404.071,-85.564 413.587,-90.2222 414.415,-83.2713"/>
<text text-anchor="middle" x="673" y="-104.774" font-family="Helvetica,sans-Serif" font-size="10.00"> myPropertyMap</text>
</g>
<!-- Node10&#45;&gt;Node8 -->
<g id="edge9" class="edge"><title>Node10&#45;&gt;Node8</title>
<path fill="none" stroke="#9a32cd" stroke-dasharray="5,2" d="M901.416,-43.3523C882.885,-35.9608 858.544,-27.5411 836,-23.7745 801.73,-18.0487 762.823,-18.7784 731.728,-21.0675"/>
<polygon fill="#9a32cd" stroke="#9a32cd" points="900.22,-46.6448 910.8,-47.205 902.878,-40.1692 900.22,-46.6448"/>
<text text-anchor="middle" x="801" y="-26.7745" font-family="Helvetica,sans-Serif" font-size="10.00"> myCell</text>
</g>
<!-- Node11 -->
<g id="node11" class="node"><title>Node11</title>
<polygon fill="white" stroke="#bfbfbf" points="608,-61.2745 608,-80.2745 738,-80.2745 738,-61.2745 608,-61.2745"/>
<text text-anchor="middle" x="673" y="-68.2745" font-family="Helvetica,sans-Serif" font-size="10.00">List&lt; model.cells.Cell &gt;</text>
</g>
<!-- Node11&#45;&gt;Node10 -->
<g id="edge10" class="edge"><title>Node11&#45;&gt;Node10</title>
<path fill="none" stroke="#9a32cd" stroke-dasharray="5,2" d="M748.649,-71.599C776.136,-71.4428 807.509,-70.7248 836,-68.7745 852.757,-67.6273 871.071,-65.5453 887.169,-63.4339"/>
<polygon fill="#9a32cd" stroke="#9a32cd" points="748.306,-68.1 738.318,-71.6328 748.329,-75.1 748.306,-68.1"/>
<text text-anchor="middle" x="801" y="-74.7745" font-family="Helvetica,sans-Serif" font-size="10.00"> myNeighbors</text>
</g>
<!-- Node12 -->
<g id="node12" class="node"><title>Node12</title>
<polygon fill="white" stroke="#bfbfbf" points="262,-18.2745 262,-37.2745 418,-37.2745 418,-18.2745 262,-18.2745"/>
<text text-anchor="middle" x="340" y="-25.2745" font-family="Helvetica,sans-Serif" font-size="10.00">List&lt; model.patches.Patch &gt;</text>
</g>
<!-- Node12&#45;&gt;Node8 -->
<g id="edge13" class="edge"><title>Node12&#45;&gt;Node8</title>
<path fill="none" stroke="#9a32cd" stroke-dasharray="5,2" d="M428.216,-27.7745C487.043,-27.7745 563.016,-27.7745 614.396,-27.7745"/>
<polygon fill="#9a32cd" stroke="#9a32cd" points="428.187,-24.2746 418.187,-27.7745 428.187,-31.2746 428.187,-24.2746"/>
<text text-anchor="middle" x="510" y="-30.7745" font-family="Helvetica,sans-Serif" font-size="10.00"> myNeighbors</text>
</g>
<!-- Node13&#45;&gt;Node1 -->
<g id="edge25" class="edge"><title>Node13&#45;&gt;Node1</title>
<path fill="none" stroke="#9a32cd" stroke-dasharray="5,2" d="M652.446,-308.509C634.642,-321.97 607.075,-340.716 580,-350.774 521.02,-372.685 501.316,-357.665 440,-371.774 433.089,-373.365 397.209,-384.732 370.621,-393.244"/>
<polygon fill="#9a32cd" stroke="#9a32cd" points="654.59,-311.275 660.356,-302.387 650.306,-305.739 654.59,-311.275"/>
<text text-anchor="middle" x="510" y="-374.774" font-family="Helvetica,sans-Serif" font-size="10.00"> myCurrentSimulationScreen</text>
</g>
<!-- Node13&#45;&gt;Node5 -->
<g id="edge14" class="edge"><title>Node13&#45;&gt;Node5</title>
<path fill="none" stroke="#9a32cd" stroke-dasharray="5,2" d="M729.47,-281.095C760.861,-274.239 800.77,-265.107 836,-255.774 858.384,-249.845 883.421,-242.249 902.313,-236.319"/>
<polygon fill="#9a32cd" stroke="#9a32cd" points="728.624,-277.697 719.594,-283.239 730.109,-284.538 728.624,-277.697"/>
<text text-anchor="middle" x="801" y="-275.774" font-family="Helvetica,sans-Serif" font-size="10.00"> myView</text>
</g>
<!-- Node14 -->
<g id="node14" class="node"><title>Node14</title>
<polygon fill="white" stroke="#bfbfbf" points="279.5,-337.774 279.5,-367.774 400.5,-367.774 400.5,-337.774 279.5,-337.774"/>
<text text-anchor="start" x="287.5" y="-355.774" font-family="Helvetica,sans-Serif" font-size="10.00">Map&lt; Color, ArrayList</text>
<text text-anchor="middle" x="340" y="-344.774" font-family="Helvetica,sans-Serif" font-size="10.00">&lt; Integer &gt; &gt;</text>
</g>
<!-- Node14&#45;&gt;Node13 -->
<g id="edge15" class="edge"><title>Node14&#45;&gt;Node13</title>
<path fill="none" stroke="#9a32cd" stroke-dasharray="5,2" d="M410.503,-343.137C469.182,-334.846 548.526,-323.231 580,-316.774 599.727,-312.727 621.546,-307.087 638.983,-302.291"/>
<polygon fill="#9a32cd" stroke="#9a32cd" points="409.953,-339.679 400.539,-344.54 410.93,-346.611 409.953,-339.679"/>
<text text-anchor="middle" x="510" y="-342.774" font-family="Helvetica,sans-Serif" font-size="10.00"> myData</text>
</g>
<!-- Node15 -->
<g id="node15" class="node"><title>Node15</title>
<polygon fill="white" stroke="#bfbfbf" points="316.5,-299.274 316.5,-318.274 363.5,-318.274 363.5,-299.274 316.5,-299.274"/>
<text text-anchor="middle" x="340" y="-306.274" font-family="Helvetica,sans-Serif" font-size="10.00">Shape</text>
</g>
<!-- Node15&#45;&gt;Node13 -->
<g id="edge16" class="edge"><title>Node15&#45;&gt;Node13</title>
<path fill="none" stroke="#9a32cd" stroke-dasharray="5,2" d="M373.998,-307.179C429.152,-304.513 540.886,-299.112 610.769,-295.734"/>
<polygon fill="#9a32cd" stroke="#9a32cd" points="373.57,-303.696 363.751,-307.675 373.908,-310.688 373.57,-303.696"/>
<text text-anchor="middle" x="510" y="-306.774" font-family="Helvetica,sans-Serif" font-size="10.00"> myColorGrid</text>
</g>
<!-- Node16 -->
<g id="node16" class="node"><title>Node16</title>
<polygon fill="white" stroke="#bfbfbf" points="283.5,-261.274 283.5,-280.274 396.5,-280.274 396.5,-261.274 283.5,-261.274"/>
<text text-anchor="middle" x="340" y="-268.274" font-family="Helvetica,sans-Serif" font-size="10.00">ArrayList&lt; Button &gt;</text>
</g>
<!-- Node16&#45;&gt;Node13 -->
<g id="edge18" class="edge"><title>Node16&#45;&gt;Node13</title>
<path fill="none" stroke="#9a32cd" stroke-dasharray="5,2" d="M406.859,-273.051C454.897,-274.963 521.545,-278.134 580,-282.774 589.93,-283.563 600.446,-284.556 610.682,-285.608"/>
<polygon fill="#9a32cd" stroke="#9a32cd" points="406.725,-269.543 396.596,-272.651 406.452,-276.538 406.725,-269.543"/>
<text text-anchor="middle" x="510" y="-285.774" font-family="Helvetica,sans-Serif" font-size="10.00"> myButtons</text>
</g>
<!-- Node17 -->
<g id="node17" class="node"><title>Node17</title>
<polygon fill="white" stroke="#bfbfbf" points="13,-236.274 13,-255.274 135,-255.274 135,-236.274 13,-236.274"/>
<text text-anchor="middle" x="74" y="-243.274" font-family="Helvetica,sans-Serif" font-size="10.00">Map&lt; String, String &gt;</text>
</g>
<!-- Node17&#45;&gt;Node1 -->
<g id="edge26" class="edge"><title>Node17&#45;&gt;Node1</title>
<path fill="none" stroke="#9a32cd" stroke-dasharray="5,2" d="M130.544,-258.138C166.382,-268.815 211.469,-287.735 240,-319.774 257.668,-339.615 239.259,-357.945 258,-376.774 265.293,-384.102 274.654,-389.366 284.407,-393.148"/>
<polygon fill="#9a32cd" stroke="#9a32cd" points="131.279,-254.708 120.703,-255.341 129.365,-261.441 131.279,-254.708"/>
<text text-anchor="middle" x="203" y="-322.774" font-family="Helvetica,sans-Serif" font-size="10.00"> myStyles</text>
</g>
<!-- Node17&#45;&gt;Node13 -->
<g id="edge19" class="edge"><title>Node17&#45;&gt;Node13</title>
<path fill="none" stroke="#9a32cd" stroke-dasharray="5,2" d="M145.462,-243.4C179.464,-242.369 220.848,-241.282 258,-240.774 330.882,-239.779 349.432,-233.946 422,-240.774 493.162,-247.471 510.111,-255.792 580,-270.774 597.824,-274.596 617.488,-279.239 634.045,-283.274"/>
<polygon fill="#9a32cd" stroke="#9a32cd" points="145.047,-239.911 135.159,-243.717 145.263,-246.907 145.047,-239.911"/>
<text text-anchor="middle" x="340" y="-243.774" font-family="Helvetica,sans-Serif" font-size="10.00"> myStyles</text>
</g>
<!-- Node18 -->
<g id="node18" class="node"><title>Node18</title>
<polygon fill="white" stroke="#bfbfbf" points="319,-176.274 319,-195.274 361,-195.274 361,-176.274 319,-176.274"/>
<text text-anchor="middle" x="340" y="-183.274" font-family="Helvetica,sans-Serif" font-size="10.00">HBox</text>
</g>
<!-- Node18&#45;&gt;Node13 -->
<g id="edge20" class="edge"><title>Node18&#45;&gt;Node13</title>
<path fill="none" stroke="#9a32cd" stroke-dasharray="5,2" d="M370.926,-178.599C420.554,-168.61 520.32,-156.904 580,-206.774 603.331,-226.271 576.476,-251.3 598,-272.774 602.334,-277.098 607.499,-280.514 613.058,-283.208"/>
<polygon fill="#9a32cd" stroke="#9a32cd" points="370.183,-175.178 361.129,-180.681 371.639,-182.025 370.183,-175.178"/>
<text text-anchor="middle" x="510" y="-209.774" font-family="Helvetica,sans-Serif" font-size="10.00"> myTop</text>
</g>
<!-- Node19 -->
<g id="node19" class="node"><title>Node19</title>
<polygon fill="white" stroke="#bfbfbf" points="304,-138.274 304,-157.274 376,-157.274 376,-138.274 304,-138.274"/>
<text text-anchor="middle" x="340" y="-145.274" font-family="Helvetica,sans-Serif" font-size="10.00">BorderPane</text>
</g>
<!-- Node19&#45;&gt;Node13 -->
<g id="edge21" class="edge"><title>Node19&#45;&gt;Node13</title>
<path fill="none" stroke="#9a32cd" stroke-dasharray="5,2" d="M386.636,-142.692C447.943,-136.944 552.407,-131.288 580,-155.774 619.352,-190.695 562.925,-233.56 598,-272.774 601.815,-277.04 606.436,-280.436 611.485,-283.136"/>
<polygon fill="#9a32cd" stroke="#9a32cd" points="386.065,-139.231 376.452,-143.685 386.745,-146.198 386.065,-139.231"/>
<text text-anchor="middle" x="510" y="-158.774" font-family="Helvetica,sans-Serif" font-size="10.00"> root</text>
</g>
<!-- Node20 -->
<g id="node20" class="node"><title>Node20</title>
<g id="a_node20"><a xlink:href="../../dc/de1/classmodel_1_1neighbors_1_1_neighbors.html" target="_top" xlink:title="model.neighbors.Neighbors">
<polygon fill="white" stroke="black" points="598.5,-157.274 598.5,-176.274 747.5,-176.274 747.5,-157.274 598.5,-157.274"/>
<text text-anchor="middle" x="673" y="-164.274" font-family="Helvetica,sans-Serif" font-size="10.00">model.neighbors.Neighbors</text>
</a>
</g>
</g>
<!-- Node20&#45;&gt;Node5 -->
<g id="edge22" class="edge"><title>Node20&#45;&gt;Node5</title>
<path fill="none" stroke="#9a32cd" stroke-dasharray="5,2" d="M738.499,-178.155C768.308,-183.762 804.097,-190.987 836,-198.774 858.263,-204.209 883.091,-211.483 901.919,-217.255"/>
<polygon fill="#9a32cd" stroke="#9a32cd" points="739.106,-174.707 728.634,-176.317 737.824,-181.589 739.106,-174.707"/>
<text text-anchor="middle" x="801" y="-201.774" font-family="Helvetica,sans-Serif" font-size="10.00"> myNeighbors</text>
</g>
<!-- Node21 -->
<g id="node21" class="node"><title>Node21</title>
<polygon fill="white" stroke="#bfbfbf" points="27.5,-313.274 27.5,-332.274 120.5,-332.274 120.5,-313.274 27.5,-313.274"/>
<text text-anchor="middle" x="74" y="-320.274" font-family="Helvetica,sans-Serif" font-size="10.00">ResourceBundle</text>
</g>
<!-- Node21&#45;&gt;Node1 -->
<g id="edge23" class="edge"><title>Node21&#45;&gt;Node1</title>
<path fill="none" stroke="#9a32cd" stroke-dasharray="5,2" d="M130.695,-327.764C163.957,-332.524 206.174,-341.788 240,-359.774 249.716,-364.941 248.526,-371.176 258,-376.774 269.952,-383.837 284.048,-389.219 297.102,-393.202"/>
<polygon fill="#9a32cd" stroke="#9a32cd" points="131.054,-324.281 120.679,-326.427 130.128,-331.22 131.054,-324.281"/>
<text text-anchor="middle" x="203" y="-362.774" font-family="Helvetica,sans-Serif" font-size="10.00"> myProperties</text>
</g>
<!-- Node22 -->
<g id="node22" class="node"><title>Node22</title>
<polygon fill="white" stroke="#bfbfbf" points="50.5,-503.274 50.5,-522.274 97.5,-522.274 97.5,-503.274 50.5,-503.274"/>
<text text-anchor="middle" x="74" y="-510.274" font-family="Helvetica,sans-Serif" font-size="10.00">Scene</text>
</g>
<!-- Node22&#45;&gt;Node1 -->
<g id="edge24" class="edge"><title>Node22&#45;&gt;Node1</title>
<path fill="none" stroke="#9a32cd" stroke-dasharray="5,2" d="M107.423,-508.913C141.6,-503.985 196.419,-493.61 240,-473.774 275.613,-457.565 311.455,-427.705 328.597,-412.389"/>
<polygon fill="#9a32cd" stroke="#9a32cd" points="106.945,-505.445 97.5138,-510.272 107.897,-512.38 106.945,-505.445"/>
<text text-anchor="middle" x="203" y="-500.774" font-family="Helvetica,sans-Serif" font-size="10.00"> myScene</text>
</g>
<!-- Node23 -->
<g id="node23" class="node"><title>Node23</title>
<polygon fill="white" stroke="#bfbfbf" points="51,-351.274 51,-370.274 97,-370.274 97,-351.274 51,-351.274"/>
<text text-anchor="middle" x="74" y="-358.274" font-family="Helvetica,sans-Serif" font-size="10.00">Group</text>
</g>
<!-- Node23&#45;&gt;Node1 -->
<g id="edge27" class="edge"><title>Node23&#45;&gt;Node1</title>
<path fill="none" stroke="#9a32cd" stroke-dasharray="5,2" d="M107.236,-365.467C140.517,-370.357 193.932,-378.33 240,-385.774 254.547,-388.125 270.277,-390.776 284.824,-393.273"/>
<polygon fill="#9a32cd" stroke="#9a32cd" points="107.575,-361.979 97.1729,-363.992 106.56,-368.905 107.575,-361.979"/>
<text text-anchor="middle" x="203" y="-388.774" font-family="Helvetica,sans-Serif" font-size="10.00"> myGroup</text>
</g>
</g>
</svg>
        <g id="navigator" transform="translate(0 0)" fill="#404254">
                <rect fill="#f2f5e9" fill-opacity="0.5" stroke="#606060" stroke-width=".5" x="0" y="0" width="60" height="60"/>
                <use id="zoomplus" xlink:href="#zoomPlus" x="17" y="9" onmousedown="handleZoom(evt,'in')"/>
                <use id="zoomminus" xlink:href="#zoomMin" x="42" y="9" onmousedown="handleZoom(evt,'out')"/>
                <use id="reset" xlink:href="#resetDef" x="30" y="36" onmousedown="handleReset()"/>
                <g id="arrowUp" xlink:href="#dirArrow" transform="translate(30 24)" onmousedown="handlePan(0,-1)">
                  <use xlink:href="#rim" fill="#404040">
                        <set attributeName="fill" to="#808080" begin="arrowUp.mouseover" end="arrowUp.mouseout"/>
                  </use>
                  <path fill="none" stroke="white" stroke-width="1.5" d="M0,-3.0v7 M-2.5,-0.5L0,-3.0L2.5,-0.5"/>
                </g>
                <g id="arrowRight" xlink:href="#dirArrow" transform="rotate(90) translate(36 -43)" onmousedown="handlePan(1,0)">
                  <use xlink:href="#rim" fill="#404040">
                        <set attributeName="fill" to="#808080" begin="arrowRight.mouseover" end="arrowRight.mouseout"/>
                  </use>
                  <path fill="none" stroke="white" stroke-width="1.5" d="M0,-3.0v7 M-2.5,-0.5L0,-3.0L2.5,-0.5"/>
                </g>
                <g id="arrowDown" xlink:href="#dirArrow" transform="rotate(180) translate(-30 -48)" onmousedown="handlePan(0,1)">
                  <use xlink:href="#rim" fill="#404040">
                        <set attributeName="fill" to="#808080" begin="arrowDown.mouseover" end="arrowDown.mouseout"/>
                  </use>
                  <path fill="none" stroke="white" stroke-width="1.5" d="M0,-3.0v7 M-2.5,-0.5L0,-3.0L2.5,-0.5"/>
                </g>
                <g id="arrowLeft" xlink:href="#dirArrow" transform="rotate(270) translate(-36 17)" onmousedown="handlePan(-1,0)">
                  <use xlink:href="#rim" fill="#404040">
                        <set attributeName="fill" to="#808080" begin="arrowLeft.mouseover" end="arrowLeft.mouseout"/>
                  </use>
                  <path fill="none" stroke="white" stroke-width="1.5" d="M0,-3.0v7 M-2.5,-0.5L0,-3.0L2.5,-0.5"/>
                </g>
        </g>
        <svg viewBox="0 0 15 15" width="100%" height="30px" preserveAspectRatio="xMaxYMin meet">
         <g id="arrow_out" transform="scale(0.3 0.3)">
          <a xlink:href="classcontroller_1_1_cell_society_controller__coll__graph_org.svg" target="_base">
           <rect id="button" ry="5" rx="5" y="6" x="6" height="38" width="38"
                fill="#f2f5e9" fill-opacity="0.5" stroke="#606060" stroke-width="1.0"/>
           <path id="arrow"
             d="M 11.500037,31.436501 C 11.940474,20.09759 22.043105,11.32322 32.158766,21.979434 L 37.068811,17.246167 C 37.068811,17.246167 37.088388,32 37.088388,32 L 22.160133,31.978069 C 22.160133,31.978069 26.997745,27.140456 26.997745,27.140456 C 18.528582,18.264221 13.291696,25.230495 11.500037,31.436501 z"
             style="fill:#404040;"/>
          </a>
         </g>
        </svg>
</svg>
