<?xml version="1.0" encoding="UTF-8" standalone="no"?>
<!DOCTYPE svg PUBLIC "-//W3C//DTD SVG 1.1//EN"
 "http://www.w3.org/Graphics/SVG/1.1/DTD/svg11.dtd">
<!-- Generated by graphviz version 2.36.0 (20140111.2315)
 -->
<!-- Title: model.cells.LifeCellDead Pages: 1 -->
<svg width="140pt" height="140pt"
 viewBox="0.00 0.00 140.00 140.00" xmlns="http://www.w3.org/2000/svg" xmlns:xlink="http://www.w3.org/1999/xlink">
<g id="graph0" class="graph" transform="scale(1 1) rotate(0) translate(4 136)">
<title>model.cells.LifeCellDead</title>
<polygon fill="white" stroke="none" points="-4,4 -4,-136 136,-136 136,4 -4,4"/>
<!-- Node1 -->
<g id="node1" class="node"><title>Node1</title>
<polygon fill="#bfbfbf" stroke="black" points="-0.5,-0.5 -0.5,-19.5 132.5,-19.5 132.5,-0.5 -0.5,-0.5"/>
<text text-anchor="middle" x="66" y="-7.5" font-family="Helvetica,sans-Serif" font-size="10.00">model.cells.LifeCellDead</text>
</g>
<!-- Node2 -->
<g id="node2" class="node"><title>Node2</title>
<g id="a_node2"><a xlink:href="../../d0/d2c/classmodel_1_1cells_1_1_life_cell.html" target="_top" xlink:title="model.cells.LifeCell">
<polygon fill="white" stroke="black" points="12.5,-56.5 12.5,-75.5 119.5,-75.5 119.5,-56.5 12.5,-56.5"/>
<text text-anchor="middle" x="66" y="-63.5" font-family="Helvetica,sans-Serif" font-size="10.00">model.cells.LifeCell</text>
</a>
</g>
</g>
<!-- Node2&#45;&gt;Node1 -->
<g id="edge1" class="edge"><title>Node2&#45;&gt;Node1</title>
<path fill="none" stroke="midnightblue" d="M66,-45.8045C66,-36.9102 66,-26.7798 66,-19.7511"/>
<polygon fill="midnightblue" stroke="midnightblue" points="62.5001,-46.083 66,-56.083 69.5001,-46.083 62.5001,-46.083"/>
</g>
<!-- Node3 -->
<g id="node3" class="node"><title>Node3</title>
<g id="a_node3"><a xlink:href="../../dc/d41/classmodel_1_1cells_1_1_cell.html" target="_top" xlink:title="model.cells.Cell">
<polygon fill="white" stroke="black" points="20.5,-112.5 20.5,-131.5 111.5,-131.5 111.5,-112.5 20.5,-112.5"/>
<text text-anchor="middle" x="66" y="-119.5" font-family="Helvetica,sans-Serif" font-size="10.00">model.cells.Cell</text>
</a>
</g>
</g>
<!-- Node3&#45;&gt;Node2 -->
<g id="edge2" class="edge"><title>Node3&#45;&gt;Node2</title>
<path fill="none" stroke="midnightblue" d="M66,-101.805C66,-92.9102 66,-82.7798 66,-75.7511"/>
<polygon fill="midnightblue" stroke="midnightblue" points="62.5001,-102.083 66,-112.083 69.5001,-102.083 62.5001,-102.083"/>
</g>
</g>
</svg>
