<?xml version="1.0" encoding="UTF-8" standalone="no"?>
<!DOCTYPE svg PUBLIC "-//W3C//DTD SVG 1.1//EN"
 "http://www.w3.org/Graphics/SVG/1.1/DTD/svg11.dtd">
<!-- Generated by graphviz version 2.36.0 (20140111.2315)
 -->
<!-- Title: model.simulations.SimulationPredator Pages: 1 -->
<svg width="1326pt" height="626pt"
 viewBox="0.00 0.00 1326.00 626.00" xmlns="http://www.w3.org/2000/svg" xmlns:xlink="http://www.w3.org/1999/xlink">
<g id="graph0" class="graph" transform="scale(1 1) rotate(0) translate(4 622)">
<title>model.simulations.SimulationPredator</title>
<polygon fill="white" stroke="none" points="-4,4 -4,-622 1322,-622 1322,4 -4,4"/>
<!-- Node1 -->
<g id="node1" class="node"><title>Node1</title>
<polygon fill="#bfbfbf" stroke="black" points="857,-204 857,-234 1015,-234 1015,-204 857,-204"/>
<text text-anchor="start" x="865" y="-222" font-family="Helvetica,sans-Serif" font-size="10.00">model.simulations.Simulation</text>
<text text-anchor="middle" x="936" y="-211" font-family="Helvetica,sans-Serif" font-size="10.00">Predator</text>
</g>
<!-- Node2 -->
<g id="node2" class="node"><title>Node2</title>
<g id="a_node2"><a xlink:href="../../d0/d56/classmodel_1_1simulations_1_1_simulation.html" target="_top" xlink:title="model.simulations.Simulation">
<polygon fill="white" stroke="black" points="554,-199.5 554,-218.5 712,-218.5 712,-199.5 554,-199.5"/>
<text text-anchor="middle" x="633" y="-206.5" font-family="Helvetica,sans-Serif" font-size="10.00">model.simulations.Simulation</text>
</a>
</g>
</g>
<!-- Node2&#45;&gt;Node1 -->
<g id="edge1" class="edge"><title>Node2&#45;&gt;Node1</title>
<path fill="none" stroke="midnightblue" d="M722.381,-211.936C764.988,-213.352 815.65,-215.035 856.833,-216.403"/>
<polygon fill="midnightblue" stroke="midnightblue" points="722.409,-208.435 712.298,-211.601 722.177,-215.431 722.409,-208.435"/>
</g>
<!-- Node13 -->
<g id="node13" class="node"><title>Node13</title>
<g id="a_node13"><a xlink:href="../../d6/d7b/classcontroller_1_1_cell_society_controller.html" target="_top" xlink:title="controller.CellSocietyController">
<polygon fill="white" stroke="black" points="854.5,-391.5 854.5,-410.5 1017.5,-410.5 1017.5,-391.5 854.5,-391.5"/>
<text text-anchor="middle" x="936" y="-398.5" font-family="Helvetica,sans-Serif" font-size="10.00">controller.CellSocietyController</text>
</a>
</g>
</g>
<!-- Node2&#45;&gt;Node13 -->
<g id="edge18" class="edge"><title>Node2&#45;&gt;Node13</title>
<path fill="none" stroke="#9a32cd" stroke-dasharray="5,2" d="M707.686,-220.109C761.66,-228.942 827.01,-241.373 836,-251 876.11,-293.954 814.439,-338.54 854,-382 857.403,-385.739 861.39,-388.81 865.737,-391.327"/>
<polygon fill="#9a32cd" stroke="#9a32cd" points="708.187,-216.644 697.757,-218.503 707.07,-223.555 708.187,-216.644"/>
<text text-anchor="middle" x="783" y="-254" font-family="Helvetica,sans-Serif" font-size="10.00"> myCurrentSimulation</text>
</g>
<!-- Node3 -->
<g id="node3" class="node"><title>Node3</title>
<g id="a_node3"><a xlink:href="../../dc/d86/classmodel_1_1simulations_1_1_abstract_cell_factory.html" target="_top" xlink:title="model.simulations.Abstract\lCellFactory">
<polygon fill="white" stroke="black" points="299,-256 299,-286 447,-286 447,-256 299,-256"/>
<text text-anchor="start" x="307" y="-274" font-family="Helvetica,sans-Serif" font-size="10.00">model.simulations.Abstract</text>
<text text-anchor="middle" x="373" y="-263" font-family="Helvetica,sans-Serif" font-size="10.00">CellFactory</text>
</a>
</g>
</g>
<!-- Node3&#45;&gt;Node2 -->
<g id="edge2" class="edge"><title>Node3&#45;&gt;Node2</title>
<path fill="none" stroke="#9a32cd" stroke-dasharray="5,2" d="M457.164,-254.057C482.545,-248.611 510.484,-242.338 536,-236 557.339,-230.699 581.133,-224.013 599.693,-218.62"/>
<polygon fill="#9a32cd" stroke="#9a32cd" points="456.253,-250.672 447.202,-256.18 457.712,-257.518 456.253,-250.672"/>
<text text-anchor="middle" x="501" y="-255" font-family="Helvetica,sans-Serif" font-size="10.00"> myCellFactory</text>
</g>
<!-- Node4 -->
<g id="node4" class="node"><title>Node4</title>
<g id="a_node4"><a xlink:href="../../da/d6d/classmodel_1_1gridrules_1_1_grid_rules.html" target="_top" xlink:title="model.gridrules.GridRules">
<polygon fill="white" stroke="black" points="304,-217.5 304,-236.5 442,-236.5 442,-217.5 304,-217.5"/>
<text text-anchor="middle" x="373" y="-224.5" font-family="Helvetica,sans-Serif" font-size="10.00">model.gridrules.GridRules</text>
</a>
</g>
</g>
<!-- Node4&#45;&gt;Node2 -->
<g id="edge3" class="edge"><title>Node4&#45;&gt;Node2</title>
<path fill="none" stroke="#9a32cd" stroke-dasharray="5,2" d="M452.385,-221.531C484.567,-219.286 521.745,-216.692 553.898,-214.449"/>
<polygon fill="#9a32cd" stroke="#9a32cd" points="451.856,-218.06 442.124,-222.247 452.343,-225.043 451.856,-218.06"/>
<text text-anchor="middle" x="501" y="-224" font-family="Helvetica,sans-Serif" font-size="10.00"> myGridRules</text>
</g>
<!-- Node5 -->
<g id="node5" class="node"><title>Node5</title>
<g id="a_node5"><a xlink:href="../../db/d90/classmodel_1_1patches_1_1_patch.html" target="_top" xlink:title="model.patches.Patch">
<polygon fill="white" stroke="black" points="314.5,-113.5 314.5,-132.5 431.5,-132.5 431.5,-113.5 314.5,-113.5"/>
<text text-anchor="middle" x="373" y="-120.5" font-family="Helvetica,sans-Serif" font-size="10.00">model.patches.Patch</text>
</a>
</g>
</g>
<!-- Node5&#45;&gt;Node2 -->
<g id="edge4" class="edge"><title>Node5&#45;&gt;Node2</title>
<path fill="none" stroke="#9a32cd" stroke-dasharray="5,2" d="M412.151,-135.717C464.279,-153.093 556.602,-183.867 603.276,-199.425"/>
<polygon fill="#9a32cd" stroke="#9a32cd" points="413.19,-132.374 402.596,-132.532 410.976,-139.015 413.19,-132.374"/>
<text text-anchor="middle" x="501" y="-180" font-family="Helvetica,sans-Serif" font-size="10.00"> myPatchGrid</text>
</g>
<!-- Node7 -->
<g id="node7" class="node"><title>Node7</title>
<g id="a_node7"><a xlink:href="../../dc/d41/classmodel_1_1cells_1_1_cell.html" target="_top" xlink:title="model.cells.Cell">
<polygon fill="white" stroke="black" points="587.5,-62.5 587.5,-81.5 678.5,-81.5 678.5,-62.5 587.5,-62.5"/>
<text text-anchor="middle" x="633" y="-69.5" font-family="Helvetica,sans-Serif" font-size="10.00">model.cells.Cell</text>
</a>
</g>
</g>
<!-- Node5&#45;&gt;Node7 -->
<g id="edge8" class="edge"><title>Node5&#45;&gt;Node7</title>
<path fill="none" stroke="#9a32cd" stroke-dasharray="5,2" d="M403.574,-109.429C421.308,-101.882 444.519,-93.0252 466,-88 506.455,-78.5359 553.716,-74.6545 587.441,-73.0709"/>
<polygon fill="#9a32cd" stroke="#9a32cd" points="402.102,-106.253 394.331,-113.454 404.897,-112.67 402.102,-106.253"/>
<text text-anchor="middle" x="501" y="-91" font-family="Helvetica,sans-Serif" font-size="10.00"> myPatch</text>
</g>
<!-- Node6 -->
<g id="node6" class="node"><title>Node6</title>
<polygon fill="white" stroke="#bfbfbf" points="14,-61.5 14,-80.5 142,-80.5 142,-61.5 14,-61.5"/>
<text text-anchor="middle" x="78" y="-68.5" font-family="Helvetica,sans-Serif" font-size="10.00">Map&lt; String, Double &gt;</text>
</g>
<!-- Node6&#45;&gt;Node5 -->
<g id="edge5" class="edge"><title>Node6&#45;&gt;Node5</title>
<path fill="none" stroke="#9a32cd" stroke-dasharray="5,2" d="M142.601,-82.2875C195.019,-91.5904 268.544,-104.639 318.105,-113.435"/>
<polygon fill="#9a32cd" stroke="#9a32cd" points="143.198,-78.839 132.741,-80.5376 141.975,-85.7313 143.198,-78.839"/>
<text text-anchor="middle" x="227" y="-110" font-family="Helvetica,sans-Serif" font-size="10.00"> myPatchPropertyMap</text>
</g>
<!-- Node6&#45;&gt;Node7 -->
<g id="edge9" class="edge"><title>Node6&#45;&gt;Node7</title>
<path fill="none" stroke="#9a32cd" stroke-dasharray="5,2" d="M152.411,-71.1327C268.854,-71.3433 492.425,-71.7476 587.476,-71.9195"/>
<polygon fill="#9a32cd" stroke="#9a32cd" points="152.173,-67.6324 142.167,-71.1142 152.16,-74.6324 152.173,-67.6324"/>
<text text-anchor="middle" x="373" y="-75" font-family="Helvetica,sans-Serif" font-size="10.00"> myPropertyMap</text>
</g>
<!-- Node7&#45;&gt;Node5 -->
<g id="edge6" class="edge"><title>Node7&#45;&gt;Node5</title>
<path fill="none" stroke="#9a32cd" stroke-dasharray="5,2" d="M594.683,-84.7758C577.058,-90.4209 555.626,-96.7312 536,-101 501.748,-108.45 462.841,-113.832 431.742,-117.408"/>
<polygon fill="#9a32cd" stroke="#9a32cd" points="596.156,-87.977 604.578,-81.5494 593.986,-81.3219 596.156,-87.977"/>
<text text-anchor="middle" x="501" y="-116" font-family="Helvetica,sans-Serif" font-size="10.00"> myCell</text>
</g>
<!-- Node8 -->
<g id="node8" class="node"><title>Node8</title>
<polygon fill="white" stroke="#bfbfbf" points="308,-0.5 308,-19.5 438,-19.5 438,-0.5 308,-0.5"/>
<text text-anchor="middle" x="373" y="-7.5" font-family="Helvetica,sans-Serif" font-size="10.00">List&lt; model.cells.Cell &gt;</text>
</g>
<!-- Node8&#45;&gt;Node7 -->
<g id="edge7" class="edge"><title>Node8&#45;&gt;Node7</title>
<path fill="none" stroke="#9a32cd" stroke-dasharray="5,2" d="M448.338,-15.3124C476.171,-18.4253 507.855,-23.3234 536,-31 564.15,-38.6778 594.863,-52.9148 613.781,-62.424"/>
<polygon fill="#9a32cd" stroke="#9a32cd" points="448.584,-11.819 438.271,-14.2444 447.846,-18.7799 448.584,-11.819"/>
<text text-anchor="middle" x="501" y="-34" font-family="Helvetica,sans-Serif" font-size="10.00"> myNeighbors</text>
</g>
<!-- Node9 -->
<g id="node9" class="node"><title>Node9</title>
<polygon fill="white" stroke="#bfbfbf" points="0,-113.5 0,-132.5 156,-132.5 156,-113.5 0,-113.5"/>
<text text-anchor="middle" x="78" y="-120.5" font-family="Helvetica,sans-Serif" font-size="10.00">List&lt; model.patches.Patch &gt;</text>
</g>
<!-- Node9&#45;&gt;Node5 -->
<g id="edge10" class="edge"><title>Node9&#45;&gt;Node5</title>
<path fill="none" stroke="#9a32cd" stroke-dasharray="5,2" d="M166.4,-123C214.184,-123 272.046,-123 314.197,-123"/>
<polygon fill="#9a32cd" stroke="#9a32cd" points="166.366,-119.5 156.366,-123 166.366,-126.5 166.366,-119.5"/>
<text text-anchor="middle" x="227" y="-126" font-family="Helvetica,sans-Serif" font-size="10.00"> myNeighbors</text>
</g>
<!-- Node10 -->
<g id="node10" class="node"><title>Node10</title>
<g id="a_node10"><a xlink:href="../../d1/d3e/classview_1_1_simulation_screen.html" target="_top" xlink:title="view.SimulationScreen">
<polygon fill="white" stroke="black" points="1194,-387.5 1194,-406.5 1318,-406.5 1318,-387.5 1194,-387.5"/>
<text text-anchor="middle" x="1256" y="-394.5" font-family="Helvetica,sans-Serif" font-size="10.00">view.SimulationScreen</text>
</a>
</g>
</g>
<!-- Node10&#45;&gt;Node2 -->
<g id="edge11" class="edge"><title>Node10&#45;&gt;Node2</title>
<path fill="none" stroke="#9a32cd" stroke-dasharray="5,2" d="M1245.56,-378.141C1232.49,-353.398 1206.96,-309.648 1176,-280 1116.49,-223.01 1097.3,-205.399 1018,-183 892.127,-147.445 734.231,-181.466 666.881,-199.449"/>
<polygon fill="#9a32cd" stroke="#9a32cd" points="1242.54,-379.917 1250.23,-387.199 1248.76,-376.707 1242.54,-379.917"/>
<text text-anchor="middle" x="936" y="-186" font-family="Helvetica,sans-Serif" font-size="10.00"> myView</text>
</g>
<!-- Node10&#45;&gt;Node13 -->
<g id="edge21" class="edge"><title>Node10&#45;&gt;Node13</title>
<path fill="none" stroke="#9a32cd" stroke-dasharray="5,2" d="M1189.47,-407.726C1184.92,-408.233 1180.4,-408.668 1176,-409 1123.32,-412.978 1063.96,-411.025 1017.58,-408.054"/>
<polygon fill="#9a32cd" stroke="#9a32cd" points="1189.94,-411.196 1199.44,-406.514 1189.09,-404.247 1189.94,-411.196"/>
<text text-anchor="middle" x="1106" y="-414" font-family="Helvetica,sans-Serif" font-size="10.00"> myCurrentSimulationScreen</text>
</g>
<!-- Node11 -->
<g id="node11" class="node"><title>Node11</title>
<polygon fill="white" stroke="#bfbfbf" points="875.5,-580 875.5,-610 996.5,-610 996.5,-580 875.5,-580"/>
<text text-anchor="start" x="883.5" y="-598" font-family="Helvetica,sans-Serif" font-size="10.00">Map&lt; Color, ArrayList</text>
<text text-anchor="middle" x="936" y="-587" font-family="Helvetica,sans-Serif" font-size="10.00">&lt; Integer &gt; &gt;</text>
</g>
<!-- Node11&#45;&gt;Node10 -->
<g id="edge12" class="edge"><title>Node11&#45;&gt;Node10</title>
<path fill="none" stroke="#9a32cd" stroke-dasharray="5,2" d="M1006.78,-606.132C1058.2,-610.46 1127.37,-607.744 1176,-573 1234.05,-531.53 1250.19,-437.228 1253.98,-406.719"/>
<polygon fill="#9a32cd" stroke="#9a32cd" points="1007.03,-602.64 996.743,-605.18 1006.37,-609.609 1007.03,-602.64"/>
<text text-anchor="middle" x="1106" y="-610" font-family="Helvetica,sans-Serif" font-size="10.00"> myData</text>
</g>
<!-- Node12 -->
<g id="node12" class="node"><title>Node12</title>
<polygon fill="white" stroke="#bfbfbf" points="912.5,-541.5 912.5,-560.5 959.5,-560.5 959.5,-541.5 912.5,-541.5"/>
<text text-anchor="middle" x="936" y="-548.5" font-family="Helvetica,sans-Serif" font-size="10.00">Shape</text>
</g>
<!-- Node12&#45;&gt;Node10 -->
<g id="edge13" class="edge"><title>Node12&#45;&gt;Node10</title>
<path fill="none" stroke="#9a32cd" stroke-dasharray="5,2" d="M969.533,-556.128C1018.41,-562.072 1111.9,-566.437 1176,-526 1221.76,-497.137 1245.03,-431.195 1252.37,-406.537"/>
<polygon fill="#9a32cd" stroke="#9a32cd" points="969.894,-552.645 959.523,-554.811 968.981,-559.586 969.894,-552.645"/>
<text text-anchor="middle" x="1106" y="-562" font-family="Helvetica,sans-Serif" font-size="10.00"> myColorGrid</text>
</g>
<!-- Node13&#45;&gt;Node10 -->
<g id="edge14" class="edge"><title>Node13&#45;&gt;Node10</title>
<path fill="none" stroke="#9a32cd" stroke-dasharray="5,2" d="M1027.71,-398.159C1030.5,-398.101 1033.27,-398.048 1036,-398 1089.22,-397.072 1149.73,-396.86 1193.64,-396.858"/>
<polygon fill="#9a32cd" stroke="#9a32cd" points="1027.42,-394.664 1017.5,-398.387 1027.58,-401.662 1027.42,-394.664"/>
<text text-anchor="middle" x="1106" y="-401" font-family="Helvetica,sans-Serif" font-size="10.00"> myController</text>
</g>
<!-- Node14 -->
<g id="node14" class="node"><title>Node14</title>
<polygon fill="white" stroke="#bfbfbf" points="605,-374.5 605,-393.5 661,-393.5 661,-374.5 605,-374.5"/>
<text text-anchor="middle" x="633" y="-381.5" font-family="Helvetica,sans-Serif" font-size="10.00">Timeline</text>
</g>
<!-- Node14&#45;&gt;Node13 -->
<g id="edge15" class="edge"><title>Node14&#45;&gt;Node13</title>
<path fill="none" stroke="#9a32cd" stroke-dasharray="5,2" d="M671.412,-382.453C712.018,-381.178 778.731,-380.259 836,-385 852.223,-386.343 869.802,-388.839 885.582,-391.467"/>
<polygon fill="#9a32cd" stroke="#9a32cd" points="671.053,-378.963 661.177,-382.8 671.29,-385.959 671.053,-378.963"/>
<text text-anchor="middle" x="783" y="-388" font-family="Helvetica,sans-Serif" font-size="10.00"> myTimeline</text>
</g>
<!-- Node15 -->
<g id="node15" class="node"><title>Node15</title>
<polygon fill="white" stroke="#bfbfbf" points="559.5,-336.5 559.5,-355.5 706.5,-355.5 706.5,-336.5 559.5,-336.5"/>
<text text-anchor="middle" x="633" y="-343.5" font-family="Helvetica,sans-Serif" font-size="10.00">HashMap&lt; String, String &gt;</text>
</g>
<!-- Node15&#45;&gt;Node13 -->
<g id="edge16" class="edge"><title>Node15&#45;&gt;Node13</title>
<path fill="none" stroke="#9a32cd" stroke-dasharray="5,2" d="M717.28,-342.753C754.916,-344.134 799.115,-349.851 836,-366 845.805,-370.293 844.499,-377.071 854,-382 861.437,-385.858 869.661,-388.943 877.935,-391.407"/>
<polygon fill="#9a32cd" stroke="#9a32cd" points="716.94,-339.242 706.85,-342.473 716.752,-346.24 716.94,-339.242"/>
<text text-anchor="middle" x="783" y="-369" font-family="Helvetica,sans-Serif" font-size="10.00"> myParameters</text>
</g>
<!-- Node16 -->
<g id="node16" class="node"><title>Node16</title>
<polygon fill="white" stroke="#bfbfbf" points="610.5,-298.5 610.5,-317.5 655.5,-317.5 655.5,-298.5 610.5,-298.5"/>
<text text-anchor="middle" x="633" y="-305.5" font-family="Helvetica,sans-Serif" font-size="10.00">Stage</text>
</g>
<!-- Node16&#45;&gt;Node13 -->
<g id="edge17" class="edge"><title>Node16&#45;&gt;Node13</title>
<path fill="none" stroke="#9a32cd" stroke-dasharray="5,2" d="M665.625,-301.687C708.998,-294.958 787.116,-289.993 836,-329 855.445,-344.516 835.577,-365.283 854,-382 858.172,-385.786 862.952,-388.859 868.059,-391.348"/>
<polygon fill="#9a32cd" stroke="#9a32cd" points="664.923,-298.256 655.641,-303.364 666.083,-305.16 664.923,-298.256"/>
<text text-anchor="middle" x="783" y="-332" font-family="Helvetica,sans-Serif" font-size="10.00"> myStage</text>
</g>
<!-- Node17 -->
<g id="node17" class="node"><title>Node17</title>
<polygon fill="white" stroke="#bfbfbf" points="586.5,-260.5 586.5,-279.5 679.5,-279.5 679.5,-260.5 586.5,-260.5"/>
<text text-anchor="middle" x="633" y="-267.5" font-family="Helvetica,sans-Serif" font-size="10.00">ResourceBundle</text>
</g>
<!-- Node17&#45;&gt;Node13 -->
<g id="edge19" class="edge"><title>Node17&#45;&gt;Node13</title>
<path fill="none" stroke="#9a32cd" stroke-dasharray="5,2" d="M689.671,-266.198C741.923,-263.902 815.088,-264.375 836,-283 869.397,-312.743 823.186,-349.588 854,-382 857.583,-385.769 861.76,-388.853 866.293,-391.371"/>
<polygon fill="#9a32cd" stroke="#9a32cd" points="689.34,-262.71 679.521,-266.69 689.679,-269.702 689.34,-262.71"/>
<text text-anchor="middle" x="783" y="-286" font-family="Helvetica,sans-Serif" font-size="10.00"> myProperties</text>
</g>
<!-- Node18 -->
<g id="node18" class="node"><title>Node18</title>
<polygon fill="white" stroke="#bfbfbf" points="609.5,-450.5 609.5,-469.5 656.5,-469.5 656.5,-450.5 609.5,-450.5"/>
<text text-anchor="middle" x="633" y="-457.5" font-family="Helvetica,sans-Serif" font-size="10.00">Scene</text>
</g>
<!-- Node18&#45;&gt;Node13 -->
<g id="edge20" class="edge"><title>Node18&#45;&gt;Node13</title>
<path fill="none" stroke="#9a32cd" stroke-dasharray="5,2" d="M666.617,-456.555C706.76,-451.995 776.874,-442.986 836,-430 859.965,-424.737 886.633,-416.801 906.247,-410.561"/>
<polygon fill="#9a32cd" stroke="#9a32cd" points="666.154,-453.085 656.603,-457.671 666.929,-460.042 666.154,-453.085"/>
<text text-anchor="middle" x="783" y="-451" font-family="Helvetica,sans-Serif" font-size="10.00"> myScene</text>
</g>
<!-- Node19 -->
<g id="node19" class="node"><title>Node19</title>
<polygon fill="white" stroke="#bfbfbf" points="572,-495.5 572,-514.5 694,-514.5 694,-495.5 572,-495.5"/>
<text text-anchor="middle" x="633" y="-502.5" font-family="Helvetica,sans-Serif" font-size="10.00">Map&lt; String, String &gt;</text>
</g>
<!-- Node19&#45;&gt;Node10 -->
<g id="edge25" class="edge"><title>Node19&#45;&gt;Node10</title>
<path fill="none" stroke="#9a32cd" stroke-dasharray="5,2" d="M704.493,-505.557C743.403,-505.112 792.516,-503.317 836,-498 989.32,-479.254 1027.56,-468.723 1176,-426 1195.09,-420.504 1216.2,-412.663 1231.79,-406.52"/>
<polygon fill="#9a32cd" stroke="#9a32cd" points="704.287,-502.059 694.318,-505.645 704.348,-509.058 704.287,-502.059"/>
<text text-anchor="middle" x="936" y="-498" font-family="Helvetica,sans-Serif" font-size="10.00"> myStyles</text>
</g>
<!-- Node19&#45;&gt;Node13 -->
<g id="edge22" class="edge"><title>Node19&#45;&gt;Node13</title>
<path fill="none" stroke="#9a32cd" stroke-dasharray="5,2" d="M694.697,-493.505C749.297,-482.981 822.899,-468.267 836,-463 869.869,-449.384 905.054,-424.263 922.96,-410.548"/>
<polygon fill="#9a32cd" stroke="#9a32cd" points="693.902,-490.094 684.742,-495.418 695.223,-496.968 693.902,-490.094"/>
<text text-anchor="middle" x="783" y="-489" font-family="Helvetica,sans-Serif" font-size="10.00"> myStyles</text>
</g>
<!-- Node20 -->
<g id="node20" class="node"><title>Node20</title>
<polygon fill="white" stroke="#bfbfbf" points="610,-412.5 610,-431.5 656,-431.5 656,-412.5 610,-412.5"/>
<text text-anchor="middle" x="633" y="-419.5" font-family="Helvetica,sans-Serif" font-size="10.00">Group</text>
</g>
<!-- Node20&#45;&gt;Node13 -->
<g id="edge23" class="edge"><title>Node20&#45;&gt;Node13</title>
<path fill="none" stroke="#9a32cd" stroke-dasharray="5,2" d="M666.372,-419.741C710.965,-416.63 792.765,-410.923 854.428,-406.621"/>
<polygon fill="#9a32cd" stroke="#9a32cd" points="665.865,-416.268 656.133,-420.456 666.353,-423.251 665.865,-416.268"/>
<text text-anchor="middle" x="783" y="-418" font-family="Helvetica,sans-Serif" font-size="10.00"> myGroup</text>
</g>
<!-- Node21 -->
<g id="node21" class="node"><title>Node21</title>
<polygon fill="white" stroke="#bfbfbf" points="879.5,-353.5 879.5,-372.5 992.5,-372.5 992.5,-353.5 879.5,-353.5"/>
<text text-anchor="middle" x="936" y="-360.5" font-family="Helvetica,sans-Serif" font-size="10.00">ArrayList&lt; Button &gt;</text>
</g>
<!-- Node21&#45;&gt;Node10 -->
<g id="edge24" class="edge"><title>Node21&#45;&gt;Node10</title>
<path fill="none" stroke="#9a32cd" stroke-dasharray="5,2" d="M1003.03,-365.757C1051.15,-368.305 1117.82,-372.95 1176,-381 1188.06,-382.669 1201.05,-385.051 1212.94,-387.469"/>
<polygon fill="#9a32cd" stroke="#9a32cd" points="1002.91,-362.247 992.745,-365.23 1002.55,-369.238 1002.91,-362.247"/>
<text text-anchor="middle" x="1106" y="-384" font-family="Helvetica,sans-Serif" font-size="10.00"> myButtons</text>
</g>
<!-- Node22 -->
<g id="node22" class="node"><title>Node22</title>
<polygon fill="white" stroke="#bfbfbf" points="915,-315.5 915,-334.5 957,-334.5 957,-315.5 915,-315.5"/>
<text text-anchor="middle" x="936" y="-322.5" font-family="Helvetica,sans-Serif" font-size="10.00">HBox</text>
</g>
<!-- Node22&#45;&gt;Node10 -->
<g id="edge26" class="edge"><title>Node22&#45;&gt;Node10</title>
<path fill="none" stroke="#9a32cd" stroke-dasharray="5,2" d="M967.292,-324.809C1013.46,-325.342 1103.68,-329.642 1176,-353 1200.8,-361.009 1226.65,-377.132 1241.77,-387.479"/>
<polygon fill="#9a32cd" stroke="#9a32cd" points="967.093,-321.308 957.071,-324.746 967.049,-328.308 967.093,-321.308"/>
<text text-anchor="middle" x="1106" y="-356" font-family="Helvetica,sans-Serif" font-size="10.00"> myTop</text>
</g>
<!-- Node23 -->
<g id="node23" class="node"><title>Node23</title>
<polygon fill="white" stroke="#bfbfbf" points="900,-277.5 900,-296.5 972,-296.5 972,-277.5 900,-277.5"/>
<text text-anchor="middle" x="936" y="-284.5" font-family="Helvetica,sans-Serif" font-size="10.00">BorderPane</text>
</g>
<!-- Node23&#45;&gt;Node10 -->
<g id="edge27" class="edge"><title>Node23&#45;&gt;Node10</title>
<path fill="none" stroke="#9a32cd" stroke-dasharray="5,2" d="M982.517,-283.194C1032.61,-280.974 1114.21,-283.287 1176,-314 1210.38,-331.089 1237.82,-369.586 1249.25,-387.499"/>
<polygon fill="#9a32cd" stroke="#9a32cd" points="982.128,-279.71 972.324,-283.728 982.494,-286.7 982.128,-279.71"/>
<text text-anchor="middle" x="1106" y="-317" font-family="Helvetica,sans-Serif" font-size="10.00"> root</text>
</g>
<!-- Node24 -->
<g id="node24" class="node"><title>Node24</title>
<g id="a_node24"><a xlink:href="../../dc/de1/classmodel_1_1neighbors_1_1_neighbors.html" target="_top" xlink:title="model.neighbors.Neighbors">
<polygon fill="white" stroke="black" points="298.5,-179.5 298.5,-198.5 447.5,-198.5 447.5,-179.5 298.5,-179.5"/>
<text text-anchor="middle" x="373" y="-186.5" font-family="Helvetica,sans-Serif" font-size="10.00">model.neighbors.Neighbors</text>
</a>
</g>
</g>
<!-- Node24&#45;&gt;Node2 -->
<g id="edge28" class="edge"><title>Node24&#45;&gt;Node2</title>
<path fill="none" stroke="#9a32cd" stroke-dasharray="5,2" d="M458.019,-195.076C483.108,-196.93 510.672,-199.007 536,-201 541.836,-201.459 547.87,-201.942 553.939,-202.435"/>
<polygon fill="#9a32cd" stroke="#9a32cd" points="458.032,-191.567 447.802,-194.323 457.518,-198.549 458.032,-191.567"/>
<text text-anchor="middle" x="501" y="-204" font-family="Helvetica,sans-Serif" font-size="10.00"> myNeighbors</text>
</g>
</g>
</svg>
