<?xml version="1.0" encoding="UTF-8" standalone="no"?>
<!DOCTYPE svg PUBLIC "-//W3C//DTD SVG 1.1//EN"
 "http://www.w3.org/Graphics/SVG/1.1/DTD/svg11.dtd">
<!-- Generated by graphviz version 2.36.0 (20140111.2315)
 -->
<!-- Title: model.simulations.Simulation Pages: 1 -->
<svg width="378pt" height="312pt"
 viewBox="0.00 0.00 378.00 312.00" xmlns="http://www.w3.org/2000/svg" xmlns:xlink="http://www.w3.org/1999/xlink">
<g id="graph0" class="graph" transform="scale(1 1) rotate(0) translate(4 308)">
<title>model.simulations.Simulation</title>
<polygon fill="white" stroke="none" points="-4,4 -4,-308 374,-308 374,4 -4,4"/>
<!-- Node1 -->
<g id="node1" class="node"><title>Node1</title>
<polygon fill="#bfbfbf" stroke="black" points="0,-152.5 0,-171.5 158,-171.5 158,-152.5 0,-152.5"/>
<text text-anchor="middle" x="79" y="-159.5" font-family="Helvetica,sans-Serif" font-size="10.00">model.simulations.Simulation</text>
</g>
<!-- Node2 -->
<g id="node2" class="node"><title>Node2</title>
<g id="a_node2"><a xlink:href="../../dd/d46/classmodel_1_1simulations_1_1_simulation_fire.html" target="_top" xlink:title="model.simulations.SimulationFire">
<polygon fill="white" stroke="black" points="194.5,-284.5 194.5,-303.5 369.5,-303.5 369.5,-284.5 194.5,-284.5"/>
<text text-anchor="middle" x="282" y="-291.5" font-family="Helvetica,sans-Serif" font-size="10.00">model.simulations.SimulationFire</text>
</a>
</g>
</g>
<!-- Node1&#45;&gt;Node2 -->
<g id="edge1" class="edge"><title>Node1&#45;&gt;Node2</title>
<path fill="none" stroke="midnightblue" d="M92.9103,-179.819C112.057,-204.878 150.442,-250.133 194,-274 201.883,-278.319 210.66,-281.708 219.521,-284.366"/>
<polygon fill="midnightblue" stroke="midnightblue" points="95.5418,-177.493 86.7526,-171.577 89.9341,-181.683 95.5418,-177.493"/>
</g>
<!-- Node3 -->
<g id="node3" class="node"><title>Node3</title>
<g id="a_node3"><a xlink:href="../../dc/d59/classmodel_1_1simulations_1_1_simulation_foraging_ants.html" target="_top" xlink:title="model.simulations.Simulation\lForagingAnts">
<polygon fill="white" stroke="black" points="203,-235 203,-265 361,-265 361,-235 203,-235"/>
<text text-anchor="start" x="211" y="-253" font-family="Helvetica,sans-Serif" font-size="10.00">model.simulations.Simulation</text>
<text text-anchor="middle" x="282" y="-242" font-family="Helvetica,sans-Serif" font-size="10.00">ForagingAnts</text>
</a>
</g>
</g>
<!-- Node1&#45;&gt;Node3 -->
<g id="edge2" class="edge"><title>Node1&#45;&gt;Node3</title>
<path fill="none" stroke="midnightblue" d="M103.482,-177.036C126.001,-190.952 161.311,-211.474 194,-225 202.858,-228.665 212.434,-232.003 221.884,-234.962"/>
<polygon fill="midnightblue" stroke="midnightblue" points="105.277,-174.03 94.9421,-171.696 101.565,-179.965 105.277,-174.03"/>
</g>
<!-- Node4 -->
<g id="node4" class="node"><title>Node4</title>
<g id="a_node4"><a xlink:href="../../d7/d85/classmodel_1_1simulations_1_1_simulation_life.html" target="_top" xlink:title="model.simulations.SimulationLife">
<polygon fill="white" stroke="black" points="194.5,-196.5 194.5,-215.5 369.5,-215.5 369.5,-196.5 194.5,-196.5"/>
<text text-anchor="middle" x="282" y="-203.5" font-family="Helvetica,sans-Serif" font-size="10.00">model.simulations.SimulationLife</text>
</a>
</g>
</g>
<!-- Node1&#45;&gt;Node4 -->
<g id="edge3" class="edge"><title>Node1&#45;&gt;Node4</title>
<path fill="none" stroke="midnightblue" d="M133.411,-173.692C165.926,-180.81 206.937,-189.787 237.471,-196.471"/>
<polygon fill="midnightblue" stroke="midnightblue" points="134.131,-170.267 123.614,-171.547 132.634,-177.105 134.131,-170.267"/>
</g>
<!-- Node5 -->
<g id="node5" class="node"><title>Node5</title>
<g id="a_node5"><a xlink:href="../../d9/d70/classmodel_1_1simulations_1_1_simulation_predator.html" target="_top" xlink:title="model.simulations.Simulation\lPredator">
<polygon fill="white" stroke="black" points="203,-147 203,-177 361,-177 361,-147 203,-147"/>
<text text-anchor="start" x="211" y="-165" font-family="Helvetica,sans-Serif" font-size="10.00">model.simulations.Simulation</text>
<text text-anchor="middle" x="282" y="-154" font-family="Helvetica,sans-Serif" font-size="10.00">Predator</text>
</a>
</g>
</g>
<!-- Node1&#45;&gt;Node5 -->
<g id="edge4" class="edge"><title>Node1&#45;&gt;Node5</title>
<path fill="none" stroke="midnightblue" d="M168.339,-162C179.857,-162 191.592,-162 202.926,-162"/>
<polygon fill="midnightblue" stroke="midnightblue" points="168.287,-158.5 158.287,-162 168.287,-165.5 168.287,-158.5"/>
</g>
<!-- Node6 -->
<g id="node6" class="node"><title>Node6</title>
<g id="a_node6"><a xlink:href="../../da/d76/classmodel_1_1simulations_1_1_simulation_segregation.html" target="_top" xlink:title="model.simulations.Simulation\lSegregation">
<polygon fill="white" stroke="black" points="203,-98 203,-128 361,-128 361,-98 203,-98"/>
<text text-anchor="start" x="211" y="-116" font-family="Helvetica,sans-Serif" font-size="10.00">model.simulations.Simulation</text>
<text text-anchor="middle" x="282" y="-105" font-family="Helvetica,sans-Serif" font-size="10.00">Segregation</text>
</a>
</g>
</g>
<!-- Node1&#45;&gt;Node6 -->
<g id="edge5" class="edge"><title>Node1&#45;&gt;Node6</title>
<path fill="none" stroke="midnightblue" d="M129.283,-149.986C156.442,-143.365 190.411,-135.084 219.318,-128.037"/>
<polygon fill="midnightblue" stroke="midnightblue" points="128.118,-146.667 119.232,-152.436 129.776,-153.468 128.118,-146.667"/>
</g>
<!-- Node7 -->
<g id="node7" class="node"><title>Node7</title>
<g id="a_node7"><a xlink:href="../../dd/d70/classmodel_1_1simulations_1_1_simulation_slime_mold.html" target="_top" xlink:title="model.simulations.Simulation\lSlimeMold">
<polygon fill="white" stroke="black" points="203,-49 203,-79 361,-79 361,-49 203,-49"/>
<text text-anchor="start" x="211" y="-67" font-family="Helvetica,sans-Serif" font-size="10.00">model.simulations.Simulation</text>
<text text-anchor="middle" x="282" y="-56" font-family="Helvetica,sans-Serif" font-size="10.00">SlimeMold</text>
</a>
</g>
</g>
<!-- Node1&#45;&gt;Node7 -->
<g id="edge6" class="edge"><title>Node1&#45;&gt;Node7</title>
<path fill="none" stroke="midnightblue" d="M100.548,-146.226C122.604,-129.939 159.181,-104.745 194,-89 202.162,-85.3091 211.003,-82.0223 219.815,-79.1428"/>
<polygon fill="midnightblue" stroke="midnightblue" points="98.2064,-143.607 92.3008,-152.403 102.403,-149.21 98.2064,-143.607"/>
</g>
<!-- Node8 -->
<g id="node8" class="node"><title>Node8</title>
<g id="a_node8"><a xlink:href="../../d7/dc8/classmodel_1_1simulations_1_1_simulation_sugarscape.html" target="_top" xlink:title="model.simulations.Simulation\lSugarscape">
<polygon fill="white" stroke="black" points="203,-0 203,-30 361,-30 361,-0 203,-0"/>
<text text-anchor="start" x="211" y="-18" font-family="Helvetica,sans-Serif" font-size="10.00">model.simulations.Simulation</text>
<text text-anchor="middle" x="282" y="-7" font-family="Helvetica,sans-Serif" font-size="10.00">Sugarscape</text>
</a>
</g>
</g>
<!-- Node1&#45;&gt;Node8 -->
<g id="edge7" class="edge"><title>Node1&#45;&gt;Node8</title>
<path fill="none" stroke="midnightblue" d="M91.9177,-144.039C110.545,-117.368 149.111,-67.494 194,-40 200.299,-36.1421 207.217,-32.8582 214.315,-30.0674"/>
<polygon fill="midnightblue" stroke="midnightblue" points="88.9357,-142.199 86.1829,-152.43 94.715,-146.149 88.9357,-142.199"/>
</g>
</g>
</svg>
