<?xml version="1.0" encoding="UTF-8" standalone="no"?>
<!DOCTYPE svg PUBLIC "-//W3C//DTD SVG 1.1//EN"
 "http://www.w3.org/Graphics/SVG/1.1/DTD/svg11.dtd">
<!-- Generated by graphviz version 2.36.0 (20140111.2315)
 -->
<!-- Title: controller.ProbabilitySimGenerator.generateCellValue Pages: 1 -->
<svg width="554pt" height="38pt"
 viewBox="0.00 0.00 554.00 38.00" xmlns="http://www.w3.org/2000/svg" xmlns:xlink="http://www.w3.org/1999/xlink">
<g id="graph0" class="graph" transform="scale(1 1) rotate(0) translate(4 34)">
<title>controller.ProbabilitySimGenerator.generateCellValue</title>
<polygon fill="white" stroke="none" points="-4,4 -4,-34 550,-34 550,4 -4,4"/>
<!-- Node1 -->
<g id="node1" class="node"><title>Node1</title>
<polygon fill="#bfbfbf" stroke="black" points="0.5,-0 0.5,-30 155.5,-30 155.5,-0 0.5,-0"/>
<text text-anchor="start" x="8.5" y="-18" font-family="Helvetica,sans-Serif" font-size="10.00">controller.ProbabilitySim</text>
<text text-anchor="middle" x="78" y="-7" font-family="Helvetica,sans-Serif" font-size="10.00">Generator.generateCellValue</text>
</g>
<!-- Node2 -->
<g id="node2" class="node"><title>Node2</title>
<g id="a_node2"><a xlink:href="../../d3/dc8/classcontroller_1_1_probability_sim_generator.html#aa9e3339d87635ad9cd22b4547c6df005" target="_top" xlink:title="controller.ProbabilitySim\lGenerator.createGrid">
<polygon fill="white" stroke="black" points="192,-0 192,-30 324,-30 324,-0 192,-0"/>
<text text-anchor="start" x="200" y="-18" font-family="Helvetica,sans-Serif" font-size="10.00">controller.ProbabilitySim</text>
<text text-anchor="middle" x="258" y="-7" font-family="Helvetica,sans-Serif" font-size="10.00">Generator.createGrid</text>
</a>
</g>
</g>
<!-- Node1&#45;&gt;Node2 -->
<g id="edge1" class="edge"><title>Node1&#45;&gt;Node2</title>
<path fill="none" stroke="midnightblue" d="M165.751,-15C174.495,-15 183.267,-15 191.73,-15"/>
<polygon fill="midnightblue" stroke="midnightblue" points="165.521,-11.5001 155.521,-15 165.521,-18.5001 165.521,-11.5001"/>
</g>
<!-- Node3 -->
<g id="node3" class="node"><title>Node3</title>
<g id="a_node3"><a xlink:href="../../d3/dc8/classcontroller_1_1_probability_sim_generator.html#ab2fdd2eba0de338310c3a224046c28b1" target="_top" xlink:title="controller.ProbabilitySim\lGenerator.ProbabilitySimGenerator">
<polygon fill="white" stroke="black" points="360.5,-0 360.5,-30 545.5,-30 545.5,-0 360.5,-0"/>
<text text-anchor="start" x="368.5" y="-18" font-family="Helvetica,sans-Serif" font-size="10.00">controller.ProbabilitySim</text>
<text text-anchor="middle" x="453" y="-7" font-family="Helvetica,sans-Serif" font-size="10.00">Generator.ProbabilitySimGenerator</text>
</a>
</g>
</g>
<!-- Node2&#45;&gt;Node3 -->
<g id="edge2" class="edge"><title>Node2&#45;&gt;Node3</title>
<path fill="none" stroke="midnightblue" d="M334.098,-15C342.749,-15 351.642,-15 360.478,-15"/>
<polygon fill="midnightblue" stroke="midnightblue" points="334.072,-11.5001 324.072,-15 334.072,-18.5001 334.072,-11.5001"/>
</g>
</g>
</svg>
