<?xml version="1.0" encoding="UTF-8" standalone="no"?>
<!DOCTYPE svg PUBLIC "-//W3C//DTD SVG 1.1//EN"
 "http://www.w3.org/Graphics/SVG/1.1/DTD/svg11.dtd">
<!-- Generated by graphviz version 2.36.0 (20140111.2315)
 -->
<!-- Title: controller.ProbabilitySimGenerator.ProbabilitySimGenerator Pages: 1 -->
<svg width="554pt" height="38pt"
 viewBox="0.00 0.00 554.00 38.00" xmlns="http://www.w3.org/2000/svg" xmlns:xlink="http://www.w3.org/1999/xlink">
<g id="graph0" class="graph" transform="scale(1 1) rotate(0) translate(4 34)">
<title>controller.ProbabilitySimGenerator.ProbabilitySimGenerator</title>
<polygon fill="white" stroke="none" points="-4,4 -4,-34 550,-34 550,4 -4,4"/>
<!-- Node1 -->
<g id="node1" class="node"><title>Node1</title>
<polygon fill="#bfbfbf" stroke="black" points="0.5,-0 0.5,-30 185.5,-30 185.5,-0 0.5,-0"/>
<text text-anchor="start" x="8.5" y="-18" font-family="Helvetica,sans-Serif" font-size="10.00">controller.ProbabilitySim</text>
<text text-anchor="middle" x="93" y="-7" font-family="Helvetica,sans-Serif" font-size="10.00">Generator.ProbabilitySimGenerator</text>
</g>
<!-- Node2 -->
<g id="node2" class="node"><title>Node2</title>
<g id="a_node2"><a xlink:href="../../d3/dc8/classcontroller_1_1_probability_sim_generator.html#aa9e3339d87635ad9cd22b4547c6df005" target="_top" xlink:title="controller.ProbabilitySim\lGenerator.createGrid">
<polygon fill="white" stroke="black" points="222,-0 222,-30 354,-30 354,-0 222,-0"/>
<text text-anchor="start" x="230" y="-18" font-family="Helvetica,sans-Serif" font-size="10.00">controller.ProbabilitySim</text>
<text text-anchor="middle" x="288" y="-7" font-family="Helvetica,sans-Serif" font-size="10.00">Generator.createGrid</text>
</a>
</g>
</g>
<!-- Node1&#45;&gt;Node2 -->
<g id="edge1" class="edge"><title>Node1&#45;&gt;Node2</title>
<path fill="none" stroke="midnightblue" d="M185.696,-15C194.408,-15 203.173,-15 211.705,-15"/>
<polygon fill="midnightblue" stroke="midnightblue" points="211.977,-18.5001 221.977,-15 211.977,-11.5001 211.977,-18.5001"/>
</g>
<!-- Node3 -->
<g id="node3" class="node"><title>Node3</title>
<g id="a_node3"><a xlink:href="../../d3/dc8/classcontroller_1_1_probability_sim_generator.html#a076c4c5e4daec4c7f41fb852b455e65e" target="_top" xlink:title="controller.ProbabilitySim\lGenerator.generateCellValue">
<polygon fill="white" stroke="black" points="390.5,-0 390.5,-30 545.5,-30 545.5,-0 390.5,-0"/>
<text text-anchor="start" x="398.5" y="-18" font-family="Helvetica,sans-Serif" font-size="10.00">controller.ProbabilitySim</text>
<text text-anchor="middle" x="468" y="-7" font-family="Helvetica,sans-Serif" font-size="10.00">Generator.generateCellValue</text>
</a>
</g>
</g>
<!-- Node2&#45;&gt;Node3 -->
<g id="edge2" class="edge"><title>Node2&#45;&gt;Node3</title>
<path fill="none" stroke="midnightblue" d="M354.018,-15C362.512,-15 371.321,-15 380.103,-15"/>
<polygon fill="midnightblue" stroke="midnightblue" points="380.38,-18.5001 390.38,-15 380.379,-11.5001 380.38,-18.5001"/>
</g>
</g>
</svg>
