<?xml version="1.0" encoding="UTF-8" standalone="no"?>
<!DOCTYPE svg PUBLIC "-//W3C//DTD SVG 1.1//EN"
 "http://www.w3.org/Graphics/SVG/1.1/DTD/svg11.dtd">
<!-- Generated by graphviz version 2.36.0 (20140111.2315)
 -->
<!-- Title: model.cells.LifeCell Pages: 1 -->
<svg width="289pt" height="140pt"
 viewBox="0.00 0.00 289.00 140.00" xmlns="http://www.w3.org/2000/svg" xmlns:xlink="http://www.w3.org/1999/xlink">
<g id="graph0" class="graph" transform="scale(1 1) rotate(0) translate(4 136)">
<title>model.cells.LifeCell</title>
<polygon fill="white" stroke="none" points="-4,4 -4,-136 285,-136 285,4 -4,4"/>
<!-- Node1 -->
<g id="node1" class="node"><title>Node1</title>
<polygon fill="#bfbfbf" stroke="black" points="86.5,-56.5 86.5,-75.5 193.5,-75.5 193.5,-56.5 86.5,-56.5"/>
<text text-anchor="middle" x="140" y="-63.5" font-family="Helvetica,sans-Serif" font-size="10.00">model.cells.LifeCell</text>
</g>
<!-- Node3 -->
<g id="node3" class="node"><title>Node3</title>
<g id="a_node3"><a xlink:href="../../d2/dee/classmodel_1_1cells_1_1_life_cell_alive.html" target="_top" xlink:title="model.cells.LifeCellAlive">
<polygon fill="white" stroke="black" points="0,-0.5 0,-19.5 130,-19.5 130,-0.5 0,-0.5"/>
<text text-anchor="middle" x="65" y="-7.5" font-family="Helvetica,sans-Serif" font-size="10.00">model.cells.LifeCellAlive</text>
</a>
</g>
</g>
<!-- Node1&#45;&gt;Node3 -->
<g id="edge2" class="edge"><title>Node1&#45;&gt;Node3</title>
<path fill="none" stroke="midnightblue" d="M119.695,-50.3804C106.139,-40.6204 88.7579,-28.1057 77.2693,-19.8339"/>
<polygon fill="midnightblue" stroke="midnightblue" points="117.79,-53.3213 127.95,-56.324 121.88,-47.6405 117.79,-53.3213"/>
</g>
<!-- Node4 -->
<g id="node4" class="node"><title>Node4</title>
<g id="a_node4"><a xlink:href="../../df/d3a/classmodel_1_1cells_1_1_life_cell_dead.html" target="_top" xlink:title="model.cells.LifeCellDead">
<polygon fill="white" stroke="black" points="148.5,-0.5 148.5,-19.5 281.5,-19.5 281.5,-0.5 148.5,-0.5"/>
<text text-anchor="middle" x="215" y="-7.5" font-family="Helvetica,sans-Serif" font-size="10.00">model.cells.LifeCellDead</text>
</a>
</g>
</g>
<!-- Node1&#45;&gt;Node4 -->
<g id="edge3" class="edge"><title>Node1&#45;&gt;Node4</title>
<path fill="none" stroke="midnightblue" d="M160.305,-50.3804C173.861,-40.6204 191.242,-28.1057 202.731,-19.8339"/>
<polygon fill="midnightblue" stroke="midnightblue" points="158.12,-47.6405 152.05,-56.324 162.21,-53.3213 158.12,-47.6405"/>
</g>
<!-- Node2 -->
<g id="node2" class="node"><title>Node2</title>
<g id="a_node2"><a xlink:href="../../dc/d41/classmodel_1_1cells_1_1_cell.html" target="_top" xlink:title="model.cells.Cell">
<polygon fill="white" stroke="black" points="94.5,-112.5 94.5,-131.5 185.5,-131.5 185.5,-112.5 94.5,-112.5"/>
<text text-anchor="middle" x="140" y="-119.5" font-family="Helvetica,sans-Serif" font-size="10.00">model.cells.Cell</text>
</a>
</g>
</g>
<!-- Node2&#45;&gt;Node1 -->
<g id="edge1" class="edge"><title>Node2&#45;&gt;Node1</title>
<path fill="none" stroke="midnightblue" d="M140,-101.805C140,-92.9102 140,-82.7798 140,-75.7511"/>
<polygon fill="midnightblue" stroke="midnightblue" points="136.5,-102.083 140,-112.083 143.5,-102.083 136.5,-102.083"/>
</g>
</g>
</svg>
