<?xml version="1.0" encoding="UTF-8" standalone="no"?>
<!DOCTYPE svg PUBLIC "-//W3C//DTD SVG 1.1//EN"
 "http://www.w3.org/Graphics/SVG/1.1/DTD/svg11.dtd">
<!-- Generated by graphviz version 2.36.0 (20140111.2315)
 -->
<!-- Title: model.gridrules.GridRules.handleEdges Pages: 1 -->
<svg width="848pt" height="329pt"
 viewBox="0.00 0.00 848.00 329.00" xmlns="http://www.w3.org/2000/svg" xmlns:xlink="http://www.w3.org/1999/xlink">
<g id="graph0" class="graph" transform="scale(1 1) rotate(0) translate(4 325)">
<title>model.gridrules.GridRules.handleEdges</title>
<polygon fill="white" stroke="none" points="-4,4 -4,-325 844,-325 844,4 -4,4"/>
<!-- Node1 -->
<g id="node1" class="node"><title>Node1</title>
<polygon fill="#bfbfbf" stroke="black" points="0.5,-139 0.5,-169 173.5,-169 173.5,-139 0.5,-139"/>
<text text-anchor="start" x="8.5" y="-157" font-family="Helvetica,sans-Serif" font-size="10.00">model.gridrules.GridRules.handle</text>
<text text-anchor="middle" x="87" y="-146" font-family="Helvetica,sans-Serif" font-size="10.00">Edges</text>
</g>
<!-- Node2 -->
<g id="node2" class="node"><title>Node2</title>
<g id="a_node2"><a xlink:href="../../dc/de1/classmodel_1_1neighbors_1_1_neighbors.html#ad0ebeba79aaf13dce7951d4c23ad990f" target="_top" xlink:title="model.neighbors.Neighbors.bottomLeft">
<polygon fill="white" stroke="black" points="210.5,-301.5 210.5,-320.5 415.5,-320.5 415.5,-301.5 210.5,-301.5"/>
<text text-anchor="middle" x="313" y="-308.5" font-family="Helvetica,sans-Serif" font-size="10.00">model.neighbors.Neighbors.bottomLeft</text>
</a>
</g>
</g>
<!-- Node1&#45;&gt;Node2 -->
<g id="edge1" class="edge"><title>Node1&#45;&gt;Node2</title>
<path fill="none" stroke="midnightblue" d="M102.147,-177.819C122.058,-209.096 161.406,-263.278 210,-291 217.602,-295.337 225.985,-298.748 234.579,-301.429"/>
<polygon fill="midnightblue" stroke="midnightblue" points="105.084,-175.914 96.8288,-169.273 99.1414,-179.613 105.084,-175.914"/>
</g>
<!-- Node8 -->
<g id="node8" class="node"><title>Node8</title>
<g id="a_node8"><a xlink:href="../../dc/de1/classmodel_1_1neighbors_1_1_neighbors.html#a7943b721335bdaa80fd9ea617993392c" target="_top" xlink:title="model.neighbors.Neighbors.bottom\lRight">
<polygon fill="white" stroke="black" points="219.5,-252 219.5,-282 406.5,-282 406.5,-252 219.5,-252"/>
<text text-anchor="start" x="227.5" y="-270" font-family="Helvetica,sans-Serif" font-size="10.00">model.neighbors.Neighbors.bottom</text>
<text text-anchor="middle" x="313" y="-259" font-family="Helvetica,sans-Serif" font-size="10.00">Right</text>
</a>
</g>
</g>
<!-- Node1&#45;&gt;Node8 -->
<g id="edge7" class="edge"><title>Node1&#45;&gt;Node8</title>
<path fill="none" stroke="midnightblue" d="M112.128,-175.765C135.542,-195.776 172.884,-224.86 210,-242 218.359,-245.86 227.389,-249.17 236.501,-251.997"/>
<polygon fill="midnightblue" stroke="midnightblue" points="114.297,-173.013 104.451,-169.1 109.707,-178.299 114.297,-173.013"/>
</g>
<!-- Node9 -->
<g id="node9" class="node"><title>Node9</title>
<g id="a_node9"><a xlink:href="../../dc/de1/classmodel_1_1neighbors_1_1_neighbors.html#aa2751635d625b30cdef4790f2c094881" target="_top" xlink:title="model.neighbors.Neighbors.Down">
<polygon fill="white" stroke="black" points="224,-38.5 224,-57.5 402,-57.5 402,-38.5 224,-38.5"/>
<text text-anchor="middle" x="313" y="-45.5" font-family="Helvetica,sans-Serif" font-size="10.00">model.neighbors.Neighbors.Down</text>
</a>
</g>
</g>
<!-- Node1&#45;&gt;Node9 -->
<g id="edge10" class="edge"><title>Node1&#45;&gt;Node9</title>
<path fill="none" stroke="midnightblue" d="M111.963,-132.021C135.258,-111.907 172.52,-82.9268 210,-67 219.201,-63.0902 229.206,-59.9826 239.235,-57.5132"/>
<polygon fill="midnightblue" stroke="midnightblue" points="109.53,-129.5 104.328,-138.73 114.151,-134.758 109.53,-129.5"/>
</g>
<!-- Node11 -->
<g id="node11" class="node"><title>Node11</title>
<g id="a_node11"><a xlink:href="../../dc/de1/classmodel_1_1neighbors_1_1_neighbors.html#a1d91d30ce6289d9bb71da5d34c505582" target="_top" xlink:title="model.neighbors.Neighbors.Left">
<polygon fill="white" stroke="black" points="228,-76.5 228,-95.5 398,-95.5 398,-76.5 228,-76.5"/>
<text text-anchor="middle" x="313" y="-83.5" font-family="Helvetica,sans-Serif" font-size="10.00">model.neighbors.Neighbors.Left</text>
</a>
</g>
</g>
<!-- Node1&#45;&gt;Node11 -->
<g id="edge13" class="edge"><title>Node1&#45;&gt;Node11</title>
<path fill="none" stroke="midnightblue" d="M129.732,-134.851C152.968,-124.8 182.647,-112.956 210,-105 222.799,-101.277 236.722,-98.1193 250.049,-95.5104"/>
<polygon fill="midnightblue" stroke="midnightblue" points="128.272,-131.669 120.517,-138.889 131.081,-138.081 128.272,-131.669"/>
</g>
<!-- Node12 -->
<g id="node12" class="node"><title>Node12</title>
<g id="a_node12"><a xlink:href="../../dc/de1/classmodel_1_1neighbors_1_1_neighbors.html#a6f65a87269275d8978c35c6765f531c1" target="_top" xlink:title="model.neighbors.Neighbors.\lRight">
<polygon fill="white" stroke="black" points="237,-115 237,-145 389,-145 389,-115 237,-115"/>
<text text-anchor="start" x="245" y="-133" font-family="Helvetica,sans-Serif" font-size="10.00">model.neighbors.Neighbors.</text>
<text text-anchor="middle" x="313" y="-122" font-family="Helvetica,sans-Serif" font-size="10.00">Right</text>
</a>
</g>
</g>
<!-- Node1&#45;&gt;Node12 -->
<g id="edge16" class="edge"><title>Node1&#45;&gt;Node12</title>
<path fill="none" stroke="midnightblue" d="M183.946,-143.72C201.573,-141.831 219.742,-139.885 236.657,-138.073"/>
<polygon fill="midnightblue" stroke="midnightblue" points="183.214,-140.278 173.644,-144.824 183.96,-147.239 183.214,-140.278"/>
</g>
<!-- Node13 -->
<g id="node13" class="node"><title>Node13</title>
<g id="a_node13"><a xlink:href="../../dc/de1/classmodel_1_1neighbors_1_1_neighbors.html#af8de37f6b70ac9ab8008b6629f22886a" target="_top" xlink:title="model.neighbors.Neighbors.topLeft">
<polygon fill="white" stroke="black" points="220.5,-213.5 220.5,-232.5 405.5,-232.5 405.5,-213.5 220.5,-213.5"/>
<text text-anchor="middle" x="313" y="-220.5" font-family="Helvetica,sans-Serif" font-size="10.00">model.neighbors.Neighbors.topLeft</text>
</a>
</g>
</g>
<!-- Node1&#45;&gt;Node13 -->
<g id="edge19" class="edge"><title>Node1&#45;&gt;Node13</title>
<path fill="none" stroke="midnightblue" d="M129.762,-173.047C153.007,-183.067 182.685,-194.915 210,-203 223.843,-207.097 238.995,-210.587 253.286,-213.448"/>
<polygon fill="midnightblue" stroke="midnightblue" points="131.108,-169.816 120.543,-169.024 128.308,-176.232 131.108,-169.816"/>
</g>
<!-- Node14 -->
<g id="node14" class="node"><title>Node14</title>
<g id="a_node14"><a xlink:href="../../dc/de1/classmodel_1_1neighbors_1_1_neighbors.html#ae82e69e25fdf465f6dee196c82b1f6af" target="_top" xlink:title="model.neighbors.Neighbors.top\lRight">
<polygon fill="white" stroke="black" points="229.5,-164 229.5,-194 396.5,-194 396.5,-164 229.5,-164"/>
<text text-anchor="start" x="237.5" y="-182" font-family="Helvetica,sans-Serif" font-size="10.00">model.neighbors.Neighbors.top</text>
<text text-anchor="middle" x="313" y="-171" font-family="Helvetica,sans-Serif" font-size="10.00">Right</text>
</a>
</g>
</g>
<!-- Node1&#45;&gt;Node14 -->
<g id="edge22" class="edge"><title>Node1&#45;&gt;Node14</title>
<path fill="none" stroke="midnightblue" d="M184.017,-164.716C199.111,-166.401 214.601,-168.13 229.359,-169.777"/>
<polygon fill="midnightblue" stroke="midnightblue" points="183.97,-161.189 173.644,-163.558 183.194,-168.146 183.97,-161.189"/>
</g>
<!-- Node15 -->
<g id="node15" class="node"><title>Node15</title>
<g id="a_node15"><a xlink:href="../../dc/de1/classmodel_1_1neighbors_1_1_neighbors.html#aac9dac30bd5197f1460ccafa34d31d56" target="_top" xlink:title="model.neighbors.Neighbors.Up">
<polygon fill="white" stroke="black" points="230.5,-0.5 230.5,-19.5 395.5,-19.5 395.5,-0.5 230.5,-0.5"/>
<text text-anchor="middle" x="313" y="-7.5" font-family="Helvetica,sans-Serif" font-size="10.00">model.neighbors.Neighbors.Up</text>
</a>
</g>
</g>
<!-- Node1&#45;&gt;Node15 -->
<g id="edge25" class="edge"><title>Node1&#45;&gt;Node15</title>
<path fill="none" stroke="midnightblue" d="M103.86,-130.493C124.654,-101.666 163.95,-53.6129 210,-29 217.228,-25.1366 225.109,-22.0464 233.182,-19.5764"/>
<polygon fill="midnightblue" stroke="midnightblue" points="100.921,-128.586 98.0135,-138.774 106.64,-132.623 100.921,-128.586"/>
</g>
<!-- Node3 -->
<g id="node3" class="node"><title>Node3</title>
<g id="a_node3"><a xlink:href="../../dd/d12/classmodel_1_1neighbors_1_1_hexagonal_neighbors.html#a8aa7f140ef710bd48182610f29bc95e9" target="_top" xlink:title="model.neighbors.Hexagonal\lNeighbors.getAllNeighbors">
<polygon fill="white" stroke="black" points="464.5,-164 464.5,-194 615.5,-194 615.5,-164 464.5,-164"/>
<text text-anchor="start" x="472.5" y="-182" font-family="Helvetica,sans-Serif" font-size="10.00">model.neighbors.Hexagonal</text>
<text text-anchor="middle" x="540" y="-171" font-family="Helvetica,sans-Serif" font-size="10.00">Neighbors.getAllNeighbors</text>
</a>
</g>
</g>
<!-- Node2&#45;&gt;Node3 -->
<g id="edge2" class="edge"><title>Node2&#45;&gt;Node3</title>
<path fill="none" stroke="midnightblue" d="M407.809,-296.759C410.674,-295.028 413.417,-293.115 416,-291 448.379,-264.491 420.793,-231.879 452,-204 456.336,-200.126 461.237,-196.85 466.447,-194.079"/>
<polygon fill="midnightblue" stroke="midnightblue" points="406.127,-293.689 398.881,-301.419 409.366,-299.894 406.127,-293.689"/>
</g>
<!-- Node6 -->
<g id="node6" class="node"><title>Node6</title>
<g id="a_node6"><a xlink:href="../../d6/d9c/classmodel_1_1neighbors_1_1_square_triangle_neighbors.html#afb39acbe23c36fbe98271ca837c9d5de" target="_top" xlink:title="model.neighbors.SquareTriangle\lNeighbors.getDiagonalNeighbors">
<polygon fill="white" stroke="black" points="452.5,-213 452.5,-243 627.5,-243 627.5,-213 452.5,-213"/>
<text text-anchor="start" x="460.5" y="-231" font-family="Helvetica,sans-Serif" font-size="10.00">model.neighbors.SquareTriangle</text>
<text text-anchor="middle" x="540" y="-220" font-family="Helvetica,sans-Serif" font-size="10.00">Neighbors.getDiagonalNeighbors</text>
</a>
</g>
</g>
<!-- Node2&#45;&gt;Node6 -->
<g id="edge5" class="edge"><title>Node2&#45;&gt;Node6</title>
<path fill="none" stroke="midnightblue" d="M387.101,-299.252C396.931,-296.924 406.792,-294.19 416,-291 451.819,-278.591 490.277,-257.502 514.473,-243.173"/>
<polygon fill="midnightblue" stroke="midnightblue" points="386.299,-295.845 377.306,-301.448 387.83,-302.676 386.299,-295.845"/>
</g>
<!-- Node4 -->
<g id="node4" class="node"><title>Node4</title>
<g id="a_node4"><a xlink:href="../../dd/d12/classmodel_1_1neighbors_1_1_hexagonal_neighbors.html#aa5b2987e61b3abb40f9ad64e99ac8f3b" target="_top" xlink:title="model.neighbors.Hexagonal\lNeighbors.getCardinalNeighbors">
<polygon fill="white" stroke="black" points="666,-202 666,-232 838,-232 838,-202 666,-202"/>
<text text-anchor="start" x="674" y="-220" font-family="Helvetica,sans-Serif" font-size="10.00">model.neighbors.Hexagonal</text>
<text text-anchor="middle" x="752" y="-209" font-family="Helvetica,sans-Serif" font-size="10.00">Neighbors.getCardinalNeighbors</text>
</a>
</g>
</g>
<!-- Node3&#45;&gt;Node4 -->
<g id="edge3" class="edge"><title>Node3&#45;&gt;Node4</title>
<path fill="none" stroke="midnightblue" d="M625.694,-194.326C639.658,-196.852 654.12,-199.469 668.04,-201.988"/>
<polygon fill="midnightblue" stroke="midnightblue" points="626.093,-190.841 615.629,-192.504 624.846,-197.729 626.093,-190.841"/>
</g>
<!-- Node5 -->
<g id="node5" class="node"><title>Node5</title>
<g id="a_node5"><a xlink:href="../../dd/d12/classmodel_1_1neighbors_1_1_hexagonal_neighbors.html#a278e173ecc8cc08ae079e7f29f5c7cb4" target="_top" xlink:title="model.neighbors.Hexagonal\lNeighbors.getDiagonalNeighbors">
<polygon fill="white" stroke="black" points="664.5,-153 664.5,-183 839.5,-183 839.5,-153 664.5,-153"/>
<text text-anchor="start" x="672.5" y="-171" font-family="Helvetica,sans-Serif" font-size="10.00">model.neighbors.Hexagonal</text>
<text text-anchor="middle" x="752" y="-160" font-family="Helvetica,sans-Serif" font-size="10.00">Neighbors.getDiagonalNeighbors</text>
</a>
</g>
</g>
<!-- Node3&#45;&gt;Node5 -->
<g id="edge4" class="edge"><title>Node3&#45;&gt;Node5</title>
<path fill="none" stroke="midnightblue" d="M625.745,-174.561C638.488,-173.893 651.644,-173.204 664.425,-172.535"/>
<polygon fill="midnightblue" stroke="midnightblue" points="625.433,-171.072 615.629,-175.091 625.799,-178.063 625.433,-171.072"/>
</g>
<!-- Node7 -->
<g id="node7" class="node"><title>Node7</title>
<g id="a_node7"><a xlink:href="../../d6/d9c/classmodel_1_1neighbors_1_1_square_triangle_neighbors.html#a4705a116c2c95cb5aeb2e7c6b9cf7b88" target="_top" xlink:title="model.neighbors.SquareTriangle\lNeighbors.getAllNeighbors">
<polygon fill="white" stroke="black" points="667,-93 667,-123 837,-123 837,-93 667,-93"/>
<text text-anchor="start" x="675" y="-111" font-family="Helvetica,sans-Serif" font-size="10.00">model.neighbors.SquareTriangle</text>
<text text-anchor="middle" x="752" y="-100" font-family="Helvetica,sans-Serif" font-size="10.00">Neighbors.getAllNeighbors</text>
</a>
</g>
</g>
<!-- Node6&#45;&gt;Node7 -->
<g id="edge6" class="edge"><title>Node6&#45;&gt;Node7</title>
<path fill="none" stroke="midnightblue" d="M620.648,-208.008C623.202,-206.462 625.663,-204.795 628,-203 652.661,-184.054 640.344,-163.187 664,-143 673.784,-134.651 685.814,-128.122 697.773,-123.085"/>
<polygon fill="midnightblue" stroke="midnightblue" points="618.815,-205.019 611.645,-212.82 622.115,-211.193 618.815,-205.019"/>
</g>
<!-- Node8&#45;&gt;Node3 -->
<g id="edge8" class="edge"><title>Node8&#45;&gt;Node3</title>
<path fill="none" stroke="midnightblue" d="M403.865,-248.165C408.057,-246.3 412.127,-244.251 416,-242 436.115,-230.312 432.119,-216.083 452,-204 458.312,-200.164 465.239,-196.894 472.342,-194.111"/>
<polygon fill="midnightblue" stroke="midnightblue" points="402.467,-244.955 394.52,-251.962 405.102,-251.44 402.467,-244.955"/>
</g>
<!-- Node8&#45;&gt;Node6 -->
<g id="edge9" class="edge"><title>Node8&#45;&gt;Node6</title>
<path fill="none" stroke="midnightblue" d="M410.689,-250.241C424.546,-247.839 438.729,-245.38 452.376,-243.015"/>
<polygon fill="midnightblue" stroke="midnightblue" points="409.924,-246.821 400.669,-251.977 411.12,-253.718 409.924,-246.821"/>
</g>
<!-- Node10 -->
<g id="node10" class="node"><title>Node10</title>
<g id="a_node10"><a xlink:href="../../d6/d9c/classmodel_1_1neighbors_1_1_square_triangle_neighbors.html#ad8ae7bc5b8567fd85d65a8f766d7025b" target="_top" xlink:title="model.neighbors.SquareTriangle\lNeighbors.getCardinalNeighbors">
<polygon fill="white" stroke="black" points="454,-71 454,-101 626,-101 626,-71 454,-71"/>
<text text-anchor="start" x="462" y="-89" font-family="Helvetica,sans-Serif" font-size="10.00">model.neighbors.SquareTriangle</text>
<text text-anchor="middle" x="540" y="-78" font-family="Helvetica,sans-Serif" font-size="10.00">Neighbors.getCardinalNeighbors</text>
</a>
</g>
</g>
<!-- Node9&#45;&gt;Node10 -->
<g id="edge11" class="edge"><title>Node9&#45;&gt;Node10</title>
<path fill="none" stroke="midnightblue" d="M380.489,-59.2292C403.515,-63.118 429.648,-67.5316 453.958,-71.6374"/>
<polygon fill="midnightblue" stroke="midnightblue" points="380.93,-55.7542 370.487,-57.54 379.764,-62.6565 380.93,-55.7542"/>
</g>
<!-- Node10&#45;&gt;Node7 -->
<g id="edge12" class="edge"><title>Node10&#45;&gt;Node7</title>
<path fill="none" stroke="midnightblue" d="M636.244,-95.978C646.432,-97.0452 656.743,-98.1254 666.789,-99.1779"/>
<polygon fill="midnightblue" stroke="midnightblue" points="636.423,-92.4776 626.112,-94.9165 635.693,-99.4395 636.423,-92.4776"/>
</g>
<!-- Node11&#45;&gt;Node3 -->
<g id="edge14" class="edge"><title>Node11&#45;&gt;Node3</title>
<path fill="none" stroke="midnightblue" d="M393.545,-97.927C401.237,-99.9393 408.836,-102.28 416,-105 454.908,-119.773 495.396,-146.763 518.845,-163.744"/>
<polygon fill="midnightblue" stroke="midnightblue" points="394.321,-94.5138 383.777,-95.5498 392.666,-101.315 394.321,-94.5138"/>
</g>
<!-- Node11&#45;&gt;Node10 -->
<g id="edge15" class="edge"><title>Node11&#45;&gt;Node10</title>
<path fill="none" stroke="midnightblue" d="M408.451,-86C423.522,-86 439.037,-86 453.876,-86"/>
<polygon fill="midnightblue" stroke="midnightblue" points="408.102,-82.5001 398.102,-86 408.102,-89.5001 408.102,-82.5001"/>
</g>
<!-- Node12&#45;&gt;Node3 -->
<g id="edge17" class="edge"><title>Node12&#45;&gt;Node3</title>
<path fill="none" stroke="midnightblue" d="M392.912,-147.185C418.073,-152.665 445.701,-158.682 470.094,-163.994"/>
<polygon fill="midnightblue" stroke="midnightblue" points="393.552,-143.743 383.037,-145.035 392.063,-150.582 393.552,-143.743"/>
</g>
<!-- Node12&#45;&gt;Node10 -->
<g id="edge18" class="edge"><title>Node12&#45;&gt;Node10</title>
<path fill="none" stroke="midnightblue" d="M399.228,-113.333C419.824,-109.306 441.717,-105.024 461.915,-101.074"/>
<polygon fill="midnightblue" stroke="midnightblue" points="398.377,-109.933 389.235,-115.287 399.72,-116.803 398.377,-109.933"/>
</g>
<!-- Node13&#45;&gt;Node3 -->
<g id="edge20" class="edge"><title>Node13&#45;&gt;Node3</title>
<path fill="none" stroke="midnightblue" d="M372.83,-211.495C400.752,-206.035 434.434,-199.448 464.154,-193.637"/>
<polygon fill="midnightblue" stroke="midnightblue" points="371.964,-208.098 362.822,-213.453 373.308,-214.968 371.964,-208.098"/>
</g>
<!-- Node13&#45;&gt;Node6 -->
<g id="edge21" class="edge"><title>Node13&#45;&gt;Node6</title>
<path fill="none" stroke="midnightblue" d="M415.722,-225.26C427.935,-225.532 440.319,-225.807 452.291,-226.073"/>
<polygon fill="midnightblue" stroke="midnightblue" points="415.591,-221.757 405.516,-225.034 415.436,-228.755 415.591,-221.757"/>
</g>
<!-- Node14&#45;&gt;Node3 -->
<g id="edge23" class="edge"><title>Node14&#45;&gt;Node3</title>
<path fill="none" stroke="midnightblue" d="M406.753,-179C425.93,-179 445.897,-179 464.33,-179"/>
<polygon fill="midnightblue" stroke="midnightblue" points="406.504,-175.5 396.504,-179 406.504,-182.5 406.504,-175.5"/>
</g>
<!-- Node14&#45;&gt;Node6 -->
<g id="edge24" class="edge"><title>Node14&#45;&gt;Node6</title>
<path fill="none" stroke="midnightblue" d="M392.912,-196.185C418.073,-201.665 445.701,-207.682 470.094,-212.994"/>
<polygon fill="midnightblue" stroke="midnightblue" points="393.552,-192.743 383.037,-194.035 392.063,-199.582 393.552,-192.743"/>
</g>
<!-- Node15&#45;&gt;Node10 -->
<g id="edge26" class="edge"><title>Node15&#45;&gt;Node10</title>
<path fill="none" stroke="midnightblue" d="M388.813,-21.7036C398.056,-23.8022 407.305,-26.2238 416,-29 450.079,-39.8812 487.052,-57.9357 511.467,-70.8091"/>
<polygon fill="midnightblue" stroke="midnightblue" points="389.324,-18.2336 378.811,-19.5517 387.851,-25.077 389.324,-18.2336"/>
</g>
</g>
</svg>
