<?xml version="1.0" encoding="UTF-8" standalone="no"?>
<!DOCTYPE svg PUBLIC "-//W3C//DTD SVG 1.1//EN"
 "http://www.w3.org/Graphics/SVG/1.1/DTD/svg11.dtd">
<!-- Generated by graphviz version 2.36.0 (20140111.2315)
 -->
<!-- Title: model.cells.PredatorCellShark.PredatorCellShark Pages: 1 -->
<svg width="478pt" height="38pt"
 viewBox="0.00 0.00 478.00 38.00" xmlns="http://www.w3.org/2000/svg" xmlns:xlink="http://www.w3.org/1999/xlink">
<g id="graph0" class="graph" transform="scale(1 1) rotate(0) translate(4 34)">
<title>model.cells.PredatorCellShark.PredatorCellShark</title>
<polygon fill="white" stroke="none" points="-4,4 -4,-34 474,-34 474,4 -4,4"/>
<!-- Node1 -->
<g id="node1" class="node"><title>Node1</title>
<polygon fill="#bfbfbf" stroke="black" points="0,-0 0,-30 134,-30 134,-0 0,-0"/>
<text text-anchor="start" x="8" y="-18" font-family="Helvetica,sans-Serif" font-size="10.00">model.cells.PredatorCell</text>
<text text-anchor="middle" x="67" y="-7" font-family="Helvetica,sans-Serif" font-size="10.00">Shark.PredatorCellShark</text>
</g>
<!-- Node2 -->
<g id="node2" class="node"><title>Node2</title>
<g id="a_node2"><a xlink:href="../../d0/dfb/classmodel_1_1cells_1_1_predator_cell_shark.html#aef1600817bfe12c171d7ae0f3fb42c90" target="_top" xlink:title="model.cells.PredatorCell\lShark.moveSquareTo">
<polygon fill="white" stroke="black" points="170,-0 170,-30 302,-30 302,-0 170,-0"/>
<text text-anchor="start" x="178" y="-18" font-family="Helvetica,sans-Serif" font-size="10.00">model.cells.PredatorCell</text>
<text text-anchor="middle" x="236" y="-7" font-family="Helvetica,sans-Serif" font-size="10.00">Shark.moveSquareTo</text>
</a>
</g>
</g>
<!-- Node1&#45;&gt;Node2 -->
<g id="edge1" class="edge"><title>Node1&#45;&gt;Node2</title>
<path fill="none" stroke="midnightblue" d="M144.019,-15C152.612,-15 161.312,-15 169.75,-15"/>
<polygon fill="midnightblue" stroke="midnightblue" points="144.003,-11.5001 134.003,-15 144.003,-18.5001 144.003,-11.5001"/>
</g>
<!-- Node3 -->
<g id="node3" class="node"><title>Node3</title>
<g id="a_node3"><a xlink:href="../../d0/dfb/classmodel_1_1cells_1_1_predator_cell_shark.html#ae00206800220a00e16771a22306df991" target="_top" xlink:title="model.cells.PredatorCell\lShark.update">
<polygon fill="white" stroke="black" points="338,-0 338,-30 470,-30 470,-0 338,-0"/>
<text text-anchor="start" x="346" y="-18" font-family="Helvetica,sans-Serif" font-size="10.00">model.cells.PredatorCell</text>
<text text-anchor="middle" x="404" y="-7" font-family="Helvetica,sans-Serif" font-size="10.00">Shark.update</text>
</a>
</g>
</g>
<!-- Node2&#45;&gt;Node3 -->
<g id="edge2" class="edge"><title>Node2&#45;&gt;Node3</title>
<path fill="none" stroke="midnightblue" d="M312.393,-15C320.869,-15 329.452,-15 337.784,-15"/>
<polygon fill="midnightblue" stroke="midnightblue" points="312.131,-11.5001 302.131,-15 312.131,-18.5001 312.131,-11.5001"/>
</g>
</g>
</svg>
