<?xml version="1.0" encoding="UTF-8" standalone="no"?>
<!DOCTYPE svg PUBLIC "-//W3C//DTD SVG 1.1//EN"
 "http://www.w3.org/Graphics/SVG/1.1/DTD/svg11.dtd">
<!-- Generated by graphviz version 2.36.0 (20140111.2315)
 -->
<!-- Title: model.cells.PredatorCellShark.update Pages: 1 -->
<svg width="488pt" height="154pt"
 viewBox="0.00 0.00 488.00 154.00" xmlns="http://www.w3.org/2000/svg" xmlns:xlink="http://www.w3.org/1999/xlink">
<g id="graph0" class="graph" transform="scale(1 1) rotate(0) translate(4 150)">
<title>model.cells.PredatorCellShark.update</title>
<polygon fill="white" stroke="none" points="-4,4 -4,-150 484,-150 484,4 -4,4"/>
<!-- Node1 -->
<g id="node1" class="node"><title>Node1</title>
<polygon fill="#bfbfbf" stroke="black" points="0,-17 0,-47 132,-47 132,-17 0,-17"/>
<text text-anchor="start" x="8" y="-35" font-family="Helvetica,sans-Serif" font-size="10.00">model.cells.PredatorCell</text>
<text text-anchor="middle" x="66" y="-24" font-family="Helvetica,sans-Serif" font-size="10.00">Shark.update</text>
</g>
<!-- Node2 -->
<g id="node2" class="node"><title>Node2</title>
<g id="a_node2"><a xlink:href="../../d0/dfb/classmodel_1_1cells_1_1_predator_cell_shark.html#aef1600817bfe12c171d7ae0f3fb42c90" target="_top" xlink:title="model.cells.PredatorCell\lShark.moveSquareTo">
<polygon fill="white" stroke="black" points="168,-39 168,-69 300,-69 300,-39 168,-39"/>
<text text-anchor="start" x="176" y="-57" font-family="Helvetica,sans-Serif" font-size="10.00">model.cells.PredatorCell</text>
<text text-anchor="middle" x="234" y="-46" font-family="Helvetica,sans-Serif" font-size="10.00">Shark.moveSquareTo</text>
</a>
</g>
</g>
<!-- Node1&#45;&gt;Node2 -->
<g id="edge1" class="edge"><title>Node1&#45;&gt;Node2</title>
<path fill="none" stroke="midnightblue" d="M132.131,-40.6318C140.553,-41.748 149.232,-42.8983 157.8,-44.0337"/>
<polygon fill="midnightblue" stroke="midnightblue" points="157.411,-47.5127 167.784,-45.3569 158.331,-40.5734 157.411,-47.5127"/>
</g>
<!-- Node6 -->
<g id="node6" class="node"><title>Node6</title>
<g id="a_node6"><a xlink:href="../../dc/d41/classmodel_1_1cells_1_1_cell.html#a23537f07ee3443bae1d362a68a9bc171" target="_top" xlink:title="model.cells.Cell.setCoords">
<polygon fill="white" stroke="black" points="336.5,-0.5 336.5,-19.5 479.5,-19.5 479.5,-0.5 336.5,-0.5"/>
<text text-anchor="middle" x="408" y="-7.5" font-family="Helvetica,sans-Serif" font-size="10.00">model.cells.Cell.setCoords</text>
</a>
</g>
</g>
<!-- Node1&#45;&gt;Node6 -->
<g id="edge6" class="edge"><title>Node1&#45;&gt;Node6</title>
<path fill="none" stroke="midnightblue" d="M132.153,-27.7842C187.474,-24.2046 267.098,-19.0525 326.417,-15.2142"/>
<polygon fill="midnightblue" stroke="midnightblue" points="326.747,-18.7003 336.5,-14.5618 326.295,-11.7149 326.747,-18.7003"/>
</g>
<!-- Node3 -->
<g id="node3" class="node"><title>Node3</title>
<g id="a_node3"><a xlink:href="../../dc/d41/classmodel_1_1cells_1_1_cell.html#a16ac8c4efc55531cf87c35c5eb987c56" target="_top" xlink:title="model.cells.Cell.getX">
<polygon fill="white" stroke="black" points="350,-126.5 350,-145.5 466,-145.5 466,-126.5 350,-126.5"/>
<text text-anchor="middle" x="408" y="-133.5" font-family="Helvetica,sans-Serif" font-size="10.00">model.cells.Cell.getX</text>
</a>
</g>
</g>
<!-- Node2&#45;&gt;Node3 -->
<g id="edge2" class="edge"><title>Node2&#45;&gt;Node3</title>
<path fill="none" stroke="midnightblue" d="M255.279,-69.1809C274.993,-83.3111 306.238,-104.079 336,-117 341.474,-119.376 347.317,-121.519 353.212,-123.433"/>
<polygon fill="midnightblue" stroke="midnightblue" points="352.54,-126.887 363.126,-126.441 354.573,-120.188 352.54,-126.887"/>
</g>
<!-- Node4 -->
<g id="node4" class="node"><title>Node4</title>
<g id="a_node4"><a xlink:href="../../dc/d41/classmodel_1_1cells_1_1_cell.html#a1b6324942654788b14b240938158bbda" target="_top" xlink:title="model.cells.Cell.getY">
<polygon fill="white" stroke="black" points="350.5,-88.5 350.5,-107.5 465.5,-107.5 465.5,-88.5 350.5,-88.5"/>
<text text-anchor="middle" x="408" y="-95.5" font-family="Helvetica,sans-Serif" font-size="10.00">model.cells.Cell.getY</text>
</a>
</g>
</g>
<!-- Node2&#45;&gt;Node4 -->
<g id="edge3" class="edge"><title>Node2&#45;&gt;Node4</title>
<path fill="none" stroke="midnightblue" d="M293.712,-69.0192C315.373,-74.5604 339.61,-80.7607 360.091,-85.9999"/>
<polygon fill="midnightblue" stroke="midnightblue" points="359.26,-89.4 369.815,-88.4876 360.995,-82.6184 359.26,-89.4"/>
</g>
<!-- Node5 -->
<g id="node5" class="node"><title>Node5</title>
<g id="a_node5"><a xlink:href="../../d0/dfb/classmodel_1_1cells_1_1_predator_cell_shark.html#a2739e1aa8880b063945027a0e9290db0" target="_top" xlink:title="model.cells.PredatorCell\lShark.PredatorCellShark">
<polygon fill="white" stroke="black" points="341,-39 341,-69 475,-69 475,-39 341,-39"/>
<text text-anchor="start" x="349" y="-57" font-family="Helvetica,sans-Serif" font-size="10.00">model.cells.PredatorCell</text>
<text text-anchor="middle" x="408" y="-46" font-family="Helvetica,sans-Serif" font-size="10.00">Shark.PredatorCellShark</text>
</a>
</g>
</g>
<!-- Node2&#45;&gt;Node5 -->
<g id="edge4" class="edge"><title>Node2&#45;&gt;Node5</title>
<path fill="none" stroke="midnightblue" d="M300.026,-54C310.015,-54 320.406,-54 330.613,-54"/>
<polygon fill="midnightblue" stroke="midnightblue" points="330.739,-57.5001 340.739,-54 330.739,-50.5001 330.739,-57.5001"/>
</g>
<!-- Node2&#45;&gt;Node6 -->
<g id="edge5" class="edge"><title>Node2&#45;&gt;Node6</title>
<path fill="none" stroke="midnightblue" d="M293.712,-38.9808C315.373,-33.4396 339.61,-27.2393 360.091,-22.0001"/>
<polygon fill="midnightblue" stroke="midnightblue" points="360.995,-25.3816 369.815,-19.5124 359.26,-18.6 360.995,-25.3816"/>
</g>
</g>
</svg>
