<?xml version="1.0" encoding="UTF-8" standalone="no"?>
<!DOCTYPE svg PUBLIC "-//W3C//DTD SVG 1.1//EN"
 "http://www.w3.org/Graphics/SVG/1.1/DTD/svg11.dtd">
<!-- Generated by graphviz version 2.36.0 (20140111.2315)
 -->
<!-- Title: model.cells.PredatorCellShark.moveSquareTo Pages: 1 -->
<svg width="320pt" height="154pt"
 viewBox="0.00 0.00 320.00 154.00" xmlns="http://www.w3.org/2000/svg" xmlns:xlink="http://www.w3.org/1999/xlink">
<g id="graph0" class="graph" transform="scale(1 1) rotate(0) translate(4 150)">
<title>model.cells.PredatorCellShark.moveSquareTo</title>
<polygon fill="white" stroke="none" points="-4,4 -4,-150 316,-150 316,4 -4,4"/>
<!-- Node1 -->
<g id="node1" class="node"><title>Node1</title>
<polygon fill="#bfbfbf" stroke="black" points="0,-61 0,-91 132,-91 132,-61 0,-61"/>
<text text-anchor="start" x="8" y="-79" font-family="Helvetica,sans-Serif" font-size="10.00">model.cells.PredatorCell</text>
<text text-anchor="middle" x="66" y="-68" font-family="Helvetica,sans-Serif" font-size="10.00">Shark.moveSquareTo</text>
</g>
<!-- Node2 -->
<g id="node2" class="node"><title>Node2</title>
<g id="a_node2"><a xlink:href="../../dc/d41/classmodel_1_1cells_1_1_cell.html#a16ac8c4efc55531cf87c35c5eb987c56" target="_top" xlink:title="model.cells.Cell.getX">
<polygon fill="white" stroke="black" points="182,-126.5 182,-145.5 298,-145.5 298,-126.5 182,-126.5"/>
<text text-anchor="middle" x="240" y="-133.5" font-family="Helvetica,sans-Serif" font-size="10.00">model.cells.Cell.getX</text>
</a>
</g>
</g>
<!-- Node1&#45;&gt;Node2 -->
<g id="edge1" class="edge"><title>Node1&#45;&gt;Node2</title>
<path fill="none" stroke="midnightblue" d="M101.194,-91.1156C120.572,-99.3683 145.392,-109.419 168,-117 175.066,-119.369 182.604,-121.647 190.03,-123.751"/>
<polygon fill="midnightblue" stroke="midnightblue" points="189.108,-127.127 199.679,-126.409 190.968,-120.379 189.108,-127.127"/>
</g>
<!-- Node3 -->
<g id="node3" class="node"><title>Node3</title>
<g id="a_node3"><a xlink:href="../../dc/d41/classmodel_1_1cells_1_1_cell.html#a1b6324942654788b14b240938158bbda" target="_top" xlink:title="model.cells.Cell.getY">
<polygon fill="white" stroke="black" points="182.5,-88.5 182.5,-107.5 297.5,-107.5 297.5,-88.5 182.5,-88.5"/>
<text text-anchor="middle" x="240" y="-95.5" font-family="Helvetica,sans-Serif" font-size="10.00">model.cells.Cell.getY</text>
</a>
</g>
</g>
<!-- Node1&#45;&gt;Node3 -->
<g id="edge2" class="edge"><title>Node1&#45;&gt;Node3</title>
<path fill="none" stroke="midnightblue" d="M132.026,-84.3173C145.216,-86.0044 159.108,-87.7813 172.354,-89.4755"/>
<polygon fill="midnightblue" stroke="midnightblue" points="171.971,-92.955 182.335,-90.7521 172.859,-86.0116 171.971,-92.955"/>
</g>
<!-- Node4 -->
<g id="node4" class="node"><title>Node4</title>
<g id="a_node4"><a xlink:href="../../d0/dfb/classmodel_1_1cells_1_1_predator_cell_shark.html#a2739e1aa8880b063945027a0e9290db0" target="_top" xlink:title="model.cells.PredatorCell\lShark.PredatorCellShark">
<polygon fill="white" stroke="black" points="173,-39 173,-69 307,-69 307,-39 173,-39"/>
<text text-anchor="start" x="181" y="-57" font-family="Helvetica,sans-Serif" font-size="10.00">model.cells.PredatorCell</text>
<text text-anchor="middle" x="240" y="-46" font-family="Helvetica,sans-Serif" font-size="10.00">Shark.PredatorCellShark</text>
</a>
</g>
</g>
<!-- Node1&#45;&gt;Node4 -->
<g id="edge3" class="edge"><title>Node1&#45;&gt;Node4</title>
<path fill="none" stroke="midnightblue" d="M132.026,-67.6827C142.015,-66.4051 152.406,-65.076 162.613,-63.7704"/>
<polygon fill="midnightblue" stroke="midnightblue" points="163.264,-67.2158 172.739,-62.4753 162.375,-60.2724 163.264,-67.2158"/>
</g>
<!-- Node5 -->
<g id="node5" class="node"><title>Node5</title>
<g id="a_node5"><a xlink:href="../../dc/d41/classmodel_1_1cells_1_1_cell.html#a23537f07ee3443bae1d362a68a9bc171" target="_top" xlink:title="model.cells.Cell.setCoords">
<polygon fill="white" stroke="black" points="168.5,-0.5 168.5,-19.5 311.5,-19.5 311.5,-0.5 168.5,-0.5"/>
<text text-anchor="middle" x="240" y="-7.5" font-family="Helvetica,sans-Serif" font-size="10.00">model.cells.Cell.setCoords</text>
</a>
</g>
</g>
<!-- Node1&#45;&gt;Node5 -->
<g id="edge4" class="edge"><title>Node1&#45;&gt;Node5</title>
<path fill="none" stroke="midnightblue" d="M96.9912,-60.8786C116.823,-51.2462 143.574,-38.9431 168,-30 175.441,-27.2757 183.432,-24.7 191.274,-22.3601"/>
<polygon fill="midnightblue" stroke="midnightblue" points="192.438,-25.6671 201.073,-19.529 190.495,-18.9421 192.438,-25.6671"/>
</g>
</g>
</svg>
