<?xml version="1.0" encoding="UTF-8" standalone="no"?>
<!DOCTYPE svg PUBLIC "-//W3C//DTD SVG 1.1//EN"
 "http://www.w3.org/Graphics/SVG/1.1/DTD/svg11.dtd">
<!-- Generated by graphviz version 2.36.0 (20140111.2315)
 -->
<!-- Title: model.cells.FireCell Pages: 1 -->
<svg width="499pt" height="164pt"
 viewBox="0.00 0.00 498.79 164.00" xmlns="http://www.w3.org/2000/svg" xmlns:xlink="http://www.w3.org/1999/xlink">
<g id="graph0" class="graph" transform="scale(1 1) rotate(0) translate(4 160)">
<title>model.cells.FireCell</title>
<polygon fill="white" stroke="none" points="-4,4 -4,-160 494.789,-160 494.789,4 -4,4"/>
<!-- Node1 -->
<g id="node1" class="node"><title>Node1</title>
<polygon fill="#bfbfbf" stroke="black" points="368.289,-0.5 368.289,-19.5 475.289,-19.5 475.289,-0.5 368.289,-0.5"/>
<text text-anchor="middle" x="421.789" y="-7.5" font-family="Helvetica,sans-Serif" font-size="10.00">model.cells.FireCell</text>
</g>
<!-- Node2 -->
<g id="node2" class="node"><title>Node2</title>
<g id="a_node2"><a xlink:href="../../dc/d41/classmodel_1_1cells_1_1_cell.html" target="_top" xlink:title="model.cells.Cell">
<polygon fill="white" stroke="black" points="299.289,-68.5 299.289,-87.5 390.289,-87.5 390.289,-68.5 299.289,-68.5"/>
<text text-anchor="middle" x="344.789" y="-75.5" font-family="Helvetica,sans-Serif" font-size="10.00">model.cells.Cell</text>
</a>
</g>
</g>
<!-- Node2&#45;&gt;Node1 -->
<g id="edge1" class="edge"><title>Node2&#45;&gt;Node1</title>
<path fill="none" stroke="midnightblue" d="M372.574,-63.4486C379.216,-59.5751 386.041,-55.0239 391.789,-50 402.08,-41.0056 411.226,-28.0198 416.638,-19.5453"/>
<polygon fill="midnightblue" stroke="midnightblue" points="370.832,-60.4124 363.749,-68.2916 374.199,-66.5492 370.832,-60.4124"/>
</g>
<!-- Node4 -->
<g id="node4" class="node"><title>Node4</title>
<g id="a_node4"><a xlink:href="../../db/d90/classmodel_1_1patches_1_1_patch.html" target="_top" xlink:title="model.patches.Patch">
<polygon fill="white" stroke="black" points="183.289,-0.5 183.289,-19.5 300.289,-19.5 300.289,-0.5 183.289,-0.5"/>
<text text-anchor="middle" x="241.789" y="-7.5" font-family="Helvetica,sans-Serif" font-size="10.00">model.patches.Patch</text>
</a>
</g>
</g>
<!-- Node2&#45;&gt;Node4 -->
<g id="edge5" class="edge"><title>Node2&#45;&gt;Node4</title>
<path fill="none" stroke="#9a32cd" stroke-dasharray="5,2" d="M342.827,-58.2796C341.188,-51.1041 338.205,-43.3616 332.789,-38 323.888,-29.1887 312.252,-23.2294 300.289,-19.2054"/>
<polygon fill="#9a32cd" stroke="#9a32cd" points="339.401,-59.0233 344.422,-68.3526 346.315,-57.9281 339.401,-59.0233"/>
<text text-anchor="middle" x="358.789" y="-41.5" font-family="Helvetica,sans-Serif" font-size="10.00"> myCell</text>
</g>
<!-- Node3 -->
<g id="node3" class="node"><title>Node3</title>
<polygon fill="white" stroke="#bfbfbf" points="279.789,-136.5 279.789,-155.5 409.789,-155.5 409.789,-136.5 279.789,-136.5"/>
<text text-anchor="middle" x="344.789" y="-143.5" font-family="Helvetica,sans-Serif" font-size="10.00">List&lt; model.cells.Cell &gt;</text>
</g>
<!-- Node3&#45;&gt;Node2 -->
<g id="edge2" class="edge"><title>Node3&#45;&gt;Node2</title>
<path fill="none" stroke="#9a32cd" stroke-dasharray="5,2" d="M344.789,-126.041C344.789,-113.472 344.789,-97.5631 344.789,-87.8411"/>
<polygon fill="#9a32cd" stroke="#9a32cd" points="341.289,-126.372 344.789,-136.372 348.289,-126.372 341.289,-126.372"/>
<text text-anchor="middle" x="378.289" y="-109.5" font-family="Helvetica,sans-Serif" font-size="10.00"> myNeighbors</text>
</g>
<!-- Node4&#45;&gt;Node2 -->
<g id="edge3" class="edge"><title>Node4&#45;&gt;Node2</title>
<path fill="none" stroke="#9a32cd" stroke-dasharray="5,2" d="M257.739,-26.322C266.239,-34.0078 277.12,-43.1195 287.789,-50 298.924,-57.181 312.266,-63.6056 323.243,-68.3846"/>
<polygon fill="#9a32cd" stroke="#9a32cd" points="260.113,-23.7506 250.404,-19.5094 255.349,-28.8795 260.113,-23.7506"/>
<text text-anchor="middle" x="310.289" y="-41.5" font-family="Helvetica,sans-Serif" font-size="10.00"> myPatch</text>
</g>
<!-- Node5 -->
<g id="node5" class="node"><title>Node5</title>
<polygon fill="white" stroke="#bfbfbf" points="33.789,-136.5 33.789,-155.5 161.789,-155.5 161.789,-136.5 33.789,-136.5"/>
<text text-anchor="middle" x="97.789" y="-143.5" font-family="Helvetica,sans-Serif" font-size="10.00">Map&lt; String, Double &gt;</text>
</g>
<!-- Node5&#45;&gt;Node2 -->
<g id="edge7" class="edge"><title>Node5&#45;&gt;Node2</title>
<path fill="none" stroke="#9a32cd" stroke-dasharray="5,2" d="M139.783,-133.779C188.75,-120.695 268.602,-99.3576 312.808,-87.5455"/>
<polygon fill="#9a32cd" stroke="#9a32cd" points="138.584,-130.476 129.827,-136.439 140.391,-137.239 138.584,-130.476"/>
<text text-anchor="middle" x="283.289" y="-109.5" font-family="Helvetica,sans-Serif" font-size="10.00"> myPropertyMap</text>
</g>
<!-- Node5&#45;&gt;Node4 -->
<g id="edge4" class="edge"><title>Node5&#45;&gt;Node4</title>
<path fill="none" stroke="#9a32cd" stroke-dasharray="5,2" d="M62.3897,-132.669C28.2679,-118.841 -15.3178,-94.8115 5.78895,-68 27.4616,-40.4697 120.516,-24.6574 183.099,-16.9541"/>
<polygon fill="#9a32cd" stroke="#9a32cd" points="61.5577,-136.101 72.1465,-136.459 64.0922,-129.576 61.5577,-136.101"/>
<text text-anchor="middle" x="58.789" y="-75.5" font-family="Helvetica,sans-Serif" font-size="10.00"> myPatchPropertyMap</text>
</g>
<!-- Node6 -->
<g id="node6" class="node"><title>Node6</title>
<polygon fill="white" stroke="#bfbfbf" points="120.789,-68.5 120.789,-87.5 276.789,-87.5 276.789,-68.5 120.789,-68.5"/>
<text text-anchor="middle" x="198.789" y="-75.5" font-family="Helvetica,sans-Serif" font-size="10.00">List&lt; model.patches.Patch &gt;</text>
</g>
<!-- Node6&#45;&gt;Node4 -->
<g id="edge6" class="edge"><title>Node6&#45;&gt;Node4</title>
<path fill="none" stroke="#9a32cd" stroke-dasharray="5,2" d="M194.463,-58.0302C193.897,-51.3311 194.441,-43.9825 197.789,-38 202.341,-29.8661 210.456,-23.885 218.488,-19.6499"/>
<polygon fill="#9a32cd" stroke="#9a32cd" points="191.082,-59.0392 196.164,-68.3355 197.988,-57.8989 191.082,-59.0392"/>
<text text-anchor="middle" x="231.289" y="-41.5" font-family="Helvetica,sans-Serif" font-size="10.00"> myNeighbors</text>
</g>
<!-- Node7 -->
<g id="node7" class="node"><title>Node7</title>
<polygon fill="white" stroke="#bfbfbf" points="410.789,-68.5 410.789,-87.5 466.789,-87.5 466.789,-68.5 410.789,-68.5"/>
<text text-anchor="middle" x="438.789" y="-75.5" font-family="Helvetica,sans-Serif" font-size="10.00">Random</text>
</g>
<!-- Node7&#45;&gt;Node1 -->
<g id="edge8" class="edge"><title>Node7&#45;&gt;Node1</title>
<path fill="none" stroke="#9a32cd" stroke-dasharray="5,2" d="M434.004,-58.425C430.752,-45.7978 426.596,-29.6623 424.066,-19.8411"/>
<polygon fill="#9a32cd" stroke="#9a32cd" points="430.683,-59.5608 436.566,-68.3717 437.461,-57.8147 430.683,-59.5608"/>
<text text-anchor="middle" x="461.789" y="-41.5" font-family="Helvetica,sans-Serif" font-size="10.00"> myRandom</text>
</g>
</g>
</svg>
