<?xml version="1.0" encoding="UTF-8" standalone="no"?>
<!DOCTYPE svg PUBLIC "-//W3C//DTD SVG 1.1//EN"
 "http://www.w3.org/Graphics/SVG/1.1/DTD/svg11.dtd">
<!-- Generated by graphviz version 2.36.0 (20140111.2315)
 -->
<!-- Title: model.cells.LifeCell Pages: 1 -->
<svg width="416pt" height="164pt"
 viewBox="0.00 0.00 416.00 164.00" xmlns="http://www.w3.org/2000/svg" xmlns:xlink="http://www.w3.org/1999/xlink">
<g id="graph0" class="graph" transform="scale(1 1) rotate(0) translate(4 160)">
<title>model.cells.LifeCell</title>
<polygon fill="white" stroke="none" points="-4,4 -4,-160 412,-160 412,4 -4,4"/>
<!-- Node1 -->
<g id="node1" class="node"><title>Node1</title>
<polygon fill="#bfbfbf" stroke="black" points="-0.5,-0.5 -0.5,-19.5 106.5,-19.5 106.5,-0.5 -0.5,-0.5"/>
<text text-anchor="middle" x="53" y="-7.5" font-family="Helvetica,sans-Serif" font-size="10.00">model.cells.LifeCell</text>
</g>
<!-- Node2 -->
<g id="node2" class="node"><title>Node2</title>
<g id="a_node2"><a xlink:href="../../dc/d41/classmodel_1_1cells_1_1_cell.html" target="_top" xlink:title="model.cells.Cell">
<polygon fill="white" stroke="black" points="25.5,-68.5 25.5,-87.5 116.5,-87.5 116.5,-68.5 25.5,-68.5"/>
<text text-anchor="middle" x="71" y="-75.5" font-family="Helvetica,sans-Serif" font-size="10.00">model.cells.Cell</text>
</a>
</g>
</g>
<!-- Node2&#45;&gt;Node1 -->
<g id="edge1" class="edge"><title>Node2&#45;&gt;Node1</title>
<path fill="none" stroke="midnightblue" d="M65.9341,-58.425C62.4903,-45.7978 58.0897,-29.6623 55.4112,-19.8411"/>
<polygon fill="midnightblue" stroke="midnightblue" points="62.6389,-59.6449 68.6468,-68.3717 69.3922,-57.8031 62.6389,-59.6449"/>
</g>
<!-- Node4 -->
<g id="node4" class="node"><title>Node4</title>
<g id="a_node4"><a xlink:href="../../db/d90/classmodel_1_1patches_1_1_patch.html" target="_top" xlink:title="model.patches.Patch">
<polygon fill="white" stroke="black" points="139.5,-0.5 139.5,-19.5 256.5,-19.5 256.5,-0.5 139.5,-0.5"/>
<text text-anchor="middle" x="198" y="-7.5" font-family="Helvetica,sans-Serif" font-size="10.00">model.patches.Patch</text>
</a>
</g>
</g>
<!-- Node2&#45;&gt;Node4 -->
<g id="edge5" class="edge"><title>Node2&#45;&gt;Node4</title>
<path fill="none" stroke="#9a32cd" stroke-dasharray="5,2" d="M101.347,-64.4019C111.237,-60.0761 122.191,-55.047 132,-50 150.699,-40.3789 171.457,-27.778 184.61,-19.5403"/>
<polygon fill="#9a32cd" stroke="#9a32cd" points="99.6978,-61.3013 91.8946,-68.468 102.464,-67.7317 99.6978,-61.3013"/>
<text text-anchor="middle" x="171" y="-41.5" font-family="Helvetica,sans-Serif" font-size="10.00"> myCell</text>
</g>
<!-- Node3 -->
<g id="node3" class="node"><title>Node3</title>
<polygon fill="white" stroke="#bfbfbf" points="6,-136.5 6,-155.5 136,-155.5 136,-136.5 6,-136.5"/>
<text text-anchor="middle" x="71" y="-143.5" font-family="Helvetica,sans-Serif" font-size="10.00">List&lt; model.cells.Cell &gt;</text>
</g>
<!-- Node3&#45;&gt;Node2 -->
<g id="edge2" class="edge"><title>Node3&#45;&gt;Node2</title>
<path fill="none" stroke="#9a32cd" stroke-dasharray="5,2" d="M71,-126.041C71,-113.472 71,-97.5631 71,-87.8411"/>
<polygon fill="#9a32cd" stroke="#9a32cd" points="67.5001,-126.372 71,-136.372 74.5001,-126.372 67.5001,-126.372"/>
<text text-anchor="middle" x="104.5" y="-109.5" font-family="Helvetica,sans-Serif" font-size="10.00"> myNeighbors</text>
</g>
<!-- Node4&#45;&gt;Node2 -->
<g id="edge3" class="edge"><title>Node4&#45;&gt;Node2</title>
<path fill="none" stroke="#9a32cd" stroke-dasharray="5,2" d="M129.32,-17.2012C114.062,-21.2793 98.9055,-27.7659 87,-38 78.0092,-45.7285 73.9902,-59.2932 72.2509,-68.2128"/>
<polygon fill="#9a32cd" stroke="#9a32cd" points="130.391,-20.5449 139.328,-14.8539 128.793,-13.7298 130.391,-20.5449"/>
<text text-anchor="middle" x="109.5" y="-41.5" font-family="Helvetica,sans-Serif" font-size="10.00"> myPatch</text>
</g>
<!-- Node5 -->
<g id="node5" class="node"><title>Node5</title>
<polygon fill="white" stroke="#bfbfbf" points="185,-136.5 185,-155.5 313,-155.5 313,-136.5 185,-136.5"/>
<text text-anchor="middle" x="249" y="-143.5" font-family="Helvetica,sans-Serif" font-size="10.00">Map&lt; String, Double &gt;</text>
</g>
<!-- Node5&#45;&gt;Node2 -->
<g id="edge7" class="edge"><title>Node5&#45;&gt;Node2</title>
<path fill="none" stroke="#9a32cd" stroke-dasharray="5,2" d="M216.299,-132.875C180.829,-119.723 125.117,-99.066 93.994,-87.5259"/>
<polygon fill="#9a32cd" stroke="#9a32cd" points="215.137,-136.177 225.73,-136.372 217.57,-129.613 215.137,-136.177"/>
<text text-anchor="middle" x="215.5" y="-109.5" font-family="Helvetica,sans-Serif" font-size="10.00"> myPropertyMap</text>
</g>
<!-- Node5&#45;&gt;Node4 -->
<g id="edge4" class="edge"><title>Node5&#45;&gt;Node4</title>
<path fill="none" stroke="#9a32cd" stroke-dasharray="5,2" d="M269.694,-129.928C287.034,-115.287 307.803,-91.8341 300,-68 294.856,-52.2863 291.343,-47.7647 278,-38 266.526,-29.6027 252.261,-23.6926 238.968,-19.5905"/>
<polygon fill="#9a32cd" stroke="#9a32cd" points="267.243,-127.405 261.597,-136.37 271.601,-132.883 267.243,-127.405"/>
<text text-anchor="middle" x="355" y="-75.5" font-family="Helvetica,sans-Serif" font-size="10.00"> myPatchPropertyMap</text>
</g>
<!-- Node6 -->
<g id="node6" class="node"><title>Node6</title>
<polygon fill="white" stroke="#bfbfbf" points="135,-68.5 135,-87.5 291,-87.5 291,-68.5 135,-68.5"/>
<text text-anchor="middle" x="213" y="-75.5" font-family="Helvetica,sans-Serif" font-size="10.00">List&lt; model.patches.Patch &gt;</text>
</g>
<!-- Node6&#45;&gt;Node4 -->
<g id="edge6" class="edge"><title>Node6&#45;&gt;Node4</title>
<path fill="none" stroke="#9a32cd" stroke-dasharray="5,2" d="M208.778,-58.425C205.909,-45.7978 202.241,-29.6623 200.009,-19.8411"/>
<polygon fill="#9a32cd" stroke="#9a32cd" points="205.41,-59.396 211.039,-68.3717 212.236,-57.8446 205.41,-59.396"/>
<text text-anchor="middle" x="240.5" y="-41.5" font-family="Helvetica,sans-Serif" font-size="10.00"> myNeighbors</text>
</g>
</g>
</svg>
