<?xml version="1.0" encoding="UTF-8" standalone="no"?>
<!DOCTYPE svg PUBLIC "-//W3C//DTD SVG 1.1//EN"
 "http://www.w3.org/Graphics/SVG/1.1/DTD/svg11.dtd">
<!-- Generated by graphviz version 2.36.0 (20140111.2315)
 -->
<!-- Title: model.cells.PredatorCellFish.moveSquareTo Pages: 1 -->
<svg width="320pt" height="104pt"
 viewBox="0.00 0.00 320.00 104.00" xmlns="http://www.w3.org/2000/svg" xmlns:xlink="http://www.w3.org/1999/xlink">
<g id="graph0" class="graph" transform="scale(1 1) rotate(0) translate(4 100)">
<title>model.cells.PredatorCellFish.moveSquareTo</title>
<polygon fill="white" stroke="none" points="-4,4 -4,-100 316,-100 316,4 -4,4"/>
<!-- Node1 -->
<g id="node1" class="node"><title>Node1</title>
<polygon fill="#bfbfbf" stroke="black" points="0,-33 0,-63 132,-63 132,-33 0,-33"/>
<text text-anchor="start" x="8" y="-51" font-family="Helvetica,sans-Serif" font-size="10.00">model.cells.PredatorCell</text>
<text text-anchor="middle" x="66" y="-40" font-family="Helvetica,sans-Serif" font-size="10.00">Fish.moveSquareTo</text>
</g>
<!-- Node2 -->
<g id="node2" class="node"><title>Node2</title>
<g id="a_node2"><a xlink:href="../../dc/d41/classmodel_1_1cells_1_1_cell.html#a16ac8c4efc55531cf87c35c5eb987c56" target="_top" xlink:title="model.cells.Cell.getX">
<polygon fill="white" stroke="black" points="182,-76.5 182,-95.5 298,-95.5 298,-76.5 182,-76.5"/>
<text text-anchor="middle" x="240" y="-83.5" font-family="Helvetica,sans-Serif" font-size="10.00">model.cells.Cell.getX</text>
</a>
</g>
</g>
<!-- Node1&#45;&gt;Node2 -->
<g id="edge1" class="edge"><title>Node1&#45;&gt;Node2</title>
<path fill="none" stroke="midnightblue" d="M132.026,-62.3662C149.839,-66.3017 168.931,-70.5197 185.984,-74.2872"/>
<polygon fill="midnightblue" stroke="midnightblue" points="185.244,-77.708 195.764,-76.4478 186.754,-70.8728 185.244,-77.708"/>
</g>
<!-- Node3 -->
<g id="node3" class="node"><title>Node3</title>
<g id="a_node3"><a xlink:href="../../dc/d41/classmodel_1_1cells_1_1_cell.html#a1b6324942654788b14b240938158bbda" target="_top" xlink:title="model.cells.Cell.getY">
<polygon fill="white" stroke="black" points="182.5,-38.5 182.5,-57.5 297.5,-57.5 297.5,-38.5 182.5,-38.5"/>
<text text-anchor="middle" x="240" y="-45.5" font-family="Helvetica,sans-Serif" font-size="10.00">model.cells.Cell.getY</text>
</a>
</g>
</g>
<!-- Node1&#45;&gt;Node3 -->
<g id="edge2" class="edge"><title>Node1&#45;&gt;Node3</title>
<path fill="none" stroke="midnightblue" d="M132.026,-48C145.087,-48 158.836,-48 171.964,-48"/>
<polygon fill="midnightblue" stroke="midnightblue" points="172.335,-51.5001 182.335,-48 172.334,-44.5001 172.335,-51.5001"/>
</g>
<!-- Node4 -->
<g id="node4" class="node"><title>Node4</title>
<g id="a_node4"><a xlink:href="../../dc/d41/classmodel_1_1cells_1_1_cell.html#a23537f07ee3443bae1d362a68a9bc171" target="_top" xlink:title="model.cells.Cell.setCoords">
<polygon fill="white" stroke="black" points="168.5,-0.5 168.5,-19.5 311.5,-19.5 311.5,-0.5 168.5,-0.5"/>
<text text-anchor="middle" x="240" y="-7.5" font-family="Helvetica,sans-Serif" font-size="10.00">model.cells.Cell.setCoords</text>
</a>
</g>
</g>
<!-- Node1&#45;&gt;Node4 -->
<g id="edge3" class="edge"><title>Node1&#45;&gt;Node4</title>
<path fill="none" stroke="midnightblue" d="M132.026,-33.6338C149.839,-29.6983 168.931,-25.4803 185.984,-21.7128"/>
<polygon fill="midnightblue" stroke="midnightblue" points="186.754,-25.1272 195.764,-19.5522 185.244,-18.292 186.754,-25.1272"/>
</g>
</g>
</svg>
