<?xml version="1.0" encoding="UTF-8" standalone="no"?>
<!DOCTYPE svg PUBLIC "-//W3C//DTD SVG 1.1//EN"
 "http://www.w3.org/Graphics/SVG/1.1/DTD/svg11.dtd">
<!-- Generated by graphviz version 2.36.0 (20140111.2315)
 -->
<!-- Title: model.cells.PredatorCellFish.update Pages: 1 -->
<svg width="488pt" height="104pt"
 viewBox="0.00 0.00 488.00 104.00" xmlns="http://www.w3.org/2000/svg" xmlns:xlink="http://www.w3.org/1999/xlink">
<g id="graph0" class="graph" transform="scale(1 1) rotate(0) translate(4 100)">
<title>model.cells.PredatorCellFish.update</title>
<polygon fill="white" stroke="none" points="-4,4 -4,-100 484,-100 484,4 -4,4"/>
<!-- Node1 -->
<g id="node1" class="node"><title>Node1</title>
<polygon fill="#bfbfbf" stroke="black" points="0,-33 0,-63 132,-63 132,-33 0,-33"/>
<text text-anchor="start" x="8" y="-51" font-family="Helvetica,sans-Serif" font-size="10.00">model.cells.PredatorCell</text>
<text text-anchor="middle" x="66" y="-40" font-family="Helvetica,sans-Serif" font-size="10.00">Fish.update</text>
</g>
<!-- Node2 -->
<g id="node2" class="node"><title>Node2</title>
<g id="a_node2"><a xlink:href="../../df/dc2/classmodel_1_1cells_1_1_predator_cell_fish.html#a8f54a32666079575970d673568d1bafe" target="_top" xlink:title="model.cells.PredatorCell\lFish.moveSquareTo">
<polygon fill="white" stroke="black" points="168,-33 168,-63 300,-63 300,-33 168,-33"/>
<text text-anchor="start" x="176" y="-51" font-family="Helvetica,sans-Serif" font-size="10.00">model.cells.PredatorCell</text>
<text text-anchor="middle" x="234" y="-40" font-family="Helvetica,sans-Serif" font-size="10.00">Fish.moveSquareTo</text>
</a>
</g>
</g>
<!-- Node1&#45;&gt;Node2 -->
<g id="edge1" class="edge"><title>Node1&#45;&gt;Node2</title>
<path fill="none" stroke="midnightblue" d="M132.131,-48C140.461,-48 149.044,-48 157.521,-48"/>
<polygon fill="midnightblue" stroke="midnightblue" points="157.784,-51.5001 167.784,-48 157.784,-44.5001 157.784,-51.5001"/>
</g>
<!-- Node3 -->
<g id="node3" class="node"><title>Node3</title>
<g id="a_node3"><a xlink:href="../../dc/d41/classmodel_1_1cells_1_1_cell.html#a16ac8c4efc55531cf87c35c5eb987c56" target="_top" xlink:title="model.cells.Cell.getX">
<polygon fill="white" stroke="black" points="350,-76.5 350,-95.5 466,-95.5 466,-76.5 350,-76.5"/>
<text text-anchor="middle" x="408" y="-83.5" font-family="Helvetica,sans-Serif" font-size="10.00">model.cells.Cell.getX</text>
</a>
</g>
</g>
<!-- Node2&#45;&gt;Node3 -->
<g id="edge2" class="edge"><title>Node2&#45;&gt;Node3</title>
<path fill="none" stroke="midnightblue" d="M300.026,-62.3662C317.839,-66.3017 336.931,-70.5197 353.984,-74.2872"/>
<polygon fill="midnightblue" stroke="midnightblue" points="353.244,-77.708 363.764,-76.4478 354.754,-70.8728 353.244,-77.708"/>
</g>
<!-- Node4 -->
<g id="node4" class="node"><title>Node4</title>
<g id="a_node4"><a xlink:href="../../dc/d41/classmodel_1_1cells_1_1_cell.html#a1b6324942654788b14b240938158bbda" target="_top" xlink:title="model.cells.Cell.getY">
<polygon fill="white" stroke="black" points="350.5,-38.5 350.5,-57.5 465.5,-57.5 465.5,-38.5 350.5,-38.5"/>
<text text-anchor="middle" x="408" y="-45.5" font-family="Helvetica,sans-Serif" font-size="10.00">model.cells.Cell.getY</text>
</a>
</g>
</g>
<!-- Node2&#45;&gt;Node4 -->
<g id="edge3" class="edge"><title>Node2&#45;&gt;Node4</title>
<path fill="none" stroke="midnightblue" d="M300.026,-48C313.087,-48 326.836,-48 339.964,-48"/>
<polygon fill="midnightblue" stroke="midnightblue" points="340.335,-51.5001 350.335,-48 340.334,-44.5001 340.335,-51.5001"/>
</g>
<!-- Node5 -->
<g id="node5" class="node"><title>Node5</title>
<g id="a_node5"><a xlink:href="../../dc/d41/classmodel_1_1cells_1_1_cell.html#a23537f07ee3443bae1d362a68a9bc171" target="_top" xlink:title="model.cells.Cell.setCoords">
<polygon fill="white" stroke="black" points="336.5,-0.5 336.5,-19.5 479.5,-19.5 479.5,-0.5 336.5,-0.5"/>
<text text-anchor="middle" x="408" y="-7.5" font-family="Helvetica,sans-Serif" font-size="10.00">model.cells.Cell.setCoords</text>
</a>
</g>
</g>
<!-- Node2&#45;&gt;Node5 -->
<g id="edge4" class="edge"><title>Node2&#45;&gt;Node5</title>
<path fill="none" stroke="midnightblue" d="M300.026,-33.6338C317.839,-29.6983 336.931,-25.4803 353.984,-21.7128"/>
<polygon fill="midnightblue" stroke="midnightblue" points="354.754,-25.1272 363.764,-19.5522 353.244,-18.292 354.754,-25.1272"/>
</g>
</g>
</svg>
