<?xml version="1.0" encoding="UTF-8" standalone="no"?>
<!DOCTYPE svg PUBLIC "-//W3C//DTD SVG 1.1//EN"
 "http://www.w3.org/Graphics/SVG/1.1/DTD/svg11.dtd">
<!-- Generated by graphviz version 2.36.0 (20140111.2315)
 -->
<!-- Title: model.patches.SugarPatch Pages: 1 -->
<svg width="415pt" height="164pt"
 viewBox="0.00 0.00 415.00 164.00" xmlns="http://www.w3.org/2000/svg" xmlns:xlink="http://www.w3.org/1999/xlink">
<g id="graph0" class="graph" transform="scale(1 1) rotate(0) translate(4 160)">
<title>model.patches.SugarPatch</title>
<polygon fill="white" stroke="none" points="-4,4 -4,-160 411,-160 411,4 -4,4"/>
<!-- Node1 -->
<g id="node1" class="node"><title>Node1</title>
<polygon fill="#bfbfbf" stroke="black" points="0,-0.5 0,-19.5 146,-19.5 146,-0.5 0,-0.5"/>
<text text-anchor="middle" x="73" y="-7.5" font-family="Helvetica,sans-Serif" font-size="10.00">model.patches.SugarPatch</text>
</g>
<!-- Node2 -->
<g id="node2" class="node"><title>Node2</title>
<g id="a_node2"><a xlink:href="../../db/d90/classmodel_1_1patches_1_1_patch.html" target="_top" xlink:title="model.patches.Patch">
<polygon fill="white" stroke="black" points="32.5,-68.5 32.5,-87.5 149.5,-87.5 149.5,-68.5 32.5,-68.5"/>
<text text-anchor="middle" x="91" y="-75.5" font-family="Helvetica,sans-Serif" font-size="10.00">model.patches.Patch</text>
</a>
</g>
</g>
<!-- Node2&#45;&gt;Node1 -->
<g id="edge1" class="edge"><title>Node2&#45;&gt;Node1</title>
<path fill="none" stroke="midnightblue" d="M85.9341,-58.425C82.4903,-45.7978 78.0897,-29.6623 75.4112,-19.8411"/>
<polygon fill="midnightblue" stroke="midnightblue" points="82.6389,-59.6449 88.6468,-68.3717 89.3922,-57.8031 82.6389,-59.6449"/>
</g>
<!-- Node4 -->
<g id="node4" class="node"><title>Node4</title>
<g id="a_node4"><a xlink:href="../../dc/d41/classmodel_1_1cells_1_1_cell.html" target="_top" xlink:title="model.cells.Cell">
<polygon fill="white" stroke="black" points="175.5,-0.5 175.5,-19.5 266.5,-19.5 266.5,-0.5 175.5,-0.5"/>
<text text-anchor="middle" x="221" y="-7.5" font-family="Helvetica,sans-Serif" font-size="10.00">model.cells.Cell</text>
</a>
</g>
</g>
<!-- Node2&#45;&gt;Node4 -->
<g id="edge5" class="edge"><title>Node2&#45;&gt;Node4</title>
<path fill="none" stroke="#9a32cd" stroke-dasharray="5,2" d="M117.219,-63.6889C143.098,-50.5502 181.906,-30.8475 204.001,-19.6305"/>
<polygon fill="#9a32cd" stroke="#9a32cd" points="115.327,-60.7238 107.995,-68.3717 118.496,-66.9655 115.327,-60.7238"/>
<text text-anchor="middle" x="190.5" y="-41.5" font-family="Helvetica,sans-Serif" font-size="10.00"> myPatch</text>
</g>
<!-- Node3 -->
<g id="node3" class="node"><title>Node3</title>
<polygon fill="white" stroke="#bfbfbf" points="228,-136.5 228,-155.5 356,-155.5 356,-136.5 228,-136.5"/>
<text text-anchor="middle" x="292" y="-143.5" font-family="Helvetica,sans-Serif" font-size="10.00">Map&lt; String, Double &gt;</text>
</g>
<!-- Node3&#45;&gt;Node2 -->
<g id="edge2" class="edge"><title>Node3&#45;&gt;Node2</title>
<path fill="none" stroke="#9a32cd" stroke-dasharray="5,2" d="M256.096,-133.211C216.098,-120.077 152.41,-99.1646 116.965,-87.5259"/>
<polygon fill="#9a32cd" stroke="#9a32cd" points="255.13,-136.577 265.723,-136.372 257.314,-129.927 255.13,-136.577"/>
<text text-anchor="middle" x="263" y="-109.5" font-family="Helvetica,sans-Serif" font-size="10.00"> myPatchPropertyMap</text>
</g>
<!-- Node3&#45;&gt;Node4 -->
<g id="edge6" class="edge"><title>Node3&#45;&gt;Node4</title>
<path fill="none" stroke="#9a32cd" stroke-dasharray="5,2" d="M312.444,-129.294C315.521,-125.927 318.247,-122.125 320,-118 330.674,-92.8794 334.875,-74.4183 300,-38 291.078,-28.6832 278.811,-22.5812 266.604,-18.5847"/>
<polygon fill="#9a32cd" stroke="#9a32cd" points="309.844,-126.933 304.921,-136.315 314.62,-132.051 309.844,-126.933"/>
<text text-anchor="middle" x="367.5" y="-75.5" font-family="Helvetica,sans-Serif" font-size="10.00"> myPropertyMap</text>
</g>
<!-- Node4&#45;&gt;Node2 -->
<g id="edge3" class="edge"><title>Node4&#45;&gt;Node2</title>
<path fill="none" stroke="#9a32cd" stroke-dasharray="5,2" d="M165.419,-19.2587C141.147,-23.8367 116.14,-30.191 107,-38 97.9859,-45.7013 93.973,-59.2732 92.2414,-68.2018"/>
<polygon fill="#9a32cd" stroke="#9a32cd" points="166.144,-22.6846 175.366,-17.4685 164.904,-15.7953 166.144,-22.6846"/>
<text text-anchor="middle" x="125" y="-41.5" font-family="Helvetica,sans-Serif" font-size="10.00"> myCell</text>
</g>
<!-- Node5 -->
<g id="node5" class="node"><title>Node5</title>
<polygon fill="white" stroke="#bfbfbf" points="168,-68.5 168,-87.5 298,-87.5 298,-68.5 168,-68.5"/>
<text text-anchor="middle" x="233" y="-75.5" font-family="Helvetica,sans-Serif" font-size="10.00">List&lt; model.cells.Cell &gt;</text>
</g>
<!-- Node5&#45;&gt;Node4 -->
<g id="edge4" class="edge"><title>Node5&#45;&gt;Node4</title>
<path fill="none" stroke="#9a32cd" stroke-dasharray="5,2" d="M229.623,-58.425C227.327,-45.7978 224.393,-29.6623 222.607,-19.8411"/>
<polygon fill="#9a32cd" stroke="#9a32cd" points="226.199,-59.1591 231.431,-68.3717 233.086,-57.9068 226.199,-59.1591"/>
<text text-anchor="middle" x="262.5" y="-41.5" font-family="Helvetica,sans-Serif" font-size="10.00"> myNeighbors</text>
</g>
<!-- Node6 -->
<g id="node6" class="node"><title>Node6</title>
<polygon fill="white" stroke="#bfbfbf" points="13,-136.5 13,-155.5 169,-155.5 169,-136.5 13,-136.5"/>
<text text-anchor="middle" x="91" y="-143.5" font-family="Helvetica,sans-Serif" font-size="10.00">List&lt; model.patches.Patch &gt;</text>
</g>
<!-- Node6&#45;&gt;Node2 -->
<g id="edge7" class="edge"><title>Node6&#45;&gt;Node2</title>
<path fill="none" stroke="#9a32cd" stroke-dasharray="5,2" d="M91,-126.041C91,-113.472 91,-97.5631 91,-87.8411"/>
<polygon fill="#9a32cd" stroke="#9a32cd" points="87.5001,-126.372 91,-136.372 94.5001,-126.372 87.5001,-126.372"/>
<text text-anchor="middle" x="124.5" y="-109.5" font-family="Helvetica,sans-Serif" font-size="10.00"> myNeighbors</text>
</g>
</g>
</svg>
