<?xml version="1.0" encoding="UTF-8" standalone="no"?>
<!DOCTYPE svg PUBLIC "-//W3C//DTD SVG 1.1//EN"
 "http://www.w3.org/Graphics/SVG/1.1/DTD/svg11.dtd">
<!-- Generated by graphviz version 2.36.0 (20140111.2315)
 -->
<!-- Title: view.SideMenu Pages: 1 -->
<!--zoomable 621 -->
<svg id="main" version="1.1" xmlns="http://www.w3.org/2000/svg" xmlns:xlink="http://www.w3.org/1999/xlink" xml:space="preserve" onload="init(evt)">
<style type="text/css"><![CDATA[
.edge:hover path { stroke: red; }
.edge:hover polygon { stroke: red; fill: red; }
]]></style>
<script type="text/javascript"><![CDATA[
var edges = document.getElementsByTagName('g');
if (edges && edges.length) {
  for (var i=0;i<edges.length;i++) {
    if (edges[i].id.substr(0,4)=='edge') {
      edges[i].setAttribute('class','edge');
    }
  }
}
]]></script>
        <defs>
                <circle id="rim" cx="0" cy="0" r="7"/>
                <circle id="rim2" cx="0" cy="0" r="3.5"/>
                <g id="zoomPlus">
                        <use xlink:href="#rim" fill="#404040">
                                <set attributeName="fill" to="#808080" begin="zoomplus.mouseover" end="zoomplus.mouseout"/>
                        </use>
                        <path d="M-4,0h8M0,-4v8" fill="none" stroke="white" stroke-width="1.5" pointer-events="none"/>
                </g>
                <g id="zoomMin">
                        <use xlink:href="#rim" fill="#404040">
                                <set attributeName="fill" to="#808080" begin="zoomminus.mouseover" end="zoomminus.mouseout"/>
                        </use>
                        <path d="M-4,0h8" fill="none" stroke="white" stroke-width="1.5" pointer-events="none"/>
                </g>
                <g id="dirArrow">
                        <path fill="none" stroke="white" stroke-width="1.5" d="M0,-3.0v7 M-2.5,-0.5L0,-3.0L2.5,-0.5"/>
                </g>
               <g id="resetDef">
                       <use xlink:href="#rim2" fill="#404040">
                               <set attributeName="fill" to="#808080" begin="reset.mouseover" end="reset.mouseout"/>
                       </use>
               </g>
        </defs>

<script type="text/javascript">
var viewWidth = 1020;
var viewHeight = 621;
var sectionId = 'dynsection-0';
</script>
<script xlink:href="../../svgpan.js"/>
<svg id="graph" class="graph">
<g id="viewport">
<title>view.SideMenu</title>
<polygon fill="white" stroke="none" points="-4,4 -4,-616.69 1016,-616.69 1016,4 -4,4"/>
<!-- Node1 -->
<g id="node1" class="node"><title>Node1</title>
<polygon fill="#bfbfbf" stroke="black" points="630,-264.19 630,-283.19 716,-283.19 716,-264.19 630,-264.19"/>
<text text-anchor="middle" x="673" y="-271.19" font-family="Helvetica,sans-Serif" font-size="10.00">view.SideMenu</text>
</g>
<!-- Node2 -->
<g id="node2" class="node"><title>Node2</title>
<g id="a_node2"><a xlink:href="../../d6/d7b/classcontroller_1_1_cell_society_controller.html" target="_top" xlink:title="controller.CellSocietyController">
<polygon fill="white" stroke="black" points="258.5,-259.19 258.5,-278.19 421.5,-278.19 421.5,-259.19 258.5,-259.19"/>
<text text-anchor="middle" x="340" y="-266.19" font-family="Helvetica,sans-Serif" font-size="10.00">controller.CellSocietyController</text>
</a>
</g>
</g>
<!-- Node2&#45;&gt;Node1 -->
<g id="edge1" class="edge"><title>Node2&#45;&gt;Node1</title>
<path fill="none" stroke="#9a32cd" stroke-dasharray="5,2" d="M420.843,-279.208C427.316,-279.805 433.762,-280.314 440,-280.69 502.109,-284.441 517.823,-283.052 580,-280.69 596.327,-280.07 614.249,-278.833 629.902,-277.569"/>
<polygon fill="#9a32cd" stroke="#9a32cd" points="420.971,-275.704 410.676,-278.205 420.284,-282.67 420.971,-275.704"/>
<text text-anchor="middle" x="510" y="-286.69" font-family="Helvetica,sans-Serif" font-size="10.00"> myController</text>
</g>
<!-- Node14 -->
<g id="node14" class="node"><title>Node14</title>
<g id="a_node14"><a xlink:href="../../d1/d3e/classview_1_1_simulation_screen.html" target="_top" xlink:title="view.SimulationScreen">
<polygon fill="white" stroke="black" points="611,-157.19 611,-176.19 735,-176.19 735,-157.19 611,-157.19"/>
<text text-anchor="middle" x="673" y="-164.19" font-family="Helvetica,sans-Serif" font-size="10.00">view.SimulationScreen</text>
</a>
</g>
</g>
<!-- Node2&#45;&gt;Node14 -->
<g id="edge18" class="edge"><title>Node2&#45;&gt;Node14</title>
<path fill="none" stroke="#9a32cd" stroke-dasharray="5,2" d="M432.095,-266.06C488.088,-263.338 553.938,-257.825 580,-246.69 617.371,-230.724 650.436,-193.707 664.632,-176.197"/>
<polygon fill="#9a32cd" stroke="#9a32cd" points="431.594,-262.58 421.766,-266.537 431.917,-269.572 431.594,-262.58"/>
<text text-anchor="middle" x="510" y="-268.69" font-family="Helvetica,sans-Serif" font-size="10.00"> myController</text>
</g>
<!-- Node3 -->
<g id="node3" class="node"><title>Node3</title>
<polygon fill="white" stroke="#bfbfbf" points="46,-316.19 46,-335.19 102,-335.19 102,-316.19 46,-316.19"/>
<text text-anchor="middle" x="74" y="-323.19" font-family="Helvetica,sans-Serif" font-size="10.00">Timeline</text>
</g>
<!-- Node3&#45;&gt;Node2 -->
<g id="edge2" class="edge"><title>Node3&#45;&gt;Node2</title>
<path fill="none" stroke="#9a32cd" stroke-dasharray="5,2" d="M112.308,-320.242C145.893,-315.075 196.507,-306.636 240,-296.69 263.158,-291.395 288.975,-284.044 308.437,-278.203"/>
<polygon fill="#9a32cd" stroke="#9a32cd" points="111.394,-316.841 102.033,-321.802 112.445,-323.761 111.394,-316.841"/>
<text text-anchor="middle" x="203" y="-314.69" font-family="Helvetica,sans-Serif" font-size="10.00"> myTimeline</text>
</g>
<!-- Node4 -->
<g id="node4" class="node"><title>Node4</title>
<polygon fill="white" stroke="#bfbfbf" points="0.5,-278.19 0.5,-297.19 147.5,-297.19 147.5,-278.19 0.5,-278.19"/>
<text text-anchor="middle" x="74" y="-285.19" font-family="Helvetica,sans-Serif" font-size="10.00">HashMap&lt; String, String &gt;</text>
</g>
<!-- Node4&#45;&gt;Node2 -->
<g id="edge3" class="edge"><title>Node4&#45;&gt;Node2</title>
<path fill="none" stroke="#9a32cd" stroke-dasharray="5,2" d="M158.033,-281.714C189.952,-279.417 226.321,-276.8 258.042,-274.517"/>
<polygon fill="#9a32cd" stroke="#9a32cd" points="157.561,-278.239 147.838,-282.448 158.063,-285.221 157.561,-278.239"/>
<text text-anchor="middle" x="203" y="-284.69" font-family="Helvetica,sans-Serif" font-size="10.00"> myParameters</text>
</g>
<!-- Node5 -->
<g id="node5" class="node"><title>Node5</title>
<polygon fill="white" stroke="#bfbfbf" points="51.5,-240.19 51.5,-259.19 96.5,-259.19 96.5,-240.19 51.5,-240.19"/>
<text text-anchor="middle" x="74" y="-247.19" font-family="Helvetica,sans-Serif" font-size="10.00">Stage</text>
</g>
<!-- Node5&#45;&gt;Node2 -->
<g id="edge4" class="edge"><title>Node5&#45;&gt;Node2</title>
<path fill="none" stroke="#9a32cd" stroke-dasharray="5,2" d="M106.861,-251.983C144.173,-254.669 207.371,-259.217 258.413,-262.89"/>
<polygon fill="#9a32cd" stroke="#9a32cd" points="106.83,-248.472 96.6042,-251.245 106.327,-255.454 106.83,-248.472"/>
<text text-anchor="middle" x="203" y="-264.69" font-family="Helvetica,sans-Serif" font-size="10.00"> myStage</text>
</g>
<!-- Node6 -->
<g id="node6" class="node"><title>Node6</title>
<g id="a_node6"><a xlink:href="../../d0/d56/classmodel_1_1simulations_1_1_simulation.html" target="_top" xlink:title="model.simulations.Simulation">
<polygon fill="white" stroke="black" points="854,-367.19 854,-386.19 1012,-386.19 1012,-367.19 854,-367.19"/>
<text text-anchor="middle" x="933" y="-374.19" font-family="Helvetica,sans-Serif" font-size="10.00">model.simulations.Simulation</text>
</a>
</g>
</g>
<!-- Node6&#45;&gt;Node2 -->
<g id="edge5" class="edge"><title>Node6&#45;&gt;Node2</title>
<path fill="none" stroke="#9a32cd" stroke-dasharray="5,2" d="M843.595,-367.524C744.362,-356.118 579.041,-333.754 440,-298.69 416.143,-292.674 389.467,-284.505 369.823,-278.211"/>
<polygon fill="#9a32cd" stroke="#9a32cd" points="843.25,-371.007 853.582,-368.66 844.042,-364.052 843.25,-371.007"/>
<text text-anchor="middle" x="673" y="-358.69" font-family="Helvetica,sans-Serif" font-size="10.00"> myCurrentSimulation</text>
</g>
<!-- Node7 -->
<g id="node7" class="node"><title>Node7</title>
<g id="a_node7"><a xlink:href="../../dc/d86/classmodel_1_1simulations_1_1_abstract_cell_factory.html" target="_top" xlink:title="model.simulations.Abstract\lCellFactory">
<polygon fill="white" stroke="black" points="599,-425.69 599,-455.69 747,-455.69 747,-425.69 599,-425.69"/>
<text text-anchor="start" x="607" y="-443.69" font-family="Helvetica,sans-Serif" font-size="10.00">model.simulations.Abstract</text>
<text text-anchor="middle" x="673" y="-432.69" font-family="Helvetica,sans-Serif" font-size="10.00">CellFactory</text>
</a>
</g>
</g>
<!-- Node7&#45;&gt;Node6 -->
<g id="edge6" class="edge"><title>Node7&#45;&gt;Node6</title>
<path fill="none" stroke="#9a32cd" stroke-dasharray="5,2" d="M756.45,-423.456C782.027,-417.818 810.255,-411.298 836,-404.69 857.861,-399.08 882.275,-391.947 901.012,-386.285"/>
<polygon fill="#9a32cd" stroke="#9a32cd" points="755.436,-420.095 746.416,-425.653 756.933,-426.933 755.436,-420.095"/>
<text text-anchor="middle" x="801" y="-423.69" font-family="Helvetica,sans-Serif" font-size="10.00"> myCellFactory</text>
</g>
<!-- Node8 -->
<g id="node8" class="node"><title>Node8</title>
<g id="a_node8"><a xlink:href="../../da/d6d/classmodel_1_1gridrules_1_1_grid_rules.html" target="_top" xlink:title="model.gridrules.GridRules">
<polygon fill="white" stroke="black" points="604,-387.19 604,-406.19 742,-406.19 742,-387.19 604,-387.19"/>
<text text-anchor="middle" x="673" y="-394.19" font-family="Helvetica,sans-Serif" font-size="10.00">model.gridrules.GridRules</text>
</a>
</g>
</g>
<!-- Node8&#45;&gt;Node6 -->
<g id="edge7" class="edge"><title>Node8&#45;&gt;Node6</title>
<path fill="none" stroke="#9a32cd" stroke-dasharray="5,2" d="M752.385,-390.614C784.567,-388.119 821.745,-385.237 853.898,-382.745"/>
<polygon fill="#9a32cd" stroke="#9a32cd" points="751.823,-387.147 742.124,-391.409 752.365,-394.126 751.823,-387.147"/>
<text text-anchor="middle" x="801" y="-392.69" font-family="Helvetica,sans-Serif" font-size="10.00"> myGridRules</text>
</g>
<!-- Node9 -->
<g id="node9" class="node"><title>Node9</title>
<g id="a_node9"><a xlink:href="../../db/d90/classmodel_1_1patches_1_1_patch.html" target="_top" xlink:title="model.patches.Patch">
<polygon fill="white" stroke="black" points="614.5,-494.19 614.5,-513.19 731.5,-513.19 731.5,-494.19 614.5,-494.19"/>
<text text-anchor="middle" x="673" y="-501.19" font-family="Helvetica,sans-Serif" font-size="10.00">model.patches.Patch</text>
</a>
</g>
</g>
<!-- Node9&#45;&gt;Node6 -->
<g id="edge8" class="edge"><title>Node9&#45;&gt;Node6</title>
<path fill="none" stroke="#9a32cd" stroke-dasharray="5,2" d="M709.839,-490.474C743.148,-477.766 793.825,-457.34 836,-435.69 866.108,-420.235 899.365,-398.724 917.764,-386.401"/>
<polygon fill="#9a32cd" stroke="#9a32cd" points="708.202,-487.351 700.087,-494.163 710.679,-493.898 708.202,-487.351"/>
<text text-anchor="middle" x="801" y="-470.69" font-family="Helvetica,sans-Serif" font-size="10.00"> myPatchGrid</text>
</g>
<!-- Node11 -->
<g id="node11" class="node"><title>Node11</title>
<g id="a_node11"><a xlink:href="../../dc/d41/classmodel_1_1cells_1_1_cell.html" target="_top" xlink:title="model.cells.Cell">
<polygon fill="white" stroke="black" points="887.5,-541.19 887.5,-560.19 978.5,-560.19 978.5,-541.19 887.5,-541.19"/>
<text text-anchor="middle" x="933" y="-548.19" font-family="Helvetica,sans-Serif" font-size="10.00">model.cells.Cell</text>
</a>
</g>
</g>
<!-- Node9&#45;&gt;Node11 -->
<g id="edge12" class="edge"><title>Node9&#45;&gt;Node11</title>
<path fill="none" stroke="#9a32cd" stroke-dasharray="5,2" d="M741.815,-498.173C771.118,-497.414 805.59,-498.719 836,-505.69 866.321,-512.641 898.446,-530.026 916.779,-541.039"/>
<polygon fill="#9a32cd" stroke="#9a32cd" points="741.554,-494.679 731.68,-498.521 741.795,-501.675 741.554,-494.679"/>
<text text-anchor="middle" x="801" y="-508.69" font-family="Helvetica,sans-Serif" font-size="10.00"> myPatch</text>
</g>
<!-- Node10 -->
<g id="node10" class="node"><title>Node10</title>
<polygon fill="white" stroke="#bfbfbf" points="276,-543.19 276,-562.19 404,-562.19 404,-543.19 276,-543.19"/>
<text text-anchor="middle" x="340" y="-550.19" font-family="Helvetica,sans-Serif" font-size="10.00">Map&lt; String, Double &gt;</text>
</g>
<!-- Node10&#45;&gt;Node9 -->
<g id="edge9" class="edge"><title>Node10&#45;&gt;Node9</title>
<path fill="none" stroke="#9a32cd" stroke-dasharray="5,2" d="M414.254,-541.846C474.571,-532.917 558.906,-520.432 614.456,-512.209"/>
<polygon fill="#9a32cd" stroke="#9a32cd" points="413.417,-538.432 404.038,-543.358 414.442,-545.356 413.417,-538.432"/>
<text text-anchor="middle" x="510" y="-539.69" font-family="Helvetica,sans-Serif" font-size="10.00"> myPatchPropertyMap</text>
</g>
<!-- Node10&#45;&gt;Node11 -->
<g id="edge13" class="edge"><title>Node10&#45;&gt;Node11</title>
<path fill="none" stroke="#9a32cd" stroke-dasharray="5,2" d="M414.408,-552.442C538.424,-552.022 785.797,-551.185 887.132,-550.842"/>
<polygon fill="#9a32cd" stroke="#9a32cd" points="414.235,-548.942 404.247,-552.476 414.259,-555.942 414.235,-548.942"/>
<text text-anchor="middle" x="673" y="-554.69" font-family="Helvetica,sans-Serif" font-size="10.00"> myPropertyMap</text>
</g>
<!-- Node11&#45;&gt;Node9 -->
<g id="edge10" class="edge"><title>Node11&#45;&gt;Node9</title>
<path fill="none" stroke="#9a32cd" stroke-dasharray="5,2" d="M877.107,-540.69C832.52,-532.568 770.059,-521.19 726.21,-513.201"/>
<polygon fill="#9a32cd" stroke="#9a32cd" points="876.719,-544.177 887.184,-542.526 877.973,-537.291 876.719,-544.177"/>
<text text-anchor="middle" x="801" y="-535.69" font-family="Helvetica,sans-Serif" font-size="10.00"> myCell</text>
</g>
<!-- Node12 -->
<g id="node12" class="node"><title>Node12</title>
<polygon fill="white" stroke="#bfbfbf" points="608,-593.19 608,-612.19 738,-612.19 738,-593.19 608,-593.19"/>
<text text-anchor="middle" x="673" y="-600.19" font-family="Helvetica,sans-Serif" font-size="10.00">List&lt; model.cells.Cell &gt;</text>
</g>
<!-- Node12&#45;&gt;Node11 -->
<g id="edge11" class="edge"><title>Node12&#45;&gt;Node11</title>
<path fill="none" stroke="#9a32cd" stroke-dasharray="5,2" d="M748.202,-593.166C775.892,-589.107 807.516,-583.87 836,-577.69 858.165,-572.882 882.783,-565.924 901.541,-560.276"/>
<polygon fill="#9a32cd" stroke="#9a32cd" points="747.59,-589.718 738.191,-594.607 748.588,-596.646 747.59,-589.718"/>
<text text-anchor="middle" x="801" y="-592.69" font-family="Helvetica,sans-Serif" font-size="10.00"> myNeighbors</text>
</g>
<!-- Node13 -->
<g id="node13" class="node"><title>Node13</title>
<polygon fill="white" stroke="#bfbfbf" points="262,-494.19 262,-513.19 418,-513.19 418,-494.19 262,-494.19"/>
<text text-anchor="middle" x="340" y="-501.19" font-family="Helvetica,sans-Serif" font-size="10.00">List&lt; model.patches.Patch &gt;</text>
</g>
<!-- Node13&#45;&gt;Node9 -->
<g id="edge14" class="edge"><title>Node13&#45;&gt;Node9</title>
<path fill="none" stroke="#9a32cd" stroke-dasharray="5,2" d="M428.216,-503.69C487.043,-503.69 563.016,-503.69 614.396,-503.69"/>
<polygon fill="#9a32cd" stroke="#9a32cd" points="428.187,-500.19 418.187,-503.69 428.187,-507.19 428.187,-500.19"/>
<text text-anchor="middle" x="510" y="-506.69" font-family="Helvetica,sans-Serif" font-size="10.00"> myNeighbors</text>
</g>
<!-- Node14&#45;&gt;Node2 -->
<g id="edge26" class="edge"><title>Node14&#45;&gt;Node2</title>
<path fill="none" stroke="#9a32cd" stroke-dasharray="5,2" d="M647.981,-181.337C629.916,-191.688 604.214,-205.034 580,-212.69 520.01,-231.66 501.049,-218.468 440,-233.69 413.467,-240.306 384.039,-251.185 364.217,-259.06"/>
<polygon fill="#9a32cd" stroke="#9a32cd" points="649.821,-184.316 656.683,-176.244 646.285,-178.275 649.821,-184.316"/>
<text text-anchor="middle" x="510" y="-236.69" font-family="Helvetica,sans-Serif" font-size="10.00"> myCurrentSimulationScreen</text>
</g>
<!-- Node14&#45;&gt;Node6 -->
<g id="edge15" class="edge"><title>Node14&#45;&gt;Node6</title>
<path fill="none" stroke="#9a32cd" stroke-dasharray="5,2" d="M693.719,-182.74C744.647,-224.194 879.438,-333.908 920.175,-367.065"/>
<polygon fill="#9a32cd" stroke="#9a32cd" points="695.721,-179.858 685.756,-176.259 691.302,-185.286 695.721,-179.858"/>
<text text-anchor="middle" x="801" y="-299.69" font-family="Helvetica,sans-Serif" font-size="10.00"> myView</text>
</g>
<!-- Node15 -->
<g id="node15" class="node"><title>Node15</title>
<polygon fill="white" stroke="#bfbfbf" points="279.5,-117.69 279.5,-147.69 400.5,-147.69 400.5,-117.69 279.5,-117.69"/>
<text text-anchor="start" x="287.5" y="-135.69" font-family="Helvetica,sans-Serif" font-size="10.00">Map&lt; Color, ArrayList</text>
<text text-anchor="middle" x="340" y="-124.69" font-family="Helvetica,sans-Serif" font-size="10.00">&lt; Integer &gt; &gt;</text>
</g>
<!-- Node15&#45;&gt;Node14 -->
<g id="edge16" class="edge"><title>Node15&#45;&gt;Node14</title>
<path fill="none" stroke="#9a32cd" stroke-dasharray="5,2" d="M410.81,-136.158C458.566,-138.969 523.257,-143.636 580,-150.69 593.836,-152.41 608.758,-154.78 622.476,-157.17"/>
<polygon fill="#9a32cd" stroke="#9a32cd" points="410.766,-132.65 400.582,-135.569 410.364,-139.638 410.766,-132.65"/>
<text text-anchor="middle" x="510" y="-153.69" font-family="Helvetica,sans-Serif" font-size="10.00"> myData</text>
</g>
<!-- Node16 -->
<g id="node16" class="node"><title>Node16</title>
<polygon fill="white" stroke="#bfbfbf" points="316.5,-79.1903 316.5,-98.1903 363.5,-98.1903 363.5,-79.1903 316.5,-79.1903"/>
<text text-anchor="middle" x="340" y="-86.1903" font-family="Helvetica,sans-Serif" font-size="10.00">Shape</text>
</g>
<!-- Node16&#45;&gt;Node14 -->
<g id="edge17" class="edge"><title>Node16&#45;&gt;Node14</title>
<path fill="none" stroke="#9a32cd" stroke-dasharray="5,2" d="M373.666,-90.4553C420.303,-93.6483 508.263,-102.18 580,-123.69 607.527,-131.944 637.298,-147.12 655.296,-157.057"/>
<polygon fill="#9a32cd" stroke="#9a32cd" points="373.752,-86.9536 363.547,-89.8027 373.301,-93.9391 373.752,-86.9536"/>
<text text-anchor="middle" x="510" y="-126.69" font-family="Helvetica,sans-Serif" font-size="10.00"> myColorGrid</text>
</g>
<!-- Node17 -->
<g id="node17" class="node"><title>Node17</title>
<polygon fill="white" stroke="#bfbfbf" points="283.5,-41.1903 283.5,-60.1903 396.5,-60.1903 396.5,-41.1903 283.5,-41.1903"/>
<text text-anchor="middle" x="340" y="-48.1903" font-family="Helvetica,sans-Serif" font-size="10.00">ArrayList&lt; Button &gt;</text>
</g>
<!-- Node17&#45;&gt;Node14 -->
<g id="edge19" class="edge"><title>Node17&#45;&gt;Node14</title>
<path fill="none" stroke="#9a32cd" stroke-dasharray="5,2" d="M407.076,-49.0759C456.794,-50.2852 525.456,-57.2424 580,-82.6903 617.828,-100.339 650.909,-139.12 664.9,-157.139"/>
<polygon fill="#9a32cd" stroke="#9a32cd" points="406.824,-45.5712 396.766,-48.9005 406.705,-52.5702 406.824,-45.5712"/>
<text text-anchor="middle" x="510" y="-85.6903" font-family="Helvetica,sans-Serif" font-size="10.00"> myButtons</text>
</g>
<!-- Node18 -->
<g id="node18" class="node"><title>Node18</title>
<polygon fill="white" stroke="#bfbfbf" points="13,-54.1903 13,-73.1903 135,-73.1903 135,-54.1903 13,-54.1903"/>
<text text-anchor="middle" x="74" y="-61.1903" font-family="Helvetica,sans-Serif" font-size="10.00">Map&lt; String, String &gt;</text>
</g>
<!-- Node18&#45;&gt;Node2 -->
<g id="edge27" class="edge"><title>Node18&#45;&gt;Node2</title>
<path fill="none" stroke="#9a32cd" stroke-dasharray="5,2" d="M109.552,-77.2629C147.143,-93.7789 206.357,-125.21 240,-170.69 257.318,-194.102 238.785,-211.809 258,-233.69 268.614,-245.777 284.147,-253.836 298.779,-259.139"/>
<polygon fill="#9a32cd" stroke="#9a32cd" points="110.597,-73.9034 100.026,-73.1931 107.847,-80.3406 110.597,-73.9034"/>
<text text-anchor="middle" x="203" y="-173.69" font-family="Helvetica,sans-Serif" font-size="10.00"> myStyles</text>
</g>
<!-- Node18&#45;&gt;Node14 -->
<g id="edge20" class="edge"><title>Node18&#45;&gt;Node14</title>
<path fill="none" stroke="#9a32cd" stroke-dasharray="5,2" d="M109.539,-50.7519C196.088,-20.6743 426.301,44.6422 580,-47.6903 625.442,-74.9889 656.665,-133.821 667.646,-157.011"/>
<polygon fill="#9a32cd" stroke="#9a32cd" points="108.206,-47.5106 99.9474,-54.1468 110.542,-54.1094 108.206,-47.5106"/>
<text text-anchor="middle" x="340" y="-14.6903" font-family="Helvetica,sans-Serif" font-size="10.00"> myStyles</text>
</g>
<!-- Node19 -->
<g id="node19" class="node"><title>Node19</title>
<polygon fill="white" stroke="#bfbfbf" points="319,-167.19 319,-186.19 361,-186.19 361,-167.19 319,-167.19"/>
<text text-anchor="middle" x="340" y="-174.19" font-family="Helvetica,sans-Serif" font-size="10.00">HBox</text>
</g>
<!-- Node19&#45;&gt;Node14 -->
<g id="edge21" class="edge"><title>Node19&#45;&gt;Node14</title>
<path fill="none" stroke="#9a32cd" stroke-dasharray="5,2" d="M371.215,-173.262C390.797,-171.208 416.873,-168.789 440,-167.69 497.935,-164.937 564.1,-164.965 610.904,-165.516"/>
<polygon fill="#9a32cd" stroke="#9a32cd" points="370.631,-169.804 361.063,-174.354 371.381,-176.764 370.631,-169.804"/>
<text text-anchor="middle" x="510" y="-170.69" font-family="Helvetica,sans-Serif" font-size="10.00"> myTop</text>
</g>
<!-- Node20 -->
<g id="node20" class="node"><title>Node20</title>
<polygon fill="white" stroke="#bfbfbf" points="304,-205.19 304,-224.19 376,-224.19 376,-205.19 304,-205.19"/>
<text text-anchor="middle" x="340" y="-212.19" font-family="Helvetica,sans-Serif" font-size="10.00">BorderPane</text>
</g>
<!-- Node20&#45;&gt;Node14 -->
<g id="edge22" class="edge"><title>Node20&#45;&gt;Node14</title>
<path fill="none" stroke="#9a32cd" stroke-dasharray="5,2" d="M386.112,-208.148C444.338,-199.705 545.88,-184.98 610.964,-175.541"/>
<polygon fill="#9a32cd" stroke="#9a32cd" points="385.504,-204.7 376.109,-209.599 386.508,-211.627 385.504,-204.7"/>
<text text-anchor="middle" x="510" y="-202.69" font-family="Helvetica,sans-Serif" font-size="10.00"> root</text>
</g>
<!-- Node21 -->
<g id="node21" class="node"><title>Node21</title>
<g id="a_node21"><a xlink:href="../../dc/de1/classmodel_1_1neighbors_1_1_neighbors.html" target="_top" xlink:title="model.neighbors.Neighbors">
<polygon fill="white" stroke="black" points="598.5,-302.19 598.5,-321.19 747.5,-321.19 747.5,-302.19 598.5,-302.19"/>
<text text-anchor="middle" x="673" y="-309.19" font-family="Helvetica,sans-Serif" font-size="10.00">model.neighbors.Neighbors</text>
</a>
</g>
</g>
<!-- Node21&#45;&gt;Node6 -->
<g id="edge23" class="edge"><title>Node21&#45;&gt;Node6</title>
<path fill="none" stroke="#9a32cd" stroke-dasharray="5,2" d="M757.548,-317.665C783.058,-320.78 810.971,-325.511 836,-332.69 865.078,-341.031 896.553,-356.899 915.256,-367.125"/>
<polygon fill="#9a32cd" stroke="#9a32cd" points="757.865,-314.178 747.529,-316.508 757.062,-321.132 757.865,-314.178"/>
<text text-anchor="middle" x="801" y="-335.69" font-family="Helvetica,sans-Serif" font-size="10.00"> myNeighbors</text>
</g>
<!-- Node22 -->
<g id="node22" class="node"><title>Node22</title>
<polygon fill="white" stroke="#bfbfbf" points="27.5,-202.19 27.5,-221.19 120.5,-221.19 120.5,-202.19 27.5,-202.19"/>
<text text-anchor="middle" x="74" y="-209.19" font-family="Helvetica,sans-Serif" font-size="10.00">ResourceBundle</text>
</g>
<!-- Node22&#45;&gt;Node2 -->
<g id="edge24" class="edge"><title>Node22&#45;&gt;Node2</title>
<path fill="none" stroke="#9a32cd" stroke-dasharray="5,2" d="M130.823,-220.606C162.901,-226.037 203.874,-233.496 240,-241.69 262.412,-246.774 287.375,-253.59 306.628,-259.102"/>
<polygon fill="#9a32cd" stroke="#9a32cd" points="131.179,-217.117 120.737,-218.915 130.021,-224.02 131.179,-217.117"/>
<text text-anchor="middle" x="203" y="-244.69" font-family="Helvetica,sans-Serif" font-size="10.00"> myProperties</text>
</g>
<!-- Node23 -->
<g id="node23" class="node"><title>Node23</title>
<polygon fill="white" stroke="#bfbfbf" points="50.5,-164.19 50.5,-183.19 97.5,-183.19 97.5,-164.19 50.5,-164.19"/>
<text text-anchor="middle" x="74" y="-171.19" font-family="Helvetica,sans-Serif" font-size="10.00">Scene</text>
</g>
<!-- Node23&#45;&gt;Node2 -->
<g id="edge25" class="edge"><title>Node23&#45;&gt;Node2</title>
<path fill="none" stroke="#9a32cd" stroke-dasharray="5,2" d="M107.91,-175.475C142.941,-178.68 198.88,-187.641 240,-212.69 250.498,-219.086 248.104,-226.398 258,-233.69 273.046,-244.777 292.147,-253.245 308.022,-259.073"/>
<polygon fill="#9a32cd" stroke="#9a32cd" points="107.999,-171.971 97.7496,-174.653 107.435,-178.948 107.999,-171.971"/>
<text text-anchor="middle" x="203" y="-215.69" font-family="Helvetica,sans-Serif" font-size="10.00"> myScene</text>
</g>
<!-- Node24 -->
<g id="node24" class="node"><title>Node24</title>
<polygon fill="white" stroke="#bfbfbf" points="51,-354.19 51,-373.19 97,-373.19 97,-354.19 51,-354.19"/>
<text text-anchor="middle" x="74" y="-361.19" font-family="Helvetica,sans-Serif" font-size="10.00">Group</text>
</g>
<!-- Node24&#45;&gt;Node2 -->
<g id="edge28" class="edge"><title>Node24&#45;&gt;Node2</title>
<path fill="none" stroke="#9a32cd" stroke-dasharray="5,2" d="M107.523,-359.436C141.45,-354.305 195.759,-344.119 240,-326.69 272.619,-313.84 307.18,-291.245 325.595,-278.378"/>
<polygon fill="#9a32cd" stroke="#9a32cd" points="106.655,-356.025 97.262,-360.927 107.661,-362.952 106.655,-356.025"/>
<text text-anchor="middle" x="203" y="-351.69" font-family="Helvetica,sans-Serif" font-size="10.00"> myGroup</text>
</g>
</g>
</svg>
        <g id="navigator" transform="translate(0 0)" fill="#404254">
                <rect fill="#f2f5e9" fill-opacity="0.5" stroke="#606060" stroke-width=".5" x="0" y="0" width="60" height="60"/>
                <use id="zoomplus" xlink:href="#zoomPlus" x="17" y="9" onmousedown="handleZoom(evt,'in')"/>
                <use id="zoomminus" xlink:href="#zoomMin" x="42" y="9" onmousedown="handleZoom(evt,'out')"/>
                <use id="reset" xlink:href="#resetDef" x="30" y="36" onmousedown="handleReset()"/>
                <g id="arrowUp" xlink:href="#dirArrow" transform="translate(30 24)" onmousedown="handlePan(0,-1)">
                  <use xlink:href="#rim" fill="#404040">
                        <set attributeName="fill" to="#808080" begin="arrowUp.mouseover" end="arrowUp.mouseout"/>
                  </use>
                  <path fill="none" stroke="white" stroke-width="1.5" d="M0,-3.0v7 M-2.5,-0.5L0,-3.0L2.5,-0.5"/>
                </g>
                <g id="arrowRight" xlink:href="#dirArrow" transform="rotate(90) translate(36 -43)" onmousedown="handlePan(1,0)">
                  <use xlink:href="#rim" fill="#404040">
                        <set attributeName="fill" to="#808080" begin="arrowRight.mouseover" end="arrowRight.mouseout"/>
                  </use>
                  <path fill="none" stroke="white" stroke-width="1.5" d="M0,-3.0v7 M-2.5,-0.5L0,-3.0L2.5,-0.5"/>
                </g>
                <g id="arrowDown" xlink:href="#dirArrow" transform="rotate(180) translate(-30 -48)" onmousedown="handlePan(0,1)">
                  <use xlink:href="#rim" fill="#404040">
                        <set attributeName="fill" to="#808080" begin="arrowDown.mouseover" end="arrowDown.mouseout"/>
                  </use>
                  <path fill="none" stroke="white" stroke-width="1.5" d="M0,-3.0v7 M-2.5,-0.5L0,-3.0L2.5,-0.5"/>
                </g>
                <g id="arrowLeft" xlink:href="#dirArrow" transform="rotate(270) translate(-36 17)" onmousedown="handlePan(-1,0)">
                  <use xlink:href="#rim" fill="#404040">
                        <set attributeName="fill" to="#808080" begin="arrowLeft.mouseover" end="arrowLeft.mouseout"/>
                  </use>
                  <path fill="none" stroke="white" stroke-width="1.5" d="M0,-3.0v7 M-2.5,-0.5L0,-3.0L2.5,-0.5"/>
                </g>
        </g>
        <svg viewBox="0 0 15 15" width="100%" height="30px" preserveAspectRatio="xMaxYMin meet">
         <g id="arrow_out" transform="scale(0.3 0.3)">
          <a xlink:href="classview_1_1_side_menu__coll__graph_org.svg" target="_base">
           <rect id="button" ry="5" rx="5" y="6" x="6" height="38" width="38"
                fill="#f2f5e9" fill-opacity="0.5" stroke="#606060" stroke-width="1.0"/>
           <path id="arrow"
             d="M 11.500037,31.436501 C 11.940474,20.09759 22.043105,11.32322 32.158766,21.979434 L 37.068811,17.246167 C 37.068811,17.246167 37.088388,32 37.088388,32 L 22.160133,31.978069 C 22.160133,31.978069 26.997745,27.140456 26.997745,27.140456 C 18.528582,18.264221 13.291696,25.230495 11.500037,31.436501 z"
             style="fill:#404040;"/>
          </a>
         </g>
        </svg>
</svg>
