<?xml version="1.0" encoding="UTF-8" standalone="no"?>
<!DOCTYPE svg PUBLIC "-//W3C//DTD SVG 1.1//EN"
 "http://www.w3.org/Graphics/SVG/1.1/DTD/svg11.dtd">
<!-- Generated by graphviz version 2.36.0 (20140111.2315)
 -->
<!-- Title: model.neighbors.SquareTriangleNeighbors.getAllNeighbors Pages: 1 -->
<!--zoomable 329 -->
<svg id="main" version="1.1" xmlns="http://www.w3.org/2000/svg" xmlns:xlink="http://www.w3.org/1999/xlink" xml:space="preserve" onload="init(evt)">
<style type="text/css"><![CDATA[
.edge:hover path { stroke: red; }
.edge:hover polygon { stroke: red; fill: red; }
]]></style>
<script type="text/javascript"><![CDATA[
var edges = document.getElementsByTagName('g');
if (edges && edges.length) {
  for (var i=0;i<edges.length;i++) {
    if (edges[i].id.substr(0,4)=='edge') {
      edges[i].setAttribute('class','edge');
    }
  }
}
]]></script>
        <defs>
                <circle id="rim" cx="0" cy="0" r="7"/>
                <circle id="rim2" cx="0" cy="0" r="3.5"/>
                <g id="zoomPlus">
                        <use xlink:href="#rim" fill="#404040">
                                <set attributeName="fill" to="#808080" begin="zoomplus.mouseover" end="zoomplus.mouseout"/>
                        </use>
                        <path d="M-4,0h8M0,-4v8" fill="none" stroke="white" stroke-width="1.5" pointer-events="none"/>
                </g>
                <g id="zoomMin">
                        <use xlink:href="#rim" fill="#404040">
                                <set attributeName="fill" to="#808080" begin="zoomminus.mouseover" end="zoomminus.mouseout"/>
                        </use>
                        <path d="M-4,0h8" fill="none" stroke="white" stroke-width="1.5" pointer-events="none"/>
                </g>
                <g id="dirArrow">
                        <path fill="none" stroke="white" stroke-width="1.5" d="M0,-3.0v7 M-2.5,-0.5L0,-3.0L2.5,-0.5"/>
                </g>
               <g id="resetDef">
                       <use xlink:href="#rim2" fill="#404040">
                               <set attributeName="fill" to="#808080" begin="reset.mouseover" end="reset.mouseout"/>
                       </use>
               </g>
        </defs>

<script type="text/javascript">
var viewWidth = 842;
var viewHeight = 329;
var sectionId = 'dynsection-2';
</script>
<script xlink:href="../../svgpan.js"/>
<svg id="graph" class="graph">
<g id="viewport">
<title>model.neighbors.SquareTriangleNeighbors.getAllNeighbors</title>
<polygon fill="white" stroke="none" points="-4,4 -4,-325 838,-325 838,4 -4,4"/>
<!-- Node1 -->
<g id="node1" class="node"><title>Node1</title>
<polygon fill="#bfbfbf" stroke="black" points="0,-154 0,-184 170,-184 170,-154 0,-154"/>
<text text-anchor="start" x="8" y="-172" font-family="Helvetica,sans-Serif" font-size="10.00">model.neighbors.SquareTriangle</text>
<text text-anchor="middle" x="85" y="-161" font-family="Helvetica,sans-Serif" font-size="10.00">Neighbors.getAllNeighbors</text>
</g>
<!-- Node2 -->
<g id="node2" class="node"><title>Node2</title>
<g id="a_node2"><a xlink:href="../../d6/d9c/classmodel_1_1neighbors_1_1_square_triangle_neighbors.html#ad8ae7bc5b8567fd85d65a8f766d7025b" target="_top" xlink:title="model.neighbors.SquareTriangle\lNeighbors.getCardinalNeighbors">
<polygon fill="white" stroke="black" points="208,-220 208,-250 380,-250 380,-220 208,-220"/>
<text text-anchor="start" x="216" y="-238" font-family="Helvetica,sans-Serif" font-size="10.00">model.neighbors.SquareTriangle</text>
<text text-anchor="middle" x="294" y="-227" font-family="Helvetica,sans-Serif" font-size="10.00">Neighbors.getCardinalNeighbors</text>
</a>
</g>
</g>
<!-- Node1&#45;&gt;Node2 -->
<g id="edge1" class="edge"><title>Node1&#45;&gt;Node2</title>
<path fill="none" stroke="midnightblue" d="M133.231,-184.059C163.725,-193.782 203.583,-206.49 235.86,-216.781"/>
<polygon fill="midnightblue" stroke="midnightblue" points="235.024,-220.188 245.614,-219.892 237.15,-213.519 235.024,-220.188"/>
</g>
<!-- Node8 -->
<g id="node8" class="node"><title>Node8</title>
<g id="a_node8"><a xlink:href="../../d6/d9c/classmodel_1_1neighbors_1_1_square_triangle_neighbors.html#afb39acbe23c36fbe98271ca837c9d5de" target="_top" xlink:title="model.neighbors.SquareTriangle\lNeighbors.getDiagonalNeighbors">
<polygon fill="white" stroke="black" points="206.5,-88 206.5,-118 381.5,-118 381.5,-88 206.5,-88"/>
<text text-anchor="start" x="214.5" y="-106" font-family="Helvetica,sans-Serif" font-size="10.00">model.neighbors.SquareTriangle</text>
<text text-anchor="middle" x="294" y="-95" font-family="Helvetica,sans-Serif" font-size="10.00">Neighbors.getDiagonalNeighbors</text>
</a>
</g>
</g>
<!-- Node1&#45;&gt;Node8 -->
<g id="edge10" class="edge"><title>Node1&#45;&gt;Node8</title>
<path fill="none" stroke="midnightblue" d="M133.231,-153.941C163.725,-144.218 203.583,-131.51 235.86,-121.219"/>
<polygon fill="midnightblue" stroke="midnightblue" points="237.15,-124.481 245.614,-118.108 235.024,-117.812 237.15,-124.481"/>
</g>
<!-- Node3 -->
<g id="node3" class="node"><title>Node3</title>
<g id="a_node3"><a xlink:href="../../dc/de1/classmodel_1_1neighbors_1_1_neighbors.html#aac9dac30bd5197f1460ccafa34d31d56" target="_top" xlink:title="model.neighbors.Neighbors.Up">
<polygon fill="white" stroke="black" points="438.5,-301.5 438.5,-320.5 603.5,-320.5 603.5,-301.5 438.5,-301.5"/>
<text text-anchor="middle" x="521" y="-308.5" font-family="Helvetica,sans-Serif" font-size="10.00">model.neighbors.Neighbors.Up</text>
</a>
</g>
</g>
<!-- Node2&#45;&gt;Node3 -->
<g id="edge2" class="edge"><title>Node2&#45;&gt;Node3</title>
<path fill="none" stroke="midnightblue" d="M322.533,-250.191C346.948,-263.064 383.921,-281.119 418,-292 426.695,-294.776 435.944,-297.198 445.187,-299.296"/>
<polygon fill="midnightblue" stroke="midnightblue" points="444.676,-302.766 455.189,-301.448 446.149,-295.923 444.676,-302.766"/>
</g>
<!-- Node5 -->
<g id="node5" class="node"><title>Node5</title>
<g id="a_node5"><a xlink:href="../../dc/de1/classmodel_1_1neighbors_1_1_neighbors.html#aa2751635d625b30cdef4790f2c094881" target="_top" xlink:title="model.neighbors.Neighbors.Down">
<polygon fill="white" stroke="black" points="432,-263.5 432,-282.5 610,-282.5 610,-263.5 432,-263.5"/>
<text text-anchor="middle" x="521" y="-270.5" font-family="Helvetica,sans-Serif" font-size="10.00">model.neighbors.Neighbors.Down</text>
</a>
</g>
</g>
<!-- Node2&#45;&gt;Node5 -->
<g id="edge4" class="edge"><title>Node2&#45;&gt;Node5</title>
<path fill="none" stroke="midnightblue" d="M380.063,-249.366C404.345,-253.467 430.444,-257.875 453.448,-261.76"/>
<polygon fill="midnightblue" stroke="midnightblue" points="452.998,-265.234 463.441,-263.448 454.163,-258.331 452.998,-265.234"/>
</g>
<!-- Node6 -->
<g id="node6" class="node"><title>Node6</title>
<g id="a_node6"><a xlink:href="../../dc/de1/classmodel_1_1neighbors_1_1_neighbors.html#a1d91d30ce6289d9bb71da5d34c505582" target="_top" xlink:title="model.neighbors.Neighbors.Left">
<polygon fill="white" stroke="black" points="436,-225.5 436,-244.5 606,-244.5 606,-225.5 436,-225.5"/>
<text text-anchor="middle" x="521" y="-232.5" font-family="Helvetica,sans-Serif" font-size="10.00">model.neighbors.Neighbors.Left</text>
</a>
</g>
</g>
<!-- Node2&#45;&gt;Node6 -->
<g id="edge6" class="edge"><title>Node2&#45;&gt;Node6</title>
<path fill="none" stroke="midnightblue" d="M380.063,-235C394.926,-235 410.47,-235 425.568,-235"/>
<polygon fill="midnightblue" stroke="midnightblue" points="425.936,-238.5 435.936,-235 425.936,-231.5 425.936,-238.5"/>
</g>
<!-- Node7 -->
<g id="node7" class="node"><title>Node7</title>
<g id="a_node7"><a xlink:href="../../dc/de1/classmodel_1_1neighbors_1_1_neighbors.html#a6f65a87269275d8978c35c6765f531c1" target="_top" xlink:title="model.neighbors.Neighbors.\lRight">
<polygon fill="white" stroke="black" points="445,-176 445,-206 597,-206 597,-176 445,-176"/>
<text text-anchor="start" x="453" y="-194" font-family="Helvetica,sans-Serif" font-size="10.00">model.neighbors.Neighbors.</text>
<text text-anchor="middle" x="521" y="-183" font-family="Helvetica,sans-Serif" font-size="10.00">Right</text>
</a>
</g>
</g>
<!-- Node2&#45;&gt;Node7 -->
<g id="edge8" class="edge"><title>Node2&#45;&gt;Node7</title>
<path fill="none" stroke="midnightblue" d="M371.803,-219.981C392.043,-216.023 414.002,-211.728 434.662,-207.688"/>
<polygon fill="midnightblue" stroke="midnightblue" points="435.544,-211.082 444.686,-205.728 434.2,-204.212 435.544,-211.082"/>
</g>
<!-- Node4 -->
<g id="node4" class="node"><title>Node4</title>
<g id="a_node4"><a xlink:href="../../da/d6d/classmodel_1_1gridrules_1_1_grid_rules.html#a667e0098e66a7b398962d78c830f6c4a" target="_top" xlink:title="model.gridrules.GridRules.handle\lEdges">
<polygon fill="white" stroke="black" points="660.5,-154 660.5,-184 833.5,-184 833.5,-154 660.5,-154"/>
<text text-anchor="start" x="668.5" y="-172" font-family="Helvetica,sans-Serif" font-size="10.00">model.gridrules.GridRules.handle</text>
<text text-anchor="middle" x="747" y="-161" font-family="Helvetica,sans-Serif" font-size="10.00">Edges</text>
</a>
</g>
</g>
<!-- Node3&#45;&gt;Node4 -->
<g id="edge3" class="edge"><title>Node3&#45;&gt;Node4</title>
<path fill="none" stroke="midnightblue" d="M600.52,-301.445C608.692,-298.973 616.677,-295.876 624,-292 669.531,-267.9 708.749,-220.988 729.719,-192.578"/>
<polygon fill="midnightblue" stroke="midnightblue" points="732.608,-194.556 735.628,-184.401 726.934,-190.456 732.608,-194.556"/>
</g>
<!-- Node5&#45;&gt;Node4 -->
<g id="edge5" class="edge"><title>Node5&#45;&gt;Node4</title>
<path fill="none" stroke="midnightblue" d="M594.454,-263.46C604.58,-260.994 614.695,-257.894 624,-254 661.065,-238.489 698.158,-210.418 721.543,-190.793"/>
<polygon fill="midnightblue" stroke="midnightblue" points="723.888,-193.394 729.221,-184.239 719.343,-188.07 723.888,-193.394"/>
</g>
<!-- Node6&#45;&gt;Node4 -->
<g id="edge7" class="edge"><title>Node6&#45;&gt;Node4</title>
<path fill="none" stroke="midnightblue" d="M579.583,-225.452C594.187,-222.555 609.767,-219.048 624,-215 650.1,-207.577 678.508,-197.019 701.339,-187.89"/>
<polygon fill="midnightblue" stroke="midnightblue" points="702.802,-191.074 710.759,-184.079 700.176,-184.585 702.802,-191.074"/>
</g>
<!-- Node7&#45;&gt;Node4 -->
<g id="edge9" class="edge"><title>Node7&#45;&gt;Node4</title>
<path fill="none" stroke="midnightblue" d="M597.212,-183.613C614.105,-181.954 632.254,-180.171 649.869,-178.441"/>
<polygon fill="midnightblue" stroke="midnightblue" points="650.555,-181.891 660.165,-177.43 649.871,-174.924 650.555,-181.891"/>
</g>
<!-- Node9 -->
<g id="node9" class="node"><title>Node9</title>
<g id="a_node9"><a xlink:href="../../dc/de1/classmodel_1_1neighbors_1_1_neighbors.html#af8de37f6b70ac9ab8008b6629f22886a" target="_top" xlink:title="model.neighbors.Neighbors.topLeft">
<polygon fill="white" stroke="black" points="428.5,-137.5 428.5,-156.5 613.5,-156.5 613.5,-137.5 428.5,-137.5"/>
<text text-anchor="middle" x="521" y="-144.5" font-family="Helvetica,sans-Serif" font-size="10.00">model.neighbors.Neighbors.topLeft</text>
</a>
</g>
</g>
<!-- Node8&#45;&gt;Node9 -->
<g id="edge11" class="edge"><title>Node8&#45;&gt;Node9</title>
<path fill="none" stroke="midnightblue" d="M371.803,-118.019C401.169,-123.762 434.155,-130.213 461.539,-135.568"/>
<polygon fill="midnightblue" stroke="midnightblue" points="460.871,-139.003 471.357,-137.488 462.215,-132.133 460.871,-139.003"/>
</g>
<!-- Node10 -->
<g id="node10" class="node"><title>Node10</title>
<g id="a_node10"><a xlink:href="../../dc/de1/classmodel_1_1neighbors_1_1_neighbors.html#ae82e69e25fdf465f6dee196c82b1f6af" target="_top" xlink:title="model.neighbors.Neighbors.top\lRight">
<polygon fill="white" stroke="black" points="437.5,-88 437.5,-118 604.5,-118 604.5,-88 437.5,-88"/>
<text text-anchor="start" x="445.5" y="-106" font-family="Helvetica,sans-Serif" font-size="10.00">model.neighbors.Neighbors.top</text>
<text text-anchor="middle" x="521" y="-95" font-family="Helvetica,sans-Serif" font-size="10.00">Right</text>
</a>
</g>
</g>
<!-- Node8&#45;&gt;Node10 -->
<g id="edge13" class="edge"><title>Node8&#45;&gt;Node10</title>
<path fill="none" stroke="midnightblue" d="M381.669,-103C396.555,-103 412.08,-103 427.121,-103"/>
<polygon fill="midnightblue" stroke="midnightblue" points="427.444,-106.5 437.444,-103 427.444,-99.5001 427.444,-106.5"/>
</g>
<!-- Node11 -->
<g id="node11" class="node"><title>Node11</title>
<g id="a_node11"><a xlink:href="../../dc/de1/classmodel_1_1neighbors_1_1_neighbors.html#ad0ebeba79aaf13dce7951d4c23ad990f" target="_top" xlink:title="model.neighbors.Neighbors.bottomLeft">
<polygon fill="white" stroke="black" points="418.5,-49.5 418.5,-68.5 623.5,-68.5 623.5,-49.5 418.5,-49.5"/>
<text text-anchor="middle" x="521" y="-56.5" font-family="Helvetica,sans-Serif" font-size="10.00">model.neighbors.Neighbors.bottomLeft</text>
</a>
</g>
</g>
<!-- Node8&#45;&gt;Node11 -->
<g id="edge15" class="edge"><title>Node8&#45;&gt;Node11</title>
<path fill="none" stroke="midnightblue" d="M371.803,-87.9808C401.169,-82.2381 434.155,-75.7875 461.539,-70.4324"/>
<polygon fill="midnightblue" stroke="midnightblue" points="462.215,-73.8666 471.357,-68.5124 460.871,-66.9968 462.215,-73.8666"/>
</g>
<!-- Node12 -->
<g id="node12" class="node"><title>Node12</title>
<g id="a_node12"><a xlink:href="../../dc/de1/classmodel_1_1neighbors_1_1_neighbors.html#a7943b721335bdaa80fd9ea617993392c" target="_top" xlink:title="model.neighbors.Neighbors.bottom\lRight">
<polygon fill="white" stroke="black" points="427.5,-0 427.5,-30 614.5,-30 614.5,-0 427.5,-0"/>
<text text-anchor="start" x="435.5" y="-18" font-family="Helvetica,sans-Serif" font-size="10.00">model.neighbors.Neighbors.bottom</text>
<text text-anchor="middle" x="521" y="-7" font-family="Helvetica,sans-Serif" font-size="10.00">Right</text>
</a>
</g>
</g>
<!-- Node8&#45;&gt;Node12 -->
<g id="edge17" class="edge"><title>Node8&#45;&gt;Node12</title>
<path fill="none" stroke="midnightblue" d="M320.122,-87.9256C344.44,-73.8725 382.705,-53.1586 418,-40 424.871,-37.4384 432.1,-35.0646 439.406,-32.8829"/>
<polygon fill="midnightblue" stroke="midnightblue" points="440.738,-36.1424 449.39,-30.0272 438.813,-29.4124 440.738,-36.1424"/>
</g>
<!-- Node9&#45;&gt;Node4 -->
<g id="edge12" class="edge"><title>Node9&#45;&gt;Node4</title>
<path fill="none" stroke="midnightblue" d="M613.756,-156.012C625.743,-157.189 638.051,-158.398 650.105,-159.582"/>
<polygon fill="midnightblue" stroke="midnightblue" points="649.863,-163.075 660.158,-160.569 650.548,-156.108 649.863,-163.075"/>
</g>
<!-- Node10&#45;&gt;Node4 -->
<g id="edge14" class="edge"><title>Node10&#45;&gt;Node4</title>
<path fill="none" stroke="midnightblue" d="M586.968,-118.058C599.314,-121.164 612.093,-124.547 624,-128 647.356,-134.774 672.902,-143.198 694.556,-150.645"/>
<polygon fill="midnightblue" stroke="midnightblue" points="693.615,-154.023 704.209,-153.989 695.906,-147.409 693.615,-154.023"/>
</g>
<!-- Node11&#45;&gt;Node4 -->
<g id="edge16" class="edge"><title>Node11&#45;&gt;Node4</title>
<path fill="none" stroke="midnightblue" d="M592.39,-68.5491C603.222,-71.2228 614.09,-74.6385 624,-79 662.143,-95.7872 699.772,-126.236 722.932,-147.026"/>
<polygon fill="midnightblue" stroke="midnightblue" points="720.755,-149.778 730.498,-153.939 725.476,-144.61 720.755,-149.778"/>
</g>
<!-- Node12&#45;&gt;Node4 -->
<g id="edge18" class="edge"><title>Node12&#45;&gt;Node4</title>
<path fill="none" stroke="midnightblue" d="M602.523,-30.0323C610.016,-32.8126 617.302,-36.104 624,-40 670.122,-66.8269 709.649,-116.352 730.413,-145.615"/>
<polygon fill="midnightblue" stroke="midnightblue" points="727.66,-147.786 736.242,-153.999 733.407,-143.79 727.66,-147.786"/>
</g>
</g>
</svg>
        <g id="navigator" transform="translate(0 0)" fill="#404254">
                <rect fill="#f2f5e9" fill-opacity="0.5" stroke="#606060" stroke-width=".5" x="0" y="0" width="60" height="60"/>
                <use id="zoomplus" xlink:href="#zoomPlus" x="17" y="9" onmousedown="handleZoom(evt,'in')"/>
                <use id="zoomminus" xlink:href="#zoomMin" x="42" y="9" onmousedown="handleZoom(evt,'out')"/>
                <use id="reset" xlink:href="#resetDef" x="30" y="36" onmousedown="handleReset()"/>
                <g id="arrowUp" xlink:href="#dirArrow" transform="translate(30 24)" onmousedown="handlePan(0,-1)">
                  <use xlink:href="#rim" fill="#404040">
                        <set attributeName="fill" to="#808080" begin="arrowUp.mouseover" end="arrowUp.mouseout"/>
                  </use>
                  <path fill="none" stroke="white" stroke-width="1.5" d="M0,-3.0v7 M-2.5,-0.5L0,-3.0L2.5,-0.5"/>
                </g>
                <g id="arrowRight" xlink:href="#dirArrow" transform="rotate(90) translate(36 -43)" onmousedown="handlePan(1,0)">
                  <use xlink:href="#rim" fill="#404040">
                        <set attributeName="fill" to="#808080" begin="arrowRight.mouseover" end="arrowRight.mouseout"/>
                  </use>
                  <path fill="none" stroke="white" stroke-width="1.5" d="M0,-3.0v7 M-2.5,-0.5L0,-3.0L2.5,-0.5"/>
                </g>
                <g id="arrowDown" xlink:href="#dirArrow" transform="rotate(180) translate(-30 -48)" onmousedown="handlePan(0,1)">
                  <use xlink:href="#rim" fill="#404040">
                        <set attributeName="fill" to="#808080" begin="arrowDown.mouseover" end="arrowDown.mouseout"/>
                  </use>
                  <path fill="none" stroke="white" stroke-width="1.5" d="M0,-3.0v7 M-2.5,-0.5L0,-3.0L2.5,-0.5"/>
                </g>
                <g id="arrowLeft" xlink:href="#dirArrow" transform="rotate(270) translate(-36 17)" onmousedown="handlePan(-1,0)">
                  <use xlink:href="#rim" fill="#404040">
                        <set attributeName="fill" to="#808080" begin="arrowLeft.mouseover" end="arrowLeft.mouseout"/>
                  </use>
                  <path fill="none" stroke="white" stroke-width="1.5" d="M0,-3.0v7 M-2.5,-0.5L0,-3.0L2.5,-0.5"/>
                </g>
        </g>
        <svg viewBox="0 0 15 15" width="100%" height="30px" preserveAspectRatio="xMaxYMin meet">
         <g id="arrow_out" transform="scale(0.3 0.3)">
          <a xlink:href="classmodel_1_1neighbors_1_1_square_triangle_neighbors_a4705a116c2c95cb5aeb2e7c6b9cf7b88_cgraph_org.svg" target="_base">
           <rect id="button" ry="5" rx="5" y="6" x="6" height="38" width="38"
                fill="#f2f5e9" fill-opacity="0.5" stroke="#606060" stroke-width="1.0"/>
           <path id="arrow"
             d="M 11.500037,31.436501 C 11.940474,20.09759 22.043105,11.32322 32.158766,21.979434 L 37.068811,17.246167 C 37.068811,17.246167 37.088388,32 37.088388,32 L 22.160133,31.978069 C 22.160133,31.978069 26.997745,27.140456 26.997745,27.140456 C 18.528582,18.264221 13.291696,25.230495 11.500037,31.436501 z"
             style="fill:#404040;"/>
          </a>
         </g>
        </svg>
</svg>
