<?xml version="1.0" encoding="UTF-8" standalone="no"?>
<!DOCTYPE svg PUBLIC "-//W3C//DTD SVG 1.1//EN"
 "http://www.w3.org/Graphics/SVG/1.1/DTD/svg11.dtd">
<!-- Generated by graphviz version 2.36.0 (20140111.2315)
 -->
<!-- Title: model.neighbors.Neighbors Pages: 1 -->
<svg width="347pt" height="96pt"
 viewBox="0.00 0.00 347.00 96.00" xmlns="http://www.w3.org/2000/svg" xmlns:xlink="http://www.w3.org/1999/xlink">
<g id="graph0" class="graph" transform="scale(1 1) rotate(0) translate(4 92)">
<title>model.neighbors.Neighbors</title>
<polygon fill="white" stroke="none" points="-4,4 -4,-92 343,-92 343,4 -4,4"/>
<!-- Node1 -->
<g id="node1" class="node"><title>Node1</title>
<polygon fill="#bfbfbf" stroke="black" points="89.5,-68.5 89.5,-87.5 238.5,-87.5 238.5,-68.5 89.5,-68.5"/>
<text text-anchor="middle" x="164" y="-75.5" font-family="Helvetica,sans-Serif" font-size="10.00">model.neighbors.Neighbors</text>
</g>
<!-- Node2 -->
<g id="node2" class="node"><title>Node2</title>
<g id="a_node2"><a xlink:href="../../dd/d12/classmodel_1_1neighbors_1_1_hexagonal_neighbors.html" target="_top" xlink:title="model.neighbors.Hexagonal\lNeighbors">
<polygon fill="white" stroke="black" points="-0.5,-1 -0.5,-31 150.5,-31 150.5,-1 -0.5,-1"/>
<text text-anchor="start" x="7.5" y="-19" font-family="Helvetica,sans-Serif" font-size="10.00">model.neighbors.Hexagonal</text>
<text text-anchor="middle" x="75" y="-8" font-family="Helvetica,sans-Serif" font-size="10.00">Neighbors</text>
</a>
</g>
</g>
<!-- Node1&#45;&gt;Node2 -->
<g id="edge1" class="edge"><title>Node1&#45;&gt;Node2</title>
<path fill="none" stroke="midnightblue" d="M142.668,-62.6191C128.523,-53.0831 110.047,-40.6273 95.9755,-31.1408"/>
<polygon fill="midnightblue" stroke="midnightblue" points="141,-65.7156 151.248,-68.4035 144.913,-59.9114 141,-65.7156"/>
</g>
<!-- Node3 -->
<g id="node3" class="node"><title>Node3</title>
<g id="a_node3"><a xlink:href="../../d6/d9c/classmodel_1_1neighbors_1_1_square_triangle_neighbors.html" target="_top" xlink:title="model.neighbors.SquareTriangle\lNeighbors">
<polygon fill="white" stroke="black" points="169,-1 169,-31 339,-31 339,-1 169,-1"/>
<text text-anchor="start" x="177" y="-19" font-family="Helvetica,sans-Serif" font-size="10.00">model.neighbors.SquareTriangle</text>
<text text-anchor="middle" x="254" y="-8" font-family="Helvetica,sans-Serif" font-size="10.00">Neighbors</text>
</a>
</g>
</g>
<!-- Node1&#45;&gt;Node3 -->
<g id="edge2" class="edge"><title>Node1&#45;&gt;Node3</title>
<path fill="none" stroke="midnightblue" d="M185.571,-62.6191C199.875,-53.0831 218.559,-40.6273 232.789,-31.1408"/>
<polygon fill="midnightblue" stroke="midnightblue" points="183.274,-59.9442 176.895,-68.4035 187.157,-65.7686 183.274,-59.9442"/>
</g>
</g>
</svg>
