<?xml version="1.0" encoding="UTF-8" standalone="no"?>
<!DOCTYPE svg PUBLIC "-//W3C//DTD SVG 1.1//EN"
 "http://www.w3.org/Graphics/SVG/1.1/DTD/svg11.dtd">
<!-- Generated by graphviz version 2.36.0 (20140111.2315)
 -->
<!-- Title: model.neighbors.SquareTriangleNeighbors.getCardinalNeighbors Pages: 1 -->
<svg width="386pt" height="38pt"
 viewBox="0.00 0.00 386.00 38.00" xmlns="http://www.w3.org/2000/svg" xmlns:xlink="http://www.w3.org/1999/xlink">
<g id="graph0" class="graph" transform="scale(1 1) rotate(0) translate(4 34)">
<title>model.neighbors.SquareTriangleNeighbors.getCardinalNeighbors</title>
<polygon fill="white" stroke="none" points="-4,4 -4,-34 382,-34 382,4 -4,4"/>
<!-- Node1 -->
<g id="node1" class="node"><title>Node1</title>
<polygon fill="#bfbfbf" stroke="black" points="0,-0 0,-30 172,-30 172,-0 0,-0"/>
<text text-anchor="start" x="8" y="-18" font-family="Helvetica,sans-Serif" font-size="10.00">model.neighbors.SquareTriangle</text>
<text text-anchor="middle" x="86" y="-7" font-family="Helvetica,sans-Serif" font-size="10.00">Neighbors.getCardinalNeighbors</text>
</g>
<!-- Node2 -->
<g id="node2" class="node"><title>Node2</title>
<g id="a_node2"><a xlink:href="../../d6/d9c/classmodel_1_1neighbors_1_1_square_triangle_neighbors.html#a4705a116c2c95cb5aeb2e7c6b9cf7b88" target="_top" xlink:title="model.neighbors.SquareTriangle\lNeighbors.getAllNeighbors">
<polygon fill="white" stroke="black" points="208,-0 208,-30 378,-30 378,-0 208,-0"/>
<text text-anchor="start" x="216" y="-18" font-family="Helvetica,sans-Serif" font-size="10.00">model.neighbors.SquareTriangle</text>
<text text-anchor="middle" x="293" y="-7" font-family="Helvetica,sans-Serif" font-size="10.00">Neighbors.getAllNeighbors</text>
</a>
</g>
</g>
<!-- Node1&#45;&gt;Node2 -->
<g id="edge1" class="edge"><title>Node1&#45;&gt;Node2</title>
<path fill="none" stroke="midnightblue" d="M182.428,-15C190.887,-15 199.411,-15 207.767,-15"/>
<polygon fill="midnightblue" stroke="midnightblue" points="182.158,-11.5001 172.158,-15 182.157,-18.5001 182.158,-11.5001"/>
</g>
</g>
</svg>
