<?xml version="1.0" encoding="UTF-8" standalone="no"?>
<!DOCTYPE svg PUBLIC "-//W3C//DTD SVG 1.1//EN"
 "http://www.w3.org/Graphics/SVG/1.1/DTD/svg11.dtd">
<!-- Generated by graphviz version 2.36.0 (20140111.2315)
 -->
<!-- Title: model.neighbors.SquareTriangleNeighbors.getCardinalNeighbors Pages: 1 -->
<svg width="604pt" height="154pt"
 viewBox="0.00 0.00 604.00 154.00" xmlns="http://www.w3.org/2000/svg" xmlns:xlink="http://www.w3.org/1999/xlink">
<g id="graph0" class="graph" transform="scale(1 1) rotate(0) translate(4 150)">
<title>model.neighbors.SquareTriangleNeighbors.getCardinalNeighbors</title>
<polygon fill="white" stroke="none" points="-4,4 -4,-150 600,-150 600,4 -4,4"/>
<!-- Node1 -->
<g id="node1" class="node"><title>Node1</title>
<polygon fill="#bfbfbf" stroke="black" points="0,-61 0,-91 172,-91 172,-61 0,-61"/>
<text text-anchor="start" x="8" y="-79" font-family="Helvetica,sans-Serif" font-size="10.00">model.neighbors.SquareTriangle</text>
<text text-anchor="middle" x="86" y="-68" font-family="Helvetica,sans-Serif" font-size="10.00">Neighbors.getCardinalNeighbors</text>
</g>
<!-- Node2 -->
<g id="node2" class="node"><title>Node2</title>
<g id="a_node2"><a xlink:href="../../dc/de1/classmodel_1_1neighbors_1_1_neighbors.html#aa2751635d625b30cdef4790f2c094881" target="_top" xlink:title="model.neighbors.Neighbors.Down">
<polygon fill="white" stroke="black" points="208,-126.5 208,-145.5 386,-145.5 386,-126.5 208,-126.5"/>
<text text-anchor="middle" x="297" y="-133.5" font-family="Helvetica,sans-Serif" font-size="10.00">model.neighbors.Neighbors.Down</text>
</a>
</g>
</g>
<!-- Node1&#45;&gt;Node2 -->
<g id="edge1" class="edge"><title>Node1&#45;&gt;Node2</title>
<path fill="none" stroke="midnightblue" d="M127.527,-91.0235C150.858,-99.3463 180.849,-109.495 208,-117 217.28,-119.565 227.19,-121.996 236.888,-124.208"/>
<polygon fill="midnightblue" stroke="midnightblue" points="236.362,-127.677 246.884,-126.432 237.882,-120.844 236.362,-127.677"/>
</g>
<!-- Node4 -->
<g id="node4" class="node"><title>Node4</title>
<g id="a_node4"><a xlink:href="../../dc/de1/classmodel_1_1neighbors_1_1_neighbors.html#a1d91d30ce6289d9bb71da5d34c505582" target="_top" xlink:title="model.neighbors.Neighbors.Left">
<polygon fill="white" stroke="black" points="212,-88.5 212,-107.5 382,-107.5 382,-88.5 212,-88.5"/>
<text text-anchor="middle" x="297" y="-95.5" font-family="Helvetica,sans-Serif" font-size="10.00">model.neighbors.Neighbors.Left</text>
</a>
</g>
</g>
<!-- Node1&#45;&gt;Node4 -->
<g id="edge3" class="edge"><title>Node1&#45;&gt;Node4</title>
<path fill="none" stroke="midnightblue" d="M172.008,-84.9482C181.738,-85.9724 191.701,-87.0212 201.545,-88.0574"/>
<polygon fill="midnightblue" stroke="midnightblue" points="201.433,-91.5648 211.745,-89.131 202.166,-84.6033 201.433,-91.5648"/>
</g>
<!-- Node5 -->
<g id="node5" class="node"><title>Node5</title>
<g id="a_node5"><a xlink:href="../../dc/de1/classmodel_1_1neighbors_1_1_neighbors.html#a6f65a87269275d8978c35c6765f531c1" target="_top" xlink:title="model.neighbors.Neighbors.\lRight">
<polygon fill="white" stroke="black" points="221,-39 221,-69 373,-69 373,-39 221,-39"/>
<text text-anchor="start" x="229" y="-57" font-family="Helvetica,sans-Serif" font-size="10.00">model.neighbors.Neighbors.</text>
<text text-anchor="middle" x="297" y="-46" font-family="Helvetica,sans-Serif" font-size="10.00">Right</text>
</a>
</g>
</g>
<!-- Node1&#45;&gt;Node5 -->
<g id="edge5" class="edge"><title>Node1&#45;&gt;Node5</title>
<path fill="none" stroke="midnightblue" d="M172.008,-67.0518C184.76,-65.7094 197.914,-64.3249 210.672,-62.9819"/>
<polygon fill="midnightblue" stroke="midnightblue" points="211.226,-66.443 220.805,-61.9153 210.493,-59.4815 211.226,-66.443"/>
</g>
<!-- Node6 -->
<g id="node6" class="node"><title>Node6</title>
<g id="a_node6"><a xlink:href="../../dc/de1/classmodel_1_1neighbors_1_1_neighbors.html#aac9dac30bd5197f1460ccafa34d31d56" target="_top" xlink:title="model.neighbors.Neighbors.Up">
<polygon fill="white" stroke="black" points="214.5,-0.5 214.5,-19.5 379.5,-19.5 379.5,-0.5 214.5,-0.5"/>
<text text-anchor="middle" x="297" y="-7.5" font-family="Helvetica,sans-Serif" font-size="10.00">model.neighbors.Neighbors.Up</text>
</a>
</g>
</g>
<!-- Node1&#45;&gt;Node6 -->
<g id="edge7" class="edge"><title>Node1&#45;&gt;Node6</title>
<path fill="none" stroke="midnightblue" d="M122.549,-60.9799C146.421,-51.269 178.742,-38.839 208,-30 217.674,-27.0776 228.059,-24.3582 238.183,-21.925"/>
<polygon fill="midnightblue" stroke="midnightblue" points="239.242,-25.272 248.184,-19.5903 237.651,-18.4553 239.242,-25.272"/>
</g>
<!-- Node3 -->
<g id="node3" class="node"><title>Node3</title>
<g id="a_node3"><a xlink:href="../../da/d6d/classmodel_1_1gridrules_1_1_grid_rules.html#a667e0098e66a7b398962d78c830f6c4a" target="_top" xlink:title="model.gridrules.GridRules.handle\lEdges">
<polygon fill="white" stroke="black" points="422.5,-61 422.5,-91 595.5,-91 595.5,-61 422.5,-61"/>
<text text-anchor="start" x="430.5" y="-79" font-family="Helvetica,sans-Serif" font-size="10.00">model.gridrules.GridRules.handle</text>
<text text-anchor="middle" x="509" y="-68" font-family="Helvetica,sans-Serif" font-size="10.00">Edges</text>
</a>
</g>
</g>
<!-- Node2&#45;&gt;Node3 -->
<g id="edge2" class="edge"><title>Node2&#45;&gt;Node3</title>
<path fill="none" stroke="midnightblue" d="M347.11,-126.41C359.844,-123.647 373.492,-120.441 386,-117 409.728,-110.473 435.619,-101.974 457.421,-94.4076"/>
<polygon fill="midnightblue" stroke="midnightblue" points="458.848,-97.6165 467.128,-91.0071 456.533,-91.0101 458.848,-97.6165"/>
</g>
<!-- Node4&#45;&gt;Node3 -->
<g id="edge4" class="edge"><title>Node4&#45;&gt;Node3</title>
<path fill="none" stroke="midnightblue" d="M382.205,-89.1785C392.132,-88.1385 402.318,-87.0714 412.388,-86.0165"/>
<polygon fill="midnightblue" stroke="midnightblue" points="412.824,-89.49 422.405,-84.9671 412.095,-82.5281 412.824,-89.49"/>
</g>
<!-- Node5&#45;&gt;Node3 -->
<g id="edge6" class="edge"><title>Node5&#45;&gt;Node3</title>
<path fill="none" stroke="midnightblue" d="M373.222,-61.8804C385.883,-63.2067 399.173,-64.5991 412.27,-65.9711"/>
<polygon fill="midnightblue" stroke="midnightblue" points="411.923,-69.4539 422.234,-67.0149 412.653,-62.492 411.923,-69.4539"/>
</g>
<!-- Node6&#45;&gt;Node3 -->
<g id="edge8" class="edge"><title>Node6&#45;&gt;Node3</title>
<path fill="none" stroke="midnightblue" d="M345.351,-19.5099C358.602,-22.5091 372.946,-26.0759 386,-30 411.797,-37.7548 439.972,-48.2398 462.741,-57.241"/>
<polygon fill="midnightblue" stroke="midnightblue" points="461.56,-60.5382 472.145,-60.9955 464.156,-54.0372 461.56,-60.5382"/>
</g>
</g>
</svg>
