<?xml version="1.0" encoding="UTF-8" standalone="no"?>
<!DOCTYPE svg PUBLIC "-//W3C//DTD SVG 1.1//EN"
 "http://www.w3.org/Graphics/SVG/1.1/DTD/svg11.dtd">
<!-- Generated by graphviz version 2.36.0 (20140111.2315)
 -->
<!-- Title: model.neighbors.SquareTriangleNeighbors.getDiagonalNeighbors Pages: 1 -->
<!--zoomable 165 -->
<svg id="main" version="1.1" xmlns="http://www.w3.org/2000/svg" xmlns:xlink="http://www.w3.org/1999/xlink" xml:space="preserve" onload="init(evt)">
<style type="text/css"><![CDATA[
.edge:hover path { stroke: red; }
.edge:hover polygon { stroke: red; fill: red; }
]]></style>
<script type="text/javascript"><![CDATA[
var edges = document.getElementsByTagName('g');
if (edges && edges.length) {
  for (var i=0;i<edges.length;i++) {
    if (edges[i].id.substr(0,4)=='edge') {
      edges[i].setAttribute('class','edge');
    }
  }
}
]]></script>
        <defs>
                <circle id="rim" cx="0" cy="0" r="7"/>
                <circle id="rim2" cx="0" cy="0" r="3.5"/>
                <g id="zoomPlus">
                        <use xlink:href="#rim" fill="#404040">
                                <set attributeName="fill" to="#808080" begin="zoomplus.mouseover" end="zoomplus.mouseout"/>
                        </use>
                        <path d="M-4,0h8M0,-4v8" fill="none" stroke="white" stroke-width="1.5" pointer-events="none"/>
                </g>
                <g id="zoomMin">
                        <use xlink:href="#rim" fill="#404040">
                                <set attributeName="fill" to="#808080" begin="zoomminus.mouseover" end="zoomminus.mouseout"/>
                        </use>
                        <path d="M-4,0h8" fill="none" stroke="white" stroke-width="1.5" pointer-events="none"/>
                </g>
                <g id="dirArrow">
                        <path fill="none" stroke="white" stroke-width="1.5" d="M0,-3.0v7 M-2.5,-0.5L0,-3.0L2.5,-0.5"/>
                </g>
               <g id="resetDef">
                       <use xlink:href="#rim2" fill="#404040">
                               <set attributeName="fill" to="#808080" begin="reset.mouseover" end="reset.mouseout"/>
                       </use>
               </g>
        </defs>

<script type="text/javascript">
var viewWidth = 636;
var viewHeight = 165;
var sectionId = 'dynsection-5';
</script>
<script xlink:href="../../svgpan.js"/>
<svg id="graph" class="graph">
<g id="viewport">
<title>model.neighbors.SquareTriangleNeighbors.getDiagonalNeighbors</title>
<polygon fill="white" stroke="none" points="-4,4 -4,-161 632,-161 632,4 -4,4"/>
<!-- Node1 -->
<g id="node1" class="node"><title>Node1</title>
<polygon fill="#bfbfbf" stroke="black" points="0.5,-66 0.5,-96 175.5,-96 175.5,-66 0.5,-66"/>
<text text-anchor="start" x="8.5" y="-84" font-family="Helvetica,sans-Serif" font-size="10.00">model.neighbors.SquareTriangle</text>
<text text-anchor="middle" x="88" y="-73" font-family="Helvetica,sans-Serif" font-size="10.00">Neighbors.getDiagonalNeighbors</text>
</g>
<!-- Node2 -->
<g id="node2" class="node"><title>Node2</title>
<g id="a_node2"><a xlink:href="../../dc/de1/classmodel_1_1neighbors_1_1_neighbors.html#ad0ebeba79aaf13dce7951d4c23ad990f" target="_top" xlink:title="model.neighbors.Neighbors.bottomLeft">
<polygon fill="white" stroke="black" points="212.5,-137.5 212.5,-156.5 417.5,-156.5 417.5,-137.5 212.5,-137.5"/>
<text text-anchor="middle" x="315" y="-144.5" font-family="Helvetica,sans-Serif" font-size="10.00">model.neighbors.Neighbors.bottomLeft</text>
</a>
</g>
</g>
<!-- Node1&#45;&gt;Node2 -->
<g id="edge1" class="edge"><title>Node1&#45;&gt;Node2</title>
<path fill="none" stroke="midnightblue" d="M124.542,-96.0655C148.833,-105.92 181.946,-118.496 212,-127 223.08,-130.135 234.973,-132.95 246.586,-135.409"/>
<polygon fill="midnightblue" stroke="midnightblue" points="246.193,-138.901 256.692,-137.478 247.597,-132.043 246.193,-138.901"/>
</g>
<!-- Node4 -->
<g id="node4" class="node"><title>Node4</title>
<g id="a_node4"><a xlink:href="../../dc/de1/classmodel_1_1neighbors_1_1_neighbors.html#a7943b721335bdaa80fd9ea617993392c" target="_top" xlink:title="model.neighbors.Neighbors.bottom\lRight">
<polygon fill="white" stroke="black" points="221.5,-88 221.5,-118 408.5,-118 408.5,-88 221.5,-88"/>
<text text-anchor="start" x="229.5" y="-106" font-family="Helvetica,sans-Serif" font-size="10.00">model.neighbors.Neighbors.bottom</text>
<text text-anchor="middle" x="315" y="-95" font-family="Helvetica,sans-Serif" font-size="10.00">Right</text>
</a>
</g>
</g>
<!-- Node1&#45;&gt;Node4 -->
<g id="edge3" class="edge"><title>Node1&#45;&gt;Node4</title>
<path fill="none" stroke="midnightblue" d="M175.669,-89.4743C187.372,-90.6186 199.468,-91.8014 211.415,-92.9695"/>
<polygon fill="midnightblue" stroke="midnightblue" points="211.109,-96.4562 221.403,-93.946 211.791,-89.4894 211.109,-96.4562"/>
</g>
<!-- Node5 -->
<g id="node5" class="node"><title>Node5</title>
<g id="a_node5"><a xlink:href="../../dc/de1/classmodel_1_1neighbors_1_1_neighbors.html#af8de37f6b70ac9ab8008b6629f22886a" target="_top" xlink:title="model.neighbors.Neighbors.topLeft">
<polygon fill="white" stroke="black" points="222.5,-49.5 222.5,-68.5 407.5,-68.5 407.5,-49.5 222.5,-49.5"/>
<text text-anchor="middle" x="315" y="-56.5" font-family="Helvetica,sans-Serif" font-size="10.00">model.neighbors.Neighbors.topLeft</text>
</a>
</g>
</g>
<!-- Node1&#45;&gt;Node5 -->
<g id="edge5" class="edge"><title>Node1&#45;&gt;Node5</title>
<path fill="none" stroke="midnightblue" d="M175.669,-72.5257C187.565,-71.3625 199.868,-70.1595 212.007,-68.9726"/>
<polygon fill="midnightblue" stroke="midnightblue" points="212.54,-72.4373 222.152,-67.9807 211.859,-65.4705 212.54,-72.4373"/>
</g>
<!-- Node6 -->
<g id="node6" class="node"><title>Node6</title>
<g id="a_node6"><a xlink:href="../../dc/de1/classmodel_1_1neighbors_1_1_neighbors.html#ae82e69e25fdf465f6dee196c82b1f6af" target="_top" xlink:title="model.neighbors.Neighbors.top\lRight">
<polygon fill="white" stroke="black" points="231.5,-0 231.5,-30 398.5,-30 398.5,-0 231.5,-0"/>
<text text-anchor="start" x="239.5" y="-18" font-family="Helvetica,sans-Serif" font-size="10.00">model.neighbors.Neighbors.top</text>
<text text-anchor="middle" x="315" y="-7" font-family="Helvetica,sans-Serif" font-size="10.00">Right</text>
</a>
</g>
</g>
<!-- Node1&#45;&gt;Node6 -->
<g id="edge7" class="edge"><title>Node1&#45;&gt;Node6</title>
<path fill="none" stroke="midnightblue" d="M131.426,-65.9102C155.008,-57.7623 184.967,-47.8042 212,-40 220.812,-37.456 230.099,-34.9465 239.335,-32.5562"/>
<polygon fill="midnightblue" stroke="midnightblue" points="240.486,-35.8748 249.311,-30.0131 238.757,-29.0917 240.486,-35.8748"/>
</g>
<!-- Node3 -->
<g id="node3" class="node"><title>Node3</title>
<g id="a_node3"><a xlink:href="../../da/d6d/classmodel_1_1gridrules_1_1_grid_rules.html#a667e0098e66a7b398962d78c830f6c4a" target="_top" xlink:title="model.gridrules.GridRules.handle\lEdges">
<polygon fill="white" stroke="black" points="454.5,-66 454.5,-96 627.5,-96 627.5,-66 454.5,-66"/>
<text text-anchor="start" x="462.5" y="-84" font-family="Helvetica,sans-Serif" font-size="10.00">model.gridrules.GridRules.handle</text>
<text text-anchor="middle" x="541" y="-73" font-family="Helvetica,sans-Serif" font-size="10.00">Edges</text>
</a>
</g>
</g>
<!-- Node2&#45;&gt;Node3 -->
<g id="edge2" class="edge"><title>Node2&#45;&gt;Node3</title>
<path fill="none" stroke="midnightblue" d="M373.583,-137.452C388.187,-134.555 403.767,-131.048 418,-127 444.1,-119.577 472.508,-109.019 495.339,-99.8904"/>
<polygon fill="midnightblue" stroke="midnightblue" points="496.802,-103.074 504.759,-96.0788 494.176,-96.5852 496.802,-103.074"/>
</g>
<!-- Node4&#45;&gt;Node3 -->
<g id="edge4" class="edge"><title>Node4&#45;&gt;Node3</title>
<path fill="none" stroke="midnightblue" d="M408.726,-93.893C420.363,-92.7501 432.285,-91.5791 443.971,-90.4315"/>
<polygon fill="midnightblue" stroke="midnightblue" points="444.556,-93.8909 454.166,-89.4301 443.872,-86.9244 444.556,-93.8909"/>
</g>
<!-- Node5&#45;&gt;Node3 -->
<g id="edge6" class="edge"><title>Node5&#45;&gt;Node3</title>
<path fill="none" stroke="midnightblue" d="M407.756,-68.0117C419.743,-69.1891 432.051,-70.3979 444.105,-71.5817"/>
<polygon fill="midnightblue" stroke="midnightblue" points="443.863,-75.0748 454.158,-72.5691 444.548,-68.1083 443.863,-75.0748"/>
</g>
<!-- Node6&#45;&gt;Node3 -->
<g id="edge8" class="edge"><title>Node6&#45;&gt;Node3</title>
<path fill="none" stroke="midnightblue" d="M380.968,-30.0579C393.314,-33.1638 406.093,-36.5465 418,-40 441.356,-46.7738 466.902,-55.1982 488.556,-62.6455"/>
<polygon fill="midnightblue" stroke="midnightblue" points="487.615,-66.0233 498.209,-65.989 489.906,-59.4088 487.615,-66.0233"/>
</g>
</g>
</svg>
        <g id="navigator" transform="translate(0 0)" fill="#404254">
                <rect fill="#f2f5e9" fill-opacity="0.5" stroke="#606060" stroke-width=".5" x="0" y="0" width="60" height="60"/>
                <use id="zoomplus" xlink:href="#zoomPlus" x="17" y="9" onmousedown="handleZoom(evt,'in')"/>
                <use id="zoomminus" xlink:href="#zoomMin" x="42" y="9" onmousedown="handleZoom(evt,'out')"/>
                <use id="reset" xlink:href="#resetDef" x="30" y="36" onmousedown="handleReset()"/>
                <g id="arrowUp" xlink:href="#dirArrow" transform="translate(30 24)" onmousedown="handlePan(0,-1)">
                  <use xlink:href="#rim" fill="#404040">
                        <set attributeName="fill" to="#808080" begin="arrowUp.mouseover" end="arrowUp.mouseout"/>
                  </use>
                  <path fill="none" stroke="white" stroke-width="1.5" d="M0,-3.0v7 M-2.5,-0.5L0,-3.0L2.5,-0.5"/>
                </g>
                <g id="arrowRight" xlink:href="#dirArrow" transform="rotate(90) translate(36 -43)" onmousedown="handlePan(1,0)">
                  <use xlink:href="#rim" fill="#404040">
                        <set attributeName="fill" to="#808080" begin="arrowRight.mouseover" end="arrowRight.mouseout"/>
                  </use>
                  <path fill="none" stroke="white" stroke-width="1.5" d="M0,-3.0v7 M-2.5,-0.5L0,-3.0L2.5,-0.5"/>
                </g>
                <g id="arrowDown" xlink:href="#dirArrow" transform="rotate(180) translate(-30 -48)" onmousedown="handlePan(0,1)">
                  <use xlink:href="#rim" fill="#404040">
                        <set attributeName="fill" to="#808080" begin="arrowDown.mouseover" end="arrowDown.mouseout"/>
                  </use>
                  <path fill="none" stroke="white" stroke-width="1.5" d="M0,-3.0v7 M-2.5,-0.5L0,-3.0L2.5,-0.5"/>
                </g>
                <g id="arrowLeft" xlink:href="#dirArrow" transform="rotate(270) translate(-36 17)" onmousedown="handlePan(-1,0)">
                  <use xlink:href="#rim" fill="#404040">
                        <set attributeName="fill" to="#808080" begin="arrowLeft.mouseover" end="arrowLeft.mouseout"/>
                  </use>
                  <path fill="none" stroke="white" stroke-width="1.5" d="M0,-3.0v7 M-2.5,-0.5L0,-3.0L2.5,-0.5"/>
                </g>
        </g>
        <svg viewBox="0 0 15 15" width="100%" height="30px" preserveAspectRatio="xMaxYMin meet">
         <g id="arrow_out" transform="scale(0.3 0.3)">
          <a xlink:href="classmodel_1_1neighbors_1_1_square_triangle_neighbors_afb39acbe23c36fbe98271ca837c9d5de_cgraph_org.svg" target="_base">
           <rect id="button" ry="5" rx="5" y="6" x="6" height="38" width="38"
                fill="#f2f5e9" fill-opacity="0.5" stroke="#606060" stroke-width="1.0"/>
           <path id="arrow"
             d="M 11.500037,31.436501 C 11.940474,20.09759 22.043105,11.32322 32.158766,21.979434 L 37.068811,17.246167 C 37.068811,17.246167 37.088388,32 37.088388,32 L 22.160133,31.978069 C 22.160133,31.978069 26.997745,27.140456 26.997745,27.140456 C 18.528582,18.264221 13.291696,25.230495 11.500037,31.436501 z"
             style="fill:#404040;"/>
          </a>
         </g>
        </svg>
</svg>
